G04 #@! TF.GenerationSoftware,KiCad,Pcbnew,(5.0.0)*
G04 #@! TF.CreationDate,2018-10-11T21:25:17+02:00*
G04 #@! TF.ProjectId,canbus,63616E6275732E6B696361645F706362,rev?*
G04 #@! TF.SameCoordinates,Original*
G04 #@! TF.FileFunction,Legend,Top*
G04 #@! TF.FilePolarity,Positive*
%FSLAX46Y46*%
G04 Gerber Fmt 4.6, Leading zero omitted, Abs format (unit mm)*
G04 Created by KiCad (PCBNEW (5.0.0)) date 10/11/18 21:25:17*
%MOMM*%
%LPD*%
G01*
G04 APERTURE LIST*
%ADD10C,0.101600*%
%ADD11C,0.203200*%
%ADD12C,0.120000*%
%ADD13C,0.120650*%
%ADD14C,0.150000*%
G04 APERTURE END LIST*
D10*
X114756378Y-90066147D02*
X114066949Y-90066147D01*
X114411663Y-90066147D02*
X114411663Y-88859647D01*
X114296759Y-89032004D01*
X114181854Y-89146909D01*
X114066949Y-89204361D01*
X157126378Y-89606147D02*
X156436949Y-89606147D01*
X156781663Y-89606147D02*
X156781663Y-88399647D01*
X156666759Y-88572004D01*
X156551854Y-88686909D01*
X156436949Y-88744361D01*
X158160520Y-88399647D02*
X157930711Y-88399647D01*
X157815806Y-88457100D01*
X157758354Y-88514552D01*
X157643449Y-88686909D01*
X157585997Y-88916719D01*
X157585997Y-89376338D01*
X157643449Y-89491242D01*
X157700901Y-89548695D01*
X157815806Y-89606147D01*
X158045616Y-89606147D01*
X158160520Y-89548695D01*
X158217973Y-89491242D01*
X158275425Y-89376338D01*
X158275425Y-89089076D01*
X158217973Y-88974171D01*
X158160520Y-88916719D01*
X158045616Y-88859266D01*
X157815806Y-88859266D01*
X157700901Y-88916719D01*
X157643449Y-88974171D01*
X157585997Y-89089076D01*
D11*
G04 #@! TO.C,LCD1*
X114851100Y-89488600D02*
X114851100Y-90758600D01*
X155491100Y-89488600D02*
X155491100Y-90758600D01*
X130726100Y-88853600D02*
X131996100Y-88853600D01*
X131996100Y-88853600D02*
X132631100Y-89488600D01*
X132631100Y-90758600D02*
X131996100Y-91393600D01*
X127551100Y-89488600D02*
X128186100Y-88853600D01*
X128186100Y-88853600D02*
X129456100Y-88853600D01*
X129456100Y-88853600D02*
X130091100Y-89488600D01*
X130091100Y-90758600D02*
X129456100Y-91393600D01*
X129456100Y-91393600D02*
X128186100Y-91393600D01*
X128186100Y-91393600D02*
X127551100Y-90758600D01*
X130726100Y-88853600D02*
X130091100Y-89488600D01*
X130091100Y-90758600D02*
X130726100Y-91393600D01*
X131996100Y-91393600D02*
X130726100Y-91393600D01*
X123106100Y-88853600D02*
X124376100Y-88853600D01*
X124376100Y-88853600D02*
X125011100Y-89488600D01*
X125011100Y-90758600D02*
X124376100Y-91393600D01*
X125011100Y-89488600D02*
X125646100Y-88853600D01*
X125646100Y-88853600D02*
X126916100Y-88853600D01*
X126916100Y-88853600D02*
X127551100Y-89488600D01*
X127551100Y-90758600D02*
X126916100Y-91393600D01*
X126916100Y-91393600D02*
X125646100Y-91393600D01*
X125646100Y-91393600D02*
X125011100Y-90758600D01*
X119931100Y-89488600D02*
X120566100Y-88853600D01*
X120566100Y-88853600D02*
X121836100Y-88853600D01*
X121836100Y-88853600D02*
X122471100Y-89488600D01*
X122471100Y-90758600D02*
X121836100Y-91393600D01*
X121836100Y-91393600D02*
X120566100Y-91393600D01*
X120566100Y-91393600D02*
X119931100Y-90758600D01*
X123106100Y-88853600D02*
X122471100Y-89488600D01*
X122471100Y-90758600D02*
X123106100Y-91393600D01*
X124376100Y-91393600D02*
X123106100Y-91393600D01*
X115486100Y-88853600D02*
X116756100Y-88853600D01*
X116756100Y-88853600D02*
X117391100Y-89488600D01*
X117391100Y-90758600D02*
X116756100Y-91393600D01*
X117391100Y-89488600D02*
X118026100Y-88853600D01*
X118026100Y-88853600D02*
X119296100Y-88853600D01*
X119296100Y-88853600D02*
X119931100Y-89488600D01*
X119931100Y-90758600D02*
X119296100Y-91393600D01*
X119296100Y-91393600D02*
X118026100Y-91393600D01*
X118026100Y-91393600D02*
X117391100Y-90758600D01*
X114851100Y-89488600D02*
X114851100Y-90758600D01*
X115486100Y-88853600D02*
X114851100Y-89488600D01*
X114851100Y-90758600D02*
X115486100Y-91393600D01*
X116756100Y-91393600D02*
X115486100Y-91393600D01*
X148506100Y-88853600D02*
X149776100Y-88853600D01*
X149776100Y-88853600D02*
X150411100Y-89488600D01*
X150411100Y-90758600D02*
X149776100Y-91393600D01*
X145331100Y-89488600D02*
X145966100Y-88853600D01*
X145966100Y-88853600D02*
X147236100Y-88853600D01*
X147236100Y-88853600D02*
X147871100Y-89488600D01*
X147871100Y-90758600D02*
X147236100Y-91393600D01*
X147236100Y-91393600D02*
X145966100Y-91393600D01*
X145966100Y-91393600D02*
X145331100Y-90758600D01*
X148506100Y-88853600D02*
X147871100Y-89488600D01*
X147871100Y-90758600D02*
X148506100Y-91393600D01*
X149776100Y-91393600D02*
X148506100Y-91393600D01*
X140886100Y-88853600D02*
X142156100Y-88853600D01*
X142156100Y-88853600D02*
X142791100Y-89488600D01*
X142791100Y-90758600D02*
X142156100Y-91393600D01*
X142791100Y-89488600D02*
X143426100Y-88853600D01*
X143426100Y-88853600D02*
X144696100Y-88853600D01*
X144696100Y-88853600D02*
X145331100Y-89488600D01*
X145331100Y-90758600D02*
X144696100Y-91393600D01*
X144696100Y-91393600D02*
X143426100Y-91393600D01*
X143426100Y-91393600D02*
X142791100Y-90758600D01*
X137711100Y-89488600D02*
X138346100Y-88853600D01*
X138346100Y-88853600D02*
X139616100Y-88853600D01*
X139616100Y-88853600D02*
X140251100Y-89488600D01*
X140251100Y-90758600D02*
X139616100Y-91393600D01*
X139616100Y-91393600D02*
X138346100Y-91393600D01*
X138346100Y-91393600D02*
X137711100Y-90758600D01*
X140886100Y-88853600D02*
X140251100Y-89488600D01*
X140251100Y-90758600D02*
X140886100Y-91393600D01*
X142156100Y-91393600D02*
X140886100Y-91393600D01*
X133266100Y-88853600D02*
X134536100Y-88853600D01*
X134536100Y-88853600D02*
X135171100Y-89488600D01*
X135171100Y-90758600D02*
X134536100Y-91393600D01*
X135171100Y-89488600D02*
X135806100Y-88853600D01*
X135806100Y-88853600D02*
X137076100Y-88853600D01*
X137076100Y-88853600D02*
X137711100Y-89488600D01*
X137711100Y-90758600D02*
X137076100Y-91393600D01*
X137076100Y-91393600D02*
X135806100Y-91393600D01*
X135806100Y-91393600D02*
X135171100Y-90758600D01*
X133266100Y-88853600D02*
X132631100Y-89488600D01*
X132631100Y-90758600D02*
X133266100Y-91393600D01*
X134536100Y-91393600D02*
X133266100Y-91393600D01*
X151046100Y-88853600D02*
X150411100Y-89488600D01*
X151046100Y-88853600D02*
X152316100Y-88853600D01*
X152316100Y-88853600D02*
X152951100Y-89488600D01*
X152951100Y-90758600D02*
X152316100Y-91393600D01*
X152316100Y-91393600D02*
X151046100Y-91393600D01*
X150411100Y-90758600D02*
X151046100Y-91393600D01*
X153586100Y-88853600D02*
X152951100Y-89488600D01*
X153586100Y-88853600D02*
X154856100Y-88853600D01*
X154856100Y-88853600D02*
X155491100Y-89488600D01*
X155491100Y-89488600D02*
X155491100Y-90758600D01*
X155491100Y-90758600D02*
X154856100Y-91393600D01*
X154856100Y-91393600D02*
X153586100Y-91393600D01*
X152951100Y-90758600D02*
X153586100Y-91393600D01*
D12*
G04 #@! TO.C,R8*
X179633200Y-89517136D02*
X179633200Y-90721264D01*
X181453200Y-89517136D02*
X181453200Y-90721264D01*
G04 #@! TO.C,LCD1*
D13*
X116764208Y-93414547D02*
X116189684Y-93414547D01*
X116189684Y-92208047D01*
X117855803Y-93299642D02*
X117798351Y-93357095D01*
X117625993Y-93414547D01*
X117511089Y-93414547D01*
X117338732Y-93357095D01*
X117223827Y-93242190D01*
X117166374Y-93127285D01*
X117108922Y-92897476D01*
X117108922Y-92725119D01*
X117166374Y-92495309D01*
X117223827Y-92380404D01*
X117338732Y-92265500D01*
X117511089Y-92208047D01*
X117625993Y-92208047D01*
X117798351Y-92265500D01*
X117855803Y-92322952D01*
X118372874Y-93414547D02*
X118372874Y-92208047D01*
X118660136Y-92208047D01*
X118832493Y-92265500D01*
X118947398Y-92380404D01*
X119004851Y-92495309D01*
X119062303Y-92725119D01*
X119062303Y-92897476D01*
X119004851Y-93127285D01*
X118947398Y-93242190D01*
X118832493Y-93357095D01*
X118660136Y-93414547D01*
X118372874Y-93414547D01*
X120211351Y-93414547D02*
X119521922Y-93414547D01*
X119866636Y-93414547D02*
X119866636Y-92208047D01*
X119751732Y-92380404D01*
X119636827Y-92495309D01*
X119521922Y-92552761D01*
G04 #@! TO.C,R8*
D14*
X179166780Y-90387466D02*
X178690590Y-90720800D01*
X179166780Y-90958895D02*
X178166780Y-90958895D01*
X178166780Y-90577942D01*
X178214400Y-90482704D01*
X178262019Y-90435085D01*
X178357257Y-90387466D01*
X178500114Y-90387466D01*
X178595352Y-90435085D01*
X178642971Y-90482704D01*
X178690590Y-90577942D01*
X178690590Y-90958895D01*
X178595352Y-89816038D02*
X178547733Y-89911276D01*
X178500114Y-89958895D01*
X178404876Y-90006514D01*
X178357257Y-90006514D01*
X178262019Y-89958895D01*
X178214400Y-89911276D01*
X178166780Y-89816038D01*
X178166780Y-89625561D01*
X178214400Y-89530323D01*
X178262019Y-89482704D01*
X178357257Y-89435085D01*
X178404876Y-89435085D01*
X178500114Y-89482704D01*
X178547733Y-89530323D01*
X178595352Y-89625561D01*
X178595352Y-89816038D01*
X178642971Y-89911276D01*
X178690590Y-89958895D01*
X178785828Y-90006514D01*
X178976304Y-90006514D01*
X179071542Y-89958895D01*
X179119161Y-89911276D01*
X179166780Y-89816038D01*
X179166780Y-89625561D01*
X179119161Y-89530323D01*
X179071542Y-89482704D01*
X178976304Y-89435085D01*
X178785828Y-89435085D01*
X178690590Y-89482704D01*
X178642971Y-89530323D01*
X178595352Y-89625561D01*
G04 #@! TD*
M02*
