%TF.GenerationSoftware,KiCad,Pcbnew,(5.0.2)-1*%
%TF.CreationDate,2019-07-05T20:57:08+02:00*%
%TF.ProjectId,PSAVanCanBridge_v11,56616e43-616e-4457-9370-33322e6b6963,rev?*%
%TF.SameCoordinates,Original*%
%TF.FileFunction,Legend,Top*%
%TF.FilePolarity,Positive*%
%FSLAX46Y46*%
G04 Gerber Fmt 4.6, Leading zero omitted, Abs format (unit mm)*
G04 Created by KiCad (PCBNEW (5.0.2)-1) date 05/07/2019 20:57:08*
%MOMM*%
%LPD*%
G01*
G04 APERTURE LIST*
%ADD10C,0.100000*%
%ADD11C,0.120000*%
%ADD12C,0.150000*%
G04 APERTURE END LIST*
D10*
X83045427Y-53663904D02*
X83312094Y-54463904D01*
X83578761Y-53663904D01*
X84226380Y-54463904D02*
X83845427Y-54463904D01*
X83845427Y-53663904D01*
X83045428Y-51377904D02*
X83312095Y-52177904D01*
X83578762Y-51377904D01*
X83845428Y-52177904D02*
X83845428Y-51377904D01*
X83845428Y-51758857D02*
X84302571Y-51758857D01*
X84302571Y-52177904D02*
X84302571Y-51377904D01*
X83489856Y-49434714D02*
X83451761Y-49472809D01*
X83337475Y-49510904D01*
X83261285Y-49510904D01*
X83146999Y-49472809D01*
X83070808Y-49396619D01*
X83032713Y-49320428D01*
X82994618Y-49168047D01*
X82994618Y-49053761D01*
X83032713Y-48901380D01*
X83070808Y-48825190D01*
X83146999Y-48749000D01*
X83261285Y-48710904D01*
X83337475Y-48710904D01*
X83451761Y-48749000D01*
X83489856Y-48787095D01*
X84213666Y-49510904D02*
X83832713Y-49510904D01*
X83832713Y-48710904D01*
X83489856Y-47021714D02*
X83451761Y-47059809D01*
X83337475Y-47097904D01*
X83261285Y-47097904D01*
X83146999Y-47059809D01*
X83070808Y-46983619D01*
X83032713Y-46907428D01*
X82994618Y-46755047D01*
X82994618Y-46640761D01*
X83032713Y-46488380D01*
X83070808Y-46412190D01*
X83146999Y-46336000D01*
X83261285Y-46297904D01*
X83337475Y-46297904D01*
X83451761Y-46336000D01*
X83489856Y-46374095D01*
X83832713Y-47097904D02*
X83832713Y-46297904D01*
X83832713Y-46678857D02*
X84289856Y-46678857D01*
X84289856Y-47097904D02*
X84289856Y-46297904D01*
X83578761Y-43595321D02*
X83502570Y-43557225D01*
X83388285Y-43557225D01*
X83273999Y-43595321D01*
X83197808Y-43671511D01*
X83159713Y-43747701D01*
X83121618Y-43900082D01*
X83121618Y-44014368D01*
X83159713Y-44166749D01*
X83197808Y-44242940D01*
X83273999Y-44319130D01*
X83388285Y-44357225D01*
X83464475Y-44357225D01*
X83578761Y-44319130D01*
X83616856Y-44281035D01*
X83616856Y-44014368D01*
X83464475Y-44014368D01*
X83959713Y-44357225D02*
X83959713Y-43557225D01*
X84416856Y-44357225D01*
X84416856Y-43557225D01*
X84797808Y-44357225D02*
X84797808Y-43557225D01*
X84988285Y-43557225D01*
X85102570Y-43595321D01*
X85178761Y-43671511D01*
X85216856Y-43747701D01*
X85254951Y-43900082D01*
X85254951Y-44014368D01*
X85216856Y-44166749D01*
X85178761Y-44242940D01*
X85102570Y-44319130D01*
X84988285Y-44357225D01*
X84797808Y-44357225D01*
X83578761Y-41763904D02*
X83121619Y-41763904D01*
X83350190Y-41763904D02*
X83350190Y-40963904D01*
X83274000Y-41078190D01*
X83197809Y-41154380D01*
X83121619Y-41192476D01*
X83883523Y-41040095D02*
X83921619Y-41002000D01*
X83997809Y-40963904D01*
X84188285Y-40963904D01*
X84264476Y-41002000D01*
X84302571Y-41040095D01*
X84340666Y-41116285D01*
X84340666Y-41192476D01*
X84302571Y-41306761D01*
X83845428Y-41763904D01*
X84340666Y-41763904D01*
X84569238Y-40963904D02*
X84835904Y-41763904D01*
X85102571Y-40963904D01*
X90800333Y-60068666D02*
X91033666Y-60768666D01*
X91267000Y-60068666D01*
X91500333Y-60768666D02*
X91500333Y-60068666D01*
X91833666Y-60768666D02*
X91833666Y-60068666D01*
X92233666Y-60768666D01*
X92233666Y-60068666D01*
X90819381Y-34668666D02*
X91252715Y-34668666D01*
X91019381Y-34935333D01*
X91119381Y-34935333D01*
X91186048Y-34968666D01*
X91219381Y-35002000D01*
X91252715Y-35068666D01*
X91252715Y-35235333D01*
X91219381Y-35302000D01*
X91186048Y-35335333D01*
X91119381Y-35368666D01*
X90919381Y-35368666D01*
X90852715Y-35335333D01*
X90819381Y-35302000D01*
X91486048Y-34902000D02*
X91652715Y-35368666D01*
X91819381Y-34902000D01*
X92019381Y-34668666D02*
X92452715Y-34668666D01*
X92219381Y-34935333D01*
X92319381Y-34935333D01*
X92386048Y-34968666D01*
X92419381Y-35002000D01*
X92452715Y-35068666D01*
X92452715Y-35235333D01*
X92419381Y-35302000D01*
X92386048Y-35335333D01*
X92319381Y-35368666D01*
X92119381Y-35368666D01*
X92052715Y-35335333D01*
X92019381Y-35302000D01*
D11*
X58006064Y-46630000D02*
X56801936Y-46630000D01*
X58006064Y-44810000D02*
X56801936Y-44810000D01*
X59750000Y-44510000D02*
X59750000Y-41850000D01*
X52070000Y-44510000D02*
X59750000Y-44510000D01*
X52070000Y-41850000D02*
X59750000Y-41850000D01*
X52070000Y-44510000D02*
X52070000Y-41850000D01*
X50800000Y-44510000D02*
X49470000Y-44510000D01*
X49470000Y-44510000D02*
X49470000Y-43180000D01*
X53053064Y-48408000D02*
X51848936Y-48408000D01*
X53053064Y-46588000D02*
X51848936Y-46588000D01*
X80897000Y-39697199D02*
X80497000Y-39697199D01*
X80697000Y-39497199D02*
X80697000Y-39897199D01*
X79872000Y-43848000D02*
X79132000Y-43848000D01*
X80039000Y-43808000D02*
X78965000Y-43808000D01*
X80166000Y-43768000D02*
X78838000Y-43768000D01*
X80270000Y-43728000D02*
X78734000Y-43728000D01*
X80361000Y-43688000D02*
X78643000Y-43688000D01*
X80442000Y-43648000D02*
X78562000Y-43648000D01*
X80515000Y-43608000D02*
X78489000Y-43608000D01*
X78662000Y-43568000D02*
X78422000Y-43568000D01*
X80582000Y-43568000D02*
X80342000Y-43568000D01*
X78662000Y-43528000D02*
X78360000Y-43528000D01*
X80644000Y-43528000D02*
X80342000Y-43528000D01*
X78662000Y-43488000D02*
X78302000Y-43488000D01*
X80702000Y-43488000D02*
X80342000Y-43488000D01*
X78662000Y-43448000D02*
X78248000Y-43448000D01*
X80756000Y-43448000D02*
X80342000Y-43448000D01*
X78662000Y-43408000D02*
X78198000Y-43408000D01*
X80806000Y-43408000D02*
X80342000Y-43408000D01*
X78662000Y-43368000D02*
X78151000Y-43368000D01*
X80853000Y-43368000D02*
X80342000Y-43368000D01*
X78662000Y-43328000D02*
X78106000Y-43328000D01*
X80898000Y-43328000D02*
X80342000Y-43328000D01*
X78662000Y-43288000D02*
X78064000Y-43288000D01*
X80940000Y-43288000D02*
X80342000Y-43288000D01*
X78662000Y-43248000D02*
X78024000Y-43248000D01*
X80980000Y-43248000D02*
X80342000Y-43248000D01*
X78662000Y-43208000D02*
X77986000Y-43208000D01*
X81018000Y-43208000D02*
X80342000Y-43208000D01*
X78662000Y-43168000D02*
X77950000Y-43168000D01*
X81054000Y-43168000D02*
X80342000Y-43168000D01*
X78662000Y-43128000D02*
X77915000Y-43128000D01*
X81089000Y-43128000D02*
X80342000Y-43128000D01*
X78662000Y-43088000D02*
X77883000Y-43088000D01*
X81121000Y-43088000D02*
X80342000Y-43088000D01*
X78662000Y-43048000D02*
X77852000Y-43048000D01*
X81152000Y-43048000D02*
X80342000Y-43048000D01*
X78662000Y-43008000D02*
X77822000Y-43008000D01*
X81182000Y-43008000D02*
X80342000Y-43008000D01*
X78662000Y-42968000D02*
X77794000Y-42968000D01*
X81210000Y-42968000D02*
X80342000Y-42968000D01*
X78662000Y-42928000D02*
X77767000Y-42928000D01*
X81237000Y-42928000D02*
X80342000Y-42928000D01*
X78662000Y-42888000D02*
X77742000Y-42888000D01*
X81262000Y-42888000D02*
X80342000Y-42888000D01*
X78662000Y-42848000D02*
X77717000Y-42848000D01*
X81287000Y-42848000D02*
X80342000Y-42848000D01*
X78662000Y-42808000D02*
X77694000Y-42808000D01*
X81310000Y-42808000D02*
X80342000Y-42808000D01*
X78662000Y-42768000D02*
X77672000Y-42768000D01*
X81332000Y-42768000D02*
X80342000Y-42768000D01*
X78662000Y-42728000D02*
X77651000Y-42728000D01*
X81353000Y-42728000D02*
X80342000Y-42728000D01*
X78662000Y-42688000D02*
X77632000Y-42688000D01*
X81372000Y-42688000D02*
X80342000Y-42688000D01*
X78662000Y-42648000D02*
X77613000Y-42648000D01*
X81391000Y-42648000D02*
X80342000Y-42648000D01*
X78662000Y-42608000D02*
X77595000Y-42608000D01*
X81409000Y-42608000D02*
X80342000Y-42608000D01*
X78662000Y-42568000D02*
X77578000Y-42568000D01*
X81426000Y-42568000D02*
X80342000Y-42568000D01*
X78662000Y-42528000D02*
X77562000Y-42528000D01*
X81442000Y-42528000D02*
X80342000Y-42528000D01*
X78662000Y-42488000D02*
X77548000Y-42488000D01*
X81456000Y-42488000D02*
X80342000Y-42488000D01*
X78662000Y-42447000D02*
X77534000Y-42447000D01*
X81470000Y-42447000D02*
X80342000Y-42447000D01*
X78662000Y-42407000D02*
X77520000Y-42407000D01*
X81484000Y-42407000D02*
X80342000Y-42407000D01*
X78662000Y-42367000D02*
X77508000Y-42367000D01*
X81496000Y-42367000D02*
X80342000Y-42367000D01*
X78662000Y-42327000D02*
X77497000Y-42327000D01*
X81507000Y-42327000D02*
X80342000Y-42327000D01*
X78662000Y-42287000D02*
X77486000Y-42287000D01*
X81518000Y-42287000D02*
X80342000Y-42287000D01*
X78662000Y-42247000D02*
X77477000Y-42247000D01*
X81527000Y-42247000D02*
X80342000Y-42247000D01*
X78662000Y-42207000D02*
X77468000Y-42207000D01*
X81536000Y-42207000D02*
X80342000Y-42207000D01*
X78662000Y-42167000D02*
X77460000Y-42167000D01*
X81544000Y-42167000D02*
X80342000Y-42167000D01*
X78662000Y-42127000D02*
X77452000Y-42127000D01*
X81552000Y-42127000D02*
X80342000Y-42127000D01*
X78662000Y-42087000D02*
X77446000Y-42087000D01*
X81558000Y-42087000D02*
X80342000Y-42087000D01*
X78662000Y-42047000D02*
X77440000Y-42047000D01*
X81564000Y-42047000D02*
X80342000Y-42047000D01*
X78662000Y-42007000D02*
X77435000Y-42007000D01*
X81569000Y-42007000D02*
X80342000Y-42007000D01*
X78662000Y-41967000D02*
X77431000Y-41967000D01*
X81573000Y-41967000D02*
X80342000Y-41967000D01*
X81576000Y-41927000D02*
X77428000Y-41927000D01*
X81579000Y-41887000D02*
X77425000Y-41887000D01*
X81581000Y-41847000D02*
X77423000Y-41847000D01*
X81582000Y-41807000D02*
X77422000Y-41807000D01*
X81582000Y-41767000D02*
X77422000Y-41767000D01*
X81622000Y-41767000D02*
G75*
G03X81622000Y-41767000I-2120000J0D01*
G01*
X88071000Y-40199000D02*
X85411000Y-40199000D01*
X88071000Y-52959000D02*
X88071000Y-40199000D01*
X85411000Y-52959000D02*
X85411000Y-40199000D01*
X88071000Y-52959000D02*
X85411000Y-52959000D01*
X88071000Y-54229000D02*
X88071000Y-55559000D01*
X88071000Y-55559000D02*
X86741000Y-55559000D01*
X98972000Y-47852000D02*
X98972000Y-56662000D01*
X98972000Y-56662000D02*
X87252000Y-56662000D01*
X87252000Y-56662000D02*
X87252000Y-55242000D01*
X87252000Y-55242000D02*
X91752000Y-55242000D01*
X91752000Y-55242000D02*
X91752000Y-47852000D01*
X98972000Y-47852000D02*
X98972000Y-39042000D01*
X98972000Y-39042000D02*
X87252000Y-39042000D01*
X87252000Y-39042000D02*
X87252000Y-40462000D01*
X87252000Y-40462000D02*
X91752000Y-40462000D01*
X91752000Y-40462000D02*
X91752000Y-47852000D01*
X92862000Y-54352000D02*
X98362000Y-54352000D01*
X98362000Y-54352000D02*
X98362000Y-53852000D01*
X98362000Y-53852000D02*
X92862000Y-53852000D01*
X92862000Y-53852000D02*
X92862000Y-54352000D01*
X92862000Y-51852000D02*
X98362000Y-51852000D01*
X98362000Y-51852000D02*
X98362000Y-51352000D01*
X98362000Y-51352000D02*
X92862000Y-51352000D01*
X92862000Y-51352000D02*
X92862000Y-51852000D01*
X92862000Y-49352000D02*
X98362000Y-49352000D01*
X98362000Y-49352000D02*
X98362000Y-48852000D01*
X98362000Y-48852000D02*
X92862000Y-48852000D01*
X92862000Y-48852000D02*
X92862000Y-49352000D01*
X92862000Y-46852000D02*
X98362000Y-46852000D01*
X98362000Y-46852000D02*
X98362000Y-46352000D01*
X98362000Y-46352000D02*
X92862000Y-46352000D01*
X92862000Y-46352000D02*
X92862000Y-46852000D01*
X92862000Y-44352000D02*
X98362000Y-44352000D01*
X98362000Y-44352000D02*
X98362000Y-43852000D01*
X98362000Y-43852000D02*
X92862000Y-43852000D01*
X92862000Y-43852000D02*
X92862000Y-44352000D01*
X92862000Y-41852000D02*
X98362000Y-41852000D01*
X98362000Y-41852000D02*
X98362000Y-41352000D01*
X98362000Y-41352000D02*
X92862000Y-41352000D01*
X92862000Y-41352000D02*
X92862000Y-41852000D01*
X88162000Y-54102000D02*
X87562000Y-54402000D01*
X87562000Y-54402000D02*
X87562000Y-53802000D01*
X87562000Y-53802000D02*
X88162000Y-54102000D01*
X90230000Y-36389000D02*
X90230000Y-37719000D01*
X88900000Y-36389000D02*
X90230000Y-36389000D01*
X87630000Y-36389000D02*
X87630000Y-39049000D01*
X87630000Y-39049000D02*
X52010000Y-39049000D01*
X87630000Y-36389000D02*
X52010000Y-36389000D01*
X52010000Y-36389000D02*
X52010000Y-39049000D01*
X52010000Y-56455000D02*
X52010000Y-59115000D01*
X87630000Y-56455000D02*
X52010000Y-56455000D01*
X87630000Y-59115000D02*
X52010000Y-59115000D01*
X87630000Y-56455000D02*
X87630000Y-59115000D01*
X88900000Y-56455000D02*
X90230000Y-56455000D01*
X90230000Y-56455000D02*
X90230000Y-57785000D01*
X59750000Y-41843000D02*
X59750000Y-39183000D01*
X52070000Y-41843000D02*
X59750000Y-41843000D01*
X52070000Y-39183000D02*
X59750000Y-39183000D01*
X52070000Y-41843000D02*
X52070000Y-39183000D01*
X50800000Y-41843000D02*
X49470000Y-41843000D01*
X49470000Y-41843000D02*
X49470000Y-40513000D01*
X54454000Y-52146000D02*
G75*
G03X54454000Y-52146000I-3400000J0D01*
G01*
X55300000Y-49254000D02*
X55300000Y-52854000D01*
X55311522Y-49215522D02*
G75*
G02X59750000Y-51054000I1838478J-1838478D01*
G01*
X55311522Y-52892478D02*
G75*
G03X59750000Y-51054000I1838478J1838478D01*
G01*
X56801936Y-54208000D02*
X58006064Y-54208000D01*
X56801936Y-56028000D02*
X58006064Y-56028000D01*
X62124000Y-44925064D02*
X62124000Y-43720936D01*
X60304000Y-44925064D02*
X60304000Y-43720936D01*
X62124000Y-51594936D02*
X62124000Y-52799064D01*
X60304000Y-51594936D02*
X60304000Y-52799064D01*
X72284000Y-42258064D02*
X72284000Y-41053936D01*
X70464000Y-42258064D02*
X70464000Y-41053936D01*
X70464000Y-54450064D02*
X70464000Y-53245936D01*
X72284000Y-54450064D02*
X72284000Y-53245936D01*
X77837784Y-44535994D02*
X78937784Y-44535994D01*
X77837784Y-44265994D02*
X77837784Y-44535994D01*
X76337784Y-44265994D02*
X77837784Y-44265994D01*
X77837784Y-50895994D02*
X80667784Y-50895994D01*
X77837784Y-51165994D02*
X77837784Y-50895994D01*
X76337784Y-51165994D02*
X77837784Y-51165994D01*
X81749000Y-53832000D02*
G75*
G03X81749000Y-53832000I-2120000J0D01*
G01*
X81709000Y-53832000D02*
X77549000Y-53832000D01*
X81709000Y-53872000D02*
X77549000Y-53872000D01*
X81708000Y-53912000D02*
X77550000Y-53912000D01*
X81706000Y-53952000D02*
X77552000Y-53952000D01*
X81703000Y-53992000D02*
X77555000Y-53992000D01*
X81700000Y-54032000D02*
X80469000Y-54032000D01*
X78789000Y-54032000D02*
X77558000Y-54032000D01*
X81696000Y-54072000D02*
X80469000Y-54072000D01*
X78789000Y-54072000D02*
X77562000Y-54072000D01*
X81691000Y-54112000D02*
X80469000Y-54112000D01*
X78789000Y-54112000D02*
X77567000Y-54112000D01*
X81685000Y-54152000D02*
X80469000Y-54152000D01*
X78789000Y-54152000D02*
X77573000Y-54152000D01*
X81679000Y-54192000D02*
X80469000Y-54192000D01*
X78789000Y-54192000D02*
X77579000Y-54192000D01*
X81671000Y-54232000D02*
X80469000Y-54232000D01*
X78789000Y-54232000D02*
X77587000Y-54232000D01*
X81663000Y-54272000D02*
X80469000Y-54272000D01*
X78789000Y-54272000D02*
X77595000Y-54272000D01*
X81654000Y-54312000D02*
X80469000Y-54312000D01*
X78789000Y-54312000D02*
X77604000Y-54312000D01*
X81645000Y-54352000D02*
X80469000Y-54352000D01*
X78789000Y-54352000D02*
X77613000Y-54352000D01*
X81634000Y-54392000D02*
X80469000Y-54392000D01*
X78789000Y-54392000D02*
X77624000Y-54392000D01*
X81623000Y-54432000D02*
X80469000Y-54432000D01*
X78789000Y-54432000D02*
X77635000Y-54432000D01*
X81611000Y-54472000D02*
X80469000Y-54472000D01*
X78789000Y-54472000D02*
X77647000Y-54472000D01*
X81597000Y-54512000D02*
X80469000Y-54512000D01*
X78789000Y-54512000D02*
X77661000Y-54512000D01*
X81583000Y-54553000D02*
X80469000Y-54553000D01*
X78789000Y-54553000D02*
X77675000Y-54553000D01*
X81569000Y-54593000D02*
X80469000Y-54593000D01*
X78789000Y-54593000D02*
X77689000Y-54593000D01*
X81553000Y-54633000D02*
X80469000Y-54633000D01*
X78789000Y-54633000D02*
X77705000Y-54633000D01*
X81536000Y-54673000D02*
X80469000Y-54673000D01*
X78789000Y-54673000D02*
X77722000Y-54673000D01*
X81518000Y-54713000D02*
X80469000Y-54713000D01*
X78789000Y-54713000D02*
X77740000Y-54713000D01*
X81499000Y-54753000D02*
X80469000Y-54753000D01*
X78789000Y-54753000D02*
X77759000Y-54753000D01*
X81480000Y-54793000D02*
X80469000Y-54793000D01*
X78789000Y-54793000D02*
X77778000Y-54793000D01*
X81459000Y-54833000D02*
X80469000Y-54833000D01*
X78789000Y-54833000D02*
X77799000Y-54833000D01*
X81437000Y-54873000D02*
X80469000Y-54873000D01*
X78789000Y-54873000D02*
X77821000Y-54873000D01*
X81414000Y-54913000D02*
X80469000Y-54913000D01*
X78789000Y-54913000D02*
X77844000Y-54913000D01*
X81389000Y-54953000D02*
X80469000Y-54953000D01*
X78789000Y-54953000D02*
X77869000Y-54953000D01*
X81364000Y-54993000D02*
X80469000Y-54993000D01*
X78789000Y-54993000D02*
X77894000Y-54993000D01*
X81337000Y-55033000D02*
X80469000Y-55033000D01*
X78789000Y-55033000D02*
X77921000Y-55033000D01*
X81309000Y-55073000D02*
X80469000Y-55073000D01*
X78789000Y-55073000D02*
X77949000Y-55073000D01*
X81279000Y-55113000D02*
X80469000Y-55113000D01*
X78789000Y-55113000D02*
X77979000Y-55113000D01*
X81248000Y-55153000D02*
X80469000Y-55153000D01*
X78789000Y-55153000D02*
X78010000Y-55153000D01*
X81216000Y-55193000D02*
X80469000Y-55193000D01*
X78789000Y-55193000D02*
X78042000Y-55193000D01*
X81181000Y-55233000D02*
X80469000Y-55233000D01*
X78789000Y-55233000D02*
X78077000Y-55233000D01*
X81145000Y-55273000D02*
X80469000Y-55273000D01*
X78789000Y-55273000D02*
X78113000Y-55273000D01*
X81107000Y-55313000D02*
X80469000Y-55313000D01*
X78789000Y-55313000D02*
X78151000Y-55313000D01*
X81067000Y-55353000D02*
X80469000Y-55353000D01*
X78789000Y-55353000D02*
X78191000Y-55353000D01*
X81025000Y-55393000D02*
X80469000Y-55393000D01*
X78789000Y-55393000D02*
X78233000Y-55393000D01*
X80980000Y-55433000D02*
X80469000Y-55433000D01*
X78789000Y-55433000D02*
X78278000Y-55433000D01*
X80933000Y-55473000D02*
X80469000Y-55473000D01*
X78789000Y-55473000D02*
X78325000Y-55473000D01*
X80883000Y-55513000D02*
X80469000Y-55513000D01*
X78789000Y-55513000D02*
X78375000Y-55513000D01*
X80829000Y-55553000D02*
X80469000Y-55553000D01*
X78789000Y-55553000D02*
X78429000Y-55553000D01*
X80771000Y-55593000D02*
X80469000Y-55593000D01*
X78789000Y-55593000D02*
X78487000Y-55593000D01*
X80709000Y-55633000D02*
X80469000Y-55633000D01*
X78789000Y-55633000D02*
X78549000Y-55633000D01*
X80642000Y-55673000D02*
X78616000Y-55673000D01*
X80569000Y-55713000D02*
X78689000Y-55713000D01*
X80488000Y-55753000D02*
X78770000Y-55753000D01*
X80397000Y-55793000D02*
X78861000Y-55793000D01*
X80293000Y-55833000D02*
X78965000Y-55833000D01*
X80166000Y-55873000D02*
X79092000Y-55873000D01*
X79999000Y-55913000D02*
X79259000Y-55913000D01*
X80824000Y-51562199D02*
X80824000Y-51962199D01*
X81024000Y-51762199D02*
X80624000Y-51762199D01*
D12*
X68819000Y-41867000D02*
X68819000Y-40467000D01*
X63719000Y-41867000D02*
X63719000Y-46017000D01*
X68869000Y-41867000D02*
X68869000Y-46017000D01*
X63719000Y-41867000D02*
X63864000Y-41867000D01*
X63719000Y-46017000D02*
X63864000Y-46017000D01*
X68869000Y-46017000D02*
X68724000Y-46017000D01*
X68869000Y-41867000D02*
X68819000Y-41867000D01*
X63719000Y-54399000D02*
X63769000Y-54399000D01*
X63719000Y-50249000D02*
X63864000Y-50249000D01*
X68869000Y-50249000D02*
X68724000Y-50249000D01*
X68869000Y-54399000D02*
X68724000Y-54399000D01*
X63719000Y-54399000D02*
X63719000Y-50249000D01*
X68869000Y-54399000D02*
X68869000Y-50249000D01*
X63769000Y-54399000D02*
X63769000Y-55799000D01*
D11*
X90230000Y-59122000D02*
X90230000Y-60452000D01*
X88900000Y-59122000D02*
X90230000Y-59122000D01*
X87630000Y-59122000D02*
X87630000Y-61782000D01*
X87630000Y-61782000D02*
X52010000Y-61782000D01*
X87630000Y-59122000D02*
X52010000Y-59122000D01*
X52010000Y-59122000D02*
X52010000Y-61782000D01*
X52010000Y-33722000D02*
X52010000Y-36382000D01*
X87630000Y-33722000D02*
X52010000Y-33722000D01*
X87630000Y-36382000D02*
X52010000Y-36382000D01*
X87630000Y-33722000D02*
X87630000Y-36382000D01*
X88900000Y-33722000D02*
X90230000Y-33722000D01*
X90230000Y-33722000D02*
X90230000Y-35052000D01*
D12*
X57270666Y-47901904D02*
X57004000Y-47520952D01*
X56813523Y-47901904D02*
X56813523Y-47101904D01*
X57118285Y-47101904D01*
X57194476Y-47140000D01*
X57232571Y-47178095D01*
X57270666Y-47254285D01*
X57270666Y-47368571D01*
X57232571Y-47444761D01*
X57194476Y-47482857D01*
X57118285Y-47520952D01*
X56813523Y-47520952D01*
X57537333Y-47101904D02*
X58070666Y-47101904D01*
X57727809Y-47901904D01*
X52317666Y-46208904D02*
X52051000Y-45827952D01*
X51860523Y-46208904D02*
X51860523Y-45408904D01*
X52165285Y-45408904D01*
X52241476Y-45447000D01*
X52279571Y-45485095D01*
X52317666Y-45561285D01*
X52317666Y-45675571D01*
X52279571Y-45751761D01*
X52241476Y-45789857D01*
X52165285Y-45827952D01*
X51860523Y-45827952D01*
X53003380Y-45408904D02*
X52851000Y-45408904D01*
X52774809Y-45447000D01*
X52736714Y-45485095D01*
X52660523Y-45599380D01*
X52622428Y-45751761D01*
X52622428Y-46056523D01*
X52660523Y-46132714D01*
X52698619Y-46170809D01*
X52774809Y-46208904D01*
X52927190Y-46208904D01*
X53003380Y-46170809D01*
X53041476Y-46132714D01*
X53079571Y-46056523D01*
X53079571Y-45866047D01*
X53041476Y-45789857D01*
X53003380Y-45751761D01*
X52927190Y-45713666D01*
X52774809Y-45713666D01*
X52698619Y-45751761D01*
X52660523Y-45789857D01*
X52622428Y-45866047D01*
X76687714Y-41773333D02*
X76725809Y-41811428D01*
X76763904Y-41925714D01*
X76763904Y-42001904D01*
X76725809Y-42116190D01*
X76649619Y-42192380D01*
X76573428Y-42230476D01*
X76421047Y-42268571D01*
X76306761Y-42268571D01*
X76154380Y-42230476D01*
X76078190Y-42192380D01*
X76002000Y-42116190D01*
X75963904Y-42001904D01*
X75963904Y-41925714D01*
X76002000Y-41811428D01*
X76040095Y-41773333D01*
X76040095Y-41468571D02*
X76002000Y-41430476D01*
X75963904Y-41354285D01*
X75963904Y-41163809D01*
X76002000Y-41087619D01*
X76040095Y-41049523D01*
X76116285Y-41011428D01*
X76192476Y-41011428D01*
X76306761Y-41049523D01*
X76763904Y-41506666D01*
X76763904Y-41011428D01*
X49218857Y-53028761D02*
X49256952Y-52914476D01*
X49295047Y-52876380D01*
X49371238Y-52838285D01*
X49485523Y-52838285D01*
X49561714Y-52876380D01*
X49599809Y-52914476D01*
X49637904Y-52990666D01*
X49637904Y-53295428D01*
X48837904Y-53295428D01*
X48837904Y-53028761D01*
X48876000Y-52952571D01*
X48914095Y-52914476D01*
X48990285Y-52876380D01*
X49066476Y-52876380D01*
X49142666Y-52914476D01*
X49180761Y-52952571D01*
X49218857Y-53028761D01*
X49218857Y-53295428D01*
X48837904Y-52571619D02*
X48837904Y-52038285D01*
X49637904Y-52571619D01*
X49637904Y-52038285D01*
X49637904Y-51314476D02*
X49637904Y-51771619D01*
X49637904Y-51543047D02*
X48837904Y-51543047D01*
X48952190Y-51619238D01*
X49028380Y-51695428D01*
X49066476Y-51771619D01*
X52725428Y-50926952D02*
X52725428Y-50165047D01*
X53106380Y-50546000D02*
X52344476Y-50546000D01*
X59239095Y-51257190D02*
X59201000Y-51333380D01*
X59124809Y-51409571D01*
X59010523Y-51523857D01*
X58972428Y-51600047D01*
X58972428Y-51676238D01*
X59162904Y-51638142D02*
X59124809Y-51714333D01*
X59048619Y-51790523D01*
X58896238Y-51828619D01*
X58629571Y-51828619D01*
X58477190Y-51790523D01*
X58401000Y-51714333D01*
X58362904Y-51638142D01*
X58362904Y-51485761D01*
X58401000Y-51409571D01*
X58477190Y-51333380D01*
X58629571Y-51295285D01*
X58896238Y-51295285D01*
X59048619Y-51333380D01*
X59124809Y-51409571D01*
X59162904Y-51485761D01*
X59162904Y-51638142D01*
X59162904Y-50533380D02*
X59162904Y-50990523D01*
X59162904Y-50761952D02*
X58362904Y-50761952D01*
X58477190Y-50838142D01*
X58553380Y-50914333D01*
X58591476Y-50990523D01*
X53968666Y-55352904D02*
X53702000Y-54971952D01*
X53511523Y-55352904D02*
X53511523Y-54552904D01*
X53816285Y-54552904D01*
X53892476Y-54591000D01*
X53930571Y-54629095D01*
X53968666Y-54705285D01*
X53968666Y-54819571D01*
X53930571Y-54895761D01*
X53892476Y-54933857D01*
X53816285Y-54971952D01*
X53511523Y-54971952D01*
X54692476Y-54552904D02*
X54311523Y-54552904D01*
X54273428Y-54933857D01*
X54311523Y-54895761D01*
X54387714Y-54857666D01*
X54578190Y-54857666D01*
X54654380Y-54895761D01*
X54692476Y-54933857D01*
X54730571Y-55010047D01*
X54730571Y-55200523D01*
X54692476Y-55276714D01*
X54654380Y-55314809D01*
X54578190Y-55352904D01*
X54387714Y-55352904D01*
X54311523Y-55314809D01*
X54273428Y-55276714D01*
X63226904Y-44456333D02*
X62845952Y-44723000D01*
X63226904Y-44913476D02*
X62426904Y-44913476D01*
X62426904Y-44608714D01*
X62465000Y-44532523D01*
X62503095Y-44494428D01*
X62579285Y-44456333D01*
X62693571Y-44456333D01*
X62769761Y-44494428D01*
X62807857Y-44532523D01*
X62845952Y-44608714D01*
X62845952Y-44913476D01*
X62693571Y-43770619D02*
X63226904Y-43770619D01*
X62388809Y-43961095D02*
X62960238Y-44151571D01*
X62960238Y-43656333D01*
X63226904Y-52330333D02*
X62845952Y-52597000D01*
X63226904Y-52787476D02*
X62426904Y-52787476D01*
X62426904Y-52482714D01*
X62465000Y-52406523D01*
X62503095Y-52368428D01*
X62579285Y-52330333D01*
X62693571Y-52330333D01*
X62769761Y-52368428D01*
X62807857Y-52406523D01*
X62845952Y-52482714D01*
X62845952Y-52787476D01*
X62426904Y-52063666D02*
X62426904Y-51568428D01*
X62731666Y-51835095D01*
X62731666Y-51720809D01*
X62769761Y-51644619D01*
X62807857Y-51606523D01*
X62884047Y-51568428D01*
X63074523Y-51568428D01*
X63150714Y-51606523D01*
X63188809Y-51644619D01*
X63226904Y-51720809D01*
X63226904Y-51949380D01*
X63188809Y-52025571D01*
X63150714Y-52063666D01*
X73386904Y-41662333D02*
X73005952Y-41929000D01*
X73386904Y-42119476D02*
X72586904Y-42119476D01*
X72586904Y-41814714D01*
X72625000Y-41738523D01*
X72663095Y-41700428D01*
X72739285Y-41662333D01*
X72853571Y-41662333D01*
X72929761Y-41700428D01*
X72967857Y-41738523D01*
X73005952Y-41814714D01*
X73005952Y-42119476D01*
X72663095Y-41357571D02*
X72625000Y-41319476D01*
X72586904Y-41243285D01*
X72586904Y-41052809D01*
X72625000Y-40976619D01*
X72663095Y-40938523D01*
X72739285Y-40900428D01*
X72815476Y-40900428D01*
X72929761Y-40938523D01*
X73386904Y-41395666D01*
X73386904Y-40900428D01*
X73386904Y-54235333D02*
X73005952Y-54502000D01*
X73386904Y-54692476D02*
X72586904Y-54692476D01*
X72586904Y-54387714D01*
X72625000Y-54311523D01*
X72663095Y-54273428D01*
X72739285Y-54235333D01*
X72853571Y-54235333D01*
X72929761Y-54273428D01*
X72967857Y-54311523D01*
X73005952Y-54387714D01*
X73005952Y-54692476D01*
X73386904Y-53473428D02*
X73386904Y-53930571D01*
X73386904Y-53702000D02*
X72586904Y-53702000D01*
X72701190Y-53778190D01*
X72777380Y-53854380D01*
X72815476Y-53930571D01*
X77298260Y-47277898D02*
X77298260Y-47925517D01*
X77336355Y-48001708D01*
X77374450Y-48039803D01*
X77450641Y-48077898D01*
X77603022Y-48077898D01*
X77679212Y-48039803D01*
X77717307Y-48001708D01*
X77755403Y-47925517D01*
X77755403Y-47277898D01*
X78060164Y-47277898D02*
X78555403Y-47277898D01*
X78288736Y-47582660D01*
X78403022Y-47582660D01*
X78479212Y-47620755D01*
X78517307Y-47658851D01*
X78555403Y-47735041D01*
X78555403Y-47925517D01*
X78517307Y-48001708D01*
X78479212Y-48039803D01*
X78403022Y-48077898D01*
X78174450Y-48077898D01*
X78098260Y-48039803D01*
X78060164Y-48001708D01*
X76687714Y-54489333D02*
X76725809Y-54527428D01*
X76763904Y-54641714D01*
X76763904Y-54717904D01*
X76725809Y-54832190D01*
X76649619Y-54908380D01*
X76573428Y-54946476D01*
X76421047Y-54984571D01*
X76306761Y-54984571D01*
X76154380Y-54946476D01*
X76078190Y-54908380D01*
X76002000Y-54832190D01*
X75963904Y-54717904D01*
X75963904Y-54641714D01*
X76002000Y-54527428D01*
X76040095Y-54489333D01*
X76763904Y-53727428D02*
X76763904Y-54184571D01*
X76763904Y-53956000D02*
X75963904Y-53956000D01*
X76078190Y-54032190D01*
X76154380Y-54108380D01*
X76192476Y-54184571D01*
X68002095Y-43332476D02*
X67354476Y-43332476D01*
X67278285Y-43370571D01*
X67240190Y-43408666D01*
X67202095Y-43484857D01*
X67202095Y-43637238D01*
X67240190Y-43713428D01*
X67278285Y-43751523D01*
X67354476Y-43789619D01*
X68002095Y-43789619D01*
X67925904Y-44132476D02*
X67964000Y-44170571D01*
X68002095Y-44246761D01*
X68002095Y-44437238D01*
X67964000Y-44513428D01*
X67925904Y-44551523D01*
X67849714Y-44589619D01*
X67773523Y-44589619D01*
X67659238Y-44551523D01*
X67202095Y-44094380D01*
X67202095Y-44589619D01*
X65347904Y-52806523D02*
X65995523Y-52806523D01*
X66071714Y-52768428D01*
X66109809Y-52730333D01*
X66147904Y-52654142D01*
X66147904Y-52501761D01*
X66109809Y-52425571D01*
X66071714Y-52387476D01*
X65995523Y-52349380D01*
X65347904Y-52349380D01*
X66147904Y-51549380D02*
X66147904Y-52006523D01*
X66147904Y-51777952D02*
X65347904Y-51777952D01*
X65462190Y-51854142D01*
X65538380Y-51930333D01*
X65576476Y-52006523D01*
M02*
