%TF.GenerationSoftware,KiCad,Pcbnew,(5.0.2)-1*%
%TF.CreationDate,2019-07-05T20:57:08+02:00*%
%TF.ProjectId,PSAVanCanBridge_v11,56616e43-616e-4457-9370-33322e6b6963,rev?*%
%TF.SameCoordinates,Original*%
%TF.FileFunction,Soldermask,Bot*%
%TF.FilePolarity,Negative*%
%FSLAX46Y46*%
G04 Gerber Fmt 4.6, Leading zero omitted, Abs format (unit mm)*
G04 Created by KiCad (PCBNEW (5.0.2)-1) date 05/07/2019 20:57:08*
%MOMM*%
%LPD*%
G01*
G04 APERTURE LIST*
%ADD10C,0.100000*%
G04 APERTURE END LIST*
D10*
G36*
X89950000Y-61502000D02*
X87850000Y-61502000D01*
X87850000Y-59402000D01*
X89950000Y-59402000D01*
X89950000Y-61502000D01*
X89950000Y-61502000D01*
G37*
G36*
X86488707Y-59409597D02*
X86565836Y-59417193D01*
X86697787Y-59457220D01*
X86763763Y-59477233D01*
X86946172Y-59574733D01*
X87106054Y-59705946D01*
X87237267Y-59865828D01*
X87334767Y-60048237D01*
X87334767Y-60048238D01*
X87394807Y-60246164D01*
X87415080Y-60452000D01*
X87394807Y-60657836D01*
X87354780Y-60789787D01*
X87334767Y-60855763D01*
X87237267Y-61038172D01*
X87106054Y-61198054D01*
X86946172Y-61329267D01*
X86763763Y-61426767D01*
X86697787Y-61446780D01*
X86565836Y-61486807D01*
X86488707Y-61494403D01*
X86411580Y-61502000D01*
X86308420Y-61502000D01*
X86231293Y-61494403D01*
X86154164Y-61486807D01*
X86022213Y-61446780D01*
X85956237Y-61426767D01*
X85773828Y-61329267D01*
X85613946Y-61198054D01*
X85482733Y-61038172D01*
X85385233Y-60855763D01*
X85365220Y-60789787D01*
X85325193Y-60657836D01*
X85304920Y-60452000D01*
X85325193Y-60246164D01*
X85385233Y-60048238D01*
X85385233Y-60048237D01*
X85482733Y-59865828D01*
X85613946Y-59705946D01*
X85773828Y-59574733D01*
X85956237Y-59477233D01*
X86022213Y-59457220D01*
X86154164Y-59417193D01*
X86231293Y-59409597D01*
X86308420Y-59402000D01*
X86411580Y-59402000D01*
X86488707Y-59409597D01*
X86488707Y-59409597D01*
G37*
G36*
X53468707Y-59409597D02*
X53545836Y-59417193D01*
X53677787Y-59457220D01*
X53743763Y-59477233D01*
X53926172Y-59574733D01*
X54086054Y-59705946D01*
X54217267Y-59865828D01*
X54314767Y-60048237D01*
X54314767Y-60048238D01*
X54374807Y-60246164D01*
X54395080Y-60452000D01*
X54374807Y-60657836D01*
X54334780Y-60789787D01*
X54314767Y-60855763D01*
X54217267Y-61038172D01*
X54086054Y-61198054D01*
X53926172Y-61329267D01*
X53743763Y-61426767D01*
X53677787Y-61446780D01*
X53545836Y-61486807D01*
X53468707Y-61494403D01*
X53391580Y-61502000D01*
X53288420Y-61502000D01*
X53211293Y-61494403D01*
X53134164Y-61486807D01*
X53002213Y-61446780D01*
X52936237Y-61426767D01*
X52753828Y-61329267D01*
X52593946Y-61198054D01*
X52462733Y-61038172D01*
X52365233Y-60855763D01*
X52345220Y-60789787D01*
X52305193Y-60657836D01*
X52284920Y-60452000D01*
X52305193Y-60246164D01*
X52365233Y-60048238D01*
X52365233Y-60048237D01*
X52462733Y-59865828D01*
X52593946Y-59705946D01*
X52753828Y-59574733D01*
X52936237Y-59477233D01*
X53002213Y-59457220D01*
X53134164Y-59417193D01*
X53211293Y-59409597D01*
X53288420Y-59402000D01*
X53391580Y-59402000D01*
X53468707Y-59409597D01*
X53468707Y-59409597D01*
G37*
G36*
X56008707Y-59409597D02*
X56085836Y-59417193D01*
X56217787Y-59457220D01*
X56283763Y-59477233D01*
X56466172Y-59574733D01*
X56626054Y-59705946D01*
X56757267Y-59865828D01*
X56854767Y-60048237D01*
X56854767Y-60048238D01*
X56914807Y-60246164D01*
X56935080Y-60452000D01*
X56914807Y-60657836D01*
X56874780Y-60789787D01*
X56854767Y-60855763D01*
X56757267Y-61038172D01*
X56626054Y-61198054D01*
X56466172Y-61329267D01*
X56283763Y-61426767D01*
X56217787Y-61446780D01*
X56085836Y-61486807D01*
X56008707Y-61494403D01*
X55931580Y-61502000D01*
X55828420Y-61502000D01*
X55751293Y-61494403D01*
X55674164Y-61486807D01*
X55542213Y-61446780D01*
X55476237Y-61426767D01*
X55293828Y-61329267D01*
X55133946Y-61198054D01*
X55002733Y-61038172D01*
X54905233Y-60855763D01*
X54885220Y-60789787D01*
X54845193Y-60657836D01*
X54824920Y-60452000D01*
X54845193Y-60246164D01*
X54905233Y-60048238D01*
X54905233Y-60048237D01*
X55002733Y-59865828D01*
X55133946Y-59705946D01*
X55293828Y-59574733D01*
X55476237Y-59477233D01*
X55542213Y-59457220D01*
X55674164Y-59417193D01*
X55751293Y-59409597D01*
X55828420Y-59402000D01*
X55931580Y-59402000D01*
X56008707Y-59409597D01*
X56008707Y-59409597D01*
G37*
G36*
X58548707Y-59409597D02*
X58625836Y-59417193D01*
X58757787Y-59457220D01*
X58823763Y-59477233D01*
X59006172Y-59574733D01*
X59166054Y-59705946D01*
X59297267Y-59865828D01*
X59394767Y-60048237D01*
X59394767Y-60048238D01*
X59454807Y-60246164D01*
X59475080Y-60452000D01*
X59454807Y-60657836D01*
X59414780Y-60789787D01*
X59394767Y-60855763D01*
X59297267Y-61038172D01*
X59166054Y-61198054D01*
X59006172Y-61329267D01*
X58823763Y-61426767D01*
X58757787Y-61446780D01*
X58625836Y-61486807D01*
X58548707Y-61494403D01*
X58471580Y-61502000D01*
X58368420Y-61502000D01*
X58291293Y-61494403D01*
X58214164Y-61486807D01*
X58082213Y-61446780D01*
X58016237Y-61426767D01*
X57833828Y-61329267D01*
X57673946Y-61198054D01*
X57542733Y-61038172D01*
X57445233Y-60855763D01*
X57425220Y-60789787D01*
X57385193Y-60657836D01*
X57364920Y-60452000D01*
X57385193Y-60246164D01*
X57445233Y-60048238D01*
X57445233Y-60048237D01*
X57542733Y-59865828D01*
X57673946Y-59705946D01*
X57833828Y-59574733D01*
X58016237Y-59477233D01*
X58082213Y-59457220D01*
X58214164Y-59417193D01*
X58291293Y-59409597D01*
X58368420Y-59402000D01*
X58471580Y-59402000D01*
X58548707Y-59409597D01*
X58548707Y-59409597D01*
G37*
G36*
X61088707Y-59409597D02*
X61165836Y-59417193D01*
X61297787Y-59457220D01*
X61363763Y-59477233D01*
X61546172Y-59574733D01*
X61706054Y-59705946D01*
X61837267Y-59865828D01*
X61934767Y-60048237D01*
X61934767Y-60048238D01*
X61994807Y-60246164D01*
X62015080Y-60452000D01*
X61994807Y-60657836D01*
X61954780Y-60789787D01*
X61934767Y-60855763D01*
X61837267Y-61038172D01*
X61706054Y-61198054D01*
X61546172Y-61329267D01*
X61363763Y-61426767D01*
X61297787Y-61446780D01*
X61165836Y-61486807D01*
X61088707Y-61494403D01*
X61011580Y-61502000D01*
X60908420Y-61502000D01*
X60831293Y-61494403D01*
X60754164Y-61486807D01*
X60622213Y-61446780D01*
X60556237Y-61426767D01*
X60373828Y-61329267D01*
X60213946Y-61198054D01*
X60082733Y-61038172D01*
X59985233Y-60855763D01*
X59965220Y-60789787D01*
X59925193Y-60657836D01*
X59904920Y-60452000D01*
X59925193Y-60246164D01*
X59985233Y-60048238D01*
X59985233Y-60048237D01*
X60082733Y-59865828D01*
X60213946Y-59705946D01*
X60373828Y-59574733D01*
X60556237Y-59477233D01*
X60622213Y-59457220D01*
X60754164Y-59417193D01*
X60831293Y-59409597D01*
X60908420Y-59402000D01*
X61011580Y-59402000D01*
X61088707Y-59409597D01*
X61088707Y-59409597D01*
G37*
G36*
X63628707Y-59409597D02*
X63705836Y-59417193D01*
X63837787Y-59457220D01*
X63903763Y-59477233D01*
X64086172Y-59574733D01*
X64246054Y-59705946D01*
X64377267Y-59865828D01*
X64474767Y-60048237D01*
X64474767Y-60048238D01*
X64534807Y-60246164D01*
X64555080Y-60452000D01*
X64534807Y-60657836D01*
X64494780Y-60789787D01*
X64474767Y-60855763D01*
X64377267Y-61038172D01*
X64246054Y-61198054D01*
X64086172Y-61329267D01*
X63903763Y-61426767D01*
X63837787Y-61446780D01*
X63705836Y-61486807D01*
X63628707Y-61494403D01*
X63551580Y-61502000D01*
X63448420Y-61502000D01*
X63371293Y-61494403D01*
X63294164Y-61486807D01*
X63162213Y-61446780D01*
X63096237Y-61426767D01*
X62913828Y-61329267D01*
X62753946Y-61198054D01*
X62622733Y-61038172D01*
X62525233Y-60855763D01*
X62505220Y-60789787D01*
X62465193Y-60657836D01*
X62444920Y-60452000D01*
X62465193Y-60246164D01*
X62525233Y-60048238D01*
X62525233Y-60048237D01*
X62622733Y-59865828D01*
X62753946Y-59705946D01*
X62913828Y-59574733D01*
X63096237Y-59477233D01*
X63162213Y-59457220D01*
X63294164Y-59417193D01*
X63371293Y-59409597D01*
X63448420Y-59402000D01*
X63551580Y-59402000D01*
X63628707Y-59409597D01*
X63628707Y-59409597D01*
G37*
G36*
X66168707Y-59409597D02*
X66245836Y-59417193D01*
X66377787Y-59457220D01*
X66443763Y-59477233D01*
X66626172Y-59574733D01*
X66786054Y-59705946D01*
X66917267Y-59865828D01*
X67014767Y-60048237D01*
X67014767Y-60048238D01*
X67074807Y-60246164D01*
X67095080Y-60452000D01*
X67074807Y-60657836D01*
X67034780Y-60789787D01*
X67014767Y-60855763D01*
X66917267Y-61038172D01*
X66786054Y-61198054D01*
X66626172Y-61329267D01*
X66443763Y-61426767D01*
X66377787Y-61446780D01*
X66245836Y-61486807D01*
X66168707Y-61494403D01*
X66091580Y-61502000D01*
X65988420Y-61502000D01*
X65911293Y-61494403D01*
X65834164Y-61486807D01*
X65702213Y-61446780D01*
X65636237Y-61426767D01*
X65453828Y-61329267D01*
X65293946Y-61198054D01*
X65162733Y-61038172D01*
X65065233Y-60855763D01*
X65045220Y-60789787D01*
X65005193Y-60657836D01*
X64984920Y-60452000D01*
X65005193Y-60246164D01*
X65065233Y-60048238D01*
X65065233Y-60048237D01*
X65162733Y-59865828D01*
X65293946Y-59705946D01*
X65453828Y-59574733D01*
X65636237Y-59477233D01*
X65702213Y-59457220D01*
X65834164Y-59417193D01*
X65911293Y-59409597D01*
X65988420Y-59402000D01*
X66091580Y-59402000D01*
X66168707Y-59409597D01*
X66168707Y-59409597D01*
G37*
G36*
X71248707Y-59409597D02*
X71325836Y-59417193D01*
X71457787Y-59457220D01*
X71523763Y-59477233D01*
X71706172Y-59574733D01*
X71866054Y-59705946D01*
X71997267Y-59865828D01*
X72094767Y-60048237D01*
X72094767Y-60048238D01*
X72154807Y-60246164D01*
X72175080Y-60452000D01*
X72154807Y-60657836D01*
X72114780Y-60789787D01*
X72094767Y-60855763D01*
X71997267Y-61038172D01*
X71866054Y-61198054D01*
X71706172Y-61329267D01*
X71523763Y-61426767D01*
X71457787Y-61446780D01*
X71325836Y-61486807D01*
X71248707Y-61494403D01*
X71171580Y-61502000D01*
X71068420Y-61502000D01*
X70991293Y-61494403D01*
X70914164Y-61486807D01*
X70782213Y-61446780D01*
X70716237Y-61426767D01*
X70533828Y-61329267D01*
X70373946Y-61198054D01*
X70242733Y-61038172D01*
X70145233Y-60855763D01*
X70125220Y-60789787D01*
X70085193Y-60657836D01*
X70064920Y-60452000D01*
X70085193Y-60246164D01*
X70145233Y-60048238D01*
X70145233Y-60048237D01*
X70242733Y-59865828D01*
X70373946Y-59705946D01*
X70533828Y-59574733D01*
X70716237Y-59477233D01*
X70782213Y-59457220D01*
X70914164Y-59417193D01*
X70991293Y-59409597D01*
X71068420Y-59402000D01*
X71171580Y-59402000D01*
X71248707Y-59409597D01*
X71248707Y-59409597D01*
G37*
G36*
X68708707Y-59409597D02*
X68785836Y-59417193D01*
X68917787Y-59457220D01*
X68983763Y-59477233D01*
X69166172Y-59574733D01*
X69326054Y-59705946D01*
X69457267Y-59865828D01*
X69554767Y-60048237D01*
X69554767Y-60048238D01*
X69614807Y-60246164D01*
X69635080Y-60452000D01*
X69614807Y-60657836D01*
X69574780Y-60789787D01*
X69554767Y-60855763D01*
X69457267Y-61038172D01*
X69326054Y-61198054D01*
X69166172Y-61329267D01*
X68983763Y-61426767D01*
X68917787Y-61446780D01*
X68785836Y-61486807D01*
X68708707Y-61494403D01*
X68631580Y-61502000D01*
X68528420Y-61502000D01*
X68451293Y-61494403D01*
X68374164Y-61486807D01*
X68242213Y-61446780D01*
X68176237Y-61426767D01*
X67993828Y-61329267D01*
X67833946Y-61198054D01*
X67702733Y-61038172D01*
X67605233Y-60855763D01*
X67585220Y-60789787D01*
X67545193Y-60657836D01*
X67524920Y-60452000D01*
X67545193Y-60246164D01*
X67605233Y-60048238D01*
X67605233Y-60048237D01*
X67702733Y-59865828D01*
X67833946Y-59705946D01*
X67993828Y-59574733D01*
X68176237Y-59477233D01*
X68242213Y-59457220D01*
X68374164Y-59417193D01*
X68451293Y-59409597D01*
X68528420Y-59402000D01*
X68631580Y-59402000D01*
X68708707Y-59409597D01*
X68708707Y-59409597D01*
G37*
G36*
X83948707Y-59409597D02*
X84025836Y-59417193D01*
X84157787Y-59457220D01*
X84223763Y-59477233D01*
X84406172Y-59574733D01*
X84566054Y-59705946D01*
X84697267Y-59865828D01*
X84794767Y-60048237D01*
X84794767Y-60048238D01*
X84854807Y-60246164D01*
X84875080Y-60452000D01*
X84854807Y-60657836D01*
X84814780Y-60789787D01*
X84794767Y-60855763D01*
X84697267Y-61038172D01*
X84566054Y-61198054D01*
X84406172Y-61329267D01*
X84223763Y-61426767D01*
X84157787Y-61446780D01*
X84025836Y-61486807D01*
X83948707Y-61494403D01*
X83871580Y-61502000D01*
X83768420Y-61502000D01*
X83691293Y-61494403D01*
X83614164Y-61486807D01*
X83482213Y-61446780D01*
X83416237Y-61426767D01*
X83233828Y-61329267D01*
X83073946Y-61198054D01*
X82942733Y-61038172D01*
X82845233Y-60855763D01*
X82825220Y-60789787D01*
X82785193Y-60657836D01*
X82764920Y-60452000D01*
X82785193Y-60246164D01*
X82845233Y-60048238D01*
X82845233Y-60048237D01*
X82942733Y-59865828D01*
X83073946Y-59705946D01*
X83233828Y-59574733D01*
X83416237Y-59477233D01*
X83482213Y-59457220D01*
X83614164Y-59417193D01*
X83691293Y-59409597D01*
X83768420Y-59402000D01*
X83871580Y-59402000D01*
X83948707Y-59409597D01*
X83948707Y-59409597D01*
G37*
G36*
X81408707Y-59409597D02*
X81485836Y-59417193D01*
X81617787Y-59457220D01*
X81683763Y-59477233D01*
X81866172Y-59574733D01*
X82026054Y-59705946D01*
X82157267Y-59865828D01*
X82254767Y-60048237D01*
X82254767Y-60048238D01*
X82314807Y-60246164D01*
X82335080Y-60452000D01*
X82314807Y-60657836D01*
X82274780Y-60789787D01*
X82254767Y-60855763D01*
X82157267Y-61038172D01*
X82026054Y-61198054D01*
X81866172Y-61329267D01*
X81683763Y-61426767D01*
X81617787Y-61446780D01*
X81485836Y-61486807D01*
X81408707Y-61494403D01*
X81331580Y-61502000D01*
X81228420Y-61502000D01*
X81151293Y-61494403D01*
X81074164Y-61486807D01*
X80942213Y-61446780D01*
X80876237Y-61426767D01*
X80693828Y-61329267D01*
X80533946Y-61198054D01*
X80402733Y-61038172D01*
X80305233Y-60855763D01*
X80285220Y-60789787D01*
X80245193Y-60657836D01*
X80224920Y-60452000D01*
X80245193Y-60246164D01*
X80305233Y-60048238D01*
X80305233Y-60048237D01*
X80402733Y-59865828D01*
X80533946Y-59705946D01*
X80693828Y-59574733D01*
X80876237Y-59477233D01*
X80942213Y-59457220D01*
X81074164Y-59417193D01*
X81151293Y-59409597D01*
X81228420Y-59402000D01*
X81331580Y-59402000D01*
X81408707Y-59409597D01*
X81408707Y-59409597D01*
G37*
G36*
X76328707Y-59409597D02*
X76405836Y-59417193D01*
X76537787Y-59457220D01*
X76603763Y-59477233D01*
X76786172Y-59574733D01*
X76946054Y-59705946D01*
X77077267Y-59865828D01*
X77174767Y-60048237D01*
X77174767Y-60048238D01*
X77234807Y-60246164D01*
X77255080Y-60452000D01*
X77234807Y-60657836D01*
X77194780Y-60789787D01*
X77174767Y-60855763D01*
X77077267Y-61038172D01*
X76946054Y-61198054D01*
X76786172Y-61329267D01*
X76603763Y-61426767D01*
X76537787Y-61446780D01*
X76405836Y-61486807D01*
X76328707Y-61494403D01*
X76251580Y-61502000D01*
X76148420Y-61502000D01*
X76071293Y-61494403D01*
X75994164Y-61486807D01*
X75862213Y-61446780D01*
X75796237Y-61426767D01*
X75613828Y-61329267D01*
X75453946Y-61198054D01*
X75322733Y-61038172D01*
X75225233Y-60855763D01*
X75205220Y-60789787D01*
X75165193Y-60657836D01*
X75144920Y-60452000D01*
X75165193Y-60246164D01*
X75225233Y-60048238D01*
X75225233Y-60048237D01*
X75322733Y-59865828D01*
X75453946Y-59705946D01*
X75613828Y-59574733D01*
X75796237Y-59477233D01*
X75862213Y-59457220D01*
X75994164Y-59417193D01*
X76071293Y-59409597D01*
X76148420Y-59402000D01*
X76251580Y-59402000D01*
X76328707Y-59409597D01*
X76328707Y-59409597D01*
G37*
G36*
X73788707Y-59409597D02*
X73865836Y-59417193D01*
X73997787Y-59457220D01*
X74063763Y-59477233D01*
X74246172Y-59574733D01*
X74406054Y-59705946D01*
X74537267Y-59865828D01*
X74634767Y-60048237D01*
X74634767Y-60048238D01*
X74694807Y-60246164D01*
X74715080Y-60452000D01*
X74694807Y-60657836D01*
X74654780Y-60789787D01*
X74634767Y-60855763D01*
X74537267Y-61038172D01*
X74406054Y-61198054D01*
X74246172Y-61329267D01*
X74063763Y-61426767D01*
X73997787Y-61446780D01*
X73865836Y-61486807D01*
X73788707Y-61494403D01*
X73711580Y-61502000D01*
X73608420Y-61502000D01*
X73531293Y-61494403D01*
X73454164Y-61486807D01*
X73322213Y-61446780D01*
X73256237Y-61426767D01*
X73073828Y-61329267D01*
X72913946Y-61198054D01*
X72782733Y-61038172D01*
X72685233Y-60855763D01*
X72665220Y-60789787D01*
X72625193Y-60657836D01*
X72604920Y-60452000D01*
X72625193Y-60246164D01*
X72685233Y-60048238D01*
X72685233Y-60048237D01*
X72782733Y-59865828D01*
X72913946Y-59705946D01*
X73073828Y-59574733D01*
X73256237Y-59477233D01*
X73322213Y-59457220D01*
X73454164Y-59417193D01*
X73531293Y-59409597D01*
X73608420Y-59402000D01*
X73711580Y-59402000D01*
X73788707Y-59409597D01*
X73788707Y-59409597D01*
G37*
G36*
X78868707Y-59409597D02*
X78945836Y-59417193D01*
X79077787Y-59457220D01*
X79143763Y-59477233D01*
X79326172Y-59574733D01*
X79486054Y-59705946D01*
X79617267Y-59865828D01*
X79714767Y-60048237D01*
X79714767Y-60048238D01*
X79774807Y-60246164D01*
X79795080Y-60452000D01*
X79774807Y-60657836D01*
X79734780Y-60789787D01*
X79714767Y-60855763D01*
X79617267Y-61038172D01*
X79486054Y-61198054D01*
X79326172Y-61329267D01*
X79143763Y-61426767D01*
X79077787Y-61446780D01*
X78945836Y-61486807D01*
X78868707Y-61494403D01*
X78791580Y-61502000D01*
X78688420Y-61502000D01*
X78611293Y-61494403D01*
X78534164Y-61486807D01*
X78402213Y-61446780D01*
X78336237Y-61426767D01*
X78153828Y-61329267D01*
X77993946Y-61198054D01*
X77862733Y-61038172D01*
X77765233Y-60855763D01*
X77745220Y-60789787D01*
X77705193Y-60657836D01*
X77684920Y-60452000D01*
X77705193Y-60246164D01*
X77765233Y-60048238D01*
X77765233Y-60048237D01*
X77862733Y-59865828D01*
X77993946Y-59705946D01*
X78153828Y-59574733D01*
X78336237Y-59477233D01*
X78402213Y-59457220D01*
X78534164Y-59417193D01*
X78611293Y-59409597D01*
X78688420Y-59402000D01*
X78791580Y-59402000D01*
X78868707Y-59409597D01*
X78868707Y-59409597D01*
G37*
G36*
X89950000Y-58835000D02*
X87850000Y-58835000D01*
X87850000Y-56735000D01*
X89950000Y-56735000D01*
X89950000Y-58835000D01*
X89950000Y-58835000D01*
G37*
G36*
X71248707Y-56742597D02*
X71325836Y-56750193D01*
X71457787Y-56790220D01*
X71523763Y-56810233D01*
X71706172Y-56907733D01*
X71866054Y-57038946D01*
X71997267Y-57198828D01*
X72094767Y-57381237D01*
X72094767Y-57381238D01*
X72154807Y-57579164D01*
X72175080Y-57785000D01*
X72154807Y-57990836D01*
X72114780Y-58122787D01*
X72094767Y-58188763D01*
X71997267Y-58371172D01*
X71866054Y-58531054D01*
X71706172Y-58662267D01*
X71523763Y-58759767D01*
X71457787Y-58779780D01*
X71325836Y-58819807D01*
X71248707Y-58827403D01*
X71171580Y-58835000D01*
X71068420Y-58835000D01*
X70991293Y-58827403D01*
X70914164Y-58819807D01*
X70782213Y-58779780D01*
X70716237Y-58759767D01*
X70533828Y-58662267D01*
X70373946Y-58531054D01*
X70242733Y-58371172D01*
X70145233Y-58188763D01*
X70125220Y-58122787D01*
X70085193Y-57990836D01*
X70064920Y-57785000D01*
X70085193Y-57579164D01*
X70145233Y-57381238D01*
X70145233Y-57381237D01*
X70242733Y-57198828D01*
X70373946Y-57038946D01*
X70533828Y-56907733D01*
X70716237Y-56810233D01*
X70782213Y-56790220D01*
X70914164Y-56750193D01*
X70991293Y-56742597D01*
X71068420Y-56735000D01*
X71171580Y-56735000D01*
X71248707Y-56742597D01*
X71248707Y-56742597D01*
G37*
G36*
X76328707Y-56742597D02*
X76405836Y-56750193D01*
X76537787Y-56790220D01*
X76603763Y-56810233D01*
X76786172Y-56907733D01*
X76946054Y-57038946D01*
X77077267Y-57198828D01*
X77174767Y-57381237D01*
X77174767Y-57381238D01*
X77234807Y-57579164D01*
X77255080Y-57785000D01*
X77234807Y-57990836D01*
X77194780Y-58122787D01*
X77174767Y-58188763D01*
X77077267Y-58371172D01*
X76946054Y-58531054D01*
X76786172Y-58662267D01*
X76603763Y-58759767D01*
X76537787Y-58779780D01*
X76405836Y-58819807D01*
X76328707Y-58827403D01*
X76251580Y-58835000D01*
X76148420Y-58835000D01*
X76071293Y-58827403D01*
X75994164Y-58819807D01*
X75862213Y-58779780D01*
X75796237Y-58759767D01*
X75613828Y-58662267D01*
X75453946Y-58531054D01*
X75322733Y-58371172D01*
X75225233Y-58188763D01*
X75205220Y-58122787D01*
X75165193Y-57990836D01*
X75144920Y-57785000D01*
X75165193Y-57579164D01*
X75225233Y-57381238D01*
X75225233Y-57381237D01*
X75322733Y-57198828D01*
X75453946Y-57038946D01*
X75613828Y-56907733D01*
X75796237Y-56810233D01*
X75862213Y-56790220D01*
X75994164Y-56750193D01*
X76071293Y-56742597D01*
X76148420Y-56735000D01*
X76251580Y-56735000D01*
X76328707Y-56742597D01*
X76328707Y-56742597D01*
G37*
G36*
X78868707Y-56742597D02*
X78945836Y-56750193D01*
X79077787Y-56790220D01*
X79143763Y-56810233D01*
X79326172Y-56907733D01*
X79486054Y-57038946D01*
X79617267Y-57198828D01*
X79714767Y-57381237D01*
X79714767Y-57381238D01*
X79774807Y-57579164D01*
X79795080Y-57785000D01*
X79774807Y-57990836D01*
X79734780Y-58122787D01*
X79714767Y-58188763D01*
X79617267Y-58371172D01*
X79486054Y-58531054D01*
X79326172Y-58662267D01*
X79143763Y-58759767D01*
X79077787Y-58779780D01*
X78945836Y-58819807D01*
X78868707Y-58827403D01*
X78791580Y-58835000D01*
X78688420Y-58835000D01*
X78611293Y-58827403D01*
X78534164Y-58819807D01*
X78402213Y-58779780D01*
X78336237Y-58759767D01*
X78153828Y-58662267D01*
X77993946Y-58531054D01*
X77862733Y-58371172D01*
X77765233Y-58188763D01*
X77745220Y-58122787D01*
X77705193Y-57990836D01*
X77684920Y-57785000D01*
X77705193Y-57579164D01*
X77765233Y-57381238D01*
X77765233Y-57381237D01*
X77862733Y-57198828D01*
X77993946Y-57038946D01*
X78153828Y-56907733D01*
X78336237Y-56810233D01*
X78402213Y-56790220D01*
X78534164Y-56750193D01*
X78611293Y-56742597D01*
X78688420Y-56735000D01*
X78791580Y-56735000D01*
X78868707Y-56742597D01*
X78868707Y-56742597D01*
G37*
G36*
X81408707Y-56742597D02*
X81485836Y-56750193D01*
X81617787Y-56790220D01*
X81683763Y-56810233D01*
X81866172Y-56907733D01*
X82026054Y-57038946D01*
X82157267Y-57198828D01*
X82254767Y-57381237D01*
X82254767Y-57381238D01*
X82314807Y-57579164D01*
X82335080Y-57785000D01*
X82314807Y-57990836D01*
X82274780Y-58122787D01*
X82254767Y-58188763D01*
X82157267Y-58371172D01*
X82026054Y-58531054D01*
X81866172Y-58662267D01*
X81683763Y-58759767D01*
X81617787Y-58779780D01*
X81485836Y-58819807D01*
X81408707Y-58827403D01*
X81331580Y-58835000D01*
X81228420Y-58835000D01*
X81151293Y-58827403D01*
X81074164Y-58819807D01*
X80942213Y-58779780D01*
X80876237Y-58759767D01*
X80693828Y-58662267D01*
X80533946Y-58531054D01*
X80402733Y-58371172D01*
X80305233Y-58188763D01*
X80285220Y-58122787D01*
X80245193Y-57990836D01*
X80224920Y-57785000D01*
X80245193Y-57579164D01*
X80305233Y-57381238D01*
X80305233Y-57381237D01*
X80402733Y-57198828D01*
X80533946Y-57038946D01*
X80693828Y-56907733D01*
X80876237Y-56810233D01*
X80942213Y-56790220D01*
X81074164Y-56750193D01*
X81151293Y-56742597D01*
X81228420Y-56735000D01*
X81331580Y-56735000D01*
X81408707Y-56742597D01*
X81408707Y-56742597D01*
G37*
G36*
X83948707Y-56742597D02*
X84025836Y-56750193D01*
X84157787Y-56790220D01*
X84223763Y-56810233D01*
X84406172Y-56907733D01*
X84566054Y-57038946D01*
X84697267Y-57198828D01*
X84794767Y-57381237D01*
X84794767Y-57381238D01*
X84854807Y-57579164D01*
X84875080Y-57785000D01*
X84854807Y-57990836D01*
X84814780Y-58122787D01*
X84794767Y-58188763D01*
X84697267Y-58371172D01*
X84566054Y-58531054D01*
X84406172Y-58662267D01*
X84223763Y-58759767D01*
X84157787Y-58779780D01*
X84025836Y-58819807D01*
X83948707Y-58827403D01*
X83871580Y-58835000D01*
X83768420Y-58835000D01*
X83691293Y-58827403D01*
X83614164Y-58819807D01*
X83482213Y-58779780D01*
X83416237Y-58759767D01*
X83233828Y-58662267D01*
X83073946Y-58531054D01*
X82942733Y-58371172D01*
X82845233Y-58188763D01*
X82825220Y-58122787D01*
X82785193Y-57990836D01*
X82764920Y-57785000D01*
X82785193Y-57579164D01*
X82845233Y-57381238D01*
X82845233Y-57381237D01*
X82942733Y-57198828D01*
X83073946Y-57038946D01*
X83233828Y-56907733D01*
X83416237Y-56810233D01*
X83482213Y-56790220D01*
X83614164Y-56750193D01*
X83691293Y-56742597D01*
X83768420Y-56735000D01*
X83871580Y-56735000D01*
X83948707Y-56742597D01*
X83948707Y-56742597D01*
G37*
G36*
X86488707Y-56742597D02*
X86565836Y-56750193D01*
X86697787Y-56790220D01*
X86763763Y-56810233D01*
X86946172Y-56907733D01*
X87106054Y-57038946D01*
X87237267Y-57198828D01*
X87334767Y-57381237D01*
X87334767Y-57381238D01*
X87394807Y-57579164D01*
X87415080Y-57785000D01*
X87394807Y-57990836D01*
X87354780Y-58122787D01*
X87334767Y-58188763D01*
X87237267Y-58371172D01*
X87106054Y-58531054D01*
X86946172Y-58662267D01*
X86763763Y-58759767D01*
X86697787Y-58779780D01*
X86565836Y-58819807D01*
X86488707Y-58827403D01*
X86411580Y-58835000D01*
X86308420Y-58835000D01*
X86231293Y-58827403D01*
X86154164Y-58819807D01*
X86022213Y-58779780D01*
X85956237Y-58759767D01*
X85773828Y-58662267D01*
X85613946Y-58531054D01*
X85482733Y-58371172D01*
X85385233Y-58188763D01*
X85365220Y-58122787D01*
X85325193Y-57990836D01*
X85304920Y-57785000D01*
X85325193Y-57579164D01*
X85385233Y-57381238D01*
X85385233Y-57381237D01*
X85482733Y-57198828D01*
X85613946Y-57038946D01*
X85773828Y-56907733D01*
X85956237Y-56810233D01*
X86022213Y-56790220D01*
X86154164Y-56750193D01*
X86231293Y-56742597D01*
X86308420Y-56735000D01*
X86411580Y-56735000D01*
X86488707Y-56742597D01*
X86488707Y-56742597D01*
G37*
G36*
X73788707Y-56742597D02*
X73865836Y-56750193D01*
X73997787Y-56790220D01*
X74063763Y-56810233D01*
X74246172Y-56907733D01*
X74406054Y-57038946D01*
X74537267Y-57198828D01*
X74634767Y-57381237D01*
X74634767Y-57381238D01*
X74694807Y-57579164D01*
X74715080Y-57785000D01*
X74694807Y-57990836D01*
X74654780Y-58122787D01*
X74634767Y-58188763D01*
X74537267Y-58371172D01*
X74406054Y-58531054D01*
X74246172Y-58662267D01*
X74063763Y-58759767D01*
X73997787Y-58779780D01*
X73865836Y-58819807D01*
X73788707Y-58827403D01*
X73711580Y-58835000D01*
X73608420Y-58835000D01*
X73531293Y-58827403D01*
X73454164Y-58819807D01*
X73322213Y-58779780D01*
X73256237Y-58759767D01*
X73073828Y-58662267D01*
X72913946Y-58531054D01*
X72782733Y-58371172D01*
X72685233Y-58188763D01*
X72665220Y-58122787D01*
X72625193Y-57990836D01*
X72604920Y-57785000D01*
X72625193Y-57579164D01*
X72685233Y-57381238D01*
X72685233Y-57381237D01*
X72782733Y-57198828D01*
X72913946Y-57038946D01*
X73073828Y-56907733D01*
X73256237Y-56810233D01*
X73322213Y-56790220D01*
X73454164Y-56750193D01*
X73531293Y-56742597D01*
X73608420Y-56735000D01*
X73711580Y-56735000D01*
X73788707Y-56742597D01*
X73788707Y-56742597D01*
G37*
G36*
X68708707Y-56742597D02*
X68785836Y-56750193D01*
X68917787Y-56790220D01*
X68983763Y-56810233D01*
X69166172Y-56907733D01*
X69326054Y-57038946D01*
X69457267Y-57198828D01*
X69554767Y-57381237D01*
X69554767Y-57381238D01*
X69614807Y-57579164D01*
X69635080Y-57785000D01*
X69614807Y-57990836D01*
X69574780Y-58122787D01*
X69554767Y-58188763D01*
X69457267Y-58371172D01*
X69326054Y-58531054D01*
X69166172Y-58662267D01*
X68983763Y-58759767D01*
X68917787Y-58779780D01*
X68785836Y-58819807D01*
X68708707Y-58827403D01*
X68631580Y-58835000D01*
X68528420Y-58835000D01*
X68451293Y-58827403D01*
X68374164Y-58819807D01*
X68242213Y-58779780D01*
X68176237Y-58759767D01*
X67993828Y-58662267D01*
X67833946Y-58531054D01*
X67702733Y-58371172D01*
X67605233Y-58188763D01*
X67585220Y-58122787D01*
X67545193Y-57990836D01*
X67524920Y-57785000D01*
X67545193Y-57579164D01*
X67605233Y-57381238D01*
X67605233Y-57381237D01*
X67702733Y-57198828D01*
X67833946Y-57038946D01*
X67993828Y-56907733D01*
X68176237Y-56810233D01*
X68242213Y-56790220D01*
X68374164Y-56750193D01*
X68451293Y-56742597D01*
X68528420Y-56735000D01*
X68631580Y-56735000D01*
X68708707Y-56742597D01*
X68708707Y-56742597D01*
G37*
G36*
X66168707Y-56742597D02*
X66245836Y-56750193D01*
X66377787Y-56790220D01*
X66443763Y-56810233D01*
X66626172Y-56907733D01*
X66786054Y-57038946D01*
X66917267Y-57198828D01*
X67014767Y-57381237D01*
X67014767Y-57381238D01*
X67074807Y-57579164D01*
X67095080Y-57785000D01*
X67074807Y-57990836D01*
X67034780Y-58122787D01*
X67014767Y-58188763D01*
X66917267Y-58371172D01*
X66786054Y-58531054D01*
X66626172Y-58662267D01*
X66443763Y-58759767D01*
X66377787Y-58779780D01*
X66245836Y-58819807D01*
X66168707Y-58827403D01*
X66091580Y-58835000D01*
X65988420Y-58835000D01*
X65911293Y-58827403D01*
X65834164Y-58819807D01*
X65702213Y-58779780D01*
X65636237Y-58759767D01*
X65453828Y-58662267D01*
X65293946Y-58531054D01*
X65162733Y-58371172D01*
X65065233Y-58188763D01*
X65045220Y-58122787D01*
X65005193Y-57990836D01*
X64984920Y-57785000D01*
X65005193Y-57579164D01*
X65065233Y-57381238D01*
X65065233Y-57381237D01*
X65162733Y-57198828D01*
X65293946Y-57038946D01*
X65453828Y-56907733D01*
X65636237Y-56810233D01*
X65702213Y-56790220D01*
X65834164Y-56750193D01*
X65911293Y-56742597D01*
X65988420Y-56735000D01*
X66091580Y-56735000D01*
X66168707Y-56742597D01*
X66168707Y-56742597D01*
G37*
G36*
X63628707Y-56742597D02*
X63705836Y-56750193D01*
X63837787Y-56790220D01*
X63903763Y-56810233D01*
X64086172Y-56907733D01*
X64246054Y-57038946D01*
X64377267Y-57198828D01*
X64474767Y-57381237D01*
X64474767Y-57381238D01*
X64534807Y-57579164D01*
X64555080Y-57785000D01*
X64534807Y-57990836D01*
X64494780Y-58122787D01*
X64474767Y-58188763D01*
X64377267Y-58371172D01*
X64246054Y-58531054D01*
X64086172Y-58662267D01*
X63903763Y-58759767D01*
X63837787Y-58779780D01*
X63705836Y-58819807D01*
X63628707Y-58827403D01*
X63551580Y-58835000D01*
X63448420Y-58835000D01*
X63371293Y-58827403D01*
X63294164Y-58819807D01*
X63162213Y-58779780D01*
X63096237Y-58759767D01*
X62913828Y-58662267D01*
X62753946Y-58531054D01*
X62622733Y-58371172D01*
X62525233Y-58188763D01*
X62505220Y-58122787D01*
X62465193Y-57990836D01*
X62444920Y-57785000D01*
X62465193Y-57579164D01*
X62525233Y-57381238D01*
X62525233Y-57381237D01*
X62622733Y-57198828D01*
X62753946Y-57038946D01*
X62913828Y-56907733D01*
X63096237Y-56810233D01*
X63162213Y-56790220D01*
X63294164Y-56750193D01*
X63371293Y-56742597D01*
X63448420Y-56735000D01*
X63551580Y-56735000D01*
X63628707Y-56742597D01*
X63628707Y-56742597D01*
G37*
G36*
X61088707Y-56742597D02*
X61165836Y-56750193D01*
X61297787Y-56790220D01*
X61363763Y-56810233D01*
X61546172Y-56907733D01*
X61706054Y-57038946D01*
X61837267Y-57198828D01*
X61934767Y-57381237D01*
X61934767Y-57381238D01*
X61994807Y-57579164D01*
X62015080Y-57785000D01*
X61994807Y-57990836D01*
X61954780Y-58122787D01*
X61934767Y-58188763D01*
X61837267Y-58371172D01*
X61706054Y-58531054D01*
X61546172Y-58662267D01*
X61363763Y-58759767D01*
X61297787Y-58779780D01*
X61165836Y-58819807D01*
X61088707Y-58827403D01*
X61011580Y-58835000D01*
X60908420Y-58835000D01*
X60831293Y-58827403D01*
X60754164Y-58819807D01*
X60622213Y-58779780D01*
X60556237Y-58759767D01*
X60373828Y-58662267D01*
X60213946Y-58531054D01*
X60082733Y-58371172D01*
X59985233Y-58188763D01*
X59965220Y-58122787D01*
X59925193Y-57990836D01*
X59904920Y-57785000D01*
X59925193Y-57579164D01*
X59985233Y-57381238D01*
X59985233Y-57381237D01*
X60082733Y-57198828D01*
X60213946Y-57038946D01*
X60373828Y-56907733D01*
X60556237Y-56810233D01*
X60622213Y-56790220D01*
X60754164Y-56750193D01*
X60831293Y-56742597D01*
X60908420Y-56735000D01*
X61011580Y-56735000D01*
X61088707Y-56742597D01*
X61088707Y-56742597D01*
G37*
G36*
X58548707Y-56742597D02*
X58625836Y-56750193D01*
X58757787Y-56790220D01*
X58823763Y-56810233D01*
X59006172Y-56907733D01*
X59166054Y-57038946D01*
X59297267Y-57198828D01*
X59394767Y-57381237D01*
X59394767Y-57381238D01*
X59454807Y-57579164D01*
X59475080Y-57785000D01*
X59454807Y-57990836D01*
X59414780Y-58122787D01*
X59394767Y-58188763D01*
X59297267Y-58371172D01*
X59166054Y-58531054D01*
X59006172Y-58662267D01*
X58823763Y-58759767D01*
X58757787Y-58779780D01*
X58625836Y-58819807D01*
X58548707Y-58827403D01*
X58471580Y-58835000D01*
X58368420Y-58835000D01*
X58291293Y-58827403D01*
X58214164Y-58819807D01*
X58082213Y-58779780D01*
X58016237Y-58759767D01*
X57833828Y-58662267D01*
X57673946Y-58531054D01*
X57542733Y-58371172D01*
X57445233Y-58188763D01*
X57425220Y-58122787D01*
X57385193Y-57990836D01*
X57364920Y-57785000D01*
X57385193Y-57579164D01*
X57445233Y-57381238D01*
X57445233Y-57381237D01*
X57542733Y-57198828D01*
X57673946Y-57038946D01*
X57833828Y-56907733D01*
X58016237Y-56810233D01*
X58082213Y-56790220D01*
X58214164Y-56750193D01*
X58291293Y-56742597D01*
X58368420Y-56735000D01*
X58471580Y-56735000D01*
X58548707Y-56742597D01*
X58548707Y-56742597D01*
G37*
G36*
X56008707Y-56742597D02*
X56085836Y-56750193D01*
X56217787Y-56790220D01*
X56283763Y-56810233D01*
X56466172Y-56907733D01*
X56626054Y-57038946D01*
X56757267Y-57198828D01*
X56854767Y-57381237D01*
X56854767Y-57381238D01*
X56914807Y-57579164D01*
X56935080Y-57785000D01*
X56914807Y-57990836D01*
X56874780Y-58122787D01*
X56854767Y-58188763D01*
X56757267Y-58371172D01*
X56626054Y-58531054D01*
X56466172Y-58662267D01*
X56283763Y-58759767D01*
X56217787Y-58779780D01*
X56085836Y-58819807D01*
X56008707Y-58827403D01*
X55931580Y-58835000D01*
X55828420Y-58835000D01*
X55751293Y-58827403D01*
X55674164Y-58819807D01*
X55542213Y-58779780D01*
X55476237Y-58759767D01*
X55293828Y-58662267D01*
X55133946Y-58531054D01*
X55002733Y-58371172D01*
X54905233Y-58188763D01*
X54885220Y-58122787D01*
X54845193Y-57990836D01*
X54824920Y-57785000D01*
X54845193Y-57579164D01*
X54905233Y-57381238D01*
X54905233Y-57381237D01*
X55002733Y-57198828D01*
X55133946Y-57038946D01*
X55293828Y-56907733D01*
X55476237Y-56810233D01*
X55542213Y-56790220D01*
X55674164Y-56750193D01*
X55751293Y-56742597D01*
X55828420Y-56735000D01*
X55931580Y-56735000D01*
X56008707Y-56742597D01*
X56008707Y-56742597D01*
G37*
G36*
X53468707Y-56742597D02*
X53545836Y-56750193D01*
X53677787Y-56790220D01*
X53743763Y-56810233D01*
X53926172Y-56907733D01*
X54086054Y-57038946D01*
X54217267Y-57198828D01*
X54314767Y-57381237D01*
X54314767Y-57381238D01*
X54374807Y-57579164D01*
X54395080Y-57785000D01*
X54374807Y-57990836D01*
X54334780Y-58122787D01*
X54314767Y-58188763D01*
X54217267Y-58371172D01*
X54086054Y-58531054D01*
X53926172Y-58662267D01*
X53743763Y-58759767D01*
X53677787Y-58779780D01*
X53545836Y-58819807D01*
X53468707Y-58827403D01*
X53391580Y-58835000D01*
X53288420Y-58835000D01*
X53211293Y-58827403D01*
X53134164Y-58819807D01*
X53002213Y-58779780D01*
X52936237Y-58759767D01*
X52753828Y-58662267D01*
X52593946Y-58531054D01*
X52462733Y-58371172D01*
X52365233Y-58188763D01*
X52345220Y-58122787D01*
X52305193Y-57990836D01*
X52284920Y-57785000D01*
X52305193Y-57579164D01*
X52365233Y-57381238D01*
X52365233Y-57381237D01*
X52462733Y-57198828D01*
X52593946Y-57038946D01*
X52753828Y-56907733D01*
X52936237Y-56810233D01*
X53002213Y-56790220D01*
X53134164Y-56750193D01*
X53211293Y-56742597D01*
X53288420Y-56735000D01*
X53391580Y-56735000D01*
X53468707Y-56742597D01*
X53468707Y-56742597D01*
G37*
G36*
X79862352Y-54062743D02*
X80007941Y-54123048D01*
X80138973Y-54210601D01*
X80250399Y-54322027D01*
X80337952Y-54453059D01*
X80398257Y-54598648D01*
X80429000Y-54753205D01*
X80429000Y-54910795D01*
X80398257Y-55065352D01*
X80337952Y-55210941D01*
X80250399Y-55341973D01*
X80138973Y-55453399D01*
X80007941Y-55540952D01*
X79862352Y-55601257D01*
X79707795Y-55632000D01*
X79550205Y-55632000D01*
X79395648Y-55601257D01*
X79250059Y-55540952D01*
X79119027Y-55453399D01*
X79007601Y-55341973D01*
X78920048Y-55210941D01*
X78859743Y-55065352D01*
X78829000Y-54910795D01*
X78829000Y-54753205D01*
X78859743Y-54598648D01*
X78920048Y-54453059D01*
X79007601Y-54322027D01*
X79119027Y-54210601D01*
X79250059Y-54123048D01*
X79395648Y-54062743D01*
X79550205Y-54032000D01*
X79707795Y-54032000D01*
X79862352Y-54062743D01*
X79862352Y-54062743D01*
G37*
G36*
X87791000Y-55279000D02*
X85691000Y-55279000D01*
X85691000Y-53179000D01*
X87791000Y-53179000D01*
X87791000Y-55279000D01*
X87791000Y-55279000D01*
G37*
G36*
X90659325Y-53056831D02*
X90700598Y-53069351D01*
X90738629Y-53089679D01*
X90771964Y-53117036D01*
X90799321Y-53150371D01*
X90819649Y-53188402D01*
X90832169Y-53229675D01*
X90837000Y-53278726D01*
X90837000Y-54925274D01*
X90832169Y-54974325D01*
X90819649Y-55015598D01*
X90799321Y-55053629D01*
X90771964Y-55086964D01*
X90738629Y-55114321D01*
X90700598Y-55134649D01*
X90659325Y-55147169D01*
X90610274Y-55152000D01*
X88713726Y-55152000D01*
X88664675Y-55147169D01*
X88623402Y-55134649D01*
X88585371Y-55114321D01*
X88552036Y-55086964D01*
X88524679Y-55053629D01*
X88504351Y-55015598D01*
X88491831Y-54974325D01*
X88487000Y-54925274D01*
X88487000Y-53278726D01*
X88491831Y-53229675D01*
X88504351Y-53188402D01*
X88524679Y-53150371D01*
X88552036Y-53117036D01*
X88585371Y-53089679D01*
X88623402Y-53069351D01*
X88664675Y-53056831D01*
X88713726Y-53052000D01*
X90610274Y-53052000D01*
X90659325Y-53056831D01*
X90659325Y-53056831D01*
G37*
G36*
X51229770Y-52761372D02*
X51345689Y-52784429D01*
X51527678Y-52859811D01*
X51691463Y-52969249D01*
X51830751Y-53108537D01*
X51940189Y-53272322D01*
X52015571Y-53454311D01*
X52027645Y-53515012D01*
X52054000Y-53647507D01*
X52054000Y-53844493D01*
X52039589Y-53916942D01*
X52015571Y-54037689D01*
X51940189Y-54219678D01*
X51830751Y-54383463D01*
X51691463Y-54522751D01*
X51527678Y-54632189D01*
X51345689Y-54707571D01*
X51229770Y-54730628D01*
X51152493Y-54746000D01*
X50955507Y-54746000D01*
X50878230Y-54730628D01*
X50762311Y-54707571D01*
X50580322Y-54632189D01*
X50416537Y-54522751D01*
X50277249Y-54383463D01*
X50167811Y-54219678D01*
X50092429Y-54037689D01*
X50068411Y-53916942D01*
X50054000Y-53844493D01*
X50054000Y-53647507D01*
X50080355Y-53515012D01*
X50092429Y-53454311D01*
X50167811Y-53272322D01*
X50277249Y-53108537D01*
X50416537Y-52969249D01*
X50580322Y-52859811D01*
X50762311Y-52784429D01*
X50878230Y-52761372D01*
X50955507Y-52746000D01*
X51152493Y-52746000D01*
X51229770Y-52761372D01*
X51229770Y-52761372D01*
G37*
G36*
X66596012Y-52763057D02*
X66705207Y-52808287D01*
X66803481Y-52873952D01*
X66887048Y-52957519D01*
X66952713Y-53055793D01*
X66997943Y-53164988D01*
X67021000Y-53280904D01*
X67021000Y-53399096D01*
X66997943Y-53515012D01*
X66952713Y-53624207D01*
X66887048Y-53722481D01*
X66803481Y-53806048D01*
X66705207Y-53871713D01*
X66596012Y-53916943D01*
X66480096Y-53940000D01*
X66361904Y-53940000D01*
X66245988Y-53916943D01*
X66136793Y-53871713D01*
X66038519Y-53806048D01*
X65954952Y-53722481D01*
X65889287Y-53624207D01*
X65844057Y-53515012D01*
X65821000Y-53399096D01*
X65821000Y-53280904D01*
X65844057Y-53164988D01*
X65889287Y-53055793D01*
X65954952Y-52957519D01*
X66038519Y-52873952D01*
X66136793Y-52808287D01*
X66245988Y-52763057D01*
X66361904Y-52740000D01*
X66480096Y-52740000D01*
X66596012Y-52763057D01*
X66596012Y-52763057D01*
G37*
G36*
X64945012Y-52763057D02*
X65054207Y-52808287D01*
X65152481Y-52873952D01*
X65236048Y-52957519D01*
X65301713Y-53055793D01*
X65346943Y-53164988D01*
X65370000Y-53280904D01*
X65370000Y-53399096D01*
X65346943Y-53515012D01*
X65301713Y-53624207D01*
X65236048Y-53722481D01*
X65152481Y-53806048D01*
X65054207Y-53871713D01*
X64945012Y-53916943D01*
X64829096Y-53940000D01*
X64710904Y-53940000D01*
X64594988Y-53916943D01*
X64485793Y-53871713D01*
X64387519Y-53806048D01*
X64303952Y-53722481D01*
X64238287Y-53624207D01*
X64193057Y-53515012D01*
X64170000Y-53399096D01*
X64170000Y-53280904D01*
X64193057Y-53164988D01*
X64238287Y-53055793D01*
X64303952Y-52957519D01*
X64387519Y-52873952D01*
X64485793Y-52808287D01*
X64594988Y-52763057D01*
X64710904Y-52740000D01*
X64829096Y-52740000D01*
X64945012Y-52763057D01*
X64945012Y-52763057D01*
G37*
G36*
X69136012Y-52763057D02*
X69245207Y-52808287D01*
X69343481Y-52873952D01*
X69427048Y-52957519D01*
X69492713Y-53055793D01*
X69537943Y-53164988D01*
X69561000Y-53280904D01*
X69561000Y-53399096D01*
X69537943Y-53515012D01*
X69492713Y-53624207D01*
X69427048Y-53722481D01*
X69343481Y-53806048D01*
X69245207Y-53871713D01*
X69136012Y-53916943D01*
X69020096Y-53940000D01*
X68901904Y-53940000D01*
X68785988Y-53916943D01*
X68676793Y-53871713D01*
X68578519Y-53806048D01*
X68494952Y-53722481D01*
X68429287Y-53624207D01*
X68384057Y-53515012D01*
X68361000Y-53399096D01*
X68361000Y-53280904D01*
X68384057Y-53164988D01*
X68429287Y-53055793D01*
X68494952Y-52957519D01*
X68578519Y-52873952D01*
X68676793Y-52808287D01*
X68785988Y-52763057D01*
X68901904Y-52740000D01*
X69020096Y-52740000D01*
X69136012Y-52763057D01*
X69136012Y-52763057D01*
G37*
G36*
X80429000Y-53632000D02*
X78829000Y-53632000D01*
X78829000Y-52032000D01*
X80429000Y-52032000D01*
X80429000Y-53632000D01*
X80429000Y-53632000D01*
G37*
G36*
X58100000Y-50510409D02*
X58089923Y-50511402D01*
X58066474Y-50518515D01*
X58044863Y-50530066D01*
X58025921Y-50545612D01*
X58010375Y-50564554D01*
X57998824Y-50586165D01*
X57991711Y-50609614D01*
X57989309Y-50634000D01*
X57991711Y-50658386D01*
X57998824Y-50681835D01*
X58004069Y-50692925D01*
X58048053Y-50775211D01*
X58061872Y-50820766D01*
X58089509Y-50911875D01*
X58103507Y-51054000D01*
X58089509Y-51196125D01*
X58064735Y-51277793D01*
X58048053Y-51332789D01*
X57980731Y-51458738D01*
X57890132Y-51569132D01*
X57861812Y-51592374D01*
X57844485Y-51609701D01*
X57830871Y-51630075D01*
X57821493Y-51652714D01*
X57816713Y-51676748D01*
X57816713Y-51701252D01*
X57821493Y-51725286D01*
X57830871Y-51747925D01*
X57844485Y-51768299D01*
X57861812Y-51785626D01*
X57890132Y-51808868D01*
X57980731Y-51919262D01*
X58048053Y-52045211D01*
X58048053Y-52045212D01*
X58089509Y-52181875D01*
X58103507Y-52324000D01*
X58089509Y-52466125D01*
X58085522Y-52479267D01*
X58048053Y-52602789D01*
X57980731Y-52728738D01*
X57890132Y-52839132D01*
X57779738Y-52929731D01*
X57653789Y-52997053D01*
X57608234Y-53010872D01*
X57517125Y-53038509D01*
X57446113Y-53045503D01*
X57410608Y-53049000D01*
X56889392Y-53049000D01*
X56853887Y-53045503D01*
X56782875Y-53038509D01*
X56691766Y-53010872D01*
X56646211Y-52997053D01*
X56520262Y-52929731D01*
X56409868Y-52839132D01*
X56319269Y-52728738D01*
X56251947Y-52602789D01*
X56214478Y-52479267D01*
X56210491Y-52466125D01*
X56196493Y-52324000D01*
X56210491Y-52181875D01*
X56251947Y-52045212D01*
X56251947Y-52045211D01*
X56319269Y-51919262D01*
X56409868Y-51808868D01*
X56438188Y-51785626D01*
X56455515Y-51768299D01*
X56469129Y-51747925D01*
X56478507Y-51725286D01*
X56483287Y-51701252D01*
X56483287Y-51676748D01*
X56478507Y-51652714D01*
X56469129Y-51630075D01*
X56455515Y-51609701D01*
X56438188Y-51592374D01*
X56409868Y-51569132D01*
X56319269Y-51458738D01*
X56251947Y-51332789D01*
X56235265Y-51277793D01*
X56210491Y-51196125D01*
X56196493Y-51054000D01*
X56210491Y-50911875D01*
X56238128Y-50820766D01*
X56251947Y-50775211D01*
X56295931Y-50692925D01*
X56305308Y-50670287D01*
X56310089Y-50646253D01*
X56310089Y-50621749D01*
X56305309Y-50597715D01*
X56295932Y-50575076D01*
X56282318Y-50554702D01*
X56264991Y-50537374D01*
X56244616Y-50523760D01*
X56221978Y-50514383D01*
X56200000Y-50510011D01*
X56200000Y-49059000D01*
X58100000Y-49059000D01*
X58100000Y-50510409D01*
X58100000Y-50510409D01*
G37*
G36*
X86866219Y-50646253D02*
X86946836Y-50654193D01*
X87074519Y-50692925D01*
X87144763Y-50714233D01*
X87327172Y-50811733D01*
X87487054Y-50942946D01*
X87618267Y-51102828D01*
X87715767Y-51285237D01*
X87724393Y-51313674D01*
X87775807Y-51483164D01*
X87796080Y-51689000D01*
X87775807Y-51894836D01*
X87768397Y-51919262D01*
X87715767Y-52092763D01*
X87618267Y-52275172D01*
X87487054Y-52435054D01*
X87327172Y-52566267D01*
X87144763Y-52663767D01*
X87078787Y-52683780D01*
X86946836Y-52723807D01*
X86896770Y-52728738D01*
X86792580Y-52739000D01*
X86689420Y-52739000D01*
X86585230Y-52728738D01*
X86535164Y-52723807D01*
X86403213Y-52683780D01*
X86337237Y-52663767D01*
X86154828Y-52566267D01*
X85994946Y-52435054D01*
X85863733Y-52275172D01*
X85766233Y-52092763D01*
X85713603Y-51919262D01*
X85706193Y-51894836D01*
X85685920Y-51689000D01*
X85706193Y-51483164D01*
X85757607Y-51313674D01*
X85766233Y-51285237D01*
X85863733Y-51102828D01*
X85994946Y-50942946D01*
X86154828Y-50811733D01*
X86337237Y-50714233D01*
X86407481Y-50692925D01*
X86535164Y-50654193D01*
X86615781Y-50646253D01*
X86689420Y-50639000D01*
X86792580Y-50639000D01*
X86866219Y-50646253D01*
X86866219Y-50646253D01*
G37*
G36*
X89915707Y-50559597D02*
X89992836Y-50567193D01*
X90124787Y-50607220D01*
X90190763Y-50627233D01*
X90373172Y-50724733D01*
X90533054Y-50855946D01*
X90664267Y-51015828D01*
X90751763Y-51179522D01*
X90761767Y-51198238D01*
X90789917Y-51291038D01*
X90799292Y-51313672D01*
X90812906Y-51334046D01*
X90830233Y-51351374D01*
X90850607Y-51364988D01*
X90873246Y-51374365D01*
X90897280Y-51379146D01*
X90921784Y-51379146D01*
X90945817Y-51374366D01*
X90968457Y-51364989D01*
X90988831Y-51351375D01*
X91006159Y-51334048D01*
X91019773Y-51313674D01*
X91025018Y-51302584D01*
X91035287Y-51277793D01*
X91100952Y-51179519D01*
X91184519Y-51095952D01*
X91282793Y-51030287D01*
X91391988Y-50985057D01*
X91507904Y-50962000D01*
X91626096Y-50962000D01*
X91742012Y-50985057D01*
X91851207Y-51030287D01*
X91949481Y-51095952D01*
X92033048Y-51179519D01*
X92098713Y-51277793D01*
X92143943Y-51386988D01*
X92167000Y-51502904D01*
X92167000Y-51621096D01*
X92143943Y-51737012D01*
X92098713Y-51846207D01*
X92033048Y-51944481D01*
X91949481Y-52028048D01*
X91851207Y-52093713D01*
X91742012Y-52138943D01*
X91626096Y-52162000D01*
X91507904Y-52162000D01*
X91391988Y-52138943D01*
X91282793Y-52093713D01*
X91184519Y-52028048D01*
X91100952Y-51944481D01*
X91029854Y-51838076D01*
X91027474Y-51833623D01*
X91011928Y-51814681D01*
X90992985Y-51799136D01*
X90971374Y-51787586D01*
X90947925Y-51780473D01*
X90923538Y-51778072D01*
X90899152Y-51780475D01*
X90875703Y-51787589D01*
X90854093Y-51799140D01*
X90835151Y-51814686D01*
X90819606Y-51833629D01*
X90803925Y-51866784D01*
X90795416Y-51894836D01*
X90761767Y-52005763D01*
X90664267Y-52188172D01*
X90533054Y-52348054D01*
X90373172Y-52479267D01*
X90190763Y-52576767D01*
X90124787Y-52596780D01*
X89992836Y-52636807D01*
X89915707Y-52644403D01*
X89838580Y-52652000D01*
X89485420Y-52652000D01*
X89408293Y-52644403D01*
X89331164Y-52636807D01*
X89199213Y-52596780D01*
X89133237Y-52576767D01*
X88950828Y-52479267D01*
X88790946Y-52348054D01*
X88659733Y-52188172D01*
X88562233Y-52005763D01*
X88528584Y-51894836D01*
X88502193Y-51807836D01*
X88481920Y-51602000D01*
X88502193Y-51396164D01*
X88562233Y-51198238D01*
X88562233Y-51198237D01*
X88659733Y-51015828D01*
X88790946Y-50855946D01*
X88950828Y-50724733D01*
X89133237Y-50627233D01*
X89199213Y-50607220D01*
X89331164Y-50567193D01*
X89408293Y-50559597D01*
X89485420Y-50552000D01*
X89838580Y-50552000D01*
X89915707Y-50559597D01*
X89915707Y-50559597D01*
G37*
G36*
X93520012Y-50985057D02*
X93629207Y-51030287D01*
X93727481Y-51095952D01*
X93811048Y-51179519D01*
X93876713Y-51277793D01*
X93921943Y-51386988D01*
X93945000Y-51502904D01*
X93945000Y-51621096D01*
X93921943Y-51737012D01*
X93876713Y-51846207D01*
X93811048Y-51944481D01*
X93727481Y-52028048D01*
X93629207Y-52093713D01*
X93520012Y-52138943D01*
X93404096Y-52162000D01*
X93285904Y-52162000D01*
X93169988Y-52138943D01*
X93060793Y-52093713D01*
X92962519Y-52028048D01*
X92878952Y-51944481D01*
X92813287Y-51846207D01*
X92768057Y-51737012D01*
X92745000Y-51621096D01*
X92745000Y-51502904D01*
X92768057Y-51386988D01*
X92813287Y-51277793D01*
X92878952Y-51179519D01*
X92962519Y-51095952D01*
X93060793Y-51030287D01*
X93169988Y-50985057D01*
X93285904Y-50962000D01*
X93404096Y-50962000D01*
X93520012Y-50985057D01*
X93520012Y-50985057D01*
G37*
G36*
X69136012Y-50985057D02*
X69245207Y-51030287D01*
X69343481Y-51095952D01*
X69427048Y-51179519D01*
X69492713Y-51277793D01*
X69537943Y-51386988D01*
X69561000Y-51502904D01*
X69561000Y-51621096D01*
X69537943Y-51737012D01*
X69492713Y-51846207D01*
X69427048Y-51944481D01*
X69343481Y-52028048D01*
X69245207Y-52093713D01*
X69136012Y-52138943D01*
X69020096Y-52162000D01*
X68901904Y-52162000D01*
X68785988Y-52138943D01*
X68676793Y-52093713D01*
X68578519Y-52028048D01*
X68494952Y-51944481D01*
X68429287Y-51846207D01*
X68384057Y-51737012D01*
X68361000Y-51621096D01*
X68361000Y-51502904D01*
X68384057Y-51386988D01*
X68429287Y-51277793D01*
X68494952Y-51179519D01*
X68578519Y-51095952D01*
X68676793Y-51030287D01*
X68785988Y-50985057D01*
X68901904Y-50962000D01*
X69020096Y-50962000D01*
X69136012Y-50985057D01*
X69136012Y-50985057D01*
G37*
G36*
X52054000Y-51546000D02*
X50054000Y-51546000D01*
X50054000Y-49546000D01*
X52054000Y-49546000D01*
X52054000Y-51546000D01*
X52054000Y-51546000D01*
G37*
G36*
X70851522Y-44668647D02*
X70893382Y-44676973D01*
X70920418Y-44688172D01*
X71011673Y-44725971D01*
X71078838Y-44770849D01*
X71100449Y-44782400D01*
X71123898Y-44789513D01*
X71148284Y-44791915D01*
X71172670Y-44789513D01*
X71196119Y-44782400D01*
X71217730Y-44770849D01*
X71284895Y-44725971D01*
X71376150Y-44688172D01*
X71403186Y-44676973D01*
X71445046Y-44668647D01*
X71528763Y-44651994D01*
X71656805Y-44651994D01*
X71740522Y-44668647D01*
X71782382Y-44676973D01*
X71809418Y-44688172D01*
X71900673Y-44725971D01*
X71967838Y-44770849D01*
X71989449Y-44782400D01*
X72012898Y-44789513D01*
X72037284Y-44791915D01*
X72061670Y-44789513D01*
X72085119Y-44782400D01*
X72106730Y-44770849D01*
X72173895Y-44725971D01*
X72265150Y-44688172D01*
X72292186Y-44676973D01*
X72334046Y-44668647D01*
X72417763Y-44651994D01*
X72545805Y-44651994D01*
X72629522Y-44668647D01*
X72671382Y-44676973D01*
X72698416Y-44688171D01*
X72789674Y-44725971D01*
X72896138Y-44797108D01*
X72986670Y-44887640D01*
X73057807Y-44994104D01*
X73106805Y-45112396D01*
X73121186Y-45184695D01*
X73128299Y-45208144D01*
X73139850Y-45229754D01*
X73155396Y-45248697D01*
X73174338Y-45264242D01*
X73195949Y-45275793D01*
X73219398Y-45282906D01*
X73243784Y-45285308D01*
X73268171Y-45282906D01*
X73291620Y-45275793D01*
X73313230Y-45264242D01*
X73332173Y-45248696D01*
X73347718Y-45229754D01*
X73359269Y-45208143D01*
X73366382Y-45184695D01*
X73380763Y-45112396D01*
X73429761Y-44994104D01*
X73500898Y-44887640D01*
X73591430Y-44797108D01*
X73697894Y-44725971D01*
X73789152Y-44688171D01*
X73816186Y-44676973D01*
X73858046Y-44668647D01*
X73941763Y-44651994D01*
X74069805Y-44651994D01*
X74153522Y-44668647D01*
X74195382Y-44676973D01*
X74222418Y-44688172D01*
X74313673Y-44725971D01*
X74380838Y-44770849D01*
X74402449Y-44782400D01*
X74425898Y-44789513D01*
X74450284Y-44791915D01*
X74474670Y-44789513D01*
X74498119Y-44782400D01*
X74519730Y-44770849D01*
X74586895Y-44725971D01*
X74678150Y-44688172D01*
X74705186Y-44676973D01*
X74747046Y-44668647D01*
X74830763Y-44651994D01*
X74958805Y-44651994D01*
X75042522Y-44668647D01*
X75084382Y-44676973D01*
X75111418Y-44688172D01*
X75202673Y-44725971D01*
X75269838Y-44770849D01*
X75291449Y-44782400D01*
X75314898Y-44789513D01*
X75339284Y-44791915D01*
X75363670Y-44789513D01*
X75387119Y-44782400D01*
X75408730Y-44770849D01*
X75475895Y-44725971D01*
X75567150Y-44688172D01*
X75594186Y-44676973D01*
X75636046Y-44668647D01*
X75719763Y-44651994D01*
X75847805Y-44651994D01*
X75931522Y-44668647D01*
X75973382Y-44676973D01*
X76000416Y-44688171D01*
X76091674Y-44725971D01*
X76198138Y-44797108D01*
X76288670Y-44887640D01*
X76359807Y-44994104D01*
X76394047Y-45076767D01*
X76408805Y-45112396D01*
X76413661Y-45136807D01*
X76433784Y-45237973D01*
X76433784Y-45366015D01*
X76408805Y-45491591D01*
X76359807Y-45609883D01*
X76314929Y-45677048D01*
X76303378Y-45698659D01*
X76296265Y-45722108D01*
X76293863Y-45746494D01*
X76296265Y-45770880D01*
X76303378Y-45794329D01*
X76314929Y-45815940D01*
X76359807Y-45883105D01*
X76408805Y-46001397D01*
X76433784Y-46126973D01*
X76433784Y-46255015D01*
X76427850Y-46284845D01*
X76408805Y-46380592D01*
X76402354Y-46396166D01*
X76359807Y-46498883D01*
X76314929Y-46566048D01*
X76303378Y-46587659D01*
X76296265Y-46611108D01*
X76293863Y-46635494D01*
X76296265Y-46659880D01*
X76303378Y-46683329D01*
X76314929Y-46704940D01*
X76359807Y-46772105D01*
X76408805Y-46890397D01*
X76433784Y-47015973D01*
X76433784Y-47144015D01*
X76408805Y-47269591D01*
X76359807Y-47387884D01*
X76288670Y-47494348D01*
X76198138Y-47584880D01*
X76158957Y-47611060D01*
X76140015Y-47626606D01*
X76124469Y-47645548D01*
X76112918Y-47667158D01*
X76105805Y-47690608D01*
X76103403Y-47714994D01*
X76105805Y-47739380D01*
X76112918Y-47762829D01*
X76124469Y-47784440D01*
X76140015Y-47803382D01*
X76158957Y-47818928D01*
X76198138Y-47845108D01*
X76288670Y-47935640D01*
X76359807Y-48042104D01*
X76408805Y-48160397D01*
X76433784Y-48285973D01*
X76433784Y-48414015D01*
X76408805Y-48539591D01*
X76359807Y-48657883D01*
X76314929Y-48725048D01*
X76303378Y-48746659D01*
X76296265Y-48770108D01*
X76293863Y-48794494D01*
X76296265Y-48818880D01*
X76303378Y-48842329D01*
X76314929Y-48863940D01*
X76359807Y-48931105D01*
X76408805Y-49049397D01*
X76433784Y-49174973D01*
X76433784Y-49303015D01*
X76408805Y-49428591D01*
X76359807Y-49546883D01*
X76314929Y-49614048D01*
X76303378Y-49635659D01*
X76296265Y-49659108D01*
X76293863Y-49683494D01*
X76296265Y-49707880D01*
X76303378Y-49731329D01*
X76314929Y-49752940D01*
X76359807Y-49820105D01*
X76396532Y-49908767D01*
X76408083Y-49930378D01*
X76423629Y-49949320D01*
X76442571Y-49964866D01*
X76464181Y-49976417D01*
X76487631Y-49983530D01*
X76512017Y-49985932D01*
X76536403Y-49983530D01*
X76559852Y-49976417D01*
X76581463Y-49964866D01*
X76600405Y-49949320D01*
X76615951Y-49930378D01*
X76627502Y-49908768D01*
X76634615Y-49885318D01*
X76639057Y-49862989D01*
X76684287Y-49753793D01*
X76749952Y-49655519D01*
X76833519Y-49571952D01*
X76931793Y-49506287D01*
X77040988Y-49461057D01*
X77156904Y-49438000D01*
X77275096Y-49438000D01*
X77391012Y-49461057D01*
X77500207Y-49506287D01*
X77598481Y-49571952D01*
X77682048Y-49655519D01*
X77747713Y-49753793D01*
X77792943Y-49862988D01*
X77816000Y-49978904D01*
X77816000Y-50097096D01*
X77792943Y-50213012D01*
X77747713Y-50322207D01*
X77682048Y-50420481D01*
X77598481Y-50504048D01*
X77500207Y-50569713D01*
X77391012Y-50614943D01*
X77275096Y-50638000D01*
X77156904Y-50638000D01*
X77040988Y-50614943D01*
X76931793Y-50569713D01*
X76833519Y-50504048D01*
X76749952Y-50420481D01*
X76684286Y-50322205D01*
X76655250Y-50252106D01*
X76643699Y-50230495D01*
X76628153Y-50211553D01*
X76609211Y-50196007D01*
X76587600Y-50184456D01*
X76564151Y-50177343D01*
X76539765Y-50174941D01*
X76515379Y-50177343D01*
X76491930Y-50184456D01*
X76470319Y-50196007D01*
X76451377Y-50211553D01*
X76435831Y-50230495D01*
X76424280Y-50252106D01*
X76417167Y-50275554D01*
X76408805Y-50317592D01*
X76359807Y-50435884D01*
X76288670Y-50542348D01*
X76198138Y-50632880D01*
X76091674Y-50704017D01*
X76008029Y-50738664D01*
X75973382Y-50753015D01*
X75931522Y-50761341D01*
X75847805Y-50777994D01*
X75719763Y-50777994D01*
X75636046Y-50761341D01*
X75594186Y-50753015D01*
X75525908Y-50724733D01*
X75475895Y-50704017D01*
X75408730Y-50659139D01*
X75387119Y-50647588D01*
X75363670Y-50640475D01*
X75339284Y-50638073D01*
X75314898Y-50640475D01*
X75291449Y-50647588D01*
X75269838Y-50659139D01*
X75202673Y-50704017D01*
X75152660Y-50724733D01*
X75084382Y-50753015D01*
X75042522Y-50761341D01*
X74958805Y-50777994D01*
X74830763Y-50777994D01*
X74747046Y-50761341D01*
X74705186Y-50753015D01*
X74636908Y-50724733D01*
X74586895Y-50704017D01*
X74519730Y-50659139D01*
X74498119Y-50647588D01*
X74474670Y-50640475D01*
X74450284Y-50638073D01*
X74425898Y-50640475D01*
X74402449Y-50647588D01*
X74380838Y-50659139D01*
X74313673Y-50704017D01*
X74263660Y-50724733D01*
X74195382Y-50753015D01*
X74153522Y-50761341D01*
X74069805Y-50777994D01*
X73941763Y-50777994D01*
X73858046Y-50761341D01*
X73816186Y-50753015D01*
X73781539Y-50738664D01*
X73697894Y-50704017D01*
X73591430Y-50632880D01*
X73500898Y-50542348D01*
X73429761Y-50435884D01*
X73380763Y-50317592D01*
X73366382Y-50245293D01*
X73359269Y-50221844D01*
X73347718Y-50200234D01*
X73332172Y-50181291D01*
X73313230Y-50165746D01*
X73291619Y-50154195D01*
X73268170Y-50147082D01*
X73243784Y-50144680D01*
X73219397Y-50147082D01*
X73195948Y-50154195D01*
X73174338Y-50165746D01*
X73155395Y-50181292D01*
X73139850Y-50200234D01*
X73128299Y-50221845D01*
X73121186Y-50245293D01*
X73106805Y-50317592D01*
X73057807Y-50435884D01*
X72986670Y-50542348D01*
X72896138Y-50632880D01*
X72789674Y-50704017D01*
X72706029Y-50738664D01*
X72671382Y-50753015D01*
X72629522Y-50761341D01*
X72545805Y-50777994D01*
X72417763Y-50777994D01*
X72334046Y-50761341D01*
X72292186Y-50753015D01*
X72223908Y-50724733D01*
X72173895Y-50704017D01*
X72106730Y-50659139D01*
X72085119Y-50647588D01*
X72061670Y-50640475D01*
X72037284Y-50638073D01*
X72012898Y-50640475D01*
X71989449Y-50647588D01*
X71967838Y-50659139D01*
X71900673Y-50704017D01*
X71850660Y-50724733D01*
X71782382Y-50753015D01*
X71740522Y-50761341D01*
X71656805Y-50777994D01*
X71528763Y-50777994D01*
X71445046Y-50761341D01*
X71403186Y-50753015D01*
X71334908Y-50724733D01*
X71284895Y-50704017D01*
X71217730Y-50659139D01*
X71196119Y-50647588D01*
X71172670Y-50640475D01*
X71148284Y-50638073D01*
X71123898Y-50640475D01*
X71100449Y-50647588D01*
X71078838Y-50659139D01*
X71011673Y-50704017D01*
X70961660Y-50724733D01*
X70893382Y-50753015D01*
X70851522Y-50761341D01*
X70767805Y-50777994D01*
X70639763Y-50777994D01*
X70556046Y-50761341D01*
X70514186Y-50753015D01*
X70479539Y-50738664D01*
X70395894Y-50704017D01*
X70289430Y-50632880D01*
X70198898Y-50542348D01*
X70127761Y-50435884D01*
X70087834Y-50339491D01*
X70078763Y-50317592D01*
X70059718Y-50221845D01*
X70053784Y-50192015D01*
X70053784Y-50063973D01*
X70078763Y-49938397D01*
X70082085Y-49930378D01*
X70109998Y-49862989D01*
X70127761Y-49820105D01*
X70172639Y-49752940D01*
X70184190Y-49731329D01*
X70191303Y-49707880D01*
X70193705Y-49683494D01*
X72991863Y-49683494D01*
X72994265Y-49707880D01*
X73001378Y-49731329D01*
X73012929Y-49752940D01*
X73057807Y-49820105D01*
X73106805Y-49938396D01*
X73121186Y-50010695D01*
X73128299Y-50034144D01*
X73139850Y-50055754D01*
X73155396Y-50074697D01*
X73174338Y-50090242D01*
X73195949Y-50101793D01*
X73219398Y-50108906D01*
X73243784Y-50111308D01*
X73268171Y-50108906D01*
X73291620Y-50101793D01*
X73313230Y-50090242D01*
X73332173Y-50074696D01*
X73347718Y-50055754D01*
X73359269Y-50034143D01*
X73366382Y-50010695D01*
X73380763Y-49938396D01*
X73429761Y-49820105D01*
X73474639Y-49752940D01*
X73486190Y-49731329D01*
X73493303Y-49707880D01*
X73495705Y-49683494D01*
X73493303Y-49659108D01*
X73486190Y-49635659D01*
X73474639Y-49614048D01*
X73429761Y-49546883D01*
X73380763Y-49428592D01*
X73366382Y-49356293D01*
X73359269Y-49332844D01*
X73347718Y-49311234D01*
X73332172Y-49292291D01*
X73313230Y-49276746D01*
X73291619Y-49265195D01*
X73268170Y-49258082D01*
X73243784Y-49255680D01*
X73219397Y-49258082D01*
X73195948Y-49265195D01*
X73174338Y-49276746D01*
X73155395Y-49292292D01*
X73139850Y-49311234D01*
X73128299Y-49332845D01*
X73121186Y-49356293D01*
X73106805Y-49428592D01*
X73057807Y-49546883D01*
X73012929Y-49614048D01*
X73001378Y-49635659D01*
X72994265Y-49659108D01*
X72991863Y-49683494D01*
X70193705Y-49683494D01*
X70191303Y-49659108D01*
X70184190Y-49635659D01*
X70172639Y-49614048D01*
X70127761Y-49546883D01*
X70078763Y-49428591D01*
X70053784Y-49303015D01*
X70053784Y-49174973D01*
X70078763Y-49049397D01*
X70127761Y-48931105D01*
X70172639Y-48863940D01*
X70184190Y-48842329D01*
X70191303Y-48818880D01*
X70193705Y-48794494D01*
X72991863Y-48794494D01*
X72994265Y-48818880D01*
X73001378Y-48842329D01*
X73012929Y-48863940D01*
X73057807Y-48931105D01*
X73106805Y-49049396D01*
X73121186Y-49121695D01*
X73128299Y-49145144D01*
X73139850Y-49166754D01*
X73155396Y-49185697D01*
X73174338Y-49201242D01*
X73195949Y-49212793D01*
X73219398Y-49219906D01*
X73243784Y-49222308D01*
X73268171Y-49219906D01*
X73291620Y-49212793D01*
X73313230Y-49201242D01*
X73332173Y-49185696D01*
X73347718Y-49166754D01*
X73359269Y-49145143D01*
X73366382Y-49121695D01*
X73380763Y-49049396D01*
X73429761Y-48931105D01*
X73474639Y-48863940D01*
X73486190Y-48842329D01*
X73493303Y-48818880D01*
X73495705Y-48794494D01*
X73493303Y-48770108D01*
X73486190Y-48746659D01*
X73474639Y-48725048D01*
X73429761Y-48657883D01*
X73380763Y-48539592D01*
X73366382Y-48467293D01*
X73359269Y-48443844D01*
X73347718Y-48422234D01*
X73332172Y-48403291D01*
X73313230Y-48387746D01*
X73291619Y-48376195D01*
X73268170Y-48369082D01*
X73243784Y-48366680D01*
X73219397Y-48369082D01*
X73195948Y-48376195D01*
X73174338Y-48387746D01*
X73155395Y-48403292D01*
X73139850Y-48422234D01*
X73128299Y-48443845D01*
X73121186Y-48467293D01*
X73106805Y-48539592D01*
X73057807Y-48657883D01*
X73012929Y-48725048D01*
X73001378Y-48746659D01*
X72994265Y-48770108D01*
X72991863Y-48794494D01*
X70193705Y-48794494D01*
X70191303Y-48770108D01*
X70184190Y-48746659D01*
X70172639Y-48725048D01*
X70127761Y-48657883D01*
X70078763Y-48539591D01*
X70053784Y-48414015D01*
X70053784Y-48285973D01*
X70078763Y-48160397D01*
X70127761Y-48042104D01*
X70198898Y-47935640D01*
X70289430Y-47845108D01*
X70328611Y-47818928D01*
X70347553Y-47803382D01*
X70363099Y-47784440D01*
X70374650Y-47762830D01*
X70381763Y-47739380D01*
X70384165Y-47714994D01*
X72801403Y-47714994D01*
X72803805Y-47739380D01*
X72810918Y-47762829D01*
X72822469Y-47784440D01*
X72838015Y-47803382D01*
X72856957Y-47818928D01*
X72896138Y-47845108D01*
X72986670Y-47935640D01*
X73057807Y-48042104D01*
X73106805Y-48160396D01*
X73121186Y-48232695D01*
X73128299Y-48256144D01*
X73139850Y-48277754D01*
X73155396Y-48296697D01*
X73174338Y-48312242D01*
X73195949Y-48323793D01*
X73219398Y-48330906D01*
X73243784Y-48333308D01*
X73268171Y-48330906D01*
X73291620Y-48323793D01*
X73313230Y-48312242D01*
X73332173Y-48296696D01*
X73347718Y-48277754D01*
X73359269Y-48256143D01*
X73366382Y-48232695D01*
X73380763Y-48160396D01*
X73429761Y-48042104D01*
X73500898Y-47935640D01*
X73591430Y-47845108D01*
X73630611Y-47818928D01*
X73649553Y-47803382D01*
X73665099Y-47784440D01*
X73676650Y-47762830D01*
X73683763Y-47739380D01*
X73686165Y-47714994D01*
X73683763Y-47690608D01*
X73676650Y-47667159D01*
X73665099Y-47645548D01*
X73649553Y-47626606D01*
X73630611Y-47611060D01*
X73591430Y-47584880D01*
X73500898Y-47494348D01*
X73429761Y-47387884D01*
X73380763Y-47269592D01*
X73366382Y-47197293D01*
X73359269Y-47173844D01*
X73347718Y-47152234D01*
X73332172Y-47133291D01*
X73313230Y-47117746D01*
X73291619Y-47106195D01*
X73268170Y-47099082D01*
X73243784Y-47096680D01*
X73219397Y-47099082D01*
X73195948Y-47106195D01*
X73174338Y-47117746D01*
X73155395Y-47133292D01*
X73139850Y-47152234D01*
X73128299Y-47173845D01*
X73121186Y-47197293D01*
X73106805Y-47269592D01*
X73057807Y-47387884D01*
X72986670Y-47494348D01*
X72896138Y-47584880D01*
X72856957Y-47611060D01*
X72838015Y-47626606D01*
X72822469Y-47645548D01*
X72810918Y-47667158D01*
X72803805Y-47690608D01*
X72801403Y-47714994D01*
X70384165Y-47714994D01*
X70381763Y-47690608D01*
X70374650Y-47667159D01*
X70363099Y-47645548D01*
X70347553Y-47626606D01*
X70328611Y-47611060D01*
X70289430Y-47584880D01*
X70198898Y-47494348D01*
X70127761Y-47387884D01*
X70078763Y-47269591D01*
X70053784Y-47144015D01*
X70053784Y-47015973D01*
X70078763Y-46890397D01*
X70127761Y-46772105D01*
X70172639Y-46704940D01*
X70184190Y-46683329D01*
X70191303Y-46659880D01*
X70193705Y-46635494D01*
X72991863Y-46635494D01*
X72994265Y-46659880D01*
X73001378Y-46683329D01*
X73012929Y-46704940D01*
X73057807Y-46772105D01*
X73106805Y-46890396D01*
X73121186Y-46962695D01*
X73128299Y-46986144D01*
X73139850Y-47007754D01*
X73155396Y-47026697D01*
X73174338Y-47042242D01*
X73195949Y-47053793D01*
X73219398Y-47060906D01*
X73243784Y-47063308D01*
X73268171Y-47060906D01*
X73291620Y-47053793D01*
X73313230Y-47042242D01*
X73332173Y-47026696D01*
X73347718Y-47007754D01*
X73359269Y-46986143D01*
X73366382Y-46962695D01*
X73380763Y-46890396D01*
X73429761Y-46772105D01*
X73474639Y-46704940D01*
X73486190Y-46683329D01*
X73493303Y-46659880D01*
X73495705Y-46635494D01*
X73493303Y-46611108D01*
X73486190Y-46587659D01*
X73474639Y-46566048D01*
X73429761Y-46498883D01*
X73380763Y-46380592D01*
X73366382Y-46308293D01*
X73359269Y-46284844D01*
X73347718Y-46263234D01*
X73332172Y-46244291D01*
X73313230Y-46228746D01*
X73291619Y-46217195D01*
X73268170Y-46210082D01*
X73243784Y-46207680D01*
X73219397Y-46210082D01*
X73195948Y-46217195D01*
X73174338Y-46228746D01*
X73155395Y-46244292D01*
X73139850Y-46263234D01*
X73128299Y-46284845D01*
X73121186Y-46308293D01*
X73106805Y-46380592D01*
X73057807Y-46498883D01*
X73012929Y-46566048D01*
X73001378Y-46587659D01*
X72994265Y-46611108D01*
X72991863Y-46635494D01*
X70193705Y-46635494D01*
X70191303Y-46611108D01*
X70184190Y-46587659D01*
X70172639Y-46566048D01*
X70127761Y-46498883D01*
X70085214Y-46396166D01*
X70078763Y-46380592D01*
X70059718Y-46284845D01*
X70053784Y-46255015D01*
X70053784Y-46126973D01*
X70078763Y-46001397D01*
X70127761Y-45883105D01*
X70172639Y-45815940D01*
X70184190Y-45794329D01*
X70191303Y-45770880D01*
X70193705Y-45746494D01*
X72991863Y-45746494D01*
X72994265Y-45770880D01*
X73001378Y-45794329D01*
X73012929Y-45815940D01*
X73057807Y-45883105D01*
X73106805Y-46001396D01*
X73121186Y-46073695D01*
X73128299Y-46097144D01*
X73139850Y-46118754D01*
X73155396Y-46137697D01*
X73174338Y-46153242D01*
X73195949Y-46164793D01*
X73219398Y-46171906D01*
X73243784Y-46174308D01*
X73268171Y-46171906D01*
X73291620Y-46164793D01*
X73313230Y-46153242D01*
X73332173Y-46137696D01*
X73347718Y-46118754D01*
X73359269Y-46097143D01*
X73366382Y-46073695D01*
X73380763Y-46001396D01*
X73429761Y-45883105D01*
X73474639Y-45815940D01*
X73486190Y-45794329D01*
X73493303Y-45770880D01*
X73495705Y-45746494D01*
X73493303Y-45722108D01*
X73486190Y-45698659D01*
X73474639Y-45677048D01*
X73429761Y-45609883D01*
X73380763Y-45491592D01*
X73366382Y-45419293D01*
X73359269Y-45395844D01*
X73347718Y-45374234D01*
X73332172Y-45355291D01*
X73313230Y-45339746D01*
X73291619Y-45328195D01*
X73268170Y-45321082D01*
X73243784Y-45318680D01*
X73219397Y-45321082D01*
X73195948Y-45328195D01*
X73174338Y-45339746D01*
X73155395Y-45355292D01*
X73139850Y-45374234D01*
X73128299Y-45395845D01*
X73121186Y-45419293D01*
X73106805Y-45491592D01*
X73057807Y-45609883D01*
X73012929Y-45677048D01*
X73001378Y-45698659D01*
X72994265Y-45722108D01*
X72991863Y-45746494D01*
X70193705Y-45746494D01*
X70191303Y-45722108D01*
X70184190Y-45698659D01*
X70172639Y-45677048D01*
X70127761Y-45609883D01*
X70078763Y-45491591D01*
X70053784Y-45366015D01*
X70053784Y-45237973D01*
X70073907Y-45136807D01*
X70078763Y-45112396D01*
X70093521Y-45076767D01*
X70127761Y-44994104D01*
X70198898Y-44887640D01*
X70289430Y-44797108D01*
X70395894Y-44725971D01*
X70487152Y-44688171D01*
X70514186Y-44676973D01*
X70556046Y-44668647D01*
X70639763Y-44651994D01*
X70767805Y-44651994D01*
X70851522Y-44668647D01*
X70851522Y-44668647D01*
G37*
G36*
X86869707Y-48106597D02*
X86946836Y-48114193D01*
X87078787Y-48154220D01*
X87144763Y-48174233D01*
X87327172Y-48271733D01*
X87487054Y-48402946D01*
X87618267Y-48562828D01*
X87715767Y-48745237D01*
X87715767Y-48745238D01*
X87775807Y-48943164D01*
X87796080Y-49149000D01*
X87775807Y-49354836D01*
X87743585Y-49461057D01*
X87715767Y-49552763D01*
X87618267Y-49735172D01*
X87487054Y-49895054D01*
X87327172Y-50026267D01*
X87144763Y-50123767D01*
X87101775Y-50136807D01*
X86946836Y-50183807D01*
X86869707Y-50191404D01*
X86792580Y-50199000D01*
X86689420Y-50199000D01*
X86612293Y-50191404D01*
X86535164Y-50183807D01*
X86380225Y-50136807D01*
X86337237Y-50123767D01*
X86154828Y-50026267D01*
X85994946Y-49895054D01*
X85863733Y-49735172D01*
X85766233Y-49552763D01*
X85738415Y-49461057D01*
X85706193Y-49354836D01*
X85685920Y-49149000D01*
X85706193Y-48943164D01*
X85766233Y-48745238D01*
X85766233Y-48745237D01*
X85863733Y-48562828D01*
X85994946Y-48402946D01*
X86154828Y-48271733D01*
X86337237Y-48174233D01*
X86403213Y-48154220D01*
X86535164Y-48114193D01*
X86612293Y-48106597D01*
X86689420Y-48099000D01*
X86792580Y-48099000D01*
X86869707Y-48106597D01*
X86869707Y-48106597D01*
G37*
G36*
X89915707Y-48059597D02*
X89992836Y-48067193D01*
X90097690Y-48099000D01*
X90190763Y-48127233D01*
X90373172Y-48224733D01*
X90533054Y-48355946D01*
X90664267Y-48515828D01*
X90761767Y-48698237D01*
X90776024Y-48745237D01*
X90821807Y-48896164D01*
X90842080Y-49102000D01*
X90821807Y-49307836D01*
X90785176Y-49428591D01*
X90761767Y-49505763D01*
X90664267Y-49688172D01*
X90533054Y-49848054D01*
X90373172Y-49979267D01*
X90190763Y-50076767D01*
X90146341Y-50090242D01*
X89992836Y-50136807D01*
X89915707Y-50144404D01*
X89838580Y-50152000D01*
X89485420Y-50152000D01*
X89408293Y-50144403D01*
X89331164Y-50136807D01*
X89177659Y-50090242D01*
X89133237Y-50076767D01*
X88950828Y-49979267D01*
X88790946Y-49848054D01*
X88659733Y-49688172D01*
X88562233Y-49505763D01*
X88538824Y-49428591D01*
X88502193Y-49307836D01*
X88481920Y-49102000D01*
X88502193Y-48896164D01*
X88547976Y-48745237D01*
X88562233Y-48698237D01*
X88659733Y-48515828D01*
X88790946Y-48355946D01*
X88950828Y-48224733D01*
X89133237Y-48127233D01*
X89226310Y-48099000D01*
X89331164Y-48067193D01*
X89408293Y-48059596D01*
X89485420Y-48052000D01*
X89838580Y-48052000D01*
X89915707Y-48059597D01*
X89915707Y-48059597D01*
G37*
G36*
X86869707Y-45566596D02*
X86946836Y-45574193D01*
X87064494Y-45609884D01*
X87144763Y-45634233D01*
X87327172Y-45731733D01*
X87487054Y-45862946D01*
X87618267Y-46022828D01*
X87715767Y-46205237D01*
X87719394Y-46217195D01*
X87775807Y-46403164D01*
X87796080Y-46609000D01*
X87775807Y-46814836D01*
X87775449Y-46816015D01*
X87715767Y-47012763D01*
X87618267Y-47195172D01*
X87487054Y-47355054D01*
X87327172Y-47486267D01*
X87144763Y-47583767D01*
X87078787Y-47603780D01*
X86946836Y-47643807D01*
X86869707Y-47651403D01*
X86792580Y-47659000D01*
X86689420Y-47659000D01*
X86612293Y-47651404D01*
X86535164Y-47643807D01*
X86403213Y-47603780D01*
X86337237Y-47583767D01*
X86154828Y-47486267D01*
X85994946Y-47355054D01*
X85863733Y-47195172D01*
X85766233Y-47012763D01*
X85706551Y-46816015D01*
X85706193Y-46814836D01*
X85685920Y-46609000D01*
X85706193Y-46403164D01*
X85762606Y-46217195D01*
X85766233Y-46205237D01*
X85863733Y-46022828D01*
X85994946Y-45862946D01*
X86154828Y-45731733D01*
X86337237Y-45634233D01*
X86417506Y-45609884D01*
X86535164Y-45574193D01*
X86612293Y-45566596D01*
X86689420Y-45559000D01*
X86792580Y-45559000D01*
X86869707Y-45566596D01*
X86869707Y-45566596D01*
G37*
G36*
X89909651Y-45559000D02*
X89992836Y-45567193D01*
X90124787Y-45607220D01*
X90190763Y-45627233D01*
X90373172Y-45724733D01*
X90533054Y-45855946D01*
X90664267Y-46015828D01*
X90761767Y-46198237D01*
X90775737Y-46244291D01*
X90821807Y-46396164D01*
X90842080Y-46602000D01*
X90821807Y-46807836D01*
X90796763Y-46890396D01*
X90761767Y-47005763D01*
X90664267Y-47188172D01*
X90533054Y-47348054D01*
X90373172Y-47479267D01*
X90190763Y-47576767D01*
X90124787Y-47596780D01*
X89992836Y-47636807D01*
X89921763Y-47643807D01*
X89838580Y-47652000D01*
X89485420Y-47652000D01*
X89402237Y-47643807D01*
X89331164Y-47636807D01*
X89199213Y-47596780D01*
X89133237Y-47576767D01*
X88950828Y-47479267D01*
X88790946Y-47348054D01*
X88659733Y-47188172D01*
X88562233Y-47005763D01*
X88527237Y-46890396D01*
X88502193Y-46807836D01*
X88481920Y-46602000D01*
X88502193Y-46396164D01*
X88548263Y-46244291D01*
X88562233Y-46198237D01*
X88659733Y-46015828D01*
X88790946Y-45855946D01*
X88950828Y-45724733D01*
X89133237Y-45627233D01*
X89199213Y-45607220D01*
X89331164Y-45567193D01*
X89414349Y-45559000D01*
X89485420Y-45552000D01*
X89838580Y-45552000D01*
X89909651Y-45559000D01*
X89909651Y-45559000D01*
G37*
G36*
X77645012Y-44889057D02*
X77754207Y-44934287D01*
X77852481Y-44999952D01*
X77936048Y-45083519D01*
X78001713Y-45181793D01*
X78046943Y-45290988D01*
X78070000Y-45406904D01*
X78070000Y-45525096D01*
X78046943Y-45641012D01*
X78001713Y-45750207D01*
X77936048Y-45848481D01*
X77852481Y-45932048D01*
X77754207Y-45997713D01*
X77645012Y-46042943D01*
X77529096Y-46066000D01*
X77410904Y-46066000D01*
X77294988Y-46042943D01*
X77185793Y-45997713D01*
X77087519Y-45932048D01*
X77003952Y-45848481D01*
X76938287Y-45750207D01*
X76893057Y-45641012D01*
X76870000Y-45525096D01*
X76870000Y-45406904D01*
X76893057Y-45290988D01*
X76938287Y-45181793D01*
X77003952Y-45083519D01*
X77087519Y-44999952D01*
X77185793Y-44934287D01*
X77294988Y-44889057D01*
X77410904Y-44866000D01*
X77529096Y-44866000D01*
X77645012Y-44889057D01*
X77645012Y-44889057D01*
G37*
G36*
X89915707Y-43059596D02*
X89992836Y-43067193D01*
X90081975Y-43094233D01*
X90190763Y-43127233D01*
X90373172Y-43224733D01*
X90533054Y-43355946D01*
X90664267Y-43515828D01*
X90761767Y-43698237D01*
X90761767Y-43698238D01*
X90821807Y-43896164D01*
X90842080Y-44102000D01*
X90821807Y-44307836D01*
X90781780Y-44439787D01*
X90761767Y-44505763D01*
X90664267Y-44688172D01*
X90533054Y-44848054D01*
X90373172Y-44979267D01*
X90190763Y-45076767D01*
X90168504Y-45083519D01*
X89992836Y-45136807D01*
X89915707Y-45144403D01*
X89838580Y-45152000D01*
X89485420Y-45152000D01*
X89408293Y-45144403D01*
X89331164Y-45136807D01*
X89155496Y-45083519D01*
X89133237Y-45076767D01*
X88950828Y-44979267D01*
X88790946Y-44848054D01*
X88659733Y-44688172D01*
X88562233Y-44505763D01*
X88542220Y-44439787D01*
X88502193Y-44307836D01*
X88481920Y-44102000D01*
X88502193Y-43896164D01*
X88562233Y-43698238D01*
X88562233Y-43698237D01*
X88659733Y-43515828D01*
X88790946Y-43355946D01*
X88950828Y-43224733D01*
X89133237Y-43127233D01*
X89242025Y-43094233D01*
X89331164Y-43067193D01*
X89408293Y-43059596D01*
X89485420Y-43052000D01*
X89838580Y-43052000D01*
X89915707Y-43059596D01*
X89915707Y-43059596D01*
G37*
G36*
X86869707Y-43026596D02*
X86946836Y-43034193D01*
X87078787Y-43074220D01*
X87144763Y-43094233D01*
X87327172Y-43191733D01*
X87487054Y-43322946D01*
X87618267Y-43482828D01*
X87715767Y-43665237D01*
X87735780Y-43731213D01*
X87775807Y-43863164D01*
X87796080Y-44069000D01*
X87775807Y-44274836D01*
X87735780Y-44406787D01*
X87715767Y-44472763D01*
X87618267Y-44655172D01*
X87487054Y-44815054D01*
X87327172Y-44946267D01*
X87144763Y-45043767D01*
X87078787Y-45063780D01*
X86946836Y-45103807D01*
X86869707Y-45111404D01*
X86792580Y-45119000D01*
X86689420Y-45119000D01*
X86612293Y-45111404D01*
X86535164Y-45103807D01*
X86403213Y-45063780D01*
X86337237Y-45043767D01*
X86154828Y-44946267D01*
X85994946Y-44815054D01*
X85863733Y-44655172D01*
X85766233Y-44472763D01*
X85746220Y-44406787D01*
X85706193Y-44274836D01*
X85685920Y-44069000D01*
X85706193Y-43863164D01*
X85746220Y-43731213D01*
X85766233Y-43665237D01*
X85863733Y-43482828D01*
X85994946Y-43322946D01*
X86154828Y-43191733D01*
X86337237Y-43094233D01*
X86403213Y-43074220D01*
X86535164Y-43034193D01*
X86612293Y-43026596D01*
X86689420Y-43019000D01*
X86792580Y-43019000D01*
X86869707Y-43026596D01*
X86869707Y-43026596D01*
G37*
G36*
X56008707Y-42137596D02*
X56085836Y-42145193D01*
X56217787Y-42185220D01*
X56283763Y-42205233D01*
X56466172Y-42302733D01*
X56626054Y-42433946D01*
X56757267Y-42593828D01*
X56854767Y-42776237D01*
X56854767Y-42776238D01*
X56914807Y-42974164D01*
X56935080Y-43180000D01*
X56914807Y-43385836D01*
X56875374Y-43515828D01*
X56854767Y-43583763D01*
X56757267Y-43766172D01*
X56626054Y-43926054D01*
X56466172Y-44057267D01*
X56283763Y-44154767D01*
X56217787Y-44174780D01*
X56085836Y-44214807D01*
X56008707Y-44222404D01*
X55931580Y-44230000D01*
X55828420Y-44230000D01*
X55751293Y-44222404D01*
X55674164Y-44214807D01*
X55542213Y-44174780D01*
X55476237Y-44154767D01*
X55293828Y-44057267D01*
X55133946Y-43926054D01*
X55002733Y-43766172D01*
X54905233Y-43583763D01*
X54884626Y-43515828D01*
X54845193Y-43385836D01*
X54824920Y-43180000D01*
X54845193Y-42974164D01*
X54905233Y-42776238D01*
X54905233Y-42776237D01*
X55002733Y-42593828D01*
X55133946Y-42433946D01*
X55293828Y-42302733D01*
X55476237Y-42205233D01*
X55542213Y-42185220D01*
X55674164Y-42145193D01*
X55751293Y-42137596D01*
X55828420Y-42130000D01*
X55931580Y-42130000D01*
X56008707Y-42137596D01*
X56008707Y-42137596D01*
G37*
G36*
X51850000Y-44230000D02*
X49750000Y-44230000D01*
X49750000Y-42130000D01*
X51850000Y-42130000D01*
X51850000Y-44230000D01*
X51850000Y-44230000D01*
G37*
G36*
X53468707Y-42137596D02*
X53545836Y-42145193D01*
X53677787Y-42185220D01*
X53743763Y-42205233D01*
X53926172Y-42302733D01*
X54086054Y-42433946D01*
X54217267Y-42593828D01*
X54314767Y-42776237D01*
X54314767Y-42776238D01*
X54374807Y-42974164D01*
X54395080Y-43180000D01*
X54374807Y-43385836D01*
X54335374Y-43515828D01*
X54314767Y-43583763D01*
X54217267Y-43766172D01*
X54086054Y-43926054D01*
X53926172Y-44057267D01*
X53743763Y-44154767D01*
X53677787Y-44174780D01*
X53545836Y-44214807D01*
X53468707Y-44222404D01*
X53391580Y-44230000D01*
X53288420Y-44230000D01*
X53211293Y-44222404D01*
X53134164Y-44214807D01*
X53002213Y-44174780D01*
X52936237Y-44154767D01*
X52753828Y-44057267D01*
X52593946Y-43926054D01*
X52462733Y-43766172D01*
X52365233Y-43583763D01*
X52344626Y-43515828D01*
X52305193Y-43385836D01*
X52284920Y-43180000D01*
X52305193Y-42974164D01*
X52365233Y-42776238D01*
X52365233Y-42776237D01*
X52462733Y-42593828D01*
X52593946Y-42433946D01*
X52753828Y-42302733D01*
X52936237Y-42205233D01*
X53002213Y-42185220D01*
X53134164Y-42145193D01*
X53211293Y-42137596D01*
X53288420Y-42130000D01*
X53391580Y-42130000D01*
X53468707Y-42137596D01*
X53468707Y-42137596D01*
G37*
G36*
X58548707Y-42137596D02*
X58625836Y-42145193D01*
X58757787Y-42185220D01*
X58823763Y-42205233D01*
X59006172Y-42302733D01*
X59166054Y-42433946D01*
X59297267Y-42593828D01*
X59394767Y-42776237D01*
X59394767Y-42776238D01*
X59454807Y-42974164D01*
X59475080Y-43180000D01*
X59454807Y-43385836D01*
X59415374Y-43515828D01*
X59394767Y-43583763D01*
X59297267Y-43766172D01*
X59166054Y-43926054D01*
X59006172Y-44057267D01*
X58823763Y-44154767D01*
X58757787Y-44174780D01*
X58625836Y-44214807D01*
X58548707Y-44222404D01*
X58471580Y-44230000D01*
X58368420Y-44230000D01*
X58291293Y-44222404D01*
X58214164Y-44214807D01*
X58082213Y-44174780D01*
X58016237Y-44154767D01*
X57833828Y-44057267D01*
X57673946Y-43926054D01*
X57542733Y-43766172D01*
X57445233Y-43583763D01*
X57424626Y-43515828D01*
X57385193Y-43385836D01*
X57364920Y-43180000D01*
X57385193Y-42974164D01*
X57445233Y-42776238D01*
X57445233Y-42776237D01*
X57542733Y-42593828D01*
X57673946Y-42433946D01*
X57833828Y-42302733D01*
X58016237Y-42205233D01*
X58082213Y-42185220D01*
X58214164Y-42145193D01*
X58291293Y-42137596D01*
X58368420Y-42130000D01*
X58471580Y-42130000D01*
X58548707Y-42137596D01*
X58548707Y-42137596D01*
G37*
G36*
X79735352Y-41997743D02*
X79880941Y-42058048D01*
X80011973Y-42145601D01*
X80123399Y-42257027D01*
X80210952Y-42388059D01*
X80271257Y-42533648D01*
X80302000Y-42688205D01*
X80302000Y-42845795D01*
X80271257Y-43000352D01*
X80210952Y-43145941D01*
X80123399Y-43276973D01*
X80011973Y-43388399D01*
X79880941Y-43475952D01*
X79735352Y-43536257D01*
X79580795Y-43567000D01*
X79423205Y-43567000D01*
X79268648Y-43536257D01*
X79123059Y-43475952D01*
X78992027Y-43388399D01*
X78880601Y-43276973D01*
X78793048Y-43145941D01*
X78732743Y-43000352D01*
X78702000Y-42845795D01*
X78702000Y-42688205D01*
X78732743Y-42533648D01*
X78793048Y-42388059D01*
X78880601Y-42257027D01*
X78992027Y-42145601D01*
X79123059Y-42058048D01*
X79268648Y-41997743D01*
X79423205Y-41967000D01*
X79580795Y-41967000D01*
X79735352Y-41997743D01*
X79735352Y-41997743D01*
G37*
G36*
X89915707Y-40559596D02*
X89992836Y-40567193D01*
X90124787Y-40607220D01*
X90190763Y-40627233D01*
X90373172Y-40724733D01*
X90533054Y-40855946D01*
X90664267Y-41015828D01*
X90761767Y-41198237D01*
X90761767Y-41198238D01*
X90821807Y-41396164D01*
X90842080Y-41602000D01*
X90821807Y-41807836D01*
X90783911Y-41932762D01*
X90761767Y-42005763D01*
X90664267Y-42188172D01*
X90533054Y-42348054D01*
X90373172Y-42479267D01*
X90190763Y-42576767D01*
X90134519Y-42593828D01*
X89992836Y-42636807D01*
X89915707Y-42644404D01*
X89838580Y-42652000D01*
X89485420Y-42652000D01*
X89408293Y-42644404D01*
X89331164Y-42636807D01*
X89189481Y-42593828D01*
X89133237Y-42576767D01*
X88950828Y-42479267D01*
X88790946Y-42348054D01*
X88659733Y-42188172D01*
X88562233Y-42005763D01*
X88540089Y-41932762D01*
X88502193Y-41807836D01*
X88481920Y-41602000D01*
X88502193Y-41396164D01*
X88562233Y-41198238D01*
X88562233Y-41198237D01*
X88659733Y-41015828D01*
X88790946Y-40855946D01*
X88950828Y-40724733D01*
X89133237Y-40627233D01*
X89199213Y-40607220D01*
X89331164Y-40567193D01*
X89408293Y-40559596D01*
X89485420Y-40552000D01*
X89838580Y-40552000D01*
X89915707Y-40559596D01*
X89915707Y-40559596D01*
G37*
G36*
X86869707Y-40486597D02*
X86946836Y-40494193D01*
X87078787Y-40534220D01*
X87144763Y-40554233D01*
X87327172Y-40651733D01*
X87487054Y-40782946D01*
X87618267Y-40942828D01*
X87715767Y-41125237D01*
X87715767Y-41125238D01*
X87775807Y-41323164D01*
X87796080Y-41529000D01*
X87775807Y-41734836D01*
X87735780Y-41866787D01*
X87715767Y-41932763D01*
X87618267Y-42115172D01*
X87487054Y-42275054D01*
X87327172Y-42406267D01*
X87144763Y-42503767D01*
X87078787Y-42523780D01*
X86946836Y-42563807D01*
X86869707Y-42571404D01*
X86792580Y-42579000D01*
X86689420Y-42579000D01*
X86612293Y-42571404D01*
X86535164Y-42563807D01*
X86403213Y-42523780D01*
X86337237Y-42503767D01*
X86154828Y-42406267D01*
X85994946Y-42275054D01*
X85863733Y-42115172D01*
X85766233Y-41932763D01*
X85746220Y-41866787D01*
X85706193Y-41734836D01*
X85685920Y-41529000D01*
X85706193Y-41323164D01*
X85766233Y-41125238D01*
X85766233Y-41125237D01*
X85863733Y-40942828D01*
X85994946Y-40782946D01*
X86154828Y-40651733D01*
X86337237Y-40554233D01*
X86403213Y-40534220D01*
X86535164Y-40494193D01*
X86612293Y-40486597D01*
X86689420Y-40479000D01*
X86792580Y-40479000D01*
X86869707Y-40486597D01*
X86869707Y-40486597D01*
G37*
G36*
X80302000Y-41567000D02*
X78702000Y-41567000D01*
X78702000Y-39967000D01*
X80302000Y-39967000D01*
X80302000Y-41567000D01*
X80302000Y-41567000D01*
G37*
G36*
X58548707Y-39470597D02*
X58625836Y-39478193D01*
X58757787Y-39518220D01*
X58823763Y-39538233D01*
X59006172Y-39635733D01*
X59166054Y-39766946D01*
X59297267Y-39926828D01*
X59394767Y-40109237D01*
X59394767Y-40109238D01*
X59454807Y-40307164D01*
X59475080Y-40513000D01*
X59454807Y-40718836D01*
X59414780Y-40850787D01*
X59394767Y-40916763D01*
X59297267Y-41099172D01*
X59166054Y-41259054D01*
X59006172Y-41390267D01*
X58823763Y-41487767D01*
X58757787Y-41507780D01*
X58625836Y-41547807D01*
X58548707Y-41555404D01*
X58471580Y-41563000D01*
X58368420Y-41563000D01*
X58291293Y-41555404D01*
X58214164Y-41547807D01*
X58082213Y-41507780D01*
X58016237Y-41487767D01*
X57833828Y-41390267D01*
X57673946Y-41259054D01*
X57542733Y-41099172D01*
X57445233Y-40916763D01*
X57425220Y-40850787D01*
X57385193Y-40718836D01*
X57364920Y-40513000D01*
X57385193Y-40307164D01*
X57445233Y-40109238D01*
X57445233Y-40109237D01*
X57542733Y-39926828D01*
X57673946Y-39766946D01*
X57833828Y-39635733D01*
X58016237Y-39538233D01*
X58082213Y-39518220D01*
X58214164Y-39478193D01*
X58291293Y-39470597D01*
X58368420Y-39463000D01*
X58471580Y-39463000D01*
X58548707Y-39470597D01*
X58548707Y-39470597D01*
G37*
G36*
X51850000Y-41563000D02*
X49750000Y-41563000D01*
X49750000Y-39463000D01*
X51850000Y-39463000D01*
X51850000Y-41563000D01*
X51850000Y-41563000D01*
G37*
G36*
X53468707Y-39470597D02*
X53545836Y-39478193D01*
X53677787Y-39518220D01*
X53743763Y-39538233D01*
X53926172Y-39635733D01*
X54086054Y-39766946D01*
X54217267Y-39926828D01*
X54314767Y-40109237D01*
X54314767Y-40109238D01*
X54374807Y-40307164D01*
X54395080Y-40513000D01*
X54374807Y-40718836D01*
X54334780Y-40850787D01*
X54314767Y-40916763D01*
X54217267Y-41099172D01*
X54086054Y-41259054D01*
X53926172Y-41390267D01*
X53743763Y-41487767D01*
X53677787Y-41507780D01*
X53545836Y-41547807D01*
X53468707Y-41555404D01*
X53391580Y-41563000D01*
X53288420Y-41563000D01*
X53211293Y-41555404D01*
X53134164Y-41547807D01*
X53002213Y-41507780D01*
X52936237Y-41487767D01*
X52753828Y-41390267D01*
X52593946Y-41259054D01*
X52462733Y-41099172D01*
X52365233Y-40916763D01*
X52345220Y-40850787D01*
X52305193Y-40718836D01*
X52284920Y-40513000D01*
X52305193Y-40307164D01*
X52365233Y-40109238D01*
X52365233Y-40109237D01*
X52462733Y-39926828D01*
X52593946Y-39766946D01*
X52753828Y-39635733D01*
X52936237Y-39538233D01*
X53002213Y-39518220D01*
X53134164Y-39478193D01*
X53211293Y-39470597D01*
X53288420Y-39463000D01*
X53391580Y-39463000D01*
X53468707Y-39470597D01*
X53468707Y-39470597D01*
G37*
G36*
X56008707Y-39470597D02*
X56085836Y-39478193D01*
X56217787Y-39518220D01*
X56283763Y-39538233D01*
X56466172Y-39635733D01*
X56626054Y-39766946D01*
X56757267Y-39926828D01*
X56854767Y-40109237D01*
X56854767Y-40109238D01*
X56914807Y-40307164D01*
X56935080Y-40513000D01*
X56914807Y-40718836D01*
X56874780Y-40850787D01*
X56854767Y-40916763D01*
X56757267Y-41099172D01*
X56626054Y-41259054D01*
X56466172Y-41390267D01*
X56283763Y-41487767D01*
X56217787Y-41507780D01*
X56085836Y-41547807D01*
X56008707Y-41555404D01*
X55931580Y-41563000D01*
X55828420Y-41563000D01*
X55751293Y-41555404D01*
X55674164Y-41547807D01*
X55542213Y-41507780D01*
X55476237Y-41487767D01*
X55293828Y-41390267D01*
X55133946Y-41259054D01*
X55002733Y-41099172D01*
X54905233Y-40916763D01*
X54885220Y-40850787D01*
X54845193Y-40718836D01*
X54824920Y-40513000D01*
X54845193Y-40307164D01*
X54905233Y-40109238D01*
X54905233Y-40109237D01*
X55002733Y-39926828D01*
X55133946Y-39766946D01*
X55293828Y-39635733D01*
X55476237Y-39538233D01*
X55542213Y-39518220D01*
X55674164Y-39478193D01*
X55751293Y-39470597D01*
X55828420Y-39463000D01*
X55931580Y-39463000D01*
X56008707Y-39470597D01*
X56008707Y-39470597D01*
G37*
G36*
X66596012Y-39174057D02*
X66705207Y-39219287D01*
X66803481Y-39284952D01*
X66887048Y-39368519D01*
X66952713Y-39466793D01*
X66997943Y-39575988D01*
X67021000Y-39691904D01*
X67021000Y-39810096D01*
X66997943Y-39926012D01*
X66952713Y-40035207D01*
X66887048Y-40133481D01*
X66803481Y-40217048D01*
X66705207Y-40282713D01*
X66596012Y-40327943D01*
X66480096Y-40351000D01*
X66361904Y-40351000D01*
X66245988Y-40327943D01*
X66136793Y-40282713D01*
X66038519Y-40217048D01*
X65954952Y-40133481D01*
X65889287Y-40035207D01*
X65844057Y-39926012D01*
X65821000Y-39810096D01*
X65821000Y-39691904D01*
X65844057Y-39575988D01*
X65889287Y-39466793D01*
X65954952Y-39368519D01*
X66038519Y-39284952D01*
X66136793Y-39219287D01*
X66245988Y-39174057D01*
X66361904Y-39151000D01*
X66480096Y-39151000D01*
X66596012Y-39174057D01*
X66596012Y-39174057D01*
G37*
G36*
X51737012Y-38031057D02*
X51846207Y-38076287D01*
X51944481Y-38141952D01*
X52028048Y-38225519D01*
X52093713Y-38323793D01*
X52138943Y-38432988D01*
X52162000Y-38548904D01*
X52162000Y-38667096D01*
X52138943Y-38783012D01*
X52093713Y-38892207D01*
X52028048Y-38990481D01*
X51944481Y-39074048D01*
X51846207Y-39139713D01*
X51737012Y-39184943D01*
X51621096Y-39208000D01*
X51502904Y-39208000D01*
X51386988Y-39184943D01*
X51277793Y-39139713D01*
X51179519Y-39074048D01*
X51095952Y-38990481D01*
X51030287Y-38892207D01*
X50985057Y-38783012D01*
X50962000Y-38667096D01*
X50962000Y-38548904D01*
X50985057Y-38432988D01*
X51030287Y-38323793D01*
X51095952Y-38225519D01*
X51179519Y-38141952D01*
X51277793Y-38076287D01*
X51386988Y-38031057D01*
X51502904Y-38008000D01*
X51621096Y-38008000D01*
X51737012Y-38031057D01*
X51737012Y-38031057D01*
G37*
G36*
X81408707Y-36676596D02*
X81485836Y-36684193D01*
X81617787Y-36724220D01*
X81683763Y-36744233D01*
X81866172Y-36841733D01*
X82026054Y-36972946D01*
X82157267Y-37132828D01*
X82254767Y-37315237D01*
X82254767Y-37315238D01*
X82314807Y-37513164D01*
X82335080Y-37719000D01*
X82314807Y-37924836D01*
X82282585Y-38031057D01*
X82254767Y-38122763D01*
X82157267Y-38305172D01*
X82026054Y-38465054D01*
X81866172Y-38596267D01*
X81683763Y-38693767D01*
X81617787Y-38713780D01*
X81485836Y-38753807D01*
X81408707Y-38761403D01*
X81331580Y-38769000D01*
X81228420Y-38769000D01*
X81151293Y-38761403D01*
X81074164Y-38753807D01*
X80942213Y-38713780D01*
X80876237Y-38693767D01*
X80693828Y-38596267D01*
X80533946Y-38465054D01*
X80402733Y-38305172D01*
X80305233Y-38122763D01*
X80277415Y-38031057D01*
X80245193Y-37924836D01*
X80224920Y-37719000D01*
X80245193Y-37513164D01*
X80305233Y-37315238D01*
X80305233Y-37315237D01*
X80402733Y-37132828D01*
X80533946Y-36972946D01*
X80693828Y-36841733D01*
X80876237Y-36744233D01*
X80942213Y-36724220D01*
X81074164Y-36684193D01*
X81151293Y-36676596D01*
X81228420Y-36669000D01*
X81331580Y-36669000D01*
X81408707Y-36676596D01*
X81408707Y-36676596D01*
G37*
G36*
X83948707Y-36676596D02*
X84025836Y-36684193D01*
X84157787Y-36724220D01*
X84223763Y-36744233D01*
X84406172Y-36841733D01*
X84566054Y-36972946D01*
X84697267Y-37132828D01*
X84794767Y-37315237D01*
X84794767Y-37315238D01*
X84854807Y-37513164D01*
X84875080Y-37719000D01*
X84854807Y-37924836D01*
X84822585Y-38031057D01*
X84794767Y-38122763D01*
X84697267Y-38305172D01*
X84566054Y-38465054D01*
X84406172Y-38596267D01*
X84223763Y-38693767D01*
X84157787Y-38713780D01*
X84025836Y-38753807D01*
X83948707Y-38761403D01*
X83871580Y-38769000D01*
X83768420Y-38769000D01*
X83691293Y-38761403D01*
X83614164Y-38753807D01*
X83482213Y-38713780D01*
X83416237Y-38693767D01*
X83233828Y-38596267D01*
X83073946Y-38465054D01*
X82942733Y-38305172D01*
X82845233Y-38122763D01*
X82817415Y-38031057D01*
X82785193Y-37924836D01*
X82764920Y-37719000D01*
X82785193Y-37513164D01*
X82845233Y-37315238D01*
X82845233Y-37315237D01*
X82942733Y-37132828D01*
X83073946Y-36972946D01*
X83233828Y-36841733D01*
X83416237Y-36744233D01*
X83482213Y-36724220D01*
X83614164Y-36684193D01*
X83691293Y-36676596D01*
X83768420Y-36669000D01*
X83871580Y-36669000D01*
X83948707Y-36676596D01*
X83948707Y-36676596D01*
G37*
G36*
X86488707Y-36676596D02*
X86565836Y-36684193D01*
X86697787Y-36724220D01*
X86763763Y-36744233D01*
X86946172Y-36841733D01*
X87106054Y-36972946D01*
X87237267Y-37132828D01*
X87334767Y-37315237D01*
X87334767Y-37315238D01*
X87394807Y-37513164D01*
X87415080Y-37719000D01*
X87394807Y-37924836D01*
X87362585Y-38031057D01*
X87334767Y-38122763D01*
X87237267Y-38305172D01*
X87106054Y-38465054D01*
X86946172Y-38596267D01*
X86763763Y-38693767D01*
X86697787Y-38713780D01*
X86565836Y-38753807D01*
X86488707Y-38761403D01*
X86411580Y-38769000D01*
X86308420Y-38769000D01*
X86231293Y-38761403D01*
X86154164Y-38753807D01*
X86022213Y-38713780D01*
X85956237Y-38693767D01*
X85773828Y-38596267D01*
X85613946Y-38465054D01*
X85482733Y-38305172D01*
X85385233Y-38122763D01*
X85357415Y-38031057D01*
X85325193Y-37924836D01*
X85304920Y-37719000D01*
X85325193Y-37513164D01*
X85385233Y-37315238D01*
X85385233Y-37315237D01*
X85482733Y-37132828D01*
X85613946Y-36972946D01*
X85773828Y-36841733D01*
X85956237Y-36744233D01*
X86022213Y-36724220D01*
X86154164Y-36684193D01*
X86231293Y-36676596D01*
X86308420Y-36669000D01*
X86411580Y-36669000D01*
X86488707Y-36676596D01*
X86488707Y-36676596D01*
G37*
G36*
X71248707Y-36676596D02*
X71325836Y-36684193D01*
X71457787Y-36724220D01*
X71523763Y-36744233D01*
X71706172Y-36841733D01*
X71866054Y-36972946D01*
X71997267Y-37132828D01*
X72094767Y-37315237D01*
X72094767Y-37315238D01*
X72154807Y-37513164D01*
X72175080Y-37719000D01*
X72154807Y-37924836D01*
X72122585Y-38031057D01*
X72094767Y-38122763D01*
X71997267Y-38305172D01*
X71866054Y-38465054D01*
X71706172Y-38596267D01*
X71523763Y-38693767D01*
X71457787Y-38713780D01*
X71325836Y-38753807D01*
X71248707Y-38761403D01*
X71171580Y-38769000D01*
X71068420Y-38769000D01*
X70991293Y-38761403D01*
X70914164Y-38753807D01*
X70782213Y-38713780D01*
X70716237Y-38693767D01*
X70533828Y-38596267D01*
X70373946Y-38465054D01*
X70242733Y-38305172D01*
X70145233Y-38122763D01*
X70117415Y-38031057D01*
X70085193Y-37924836D01*
X70064920Y-37719000D01*
X70085193Y-37513164D01*
X70145233Y-37315238D01*
X70145233Y-37315237D01*
X70242733Y-37132828D01*
X70373946Y-36972946D01*
X70533828Y-36841733D01*
X70716237Y-36744233D01*
X70782213Y-36724220D01*
X70914164Y-36684193D01*
X70991293Y-36676596D01*
X71068420Y-36669000D01*
X71171580Y-36669000D01*
X71248707Y-36676596D01*
X71248707Y-36676596D01*
G37*
G36*
X89950000Y-38769000D02*
X87850000Y-38769000D01*
X87850000Y-36669000D01*
X89950000Y-36669000D01*
X89950000Y-38769000D01*
X89950000Y-38769000D01*
G37*
G36*
X56008707Y-36676596D02*
X56085836Y-36684193D01*
X56217787Y-36724220D01*
X56283763Y-36744233D01*
X56466172Y-36841733D01*
X56626054Y-36972946D01*
X56757267Y-37132828D01*
X56854767Y-37315237D01*
X56854767Y-37315238D01*
X56914807Y-37513164D01*
X56935080Y-37719000D01*
X56914807Y-37924836D01*
X56882585Y-38031057D01*
X56854767Y-38122763D01*
X56757267Y-38305172D01*
X56626054Y-38465054D01*
X56466172Y-38596267D01*
X56283763Y-38693767D01*
X56217787Y-38713780D01*
X56085836Y-38753807D01*
X56008707Y-38761403D01*
X55931580Y-38769000D01*
X55828420Y-38769000D01*
X55751293Y-38761403D01*
X55674164Y-38753807D01*
X55542213Y-38713780D01*
X55476237Y-38693767D01*
X55293828Y-38596267D01*
X55133946Y-38465054D01*
X55002733Y-38305172D01*
X54905233Y-38122763D01*
X54877415Y-38031057D01*
X54845193Y-37924836D01*
X54824920Y-37719000D01*
X54845193Y-37513164D01*
X54905233Y-37315238D01*
X54905233Y-37315237D01*
X55002733Y-37132828D01*
X55133946Y-36972946D01*
X55293828Y-36841733D01*
X55476237Y-36744233D01*
X55542213Y-36724220D01*
X55674164Y-36684193D01*
X55751293Y-36676596D01*
X55828420Y-36669000D01*
X55931580Y-36669000D01*
X56008707Y-36676596D01*
X56008707Y-36676596D01*
G37*
G36*
X76328707Y-36676596D02*
X76405836Y-36684193D01*
X76537787Y-36724220D01*
X76603763Y-36744233D01*
X76786172Y-36841733D01*
X76946054Y-36972946D01*
X77077267Y-37132828D01*
X77174767Y-37315237D01*
X77174767Y-37315238D01*
X77234807Y-37513164D01*
X77255080Y-37719000D01*
X77234807Y-37924836D01*
X77202585Y-38031057D01*
X77174767Y-38122763D01*
X77077267Y-38305172D01*
X76946054Y-38465054D01*
X76786172Y-38596267D01*
X76603763Y-38693767D01*
X76537787Y-38713780D01*
X76405836Y-38753807D01*
X76328707Y-38761403D01*
X76251580Y-38769000D01*
X76148420Y-38769000D01*
X76071293Y-38761403D01*
X75994164Y-38753807D01*
X75862213Y-38713780D01*
X75796237Y-38693767D01*
X75613828Y-38596267D01*
X75453946Y-38465054D01*
X75322733Y-38305172D01*
X75225233Y-38122763D01*
X75197415Y-38031057D01*
X75165193Y-37924836D01*
X75144920Y-37719000D01*
X75165193Y-37513164D01*
X75225233Y-37315238D01*
X75225233Y-37315237D01*
X75322733Y-37132828D01*
X75453946Y-36972946D01*
X75613828Y-36841733D01*
X75796237Y-36744233D01*
X75862213Y-36724220D01*
X75994164Y-36684193D01*
X76071293Y-36676596D01*
X76148420Y-36669000D01*
X76251580Y-36669000D01*
X76328707Y-36676596D01*
X76328707Y-36676596D01*
G37*
G36*
X73788707Y-36676596D02*
X73865836Y-36684193D01*
X73997787Y-36724220D01*
X74063763Y-36744233D01*
X74246172Y-36841733D01*
X74406054Y-36972946D01*
X74537267Y-37132828D01*
X74634767Y-37315237D01*
X74634767Y-37315238D01*
X74694807Y-37513164D01*
X74715080Y-37719000D01*
X74694807Y-37924836D01*
X74662585Y-38031057D01*
X74634767Y-38122763D01*
X74537267Y-38305172D01*
X74406054Y-38465054D01*
X74246172Y-38596267D01*
X74063763Y-38693767D01*
X73997787Y-38713780D01*
X73865836Y-38753807D01*
X73788707Y-38761403D01*
X73711580Y-38769000D01*
X73608420Y-38769000D01*
X73531293Y-38761403D01*
X73454164Y-38753807D01*
X73322213Y-38713780D01*
X73256237Y-38693767D01*
X73073828Y-38596267D01*
X72913946Y-38465054D01*
X72782733Y-38305172D01*
X72685233Y-38122763D01*
X72657415Y-38031057D01*
X72625193Y-37924836D01*
X72604920Y-37719000D01*
X72625193Y-37513164D01*
X72685233Y-37315238D01*
X72685233Y-37315237D01*
X72782733Y-37132828D01*
X72913946Y-36972946D01*
X73073828Y-36841733D01*
X73256237Y-36744233D01*
X73322213Y-36724220D01*
X73454164Y-36684193D01*
X73531293Y-36676596D01*
X73608420Y-36669000D01*
X73711580Y-36669000D01*
X73788707Y-36676596D01*
X73788707Y-36676596D01*
G37*
G36*
X68708707Y-36676596D02*
X68785836Y-36684193D01*
X68917787Y-36724220D01*
X68983763Y-36744233D01*
X69166172Y-36841733D01*
X69326054Y-36972946D01*
X69457267Y-37132828D01*
X69554767Y-37315237D01*
X69554767Y-37315238D01*
X69614807Y-37513164D01*
X69635080Y-37719000D01*
X69614807Y-37924836D01*
X69582585Y-38031057D01*
X69554767Y-38122763D01*
X69457267Y-38305172D01*
X69326054Y-38465054D01*
X69166172Y-38596267D01*
X68983763Y-38693767D01*
X68917787Y-38713780D01*
X68785836Y-38753807D01*
X68708707Y-38761403D01*
X68631580Y-38769000D01*
X68528420Y-38769000D01*
X68451293Y-38761403D01*
X68374164Y-38753807D01*
X68242213Y-38713780D01*
X68176237Y-38693767D01*
X67993828Y-38596267D01*
X67833946Y-38465054D01*
X67702733Y-38305172D01*
X67605233Y-38122763D01*
X67577415Y-38031057D01*
X67545193Y-37924836D01*
X67524920Y-37719000D01*
X67545193Y-37513164D01*
X67605233Y-37315238D01*
X67605233Y-37315237D01*
X67702733Y-37132828D01*
X67833946Y-36972946D01*
X67993828Y-36841733D01*
X68176237Y-36744233D01*
X68242213Y-36724220D01*
X68374164Y-36684193D01*
X68451293Y-36676596D01*
X68528420Y-36669000D01*
X68631580Y-36669000D01*
X68708707Y-36676596D01*
X68708707Y-36676596D01*
G37*
G36*
X66168707Y-36676596D02*
X66245836Y-36684193D01*
X66377787Y-36724220D01*
X66443763Y-36744233D01*
X66626172Y-36841733D01*
X66786054Y-36972946D01*
X66917267Y-37132828D01*
X67014767Y-37315237D01*
X67014767Y-37315238D01*
X67074807Y-37513164D01*
X67095080Y-37719000D01*
X67074807Y-37924836D01*
X67042585Y-38031057D01*
X67014767Y-38122763D01*
X66917267Y-38305172D01*
X66786054Y-38465054D01*
X66626172Y-38596267D01*
X66443763Y-38693767D01*
X66377787Y-38713780D01*
X66245836Y-38753807D01*
X66168707Y-38761403D01*
X66091580Y-38769000D01*
X65988420Y-38769000D01*
X65911293Y-38761403D01*
X65834164Y-38753807D01*
X65702213Y-38713780D01*
X65636237Y-38693767D01*
X65453828Y-38596267D01*
X65293946Y-38465054D01*
X65162733Y-38305172D01*
X65065233Y-38122763D01*
X65037415Y-38031057D01*
X65005193Y-37924836D01*
X64984920Y-37719000D01*
X65005193Y-37513164D01*
X65065233Y-37315238D01*
X65065233Y-37315237D01*
X65162733Y-37132828D01*
X65293946Y-36972946D01*
X65453828Y-36841733D01*
X65636237Y-36744233D01*
X65702213Y-36724220D01*
X65834164Y-36684193D01*
X65911293Y-36676596D01*
X65988420Y-36669000D01*
X66091580Y-36669000D01*
X66168707Y-36676596D01*
X66168707Y-36676596D01*
G37*
G36*
X63628707Y-36676596D02*
X63705836Y-36684193D01*
X63837787Y-36724220D01*
X63903763Y-36744233D01*
X64086172Y-36841733D01*
X64246054Y-36972946D01*
X64377267Y-37132828D01*
X64474767Y-37315237D01*
X64474767Y-37315238D01*
X64534807Y-37513164D01*
X64555080Y-37719000D01*
X64534807Y-37924836D01*
X64502585Y-38031057D01*
X64474767Y-38122763D01*
X64377267Y-38305172D01*
X64246054Y-38465054D01*
X64086172Y-38596267D01*
X63903763Y-38693767D01*
X63837787Y-38713780D01*
X63705836Y-38753807D01*
X63628707Y-38761403D01*
X63551580Y-38769000D01*
X63448420Y-38769000D01*
X63371293Y-38761403D01*
X63294164Y-38753807D01*
X63162213Y-38713780D01*
X63096237Y-38693767D01*
X62913828Y-38596267D01*
X62753946Y-38465054D01*
X62622733Y-38305172D01*
X62525233Y-38122763D01*
X62497415Y-38031057D01*
X62465193Y-37924836D01*
X62444920Y-37719000D01*
X62465193Y-37513164D01*
X62525233Y-37315238D01*
X62525233Y-37315237D01*
X62622733Y-37132828D01*
X62753946Y-36972946D01*
X62913828Y-36841733D01*
X63096237Y-36744233D01*
X63162213Y-36724220D01*
X63294164Y-36684193D01*
X63371293Y-36676596D01*
X63448420Y-36669000D01*
X63551580Y-36669000D01*
X63628707Y-36676596D01*
X63628707Y-36676596D01*
G37*
G36*
X58548707Y-36676596D02*
X58625836Y-36684193D01*
X58757787Y-36724220D01*
X58823763Y-36744233D01*
X59006172Y-36841733D01*
X59166054Y-36972946D01*
X59297267Y-37132828D01*
X59394767Y-37315237D01*
X59394767Y-37315238D01*
X59454807Y-37513164D01*
X59475080Y-37719000D01*
X59454807Y-37924836D01*
X59422585Y-38031057D01*
X59394767Y-38122763D01*
X59297267Y-38305172D01*
X59166054Y-38465054D01*
X59006172Y-38596267D01*
X58823763Y-38693767D01*
X58757787Y-38713780D01*
X58625836Y-38753807D01*
X58548707Y-38761403D01*
X58471580Y-38769000D01*
X58368420Y-38769000D01*
X58291293Y-38761403D01*
X58214164Y-38753807D01*
X58082213Y-38713780D01*
X58016237Y-38693767D01*
X57833828Y-38596267D01*
X57673946Y-38465054D01*
X57542733Y-38305172D01*
X57445233Y-38122763D01*
X57417415Y-38031057D01*
X57385193Y-37924836D01*
X57364920Y-37719000D01*
X57385193Y-37513164D01*
X57445233Y-37315238D01*
X57445233Y-37315237D01*
X57542733Y-37132828D01*
X57673946Y-36972946D01*
X57833828Y-36841733D01*
X58016237Y-36744233D01*
X58082213Y-36724220D01*
X58214164Y-36684193D01*
X58291293Y-36676596D01*
X58368420Y-36669000D01*
X58471580Y-36669000D01*
X58548707Y-36676596D01*
X58548707Y-36676596D01*
G37*
G36*
X61088707Y-36676596D02*
X61165836Y-36684193D01*
X61297787Y-36724220D01*
X61363763Y-36744233D01*
X61546172Y-36841733D01*
X61706054Y-36972946D01*
X61837267Y-37132828D01*
X61934767Y-37315237D01*
X61934767Y-37315238D01*
X61994807Y-37513164D01*
X62015080Y-37719000D01*
X61994807Y-37924836D01*
X61962585Y-38031057D01*
X61934767Y-38122763D01*
X61837267Y-38305172D01*
X61706054Y-38465054D01*
X61546172Y-38596267D01*
X61363763Y-38693767D01*
X61297787Y-38713780D01*
X61165836Y-38753807D01*
X61088707Y-38761403D01*
X61011580Y-38769000D01*
X60908420Y-38769000D01*
X60831293Y-38761403D01*
X60754164Y-38753807D01*
X60622213Y-38713780D01*
X60556237Y-38693767D01*
X60373828Y-38596267D01*
X60213946Y-38465054D01*
X60082733Y-38305172D01*
X59985233Y-38122763D01*
X59957415Y-38031057D01*
X59925193Y-37924836D01*
X59904920Y-37719000D01*
X59925193Y-37513164D01*
X59985233Y-37315238D01*
X59985233Y-37315237D01*
X60082733Y-37132828D01*
X60213946Y-36972946D01*
X60373828Y-36841733D01*
X60556237Y-36744233D01*
X60622213Y-36724220D01*
X60754164Y-36684193D01*
X60831293Y-36676596D01*
X60908420Y-36669000D01*
X61011580Y-36669000D01*
X61088707Y-36676596D01*
X61088707Y-36676596D01*
G37*
G36*
X53468707Y-36676596D02*
X53545836Y-36684193D01*
X53677787Y-36724220D01*
X53743763Y-36744233D01*
X53926172Y-36841733D01*
X54086054Y-36972946D01*
X54217267Y-37132828D01*
X54314767Y-37315237D01*
X54314767Y-37315238D01*
X54374807Y-37513164D01*
X54395080Y-37719000D01*
X54374807Y-37924836D01*
X54342585Y-38031057D01*
X54314767Y-38122763D01*
X54217267Y-38305172D01*
X54086054Y-38465054D01*
X53926172Y-38596267D01*
X53743763Y-38693767D01*
X53677787Y-38713780D01*
X53545836Y-38753807D01*
X53468707Y-38761403D01*
X53391580Y-38769000D01*
X53288420Y-38769000D01*
X53211293Y-38761403D01*
X53134164Y-38753807D01*
X53002213Y-38713780D01*
X52936237Y-38693767D01*
X52753828Y-38596267D01*
X52593946Y-38465054D01*
X52462733Y-38305172D01*
X52365233Y-38122763D01*
X52337415Y-38031057D01*
X52305193Y-37924836D01*
X52284920Y-37719000D01*
X52305193Y-37513164D01*
X52365233Y-37315238D01*
X52365233Y-37315237D01*
X52462733Y-37132828D01*
X52593946Y-36972946D01*
X52753828Y-36841733D01*
X52936237Y-36744233D01*
X53002213Y-36724220D01*
X53134164Y-36684193D01*
X53211293Y-36676596D01*
X53288420Y-36669000D01*
X53391580Y-36669000D01*
X53468707Y-36676596D01*
X53468707Y-36676596D01*
G37*
G36*
X78868707Y-36676596D02*
X78945836Y-36684193D01*
X79077787Y-36724220D01*
X79143763Y-36744233D01*
X79326172Y-36841733D01*
X79486054Y-36972946D01*
X79617267Y-37132828D01*
X79714767Y-37315237D01*
X79714767Y-37315238D01*
X79774807Y-37513164D01*
X79795080Y-37719000D01*
X79774807Y-37924836D01*
X79742585Y-38031057D01*
X79714767Y-38122763D01*
X79617267Y-38305172D01*
X79486054Y-38465054D01*
X79326172Y-38596267D01*
X79143763Y-38693767D01*
X79077787Y-38713780D01*
X78945836Y-38753807D01*
X78868707Y-38761403D01*
X78791580Y-38769000D01*
X78688420Y-38769000D01*
X78611293Y-38761403D01*
X78534164Y-38753807D01*
X78402213Y-38713780D01*
X78336237Y-38693767D01*
X78153828Y-38596267D01*
X77993946Y-38465054D01*
X77862733Y-38305172D01*
X77765233Y-38122763D01*
X77737415Y-38031057D01*
X77705193Y-37924836D01*
X77684920Y-37719000D01*
X77705193Y-37513164D01*
X77765233Y-37315238D01*
X77765233Y-37315237D01*
X77862733Y-37132828D01*
X77993946Y-36972946D01*
X78153828Y-36841733D01*
X78336237Y-36744233D01*
X78402213Y-36724220D01*
X78534164Y-36684193D01*
X78611293Y-36676596D01*
X78688420Y-36669000D01*
X78791580Y-36669000D01*
X78868707Y-36676596D01*
X78868707Y-36676596D01*
G37*
G36*
X91488012Y-35745057D02*
X91597207Y-35790287D01*
X91695481Y-35855952D01*
X91779048Y-35939519D01*
X91844713Y-36037793D01*
X91889943Y-36146988D01*
X91913000Y-36262904D01*
X91913000Y-36381096D01*
X91889943Y-36497012D01*
X91844713Y-36606207D01*
X91779048Y-36704481D01*
X91695481Y-36788048D01*
X91597207Y-36853713D01*
X91488012Y-36898943D01*
X91372096Y-36922000D01*
X91253904Y-36922000D01*
X91137988Y-36898943D01*
X91028793Y-36853713D01*
X90930519Y-36788048D01*
X90846952Y-36704481D01*
X90781287Y-36606207D01*
X90736057Y-36497012D01*
X90713000Y-36381096D01*
X90713000Y-36262904D01*
X90736057Y-36146988D01*
X90781287Y-36037793D01*
X90846952Y-35939519D01*
X90930519Y-35855952D01*
X91028793Y-35790287D01*
X91137988Y-35745057D01*
X91253904Y-35722000D01*
X91372096Y-35722000D01*
X91488012Y-35745057D01*
X91488012Y-35745057D01*
G37*
G36*
X73788707Y-34009597D02*
X73865836Y-34017193D01*
X73997787Y-34057220D01*
X74063763Y-34077233D01*
X74246172Y-34174733D01*
X74406054Y-34305946D01*
X74537267Y-34465828D01*
X74634767Y-34648237D01*
X74634767Y-34648238D01*
X74694807Y-34846164D01*
X74715080Y-35052000D01*
X74694807Y-35257836D01*
X74654780Y-35389787D01*
X74634767Y-35455763D01*
X74537267Y-35638172D01*
X74406054Y-35798054D01*
X74246172Y-35929267D01*
X74063763Y-36026767D01*
X74027414Y-36037793D01*
X73865836Y-36086807D01*
X73788707Y-36094403D01*
X73711580Y-36102000D01*
X73608420Y-36102000D01*
X73531293Y-36094403D01*
X73454164Y-36086807D01*
X73292586Y-36037793D01*
X73256237Y-36026767D01*
X73073828Y-35929267D01*
X72913946Y-35798054D01*
X72782733Y-35638172D01*
X72685233Y-35455763D01*
X72665220Y-35389787D01*
X72625193Y-35257836D01*
X72604920Y-35052000D01*
X72625193Y-34846164D01*
X72685233Y-34648238D01*
X72685233Y-34648237D01*
X72782733Y-34465828D01*
X72913946Y-34305946D01*
X73073828Y-34174733D01*
X73256237Y-34077233D01*
X73322213Y-34057220D01*
X73454164Y-34017193D01*
X73531293Y-34009597D01*
X73608420Y-34002000D01*
X73711580Y-34002000D01*
X73788707Y-34009597D01*
X73788707Y-34009597D01*
G37*
G36*
X71248707Y-34009597D02*
X71325836Y-34017193D01*
X71457787Y-34057220D01*
X71523763Y-34077233D01*
X71706172Y-34174733D01*
X71866054Y-34305946D01*
X71997267Y-34465828D01*
X72094767Y-34648237D01*
X72094767Y-34648238D01*
X72154807Y-34846164D01*
X72175080Y-35052000D01*
X72154807Y-35257836D01*
X72114780Y-35389787D01*
X72094767Y-35455763D01*
X71997267Y-35638172D01*
X71866054Y-35798054D01*
X71706172Y-35929267D01*
X71523763Y-36026767D01*
X71487414Y-36037793D01*
X71325836Y-36086807D01*
X71248707Y-36094403D01*
X71171580Y-36102000D01*
X71068420Y-36102000D01*
X70991293Y-36094403D01*
X70914164Y-36086807D01*
X70752586Y-36037793D01*
X70716237Y-36026767D01*
X70533828Y-35929267D01*
X70373946Y-35798054D01*
X70242733Y-35638172D01*
X70145233Y-35455763D01*
X70125220Y-35389787D01*
X70085193Y-35257836D01*
X70064920Y-35052000D01*
X70085193Y-34846164D01*
X70145233Y-34648238D01*
X70145233Y-34648237D01*
X70242733Y-34465828D01*
X70373946Y-34305946D01*
X70533828Y-34174733D01*
X70716237Y-34077233D01*
X70782213Y-34057220D01*
X70914164Y-34017193D01*
X70991293Y-34009597D01*
X71068420Y-34002000D01*
X71171580Y-34002000D01*
X71248707Y-34009597D01*
X71248707Y-34009597D01*
G37*
G36*
X76328707Y-34009597D02*
X76405836Y-34017193D01*
X76537787Y-34057220D01*
X76603763Y-34077233D01*
X76786172Y-34174733D01*
X76946054Y-34305946D01*
X77077267Y-34465828D01*
X77174767Y-34648237D01*
X77174767Y-34648238D01*
X77234807Y-34846164D01*
X77255080Y-35052000D01*
X77234807Y-35257836D01*
X77194780Y-35389787D01*
X77174767Y-35455763D01*
X77077267Y-35638172D01*
X76946054Y-35798054D01*
X76786172Y-35929267D01*
X76603763Y-36026767D01*
X76567414Y-36037793D01*
X76405836Y-36086807D01*
X76328707Y-36094403D01*
X76251580Y-36102000D01*
X76148420Y-36102000D01*
X76071293Y-36094403D01*
X75994164Y-36086807D01*
X75832586Y-36037793D01*
X75796237Y-36026767D01*
X75613828Y-35929267D01*
X75453946Y-35798054D01*
X75322733Y-35638172D01*
X75225233Y-35455763D01*
X75205220Y-35389787D01*
X75165193Y-35257836D01*
X75144920Y-35052000D01*
X75165193Y-34846164D01*
X75225233Y-34648238D01*
X75225233Y-34648237D01*
X75322733Y-34465828D01*
X75453946Y-34305946D01*
X75613828Y-34174733D01*
X75796237Y-34077233D01*
X75862213Y-34057220D01*
X75994164Y-34017193D01*
X76071293Y-34009597D01*
X76148420Y-34002000D01*
X76251580Y-34002000D01*
X76328707Y-34009597D01*
X76328707Y-34009597D01*
G37*
G36*
X78868707Y-34009597D02*
X78945836Y-34017193D01*
X79077787Y-34057220D01*
X79143763Y-34077233D01*
X79326172Y-34174733D01*
X79486054Y-34305946D01*
X79617267Y-34465828D01*
X79714767Y-34648237D01*
X79714767Y-34648238D01*
X79774807Y-34846164D01*
X79795080Y-35052000D01*
X79774807Y-35257836D01*
X79734780Y-35389787D01*
X79714767Y-35455763D01*
X79617267Y-35638172D01*
X79486054Y-35798054D01*
X79326172Y-35929267D01*
X79143763Y-36026767D01*
X79107414Y-36037793D01*
X78945836Y-36086807D01*
X78868707Y-36094403D01*
X78791580Y-36102000D01*
X78688420Y-36102000D01*
X78611293Y-36094403D01*
X78534164Y-36086807D01*
X78372586Y-36037793D01*
X78336237Y-36026767D01*
X78153828Y-35929267D01*
X77993946Y-35798054D01*
X77862733Y-35638172D01*
X77765233Y-35455763D01*
X77745220Y-35389787D01*
X77705193Y-35257836D01*
X77684920Y-35052000D01*
X77705193Y-34846164D01*
X77765233Y-34648238D01*
X77765233Y-34648237D01*
X77862733Y-34465828D01*
X77993946Y-34305946D01*
X78153828Y-34174733D01*
X78336237Y-34077233D01*
X78402213Y-34057220D01*
X78534164Y-34017193D01*
X78611293Y-34009597D01*
X78688420Y-34002000D01*
X78791580Y-34002000D01*
X78868707Y-34009597D01*
X78868707Y-34009597D01*
G37*
G36*
X81408707Y-34009597D02*
X81485836Y-34017193D01*
X81617787Y-34057220D01*
X81683763Y-34077233D01*
X81866172Y-34174733D01*
X82026054Y-34305946D01*
X82157267Y-34465828D01*
X82254767Y-34648237D01*
X82254767Y-34648238D01*
X82314807Y-34846164D01*
X82335080Y-35052000D01*
X82314807Y-35257836D01*
X82274780Y-35389787D01*
X82254767Y-35455763D01*
X82157267Y-35638172D01*
X82026054Y-35798054D01*
X81866172Y-35929267D01*
X81683763Y-36026767D01*
X81647414Y-36037793D01*
X81485836Y-36086807D01*
X81408707Y-36094403D01*
X81331580Y-36102000D01*
X81228420Y-36102000D01*
X81151293Y-36094403D01*
X81074164Y-36086807D01*
X80912586Y-36037793D01*
X80876237Y-36026767D01*
X80693828Y-35929267D01*
X80533946Y-35798054D01*
X80402733Y-35638172D01*
X80305233Y-35455763D01*
X80285220Y-35389787D01*
X80245193Y-35257836D01*
X80224920Y-35052000D01*
X80245193Y-34846164D01*
X80305233Y-34648238D01*
X80305233Y-34648237D01*
X80402733Y-34465828D01*
X80533946Y-34305946D01*
X80693828Y-34174733D01*
X80876237Y-34077233D01*
X80942213Y-34057220D01*
X81074164Y-34017193D01*
X81151293Y-34009597D01*
X81228420Y-34002000D01*
X81331580Y-34002000D01*
X81408707Y-34009597D01*
X81408707Y-34009597D01*
G37*
G36*
X83948707Y-34009597D02*
X84025836Y-34017193D01*
X84157787Y-34057220D01*
X84223763Y-34077233D01*
X84406172Y-34174733D01*
X84566054Y-34305946D01*
X84697267Y-34465828D01*
X84794767Y-34648237D01*
X84794767Y-34648238D01*
X84854807Y-34846164D01*
X84875080Y-35052000D01*
X84854807Y-35257836D01*
X84814780Y-35389787D01*
X84794767Y-35455763D01*
X84697267Y-35638172D01*
X84566054Y-35798054D01*
X84406172Y-35929267D01*
X84223763Y-36026767D01*
X84187414Y-36037793D01*
X84025836Y-36086807D01*
X83948707Y-36094403D01*
X83871580Y-36102000D01*
X83768420Y-36102000D01*
X83691293Y-36094403D01*
X83614164Y-36086807D01*
X83452586Y-36037793D01*
X83416237Y-36026767D01*
X83233828Y-35929267D01*
X83073946Y-35798054D01*
X82942733Y-35638172D01*
X82845233Y-35455763D01*
X82825220Y-35389787D01*
X82785193Y-35257836D01*
X82764920Y-35052000D01*
X82785193Y-34846164D01*
X82845233Y-34648238D01*
X82845233Y-34648237D01*
X82942733Y-34465828D01*
X83073946Y-34305946D01*
X83233828Y-34174733D01*
X83416237Y-34077233D01*
X83482213Y-34057220D01*
X83614164Y-34017193D01*
X83691293Y-34009597D01*
X83768420Y-34002000D01*
X83871580Y-34002000D01*
X83948707Y-34009597D01*
X83948707Y-34009597D01*
G37*
G36*
X86488707Y-34009597D02*
X86565836Y-34017193D01*
X86697787Y-34057220D01*
X86763763Y-34077233D01*
X86946172Y-34174733D01*
X87106054Y-34305946D01*
X87237267Y-34465828D01*
X87334767Y-34648237D01*
X87334767Y-34648238D01*
X87394807Y-34846164D01*
X87415080Y-35052000D01*
X87394807Y-35257836D01*
X87354780Y-35389787D01*
X87334767Y-35455763D01*
X87237267Y-35638172D01*
X87106054Y-35798054D01*
X86946172Y-35929267D01*
X86763763Y-36026767D01*
X86727414Y-36037793D01*
X86565836Y-36086807D01*
X86488707Y-36094403D01*
X86411580Y-36102000D01*
X86308420Y-36102000D01*
X86231293Y-36094403D01*
X86154164Y-36086807D01*
X85992586Y-36037793D01*
X85956237Y-36026767D01*
X85773828Y-35929267D01*
X85613946Y-35798054D01*
X85482733Y-35638172D01*
X85385233Y-35455763D01*
X85365220Y-35389787D01*
X85325193Y-35257836D01*
X85304920Y-35052000D01*
X85325193Y-34846164D01*
X85385233Y-34648238D01*
X85385233Y-34648237D01*
X85482733Y-34465828D01*
X85613946Y-34305946D01*
X85773828Y-34174733D01*
X85956237Y-34077233D01*
X86022213Y-34057220D01*
X86154164Y-34017193D01*
X86231293Y-34009597D01*
X86308420Y-34002000D01*
X86411580Y-34002000D01*
X86488707Y-34009597D01*
X86488707Y-34009597D01*
G37*
G36*
X89950000Y-36102000D02*
X87850000Y-36102000D01*
X87850000Y-34002000D01*
X89950000Y-34002000D01*
X89950000Y-36102000D01*
X89950000Y-36102000D01*
G37*
G36*
X56008707Y-34009597D02*
X56085836Y-34017193D01*
X56217787Y-34057220D01*
X56283763Y-34077233D01*
X56466172Y-34174733D01*
X56626054Y-34305946D01*
X56757267Y-34465828D01*
X56854767Y-34648237D01*
X56854767Y-34648238D01*
X56914807Y-34846164D01*
X56935080Y-35052000D01*
X56914807Y-35257836D01*
X56874780Y-35389787D01*
X56854767Y-35455763D01*
X56757267Y-35638172D01*
X56626054Y-35798054D01*
X56466172Y-35929267D01*
X56283763Y-36026767D01*
X56247414Y-36037793D01*
X56085836Y-36086807D01*
X56008707Y-36094403D01*
X55931580Y-36102000D01*
X55828420Y-36102000D01*
X55751293Y-36094403D01*
X55674164Y-36086807D01*
X55512586Y-36037793D01*
X55476237Y-36026767D01*
X55293828Y-35929267D01*
X55133946Y-35798054D01*
X55002733Y-35638172D01*
X54905233Y-35455763D01*
X54885220Y-35389787D01*
X54845193Y-35257836D01*
X54824920Y-35052000D01*
X54845193Y-34846164D01*
X54905233Y-34648238D01*
X54905233Y-34648237D01*
X55002733Y-34465828D01*
X55133946Y-34305946D01*
X55293828Y-34174733D01*
X55476237Y-34077233D01*
X55542213Y-34057220D01*
X55674164Y-34017193D01*
X55751293Y-34009597D01*
X55828420Y-34002000D01*
X55931580Y-34002000D01*
X56008707Y-34009597D01*
X56008707Y-34009597D01*
G37*
G36*
X58548707Y-34009597D02*
X58625836Y-34017193D01*
X58757787Y-34057220D01*
X58823763Y-34077233D01*
X59006172Y-34174733D01*
X59166054Y-34305946D01*
X59297267Y-34465828D01*
X59394767Y-34648237D01*
X59394767Y-34648238D01*
X59454807Y-34846164D01*
X59475080Y-35052000D01*
X59454807Y-35257836D01*
X59414780Y-35389787D01*
X59394767Y-35455763D01*
X59297267Y-35638172D01*
X59166054Y-35798054D01*
X59006172Y-35929267D01*
X58823763Y-36026767D01*
X58787414Y-36037793D01*
X58625836Y-36086807D01*
X58548707Y-36094403D01*
X58471580Y-36102000D01*
X58368420Y-36102000D01*
X58291293Y-36094403D01*
X58214164Y-36086807D01*
X58052586Y-36037793D01*
X58016237Y-36026767D01*
X57833828Y-35929267D01*
X57673946Y-35798054D01*
X57542733Y-35638172D01*
X57445233Y-35455763D01*
X57425220Y-35389787D01*
X57385193Y-35257836D01*
X57364920Y-35052000D01*
X57385193Y-34846164D01*
X57445233Y-34648238D01*
X57445233Y-34648237D01*
X57542733Y-34465828D01*
X57673946Y-34305946D01*
X57833828Y-34174733D01*
X58016237Y-34077233D01*
X58082213Y-34057220D01*
X58214164Y-34017193D01*
X58291293Y-34009597D01*
X58368420Y-34002000D01*
X58471580Y-34002000D01*
X58548707Y-34009597D01*
X58548707Y-34009597D01*
G37*
G36*
X61088707Y-34009597D02*
X61165836Y-34017193D01*
X61297787Y-34057220D01*
X61363763Y-34077233D01*
X61546172Y-34174733D01*
X61706054Y-34305946D01*
X61837267Y-34465828D01*
X61934767Y-34648237D01*
X61934767Y-34648238D01*
X61994807Y-34846164D01*
X62015080Y-35052000D01*
X61994807Y-35257836D01*
X61954780Y-35389787D01*
X61934767Y-35455763D01*
X61837267Y-35638172D01*
X61706054Y-35798054D01*
X61546172Y-35929267D01*
X61363763Y-36026767D01*
X61327414Y-36037793D01*
X61165836Y-36086807D01*
X61088707Y-36094403D01*
X61011580Y-36102000D01*
X60908420Y-36102000D01*
X60831293Y-36094403D01*
X60754164Y-36086807D01*
X60592586Y-36037793D01*
X60556237Y-36026767D01*
X60373828Y-35929267D01*
X60213946Y-35798054D01*
X60082733Y-35638172D01*
X59985233Y-35455763D01*
X59965220Y-35389787D01*
X59925193Y-35257836D01*
X59904920Y-35052000D01*
X59925193Y-34846164D01*
X59985233Y-34648238D01*
X59985233Y-34648237D01*
X60082733Y-34465828D01*
X60213946Y-34305946D01*
X60373828Y-34174733D01*
X60556237Y-34077233D01*
X60622213Y-34057220D01*
X60754164Y-34017193D01*
X60831293Y-34009597D01*
X60908420Y-34002000D01*
X61011580Y-34002000D01*
X61088707Y-34009597D01*
X61088707Y-34009597D01*
G37*
G36*
X63628707Y-34009597D02*
X63705836Y-34017193D01*
X63837787Y-34057220D01*
X63903763Y-34077233D01*
X64086172Y-34174733D01*
X64246054Y-34305946D01*
X64377267Y-34465828D01*
X64474767Y-34648237D01*
X64474767Y-34648238D01*
X64534807Y-34846164D01*
X64555080Y-35052000D01*
X64534807Y-35257836D01*
X64494780Y-35389787D01*
X64474767Y-35455763D01*
X64377267Y-35638172D01*
X64246054Y-35798054D01*
X64086172Y-35929267D01*
X63903763Y-36026767D01*
X63867414Y-36037793D01*
X63705836Y-36086807D01*
X63628707Y-36094403D01*
X63551580Y-36102000D01*
X63448420Y-36102000D01*
X63371293Y-36094403D01*
X63294164Y-36086807D01*
X63132586Y-36037793D01*
X63096237Y-36026767D01*
X62913828Y-35929267D01*
X62753946Y-35798054D01*
X62622733Y-35638172D01*
X62525233Y-35455763D01*
X62505220Y-35389787D01*
X62465193Y-35257836D01*
X62444920Y-35052000D01*
X62465193Y-34846164D01*
X62525233Y-34648238D01*
X62525233Y-34648237D01*
X62622733Y-34465828D01*
X62753946Y-34305946D01*
X62913828Y-34174733D01*
X63096237Y-34077233D01*
X63162213Y-34057220D01*
X63294164Y-34017193D01*
X63371293Y-34009597D01*
X63448420Y-34002000D01*
X63551580Y-34002000D01*
X63628707Y-34009597D01*
X63628707Y-34009597D01*
G37*
G36*
X66168707Y-34009597D02*
X66245836Y-34017193D01*
X66377787Y-34057220D01*
X66443763Y-34077233D01*
X66626172Y-34174733D01*
X66786054Y-34305946D01*
X66917267Y-34465828D01*
X67014767Y-34648237D01*
X67014767Y-34648238D01*
X67074807Y-34846164D01*
X67095080Y-35052000D01*
X67074807Y-35257836D01*
X67034780Y-35389787D01*
X67014767Y-35455763D01*
X66917267Y-35638172D01*
X66786054Y-35798054D01*
X66626172Y-35929267D01*
X66443763Y-36026767D01*
X66407414Y-36037793D01*
X66245836Y-36086807D01*
X66168707Y-36094403D01*
X66091580Y-36102000D01*
X65988420Y-36102000D01*
X65911293Y-36094403D01*
X65834164Y-36086807D01*
X65672586Y-36037793D01*
X65636237Y-36026767D01*
X65453828Y-35929267D01*
X65293946Y-35798054D01*
X65162733Y-35638172D01*
X65065233Y-35455763D01*
X65045220Y-35389787D01*
X65005193Y-35257836D01*
X64984920Y-35052000D01*
X65005193Y-34846164D01*
X65065233Y-34648238D01*
X65065233Y-34648237D01*
X65162733Y-34465828D01*
X65293946Y-34305946D01*
X65453828Y-34174733D01*
X65636237Y-34077233D01*
X65702213Y-34057220D01*
X65834164Y-34017193D01*
X65911293Y-34009597D01*
X65988420Y-34002000D01*
X66091580Y-34002000D01*
X66168707Y-34009597D01*
X66168707Y-34009597D01*
G37*
G36*
X68708707Y-34009597D02*
X68785836Y-34017193D01*
X68917787Y-34057220D01*
X68983763Y-34077233D01*
X69166172Y-34174733D01*
X69326054Y-34305946D01*
X69457267Y-34465828D01*
X69554767Y-34648237D01*
X69554767Y-34648238D01*
X69614807Y-34846164D01*
X69635080Y-35052000D01*
X69614807Y-35257836D01*
X69574780Y-35389787D01*
X69554767Y-35455763D01*
X69457267Y-35638172D01*
X69326054Y-35798054D01*
X69166172Y-35929267D01*
X68983763Y-36026767D01*
X68947414Y-36037793D01*
X68785836Y-36086807D01*
X68708707Y-36094403D01*
X68631580Y-36102000D01*
X68528420Y-36102000D01*
X68451293Y-36094403D01*
X68374164Y-36086807D01*
X68212586Y-36037793D01*
X68176237Y-36026767D01*
X67993828Y-35929267D01*
X67833946Y-35798054D01*
X67702733Y-35638172D01*
X67605233Y-35455763D01*
X67585220Y-35389787D01*
X67545193Y-35257836D01*
X67524920Y-35052000D01*
X67545193Y-34846164D01*
X67605233Y-34648238D01*
X67605233Y-34648237D01*
X67702733Y-34465828D01*
X67833946Y-34305946D01*
X67993828Y-34174733D01*
X68176237Y-34077233D01*
X68242213Y-34057220D01*
X68374164Y-34017193D01*
X68451293Y-34009597D01*
X68528420Y-34002000D01*
X68631580Y-34002000D01*
X68708707Y-34009597D01*
X68708707Y-34009597D01*
G37*
G36*
X53468707Y-34009597D02*
X53545836Y-34017193D01*
X53677787Y-34057220D01*
X53743763Y-34077233D01*
X53926172Y-34174733D01*
X54086054Y-34305946D01*
X54217267Y-34465828D01*
X54314767Y-34648237D01*
X54314767Y-34648238D01*
X54374807Y-34846164D01*
X54395080Y-35052000D01*
X54374807Y-35257836D01*
X54334780Y-35389787D01*
X54314767Y-35455763D01*
X54217267Y-35638172D01*
X54086054Y-35798054D01*
X53926172Y-35929267D01*
X53743763Y-36026767D01*
X53707414Y-36037793D01*
X53545836Y-36086807D01*
X53468707Y-36094403D01*
X53391580Y-36102000D01*
X53288420Y-36102000D01*
X53211293Y-36094403D01*
X53134164Y-36086807D01*
X52972586Y-36037793D01*
X52936237Y-36026767D01*
X52753828Y-35929267D01*
X52593946Y-35798054D01*
X52462733Y-35638172D01*
X52365233Y-35455763D01*
X52345220Y-35389787D01*
X52305193Y-35257836D01*
X52284920Y-35052000D01*
X52305193Y-34846164D01*
X52365233Y-34648238D01*
X52365233Y-34648237D01*
X52462733Y-34465828D01*
X52593946Y-34305946D01*
X52753828Y-34174733D01*
X52936237Y-34077233D01*
X53002213Y-34057220D01*
X53134164Y-34017193D01*
X53211293Y-34009597D01*
X53288420Y-34002000D01*
X53391580Y-34002000D01*
X53468707Y-34009597D01*
X53468707Y-34009597D01*
G37*
M02*
