M48
;DRILL file {KiCad (5.0.0)} date 10/11/18 21:25:37
;FORMAT={-:-/ absolute / inch / decimal}
FMAT,2
INCH,TZ
T1C0.0157
T2C0.0240
T3C0.0315
T4C0.0320
T5C0.0374
T6C0.0400
%
G90
G05
M72
T1
X4.4217Y-4.2482
X4.4217Y-4.4482
X4.6217Y-3.9982
X4.6217Y-4.5482
X4.6717Y-4.2482
X4.7217Y-4.5982
X4.7717Y-3.9482
X4.7717Y-4.0482
X4.9217Y-4.4482
X4.9717Y-3.9982
X5.0217Y-4.1482
X5.1717Y-3.8982
X5.3217Y-4.6482
X5.4217Y-4.2482
X5.5717Y-4.4
X5.9217Y-3.7482
X6.Y-4.4
X6.144Y-3.78
X6.144Y-3.906
X6.15Y-3.6482
X6.2217Y-3.4982
X6.272Y-3.678
X6.272Y-3.848
X6.4717Y-4.3982
X6.474Y-3.578
X6.5Y-4.45
X6.525Y-4.75
X6.575Y-4.5
X6.625Y-3.775
X6.675Y-3.675
X6.675Y-4.625
X6.7Y-4.1482
X6.7Y-4.35
X7.004Y-3.678
X7.2Y-3.475
X7.2Y-3.525
X7.2Y-3.575
X7.2Y-3.6274
X7.2Y-3.725
X7.2Y-3.825
T2
X5.0717Y-3.8482
X5.0717Y-4.0482
X6.818Y-4.
X7.018Y-4.
T3
X6.8896Y-4.624
X6.988Y-4.624
T4
X4.9217Y-4.3482
X4.9717Y-4.2732
X5.0217Y-4.3482
T5
X7.5Y-4.225
X7.5Y-4.3234
X7.5Y-4.4219
X7.5Y-4.5203
X7.5Y-4.6187
X7.5Y-4.7171
T6
X5.2667Y-3.6982
X5.3767Y-3.6982
X5.2667Y-3.8482
X5.3767Y-3.8482
X5.7723Y-3.6982
X6.0723Y-3.6982
X5.3717Y-4.0982
X5.3717Y-4.1982
X5.3717Y-4.2982
X5.3717Y-4.3982
X5.3717Y-4.4982
X5.3717Y-4.5982
X5.4717Y-4.0482
X5.4717Y-4.6482
X5.5717Y-4.0482
X5.5717Y-4.6482
X5.6717Y-4.0482
X5.6717Y-4.6482
X5.7717Y-4.0482
X5.7717Y-4.6482
X5.8217Y-4.5482
X5.8717Y-4.0482
X5.8717Y-4.6482
X5.9217Y-4.5482
X5.9717Y-4.0482
X5.9717Y-4.6482
X6.0717Y-4.0482
X6.0717Y-4.6482
X6.1717Y-4.0482
X6.1717Y-4.6482
X6.2717Y-4.0482
X6.2717Y-4.6482
X6.3717Y-4.0482
X6.3717Y-4.6482
X6.4717Y-4.0482
X6.4717Y-4.6482
X6.5717Y-4.0482
X6.5717Y-4.6482
X4.8217Y-4.5982
X5.1217Y-4.5982
X5.7723Y-3.8482
X6.0723Y-3.8482
X4.5717Y-3.5482
X4.6717Y-3.5482
X4.7717Y-3.5482
X4.8717Y-3.5482
X4.9717Y-3.5482
X5.0717Y-3.5482
X5.1717Y-3.5482
X5.2717Y-3.5482
X5.3717Y-3.5482
X5.4717Y-3.5482
X5.5717Y-3.5482
X5.6717Y-3.5482
X5.7717Y-3.5482
X5.8717Y-3.5482
X5.9717Y-3.5482
X6.0717Y-3.5482
X5.5167Y-3.6982
X5.6267Y-3.6982
X5.5167Y-3.8482
X5.6267Y-3.8482
T0
M30
