G04 #@! TF.GenerationSoftware,KiCad,Pcbnew,(5.0.0)*
G04 #@! TF.CreationDate,2018-10-11T21:25:17+02:00*
G04 #@! TF.ProjectId,canbus,63616E6275732E6B696361645F706362,rev?*
G04 #@! TF.SameCoordinates,Original*
G04 #@! TF.FileFunction,Soldermask,Top*
G04 #@! TF.FilePolarity,Negative*
%FSLAX46Y46*%
G04 Gerber Fmt 4.6, Leading zero omitted, Abs format (unit mm)*
G04 Created by KiCad (PCBNEW (5.0.0)) date 10/11/18 21:25:17*
%MOMM*%
%LPD*%
G01*
G04 APERTURE LIST*
%ADD10C,0.100000*%
%ADD11O,1.422400X2.641600*%
%ADD12C,2.235200*%
%ADD13C,1.828800*%
%ADD14O,2.350000X2.100000*%
%ADD15R,2.350000X2.100000*%
%ADD16R,2.000000X2.000000*%
%ADD17C,2.000000*%
%ADD18O,2.641600X1.422400*%
%ADD19C,2.082800*%
%ADD20C,1.625600*%
%ADD21C,1.825000*%
G04 APERTURE END LIST*
D10*
G04 #@! TO.C,R1*
G36*
X146618600Y-96791100D02*
X146618601Y-96791100D01*
X146408603Y-96811921D01*
X146208504Y-96878950D01*
X146028337Y-96988824D01*
X145877136Y-97136034D01*
X145762484Y-97313199D01*
X145663700Y-97720800D01*
X145663700Y-97720799D01*
X145685290Y-97935584D01*
X145754138Y-98140177D01*
X145866791Y-98324317D01*
X146017600Y-98478768D01*
X146199000Y-98595783D01*
X146401892Y-98669493D01*
X146616100Y-98696200D01*
X146830259Y-98668915D01*
X147032977Y-98594660D01*
X147214090Y-98477157D01*
X147364514Y-98322299D01*
X147476708Y-98137850D01*
X147545046Y-97933061D01*
X147566100Y-97718200D01*
X147566100Y-97718201D01*
X147540366Y-97509871D01*
X147468908Y-97312496D01*
X147355311Y-97135976D01*
X147205274Y-96989169D01*
X147026324Y-96879441D01*
X146618600Y-96791100D01*
G37*
G36*
X154246200Y-96798700D02*
X154246201Y-96798700D01*
X154036203Y-96819521D01*
X153836104Y-96886550D01*
X153655937Y-96996424D01*
X153504736Y-97143634D01*
X153390084Y-97320799D01*
X153291300Y-97728400D01*
X153312890Y-97943184D01*
X153381738Y-98147777D01*
X153494392Y-98331917D01*
X153645201Y-98486368D01*
X153826600Y-98603383D01*
X154029492Y-98677092D01*
X154243700Y-98703800D01*
X154457859Y-98676515D01*
X154660577Y-98602260D01*
X154841690Y-98484757D01*
X154992114Y-98329899D01*
X155104308Y-98145450D01*
X155172646Y-97940661D01*
X155193700Y-97725800D01*
X155193700Y-97725802D01*
X155167967Y-97517472D01*
X155096509Y-97320096D01*
X154982912Y-97143576D01*
X154832874Y-96996769D01*
X154653925Y-96887040D01*
X154246200Y-96798700D01*
G37*
G04 #@! TO.C,R3*
G36*
X154246200Y-92988700D02*
X154246201Y-92988700D01*
X154036203Y-93009521D01*
X153836104Y-93076550D01*
X153655937Y-93186424D01*
X153504736Y-93333634D01*
X153390084Y-93510799D01*
X153291300Y-93918400D01*
X153312890Y-94133184D01*
X153381738Y-94337777D01*
X153494392Y-94521917D01*
X153645201Y-94676368D01*
X153826600Y-94793383D01*
X154029492Y-94867092D01*
X154243700Y-94893800D01*
X154457859Y-94866515D01*
X154660577Y-94792260D01*
X154841690Y-94674757D01*
X154992114Y-94519899D01*
X155104308Y-94335450D01*
X155172646Y-94130661D01*
X155193700Y-93915800D01*
X155193700Y-93915802D01*
X155167967Y-93707472D01*
X155096509Y-93510096D01*
X154982912Y-93333576D01*
X154832874Y-93186769D01*
X154653925Y-93077040D01*
X154246200Y-92988700D01*
G37*
G36*
X146618600Y-92981100D02*
X146618601Y-92981100D01*
X146408603Y-93001921D01*
X146208504Y-93068950D01*
X146028337Y-93178824D01*
X145877136Y-93326034D01*
X145762484Y-93503199D01*
X145663700Y-93910800D01*
X145663700Y-93910799D01*
X145685290Y-94125584D01*
X145754138Y-94330177D01*
X145866791Y-94514317D01*
X146017600Y-94668768D01*
X146199000Y-94785783D01*
X146401892Y-94859493D01*
X146616100Y-94886200D01*
X146830259Y-94858915D01*
X147032977Y-94784660D01*
X147214090Y-94667157D01*
X147364514Y-94512299D01*
X147476708Y-94327850D01*
X147545046Y-94123061D01*
X147566100Y-93908200D01*
X147566100Y-93908201D01*
X147540366Y-93699871D01*
X147468908Y-93502496D01*
X147355311Y-93325976D01*
X147205274Y-93179169D01*
X147026324Y-93069441D01*
X146618600Y-92981100D01*
G37*
G04 #@! TO.C,C1*
G36*
X142918100Y-96796100D02*
X142918101Y-96796100D01*
X142708103Y-96816921D01*
X142508004Y-96883950D01*
X142327837Y-96993824D01*
X142176636Y-97141034D01*
X142061984Y-97318199D01*
X141963200Y-97725800D01*
X141984790Y-97940584D01*
X142053638Y-98145177D01*
X142166292Y-98329317D01*
X142317101Y-98483768D01*
X142498500Y-98600783D01*
X142701392Y-98674492D01*
X142915600Y-98701200D01*
X143129759Y-98673915D01*
X143332477Y-98599660D01*
X143513590Y-98482157D01*
X143664014Y-98327299D01*
X143776208Y-98142850D01*
X143844546Y-97938061D01*
X143865600Y-97723200D01*
X143865600Y-97723202D01*
X143839867Y-97514872D01*
X143768409Y-97317496D01*
X143654812Y-97140976D01*
X143504774Y-96994169D01*
X143325825Y-96884440D01*
X142918100Y-96796100D01*
G37*
G36*
X140119000Y-96796100D02*
X140119001Y-96796100D01*
X139909003Y-96816921D01*
X139708904Y-96883950D01*
X139528737Y-96993824D01*
X139377536Y-97141034D01*
X139262884Y-97318199D01*
X139164100Y-97725800D01*
X139164100Y-97725799D01*
X139185690Y-97940584D01*
X139254538Y-98145177D01*
X139367191Y-98329317D01*
X139518000Y-98483768D01*
X139699400Y-98600783D01*
X139902292Y-98674493D01*
X140116500Y-98701200D01*
X140330659Y-98673915D01*
X140533377Y-98599660D01*
X140714490Y-98482157D01*
X140864914Y-98327299D01*
X140977108Y-98142850D01*
X141045446Y-97938061D01*
X141066500Y-97723200D01*
X141066500Y-97723201D01*
X141040766Y-97514871D01*
X140969308Y-97317496D01*
X140855711Y-97140976D01*
X140705674Y-96994169D01*
X140526724Y-96884441D01*
X140119000Y-96796100D01*
G37*
G04 #@! TO.C,C2*
G36*
X133769000Y-92986100D02*
X133769001Y-92986100D01*
X133559003Y-93006921D01*
X133358904Y-93073950D01*
X133178737Y-93183824D01*
X133027536Y-93331034D01*
X132912884Y-93508199D01*
X132814100Y-93915800D01*
X132814100Y-93915799D01*
X132835690Y-94130584D01*
X132904538Y-94335177D01*
X133017191Y-94519317D01*
X133168000Y-94673768D01*
X133349400Y-94790783D01*
X133552292Y-94864493D01*
X133766500Y-94891200D01*
X133980659Y-94863915D01*
X134183377Y-94789660D01*
X134364490Y-94672157D01*
X134514914Y-94517299D01*
X134627108Y-94332850D01*
X134695446Y-94128061D01*
X134716500Y-93913200D01*
X134716500Y-93913201D01*
X134690766Y-93704871D01*
X134619308Y-93507496D01*
X134505711Y-93330976D01*
X134355674Y-93184169D01*
X134176724Y-93074441D01*
X133769000Y-92986100D01*
G37*
G36*
X136568100Y-92986100D02*
X136568101Y-92986100D01*
X136358103Y-93006921D01*
X136158004Y-93073950D01*
X135977837Y-93183824D01*
X135826636Y-93331034D01*
X135711984Y-93508199D01*
X135613200Y-93915800D01*
X135634790Y-94130584D01*
X135703638Y-94335177D01*
X135816292Y-94519317D01*
X135967101Y-94673768D01*
X136148500Y-94790783D01*
X136351392Y-94864492D01*
X136565600Y-94891200D01*
X136779759Y-94863915D01*
X136982477Y-94789660D01*
X137163590Y-94672157D01*
X137314014Y-94517299D01*
X137426208Y-94332850D01*
X137494546Y-94128061D01*
X137515600Y-93913200D01*
X137515600Y-93913202D01*
X137489867Y-93704872D01*
X137418409Y-93507496D01*
X137304812Y-93330976D01*
X137154774Y-93184169D01*
X136975825Y-93074440D01*
X136568100Y-92986100D01*
G37*
G04 #@! TO.C,C3*
G36*
X136568100Y-96796100D02*
X136568101Y-96796100D01*
X136358103Y-96816921D01*
X136158004Y-96883950D01*
X135977837Y-96993824D01*
X135826636Y-97141034D01*
X135711984Y-97318199D01*
X135613200Y-97725800D01*
X135634790Y-97940584D01*
X135703638Y-98145177D01*
X135816292Y-98329317D01*
X135967101Y-98483768D01*
X136148500Y-98600783D01*
X136351392Y-98674492D01*
X136565600Y-98701200D01*
X136779759Y-98673915D01*
X136982477Y-98599660D01*
X137163590Y-98482157D01*
X137314014Y-98327299D01*
X137426208Y-98142850D01*
X137494546Y-97938061D01*
X137515600Y-97723200D01*
X137515600Y-97723202D01*
X137489867Y-97514872D01*
X137418409Y-97317496D01*
X137304812Y-97140976D01*
X137154774Y-96994169D01*
X136975825Y-96884440D01*
X136568100Y-96796100D01*
G37*
G36*
X133769000Y-96796100D02*
X133769001Y-96796100D01*
X133559003Y-96816921D01*
X133358904Y-96883950D01*
X133178737Y-96993824D01*
X133027536Y-97141034D01*
X132912884Y-97318199D01*
X132814100Y-97725800D01*
X132814100Y-97725799D01*
X132835690Y-97940584D01*
X132904538Y-98145177D01*
X133017191Y-98329317D01*
X133168000Y-98483768D01*
X133349400Y-98600783D01*
X133552292Y-98674493D01*
X133766500Y-98701200D01*
X133980659Y-98673915D01*
X134183377Y-98599660D01*
X134364490Y-98482157D01*
X134514914Y-98327299D01*
X134627108Y-98142850D01*
X134695446Y-97938061D01*
X134716500Y-97723200D01*
X134716500Y-97723201D01*
X134690766Y-97514871D01*
X134619308Y-97317496D01*
X134505711Y-97140976D01*
X134355674Y-96994169D01*
X134176724Y-96884441D01*
X133769000Y-96796100D01*
G37*
G04 #@! TO.C,C4*
G36*
X140119000Y-92986100D02*
X140119001Y-92986100D01*
X139909003Y-93006921D01*
X139708904Y-93073950D01*
X139528737Y-93183824D01*
X139377536Y-93331034D01*
X139262884Y-93508199D01*
X139164100Y-93915800D01*
X139164100Y-93915799D01*
X139185690Y-94130584D01*
X139254538Y-94335177D01*
X139367191Y-94519317D01*
X139518000Y-94673768D01*
X139699400Y-94790783D01*
X139902292Y-94864493D01*
X140116500Y-94891200D01*
X140330659Y-94863915D01*
X140533377Y-94789660D01*
X140714490Y-94672157D01*
X140864914Y-94517299D01*
X140977108Y-94332850D01*
X141045446Y-94128061D01*
X141066500Y-93913200D01*
X141066500Y-93913201D01*
X141040766Y-93704871D01*
X140969308Y-93507496D01*
X140855711Y-93330976D01*
X140705674Y-93184169D01*
X140526724Y-93074441D01*
X140119000Y-92986100D01*
G37*
G36*
X142918100Y-92986100D02*
X142918101Y-92986100D01*
X142708103Y-93006921D01*
X142508004Y-93073950D01*
X142327837Y-93183824D01*
X142176636Y-93331034D01*
X142061984Y-93508199D01*
X141963200Y-93915800D01*
X141984790Y-94130584D01*
X142053638Y-94335177D01*
X142166292Y-94519317D01*
X142317101Y-94673768D01*
X142498500Y-94790783D01*
X142701392Y-94864492D01*
X142915600Y-94891200D01*
X143129759Y-94863915D01*
X143332477Y-94789660D01*
X143513590Y-94672157D01*
X143664014Y-94517299D01*
X143776208Y-94332850D01*
X143844546Y-94128061D01*
X143865600Y-93913200D01*
X143865600Y-93913202D01*
X143839867Y-93704872D01*
X143768409Y-93507496D01*
X143654812Y-93330976D01*
X143504774Y-93184169D01*
X143325825Y-93074440D01*
X142918100Y-92986100D01*
G37*
G04 #@! TO.C,R2*
G36*
X122473600Y-115841100D02*
X122473601Y-115841100D01*
X122263603Y-115861921D01*
X122063504Y-115928950D01*
X121883337Y-116038824D01*
X121732136Y-116186034D01*
X121617484Y-116363199D01*
X121518700Y-116770800D01*
X121518700Y-116770799D01*
X121540290Y-116985584D01*
X121609138Y-117190177D01*
X121721791Y-117374317D01*
X121872600Y-117528768D01*
X122054000Y-117645783D01*
X122256892Y-117719493D01*
X122471100Y-117746200D01*
X122685259Y-117718915D01*
X122887977Y-117644660D01*
X123069090Y-117527157D01*
X123219514Y-117372299D01*
X123331708Y-117187850D01*
X123400046Y-116983061D01*
X123421100Y-116768200D01*
X123421100Y-116768201D01*
X123395366Y-116559871D01*
X123323908Y-116362496D01*
X123210311Y-116185976D01*
X123060274Y-116039169D01*
X122881324Y-115929441D01*
X122473600Y-115841100D01*
G37*
G36*
X130101200Y-115848700D02*
X130101201Y-115848700D01*
X129891203Y-115869521D01*
X129691104Y-115936550D01*
X129510937Y-116046424D01*
X129359736Y-116193634D01*
X129245084Y-116370799D01*
X129146300Y-116778400D01*
X129167890Y-116993184D01*
X129236738Y-117197777D01*
X129349392Y-117381917D01*
X129500201Y-117536368D01*
X129681600Y-117653383D01*
X129884492Y-117727092D01*
X130098700Y-117753800D01*
X130312859Y-117726515D01*
X130515577Y-117652260D01*
X130696690Y-117534757D01*
X130847114Y-117379899D01*
X130959308Y-117195450D01*
X131027646Y-116990661D01*
X131048700Y-116775800D01*
X131048700Y-116775802D01*
X131022967Y-116567472D01*
X130951509Y-116370096D01*
X130837912Y-116193576D01*
X130687874Y-116046769D01*
X130508925Y-115937040D01*
X130101200Y-115848700D01*
G37*
G04 #@! TD*
D11*
G04 #@! TO.C,VQ2*
X178257200Y-101600000D03*
X173177200Y-101600000D03*
G04 #@! TD*
D12*
G04 #@! TO.C,R1*
X154236100Y-97743600D03*
X146616100Y-97743600D03*
G04 #@! TD*
G04 #@! TO.C,R3*
X146616100Y-93933600D03*
X154236100Y-93933600D03*
G04 #@! TD*
G04 #@! TO.C,C1*
X142918100Y-97743600D03*
X140124100Y-97743600D03*
G04 #@! TD*
G04 #@! TO.C,C2*
X133774100Y-93933600D03*
X136568100Y-93933600D03*
G04 #@! TD*
G04 #@! TO.C,C3*
X136568100Y-97743600D03*
X133774100Y-97743600D03*
G04 #@! TD*
G04 #@! TO.C,C4*
X140124100Y-93933600D03*
X142918100Y-93933600D03*
G04 #@! TD*
D13*
G04 #@! TO.C,U$2*
X166921100Y-118063600D03*
X164381100Y-118063600D03*
X161841100Y-118063600D03*
X159301100Y-118063600D03*
X156761100Y-118063600D03*
X154221100Y-118063600D03*
X151681100Y-118063600D03*
X150411100Y-115523600D03*
X149141100Y-118063600D03*
X147871100Y-115523600D03*
X146601100Y-118063600D03*
X144061100Y-118063600D03*
X141521100Y-118063600D03*
X138981100Y-118063600D03*
X136441100Y-116793600D03*
X136441100Y-114253600D03*
X136441100Y-111713600D03*
X136441100Y-109173600D03*
X136441100Y-106633600D03*
X136441100Y-104093600D03*
X138981100Y-102823600D03*
X141521100Y-102823600D03*
X144061100Y-102823600D03*
X146601100Y-102823600D03*
X149141100Y-102823600D03*
X151681100Y-102823600D03*
X154221100Y-102823600D03*
X156761100Y-102823600D03*
X159301100Y-102823600D03*
X161841100Y-102823600D03*
X164381100Y-102823600D03*
X166921100Y-102823600D03*
G04 #@! TD*
D14*
G04 #@! TO.C,J2*
X190500000Y-119815000D03*
X190500000Y-117315000D03*
X190500000Y-114815000D03*
X190500000Y-112315000D03*
X190500000Y-109815000D03*
D15*
X190500000Y-107315000D03*
G04 #@! TD*
D16*
G04 #@! TO.C,C14*
X177495200Y-117449600D03*
D17*
X174995200Y-117449600D03*
G04 #@! TD*
D18*
G04 #@! TO.C,Q1*
X128821100Y-97743600D03*
X128821100Y-102823600D03*
G04 #@! TD*
D19*
G04 #@! TO.C,LCD1*
X116121100Y-90123600D03*
X118661100Y-90123600D03*
X121201100Y-90123600D03*
X123741100Y-90123600D03*
X126281100Y-90123600D03*
X128821100Y-90123600D03*
X131361100Y-90123600D03*
X133901100Y-90123600D03*
X136441100Y-90123600D03*
X138981100Y-90123600D03*
X141521100Y-90123600D03*
X144061100Y-90123600D03*
X146601100Y-90123600D03*
X149141100Y-90123600D03*
X151681100Y-90123600D03*
X154221100Y-90123600D03*
G04 #@! TD*
D12*
G04 #@! TO.C,R2*
X130091100Y-116793600D03*
X122471100Y-116793600D03*
G04 #@! TD*
D20*
G04 #@! TO.C,Q2*
X127551100Y-110443600D03*
X126281100Y-108538600D03*
X125011100Y-110443600D03*
G04 #@! TD*
D10*
G04 #@! TO.C,R8*
G36*
X181329407Y-90695742D02*
X181360487Y-90700352D01*
X181390966Y-90707987D01*
X181420550Y-90718572D01*
X181448954Y-90732006D01*
X181475904Y-90748159D01*
X181501142Y-90766877D01*
X181524423Y-90787977D01*
X181545523Y-90811258D01*
X181564241Y-90836496D01*
X181580394Y-90863446D01*
X181593828Y-90891850D01*
X181604413Y-90921434D01*
X181612048Y-90951913D01*
X181616658Y-90982993D01*
X181618200Y-91014376D01*
X181618200Y-92199024D01*
X181616658Y-92230407D01*
X181612048Y-92261487D01*
X181604413Y-92291966D01*
X181593828Y-92321550D01*
X181580394Y-92349954D01*
X181564241Y-92376904D01*
X181545523Y-92402142D01*
X181524423Y-92425423D01*
X181501142Y-92446523D01*
X181475904Y-92465241D01*
X181448954Y-92481394D01*
X181420550Y-92494828D01*
X181390966Y-92505413D01*
X181360487Y-92513048D01*
X181329407Y-92517658D01*
X181298024Y-92519200D01*
X179788376Y-92519200D01*
X179756993Y-92517658D01*
X179725913Y-92513048D01*
X179695434Y-92505413D01*
X179665850Y-92494828D01*
X179637446Y-92481394D01*
X179610496Y-92465241D01*
X179585258Y-92446523D01*
X179561977Y-92425423D01*
X179540877Y-92402142D01*
X179522159Y-92376904D01*
X179506006Y-92349954D01*
X179492572Y-92321550D01*
X179481987Y-92291966D01*
X179474352Y-92261487D01*
X179469742Y-92230407D01*
X179468200Y-92199024D01*
X179468200Y-91014376D01*
X179469742Y-90982993D01*
X179474352Y-90951913D01*
X179481987Y-90921434D01*
X179492572Y-90891850D01*
X179506006Y-90863446D01*
X179522159Y-90836496D01*
X179540877Y-90811258D01*
X179561977Y-90787977D01*
X179585258Y-90766877D01*
X179610496Y-90748159D01*
X179637446Y-90732006D01*
X179665850Y-90718572D01*
X179695434Y-90707987D01*
X179725913Y-90700352D01*
X179756993Y-90695742D01*
X179788376Y-90694200D01*
X181298024Y-90694200D01*
X181329407Y-90695742D01*
X181329407Y-90695742D01*
G37*
D21*
X180543200Y-91606700D03*
D10*
G36*
X181329407Y-87720742D02*
X181360487Y-87725352D01*
X181390966Y-87732987D01*
X181420550Y-87743572D01*
X181448954Y-87757006D01*
X181475904Y-87773159D01*
X181501142Y-87791877D01*
X181524423Y-87812977D01*
X181545523Y-87836258D01*
X181564241Y-87861496D01*
X181580394Y-87888446D01*
X181593828Y-87916850D01*
X181604413Y-87946434D01*
X181612048Y-87976913D01*
X181616658Y-88007993D01*
X181618200Y-88039376D01*
X181618200Y-89224024D01*
X181616658Y-89255407D01*
X181612048Y-89286487D01*
X181604413Y-89316966D01*
X181593828Y-89346550D01*
X181580394Y-89374954D01*
X181564241Y-89401904D01*
X181545523Y-89427142D01*
X181524423Y-89450423D01*
X181501142Y-89471523D01*
X181475904Y-89490241D01*
X181448954Y-89506394D01*
X181420550Y-89519828D01*
X181390966Y-89530413D01*
X181360487Y-89538048D01*
X181329407Y-89542658D01*
X181298024Y-89544200D01*
X179788376Y-89544200D01*
X179756993Y-89542658D01*
X179725913Y-89538048D01*
X179695434Y-89530413D01*
X179665850Y-89519828D01*
X179637446Y-89506394D01*
X179610496Y-89490241D01*
X179585258Y-89471523D01*
X179561977Y-89450423D01*
X179540877Y-89427142D01*
X179522159Y-89401904D01*
X179506006Y-89374954D01*
X179492572Y-89346550D01*
X179481987Y-89316966D01*
X179474352Y-89286487D01*
X179469742Y-89255407D01*
X179468200Y-89224024D01*
X179468200Y-88039376D01*
X179469742Y-88007993D01*
X179474352Y-87976913D01*
X179481987Y-87946434D01*
X179492572Y-87916850D01*
X179506006Y-87888446D01*
X179522159Y-87861496D01*
X179540877Y-87836258D01*
X179561977Y-87812977D01*
X179585258Y-87791877D01*
X179610496Y-87773159D01*
X179637446Y-87757006D01*
X179665850Y-87743572D01*
X179695434Y-87732987D01*
X179725913Y-87725352D01*
X179756993Y-87720742D01*
X179788376Y-87719200D01*
X181298024Y-87719200D01*
X181329407Y-87720742D01*
X181329407Y-87720742D01*
G37*
D21*
X180543200Y-88631700D03*
G04 #@! TD*
M02*
