%TF.GenerationSoftware,KiCad,Pcbnew,(5.0.0)*%
%TF.CreationDate,2019-11-04T22:18:49+01:00*%
%TF.ProjectId,PSAVanCanBridge_v14,50534156616E43616E4272696467655F,rev?*%
%TF.SameCoordinates,Original*%
%TF.FileFunction,Legend,Top*%
%TF.FilePolarity,Positive*%
%FSLAX46Y46*%
G04 Gerber Fmt 4.6, Leading zero omitted, Abs format (unit mm)*
G04 Created by KiCad (PCBNEW (5.0.0)) date 11/04/19 22:18:49*
%MOMM*%
%LPD*%
G01*
G04 APERTURE LIST*
%ADD10C,0.100000*%
%ADD11C,0.120000*%
%ADD12C,0.150000*%
%ADD13C,0.152400*%
G04 APERTURE END LIST*
D10*
X83870857Y-90069142D02*
X83870857Y-89169142D01*
X84213714Y-89169142D01*
X84299428Y-89212000D01*
X84342285Y-89254857D01*
X84385142Y-89340571D01*
X84385142Y-89469142D01*
X84342285Y-89554857D01*
X84299428Y-89597714D01*
X84213714Y-89640571D01*
X83870857Y-89640571D01*
X84728000Y-90026285D02*
X84856571Y-90069142D01*
X85070857Y-90069142D01*
X85156571Y-90026285D01*
X85199428Y-89983428D01*
X85242285Y-89897714D01*
X85242285Y-89812000D01*
X85199428Y-89726285D01*
X85156571Y-89683428D01*
X85070857Y-89640571D01*
X84899428Y-89597714D01*
X84813714Y-89554857D01*
X84770857Y-89512000D01*
X84728000Y-89426285D01*
X84728000Y-89340571D01*
X84770857Y-89254857D01*
X84813714Y-89212000D01*
X84899428Y-89169142D01*
X85113714Y-89169142D01*
X85242285Y-89212000D01*
X85585142Y-89812000D02*
X86013714Y-89812000D01*
X85499428Y-90069142D02*
X85799428Y-89169142D01*
X86099428Y-90069142D01*
X86956571Y-89169142D02*
X87256571Y-90069142D01*
X87556571Y-89169142D01*
X87813714Y-89812000D02*
X88242285Y-89812000D01*
X87728000Y-90069142D02*
X88028000Y-89169142D01*
X88328000Y-90069142D01*
X88628000Y-90069142D02*
X88628000Y-89169142D01*
X89142285Y-90069142D01*
X89142285Y-89169142D01*
X89570857Y-89726285D02*
X90256571Y-89726285D01*
X91199428Y-89983428D02*
X91156571Y-90026285D01*
X91028000Y-90069142D01*
X90942285Y-90069142D01*
X90813714Y-90026285D01*
X90728000Y-89940571D01*
X90685142Y-89854857D01*
X90642285Y-89683428D01*
X90642285Y-89554857D01*
X90685142Y-89383428D01*
X90728000Y-89297714D01*
X90813714Y-89212000D01*
X90942285Y-89169142D01*
X91028000Y-89169142D01*
X91156571Y-89212000D01*
X91199428Y-89254857D01*
X91542285Y-89812000D02*
X91970857Y-89812000D01*
X91456571Y-90069142D02*
X91756571Y-89169142D01*
X92056571Y-90069142D01*
X92356571Y-90069142D02*
X92356571Y-89169142D01*
X92870857Y-90069142D01*
X92870857Y-89169142D01*
X94285142Y-89597714D02*
X94413714Y-89640571D01*
X94456571Y-89683428D01*
X94499428Y-89769142D01*
X94499428Y-89897714D01*
X94456571Y-89983428D01*
X94413714Y-90026285D01*
X94328000Y-90069142D01*
X93985142Y-90069142D01*
X93985142Y-89169142D01*
X94285142Y-89169142D01*
X94370857Y-89212000D01*
X94413714Y-89254857D01*
X94456571Y-89340571D01*
X94456571Y-89426285D01*
X94413714Y-89512000D01*
X94370857Y-89554857D01*
X94285142Y-89597714D01*
X93985142Y-89597714D01*
X94885142Y-90069142D02*
X94885142Y-89469142D01*
X94885142Y-89640571D02*
X94928000Y-89554857D01*
X94970857Y-89512000D01*
X95056571Y-89469142D01*
X95142285Y-89469142D01*
X95442285Y-90069142D02*
X95442285Y-89469142D01*
X95442285Y-89169142D02*
X95399428Y-89212000D01*
X95442285Y-89254857D01*
X95485142Y-89212000D01*
X95442285Y-89169142D01*
X95442285Y-89254857D01*
X96256571Y-90069142D02*
X96256571Y-89169142D01*
X96256571Y-90026285D02*
X96170857Y-90069142D01*
X95999428Y-90069142D01*
X95913714Y-90026285D01*
X95870857Y-89983428D01*
X95828000Y-89897714D01*
X95828000Y-89640571D01*
X95870857Y-89554857D01*
X95913714Y-89512000D01*
X95999428Y-89469142D01*
X96170857Y-89469142D01*
X96256571Y-89512000D01*
X97070857Y-89469142D02*
X97070857Y-90197714D01*
X97028000Y-90283428D01*
X96985142Y-90326285D01*
X96899428Y-90369142D01*
X96770857Y-90369142D01*
X96685142Y-90326285D01*
X97070857Y-90026285D02*
X96985142Y-90069142D01*
X96813714Y-90069142D01*
X96728000Y-90026285D01*
X96685142Y-89983428D01*
X96642285Y-89897714D01*
X96642285Y-89640571D01*
X96685142Y-89554857D01*
X96728000Y-89512000D01*
X96813714Y-89469142D01*
X96985142Y-89469142D01*
X97070857Y-89512000D01*
X97842285Y-90026285D02*
X97756571Y-90069142D01*
X97585142Y-90069142D01*
X97499428Y-90026285D01*
X97456571Y-89940571D01*
X97456571Y-89597714D01*
X97499428Y-89512000D01*
X97585142Y-89469142D01*
X97756571Y-89469142D01*
X97842285Y-89512000D01*
X97885142Y-89597714D01*
X97885142Y-89683428D01*
X97456571Y-89769142D01*
X98870857Y-89469142D02*
X99085142Y-90069142D01*
X99299428Y-89469142D01*
X100113714Y-90069142D02*
X99599428Y-90069142D01*
X99856571Y-90069142D02*
X99856571Y-89169142D01*
X99770857Y-89297714D01*
X99685142Y-89383428D01*
X99599428Y-89426285D01*
X100499428Y-89983428D02*
X100542285Y-90026285D01*
X100499428Y-90069142D01*
X100456571Y-90026285D01*
X100499428Y-89983428D01*
X100499428Y-90069142D01*
X101313714Y-89469142D02*
X101313714Y-90069142D01*
X101099428Y-89126285D02*
X100885142Y-89769142D01*
X101442285Y-89769142D01*
X102428000Y-89254857D02*
X102470857Y-89212000D01*
X102556571Y-89169142D01*
X102770857Y-89169142D01*
X102856571Y-89212000D01*
X102899428Y-89254857D01*
X102942285Y-89340571D01*
X102942285Y-89426285D01*
X102899428Y-89554857D01*
X102385142Y-90069142D01*
X102942285Y-90069142D01*
X103499428Y-89169142D02*
X103585142Y-89169142D01*
X103670857Y-89212000D01*
X103713714Y-89254857D01*
X103756571Y-89340571D01*
X103799428Y-89512000D01*
X103799428Y-89726285D01*
X103756571Y-89897714D01*
X103713714Y-89983428D01*
X103670857Y-90026285D01*
X103585142Y-90069142D01*
X103499428Y-90069142D01*
X103413714Y-90026285D01*
X103370857Y-89983428D01*
X103328000Y-89897714D01*
X103285142Y-89726285D01*
X103285142Y-89512000D01*
X103328000Y-89340571D01*
X103370857Y-89254857D01*
X103413714Y-89212000D01*
X103499428Y-89169142D01*
X104656571Y-90069142D02*
X104142285Y-90069142D01*
X104399428Y-90069142D02*
X104399428Y-89169142D01*
X104313714Y-89297714D01*
X104228000Y-89383428D01*
X104142285Y-89426285D01*
X105085142Y-90069142D02*
X105256571Y-90069142D01*
X105342285Y-90026285D01*
X105385142Y-89983428D01*
X105470857Y-89854857D01*
X105513714Y-89683428D01*
X105513714Y-89340571D01*
X105470857Y-89254857D01*
X105428000Y-89212000D01*
X105342285Y-89169142D01*
X105170857Y-89169142D01*
X105085142Y-89212000D01*
X105042285Y-89254857D01*
X104999428Y-89340571D01*
X104999428Y-89554857D01*
X105042285Y-89640571D01*
X105085142Y-89683428D01*
X105170857Y-89726285D01*
X105342285Y-89726285D01*
X105428000Y-89683428D01*
X105470857Y-89640571D01*
X105513714Y-89554857D01*
X105899428Y-89983428D02*
X105942285Y-90026285D01*
X105899428Y-90069142D01*
X105856571Y-90026285D01*
X105899428Y-89983428D01*
X105899428Y-90069142D01*
X106799428Y-90069142D02*
X106285142Y-90069142D01*
X106542285Y-90069142D02*
X106542285Y-89169142D01*
X106456571Y-89297714D01*
X106370857Y-89383428D01*
X106285142Y-89426285D01*
X107656571Y-90069142D02*
X107142285Y-90069142D01*
X107399428Y-90069142D02*
X107399428Y-89169142D01*
X107313714Y-89297714D01*
X107228000Y-89383428D01*
X107142285Y-89426285D01*
X108042285Y-89983428D02*
X108085142Y-90026285D01*
X108042285Y-90069142D01*
X107999428Y-90026285D01*
X108042285Y-89983428D01*
X108042285Y-90069142D01*
X108642285Y-89169142D02*
X108728000Y-89169142D01*
X108813714Y-89212000D01*
X108856571Y-89254857D01*
X108899428Y-89340571D01*
X108942285Y-89512000D01*
X108942285Y-89726285D01*
X108899428Y-89897714D01*
X108856571Y-89983428D01*
X108813714Y-90026285D01*
X108728000Y-90069142D01*
X108642285Y-90069142D01*
X108556571Y-90026285D01*
X108513714Y-89983428D01*
X108470857Y-89897714D01*
X108428000Y-89726285D01*
X108428000Y-89512000D01*
X108470857Y-89340571D01*
X108513714Y-89254857D01*
X108556571Y-89212000D01*
X108642285Y-89169142D01*
X109713714Y-89469142D02*
X109713714Y-90069142D01*
X109499428Y-89126285D02*
X109285142Y-89769142D01*
X109842285Y-89769142D01*
X110185142Y-89983428D02*
X110228000Y-90026285D01*
X110185142Y-90069142D01*
X110142285Y-90026285D01*
X110185142Y-89983428D01*
X110185142Y-90069142D01*
D11*
X71434000Y-90738000D02*
X71434000Y-88078000D01*
X68834000Y-90738000D02*
X71434000Y-90738000D01*
X68834000Y-88078000D02*
X71434000Y-88078000D01*
X68834000Y-90738000D02*
X68834000Y-88078000D01*
X67564000Y-90738000D02*
X66234000Y-90738000D01*
X66234000Y-90738000D02*
X66234000Y-89408000D01*
X71434000Y-87817000D02*
X71434000Y-85157000D01*
X68834000Y-87817000D02*
X71434000Y-87817000D01*
X68834000Y-85157000D02*
X71434000Y-85157000D01*
X68834000Y-87817000D02*
X68834000Y-85157000D01*
X67564000Y-87817000D02*
X66234000Y-87817000D01*
X66234000Y-87817000D02*
X66234000Y-86487000D01*
D12*
X52578000Y-56642000D02*
X67310000Y-56642000D01*
X52578000Y-68834000D02*
X52578000Y-56642000D01*
X67310000Y-68834000D02*
X52578000Y-68834000D01*
X67310000Y-56642000D02*
X67310000Y-68834000D01*
D11*
X111566000Y-77410000D02*
X108906000Y-77410000D01*
X111566000Y-85090000D02*
X111566000Y-77410000D01*
X108906000Y-85090000D02*
X108906000Y-77410000D01*
X111566000Y-85090000D02*
X108906000Y-85090000D01*
X111566000Y-86360000D02*
X111566000Y-87690000D01*
X111566000Y-87690000D02*
X110236000Y-87690000D01*
X67077000Y-71533936D02*
X67077000Y-72738064D01*
X65257000Y-71533936D02*
X65257000Y-72738064D01*
X85438064Y-57764000D02*
X84233936Y-57764000D01*
X85438064Y-59584000D02*
X84233936Y-59584000D01*
X85438064Y-68728000D02*
X84233936Y-68728000D01*
X85438064Y-66908000D02*
X84233936Y-66908000D01*
X97187936Y-76662000D02*
X98392064Y-76662000D01*
X97187936Y-74842000D02*
X98392064Y-74842000D01*
X97187936Y-74062000D02*
X98392064Y-74062000D01*
X97187936Y-72242000D02*
X98392064Y-72242000D01*
X97187936Y-69448000D02*
X98392064Y-69448000D01*
X97187936Y-71268000D02*
X98392064Y-71268000D01*
X97187936Y-68668000D02*
X98392064Y-68668000D01*
X97187936Y-66848000D02*
X98392064Y-66848000D01*
X103472064Y-66908000D02*
X102267936Y-66908000D01*
X103472064Y-68728000D02*
X102267936Y-68728000D01*
X103472064Y-71352666D02*
X102267936Y-71352666D01*
X103472064Y-69532666D02*
X102267936Y-69532666D01*
X103472064Y-72157332D02*
X102267936Y-72157332D01*
X103472064Y-73977332D02*
X102267936Y-73977332D01*
X64080000Y-73809000D02*
X64080000Y-70209000D01*
X64068478Y-73847478D02*
G75*
G02X59630000Y-72009000I-1838478J1838478D01*
G01*
X64068478Y-70170522D02*
G75*
G03X59630000Y-72009000I-1838478J-1838478D01*
G01*
X103472064Y-74782000D02*
X102267936Y-74782000D01*
X103472064Y-76602000D02*
X102267936Y-76602000D01*
X59280000Y-84023000D02*
G75*
G03X59280000Y-84023000I-3400000J0D01*
G01*
X61407522Y-84521522D02*
G75*
G03X63246000Y-88960000I1838478J-1838478D01*
G01*
X65084478Y-84521522D02*
G75*
G02X63246000Y-88960000I-1838478J-1838478D01*
G01*
X65046000Y-84510000D02*
X61446000Y-84510000D01*
X90518064Y-68728000D02*
X89313936Y-68728000D01*
X90518064Y-66908000D02*
X89313936Y-66908000D01*
X90518064Y-57764000D02*
X89313936Y-57764000D01*
X90518064Y-59584000D02*
X89313936Y-59584000D01*
D12*
X86571000Y-60213000D02*
X85171000Y-60213000D01*
X86571000Y-65313000D02*
X90721000Y-65313000D01*
X86571000Y-60163000D02*
X90721000Y-60163000D01*
X86571000Y-65313000D02*
X86571000Y-65168000D01*
X90721000Y-65313000D02*
X90721000Y-65168000D01*
X90721000Y-60163000D02*
X90721000Y-60308000D01*
X86571000Y-60163000D02*
X86571000Y-60213000D01*
D11*
X109853000Y-54302199D02*
X109453000Y-54302199D01*
X109653000Y-54102199D02*
X109653000Y-54502199D01*
X108828000Y-58453000D02*
X108088000Y-58453000D01*
X108995000Y-58413000D02*
X107921000Y-58413000D01*
X109122000Y-58373000D02*
X107794000Y-58373000D01*
X109226000Y-58333000D02*
X107690000Y-58333000D01*
X109317000Y-58293000D02*
X107599000Y-58293000D01*
X109398000Y-58253000D02*
X107518000Y-58253000D01*
X109471000Y-58213000D02*
X107445000Y-58213000D01*
X107618000Y-58173000D02*
X107378000Y-58173000D01*
X109538000Y-58173000D02*
X109298000Y-58173000D01*
X107618000Y-58133000D02*
X107316000Y-58133000D01*
X109600000Y-58133000D02*
X109298000Y-58133000D01*
X107618000Y-58093000D02*
X107258000Y-58093000D01*
X109658000Y-58093000D02*
X109298000Y-58093000D01*
X107618000Y-58053000D02*
X107204000Y-58053000D01*
X109712000Y-58053000D02*
X109298000Y-58053000D01*
X107618000Y-58013000D02*
X107154000Y-58013000D01*
X109762000Y-58013000D02*
X109298000Y-58013000D01*
X107618000Y-57973000D02*
X107107000Y-57973000D01*
X109809000Y-57973000D02*
X109298000Y-57973000D01*
X107618000Y-57933000D02*
X107062000Y-57933000D01*
X109854000Y-57933000D02*
X109298000Y-57933000D01*
X107618000Y-57893000D02*
X107020000Y-57893000D01*
X109896000Y-57893000D02*
X109298000Y-57893000D01*
X107618000Y-57853000D02*
X106980000Y-57853000D01*
X109936000Y-57853000D02*
X109298000Y-57853000D01*
X107618000Y-57813000D02*
X106942000Y-57813000D01*
X109974000Y-57813000D02*
X109298000Y-57813000D01*
X107618000Y-57773000D02*
X106906000Y-57773000D01*
X110010000Y-57773000D02*
X109298000Y-57773000D01*
X107618000Y-57733000D02*
X106871000Y-57733000D01*
X110045000Y-57733000D02*
X109298000Y-57733000D01*
X107618000Y-57693000D02*
X106839000Y-57693000D01*
X110077000Y-57693000D02*
X109298000Y-57693000D01*
X107618000Y-57653000D02*
X106808000Y-57653000D01*
X110108000Y-57653000D02*
X109298000Y-57653000D01*
X107618000Y-57613000D02*
X106778000Y-57613000D01*
X110138000Y-57613000D02*
X109298000Y-57613000D01*
X107618000Y-57573000D02*
X106750000Y-57573000D01*
X110166000Y-57573000D02*
X109298000Y-57573000D01*
X107618000Y-57533000D02*
X106723000Y-57533000D01*
X110193000Y-57533000D02*
X109298000Y-57533000D01*
X107618000Y-57493000D02*
X106698000Y-57493000D01*
X110218000Y-57493000D02*
X109298000Y-57493000D01*
X107618000Y-57453000D02*
X106673000Y-57453000D01*
X110243000Y-57453000D02*
X109298000Y-57453000D01*
X107618000Y-57413000D02*
X106650000Y-57413000D01*
X110266000Y-57413000D02*
X109298000Y-57413000D01*
X107618000Y-57373000D02*
X106628000Y-57373000D01*
X110288000Y-57373000D02*
X109298000Y-57373000D01*
X107618000Y-57333000D02*
X106607000Y-57333000D01*
X110309000Y-57333000D02*
X109298000Y-57333000D01*
X107618000Y-57293000D02*
X106588000Y-57293000D01*
X110328000Y-57293000D02*
X109298000Y-57293000D01*
X107618000Y-57253000D02*
X106569000Y-57253000D01*
X110347000Y-57253000D02*
X109298000Y-57253000D01*
X107618000Y-57213000D02*
X106551000Y-57213000D01*
X110365000Y-57213000D02*
X109298000Y-57213000D01*
X107618000Y-57173000D02*
X106534000Y-57173000D01*
X110382000Y-57173000D02*
X109298000Y-57173000D01*
X107618000Y-57133000D02*
X106518000Y-57133000D01*
X110398000Y-57133000D02*
X109298000Y-57133000D01*
X107618000Y-57093000D02*
X106504000Y-57093000D01*
X110412000Y-57093000D02*
X109298000Y-57093000D01*
X107618000Y-57052000D02*
X106490000Y-57052000D01*
X110426000Y-57052000D02*
X109298000Y-57052000D01*
X107618000Y-57012000D02*
X106476000Y-57012000D01*
X110440000Y-57012000D02*
X109298000Y-57012000D01*
X107618000Y-56972000D02*
X106464000Y-56972000D01*
X110452000Y-56972000D02*
X109298000Y-56972000D01*
X107618000Y-56932000D02*
X106453000Y-56932000D01*
X110463000Y-56932000D02*
X109298000Y-56932000D01*
X107618000Y-56892000D02*
X106442000Y-56892000D01*
X110474000Y-56892000D02*
X109298000Y-56892000D01*
X107618000Y-56852000D02*
X106433000Y-56852000D01*
X110483000Y-56852000D02*
X109298000Y-56852000D01*
X107618000Y-56812000D02*
X106424000Y-56812000D01*
X110492000Y-56812000D02*
X109298000Y-56812000D01*
X107618000Y-56772000D02*
X106416000Y-56772000D01*
X110500000Y-56772000D02*
X109298000Y-56772000D01*
X107618000Y-56732000D02*
X106408000Y-56732000D01*
X110508000Y-56732000D02*
X109298000Y-56732000D01*
X107618000Y-56692000D02*
X106402000Y-56692000D01*
X110514000Y-56692000D02*
X109298000Y-56692000D01*
X107618000Y-56652000D02*
X106396000Y-56652000D01*
X110520000Y-56652000D02*
X109298000Y-56652000D01*
X107618000Y-56612000D02*
X106391000Y-56612000D01*
X110525000Y-56612000D02*
X109298000Y-56612000D01*
X107618000Y-56572000D02*
X106387000Y-56572000D01*
X110529000Y-56572000D02*
X109298000Y-56572000D01*
X110532000Y-56532000D02*
X106384000Y-56532000D01*
X110535000Y-56492000D02*
X106381000Y-56492000D01*
X110537000Y-56452000D02*
X106379000Y-56452000D01*
X110538000Y-56412000D02*
X106378000Y-56412000D01*
X110538000Y-56372000D02*
X106378000Y-56372000D01*
X110578000Y-56372000D02*
G75*
G03X110578000Y-56372000I-2120000J0D01*
G01*
X97370000Y-57642000D02*
G75*
G03X97370000Y-57642000I-2120000J0D01*
G01*
X97330000Y-57642000D02*
X93170000Y-57642000D01*
X97330000Y-57682000D02*
X93170000Y-57682000D01*
X97329000Y-57722000D02*
X93171000Y-57722000D01*
X97327000Y-57762000D02*
X93173000Y-57762000D01*
X97324000Y-57802000D02*
X93176000Y-57802000D01*
X97321000Y-57842000D02*
X96090000Y-57842000D01*
X94410000Y-57842000D02*
X93179000Y-57842000D01*
X97317000Y-57882000D02*
X96090000Y-57882000D01*
X94410000Y-57882000D02*
X93183000Y-57882000D01*
X97312000Y-57922000D02*
X96090000Y-57922000D01*
X94410000Y-57922000D02*
X93188000Y-57922000D01*
X97306000Y-57962000D02*
X96090000Y-57962000D01*
X94410000Y-57962000D02*
X93194000Y-57962000D01*
X97300000Y-58002000D02*
X96090000Y-58002000D01*
X94410000Y-58002000D02*
X93200000Y-58002000D01*
X97292000Y-58042000D02*
X96090000Y-58042000D01*
X94410000Y-58042000D02*
X93208000Y-58042000D01*
X97284000Y-58082000D02*
X96090000Y-58082000D01*
X94410000Y-58082000D02*
X93216000Y-58082000D01*
X97275000Y-58122000D02*
X96090000Y-58122000D01*
X94410000Y-58122000D02*
X93225000Y-58122000D01*
X97266000Y-58162000D02*
X96090000Y-58162000D01*
X94410000Y-58162000D02*
X93234000Y-58162000D01*
X97255000Y-58202000D02*
X96090000Y-58202000D01*
X94410000Y-58202000D02*
X93245000Y-58202000D01*
X97244000Y-58242000D02*
X96090000Y-58242000D01*
X94410000Y-58242000D02*
X93256000Y-58242000D01*
X97232000Y-58282000D02*
X96090000Y-58282000D01*
X94410000Y-58282000D02*
X93268000Y-58282000D01*
X97218000Y-58322000D02*
X96090000Y-58322000D01*
X94410000Y-58322000D02*
X93282000Y-58322000D01*
X97204000Y-58363000D02*
X96090000Y-58363000D01*
X94410000Y-58363000D02*
X93296000Y-58363000D01*
X97190000Y-58403000D02*
X96090000Y-58403000D01*
X94410000Y-58403000D02*
X93310000Y-58403000D01*
X97174000Y-58443000D02*
X96090000Y-58443000D01*
X94410000Y-58443000D02*
X93326000Y-58443000D01*
X97157000Y-58483000D02*
X96090000Y-58483000D01*
X94410000Y-58483000D02*
X93343000Y-58483000D01*
X97139000Y-58523000D02*
X96090000Y-58523000D01*
X94410000Y-58523000D02*
X93361000Y-58523000D01*
X97120000Y-58563000D02*
X96090000Y-58563000D01*
X94410000Y-58563000D02*
X93380000Y-58563000D01*
X97101000Y-58603000D02*
X96090000Y-58603000D01*
X94410000Y-58603000D02*
X93399000Y-58603000D01*
X97080000Y-58643000D02*
X96090000Y-58643000D01*
X94410000Y-58643000D02*
X93420000Y-58643000D01*
X97058000Y-58683000D02*
X96090000Y-58683000D01*
X94410000Y-58683000D02*
X93442000Y-58683000D01*
X97035000Y-58723000D02*
X96090000Y-58723000D01*
X94410000Y-58723000D02*
X93465000Y-58723000D01*
X97010000Y-58763000D02*
X96090000Y-58763000D01*
X94410000Y-58763000D02*
X93490000Y-58763000D01*
X96985000Y-58803000D02*
X96090000Y-58803000D01*
X94410000Y-58803000D02*
X93515000Y-58803000D01*
X96958000Y-58843000D02*
X96090000Y-58843000D01*
X94410000Y-58843000D02*
X93542000Y-58843000D01*
X96930000Y-58883000D02*
X96090000Y-58883000D01*
X94410000Y-58883000D02*
X93570000Y-58883000D01*
X96900000Y-58923000D02*
X96090000Y-58923000D01*
X94410000Y-58923000D02*
X93600000Y-58923000D01*
X96869000Y-58963000D02*
X96090000Y-58963000D01*
X94410000Y-58963000D02*
X93631000Y-58963000D01*
X96837000Y-59003000D02*
X96090000Y-59003000D01*
X94410000Y-59003000D02*
X93663000Y-59003000D01*
X96802000Y-59043000D02*
X96090000Y-59043000D01*
X94410000Y-59043000D02*
X93698000Y-59043000D01*
X96766000Y-59083000D02*
X96090000Y-59083000D01*
X94410000Y-59083000D02*
X93734000Y-59083000D01*
X96728000Y-59123000D02*
X96090000Y-59123000D01*
X94410000Y-59123000D02*
X93772000Y-59123000D01*
X96688000Y-59163000D02*
X96090000Y-59163000D01*
X94410000Y-59163000D02*
X93812000Y-59163000D01*
X96646000Y-59203000D02*
X96090000Y-59203000D01*
X94410000Y-59203000D02*
X93854000Y-59203000D01*
X96601000Y-59243000D02*
X96090000Y-59243000D01*
X94410000Y-59243000D02*
X93899000Y-59243000D01*
X96554000Y-59283000D02*
X96090000Y-59283000D01*
X94410000Y-59283000D02*
X93946000Y-59283000D01*
X96504000Y-59323000D02*
X96090000Y-59323000D01*
X94410000Y-59323000D02*
X93996000Y-59323000D01*
X96450000Y-59363000D02*
X96090000Y-59363000D01*
X94410000Y-59363000D02*
X94050000Y-59363000D01*
X96392000Y-59403000D02*
X96090000Y-59403000D01*
X94410000Y-59403000D02*
X94108000Y-59403000D01*
X96330000Y-59443000D02*
X96090000Y-59443000D01*
X94410000Y-59443000D02*
X94170000Y-59443000D01*
X96263000Y-59483000D02*
X94237000Y-59483000D01*
X96190000Y-59523000D02*
X94310000Y-59523000D01*
X96109000Y-59563000D02*
X94391000Y-59563000D01*
X96018000Y-59603000D02*
X94482000Y-59603000D01*
X95914000Y-59643000D02*
X94586000Y-59643000D01*
X95787000Y-59683000D02*
X94713000Y-59683000D01*
X95620000Y-59723000D02*
X94880000Y-59723000D01*
X96445000Y-55372199D02*
X96445000Y-55772199D01*
X96645000Y-55572199D02*
X96245000Y-55572199D01*
X103886000Y-51502000D02*
X103886000Y-54162000D01*
X103886000Y-51502000D02*
X98746000Y-51502000D01*
X98746000Y-51502000D02*
X98746000Y-54162000D01*
X103886000Y-54162000D02*
X98746000Y-54162000D01*
X106486000Y-54162000D02*
X105156000Y-54162000D01*
X106486000Y-52832000D02*
X106486000Y-54162000D01*
X72646000Y-56657000D02*
X79046000Y-56657000D01*
X72646000Y-61707000D02*
X79046000Y-61707000D01*
X72646000Y-61707000D02*
G75*
G02X72646000Y-56657000I0J2525000D01*
G01*
X79046000Y-61707000D02*
G75*
G03X79046000Y-56657000I0J2525000D01*
G01*
X108136000Y-61514000D02*
X108736000Y-61214000D01*
X108136000Y-60914000D02*
X108136000Y-61514000D01*
X108736000Y-61214000D02*
X108136000Y-60914000D01*
X111826000Y-74034000D02*
X111826000Y-73714000D01*
X115246000Y-74034000D02*
X111826000Y-74034000D01*
X115326000Y-73714000D02*
X115246000Y-74034000D01*
X115246000Y-73394000D02*
X115326000Y-73714000D01*
X111826000Y-73394000D02*
X115246000Y-73394000D01*
X111826000Y-73714000D02*
X111826000Y-73394000D01*
X110826000Y-72384000D02*
X110826000Y-72544000D01*
X111826000Y-71534000D02*
X111826000Y-71214000D01*
X115246000Y-71534000D02*
X111826000Y-71534000D01*
X115326000Y-71214000D02*
X115246000Y-71534000D01*
X115246000Y-70894000D02*
X115326000Y-71214000D01*
X111826000Y-70894000D02*
X115246000Y-70894000D01*
X111826000Y-71214000D02*
X111826000Y-70894000D01*
X110826000Y-69884000D02*
X110826000Y-70044000D01*
X111826000Y-69034000D02*
X111826000Y-68714000D01*
X115246000Y-69034000D02*
X111826000Y-69034000D01*
X115326000Y-68714000D02*
X115246000Y-69034000D01*
X115246000Y-68394000D02*
X115326000Y-68714000D01*
X111826000Y-68394000D02*
X115246000Y-68394000D01*
X111826000Y-68714000D02*
X111826000Y-68394000D01*
X110826000Y-67384000D02*
X110826000Y-67544000D01*
X111826000Y-66534000D02*
X111826000Y-66214000D01*
X115246000Y-66534000D02*
X111826000Y-66534000D01*
X115326000Y-66214000D02*
X115246000Y-66534000D01*
X115246000Y-65894000D02*
X115326000Y-66214000D01*
X111826000Y-65894000D02*
X115246000Y-65894000D01*
X111826000Y-66214000D02*
X111826000Y-65894000D01*
X110826000Y-64884000D02*
X110826000Y-65044000D01*
X111826000Y-64034000D02*
X111826000Y-63714000D01*
X115246000Y-64034000D02*
X111826000Y-64034000D01*
X115326000Y-63714000D02*
X115246000Y-64034000D01*
X115246000Y-63394000D02*
X115326000Y-63714000D01*
X111826000Y-63394000D02*
X115246000Y-63394000D01*
X111826000Y-63714000D02*
X111826000Y-63394000D01*
X110826000Y-62384000D02*
X110826000Y-62544000D01*
X111826000Y-61534000D02*
X111826000Y-61214000D01*
X115246000Y-61534000D02*
X111826000Y-61534000D01*
X115326000Y-61214000D02*
X115246000Y-61534000D01*
X115246000Y-60894000D02*
X115326000Y-61214000D01*
X111826000Y-60894000D02*
X115246000Y-60894000D01*
X111826000Y-61214000D02*
X111826000Y-60894000D01*
X111826000Y-59824000D02*
X111826000Y-75104000D01*
X110826000Y-75104000D02*
X110826000Y-76324000D01*
X115826000Y-75104000D02*
X110826000Y-75104000D01*
X115826000Y-76324000D02*
X115826000Y-75104000D01*
X110826000Y-59824000D02*
X110826000Y-58604000D01*
X115826000Y-59824000D02*
X110826000Y-59824000D01*
X115826000Y-58604000D02*
X115826000Y-59824000D01*
X108626000Y-75104000D02*
X110826000Y-75104000D01*
X108626000Y-76324000D02*
X108626000Y-75104000D01*
X117046000Y-76324000D02*
X108626000Y-76324000D01*
X117046000Y-58604000D02*
X117046000Y-76324000D01*
X108626000Y-58604000D02*
X117046000Y-58604000D01*
X108626000Y-59824000D02*
X108626000Y-58604000D01*
X110826000Y-59824000D02*
X108626000Y-59824000D01*
X107844000Y-73819936D02*
X107844000Y-75024064D01*
X106024000Y-73819936D02*
X106024000Y-75024064D01*
X106024000Y-68485936D02*
X106024000Y-69690064D01*
X107844000Y-68485936D02*
X107844000Y-69690064D01*
X98420000Y-57474000D02*
X98420000Y-56374000D01*
X98150000Y-57474000D02*
X98420000Y-57474000D01*
X98150000Y-58974000D02*
X98150000Y-57474000D01*
X104780000Y-57474000D02*
X104780000Y-54644000D01*
X105050000Y-57474000D02*
X104780000Y-57474000D01*
X105050000Y-58974000D02*
X105050000Y-57474000D01*
X55658936Y-70845000D02*
X56863064Y-70845000D01*
X55658936Y-72665000D02*
X56863064Y-72665000D01*
X79153936Y-64664000D02*
X80358064Y-64664000D01*
X79153936Y-62844000D02*
X80358064Y-62844000D01*
X72484064Y-64664000D02*
X71279936Y-64664000D01*
X72484064Y-62844000D02*
X71279936Y-62844000D01*
D12*
X86571000Y-69357000D02*
X85171000Y-69357000D01*
X86571000Y-74457000D02*
X90721000Y-74457000D01*
X86571000Y-69307000D02*
X90721000Y-69307000D01*
X86571000Y-74457000D02*
X86571000Y-74312000D01*
X90721000Y-74457000D02*
X90721000Y-74312000D01*
X90721000Y-69307000D02*
X90721000Y-69452000D01*
X86571000Y-69307000D02*
X86571000Y-69357000D01*
D11*
X62897936Y-81005000D02*
X64102064Y-81005000D01*
X62897936Y-82825000D02*
X64102064Y-82825000D01*
D13*
X79171800Y-65659000D02*
X79171800Y-75730313D01*
X72085200Y-76062000D02*
G75*
G02X71704200Y-75681000I0J381000D01*
G01*
X79171800Y-65659000D02*
G75*
G03X78790800Y-65278000I-381000J0D01*
G01*
X78790800Y-76062000D02*
G75*
G03X79171800Y-75681000I0J381000D01*
G01*
X71704200Y-65659000D02*
G75*
G02X72085200Y-65278000I381000J0D01*
G01*
X71704200Y-65659000D02*
X71704200Y-75730313D01*
X72085200Y-76062000D02*
X78790800Y-76062000D01*
X78790800Y-65278000D02*
X72085200Y-65278000D01*
X74168000Y-65278000D02*
G75*
G03X76708000Y-65278000I1270000J0D01*
G01*
D10*
G36*
X71577200Y-65786000D02*
X71577200Y-66294000D01*
X71704200Y-66294000D01*
X71704200Y-65786000D01*
X71577200Y-65786000D01*
G37*
G36*
X71577200Y-67056000D02*
X71577200Y-67564000D01*
X71704200Y-67564000D01*
X71704200Y-67056000D01*
X71577200Y-67056000D01*
G37*
G36*
X71577200Y-68326000D02*
X71577200Y-68834000D01*
X71704200Y-68834000D01*
X71704200Y-68326000D01*
X71577200Y-68326000D01*
G37*
G36*
X71577200Y-69596000D02*
X71577200Y-70104000D01*
X71704200Y-70104000D01*
X71704200Y-69596000D01*
X71577200Y-69596000D01*
G37*
G36*
X71577200Y-70866000D02*
X71577200Y-71374000D01*
X71704200Y-71374000D01*
X71704200Y-70866000D01*
X71577200Y-70866000D01*
G37*
G36*
X71577200Y-72136000D02*
X71577200Y-72644000D01*
X71704200Y-72644000D01*
X71704200Y-72136000D01*
X71577200Y-72136000D01*
G37*
G36*
X71577200Y-73406000D02*
X71577200Y-73914000D01*
X71704200Y-73914000D01*
X71704200Y-73406000D01*
X71577200Y-73406000D01*
G37*
G36*
X71577200Y-74676000D02*
X71577200Y-75184000D01*
X71704200Y-75184000D01*
X71704200Y-74676000D01*
X71577200Y-74676000D01*
G37*
G36*
X79171800Y-65786000D02*
X79171800Y-66294000D01*
X79298800Y-66294000D01*
X79298800Y-65786000D01*
X79171800Y-65786000D01*
G37*
G36*
X79171800Y-67056000D02*
X79171800Y-67564000D01*
X79298800Y-67564000D01*
X79298800Y-67056000D01*
X79171800Y-67056000D01*
G37*
G36*
X79171800Y-68326000D02*
X79171800Y-68834000D01*
X79298800Y-68834000D01*
X79298800Y-68326000D01*
X79171800Y-68326000D01*
G37*
G36*
X79171800Y-69596000D02*
X79171800Y-70104000D01*
X79298800Y-70104000D01*
X79298800Y-69596000D01*
X79171800Y-69596000D01*
G37*
G36*
X79171800Y-70866000D02*
X79171800Y-71374000D01*
X79298800Y-71374000D01*
X79298800Y-70866000D01*
X79171800Y-70866000D01*
G37*
G36*
X79171800Y-72136000D02*
X79171800Y-72644000D01*
X79298800Y-72644000D01*
X79298800Y-72136000D01*
X79171800Y-72136000D01*
G37*
G36*
X79171800Y-73406000D02*
X79171800Y-73914000D01*
X79298800Y-73914000D01*
X79298800Y-73406000D01*
X79171800Y-73406000D01*
G37*
G36*
X79171800Y-74676000D02*
X79171800Y-75184000D01*
X79298800Y-75184000D01*
X79298800Y-74676000D01*
X79171800Y-74676000D01*
G37*
D12*
X76900000Y-85149000D02*
X76880000Y-85139000D01*
X76950000Y-85169000D02*
X76900000Y-85149000D01*
X76980000Y-85189000D02*
X76950000Y-85169000D01*
X76960000Y-85189000D02*
X76980000Y-85189000D01*
X76950000Y-85189000D02*
X76960000Y-85189000D01*
X76930000Y-85179000D02*
X76950000Y-85189000D01*
X76900000Y-85159000D02*
X76930000Y-85179000D01*
X76920000Y-85179000D02*
X76900000Y-85159000D01*
X76390000Y-86249000D02*
X76350000Y-86239000D01*
X76370000Y-86249000D02*
X76390000Y-86249000D01*
X76340000Y-86239000D02*
X76370000Y-86249000D01*
X76280000Y-86249000D02*
X76340000Y-86239000D01*
X76320000Y-86249000D02*
X76280000Y-86249000D01*
X76340000Y-86259000D02*
X76320000Y-86249000D01*
X76370000Y-86269000D02*
X76340000Y-86259000D01*
X76410000Y-86279000D02*
X76370000Y-86269000D01*
X76730000Y-86949000D02*
X76410000Y-86279000D01*
X76780000Y-87089000D02*
X76730000Y-86949000D01*
X76780000Y-87159000D02*
X76780000Y-87089000D01*
X76760000Y-87259000D02*
X76780000Y-87159000D01*
X76670000Y-87359000D02*
X76760000Y-87259000D01*
X76520000Y-87459000D02*
X76670000Y-87359000D01*
X76430000Y-87519000D02*
X76520000Y-87459000D01*
X76320000Y-87559000D02*
X76430000Y-87519000D01*
X76250000Y-87559000D02*
X76320000Y-87559000D01*
X76180000Y-87529000D02*
X76250000Y-87559000D01*
X76120000Y-87479000D02*
X76180000Y-87529000D01*
X75790000Y-87089000D02*
X76120000Y-87479000D01*
X75730000Y-87019000D02*
X75790000Y-87089000D01*
X75680000Y-86919000D02*
X75730000Y-87019000D01*
X75660000Y-86829000D02*
X75680000Y-86919000D01*
X75680000Y-86779000D02*
X75660000Y-86829000D01*
X75720000Y-86719000D02*
X75680000Y-86779000D01*
X75780000Y-86689000D02*
X75720000Y-86719000D01*
X76190000Y-86519000D02*
X75780000Y-86689000D01*
X76230000Y-86499000D02*
X76190000Y-86519000D01*
X76250000Y-86459000D02*
X76230000Y-86499000D01*
X76270000Y-86349000D02*
X76250000Y-86459000D01*
X76270000Y-86289000D02*
X76270000Y-86349000D01*
X76810000Y-85109000D02*
X76860000Y-85129000D01*
X76760000Y-85089000D02*
X76810000Y-85109000D01*
X76710000Y-85079000D02*
X76760000Y-85089000D01*
X76640000Y-85069000D02*
X76710000Y-85079000D01*
X76570000Y-85079000D02*
X76640000Y-85069000D01*
X76500000Y-85099000D02*
X76570000Y-85079000D01*
X76430000Y-85129000D02*
X76500000Y-85099000D01*
X76370000Y-85179000D02*
X76430000Y-85129000D01*
X76330000Y-85239000D02*
X76370000Y-85179000D01*
X76290000Y-85309000D02*
X76330000Y-85239000D01*
X76230000Y-85379000D02*
X76290000Y-85309000D01*
X76140000Y-85379000D02*
X76230000Y-85379000D01*
X76060000Y-85319000D02*
X76140000Y-85379000D01*
X75990000Y-85249000D02*
X76060000Y-85319000D01*
X75920000Y-85179000D02*
X75990000Y-85249000D01*
X75850000Y-85069000D02*
X75920000Y-85179000D01*
X75780000Y-84949000D02*
X75850000Y-85069000D01*
X74940000Y-84679000D02*
X75780000Y-84949000D01*
X74850000Y-84649000D02*
X74940000Y-84679000D01*
X74730000Y-84669000D02*
X74850000Y-84649000D01*
X74620000Y-84689000D02*
X74730000Y-84669000D01*
X74540000Y-84709000D02*
X74620000Y-84689000D01*
X74430000Y-84739000D02*
X74540000Y-84709000D01*
X74340000Y-84769000D02*
X74430000Y-84739000D01*
X74260000Y-84829000D02*
X74340000Y-84769000D01*
X74200000Y-84899000D02*
X74260000Y-84829000D01*
X74150000Y-84959000D02*
X74200000Y-84899000D01*
X74080000Y-84999000D02*
X74150000Y-84959000D01*
X73880000Y-85079000D02*
X74080000Y-84999000D01*
X73790000Y-85129000D02*
X73880000Y-85079000D01*
X73790000Y-85139000D02*
X73790000Y-85129000D01*
X73870000Y-85259000D02*
X73790000Y-85139000D01*
X73930000Y-85339000D02*
X73870000Y-85259000D01*
X73970000Y-85379000D02*
X73930000Y-85339000D01*
X74040000Y-85419000D02*
X73970000Y-85379000D01*
X74120000Y-85329000D02*
X74040000Y-85419000D01*
X74190000Y-85299000D02*
X74120000Y-85329000D01*
X74240000Y-85289000D02*
X74190000Y-85299000D01*
X74300000Y-85289000D02*
X74240000Y-85289000D01*
X74360000Y-85299000D02*
X74300000Y-85289000D01*
X74430000Y-85319000D02*
X74360000Y-85299000D01*
X74480000Y-85339000D02*
X74430000Y-85319000D01*
X74530000Y-85389000D02*
X74480000Y-85339000D01*
X74560000Y-85449000D02*
X74530000Y-85389000D01*
X74570000Y-85519000D02*
X74560000Y-85449000D01*
X74550000Y-85569000D02*
X74570000Y-85519000D01*
X74520000Y-85619000D02*
X74550000Y-85569000D01*
X74440000Y-85659000D02*
X74520000Y-85619000D01*
X74360000Y-85679000D02*
X74440000Y-85659000D01*
X74290000Y-85679000D02*
X74360000Y-85679000D01*
X74210000Y-85669000D02*
X74290000Y-85679000D01*
X74130000Y-85659000D02*
X74210000Y-85669000D01*
X74080000Y-85679000D02*
X74130000Y-85659000D01*
X74160000Y-85799000D02*
X74080000Y-85679000D01*
X74220000Y-85859000D02*
X74160000Y-85799000D01*
X74240000Y-85869000D02*
X74220000Y-85859000D01*
X74280000Y-85869000D02*
X74240000Y-85869000D01*
X74390000Y-85819000D02*
X74280000Y-85869000D01*
X74470000Y-85809000D02*
X74390000Y-85819000D01*
X74510000Y-85819000D02*
X74470000Y-85809000D01*
X74570000Y-85859000D02*
X74510000Y-85819000D01*
X74600000Y-85899000D02*
X74570000Y-85859000D01*
X74590000Y-85959000D02*
X74600000Y-85899000D01*
X74580000Y-85999000D02*
X74590000Y-85959000D01*
X74520000Y-86099000D02*
X74580000Y-85999000D01*
X74510000Y-86129000D02*
X74520000Y-86099000D01*
X74430000Y-86219000D02*
X74510000Y-86129000D01*
X74380000Y-86259000D02*
X74430000Y-86219000D01*
X74320000Y-86239000D02*
X74380000Y-86259000D01*
X73590000Y-85859000D02*
X74320000Y-86239000D01*
X73510000Y-85829000D02*
X73590000Y-85859000D01*
X73350000Y-85769000D02*
X73510000Y-85829000D01*
X73220000Y-85739000D02*
X73350000Y-85769000D01*
X73100000Y-85719000D02*
X73220000Y-85739000D01*
X73000000Y-85719000D02*
X73100000Y-85719000D01*
X72910000Y-85739000D02*
X73000000Y-85719000D01*
X72790000Y-85769000D02*
X72910000Y-85739000D01*
X72670000Y-85829000D02*
X72790000Y-85769000D01*
X72600000Y-85889000D02*
X72670000Y-85829000D01*
X72590000Y-85919000D02*
X72600000Y-85889000D01*
X72630000Y-86049000D02*
X72590000Y-85919000D01*
X72700000Y-86039000D02*
X72630000Y-86049000D01*
X72740000Y-86039000D02*
X72700000Y-86039000D01*
X72790000Y-86039000D02*
X72740000Y-86039000D01*
X72850000Y-86059000D02*
X72790000Y-86039000D01*
X72880000Y-86089000D02*
X72850000Y-86059000D01*
X72900000Y-86109000D02*
X72880000Y-86089000D01*
X72930000Y-86149000D02*
X72900000Y-86109000D01*
X72970000Y-86219000D02*
X72930000Y-86149000D01*
X73040000Y-86219000D02*
X72970000Y-86219000D01*
X73120000Y-86229000D02*
X73040000Y-86219000D01*
X73190000Y-86259000D02*
X73120000Y-86229000D01*
X73240000Y-86289000D02*
X73190000Y-86259000D01*
X73280000Y-86319000D02*
X73240000Y-86289000D01*
X73310000Y-86349000D02*
X73280000Y-86319000D01*
X73440000Y-86479000D02*
X73310000Y-86349000D01*
X73390000Y-86579000D02*
X73430000Y-86529000D01*
X73430000Y-86559000D02*
X73390000Y-86579000D01*
X73440000Y-86489000D02*
X73430000Y-86559000D01*
X73410000Y-86449000D02*
X73440000Y-86489000D01*
X73180000Y-86619000D02*
X73370000Y-86589000D01*
X72720000Y-86729000D02*
X73180000Y-86619000D01*
X72590000Y-86779000D02*
X72720000Y-86729000D01*
X72540000Y-86829000D02*
X72590000Y-86779000D01*
X72500000Y-86889000D02*
X72540000Y-86829000D01*
X72460000Y-86979000D02*
X72500000Y-86889000D01*
X72460000Y-87059000D02*
X72460000Y-86979000D01*
X72470000Y-87109000D02*
X72460000Y-87059000D01*
X72520000Y-87219000D02*
X72470000Y-87109000D01*
X72570000Y-87189000D02*
X72520000Y-87219000D01*
X72640000Y-87159000D02*
X72570000Y-87189000D01*
X72720000Y-87139000D02*
X72640000Y-87159000D01*
X72780000Y-87139000D02*
X72720000Y-87139000D01*
X72830000Y-87139000D02*
X72780000Y-87139000D01*
X72890000Y-87169000D02*
X72830000Y-87139000D01*
X72950000Y-87209000D02*
X72890000Y-87169000D01*
X73950000Y-87189000D02*
X72950000Y-87209000D01*
X74160000Y-87249000D02*
X73950000Y-87189000D01*
X74270000Y-87329000D02*
X74160000Y-87249000D01*
X74400000Y-87429000D02*
X74270000Y-87329000D01*
X74420000Y-87469000D02*
X74400000Y-87429000D01*
X74430000Y-87529000D02*
X74420000Y-87469000D01*
X74430000Y-87569000D02*
X74430000Y-87529000D01*
X74420000Y-87599000D02*
X74430000Y-87569000D01*
X73930000Y-88459000D02*
X74420000Y-87599000D01*
X73850000Y-88629000D02*
X73930000Y-88459000D01*
X73830000Y-88749000D02*
X73850000Y-88629000D01*
X73840000Y-88949000D02*
X73830000Y-88749000D01*
X73850000Y-89089000D02*
X73840000Y-88949000D01*
X73840000Y-89139000D02*
X73850000Y-89089000D01*
X73820000Y-89179000D02*
X73840000Y-89139000D01*
X73790000Y-89209000D02*
X73820000Y-89179000D01*
X73740000Y-89239000D02*
X73790000Y-89209000D01*
X73650000Y-89269000D02*
X73740000Y-89239000D01*
X73290000Y-89339000D02*
X73650000Y-89269000D01*
X73180000Y-89369000D02*
X73290000Y-89339000D01*
X73090000Y-89419000D02*
X73180000Y-89369000D01*
X73060000Y-89469000D02*
X73090000Y-89419000D01*
X73050000Y-89519000D02*
X73060000Y-89469000D01*
X73030000Y-89809000D02*
X73050000Y-89519000D01*
X74410000Y-89839000D02*
X73030000Y-89809000D01*
X74400000Y-89459000D02*
X74410000Y-89839000D01*
X74410000Y-89339000D02*
X74400000Y-89459000D01*
X75130000Y-88529000D02*
X74410000Y-89339000D01*
X75200000Y-88439000D02*
X75130000Y-88529000D01*
X75290000Y-88419000D02*
X75200000Y-88439000D01*
X75360000Y-88439000D02*
X75290000Y-88419000D01*
X75430000Y-88469000D02*
X75360000Y-88439000D01*
X76190000Y-88999000D02*
X75430000Y-88469000D01*
X76280000Y-89019000D02*
X76190000Y-88999000D01*
X76400000Y-89049000D02*
X76280000Y-89019000D01*
X76450000Y-89139000D02*
X76400000Y-89049000D01*
X76450000Y-89209000D02*
X76450000Y-89139000D01*
X76410000Y-89279000D02*
X76450000Y-89209000D01*
X76350000Y-89319000D02*
X76410000Y-89279000D01*
X76100000Y-89379000D02*
X76350000Y-89319000D01*
X76010000Y-89409000D02*
X76100000Y-89379000D01*
X75970000Y-89459000D02*
X76010000Y-89409000D01*
X75960000Y-89499000D02*
X75970000Y-89459000D01*
X75920000Y-89609000D02*
X75960000Y-89499000D01*
X75900000Y-89829000D02*
X75920000Y-89609000D01*
X76140000Y-89809000D02*
X75900000Y-89829000D01*
X77130000Y-89819000D02*
X76140000Y-89809000D01*
X77180000Y-89739000D02*
X77130000Y-89819000D01*
X77410000Y-89549000D02*
X77180000Y-89739000D01*
X77020000Y-88719000D02*
X77410000Y-89549000D01*
X76950000Y-88589000D02*
X77020000Y-88719000D01*
X76830000Y-88409000D02*
X76950000Y-88589000D01*
X76730000Y-88259000D02*
X76830000Y-88409000D01*
X76620000Y-88119000D02*
X76730000Y-88259000D01*
X76550000Y-87979000D02*
X76620000Y-88119000D01*
X76530000Y-87909000D02*
X76550000Y-87979000D01*
X76620000Y-87779000D02*
X76530000Y-87909000D01*
X76740000Y-87699000D02*
X76620000Y-87779000D01*
X76850000Y-87589000D02*
X76740000Y-87699000D01*
X76960000Y-87439000D02*
X76850000Y-87589000D01*
X76980000Y-87339000D02*
X76960000Y-87439000D01*
X76960000Y-87109000D02*
X76980000Y-87339000D01*
X76870000Y-86859000D02*
X76960000Y-87109000D01*
X76420000Y-85839000D02*
X76870000Y-86859000D01*
X76380000Y-85769000D02*
X76420000Y-85839000D01*
X76380000Y-85669000D02*
X76380000Y-85769000D01*
X76380000Y-85599000D02*
X76380000Y-85669000D01*
X76400000Y-85529000D02*
X76380000Y-85599000D01*
X76430000Y-85449000D02*
X76400000Y-85529000D01*
X76450000Y-85399000D02*
X76430000Y-85449000D01*
X76460000Y-85349000D02*
X76450000Y-85399000D01*
X76490000Y-85329000D02*
X76460000Y-85349000D01*
X76530000Y-85279000D02*
X76490000Y-85329000D01*
X76560000Y-85259000D02*
X76530000Y-85279000D01*
X76610000Y-85249000D02*
X76560000Y-85259000D01*
X76680000Y-85249000D02*
X76610000Y-85249000D01*
X76720000Y-85249000D02*
X76680000Y-85249000D01*
X76780000Y-85309000D02*
X76720000Y-85249000D01*
X76800000Y-85369000D02*
X76780000Y-85309000D01*
X76820000Y-85519000D02*
X76800000Y-85369000D01*
X76850000Y-85669000D02*
X76820000Y-85519000D01*
X76920000Y-85809000D02*
X76850000Y-85669000D01*
X76970000Y-85869000D02*
X76920000Y-85809000D01*
X77050000Y-85949000D02*
X76970000Y-85869000D01*
X77250000Y-86119000D02*
X77050000Y-85949000D01*
X76990000Y-85209000D02*
X77250000Y-86119000D01*
X80274000Y-86836000D02*
X77994000Y-89666000D01*
X80284000Y-87786000D02*
X78034000Y-89626000D01*
X82094000Y-89266000D02*
X80284000Y-87786000D01*
X80274000Y-86816000D02*
X82454000Y-89716000D01*
X78414000Y-87566000D02*
X80284000Y-86046000D01*
X78104000Y-87946000D02*
X78404000Y-87546000D01*
X80264000Y-85046000D02*
X78104000Y-87946000D01*
X80354000Y-86086000D02*
X80314000Y-86056000D01*
X82114000Y-87536000D02*
X80354000Y-86086000D01*
X80274000Y-85046000D02*
X82474000Y-87986000D01*
X57765904Y-56159285D02*
X56965904Y-56159285D01*
X56965904Y-55968809D01*
X57004000Y-55854523D01*
X57080190Y-55778333D01*
X57156380Y-55740237D01*
X57308761Y-55702142D01*
X57423047Y-55702142D01*
X57575428Y-55740237D01*
X57651619Y-55778333D01*
X57727809Y-55854523D01*
X57765904Y-55968809D01*
X57765904Y-56159285D01*
X57042095Y-55397380D02*
X57004000Y-55359285D01*
X56965904Y-55283095D01*
X56965904Y-55092618D01*
X57004000Y-55016428D01*
X57042095Y-54978333D01*
X57118285Y-54940237D01*
X57194476Y-54940237D01*
X57308761Y-54978333D01*
X57765904Y-55435476D01*
X57765904Y-54940237D01*
X56965904Y-54673571D02*
X56965904Y-54178333D01*
X57270666Y-54444999D01*
X57270666Y-54330714D01*
X57308761Y-54254523D01*
X57346857Y-54216428D01*
X57423047Y-54178333D01*
X57613523Y-54178333D01*
X57689714Y-54216428D01*
X57727809Y-54254523D01*
X57765904Y-54330714D01*
X57765904Y-54559285D01*
X57727809Y-54635476D01*
X57689714Y-54673571D01*
X57346857Y-76593571D02*
X57346857Y-76326904D01*
X57765904Y-76212618D02*
X57765904Y-76593571D01*
X56965904Y-76593571D01*
X56965904Y-76212618D01*
X57765904Y-75869761D02*
X56965904Y-75869761D01*
X57765904Y-75412618D01*
X56965904Y-75412618D01*
X59505904Y-76707856D02*
X60305904Y-76441190D01*
X59505904Y-76174523D01*
X60305904Y-75907856D02*
X59505904Y-75907856D01*
X59505904Y-75603094D01*
X59544000Y-75526904D01*
X59582095Y-75488809D01*
X59658285Y-75450713D01*
X59772571Y-75450713D01*
X59848761Y-75488809D01*
X59886857Y-75526904D01*
X59924952Y-75603094D01*
X59924952Y-75907856D01*
X62045904Y-76707856D02*
X62845904Y-76441189D01*
X62045904Y-76174522D01*
X62845904Y-75907856D02*
X62045904Y-75907856D01*
X62845904Y-75450713D01*
X62045904Y-75450713D01*
X65385904Y-76593570D02*
X64585904Y-76593570D01*
X64585904Y-76403094D01*
X64624000Y-76288808D01*
X64700190Y-76212618D01*
X64776380Y-76174522D01*
X64928761Y-76136427D01*
X65043047Y-76136427D01*
X65195428Y-76174522D01*
X65271619Y-76212618D01*
X65347809Y-76288808D01*
X65385904Y-76403094D01*
X65385904Y-76593570D01*
X64585904Y-75869761D02*
X64585904Y-75374522D01*
X64890666Y-75641189D01*
X64890666Y-75526903D01*
X64928761Y-75450713D01*
X64966857Y-75412618D01*
X65043047Y-75374522D01*
X65233523Y-75374522D01*
X65309714Y-75412618D01*
X65347809Y-75450713D01*
X65385904Y-75526903D01*
X65385904Y-75755475D01*
X65347809Y-75831665D01*
X65309714Y-75869761D01*
X64852571Y-74688808D02*
X65385904Y-74688808D01*
X64547809Y-74879284D02*
X65119238Y-75069761D01*
X65119238Y-74574522D01*
X67925904Y-76593570D02*
X67125904Y-76593570D01*
X67125904Y-76403094D01*
X67164000Y-76288808D01*
X67240190Y-76212618D01*
X67316380Y-76174522D01*
X67468761Y-76136427D01*
X67583047Y-76136427D01*
X67735428Y-76174522D01*
X67811619Y-76212618D01*
X67887809Y-76288808D01*
X67925904Y-76403094D01*
X67925904Y-76593570D01*
X67125904Y-75869761D02*
X67125904Y-75374522D01*
X67430666Y-75641189D01*
X67430666Y-75526903D01*
X67468761Y-75450713D01*
X67506857Y-75412618D01*
X67583047Y-75374522D01*
X67773523Y-75374522D01*
X67849714Y-75412618D01*
X67887809Y-75450713D01*
X67925904Y-75526903D01*
X67925904Y-75755475D01*
X67887809Y-75831665D01*
X67849714Y-75869761D01*
X67125904Y-74650713D02*
X67125904Y-75031665D01*
X67506857Y-75069761D01*
X67468761Y-75031665D01*
X67430666Y-74955475D01*
X67430666Y-74764999D01*
X67468761Y-74688808D01*
X67506857Y-74650713D01*
X67583047Y-74612618D01*
X67773523Y-74612618D01*
X67849714Y-74650713D01*
X67887809Y-74688808D01*
X67925904Y-74764999D01*
X67925904Y-74955475D01*
X67887809Y-75031665D01*
X67849714Y-75069761D01*
X70465904Y-76593570D02*
X69665904Y-76593570D01*
X69665904Y-76403094D01*
X69704000Y-76288808D01*
X69780190Y-76212618D01*
X69856380Y-76174522D01*
X70008761Y-76136427D01*
X70123047Y-76136427D01*
X70275428Y-76174522D01*
X70351619Y-76212618D01*
X70427809Y-76288808D01*
X70465904Y-76403094D01*
X70465904Y-76593570D01*
X69665904Y-75869761D02*
X69665904Y-75374522D01*
X69970666Y-75641189D01*
X69970666Y-75526903D01*
X70008761Y-75450713D01*
X70046857Y-75412618D01*
X70123047Y-75374522D01*
X70313523Y-75374522D01*
X70389714Y-75412618D01*
X70427809Y-75450713D01*
X70465904Y-75526903D01*
X70465904Y-75755475D01*
X70427809Y-75831665D01*
X70389714Y-75869761D01*
X69742095Y-75069761D02*
X69704000Y-75031665D01*
X69665904Y-74955475D01*
X69665904Y-74764999D01*
X69704000Y-74688808D01*
X69742095Y-74650713D01*
X69818285Y-74612618D01*
X69894476Y-74612618D01*
X70008761Y-74650713D01*
X70465904Y-75107856D01*
X70465904Y-74612618D01*
X73005904Y-76593570D02*
X72205904Y-76593570D01*
X72205904Y-76403094D01*
X72244000Y-76288808D01*
X72320190Y-76212618D01*
X72396380Y-76174522D01*
X72548761Y-76136427D01*
X72663047Y-76136427D01*
X72815428Y-76174522D01*
X72891619Y-76212618D01*
X72967809Y-76288808D01*
X73005904Y-76403094D01*
X73005904Y-76593570D01*
X72205904Y-75869761D02*
X72205904Y-75374522D01*
X72510666Y-75641189D01*
X72510666Y-75526903D01*
X72548761Y-75450713D01*
X72586857Y-75412618D01*
X72663047Y-75374522D01*
X72853523Y-75374522D01*
X72929714Y-75412618D01*
X72967809Y-75450713D01*
X73005904Y-75526903D01*
X73005904Y-75755475D01*
X72967809Y-75831665D01*
X72929714Y-75869761D01*
X72205904Y-75107856D02*
X72205904Y-74612618D01*
X72510666Y-74879284D01*
X72510666Y-74764999D01*
X72548761Y-74688808D01*
X72586857Y-74650713D01*
X72663047Y-74612618D01*
X72853523Y-74612618D01*
X72929714Y-74650713D01*
X72967809Y-74688808D01*
X73005904Y-74764999D01*
X73005904Y-74993570D01*
X72967809Y-75069761D01*
X72929714Y-75107856D01*
X75545904Y-76593570D02*
X74745904Y-76593570D01*
X74745904Y-76403094D01*
X74784000Y-76288808D01*
X74860190Y-76212618D01*
X74936380Y-76174522D01*
X75088761Y-76136427D01*
X75203047Y-76136427D01*
X75355428Y-76174522D01*
X75431619Y-76212618D01*
X75507809Y-76288808D01*
X75545904Y-76403094D01*
X75545904Y-76593570D01*
X74822095Y-75831665D02*
X74784000Y-75793570D01*
X74745904Y-75717380D01*
X74745904Y-75526903D01*
X74784000Y-75450713D01*
X74822095Y-75412618D01*
X74898285Y-75374522D01*
X74974476Y-75374522D01*
X75088761Y-75412618D01*
X75545904Y-75869761D01*
X75545904Y-75374522D01*
X74745904Y-74650713D02*
X74745904Y-75031665D01*
X75126857Y-75069761D01*
X75088761Y-75031665D01*
X75050666Y-74955475D01*
X75050666Y-74764999D01*
X75088761Y-74688808D01*
X75126857Y-74650713D01*
X75203047Y-74612618D01*
X75393523Y-74612618D01*
X75469714Y-74650713D01*
X75507809Y-74688808D01*
X75545904Y-74764999D01*
X75545904Y-74955475D01*
X75507809Y-75031665D01*
X75469714Y-75069761D01*
X78085904Y-76593570D02*
X77285904Y-76593570D01*
X77285904Y-76403094D01*
X77324000Y-76288808D01*
X77400190Y-76212618D01*
X77476380Y-76174522D01*
X77628761Y-76136427D01*
X77743047Y-76136427D01*
X77895428Y-76174522D01*
X77971619Y-76212618D01*
X78047809Y-76288808D01*
X78085904Y-76403094D01*
X78085904Y-76593570D01*
X77362095Y-75831665D02*
X77324000Y-75793570D01*
X77285904Y-75717380D01*
X77285904Y-75526903D01*
X77324000Y-75450713D01*
X77362095Y-75412618D01*
X77438285Y-75374522D01*
X77514476Y-75374522D01*
X77628761Y-75412618D01*
X78085904Y-75869761D01*
X78085904Y-75374522D01*
X77285904Y-74688808D02*
X77285904Y-74841189D01*
X77324000Y-74917380D01*
X77362095Y-74955475D01*
X77476380Y-75031665D01*
X77628761Y-75069761D01*
X77933523Y-75069761D01*
X78009714Y-75031665D01*
X78047809Y-74993570D01*
X78085904Y-74917380D01*
X78085904Y-74764999D01*
X78047809Y-74688808D01*
X78009714Y-74650713D01*
X77933523Y-74612618D01*
X77743047Y-74612618D01*
X77666857Y-74650713D01*
X77628761Y-74688808D01*
X77590666Y-74764999D01*
X77590666Y-74917380D01*
X77628761Y-74993570D01*
X77666857Y-75031665D01*
X77743047Y-75069761D01*
X80625904Y-76593570D02*
X79825904Y-76593570D01*
X79825904Y-76403094D01*
X79864000Y-76288808D01*
X79940190Y-76212618D01*
X80016380Y-76174522D01*
X80168761Y-76136427D01*
X80283047Y-76136427D01*
X80435428Y-76174522D01*
X80511619Y-76212618D01*
X80587809Y-76288808D01*
X80625904Y-76403094D01*
X80625904Y-76593570D01*
X79902095Y-75831665D02*
X79864000Y-75793570D01*
X79825904Y-75717380D01*
X79825904Y-75526903D01*
X79864000Y-75450713D01*
X79902095Y-75412618D01*
X79978285Y-75374522D01*
X80054476Y-75374522D01*
X80168761Y-75412618D01*
X80625904Y-75869761D01*
X80625904Y-75374522D01*
X79825904Y-75107856D02*
X79825904Y-74574522D01*
X80625904Y-74917380D01*
X83165904Y-76593570D02*
X82365904Y-76593570D01*
X82365904Y-76403094D01*
X82404000Y-76288808D01*
X82480190Y-76212618D01*
X82556380Y-76174522D01*
X82708761Y-76136427D01*
X82823047Y-76136427D01*
X82975428Y-76174522D01*
X83051619Y-76212618D01*
X83127809Y-76288808D01*
X83165904Y-76403094D01*
X83165904Y-76593570D01*
X83165904Y-75374522D02*
X83165904Y-75831665D01*
X83165904Y-75603094D02*
X82365904Y-75603094D01*
X82480190Y-75679284D01*
X82556380Y-75755475D01*
X82594476Y-75831665D01*
X82632571Y-74688808D02*
X83165904Y-74688808D01*
X82327809Y-74879284D02*
X82899238Y-75069761D01*
X82899238Y-74574522D01*
X85705904Y-76593570D02*
X84905904Y-76593570D01*
X84905904Y-76403094D01*
X84944000Y-76288808D01*
X85020190Y-76212618D01*
X85096380Y-76174522D01*
X85248761Y-76136427D01*
X85363047Y-76136427D01*
X85515428Y-76174522D01*
X85591619Y-76212618D01*
X85667809Y-76288808D01*
X85705904Y-76403094D01*
X85705904Y-76593570D01*
X85705904Y-75374522D02*
X85705904Y-75831665D01*
X85705904Y-75603094D02*
X84905904Y-75603094D01*
X85020190Y-75679284D01*
X85096380Y-75755475D01*
X85134476Y-75831665D01*
X84982095Y-75069761D02*
X84944000Y-75031665D01*
X84905904Y-74955475D01*
X84905904Y-74764999D01*
X84944000Y-74688808D01*
X84982095Y-74650713D01*
X85058285Y-74612618D01*
X85134476Y-74612618D01*
X85248761Y-74650713D01*
X85705904Y-75107856D01*
X85705904Y-74612618D01*
X88245904Y-76593570D02*
X87445904Y-76593570D01*
X87445904Y-76403094D01*
X87484000Y-76288808D01*
X87560190Y-76212618D01*
X87636380Y-76174522D01*
X87788761Y-76136427D01*
X87903047Y-76136427D01*
X88055428Y-76174522D01*
X88131619Y-76212618D01*
X88207809Y-76288808D01*
X88245904Y-76403094D01*
X88245904Y-76593570D01*
X88245904Y-75374522D02*
X88245904Y-75831665D01*
X88245904Y-75603094D02*
X87445904Y-75603094D01*
X87560190Y-75679284D01*
X87636380Y-75755475D01*
X87674476Y-75831665D01*
X87445904Y-75107856D02*
X87445904Y-74612618D01*
X87750666Y-74879284D01*
X87750666Y-74764999D01*
X87788761Y-74688808D01*
X87826857Y-74650713D01*
X87903047Y-74612618D01*
X88093523Y-74612618D01*
X88169714Y-74650713D01*
X88207809Y-74688808D01*
X88245904Y-74764999D01*
X88245904Y-74993570D01*
X88207809Y-75069761D01*
X88169714Y-75107856D01*
X90024000Y-76174523D02*
X89985904Y-76250714D01*
X89985904Y-76365000D01*
X90024000Y-76479285D01*
X90100190Y-76555476D01*
X90176380Y-76593571D01*
X90328761Y-76631666D01*
X90443047Y-76631666D01*
X90595428Y-76593571D01*
X90671619Y-76555476D01*
X90747809Y-76479285D01*
X90785904Y-76365000D01*
X90785904Y-76288809D01*
X90747809Y-76174523D01*
X90709714Y-76136428D01*
X90443047Y-76136428D01*
X90443047Y-76288809D01*
X90785904Y-75793571D02*
X89985904Y-75793571D01*
X90785904Y-75336428D01*
X89985904Y-75336428D01*
X90785904Y-74955476D02*
X89985904Y-74955476D01*
X89985904Y-74765000D01*
X90024000Y-74650714D01*
X90100190Y-74574523D01*
X90176380Y-74536428D01*
X90328761Y-74498333D01*
X90443047Y-74498333D01*
X90595428Y-74536428D01*
X90671619Y-74574523D01*
X90747809Y-74650714D01*
X90785904Y-74765000D01*
X90785904Y-74955476D01*
X92525904Y-76707856D02*
X93325904Y-76441189D01*
X92525904Y-76174523D01*
X93325904Y-75907856D02*
X92525904Y-75907856D01*
X93325904Y-75526904D02*
X92525904Y-75526904D01*
X93325904Y-75069761D01*
X92525904Y-75069761D01*
X60305904Y-56159285D02*
X59505904Y-56159285D01*
X59505904Y-55968809D01*
X59544000Y-55854523D01*
X59620190Y-55778333D01*
X59696380Y-55740237D01*
X59848761Y-55702142D01*
X59963047Y-55702142D01*
X60115428Y-55740237D01*
X60191619Y-55778333D01*
X60267809Y-55854523D01*
X60305904Y-55968809D01*
X60305904Y-56159285D01*
X59582095Y-55397380D02*
X59544000Y-55359285D01*
X59505904Y-55283095D01*
X59505904Y-55092618D01*
X59544000Y-55016428D01*
X59582095Y-54978333D01*
X59658285Y-54940237D01*
X59734476Y-54940237D01*
X59848761Y-54978333D01*
X60305904Y-55435476D01*
X60305904Y-54940237D01*
X59582095Y-54635476D02*
X59544000Y-54597380D01*
X59505904Y-54521190D01*
X59505904Y-54330714D01*
X59544000Y-54254523D01*
X59582095Y-54216428D01*
X59658285Y-54178333D01*
X59734476Y-54178333D01*
X59848761Y-54216428D01*
X60305904Y-54673571D01*
X60305904Y-54178333D01*
X62045904Y-56083095D02*
X62045904Y-55625952D01*
X62845904Y-55854523D02*
X62045904Y-55854523D01*
X62045904Y-55435476D02*
X62845904Y-54902142D01*
X62045904Y-54902142D02*
X62845904Y-55435476D01*
X62045904Y-54444999D02*
X62045904Y-54368809D01*
X62084000Y-54292619D01*
X62122095Y-54254523D01*
X62198285Y-54216428D01*
X62350666Y-54178333D01*
X62541142Y-54178333D01*
X62693523Y-54216428D01*
X62769714Y-54254523D01*
X62807809Y-54292619D01*
X62845904Y-54368809D01*
X62845904Y-54444999D01*
X62807809Y-54521190D01*
X62769714Y-54559285D01*
X62693523Y-54597380D01*
X62541142Y-54635476D01*
X62350666Y-54635476D01*
X62198285Y-54597380D01*
X62122095Y-54559285D01*
X62084000Y-54521190D01*
X62045904Y-54444999D01*
X65385904Y-55702142D02*
X65004952Y-55968809D01*
X65385904Y-56159285D02*
X64585904Y-56159285D01*
X64585904Y-55854523D01*
X64624000Y-55778333D01*
X64662095Y-55740237D01*
X64738285Y-55702142D01*
X64852571Y-55702142D01*
X64928761Y-55740237D01*
X64966857Y-55778333D01*
X65004952Y-55854523D01*
X65004952Y-56159285D01*
X64585904Y-55435476D02*
X65385904Y-54902142D01*
X64585904Y-54902142D02*
X65385904Y-55435476D01*
X64585904Y-54444999D02*
X64585904Y-54368809D01*
X64624000Y-54292618D01*
X64662095Y-54254523D01*
X64738285Y-54216428D01*
X64890666Y-54178333D01*
X65081142Y-54178333D01*
X65233523Y-54216428D01*
X65309714Y-54254523D01*
X65347809Y-54292618D01*
X65385904Y-54368809D01*
X65385904Y-54444999D01*
X65347809Y-54521190D01*
X65309714Y-54559285D01*
X65233523Y-54597380D01*
X65081142Y-54635476D01*
X64890666Y-54635476D01*
X64738285Y-54597380D01*
X64662095Y-54559285D01*
X64624000Y-54521190D01*
X64585904Y-54444999D01*
X67925904Y-56159285D02*
X67125904Y-56159285D01*
X67125904Y-55968809D01*
X67164000Y-55854523D01*
X67240190Y-55778333D01*
X67316380Y-55740237D01*
X67468761Y-55702142D01*
X67583047Y-55702142D01*
X67735428Y-55740237D01*
X67811619Y-55778333D01*
X67887809Y-55854523D01*
X67925904Y-55968809D01*
X67925904Y-56159285D01*
X67202095Y-55397380D02*
X67164000Y-55359285D01*
X67125904Y-55283095D01*
X67125904Y-55092618D01*
X67164000Y-55016428D01*
X67202095Y-54978333D01*
X67278285Y-54940237D01*
X67354476Y-54940237D01*
X67468761Y-54978333D01*
X67925904Y-55435476D01*
X67925904Y-54940237D01*
X67925904Y-54178333D02*
X67925904Y-54635476D01*
X67925904Y-54406904D02*
X67125904Y-54406904D01*
X67240190Y-54483095D01*
X67316380Y-54559285D01*
X67354476Y-54635476D01*
X70465904Y-56159285D02*
X69665904Y-56159285D01*
X69665904Y-55968809D01*
X69704000Y-55854523D01*
X69780190Y-55778333D01*
X69856380Y-55740237D01*
X70008761Y-55702142D01*
X70123047Y-55702142D01*
X70275428Y-55740237D01*
X70351619Y-55778333D01*
X70427809Y-55854523D01*
X70465904Y-55968809D01*
X70465904Y-56159285D01*
X70465904Y-54940237D02*
X70465904Y-55397380D01*
X70465904Y-55168809D02*
X69665904Y-55168809D01*
X69780190Y-55244999D01*
X69856380Y-55321190D01*
X69894476Y-55397380D01*
X70465904Y-54559285D02*
X70465904Y-54406904D01*
X70427809Y-54330714D01*
X70389714Y-54292618D01*
X70275428Y-54216428D01*
X70123047Y-54178333D01*
X69818285Y-54178333D01*
X69742095Y-54216428D01*
X69704000Y-54254523D01*
X69665904Y-54330714D01*
X69665904Y-54483095D01*
X69704000Y-54559285D01*
X69742095Y-54597380D01*
X69818285Y-54635476D01*
X70008761Y-54635476D01*
X70084952Y-54597380D01*
X70123047Y-54559285D01*
X70161142Y-54483095D01*
X70161142Y-54330714D01*
X70123047Y-54254523D01*
X70084952Y-54216428D01*
X70008761Y-54178333D01*
X73005904Y-56159285D02*
X72205904Y-56159285D01*
X72205904Y-55968809D01*
X72244000Y-55854523D01*
X72320190Y-55778333D01*
X72396380Y-55740237D01*
X72548761Y-55702142D01*
X72663047Y-55702142D01*
X72815428Y-55740237D01*
X72891619Y-55778333D01*
X72967809Y-55854523D01*
X73005904Y-55968809D01*
X73005904Y-56159285D01*
X73005904Y-54940237D02*
X73005904Y-55397380D01*
X73005904Y-55168809D02*
X72205904Y-55168809D01*
X72320190Y-55244999D01*
X72396380Y-55321190D01*
X72434476Y-55397380D01*
X72548761Y-54483095D02*
X72510666Y-54559285D01*
X72472571Y-54597380D01*
X72396380Y-54635476D01*
X72358285Y-54635476D01*
X72282095Y-54597380D01*
X72244000Y-54559285D01*
X72205904Y-54483095D01*
X72205904Y-54330714D01*
X72244000Y-54254523D01*
X72282095Y-54216428D01*
X72358285Y-54178333D01*
X72396380Y-54178333D01*
X72472571Y-54216428D01*
X72510666Y-54254523D01*
X72548761Y-54330714D01*
X72548761Y-54483095D01*
X72586857Y-54559285D01*
X72624952Y-54597380D01*
X72701142Y-54635476D01*
X72853523Y-54635476D01*
X72929714Y-54597380D01*
X72967809Y-54559285D01*
X73005904Y-54483095D01*
X73005904Y-54330714D01*
X72967809Y-54254523D01*
X72929714Y-54216428D01*
X72853523Y-54178333D01*
X72701142Y-54178333D01*
X72624952Y-54216428D01*
X72586857Y-54254523D01*
X72548761Y-54330714D01*
X75545904Y-55397381D02*
X74745904Y-55397381D01*
X74745904Y-55206905D01*
X74784000Y-55092619D01*
X74860190Y-55016428D01*
X74936380Y-54978333D01*
X75088761Y-54940238D01*
X75203047Y-54940238D01*
X75355428Y-54978333D01*
X75431619Y-55016428D01*
X75507809Y-55092619D01*
X75545904Y-55206905D01*
X75545904Y-55397381D01*
X74745904Y-54216428D02*
X74745904Y-54597381D01*
X75126857Y-54635476D01*
X75088761Y-54597381D01*
X75050666Y-54521190D01*
X75050666Y-54330714D01*
X75088761Y-54254524D01*
X75126857Y-54216428D01*
X75203047Y-54178333D01*
X75393523Y-54178333D01*
X75469714Y-54216428D01*
X75507809Y-54254524D01*
X75545904Y-54330714D01*
X75545904Y-54521190D01*
X75507809Y-54597381D01*
X75469714Y-54635476D01*
X77285904Y-56083095D02*
X77285904Y-55625952D01*
X78085904Y-55854523D02*
X77285904Y-55854523D01*
X77285904Y-55435476D02*
X78085904Y-54902142D01*
X77285904Y-54902142D02*
X78085904Y-55435476D01*
X77362095Y-54635476D02*
X77324000Y-54597380D01*
X77285904Y-54521190D01*
X77285904Y-54330714D01*
X77324000Y-54254523D01*
X77362095Y-54216428D01*
X77438285Y-54178333D01*
X77514476Y-54178333D01*
X77628761Y-54216428D01*
X78085904Y-54673571D01*
X78085904Y-54178333D01*
X80625904Y-55702142D02*
X80244952Y-55968809D01*
X80625904Y-56159285D02*
X79825904Y-56159285D01*
X79825904Y-55854523D01*
X79864000Y-55778333D01*
X79902095Y-55740237D01*
X79978285Y-55702142D01*
X80092571Y-55702142D01*
X80168761Y-55740237D01*
X80206857Y-55778333D01*
X80244952Y-55854523D01*
X80244952Y-56159285D01*
X79825904Y-55435476D02*
X80625904Y-54902142D01*
X79825904Y-54902142D02*
X80625904Y-55435476D01*
X79902095Y-54635476D02*
X79864000Y-54597380D01*
X79825904Y-54521190D01*
X79825904Y-54330714D01*
X79864000Y-54254523D01*
X79902095Y-54216428D01*
X79978285Y-54178333D01*
X80054476Y-54178333D01*
X80168761Y-54216428D01*
X80625904Y-54673571D01*
X80625904Y-54178333D01*
X83165904Y-55397381D02*
X82365904Y-55397381D01*
X82365904Y-55206905D01*
X82404000Y-55092619D01*
X82480190Y-55016428D01*
X82556380Y-54978333D01*
X82708761Y-54940238D01*
X82823047Y-54940238D01*
X82975428Y-54978333D01*
X83051619Y-55016428D01*
X83127809Y-55092619D01*
X83165904Y-55206905D01*
X83165904Y-55397381D01*
X82632571Y-54254524D02*
X83165904Y-54254524D01*
X82327809Y-54445000D02*
X82899238Y-54635476D01*
X82899238Y-54140238D01*
X85705904Y-55397381D02*
X84905904Y-55397381D01*
X84905904Y-55206905D01*
X84944000Y-55092619D01*
X85020190Y-55016428D01*
X85096380Y-54978333D01*
X85248761Y-54940238D01*
X85363047Y-54940238D01*
X85515428Y-54978333D01*
X85591619Y-55016428D01*
X85667809Y-55092619D01*
X85705904Y-55206905D01*
X85705904Y-55397381D01*
X84982095Y-54635476D02*
X84944000Y-54597381D01*
X84905904Y-54521190D01*
X84905904Y-54330714D01*
X84944000Y-54254524D01*
X84982095Y-54216428D01*
X85058285Y-54178333D01*
X85134476Y-54178333D01*
X85248761Y-54216428D01*
X85705904Y-54673571D01*
X85705904Y-54178333D01*
X88245904Y-56159285D02*
X87445904Y-56159285D01*
X87445904Y-55968809D01*
X87484000Y-55854523D01*
X87560190Y-55778333D01*
X87636380Y-55740237D01*
X87788761Y-55702142D01*
X87903047Y-55702142D01*
X88055428Y-55740237D01*
X88131619Y-55778333D01*
X88207809Y-55854523D01*
X88245904Y-55968809D01*
X88245904Y-56159285D01*
X88245904Y-54940237D02*
X88245904Y-55397380D01*
X88245904Y-55168809D02*
X87445904Y-55168809D01*
X87560190Y-55244999D01*
X87636380Y-55321190D01*
X87674476Y-55397380D01*
X87445904Y-54216428D02*
X87445904Y-54597380D01*
X87826857Y-54635476D01*
X87788761Y-54597380D01*
X87750666Y-54521190D01*
X87750666Y-54330714D01*
X87788761Y-54254523D01*
X87826857Y-54216428D01*
X87903047Y-54178333D01*
X88093523Y-54178333D01*
X88169714Y-54216428D01*
X88207809Y-54254523D01*
X88245904Y-54330714D01*
X88245904Y-54521190D01*
X88207809Y-54597380D01*
X88169714Y-54635476D01*
X90024000Y-55854523D02*
X89985904Y-55930714D01*
X89985904Y-56045000D01*
X90024000Y-56159285D01*
X90100190Y-56235476D01*
X90176380Y-56273571D01*
X90328761Y-56311666D01*
X90443047Y-56311666D01*
X90595428Y-56273571D01*
X90671619Y-56235476D01*
X90747809Y-56159285D01*
X90785904Y-56045000D01*
X90785904Y-55968809D01*
X90747809Y-55854523D01*
X90709714Y-55816428D01*
X90443047Y-55816428D01*
X90443047Y-55968809D01*
X90785904Y-55473571D02*
X89985904Y-55473571D01*
X90785904Y-55016428D01*
X89985904Y-55016428D01*
X90785904Y-54635476D02*
X89985904Y-54635476D01*
X89985904Y-54445000D01*
X90024000Y-54330714D01*
X90100190Y-54254523D01*
X90176380Y-54216428D01*
X90328761Y-54178333D01*
X90443047Y-54178333D01*
X90595428Y-54216428D01*
X90671619Y-54254523D01*
X90747809Y-54330714D01*
X90785904Y-54445000D01*
X90785904Y-54635476D01*
X92525904Y-56121190D02*
X92525904Y-55625952D01*
X92830666Y-55892618D01*
X92830666Y-55778333D01*
X92868761Y-55702142D01*
X92906857Y-55664047D01*
X92983047Y-55625952D01*
X93173523Y-55625952D01*
X93249714Y-55664047D01*
X93287809Y-55702142D01*
X93325904Y-55778333D01*
X93325904Y-56006904D01*
X93287809Y-56083094D01*
X93249714Y-56121190D01*
X92525904Y-55397380D02*
X93325904Y-55130714D01*
X92525904Y-54864047D01*
X92525904Y-54673571D02*
X92525904Y-54178333D01*
X92830666Y-54444999D01*
X92830666Y-54330714D01*
X92868761Y-54254523D01*
X92906857Y-54216428D01*
X92983047Y-54178333D01*
X93173523Y-54178333D01*
X93249714Y-54216428D01*
X93287809Y-54254523D01*
X93325904Y-54330714D01*
X93325904Y-54559285D01*
X93287809Y-54635475D01*
X93249714Y-54673571D01*
D10*
X58834476Y-62553904D02*
X58834476Y-63201523D01*
X58872571Y-63277714D01*
X58910666Y-63315809D01*
X58986857Y-63353904D01*
X59139238Y-63353904D01*
X59215428Y-63315809D01*
X59253523Y-63277714D01*
X59291619Y-63201523D01*
X59291619Y-62553904D01*
X59596380Y-62553904D02*
X60129714Y-62553904D01*
X59786857Y-63353904D01*
D12*
X53955904Y-66738380D02*
X53155904Y-66738380D01*
X53536857Y-66738380D02*
X53536857Y-66281238D01*
X53955904Y-66281238D02*
X53155904Y-66281238D01*
X53155904Y-66014571D02*
X53955904Y-65747904D01*
X53155904Y-65481238D01*
X53422571Y-64871714D02*
X53955904Y-64871714D01*
X53117809Y-65062190D02*
X53689238Y-65252666D01*
X53689238Y-64757428D01*
X56495904Y-66738380D02*
X55695904Y-66738380D01*
X56076857Y-66738380D02*
X56076857Y-66281238D01*
X56495904Y-66281238D02*
X55695904Y-66281238D01*
X55695904Y-66014571D02*
X56495904Y-65747904D01*
X55695904Y-65481238D01*
X55695904Y-65290761D02*
X55695904Y-64795523D01*
X56000666Y-65062190D01*
X56000666Y-64947904D01*
X56038761Y-64871714D01*
X56076857Y-64833619D01*
X56153047Y-64795523D01*
X56343523Y-64795523D01*
X56419714Y-64833619D01*
X56457809Y-64871714D01*
X56495904Y-64947904D01*
X56495904Y-65176476D01*
X56457809Y-65252666D01*
X56419714Y-65290761D01*
X58274000Y-66319332D02*
X58235904Y-66395523D01*
X58235904Y-66509809D01*
X58274000Y-66624094D01*
X58350190Y-66700285D01*
X58426380Y-66738380D01*
X58578761Y-66776475D01*
X58693047Y-66776475D01*
X58845428Y-66738380D01*
X58921619Y-66700285D01*
X58997809Y-66624094D01*
X59035904Y-66509809D01*
X59035904Y-66433618D01*
X58997809Y-66319332D01*
X58959714Y-66281237D01*
X58693047Y-66281237D01*
X58693047Y-66433618D01*
X59035904Y-65938380D02*
X58235904Y-65938380D01*
X59035904Y-65481237D01*
X58235904Y-65481237D01*
X59035904Y-65100285D02*
X58235904Y-65100285D01*
X58235904Y-64909809D01*
X58274000Y-64795523D01*
X58350190Y-64719332D01*
X58426380Y-64681237D01*
X58578761Y-64643142D01*
X58693047Y-64643142D01*
X58845428Y-64681237D01*
X58921619Y-64719332D01*
X58997809Y-64795523D01*
X59035904Y-64909809D01*
X59035904Y-65100285D01*
X61575904Y-66738380D02*
X60775904Y-66738380D01*
X61156857Y-66738380D02*
X61156857Y-66281237D01*
X61575904Y-66281237D02*
X60775904Y-66281237D01*
X60775904Y-66014571D02*
X61575904Y-65747904D01*
X60775904Y-65481237D01*
X64115904Y-66738380D02*
X63315904Y-66738380D01*
X63696857Y-66738380D02*
X63696857Y-66281238D01*
X64115904Y-66281238D02*
X63315904Y-66281238D01*
X63315904Y-66014571D02*
X64115904Y-65747904D01*
X63315904Y-65481238D01*
X63392095Y-65252666D02*
X63354000Y-65214571D01*
X63315904Y-65138380D01*
X63315904Y-64947904D01*
X63354000Y-64871714D01*
X63392095Y-64833619D01*
X63468285Y-64795523D01*
X63544476Y-64795523D01*
X63658761Y-64833619D01*
X64115904Y-65290761D01*
X64115904Y-64795523D01*
X66655904Y-66738380D02*
X65855904Y-66738380D01*
X66236857Y-66738380D02*
X66236857Y-66281238D01*
X66655904Y-66281238D02*
X65855904Y-66281238D01*
X65855904Y-66014571D02*
X66655904Y-65747904D01*
X65855904Y-65481238D01*
X66655904Y-64795523D02*
X66655904Y-65252666D01*
X66655904Y-65024095D02*
X65855904Y-65024095D01*
X65970190Y-65100285D01*
X66046380Y-65176476D01*
X66084476Y-65252666D01*
X53955904Y-60039143D02*
X53955904Y-60420095D01*
X53155904Y-60420095D01*
X53155904Y-59886762D02*
X53955904Y-59620095D01*
X53155904Y-59353429D01*
X53422571Y-58743905D02*
X53955904Y-58743905D01*
X53117809Y-58934381D02*
X53689238Y-59124857D01*
X53689238Y-58629619D01*
X56495904Y-60039143D02*
X56495904Y-60420095D01*
X55695904Y-60420095D01*
X55695904Y-59886762D02*
X56495904Y-59620095D01*
X55695904Y-59353429D01*
X55695904Y-59162953D02*
X55695904Y-58667714D01*
X56000666Y-58934381D01*
X56000666Y-58820095D01*
X56038761Y-58743905D01*
X56076857Y-58705810D01*
X56153047Y-58667714D01*
X56343523Y-58667714D01*
X56419714Y-58705810D01*
X56457809Y-58743905D01*
X56495904Y-58820095D01*
X56495904Y-59048667D01*
X56457809Y-59124857D01*
X56419714Y-59162953D01*
X58274000Y-60343904D02*
X58235904Y-60420095D01*
X58235904Y-60534381D01*
X58274000Y-60648666D01*
X58350190Y-60724857D01*
X58426380Y-60762952D01*
X58578761Y-60801047D01*
X58693047Y-60801047D01*
X58845428Y-60762952D01*
X58921619Y-60724857D01*
X58997809Y-60648666D01*
X59035904Y-60534381D01*
X59035904Y-60458190D01*
X58997809Y-60343904D01*
X58959714Y-60305809D01*
X58693047Y-60305809D01*
X58693047Y-60458190D01*
X59035904Y-59962952D02*
X58235904Y-59962952D01*
X59035904Y-59505809D01*
X58235904Y-59505809D01*
X59035904Y-59124857D02*
X58235904Y-59124857D01*
X58235904Y-58934381D01*
X58274000Y-58820095D01*
X58350190Y-58743904D01*
X58426380Y-58705809D01*
X58578761Y-58667714D01*
X58693047Y-58667714D01*
X58845428Y-58705809D01*
X58921619Y-58743904D01*
X58997809Y-58820095D01*
X59035904Y-58934381D01*
X59035904Y-59124857D01*
X61575904Y-59277238D02*
X61575904Y-59658190D01*
X60775904Y-59658190D01*
X60775904Y-59124857D02*
X61575904Y-58858190D01*
X60775904Y-58591523D01*
X64115904Y-60039143D02*
X64115904Y-60420095D01*
X63315904Y-60420095D01*
X63315904Y-59886762D02*
X64115904Y-59620095D01*
X63315904Y-59353429D01*
X63392095Y-59124857D02*
X63354000Y-59086762D01*
X63315904Y-59010572D01*
X63315904Y-58820095D01*
X63354000Y-58743905D01*
X63392095Y-58705810D01*
X63468285Y-58667714D01*
X63544476Y-58667714D01*
X63658761Y-58705810D01*
X64115904Y-59162953D01*
X64115904Y-58667714D01*
X66655904Y-60039143D02*
X66655904Y-60420095D01*
X65855904Y-60420095D01*
X65855904Y-59886762D02*
X66655904Y-59620095D01*
X65855904Y-59353429D01*
X66655904Y-58667714D02*
X66655904Y-59124857D01*
X66655904Y-58896286D02*
X65855904Y-58896286D01*
X65970190Y-58972476D01*
X66046380Y-59048667D01*
X66084476Y-59124857D01*
D10*
X112509333Y-82111904D02*
X112509333Y-82683333D01*
X112471238Y-82797619D01*
X112395047Y-82873809D01*
X112280761Y-82911904D01*
X112204571Y-82911904D01*
X112814095Y-82111904D02*
X113309333Y-82111904D01*
X113042666Y-82416666D01*
X113156952Y-82416666D01*
X113233142Y-82454761D01*
X113271238Y-82492857D01*
X113309333Y-82569047D01*
X113309333Y-82759523D01*
X113271238Y-82835714D01*
X113233142Y-82873809D01*
X113156952Y-82911904D01*
X112928380Y-82911904D01*
X112852190Y-82873809D01*
X112814095Y-82835714D01*
X65652714Y-72497904D02*
X65386047Y-72116952D01*
X65195571Y-72497904D02*
X65195571Y-71697904D01*
X65500333Y-71697904D01*
X65576523Y-71736000D01*
X65614619Y-71774095D01*
X65652714Y-71850285D01*
X65652714Y-71964571D01*
X65614619Y-72040761D01*
X65576523Y-72078857D01*
X65500333Y-72116952D01*
X65195571Y-72116952D01*
X66414619Y-72497904D02*
X65957476Y-72497904D01*
X66186047Y-72497904D02*
X66186047Y-71697904D01*
X66109857Y-71812190D01*
X66033666Y-71888380D01*
X65957476Y-71926476D01*
X67176523Y-72497904D02*
X66719380Y-72497904D01*
X66947952Y-72497904D02*
X66947952Y-71697904D01*
X66871761Y-71812190D01*
X66795571Y-71888380D01*
X66719380Y-71926476D01*
X84702666Y-58959714D02*
X84664571Y-58997809D01*
X84550285Y-59035904D01*
X84474095Y-59035904D01*
X84359809Y-58997809D01*
X84283619Y-58921619D01*
X84245523Y-58845428D01*
X84207428Y-58693047D01*
X84207428Y-58578761D01*
X84245523Y-58426380D01*
X84283619Y-58350190D01*
X84359809Y-58274000D01*
X84474095Y-58235904D01*
X84550285Y-58235904D01*
X84664571Y-58274000D01*
X84702666Y-58312095D01*
X85426476Y-58235904D02*
X85045523Y-58235904D01*
X85007428Y-58616857D01*
X85045523Y-58578761D01*
X85121714Y-58540666D01*
X85312190Y-58540666D01*
X85388380Y-58578761D01*
X85426476Y-58616857D01*
X85464571Y-58693047D01*
X85464571Y-58883523D01*
X85426476Y-58959714D01*
X85388380Y-58997809D01*
X85312190Y-59035904D01*
X85121714Y-59035904D01*
X85045523Y-58997809D01*
X85007428Y-58959714D01*
X84702666Y-68103714D02*
X84664571Y-68141809D01*
X84550285Y-68179904D01*
X84474095Y-68179904D01*
X84359809Y-68141809D01*
X84283619Y-68065619D01*
X84245523Y-67989428D01*
X84207428Y-67837047D01*
X84207428Y-67722761D01*
X84245523Y-67570380D01*
X84283619Y-67494190D01*
X84359809Y-67418000D01*
X84474095Y-67379904D01*
X84550285Y-67379904D01*
X84664571Y-67418000D01*
X84702666Y-67456095D01*
X85388380Y-67379904D02*
X85236000Y-67379904D01*
X85159809Y-67418000D01*
X85121714Y-67456095D01*
X85045523Y-67570380D01*
X85007428Y-67722761D01*
X85007428Y-68027523D01*
X85045523Y-68103714D01*
X85083619Y-68141809D01*
X85159809Y-68179904D01*
X85312190Y-68179904D01*
X85388380Y-68141809D01*
X85426476Y-68103714D01*
X85464571Y-68027523D01*
X85464571Y-67837047D01*
X85426476Y-67760857D01*
X85388380Y-67722761D01*
X85312190Y-67684666D01*
X85159809Y-67684666D01*
X85083619Y-67722761D01*
X85045523Y-67760857D01*
X85007428Y-67837047D01*
X97656666Y-75977714D02*
X97618571Y-76015809D01*
X97504285Y-76053904D01*
X97428095Y-76053904D01*
X97313809Y-76015809D01*
X97237619Y-75939619D01*
X97199523Y-75863428D01*
X97161428Y-75711047D01*
X97161428Y-75596761D01*
X97199523Y-75444380D01*
X97237619Y-75368190D01*
X97313809Y-75292000D01*
X97428095Y-75253904D01*
X97504285Y-75253904D01*
X97618571Y-75292000D01*
X97656666Y-75330095D01*
X97923333Y-75253904D02*
X98456666Y-75253904D01*
X98113809Y-76053904D01*
X97656666Y-73437714D02*
X97618571Y-73475809D01*
X97504285Y-73513904D01*
X97428095Y-73513904D01*
X97313809Y-73475809D01*
X97237619Y-73399619D01*
X97199523Y-73323428D01*
X97161428Y-73171047D01*
X97161428Y-73056761D01*
X97199523Y-72904380D01*
X97237619Y-72828190D01*
X97313809Y-72752000D01*
X97428095Y-72713904D01*
X97504285Y-72713904D01*
X97618571Y-72752000D01*
X97656666Y-72790095D01*
X98113809Y-73056761D02*
X98037619Y-73018666D01*
X97999523Y-72980571D01*
X97961428Y-72904380D01*
X97961428Y-72866285D01*
X97999523Y-72790095D01*
X98037619Y-72752000D01*
X98113809Y-72713904D01*
X98266190Y-72713904D01*
X98342380Y-72752000D01*
X98380476Y-72790095D01*
X98418571Y-72866285D01*
X98418571Y-72904380D01*
X98380476Y-72980571D01*
X98342380Y-73018666D01*
X98266190Y-73056761D01*
X98113809Y-73056761D01*
X98037619Y-73094857D01*
X97999523Y-73132952D01*
X97961428Y-73209142D01*
X97961428Y-73361523D01*
X97999523Y-73437714D01*
X98037619Y-73475809D01*
X98113809Y-73513904D01*
X98266190Y-73513904D01*
X98342380Y-73475809D01*
X98380476Y-73437714D01*
X98418571Y-73361523D01*
X98418571Y-73209142D01*
X98380476Y-73132952D01*
X98342380Y-73094857D01*
X98266190Y-73056761D01*
X97656666Y-70703714D02*
X97618571Y-70741809D01*
X97504285Y-70779904D01*
X97428095Y-70779904D01*
X97313809Y-70741809D01*
X97237619Y-70665619D01*
X97199523Y-70589428D01*
X97161428Y-70437047D01*
X97161428Y-70322761D01*
X97199523Y-70170380D01*
X97237619Y-70094190D01*
X97313809Y-70018000D01*
X97428095Y-69979904D01*
X97504285Y-69979904D01*
X97618571Y-70018000D01*
X97656666Y-70056095D01*
X98037619Y-70779904D02*
X98190000Y-70779904D01*
X98266190Y-70741809D01*
X98304285Y-70703714D01*
X98380476Y-70589428D01*
X98418571Y-70437047D01*
X98418571Y-70132285D01*
X98380476Y-70056095D01*
X98342380Y-70018000D01*
X98266190Y-69979904D01*
X98113809Y-69979904D01*
X98037619Y-70018000D01*
X97999523Y-70056095D01*
X97961428Y-70132285D01*
X97961428Y-70322761D01*
X97999523Y-70398952D01*
X98037619Y-70437047D01*
X98113809Y-70475142D01*
X98266190Y-70475142D01*
X98342380Y-70437047D01*
X98380476Y-70398952D01*
X98418571Y-70322761D01*
X97275714Y-66579714D02*
X97237619Y-66617809D01*
X97123333Y-66655904D01*
X97047142Y-66655904D01*
X96932857Y-66617809D01*
X96856666Y-66541619D01*
X96818571Y-66465428D01*
X96780476Y-66313047D01*
X96780476Y-66198761D01*
X96818571Y-66046380D01*
X96856666Y-65970190D01*
X96932857Y-65894000D01*
X97047142Y-65855904D01*
X97123333Y-65855904D01*
X97237619Y-65894000D01*
X97275714Y-65932095D01*
X98037619Y-66655904D02*
X97580476Y-66655904D01*
X97809047Y-66655904D02*
X97809047Y-65855904D01*
X97732857Y-65970190D01*
X97656666Y-66046380D01*
X97580476Y-66084476D01*
X98532857Y-65855904D02*
X98609047Y-65855904D01*
X98685238Y-65894000D01*
X98723333Y-65932095D01*
X98761428Y-66008285D01*
X98799523Y-66160666D01*
X98799523Y-66351142D01*
X98761428Y-66503523D01*
X98723333Y-66579714D01*
X98685238Y-66617809D01*
X98609047Y-66655904D01*
X98532857Y-66655904D01*
X98456666Y-66617809D01*
X98418571Y-66579714D01*
X98380476Y-66503523D01*
X98342380Y-66351142D01*
X98342380Y-66160666D01*
X98380476Y-66008285D01*
X98418571Y-65932095D01*
X98456666Y-65894000D01*
X98532857Y-65855904D01*
X102355714Y-66655904D02*
X102089047Y-66274952D01*
X101898571Y-66655904D02*
X101898571Y-65855904D01*
X102203333Y-65855904D01*
X102279523Y-65894000D01*
X102317619Y-65932095D01*
X102355714Y-66008285D01*
X102355714Y-66122571D01*
X102317619Y-66198761D01*
X102279523Y-66236857D01*
X102203333Y-66274952D01*
X101898571Y-66274952D01*
X103117619Y-66655904D02*
X102660476Y-66655904D01*
X102889047Y-66655904D02*
X102889047Y-65855904D01*
X102812857Y-65970190D01*
X102736666Y-66046380D01*
X102660476Y-66084476D01*
X103612857Y-65855904D02*
X103689047Y-65855904D01*
X103765238Y-65894000D01*
X103803333Y-65932095D01*
X103841428Y-66008285D01*
X103879523Y-66160666D01*
X103879523Y-66351142D01*
X103841428Y-66503523D01*
X103803333Y-66579714D01*
X103765238Y-66617809D01*
X103689047Y-66655904D01*
X103612857Y-66655904D01*
X103536666Y-66617809D01*
X103498571Y-66579714D01*
X103460476Y-66503523D01*
X103422380Y-66351142D01*
X103422380Y-66160666D01*
X103460476Y-66008285D01*
X103498571Y-65932095D01*
X103536666Y-65894000D01*
X103612857Y-65855904D01*
X102736666Y-70779904D02*
X102470000Y-70398952D01*
X102279523Y-70779904D02*
X102279523Y-69979904D01*
X102584285Y-69979904D01*
X102660476Y-70018000D01*
X102698571Y-70056095D01*
X102736666Y-70132285D01*
X102736666Y-70246571D01*
X102698571Y-70322761D01*
X102660476Y-70360857D01*
X102584285Y-70398952D01*
X102279523Y-70398952D01*
X103117619Y-70779904D02*
X103270000Y-70779904D01*
X103346190Y-70741809D01*
X103384285Y-70703714D01*
X103460476Y-70589428D01*
X103498571Y-70437047D01*
X103498571Y-70132285D01*
X103460476Y-70056095D01*
X103422380Y-70018000D01*
X103346190Y-69979904D01*
X103193809Y-69979904D01*
X103117619Y-70018000D01*
X103079523Y-70056095D01*
X103041428Y-70132285D01*
X103041428Y-70322761D01*
X103079523Y-70398952D01*
X103117619Y-70437047D01*
X103193809Y-70475142D01*
X103346190Y-70475142D01*
X103422380Y-70437047D01*
X103460476Y-70398952D01*
X103498571Y-70322761D01*
X102736666Y-73513904D02*
X102470000Y-73132952D01*
X102279523Y-73513904D02*
X102279523Y-72713904D01*
X102584285Y-72713904D01*
X102660476Y-72752000D01*
X102698571Y-72790095D01*
X102736666Y-72866285D01*
X102736666Y-72980571D01*
X102698571Y-73056761D01*
X102660476Y-73094857D01*
X102584285Y-73132952D01*
X102279523Y-73132952D01*
X103193809Y-73056761D02*
X103117619Y-73018666D01*
X103079523Y-72980571D01*
X103041428Y-72904380D01*
X103041428Y-72866285D01*
X103079523Y-72790095D01*
X103117619Y-72752000D01*
X103193809Y-72713904D01*
X103346190Y-72713904D01*
X103422380Y-72752000D01*
X103460476Y-72790095D01*
X103498571Y-72866285D01*
X103498571Y-72904380D01*
X103460476Y-72980571D01*
X103422380Y-73018666D01*
X103346190Y-73056761D01*
X103193809Y-73056761D01*
X103117619Y-73094857D01*
X103079523Y-73132952D01*
X103041428Y-73209142D01*
X103041428Y-73361523D01*
X103079523Y-73437714D01*
X103117619Y-73475809D01*
X103193809Y-73513904D01*
X103346190Y-73513904D01*
X103422380Y-73475809D01*
X103460476Y-73437714D01*
X103498571Y-73361523D01*
X103498571Y-73209142D01*
X103460476Y-73132952D01*
X103422380Y-73094857D01*
X103346190Y-73056761D01*
X59842476Y-71570904D02*
X59842476Y-72218523D01*
X59880571Y-72294714D01*
X59918666Y-72332809D01*
X59994857Y-72370904D01*
X60147238Y-72370904D01*
X60223428Y-72332809D01*
X60261523Y-72294714D01*
X60299619Y-72218523D01*
X60299619Y-71570904D01*
X61023428Y-71837571D02*
X61023428Y-72370904D01*
X60832952Y-71532809D02*
X60642476Y-72104238D01*
X61137714Y-72104238D01*
X102736666Y-76053904D02*
X102470000Y-75672952D01*
X102279523Y-76053904D02*
X102279523Y-75253904D01*
X102584285Y-75253904D01*
X102660476Y-75292000D01*
X102698571Y-75330095D01*
X102736666Y-75406285D01*
X102736666Y-75520571D01*
X102698571Y-75596761D01*
X102660476Y-75634857D01*
X102584285Y-75672952D01*
X102279523Y-75672952D01*
X103003333Y-75253904D02*
X103536666Y-75253904D01*
X103193809Y-76053904D01*
X55429238Y-84143857D02*
X55543523Y-84181952D01*
X55581619Y-84220047D01*
X55619714Y-84296238D01*
X55619714Y-84410523D01*
X55581619Y-84486714D01*
X55543523Y-84524809D01*
X55467333Y-84562904D01*
X55162571Y-84562904D01*
X55162571Y-83762904D01*
X55429238Y-83762904D01*
X55505428Y-83801000D01*
X55543523Y-83839095D01*
X55581619Y-83915285D01*
X55581619Y-83991476D01*
X55543523Y-84067666D01*
X55505428Y-84105761D01*
X55429238Y-84143857D01*
X55162571Y-84143857D01*
X55886380Y-83762904D02*
X56419714Y-83762904D01*
X55886380Y-84562904D01*
X56419714Y-84562904D01*
X57143523Y-84562904D02*
X56686380Y-84562904D01*
X56914952Y-84562904D02*
X56914952Y-83762904D01*
X56838761Y-83877190D01*
X56762571Y-83953380D01*
X56686380Y-83991476D01*
D12*
X57551428Y-82803952D02*
X57551428Y-82042047D01*
X57932380Y-82423000D02*
X57170476Y-82423000D01*
D10*
X63169809Y-88576095D02*
X63093619Y-88538000D01*
X63017428Y-88461809D01*
X62903142Y-88347523D01*
X62826952Y-88309428D01*
X62750761Y-88309428D01*
X62788857Y-88499904D02*
X62712666Y-88461809D01*
X62636476Y-88385619D01*
X62598380Y-88233238D01*
X62598380Y-87966571D01*
X62636476Y-87814190D01*
X62712666Y-87738000D01*
X62788857Y-87699904D01*
X62941238Y-87699904D01*
X63017428Y-87738000D01*
X63093619Y-87814190D01*
X63131714Y-87966571D01*
X63131714Y-88233238D01*
X63093619Y-88385619D01*
X63017428Y-88461809D01*
X62941238Y-88499904D01*
X62788857Y-88499904D01*
X63893619Y-88499904D02*
X63436476Y-88499904D01*
X63665047Y-88499904D02*
X63665047Y-87699904D01*
X63588857Y-87814190D01*
X63512666Y-87890380D01*
X63436476Y-87928476D01*
X89782666Y-68179904D02*
X89516000Y-67798952D01*
X89325523Y-68179904D02*
X89325523Y-67379904D01*
X89630285Y-67379904D01*
X89706476Y-67418000D01*
X89744571Y-67456095D01*
X89782666Y-67532285D01*
X89782666Y-67646571D01*
X89744571Y-67722761D01*
X89706476Y-67760857D01*
X89630285Y-67798952D01*
X89325523Y-67798952D01*
X90468380Y-67379904D02*
X90316000Y-67379904D01*
X90239809Y-67418000D01*
X90201714Y-67456095D01*
X90125523Y-67570380D01*
X90087428Y-67722761D01*
X90087428Y-68027523D01*
X90125523Y-68103714D01*
X90163619Y-68141809D01*
X90239809Y-68179904D01*
X90392190Y-68179904D01*
X90468380Y-68141809D01*
X90506476Y-68103714D01*
X90544571Y-68027523D01*
X90544571Y-67837047D01*
X90506476Y-67760857D01*
X90468380Y-67722761D01*
X90392190Y-67684666D01*
X90239809Y-67684666D01*
X90163619Y-67722761D01*
X90125523Y-67760857D01*
X90087428Y-67837047D01*
X89782666Y-59035904D02*
X89516000Y-58654952D01*
X89325523Y-59035904D02*
X89325523Y-58235904D01*
X89630285Y-58235904D01*
X89706476Y-58274000D01*
X89744571Y-58312095D01*
X89782666Y-58388285D01*
X89782666Y-58502571D01*
X89744571Y-58578761D01*
X89706476Y-58616857D01*
X89630285Y-58654952D01*
X89325523Y-58654952D01*
X90506476Y-58235904D02*
X90125523Y-58235904D01*
X90087428Y-58616857D01*
X90125523Y-58578761D01*
X90201714Y-58540666D01*
X90392190Y-58540666D01*
X90468380Y-58578761D01*
X90506476Y-58616857D01*
X90544571Y-58693047D01*
X90544571Y-58883523D01*
X90506476Y-58959714D01*
X90468380Y-58997809D01*
X90392190Y-59035904D01*
X90201714Y-59035904D01*
X90125523Y-58997809D01*
X90087428Y-58959714D01*
X88036476Y-62299904D02*
X88036476Y-62947523D01*
X88074571Y-63023714D01*
X88112666Y-63061809D01*
X88188857Y-63099904D01*
X88341238Y-63099904D01*
X88417428Y-63061809D01*
X88455523Y-63023714D01*
X88493619Y-62947523D01*
X88493619Y-62299904D01*
X88798380Y-62299904D02*
X89293619Y-62299904D01*
X89026952Y-62604666D01*
X89141238Y-62604666D01*
X89217428Y-62642761D01*
X89255523Y-62680857D01*
X89293619Y-62757047D01*
X89293619Y-62947523D01*
X89255523Y-63023714D01*
X89217428Y-63061809D01*
X89141238Y-63099904D01*
X88912666Y-63099904D01*
X88836476Y-63061809D01*
X88798380Y-63023714D01*
X108324666Y-53625714D02*
X108286571Y-53663809D01*
X108172285Y-53701904D01*
X108096095Y-53701904D01*
X107981809Y-53663809D01*
X107905619Y-53587619D01*
X107867523Y-53511428D01*
X107829428Y-53359047D01*
X107829428Y-53244761D01*
X107867523Y-53092380D01*
X107905619Y-53016190D01*
X107981809Y-52940000D01*
X108096095Y-52901904D01*
X108172285Y-52901904D01*
X108286571Y-52940000D01*
X108324666Y-52978095D01*
X108591333Y-52901904D02*
X109086571Y-52901904D01*
X108819904Y-53206666D01*
X108934190Y-53206666D01*
X109010380Y-53244761D01*
X109048476Y-53282857D01*
X109086571Y-53359047D01*
X109086571Y-53549523D01*
X109048476Y-53625714D01*
X109010380Y-53663809D01*
X108934190Y-53701904D01*
X108705619Y-53701904D01*
X108629428Y-53663809D01*
X108591333Y-53625714D01*
X95116666Y-60737714D02*
X95078571Y-60775809D01*
X94964285Y-60813904D01*
X94888095Y-60813904D01*
X94773809Y-60775809D01*
X94697619Y-60699619D01*
X94659523Y-60623428D01*
X94621428Y-60471047D01*
X94621428Y-60356761D01*
X94659523Y-60204380D01*
X94697619Y-60128190D01*
X94773809Y-60052000D01*
X94888095Y-60013904D01*
X94964285Y-60013904D01*
X95078571Y-60052000D01*
X95116666Y-60090095D01*
X95802380Y-60280571D02*
X95802380Y-60813904D01*
X95611904Y-59975809D02*
X95421428Y-60547238D01*
X95916666Y-60547238D01*
X97015333Y-52901904D02*
X97015333Y-53473333D01*
X96977238Y-53587619D01*
X96901047Y-53663809D01*
X96786761Y-53701904D01*
X96710571Y-53701904D01*
X97358190Y-52978095D02*
X97396285Y-52940000D01*
X97472476Y-52901904D01*
X97662952Y-52901904D01*
X97739142Y-52940000D01*
X97777238Y-52978095D01*
X97815333Y-53054285D01*
X97815333Y-53130476D01*
X97777238Y-53244761D01*
X97320095Y-53701904D01*
X97815333Y-53701904D01*
X75565047Y-59162952D02*
X75565047Y-59543904D01*
X75298380Y-58743904D02*
X75565047Y-59162952D01*
X75831714Y-58743904D01*
X76517428Y-59543904D02*
X76060285Y-59543904D01*
X76288857Y-59543904D02*
X76288857Y-58743904D01*
X76212666Y-58858190D01*
X76136476Y-58934380D01*
X76060285Y-58972476D01*
X112509333Y-67025904D02*
X112509333Y-67597333D01*
X112471238Y-67711619D01*
X112395047Y-67787809D01*
X112280761Y-67825904D01*
X112204571Y-67825904D01*
X113309333Y-67825904D02*
X112852190Y-67825904D01*
X113080761Y-67825904D02*
X113080761Y-67025904D01*
X113004571Y-67140190D01*
X112928380Y-67216380D01*
X112852190Y-67254476D01*
X106800666Y-74783904D02*
X106534000Y-74402952D01*
X106343523Y-74783904D02*
X106343523Y-73983904D01*
X106648285Y-73983904D01*
X106724476Y-74022000D01*
X106762571Y-74060095D01*
X106800666Y-74136285D01*
X106800666Y-74250571D01*
X106762571Y-74326761D01*
X106724476Y-74364857D01*
X106648285Y-74402952D01*
X106343523Y-74402952D01*
X107067333Y-73983904D02*
X107562571Y-73983904D01*
X107295904Y-74288666D01*
X107410190Y-74288666D01*
X107486380Y-74326761D01*
X107524476Y-74364857D01*
X107562571Y-74441047D01*
X107562571Y-74631523D01*
X107524476Y-74707714D01*
X107486380Y-74745809D01*
X107410190Y-74783904D01*
X107181619Y-74783904D01*
X107105428Y-74745809D01*
X107067333Y-74707714D01*
X106800666Y-69449904D02*
X106534000Y-69068952D01*
X106343523Y-69449904D02*
X106343523Y-68649904D01*
X106648285Y-68649904D01*
X106724476Y-68688000D01*
X106762571Y-68726095D01*
X106800666Y-68802285D01*
X106800666Y-68916571D01*
X106762571Y-68992761D01*
X106724476Y-69030857D01*
X106648285Y-69068952D01*
X106343523Y-69068952D01*
X107486380Y-68916571D02*
X107486380Y-69449904D01*
X107295904Y-68611809D02*
X107105428Y-69183238D01*
X107600666Y-69183238D01*
X100990476Y-55695904D02*
X100990476Y-56343523D01*
X101028571Y-56419714D01*
X101066666Y-56457809D01*
X101142857Y-56495904D01*
X101295238Y-56495904D01*
X101371428Y-56457809D01*
X101409523Y-56419714D01*
X101447619Y-56343523D01*
X101447619Y-55695904D01*
X102171428Y-55695904D02*
X102019047Y-55695904D01*
X101942857Y-55734000D01*
X101904761Y-55772095D01*
X101828571Y-55886380D01*
X101790476Y-56038761D01*
X101790476Y-56343523D01*
X101828571Y-56419714D01*
X101866666Y-56457809D01*
X101942857Y-56495904D01*
X102095238Y-56495904D01*
X102171428Y-56457809D01*
X102209523Y-56419714D01*
X102247619Y-56343523D01*
X102247619Y-56153047D01*
X102209523Y-56076857D01*
X102171428Y-56038761D01*
X102095238Y-56000666D01*
X101942857Y-56000666D01*
X101866666Y-56038761D01*
X101828571Y-56076857D01*
X101790476Y-56153047D01*
X56127666Y-72116904D02*
X55861000Y-71735952D01*
X55670523Y-72116904D02*
X55670523Y-71316904D01*
X55975285Y-71316904D01*
X56051476Y-71355000D01*
X56089571Y-71393095D01*
X56127666Y-71469285D01*
X56127666Y-71583571D01*
X56089571Y-71659761D01*
X56051476Y-71697857D01*
X55975285Y-71735952D01*
X55670523Y-71735952D01*
X56432428Y-71393095D02*
X56470523Y-71355000D01*
X56546714Y-71316904D01*
X56737190Y-71316904D01*
X56813380Y-71355000D01*
X56851476Y-71393095D01*
X56889571Y-71469285D01*
X56889571Y-71545476D01*
X56851476Y-71659761D01*
X56394333Y-72116904D01*
X56889571Y-72116904D01*
X79622666Y-64039714D02*
X79584571Y-64077809D01*
X79470285Y-64115904D01*
X79394095Y-64115904D01*
X79279809Y-64077809D01*
X79203619Y-64001619D01*
X79165523Y-63925428D01*
X79127428Y-63773047D01*
X79127428Y-63658761D01*
X79165523Y-63506380D01*
X79203619Y-63430190D01*
X79279809Y-63354000D01*
X79394095Y-63315904D01*
X79470285Y-63315904D01*
X79584571Y-63354000D01*
X79622666Y-63392095D01*
X79927428Y-63392095D02*
X79965523Y-63354000D01*
X80041714Y-63315904D01*
X80232190Y-63315904D01*
X80308380Y-63354000D01*
X80346476Y-63392095D01*
X80384571Y-63468285D01*
X80384571Y-63544476D01*
X80346476Y-63658761D01*
X79889333Y-64115904D01*
X80384571Y-64115904D01*
X71748666Y-64039714D02*
X71710571Y-64077809D01*
X71596285Y-64115904D01*
X71520095Y-64115904D01*
X71405809Y-64077809D01*
X71329619Y-64001619D01*
X71291523Y-63925428D01*
X71253428Y-63773047D01*
X71253428Y-63658761D01*
X71291523Y-63506380D01*
X71329619Y-63430190D01*
X71405809Y-63354000D01*
X71520095Y-63315904D01*
X71596285Y-63315904D01*
X71710571Y-63354000D01*
X71748666Y-63392095D01*
X72510571Y-64115904D02*
X72053428Y-64115904D01*
X72282000Y-64115904D02*
X72282000Y-63315904D01*
X72205809Y-63430190D01*
X72129619Y-63506380D01*
X72053428Y-63544476D01*
X88036476Y-71443904D02*
X88036476Y-72091523D01*
X88074571Y-72167714D01*
X88112666Y-72205809D01*
X88188857Y-72243904D01*
X88341238Y-72243904D01*
X88417428Y-72205809D01*
X88455523Y-72167714D01*
X88493619Y-72091523D01*
X88493619Y-71443904D01*
X88836476Y-71520095D02*
X88874571Y-71482000D01*
X88950761Y-71443904D01*
X89141238Y-71443904D01*
X89217428Y-71482000D01*
X89255523Y-71520095D01*
X89293619Y-71596285D01*
X89293619Y-71672476D01*
X89255523Y-71786761D01*
X88798380Y-72243904D01*
X89293619Y-72243904D01*
X63366666Y-82276904D02*
X63100000Y-81895952D01*
X62909523Y-82276904D02*
X62909523Y-81476904D01*
X63214285Y-81476904D01*
X63290476Y-81515000D01*
X63328571Y-81553095D01*
X63366666Y-81629285D01*
X63366666Y-81743571D01*
X63328571Y-81819761D01*
X63290476Y-81857857D01*
X63214285Y-81895952D01*
X62909523Y-81895952D01*
X64128571Y-82276904D02*
X63671428Y-82276904D01*
X63900000Y-82276904D02*
X63900000Y-81476904D01*
X63823809Y-81591190D01*
X63747619Y-81667380D01*
X63671428Y-81705476D01*
X72785190Y-69773904D02*
X73242333Y-69773904D01*
X73013761Y-70573904D02*
X73013761Y-69773904D01*
X73470904Y-70535809D02*
X73585190Y-70573904D01*
X73775666Y-70573904D01*
X73851857Y-70535809D01*
X73889952Y-70497714D01*
X73928047Y-70421523D01*
X73928047Y-70345333D01*
X73889952Y-70269142D01*
X73851857Y-70231047D01*
X73775666Y-70192952D01*
X73623285Y-70154857D01*
X73547095Y-70116761D01*
X73509000Y-70078666D01*
X73470904Y-70002476D01*
X73470904Y-69926285D01*
X73509000Y-69850095D01*
X73547095Y-69812000D01*
X73623285Y-69773904D01*
X73813761Y-69773904D01*
X73928047Y-69812000D01*
X74232809Y-70535809D02*
X74347095Y-70573904D01*
X74537571Y-70573904D01*
X74613761Y-70535809D01*
X74651857Y-70497714D01*
X74689952Y-70421523D01*
X74689952Y-70345333D01*
X74651857Y-70269142D01*
X74613761Y-70231047D01*
X74537571Y-70192952D01*
X74385190Y-70154857D01*
X74309000Y-70116761D01*
X74270904Y-70078666D01*
X74232809Y-70002476D01*
X74232809Y-69926285D01*
X74270904Y-69850095D01*
X74309000Y-69812000D01*
X74385190Y-69773904D01*
X74575666Y-69773904D01*
X74689952Y-69812000D01*
X75375666Y-70040571D02*
X75375666Y-70573904D01*
X75185190Y-69735809D02*
X74994714Y-70307238D01*
X75489952Y-70307238D01*
X76137571Y-69773904D02*
X75985190Y-69773904D01*
X75909000Y-69812000D01*
X75870904Y-69850095D01*
X75794714Y-69964380D01*
X75756619Y-70116761D01*
X75756619Y-70421523D01*
X75794714Y-70497714D01*
X75832809Y-70535809D01*
X75909000Y-70573904D01*
X76061380Y-70573904D01*
X76137571Y-70535809D01*
X76175666Y-70497714D01*
X76213761Y-70421523D01*
X76213761Y-70231047D01*
X76175666Y-70154857D01*
X76137571Y-70116761D01*
X76061380Y-70078666D01*
X75909000Y-70078666D01*
X75832809Y-70116761D01*
X75794714Y-70154857D01*
X75756619Y-70231047D01*
X76480428Y-69773904D02*
X76975666Y-69773904D01*
X76709000Y-70078666D01*
X76823285Y-70078666D01*
X76899476Y-70116761D01*
X76937571Y-70154857D01*
X76975666Y-70231047D01*
X76975666Y-70421523D01*
X76937571Y-70497714D01*
X76899476Y-70535809D01*
X76823285Y-70573904D01*
X76594714Y-70573904D01*
X76518523Y-70535809D01*
X76480428Y-70497714D01*
X77775666Y-70497714D02*
X77737571Y-70535809D01*
X77623285Y-70573904D01*
X77547095Y-70573904D01*
X77432809Y-70535809D01*
X77356619Y-70459619D01*
X77318523Y-70383428D01*
X77280428Y-70231047D01*
X77280428Y-70116761D01*
X77318523Y-69964380D01*
X77356619Y-69888190D01*
X77432809Y-69812000D01*
X77547095Y-69773904D01*
X77623285Y-69773904D01*
X77737571Y-69812000D01*
X77775666Y-69850095D01*
M02*
