%TF.GenerationSoftware,KiCad,Pcbnew,(5.0.0)*%
%TF.CreationDate,2019-11-04T22:18:49+01:00*%
%TF.ProjectId,PSAVanCanBridge_v14,50534156616E43616E4272696467655F,rev?*%
%TF.SameCoordinates,Original*%
%TF.FileFunction,Soldermask,Bot*%
%TF.FilePolarity,Negative*%
%FSLAX46Y46*%
G04 Gerber Fmt 4.6, Leading zero omitted, Abs format (unit mm)*
G04 Created by KiCad (PCBNEW (5.0.0)) date 11/04/19 22:18:49*
%MOMM*%
%LPD*%
G01*
G04 APERTURE LIST*
%ADD10C,0.100000*%
G04 APERTURE END LIST*
D10*
G36*
X70232707Y-88365596D02*
X70309836Y-88373193D01*
X70441787Y-88413220D01*
X70507763Y-88433233D01*
X70690172Y-88530733D01*
X70850054Y-88661946D01*
X70981267Y-88821828D01*
X71078767Y-89004237D01*
X71078767Y-89004238D01*
X71138807Y-89202164D01*
X71159080Y-89408000D01*
X71138807Y-89613836D01*
X71098780Y-89745787D01*
X71078767Y-89811763D01*
X70981267Y-89994172D01*
X70850054Y-90154054D01*
X70690172Y-90285267D01*
X70507763Y-90382767D01*
X70441787Y-90402780D01*
X70309836Y-90442807D01*
X70232707Y-90450403D01*
X70155580Y-90458000D01*
X70052420Y-90458000D01*
X69975293Y-90450403D01*
X69898164Y-90442807D01*
X69766213Y-90402780D01*
X69700237Y-90382767D01*
X69517828Y-90285267D01*
X69357946Y-90154054D01*
X69226733Y-89994172D01*
X69129233Y-89811763D01*
X69109220Y-89745787D01*
X69069193Y-89613836D01*
X69048920Y-89408000D01*
X69069193Y-89202164D01*
X69129233Y-89004238D01*
X69129233Y-89004237D01*
X69226733Y-88821828D01*
X69357946Y-88661946D01*
X69517828Y-88530733D01*
X69700237Y-88433233D01*
X69766213Y-88413220D01*
X69898164Y-88373193D01*
X69975293Y-88365596D01*
X70052420Y-88358000D01*
X70155580Y-88358000D01*
X70232707Y-88365596D01*
X70232707Y-88365596D01*
G37*
G36*
X68614000Y-90458000D02*
X66514000Y-90458000D01*
X66514000Y-88358000D01*
X68614000Y-88358000D01*
X68614000Y-90458000D01*
X68614000Y-90458000D01*
G37*
G36*
X70232707Y-85444597D02*
X70309836Y-85452193D01*
X70441787Y-85492220D01*
X70507763Y-85512233D01*
X70690172Y-85609733D01*
X70850054Y-85740946D01*
X70981267Y-85900828D01*
X71078767Y-86083237D01*
X71078767Y-86083238D01*
X71138807Y-86281164D01*
X71159080Y-86487000D01*
X71138807Y-86692836D01*
X71098780Y-86824787D01*
X71078767Y-86890763D01*
X70981267Y-87073172D01*
X70850054Y-87233054D01*
X70690172Y-87364267D01*
X70507763Y-87461767D01*
X70441787Y-87481780D01*
X70309836Y-87521807D01*
X70232707Y-87529403D01*
X70155580Y-87537000D01*
X70052420Y-87537000D01*
X69975293Y-87529403D01*
X69898164Y-87521807D01*
X69766213Y-87481780D01*
X69700237Y-87461767D01*
X69517828Y-87364267D01*
X69357946Y-87233054D01*
X69226733Y-87073172D01*
X69129233Y-86890763D01*
X69109220Y-86824787D01*
X69069193Y-86692836D01*
X69048920Y-86487000D01*
X69069193Y-86281164D01*
X69129233Y-86083238D01*
X69129233Y-86083237D01*
X69226733Y-85900828D01*
X69357946Y-85740946D01*
X69517828Y-85609733D01*
X69700237Y-85512233D01*
X69766213Y-85492220D01*
X69898164Y-85452193D01*
X69975293Y-85444597D01*
X70052420Y-85437000D01*
X70155580Y-85437000D01*
X70232707Y-85444597D01*
X70232707Y-85444597D01*
G37*
G36*
X68614000Y-87537000D02*
X66514000Y-87537000D01*
X66514000Y-85437000D01*
X68614000Y-85437000D01*
X68614000Y-87537000D01*
X68614000Y-87537000D01*
G37*
G36*
X111286000Y-87410000D02*
X109186000Y-87410000D01*
X109186000Y-85310000D01*
X111286000Y-85310000D01*
X111286000Y-87410000D01*
X111286000Y-87410000D01*
G37*
G36*
X62023375Y-85411159D02*
X62118125Y-85420491D01*
X62209234Y-85448128D01*
X62254789Y-85461947D01*
X62380738Y-85529269D01*
X62491132Y-85619868D01*
X62514374Y-85648188D01*
X62531701Y-85665515D01*
X62552075Y-85679129D01*
X62574714Y-85688507D01*
X62598748Y-85693287D01*
X62623252Y-85693287D01*
X62647286Y-85688507D01*
X62669925Y-85679129D01*
X62690299Y-85665515D01*
X62707625Y-85648190D01*
X62730870Y-85619867D01*
X62841263Y-85529269D01*
X62967212Y-85461947D01*
X63012767Y-85448128D01*
X63103876Y-85420491D01*
X63246000Y-85406493D01*
X63246001Y-85406493D01*
X63293375Y-85411159D01*
X63388125Y-85420491D01*
X63479234Y-85448128D01*
X63524789Y-85461947D01*
X63607075Y-85505931D01*
X63629713Y-85515308D01*
X63653747Y-85520089D01*
X63678251Y-85520089D01*
X63702285Y-85515309D01*
X63724924Y-85505932D01*
X63745298Y-85492318D01*
X63762626Y-85474991D01*
X63776240Y-85454616D01*
X63785617Y-85431978D01*
X63789989Y-85410000D01*
X65241000Y-85410000D01*
X65241000Y-87310000D01*
X63789591Y-87310000D01*
X63788598Y-87299923D01*
X63781485Y-87276474D01*
X63769934Y-87254863D01*
X63754388Y-87235921D01*
X63735446Y-87220375D01*
X63713835Y-87208824D01*
X63690386Y-87201711D01*
X63666000Y-87199309D01*
X63641614Y-87201711D01*
X63618165Y-87208824D01*
X63607075Y-87214069D01*
X63524788Y-87258053D01*
X63479233Y-87271872D01*
X63388124Y-87299509D01*
X63246000Y-87313507D01*
X63245999Y-87313507D01*
X63198625Y-87308841D01*
X63103875Y-87299509D01*
X63012766Y-87271872D01*
X62967211Y-87258053D01*
X62841262Y-87190731D01*
X62730868Y-87100132D01*
X62707626Y-87071812D01*
X62690299Y-87054485D01*
X62669925Y-87040871D01*
X62647286Y-87031493D01*
X62623252Y-87026713D01*
X62598748Y-87026713D01*
X62574714Y-87031493D01*
X62552075Y-87040871D01*
X62531701Y-87054485D01*
X62514374Y-87071812D01*
X62491132Y-87100132D01*
X62380737Y-87190731D01*
X62254788Y-87258053D01*
X62209233Y-87271872D01*
X62118124Y-87299509D01*
X61976000Y-87313507D01*
X61975999Y-87313507D01*
X61928625Y-87308841D01*
X61833875Y-87299509D01*
X61742766Y-87271872D01*
X61697211Y-87258053D01*
X61571262Y-87190731D01*
X61460868Y-87100132D01*
X61370269Y-86989737D01*
X61302947Y-86863788D01*
X61289128Y-86818233D01*
X61261491Y-86727124D01*
X61251000Y-86620606D01*
X61251000Y-86099393D01*
X61261491Y-85992875D01*
X61302947Y-85856212D01*
X61302947Y-85856211D01*
X61370268Y-85730265D01*
X61370269Y-85730263D01*
X61460869Y-85619868D01*
X61460871Y-85619866D01*
X61571263Y-85529269D01*
X61697212Y-85461947D01*
X61742767Y-85448128D01*
X61833876Y-85420491D01*
X61976000Y-85406493D01*
X61976001Y-85406493D01*
X62023375Y-85411159D01*
X62023375Y-85411159D01*
G37*
G36*
X56055770Y-84638372D02*
X56171689Y-84661429D01*
X56353678Y-84736811D01*
X56517463Y-84846249D01*
X56656751Y-84985537D01*
X56766189Y-85149322D01*
X56841571Y-85331311D01*
X56856525Y-85406493D01*
X56880000Y-85524507D01*
X56880000Y-85721493D01*
X56864628Y-85798770D01*
X56841571Y-85914689D01*
X56766189Y-86096678D01*
X56656751Y-86260463D01*
X56517463Y-86399751D01*
X56353678Y-86509189D01*
X56171689Y-86584571D01*
X56055770Y-86607628D01*
X55978493Y-86623000D01*
X55781507Y-86623000D01*
X55704230Y-86607628D01*
X55588311Y-86584571D01*
X55406322Y-86509189D01*
X55242537Y-86399751D01*
X55103249Y-86260463D01*
X54993811Y-86096678D01*
X54918429Y-85914689D01*
X54895372Y-85798770D01*
X54880000Y-85721493D01*
X54880000Y-85524507D01*
X54903475Y-85406493D01*
X54918429Y-85331311D01*
X54993811Y-85149322D01*
X55103249Y-84985537D01*
X55242537Y-84846249D01*
X55406322Y-84736811D01*
X55588311Y-84661429D01*
X55704230Y-84638372D01*
X55781507Y-84623000D01*
X55978493Y-84623000D01*
X56055770Y-84638372D01*
X56055770Y-84638372D01*
G37*
G36*
X110364707Y-82777596D02*
X110441836Y-82785193D01*
X110573787Y-82825220D01*
X110639763Y-82845233D01*
X110822172Y-82942733D01*
X110982054Y-83073946D01*
X111113267Y-83233828D01*
X111210767Y-83416237D01*
X111210767Y-83416238D01*
X111270807Y-83614164D01*
X111291080Y-83820000D01*
X111270807Y-84025836D01*
X111230780Y-84157787D01*
X111210767Y-84223763D01*
X111113267Y-84406172D01*
X110982054Y-84566054D01*
X110822172Y-84697267D01*
X110639763Y-84794767D01*
X110573787Y-84814780D01*
X110441836Y-84854807D01*
X110364707Y-84862403D01*
X110287580Y-84870000D01*
X110184420Y-84870000D01*
X110107293Y-84862403D01*
X110030164Y-84854807D01*
X109898213Y-84814780D01*
X109832237Y-84794767D01*
X109649828Y-84697267D01*
X109489946Y-84566054D01*
X109358733Y-84406172D01*
X109261233Y-84223763D01*
X109241220Y-84157787D01*
X109201193Y-84025836D01*
X109180920Y-83820000D01*
X109201193Y-83614164D01*
X109261233Y-83416238D01*
X109261233Y-83416237D01*
X109358733Y-83233828D01*
X109489946Y-83073946D01*
X109649828Y-82942733D01*
X109832237Y-82845233D01*
X109898213Y-82825220D01*
X110030164Y-82785193D01*
X110107293Y-82777596D01*
X110184420Y-82770000D01*
X110287580Y-82770000D01*
X110364707Y-82777596D01*
X110364707Y-82777596D01*
G37*
G36*
X56880000Y-83423000D02*
X54880000Y-83423000D01*
X54880000Y-81423000D01*
X56880000Y-81423000D01*
X56880000Y-83423000D01*
X56880000Y-83423000D01*
G37*
G36*
X110364707Y-80237597D02*
X110441836Y-80245193D01*
X110573787Y-80285220D01*
X110639763Y-80305233D01*
X110822172Y-80402733D01*
X110982054Y-80533946D01*
X111113267Y-80693828D01*
X111210767Y-80876237D01*
X111210767Y-80876238D01*
X111270807Y-81074164D01*
X111291080Y-81280000D01*
X111270807Y-81485836D01*
X111230780Y-81617787D01*
X111210767Y-81683763D01*
X111113267Y-81866172D01*
X110982054Y-82026054D01*
X110822172Y-82157267D01*
X110639763Y-82254767D01*
X110573787Y-82274780D01*
X110441836Y-82314807D01*
X110364707Y-82322404D01*
X110287580Y-82330000D01*
X110184420Y-82330000D01*
X110107293Y-82322404D01*
X110030164Y-82314807D01*
X109898213Y-82274780D01*
X109832237Y-82254767D01*
X109649828Y-82157267D01*
X109489946Y-82026054D01*
X109358733Y-81866172D01*
X109261233Y-81683763D01*
X109241220Y-81617787D01*
X109201193Y-81485836D01*
X109180920Y-81280000D01*
X109201193Y-81074164D01*
X109261233Y-80876238D01*
X109261233Y-80876237D01*
X109358733Y-80693828D01*
X109489946Y-80533946D01*
X109649828Y-80402733D01*
X109832237Y-80305233D01*
X109898213Y-80285220D01*
X110030164Y-80245193D01*
X110107293Y-80237597D01*
X110184420Y-80230000D01*
X110287580Y-80230000D01*
X110364707Y-80237597D01*
X110364707Y-80237597D01*
G37*
G36*
X110364707Y-77697597D02*
X110441836Y-77705193D01*
X110573787Y-77745220D01*
X110639763Y-77765233D01*
X110822172Y-77862733D01*
X110982054Y-77993946D01*
X111113267Y-78153828D01*
X111210767Y-78336237D01*
X111210767Y-78336238D01*
X111270807Y-78534164D01*
X111291080Y-78740000D01*
X111270807Y-78945836D01*
X111243609Y-79035497D01*
X111210767Y-79143763D01*
X111113267Y-79326172D01*
X110982054Y-79486054D01*
X110822172Y-79617267D01*
X110639763Y-79714767D01*
X110573787Y-79734780D01*
X110441836Y-79774807D01*
X110364707Y-79782403D01*
X110287580Y-79790000D01*
X110184420Y-79790000D01*
X110107293Y-79782403D01*
X110030164Y-79774807D01*
X109898213Y-79734780D01*
X109832237Y-79714767D01*
X109649828Y-79617267D01*
X109489946Y-79486054D01*
X109358733Y-79326172D01*
X109261233Y-79143763D01*
X109228391Y-79035497D01*
X109201193Y-78945836D01*
X109180920Y-78740000D01*
X109201193Y-78534164D01*
X109261233Y-78336238D01*
X109261233Y-78336237D01*
X109358733Y-78153828D01*
X109489946Y-77993946D01*
X109649828Y-77862733D01*
X109832237Y-77765233D01*
X109898213Y-77745220D01*
X110030164Y-77705193D01*
X110107293Y-77697597D01*
X110184420Y-77690000D01*
X110287580Y-77690000D01*
X110364707Y-77697597D01*
X110364707Y-77697597D01*
G37*
G36*
X93089888Y-77059470D02*
X93270274Y-77095350D01*
X93461362Y-77174502D01*
X93633336Y-77289411D01*
X93779589Y-77435664D01*
X93894498Y-77607638D01*
X93973650Y-77798726D01*
X94014000Y-78001584D01*
X94014000Y-78208416D01*
X93973650Y-78411274D01*
X93894498Y-78602362D01*
X93779589Y-78774336D01*
X93633336Y-78920589D01*
X93461362Y-79035498D01*
X93270274Y-79114650D01*
X93089888Y-79150530D01*
X93067417Y-79155000D01*
X92860583Y-79155000D01*
X92838112Y-79150530D01*
X92657726Y-79114650D01*
X92466638Y-79035498D01*
X92294664Y-78920589D01*
X92148411Y-78774336D01*
X92033502Y-78602362D01*
X91954350Y-78411274D01*
X91914000Y-78208416D01*
X91914000Y-78001584D01*
X91954350Y-77798726D01*
X92033502Y-77607638D01*
X92148411Y-77435664D01*
X92294664Y-77289411D01*
X92466638Y-77174502D01*
X92657726Y-77095350D01*
X92838112Y-77059470D01*
X92860583Y-77055000D01*
X93067417Y-77055000D01*
X93089888Y-77059470D01*
X93089888Y-77059470D01*
G37*
G36*
X90549888Y-77059470D02*
X90730274Y-77095350D01*
X90921362Y-77174502D01*
X91093336Y-77289411D01*
X91239589Y-77435664D01*
X91354498Y-77607638D01*
X91433650Y-77798726D01*
X91474000Y-78001584D01*
X91474000Y-78208416D01*
X91433650Y-78411274D01*
X91354498Y-78602362D01*
X91239589Y-78774336D01*
X91093336Y-78920589D01*
X90921362Y-79035498D01*
X90730274Y-79114650D01*
X90549888Y-79150530D01*
X90527417Y-79155000D01*
X90320583Y-79155000D01*
X90298112Y-79150530D01*
X90117726Y-79114650D01*
X89926638Y-79035498D01*
X89754664Y-78920589D01*
X89608411Y-78774336D01*
X89493502Y-78602362D01*
X89414350Y-78411274D01*
X89374000Y-78208416D01*
X89374000Y-78001584D01*
X89414350Y-77798726D01*
X89493502Y-77607638D01*
X89608411Y-77435664D01*
X89754664Y-77289411D01*
X89926638Y-77174502D01*
X90117726Y-77095350D01*
X90298112Y-77059470D01*
X90320583Y-77055000D01*
X90527417Y-77055000D01*
X90549888Y-77059470D01*
X90549888Y-77059470D01*
G37*
G36*
X88009888Y-77059470D02*
X88190274Y-77095350D01*
X88381362Y-77174502D01*
X88553336Y-77289411D01*
X88699589Y-77435664D01*
X88814498Y-77607638D01*
X88893650Y-77798726D01*
X88934000Y-78001584D01*
X88934000Y-78208416D01*
X88893650Y-78411274D01*
X88814498Y-78602362D01*
X88699589Y-78774336D01*
X88553336Y-78920589D01*
X88381362Y-79035498D01*
X88190274Y-79114650D01*
X88009888Y-79150530D01*
X87987417Y-79155000D01*
X87780583Y-79155000D01*
X87758112Y-79150530D01*
X87577726Y-79114650D01*
X87386638Y-79035498D01*
X87214664Y-78920589D01*
X87068411Y-78774336D01*
X86953502Y-78602362D01*
X86874350Y-78411274D01*
X86834000Y-78208416D01*
X86834000Y-78001584D01*
X86874350Y-77798726D01*
X86953502Y-77607638D01*
X87068411Y-77435664D01*
X87214664Y-77289411D01*
X87386638Y-77174502D01*
X87577726Y-77095350D01*
X87758112Y-77059470D01*
X87780583Y-77055000D01*
X87987417Y-77055000D01*
X88009888Y-77059470D01*
X88009888Y-77059470D01*
G37*
G36*
X85469888Y-77059470D02*
X85650274Y-77095350D01*
X85841362Y-77174502D01*
X86013336Y-77289411D01*
X86159589Y-77435664D01*
X86274498Y-77607638D01*
X86353650Y-77798726D01*
X86394000Y-78001584D01*
X86394000Y-78208416D01*
X86353650Y-78411274D01*
X86274498Y-78602362D01*
X86159589Y-78774336D01*
X86013336Y-78920589D01*
X85841362Y-79035498D01*
X85650274Y-79114650D01*
X85469888Y-79150530D01*
X85447417Y-79155000D01*
X85240583Y-79155000D01*
X85218112Y-79150530D01*
X85037726Y-79114650D01*
X84846638Y-79035498D01*
X84674664Y-78920589D01*
X84528411Y-78774336D01*
X84413502Y-78602362D01*
X84334350Y-78411274D01*
X84294000Y-78208416D01*
X84294000Y-78001584D01*
X84334350Y-77798726D01*
X84413502Y-77607638D01*
X84528411Y-77435664D01*
X84674664Y-77289411D01*
X84846638Y-77174502D01*
X85037726Y-77095350D01*
X85218112Y-77059470D01*
X85240583Y-77055000D01*
X85447417Y-77055000D01*
X85469888Y-77059470D01*
X85469888Y-77059470D01*
G37*
G36*
X67689888Y-77059470D02*
X67870274Y-77095350D01*
X68061362Y-77174502D01*
X68233336Y-77289411D01*
X68379589Y-77435664D01*
X68494498Y-77607638D01*
X68573650Y-77798726D01*
X68614000Y-78001584D01*
X68614000Y-78208416D01*
X68573650Y-78411274D01*
X68494498Y-78602362D01*
X68379589Y-78774336D01*
X68233336Y-78920589D01*
X68061362Y-79035498D01*
X67870274Y-79114650D01*
X67689888Y-79150530D01*
X67667417Y-79155000D01*
X67460583Y-79155000D01*
X67438112Y-79150530D01*
X67257726Y-79114650D01*
X67066638Y-79035498D01*
X66894664Y-78920589D01*
X66748411Y-78774336D01*
X66633502Y-78602362D01*
X66554350Y-78411274D01*
X66514000Y-78208416D01*
X66514000Y-78001584D01*
X66554350Y-77798726D01*
X66633502Y-77607638D01*
X66748411Y-77435664D01*
X66894664Y-77289411D01*
X67066638Y-77174502D01*
X67257726Y-77095350D01*
X67438112Y-77059470D01*
X67460583Y-77055000D01*
X67667417Y-77055000D01*
X67689888Y-77059470D01*
X67689888Y-77059470D01*
G37*
G36*
X82929888Y-77059470D02*
X83110274Y-77095350D01*
X83301362Y-77174502D01*
X83473336Y-77289411D01*
X83619589Y-77435664D01*
X83734498Y-77607638D01*
X83813650Y-77798726D01*
X83854000Y-78001584D01*
X83854000Y-78208416D01*
X83813650Y-78411274D01*
X83734498Y-78602362D01*
X83619589Y-78774336D01*
X83473336Y-78920589D01*
X83301362Y-79035498D01*
X83110274Y-79114650D01*
X82929888Y-79150530D01*
X82907417Y-79155000D01*
X82700583Y-79155000D01*
X82678112Y-79150530D01*
X82497726Y-79114650D01*
X82306638Y-79035498D01*
X82134664Y-78920589D01*
X81988411Y-78774336D01*
X81873502Y-78602362D01*
X81794350Y-78411274D01*
X81754000Y-78208416D01*
X81754000Y-78001584D01*
X81794350Y-77798726D01*
X81873502Y-77607638D01*
X81988411Y-77435664D01*
X82134664Y-77289411D01*
X82306638Y-77174502D01*
X82497726Y-77095350D01*
X82678112Y-77059470D01*
X82700583Y-77055000D01*
X82907417Y-77055000D01*
X82929888Y-77059470D01*
X82929888Y-77059470D01*
G37*
G36*
X80389888Y-77059470D02*
X80570274Y-77095350D01*
X80761362Y-77174502D01*
X80933336Y-77289411D01*
X81079589Y-77435664D01*
X81194498Y-77607638D01*
X81273650Y-77798726D01*
X81314000Y-78001584D01*
X81314000Y-78208416D01*
X81273650Y-78411274D01*
X81194498Y-78602362D01*
X81079589Y-78774336D01*
X80933336Y-78920589D01*
X80761362Y-79035498D01*
X80570274Y-79114650D01*
X80389888Y-79150530D01*
X80367417Y-79155000D01*
X80160583Y-79155000D01*
X80138112Y-79150530D01*
X79957726Y-79114650D01*
X79766638Y-79035498D01*
X79594664Y-78920589D01*
X79448411Y-78774336D01*
X79333502Y-78602362D01*
X79254350Y-78411274D01*
X79214000Y-78208416D01*
X79214000Y-78001584D01*
X79254350Y-77798726D01*
X79333502Y-77607638D01*
X79448411Y-77435664D01*
X79594664Y-77289411D01*
X79766638Y-77174502D01*
X79957726Y-77095350D01*
X80138112Y-77059470D01*
X80160583Y-77055000D01*
X80367417Y-77055000D01*
X80389888Y-77059470D01*
X80389888Y-77059470D01*
G37*
G36*
X77849888Y-77059470D02*
X78030274Y-77095350D01*
X78221362Y-77174502D01*
X78393336Y-77289411D01*
X78539589Y-77435664D01*
X78654498Y-77607638D01*
X78733650Y-77798726D01*
X78774000Y-78001584D01*
X78774000Y-78208416D01*
X78733650Y-78411274D01*
X78654498Y-78602362D01*
X78539589Y-78774336D01*
X78393336Y-78920589D01*
X78221362Y-79035498D01*
X78030274Y-79114650D01*
X77849888Y-79150530D01*
X77827417Y-79155000D01*
X77620583Y-79155000D01*
X77598112Y-79150530D01*
X77417726Y-79114650D01*
X77226638Y-79035498D01*
X77054664Y-78920589D01*
X76908411Y-78774336D01*
X76793502Y-78602362D01*
X76714350Y-78411274D01*
X76674000Y-78208416D01*
X76674000Y-78001584D01*
X76714350Y-77798726D01*
X76793502Y-77607638D01*
X76908411Y-77435664D01*
X77054664Y-77289411D01*
X77226638Y-77174502D01*
X77417726Y-77095350D01*
X77598112Y-77059470D01*
X77620583Y-77055000D01*
X77827417Y-77055000D01*
X77849888Y-77059470D01*
X77849888Y-77059470D01*
G37*
G36*
X75309888Y-77059470D02*
X75490274Y-77095350D01*
X75681362Y-77174502D01*
X75853336Y-77289411D01*
X75999589Y-77435664D01*
X76114498Y-77607638D01*
X76193650Y-77798726D01*
X76234000Y-78001584D01*
X76234000Y-78208416D01*
X76193650Y-78411274D01*
X76114498Y-78602362D01*
X75999589Y-78774336D01*
X75853336Y-78920589D01*
X75681362Y-79035498D01*
X75490274Y-79114650D01*
X75309888Y-79150530D01*
X75287417Y-79155000D01*
X75080583Y-79155000D01*
X75058112Y-79150530D01*
X74877726Y-79114650D01*
X74686638Y-79035498D01*
X74514664Y-78920589D01*
X74368411Y-78774336D01*
X74253502Y-78602362D01*
X74174350Y-78411274D01*
X74134000Y-78208416D01*
X74134000Y-78001584D01*
X74174350Y-77798726D01*
X74253502Y-77607638D01*
X74368411Y-77435664D01*
X74514664Y-77289411D01*
X74686638Y-77174502D01*
X74877726Y-77095350D01*
X75058112Y-77059470D01*
X75080583Y-77055000D01*
X75287417Y-77055000D01*
X75309888Y-77059470D01*
X75309888Y-77059470D01*
G37*
G36*
X72769888Y-77059470D02*
X72950274Y-77095350D01*
X73141362Y-77174502D01*
X73313336Y-77289411D01*
X73459589Y-77435664D01*
X73574498Y-77607638D01*
X73653650Y-77798726D01*
X73694000Y-78001584D01*
X73694000Y-78208416D01*
X73653650Y-78411274D01*
X73574498Y-78602362D01*
X73459589Y-78774336D01*
X73313336Y-78920589D01*
X73141362Y-79035498D01*
X72950274Y-79114650D01*
X72769888Y-79150530D01*
X72747417Y-79155000D01*
X72540583Y-79155000D01*
X72518112Y-79150530D01*
X72337726Y-79114650D01*
X72146638Y-79035498D01*
X71974664Y-78920589D01*
X71828411Y-78774336D01*
X71713502Y-78602362D01*
X71634350Y-78411274D01*
X71594000Y-78208416D01*
X71594000Y-78001584D01*
X71634350Y-77798726D01*
X71713502Y-77607638D01*
X71828411Y-77435664D01*
X71974664Y-77289411D01*
X72146638Y-77174502D01*
X72337726Y-77095350D01*
X72518112Y-77059470D01*
X72540583Y-77055000D01*
X72747417Y-77055000D01*
X72769888Y-77059470D01*
X72769888Y-77059470D01*
G37*
G36*
X70229888Y-77059470D02*
X70410274Y-77095350D01*
X70601362Y-77174502D01*
X70773336Y-77289411D01*
X70919589Y-77435664D01*
X71034498Y-77607638D01*
X71113650Y-77798726D01*
X71154000Y-78001584D01*
X71154000Y-78208416D01*
X71113650Y-78411274D01*
X71034498Y-78602362D01*
X70919589Y-78774336D01*
X70773336Y-78920589D01*
X70601362Y-79035498D01*
X70410274Y-79114650D01*
X70229888Y-79150530D01*
X70207417Y-79155000D01*
X70000583Y-79155000D01*
X69978112Y-79150530D01*
X69797726Y-79114650D01*
X69606638Y-79035498D01*
X69434664Y-78920589D01*
X69288411Y-78774336D01*
X69173502Y-78602362D01*
X69094350Y-78411274D01*
X69054000Y-78208416D01*
X69054000Y-78001584D01*
X69094350Y-77798726D01*
X69173502Y-77607638D01*
X69288411Y-77435664D01*
X69434664Y-77289411D01*
X69606638Y-77174502D01*
X69797726Y-77095350D01*
X69978112Y-77059470D01*
X70000583Y-77055000D01*
X70207417Y-77055000D01*
X70229888Y-77059470D01*
X70229888Y-77059470D01*
G37*
G36*
X65149888Y-77059470D02*
X65330274Y-77095350D01*
X65521362Y-77174502D01*
X65693336Y-77289411D01*
X65839589Y-77435664D01*
X65954498Y-77607638D01*
X66033650Y-77798726D01*
X66074000Y-78001584D01*
X66074000Y-78208416D01*
X66033650Y-78411274D01*
X65954498Y-78602362D01*
X65839589Y-78774336D01*
X65693336Y-78920589D01*
X65521362Y-79035498D01*
X65330274Y-79114650D01*
X65149888Y-79150530D01*
X65127417Y-79155000D01*
X64920583Y-79155000D01*
X64898112Y-79150530D01*
X64717726Y-79114650D01*
X64526638Y-79035498D01*
X64354664Y-78920589D01*
X64208411Y-78774336D01*
X64093502Y-78602362D01*
X64014350Y-78411274D01*
X63974000Y-78208416D01*
X63974000Y-78001584D01*
X64014350Y-77798726D01*
X64093502Y-77607638D01*
X64208411Y-77435664D01*
X64354664Y-77289411D01*
X64526638Y-77174502D01*
X64717726Y-77095350D01*
X64898112Y-77059470D01*
X64920583Y-77055000D01*
X65127417Y-77055000D01*
X65149888Y-77059470D01*
X65149888Y-77059470D01*
G37*
G36*
X62609888Y-77059470D02*
X62790274Y-77095350D01*
X62981362Y-77174502D01*
X63153336Y-77289411D01*
X63299589Y-77435664D01*
X63414498Y-77607638D01*
X63493650Y-77798726D01*
X63534000Y-78001584D01*
X63534000Y-78208416D01*
X63493650Y-78411274D01*
X63414498Y-78602362D01*
X63299589Y-78774336D01*
X63153336Y-78920589D01*
X62981362Y-79035498D01*
X62790274Y-79114650D01*
X62609888Y-79150530D01*
X62587417Y-79155000D01*
X62380583Y-79155000D01*
X62358112Y-79150530D01*
X62177726Y-79114650D01*
X61986638Y-79035498D01*
X61814664Y-78920589D01*
X61668411Y-78774336D01*
X61553502Y-78602362D01*
X61474350Y-78411274D01*
X61434000Y-78208416D01*
X61434000Y-78001584D01*
X61474350Y-77798726D01*
X61553502Y-77607638D01*
X61668411Y-77435664D01*
X61814664Y-77289411D01*
X61986638Y-77174502D01*
X62177726Y-77095350D01*
X62358112Y-77059470D01*
X62380583Y-77055000D01*
X62587417Y-77055000D01*
X62609888Y-77059470D01*
X62609888Y-77059470D01*
G37*
G36*
X57529888Y-77059470D02*
X57710274Y-77095350D01*
X57901362Y-77174502D01*
X58073336Y-77289411D01*
X58219589Y-77435664D01*
X58334498Y-77607638D01*
X58413650Y-77798726D01*
X58454000Y-78001584D01*
X58454000Y-78208416D01*
X58413650Y-78411274D01*
X58334498Y-78602362D01*
X58219589Y-78774336D01*
X58073336Y-78920589D01*
X57901362Y-79035498D01*
X57710274Y-79114650D01*
X57529888Y-79150530D01*
X57507417Y-79155000D01*
X57300583Y-79155000D01*
X57278112Y-79150530D01*
X57097726Y-79114650D01*
X56906638Y-79035498D01*
X56734664Y-78920589D01*
X56588411Y-78774336D01*
X56473502Y-78602362D01*
X56394350Y-78411274D01*
X56354000Y-78208416D01*
X56354000Y-78001584D01*
X56394350Y-77798726D01*
X56473502Y-77607638D01*
X56588411Y-77435664D01*
X56734664Y-77289411D01*
X56906638Y-77174502D01*
X57097726Y-77095350D01*
X57278112Y-77059470D01*
X57300583Y-77055000D01*
X57507417Y-77055000D01*
X57529888Y-77059470D01*
X57529888Y-77059470D01*
G37*
G36*
X60069888Y-77059470D02*
X60250274Y-77095350D01*
X60441362Y-77174502D01*
X60613336Y-77289411D01*
X60759589Y-77435664D01*
X60874498Y-77607638D01*
X60953650Y-77798726D01*
X60994000Y-78001584D01*
X60994000Y-78208416D01*
X60953650Y-78411274D01*
X60874498Y-78602362D01*
X60759589Y-78774336D01*
X60613336Y-78920589D01*
X60441362Y-79035498D01*
X60250274Y-79114650D01*
X60069888Y-79150530D01*
X60047417Y-79155000D01*
X59840583Y-79155000D01*
X59818112Y-79150530D01*
X59637726Y-79114650D01*
X59446638Y-79035498D01*
X59274664Y-78920589D01*
X59128411Y-78774336D01*
X59013502Y-78602362D01*
X58934350Y-78411274D01*
X58894000Y-78208416D01*
X58894000Y-78001584D01*
X58934350Y-77798726D01*
X59013502Y-77607638D01*
X59128411Y-77435664D01*
X59274664Y-77289411D01*
X59446638Y-77174502D01*
X59637726Y-77095350D01*
X59818112Y-77059470D01*
X59840583Y-77055000D01*
X60047417Y-77055000D01*
X60069888Y-77059470D01*
X60069888Y-77059470D01*
G37*
G36*
X110489707Y-72671597D02*
X110566836Y-72679193D01*
X110698787Y-72719220D01*
X110764763Y-72739233D01*
X110947172Y-72836733D01*
X111107054Y-72967946D01*
X111238267Y-73127828D01*
X111335767Y-73310237D01*
X111335767Y-73310238D01*
X111395807Y-73508164D01*
X111416080Y-73714000D01*
X111395807Y-73919836D01*
X111393027Y-73929000D01*
X111335767Y-74117763D01*
X111238267Y-74300172D01*
X111107054Y-74460054D01*
X110947172Y-74591267D01*
X110764763Y-74688767D01*
X110698787Y-74708780D01*
X110566836Y-74748807D01*
X110489707Y-74756404D01*
X110412580Y-74764000D01*
X110059420Y-74764000D01*
X109982293Y-74756404D01*
X109905164Y-74748807D01*
X109773213Y-74708780D01*
X109707237Y-74688767D01*
X109524828Y-74591267D01*
X109364946Y-74460054D01*
X109233733Y-74300172D01*
X109136233Y-74117763D01*
X109078973Y-73929000D01*
X109076193Y-73919836D01*
X109055920Y-73714000D01*
X109076193Y-73508164D01*
X109136233Y-73310238D01*
X109136233Y-73310237D01*
X109233733Y-73127828D01*
X109364946Y-72967946D01*
X109524828Y-72836733D01*
X109707237Y-72739233D01*
X109773213Y-72719220D01*
X109905164Y-72679193D01*
X109982293Y-72671597D01*
X110059420Y-72664000D01*
X110412580Y-72664000D01*
X110489707Y-72671597D01*
X110489707Y-72671597D01*
G37*
G36*
X62645486Y-70097229D02*
X62657423Y-70098405D01*
X62718685Y-70116989D01*
X62779948Y-70135573D01*
X62892868Y-70195930D01*
X62991843Y-70277157D01*
X63073070Y-70376132D01*
X63133427Y-70489052D01*
X63170595Y-70611578D01*
X63183145Y-70739000D01*
X63170595Y-70866422D01*
X63133427Y-70988948D01*
X63073070Y-71101868D01*
X62991843Y-71200843D01*
X62991841Y-71200844D01*
X62991840Y-71200846D01*
X62898590Y-71277374D01*
X62881263Y-71294701D01*
X62867649Y-71315075D01*
X62858271Y-71337714D01*
X62853491Y-71361748D01*
X62853491Y-71386252D01*
X62858271Y-71410285D01*
X62867649Y-71432924D01*
X62881263Y-71453299D01*
X62898590Y-71470626D01*
X62991840Y-71547154D01*
X62991841Y-71547156D01*
X62991843Y-71547157D01*
X63073070Y-71646132D01*
X63133427Y-71759052D01*
X63170595Y-71881578D01*
X63183145Y-72009000D01*
X63170595Y-72136422D01*
X63133427Y-72258948D01*
X63073070Y-72371868D01*
X63029706Y-72424707D01*
X63016097Y-72445076D01*
X63006719Y-72467715D01*
X63001939Y-72491748D01*
X63001939Y-72516253D01*
X63006720Y-72540286D01*
X63016097Y-72562925D01*
X63029711Y-72583299D01*
X63047038Y-72600627D01*
X63067413Y-72614240D01*
X63090052Y-72623618D01*
X63126337Y-72629000D01*
X63180000Y-72629000D01*
X63180000Y-73929000D01*
X61280000Y-73929000D01*
X61280000Y-72629000D01*
X61333663Y-72629000D01*
X61358049Y-72626598D01*
X61381498Y-72619485D01*
X61403109Y-72607934D01*
X61422051Y-72592388D01*
X61437597Y-72573446D01*
X61449148Y-72551835D01*
X61456261Y-72528386D01*
X61458663Y-72504000D01*
X61456261Y-72479614D01*
X61449148Y-72456165D01*
X61430292Y-72424705D01*
X61386930Y-72371868D01*
X61326573Y-72258948D01*
X61289405Y-72136422D01*
X61276855Y-72009000D01*
X61289405Y-71881578D01*
X61326573Y-71759052D01*
X61386930Y-71646132D01*
X61468157Y-71547157D01*
X61468159Y-71547156D01*
X61468160Y-71547154D01*
X61561410Y-71470626D01*
X61578737Y-71453299D01*
X61592351Y-71432925D01*
X61601729Y-71410286D01*
X61606509Y-71386252D01*
X61606509Y-71361748D01*
X61601729Y-71337715D01*
X61592351Y-71315076D01*
X61578737Y-71294701D01*
X61561410Y-71277374D01*
X61468160Y-71200846D01*
X61468159Y-71200844D01*
X61468157Y-71200843D01*
X61386930Y-71101868D01*
X61326573Y-70988948D01*
X61289405Y-70866422D01*
X61276855Y-70739000D01*
X61289405Y-70611578D01*
X61326573Y-70489052D01*
X61386930Y-70376132D01*
X61468157Y-70277157D01*
X61567132Y-70195930D01*
X61680052Y-70135573D01*
X61741315Y-70116989D01*
X61802577Y-70098405D01*
X61814514Y-70097229D01*
X61898068Y-70089000D01*
X62561932Y-70089000D01*
X62645486Y-70097229D01*
X62645486Y-70097229D01*
G37*
G36*
X110489707Y-70171596D02*
X110566836Y-70179193D01*
X110698787Y-70219220D01*
X110764763Y-70239233D01*
X110947172Y-70336733D01*
X111107054Y-70467946D01*
X111238267Y-70627828D01*
X111335767Y-70810237D01*
X111355780Y-70876213D01*
X111395807Y-71008164D01*
X111416080Y-71214000D01*
X111395807Y-71419836D01*
X111380400Y-71470626D01*
X111335767Y-71617763D01*
X111238267Y-71800172D01*
X111107054Y-71960054D01*
X110947172Y-72091267D01*
X110764763Y-72188767D01*
X110698787Y-72208780D01*
X110566836Y-72248807D01*
X110489707Y-72256403D01*
X110412580Y-72264000D01*
X110059420Y-72264000D01*
X109982293Y-72256403D01*
X109905164Y-72248807D01*
X109773213Y-72208780D01*
X109707237Y-72188767D01*
X109524828Y-72091267D01*
X109364946Y-71960054D01*
X109233733Y-71800172D01*
X109136233Y-71617763D01*
X109091600Y-71470626D01*
X109076193Y-71419836D01*
X109055920Y-71214000D01*
X109076193Y-71008164D01*
X109116220Y-70876213D01*
X109136233Y-70810237D01*
X109233733Y-70627828D01*
X109364946Y-70467946D01*
X109524828Y-70336733D01*
X109707237Y-70239233D01*
X109773213Y-70219220D01*
X109905164Y-70179193D01*
X109982293Y-70171596D01*
X110059420Y-70164000D01*
X110412580Y-70164000D01*
X110489707Y-70171596D01*
X110489707Y-70171596D01*
G37*
G36*
X110489707Y-67671597D02*
X110566836Y-67679193D01*
X110683505Y-67714584D01*
X110764763Y-67739233D01*
X110947172Y-67836733D01*
X111107054Y-67967946D01*
X111238267Y-68127828D01*
X111335767Y-68310237D01*
X111355780Y-68376213D01*
X111395807Y-68508164D01*
X111416080Y-68714000D01*
X111395807Y-68919836D01*
X111355780Y-69051787D01*
X111335767Y-69117763D01*
X111238267Y-69300172D01*
X111107054Y-69460054D01*
X110947172Y-69591267D01*
X110764763Y-69688767D01*
X110698787Y-69708780D01*
X110566836Y-69748807D01*
X110489707Y-69756404D01*
X110412580Y-69764000D01*
X110059420Y-69764000D01*
X109982293Y-69756404D01*
X109905164Y-69748807D01*
X109773213Y-69708780D01*
X109707237Y-69688767D01*
X109524828Y-69591267D01*
X109364946Y-69460054D01*
X109233733Y-69300172D01*
X109136233Y-69117763D01*
X109116220Y-69051787D01*
X109076193Y-68919836D01*
X109055920Y-68714000D01*
X109076193Y-68508164D01*
X109116220Y-68376213D01*
X109136233Y-68310237D01*
X109233733Y-68127828D01*
X109364946Y-67967946D01*
X109524828Y-67836733D01*
X109707237Y-67739233D01*
X109788495Y-67714584D01*
X109905164Y-67679193D01*
X109982293Y-67671597D01*
X110059420Y-67664000D01*
X110412580Y-67664000D01*
X110489707Y-67671597D01*
X110489707Y-67671597D01*
G37*
G36*
X53719888Y-66772470D02*
X53900274Y-66808350D01*
X54091362Y-66887502D01*
X54263336Y-67002411D01*
X54409589Y-67148664D01*
X54524498Y-67320638D01*
X54603650Y-67511726D01*
X54644000Y-67714584D01*
X54644000Y-67921416D01*
X54603650Y-68124274D01*
X54524498Y-68315362D01*
X54409589Y-68487336D01*
X54263336Y-68633589D01*
X54091362Y-68748498D01*
X53900274Y-68827650D01*
X53719888Y-68863530D01*
X53697417Y-68868000D01*
X53490583Y-68868000D01*
X53468112Y-68863530D01*
X53287726Y-68827650D01*
X53096638Y-68748498D01*
X52924664Y-68633589D01*
X52778411Y-68487336D01*
X52663502Y-68315362D01*
X52584350Y-68124274D01*
X52544000Y-67921416D01*
X52544000Y-67714584D01*
X52584350Y-67511726D01*
X52663502Y-67320638D01*
X52778411Y-67148664D01*
X52924664Y-67002411D01*
X53096638Y-66887502D01*
X53287726Y-66808350D01*
X53468112Y-66772470D01*
X53490583Y-66768000D01*
X53697417Y-66768000D01*
X53719888Y-66772470D01*
X53719888Y-66772470D01*
G37*
G36*
X56259888Y-66772470D02*
X56440274Y-66808350D01*
X56631362Y-66887502D01*
X56803336Y-67002411D01*
X56949589Y-67148664D01*
X57064498Y-67320638D01*
X57143650Y-67511726D01*
X57184000Y-67714584D01*
X57184000Y-67921416D01*
X57143650Y-68124274D01*
X57064498Y-68315362D01*
X56949589Y-68487336D01*
X56803336Y-68633589D01*
X56631362Y-68748498D01*
X56440274Y-68827650D01*
X56259888Y-68863530D01*
X56237417Y-68868000D01*
X56030583Y-68868000D01*
X56008112Y-68863530D01*
X55827726Y-68827650D01*
X55636638Y-68748498D01*
X55464664Y-68633589D01*
X55318411Y-68487336D01*
X55203502Y-68315362D01*
X55124350Y-68124274D01*
X55084000Y-67921416D01*
X55084000Y-67714584D01*
X55124350Y-67511726D01*
X55203502Y-67320638D01*
X55318411Y-67148664D01*
X55464664Y-67002411D01*
X55636638Y-66887502D01*
X55827726Y-66808350D01*
X56008112Y-66772470D01*
X56030583Y-66768000D01*
X56237417Y-66768000D01*
X56259888Y-66772470D01*
X56259888Y-66772470D01*
G37*
G36*
X63879888Y-66772470D02*
X64060274Y-66808350D01*
X64251362Y-66887502D01*
X64423336Y-67002411D01*
X64569589Y-67148664D01*
X64684498Y-67320638D01*
X64763650Y-67511726D01*
X64804000Y-67714584D01*
X64804000Y-67921416D01*
X64763650Y-68124274D01*
X64684498Y-68315362D01*
X64569589Y-68487336D01*
X64423336Y-68633589D01*
X64251362Y-68748498D01*
X64060274Y-68827650D01*
X63879888Y-68863530D01*
X63857417Y-68868000D01*
X63650583Y-68868000D01*
X63628112Y-68863530D01*
X63447726Y-68827650D01*
X63256638Y-68748498D01*
X63084664Y-68633589D01*
X62938411Y-68487336D01*
X62823502Y-68315362D01*
X62744350Y-68124274D01*
X62704000Y-67921416D01*
X62704000Y-67714584D01*
X62744350Y-67511726D01*
X62823502Y-67320638D01*
X62938411Y-67148664D01*
X63084664Y-67002411D01*
X63256638Y-66887502D01*
X63447726Y-66808350D01*
X63628112Y-66772470D01*
X63650583Y-66768000D01*
X63857417Y-66768000D01*
X63879888Y-66772470D01*
X63879888Y-66772470D01*
G37*
G36*
X67344000Y-68868000D02*
X65244000Y-68868000D01*
X65244000Y-66768000D01*
X67344000Y-66768000D01*
X67344000Y-68868000D01*
X67344000Y-68868000D01*
G37*
G36*
X61339888Y-66772470D02*
X61520274Y-66808350D01*
X61711362Y-66887502D01*
X61883336Y-67002411D01*
X62029589Y-67148664D01*
X62144498Y-67320638D01*
X62223650Y-67511726D01*
X62264000Y-67714584D01*
X62264000Y-67921416D01*
X62223650Y-68124274D01*
X62144498Y-68315362D01*
X62029589Y-68487336D01*
X61883336Y-68633589D01*
X61711362Y-68748498D01*
X61520274Y-68827650D01*
X61339888Y-68863530D01*
X61317417Y-68868000D01*
X61110583Y-68868000D01*
X61088112Y-68863530D01*
X60907726Y-68827650D01*
X60716638Y-68748498D01*
X60544664Y-68633589D01*
X60398411Y-68487336D01*
X60283502Y-68315362D01*
X60204350Y-68124274D01*
X60164000Y-67921416D01*
X60164000Y-67714584D01*
X60204350Y-67511726D01*
X60283502Y-67320638D01*
X60398411Y-67148664D01*
X60544664Y-67002411D01*
X60716638Y-66887502D01*
X60907726Y-66808350D01*
X61088112Y-66772470D01*
X61110583Y-66768000D01*
X61317417Y-66768000D01*
X61339888Y-66772470D01*
X61339888Y-66772470D01*
G37*
G36*
X58799888Y-66772470D02*
X58980274Y-66808350D01*
X59171362Y-66887502D01*
X59343336Y-67002411D01*
X59489589Y-67148664D01*
X59604498Y-67320638D01*
X59683650Y-67511726D01*
X59724000Y-67714584D01*
X59724000Y-67921416D01*
X59683650Y-68124274D01*
X59604498Y-68315362D01*
X59489589Y-68487336D01*
X59343336Y-68633589D01*
X59171362Y-68748498D01*
X58980274Y-68827650D01*
X58799888Y-68863530D01*
X58777417Y-68868000D01*
X58570583Y-68868000D01*
X58548112Y-68863530D01*
X58367726Y-68827650D01*
X58176638Y-68748498D01*
X58004664Y-68633589D01*
X57858411Y-68487336D01*
X57743502Y-68315362D01*
X57664350Y-68124274D01*
X57624000Y-67921416D01*
X57624000Y-67714584D01*
X57664350Y-67511726D01*
X57743502Y-67320638D01*
X57858411Y-67148664D01*
X58004664Y-67002411D01*
X58176638Y-66887502D01*
X58367726Y-66808350D01*
X58548112Y-66772470D01*
X58570583Y-66768000D01*
X58777417Y-66768000D01*
X58799888Y-66772470D01*
X58799888Y-66772470D01*
G37*
G36*
X110489707Y-65171597D02*
X110566836Y-65179193D01*
X110698787Y-65219220D01*
X110764763Y-65239233D01*
X110947172Y-65336733D01*
X111107054Y-65467946D01*
X111238267Y-65627828D01*
X111335767Y-65810237D01*
X111335767Y-65810238D01*
X111395807Y-66008164D01*
X111416080Y-66214000D01*
X111395807Y-66419836D01*
X111355780Y-66551787D01*
X111335767Y-66617763D01*
X111238267Y-66800172D01*
X111107054Y-66960054D01*
X110947172Y-67091267D01*
X110764763Y-67188767D01*
X110698787Y-67208780D01*
X110566836Y-67248807D01*
X110489707Y-67256404D01*
X110412580Y-67264000D01*
X110059420Y-67264000D01*
X109982293Y-67256404D01*
X109905164Y-67248807D01*
X109773213Y-67208780D01*
X109707237Y-67188767D01*
X109524828Y-67091267D01*
X109364946Y-66960054D01*
X109233733Y-66800172D01*
X109136233Y-66617763D01*
X109116220Y-66551787D01*
X109076193Y-66419836D01*
X109055920Y-66214000D01*
X109076193Y-66008164D01*
X109136233Y-65810238D01*
X109136233Y-65810237D01*
X109233733Y-65627828D01*
X109364946Y-65467946D01*
X109524828Y-65336733D01*
X109707237Y-65239233D01*
X109773213Y-65219220D01*
X109905164Y-65179193D01*
X109982293Y-65171597D01*
X110059420Y-65164000D01*
X110412580Y-65164000D01*
X110489707Y-65171597D01*
X110489707Y-65171597D01*
G37*
G36*
X110489707Y-62671596D02*
X110566836Y-62679193D01*
X110698787Y-62719220D01*
X110764763Y-62739233D01*
X110947172Y-62836733D01*
X111107054Y-62967946D01*
X111238267Y-63127828D01*
X111335767Y-63310237D01*
X111335767Y-63310238D01*
X111395807Y-63508164D01*
X111416080Y-63714000D01*
X111395807Y-63919836D01*
X111355780Y-64051787D01*
X111335767Y-64117763D01*
X111238267Y-64300172D01*
X111107054Y-64460054D01*
X110947172Y-64591267D01*
X110764763Y-64688767D01*
X110698787Y-64708780D01*
X110566836Y-64748807D01*
X110489707Y-64756404D01*
X110412580Y-64764000D01*
X110059420Y-64764000D01*
X109982293Y-64756404D01*
X109905164Y-64748807D01*
X109773213Y-64708780D01*
X109707237Y-64688767D01*
X109524828Y-64591267D01*
X109364946Y-64460054D01*
X109233733Y-64300172D01*
X109136233Y-64117763D01*
X109116220Y-64051787D01*
X109076193Y-63919836D01*
X109055920Y-63714000D01*
X109076193Y-63508164D01*
X109136233Y-63310238D01*
X109136233Y-63310237D01*
X109233733Y-63127828D01*
X109364946Y-62967946D01*
X109524828Y-62836733D01*
X109707237Y-62739233D01*
X109773213Y-62719220D01*
X109905164Y-62679193D01*
X109982293Y-62671596D01*
X110059420Y-62664000D01*
X110412580Y-62664000D01*
X110489707Y-62671596D01*
X110489707Y-62671596D01*
G37*
G36*
X111411000Y-62264000D02*
X109061000Y-62264000D01*
X109061000Y-60164000D01*
X111411000Y-60164000D01*
X111411000Y-62264000D01*
X111411000Y-62264000D01*
G37*
G36*
X73545451Y-58241127D02*
X73683105Y-58268508D01*
X73855994Y-58340121D01*
X74011590Y-58444087D01*
X74143913Y-58576410D01*
X74247879Y-58732006D01*
X74319492Y-58904895D01*
X74356000Y-59088433D01*
X74356000Y-59275567D01*
X74319492Y-59459105D01*
X74247879Y-59631994D01*
X74143913Y-59787590D01*
X74011590Y-59919913D01*
X73855994Y-60023879D01*
X73683105Y-60095492D01*
X73545451Y-60122873D01*
X73499568Y-60132000D01*
X73312432Y-60132000D01*
X73266549Y-60122873D01*
X73128895Y-60095492D01*
X72956006Y-60023879D01*
X72800410Y-59919913D01*
X72668087Y-59787590D01*
X72564121Y-59631994D01*
X72492508Y-59459105D01*
X72456000Y-59275567D01*
X72456000Y-59088433D01*
X72492508Y-58904895D01*
X72564121Y-58732006D01*
X72668087Y-58576410D01*
X72800410Y-58444087D01*
X72956006Y-58340121D01*
X73128895Y-58268508D01*
X73266549Y-58241127D01*
X73312432Y-58232000D01*
X73499568Y-58232000D01*
X73545451Y-58241127D01*
X73545451Y-58241127D01*
G37*
G36*
X78425451Y-58241127D02*
X78563105Y-58268508D01*
X78735994Y-58340121D01*
X78891590Y-58444087D01*
X79023913Y-58576410D01*
X79127879Y-58732006D01*
X79199492Y-58904895D01*
X79236000Y-59088433D01*
X79236000Y-59275567D01*
X79199492Y-59459105D01*
X79127879Y-59631994D01*
X79023913Y-59787590D01*
X78891590Y-59919913D01*
X78735994Y-60023879D01*
X78563105Y-60095492D01*
X78425451Y-60122873D01*
X78379568Y-60132000D01*
X78192432Y-60132000D01*
X78146549Y-60122873D01*
X78008895Y-60095492D01*
X77836006Y-60023879D01*
X77680410Y-59919913D01*
X77548087Y-59787590D01*
X77444121Y-59631994D01*
X77372508Y-59459105D01*
X77336000Y-59275567D01*
X77336000Y-59088433D01*
X77372508Y-58904895D01*
X77444121Y-58732006D01*
X77548087Y-58576410D01*
X77680410Y-58444087D01*
X77836006Y-58340121D01*
X78008895Y-58268508D01*
X78146549Y-58241127D01*
X78192432Y-58232000D01*
X78379568Y-58232000D01*
X78425451Y-58241127D01*
X78425451Y-58241127D01*
G37*
G36*
X95483352Y-57872743D02*
X95628941Y-57933048D01*
X95759973Y-58020601D01*
X95871399Y-58132027D01*
X95958952Y-58263059D01*
X96019257Y-58408648D01*
X96050000Y-58563205D01*
X96050000Y-58720795D01*
X96019257Y-58875352D01*
X95958952Y-59020941D01*
X95871399Y-59151973D01*
X95759973Y-59263399D01*
X95628941Y-59350952D01*
X95483352Y-59411257D01*
X95328795Y-59442000D01*
X95171205Y-59442000D01*
X95016648Y-59411257D01*
X94871059Y-59350952D01*
X94740027Y-59263399D01*
X94628601Y-59151973D01*
X94541048Y-59020941D01*
X94480743Y-58875352D01*
X94450000Y-58720795D01*
X94450000Y-58563205D01*
X94480743Y-58408648D01*
X94541048Y-58263059D01*
X94628601Y-58132027D01*
X94740027Y-58020601D01*
X94871059Y-57933048D01*
X95016648Y-57872743D01*
X95171205Y-57842000D01*
X95328795Y-57842000D01*
X95483352Y-57872743D01*
X95483352Y-57872743D01*
G37*
G36*
X66419888Y-56612470D02*
X66600274Y-56648350D01*
X66791362Y-56727502D01*
X66963336Y-56842411D01*
X67109589Y-56988664D01*
X67224498Y-57160638D01*
X67303650Y-57351726D01*
X67344000Y-57554584D01*
X67344000Y-57761416D01*
X67303650Y-57964274D01*
X67224498Y-58155362D01*
X67109589Y-58327336D01*
X66963336Y-58473589D01*
X66791362Y-58588498D01*
X66600274Y-58667650D01*
X66419888Y-58703530D01*
X66397417Y-58708000D01*
X66190583Y-58708000D01*
X66168112Y-58703530D01*
X65987726Y-58667650D01*
X65796638Y-58588498D01*
X65624664Y-58473589D01*
X65478411Y-58327336D01*
X65363502Y-58155362D01*
X65284350Y-57964274D01*
X65244000Y-57761416D01*
X65244000Y-57554584D01*
X65284350Y-57351726D01*
X65363502Y-57160638D01*
X65478411Y-56988664D01*
X65624664Y-56842411D01*
X65796638Y-56727502D01*
X65987726Y-56648350D01*
X66168112Y-56612470D01*
X66190583Y-56608000D01*
X66397417Y-56608000D01*
X66419888Y-56612470D01*
X66419888Y-56612470D01*
G37*
G36*
X53719888Y-56612470D02*
X53900274Y-56648350D01*
X54091362Y-56727502D01*
X54263336Y-56842411D01*
X54409589Y-56988664D01*
X54524498Y-57160638D01*
X54603650Y-57351726D01*
X54644000Y-57554584D01*
X54644000Y-57761416D01*
X54603650Y-57964274D01*
X54524498Y-58155362D01*
X54409589Y-58327336D01*
X54263336Y-58473589D01*
X54091362Y-58588498D01*
X53900274Y-58667650D01*
X53719888Y-58703530D01*
X53697417Y-58708000D01*
X53490583Y-58708000D01*
X53468112Y-58703530D01*
X53287726Y-58667650D01*
X53096638Y-58588498D01*
X52924664Y-58473589D01*
X52778411Y-58327336D01*
X52663502Y-58155362D01*
X52584350Y-57964274D01*
X52544000Y-57761416D01*
X52544000Y-57554584D01*
X52584350Y-57351726D01*
X52663502Y-57160638D01*
X52778411Y-56988664D01*
X52924664Y-56842411D01*
X53096638Y-56727502D01*
X53287726Y-56648350D01*
X53468112Y-56612470D01*
X53490583Y-56608000D01*
X53697417Y-56608000D01*
X53719888Y-56612470D01*
X53719888Y-56612470D01*
G37*
G36*
X56259888Y-56612470D02*
X56440274Y-56648350D01*
X56631362Y-56727502D01*
X56803336Y-56842411D01*
X56949589Y-56988664D01*
X57064498Y-57160638D01*
X57143650Y-57351726D01*
X57184000Y-57554584D01*
X57184000Y-57761416D01*
X57143650Y-57964274D01*
X57064498Y-58155362D01*
X56949589Y-58327336D01*
X56803336Y-58473589D01*
X56631362Y-58588498D01*
X56440274Y-58667650D01*
X56259888Y-58703530D01*
X56237417Y-58708000D01*
X56030583Y-58708000D01*
X56008112Y-58703530D01*
X55827726Y-58667650D01*
X55636638Y-58588498D01*
X55464664Y-58473589D01*
X55318411Y-58327336D01*
X55203502Y-58155362D01*
X55124350Y-57964274D01*
X55084000Y-57761416D01*
X55084000Y-57554584D01*
X55124350Y-57351726D01*
X55203502Y-57160638D01*
X55318411Y-56988664D01*
X55464664Y-56842411D01*
X55636638Y-56727502D01*
X55827726Y-56648350D01*
X56008112Y-56612470D01*
X56030583Y-56608000D01*
X56237417Y-56608000D01*
X56259888Y-56612470D01*
X56259888Y-56612470D01*
G37*
G36*
X58799888Y-56612470D02*
X58980274Y-56648350D01*
X59171362Y-56727502D01*
X59343336Y-56842411D01*
X59489589Y-56988664D01*
X59604498Y-57160638D01*
X59683650Y-57351726D01*
X59724000Y-57554584D01*
X59724000Y-57761416D01*
X59683650Y-57964274D01*
X59604498Y-58155362D01*
X59489589Y-58327336D01*
X59343336Y-58473589D01*
X59171362Y-58588498D01*
X58980274Y-58667650D01*
X58799888Y-58703530D01*
X58777417Y-58708000D01*
X58570583Y-58708000D01*
X58548112Y-58703530D01*
X58367726Y-58667650D01*
X58176638Y-58588498D01*
X58004664Y-58473589D01*
X57858411Y-58327336D01*
X57743502Y-58155362D01*
X57664350Y-57964274D01*
X57624000Y-57761416D01*
X57624000Y-57554584D01*
X57664350Y-57351726D01*
X57743502Y-57160638D01*
X57858411Y-56988664D01*
X58004664Y-56842411D01*
X58176638Y-56727502D01*
X58367726Y-56648350D01*
X58548112Y-56612470D01*
X58570583Y-56608000D01*
X58777417Y-56608000D01*
X58799888Y-56612470D01*
X58799888Y-56612470D01*
G37*
G36*
X61339888Y-56612470D02*
X61520274Y-56648350D01*
X61711362Y-56727502D01*
X61883336Y-56842411D01*
X62029589Y-56988664D01*
X62144498Y-57160638D01*
X62223650Y-57351726D01*
X62264000Y-57554584D01*
X62264000Y-57761416D01*
X62223650Y-57964274D01*
X62144498Y-58155362D01*
X62029589Y-58327336D01*
X61883336Y-58473589D01*
X61711362Y-58588498D01*
X61520274Y-58667650D01*
X61339888Y-58703530D01*
X61317417Y-58708000D01*
X61110583Y-58708000D01*
X61088112Y-58703530D01*
X60907726Y-58667650D01*
X60716638Y-58588498D01*
X60544664Y-58473589D01*
X60398411Y-58327336D01*
X60283502Y-58155362D01*
X60204350Y-57964274D01*
X60164000Y-57761416D01*
X60164000Y-57554584D01*
X60204350Y-57351726D01*
X60283502Y-57160638D01*
X60398411Y-56988664D01*
X60544664Y-56842411D01*
X60716638Y-56727502D01*
X60907726Y-56648350D01*
X61088112Y-56612470D01*
X61110583Y-56608000D01*
X61317417Y-56608000D01*
X61339888Y-56612470D01*
X61339888Y-56612470D01*
G37*
G36*
X63879888Y-56612470D02*
X64060274Y-56648350D01*
X64251362Y-56727502D01*
X64423336Y-56842411D01*
X64569589Y-56988664D01*
X64684498Y-57160638D01*
X64763650Y-57351726D01*
X64804000Y-57554584D01*
X64804000Y-57761416D01*
X64763650Y-57964274D01*
X64684498Y-58155362D01*
X64569589Y-58327336D01*
X64423336Y-58473589D01*
X64251362Y-58588498D01*
X64060274Y-58667650D01*
X63879888Y-58703530D01*
X63857417Y-58708000D01*
X63650583Y-58708000D01*
X63628112Y-58703530D01*
X63447726Y-58667650D01*
X63256638Y-58588498D01*
X63084664Y-58473589D01*
X62938411Y-58327336D01*
X62823502Y-58155362D01*
X62744350Y-57964274D01*
X62704000Y-57761416D01*
X62704000Y-57554584D01*
X62744350Y-57351726D01*
X62823502Y-57160638D01*
X62938411Y-56988664D01*
X63084664Y-56842411D01*
X63256638Y-56727502D01*
X63447726Y-56648350D01*
X63628112Y-56612470D01*
X63650583Y-56608000D01*
X63857417Y-56608000D01*
X63879888Y-56612470D01*
X63879888Y-56612470D01*
G37*
G36*
X108691352Y-56602743D02*
X108836941Y-56663048D01*
X108967973Y-56750601D01*
X109079399Y-56862027D01*
X109166952Y-56993059D01*
X109227257Y-57138648D01*
X109258000Y-57293205D01*
X109258000Y-57450795D01*
X109227257Y-57605352D01*
X109166952Y-57750941D01*
X109079399Y-57881973D01*
X108967973Y-57993399D01*
X108836941Y-58080952D01*
X108691352Y-58141257D01*
X108536795Y-58172000D01*
X108379205Y-58172000D01*
X108224648Y-58141257D01*
X108079059Y-58080952D01*
X107948027Y-57993399D01*
X107836601Y-57881973D01*
X107749048Y-57750941D01*
X107688743Y-57605352D01*
X107658000Y-57450795D01*
X107658000Y-57293205D01*
X107688743Y-57138648D01*
X107749048Y-56993059D01*
X107836601Y-56862027D01*
X107948027Y-56750601D01*
X108079059Y-56663048D01*
X108224648Y-56602743D01*
X108379205Y-56572000D01*
X108536795Y-56572000D01*
X108691352Y-56602743D01*
X108691352Y-56602743D01*
G37*
G36*
X96050000Y-57442000D02*
X94450000Y-57442000D01*
X94450000Y-55842000D01*
X96050000Y-55842000D01*
X96050000Y-57442000D01*
X96050000Y-57442000D01*
G37*
G36*
X109258000Y-56172000D02*
X107658000Y-56172000D01*
X107658000Y-54572000D01*
X109258000Y-54572000D01*
X109258000Y-56172000D01*
X109258000Y-56172000D01*
G37*
G36*
X106206000Y-53882000D02*
X104106000Y-53882000D01*
X104106000Y-51782000D01*
X106206000Y-51782000D01*
X106206000Y-53882000D01*
X106206000Y-53882000D01*
G37*
G36*
X102744707Y-51789596D02*
X102821836Y-51797193D01*
X102922513Y-51827733D01*
X103019763Y-51857233D01*
X103202172Y-51954733D01*
X103362054Y-52085946D01*
X103493267Y-52245828D01*
X103590767Y-52428237D01*
X103590767Y-52428238D01*
X103650807Y-52626164D01*
X103671080Y-52832000D01*
X103650807Y-53037836D01*
X103610780Y-53169787D01*
X103590767Y-53235763D01*
X103493267Y-53418172D01*
X103362054Y-53578054D01*
X103202172Y-53709267D01*
X103019763Y-53806767D01*
X102953787Y-53826780D01*
X102821836Y-53866807D01*
X102744707Y-53874403D01*
X102667580Y-53882000D01*
X102564420Y-53882000D01*
X102487293Y-53874403D01*
X102410164Y-53866807D01*
X102278213Y-53826780D01*
X102212237Y-53806767D01*
X102029828Y-53709267D01*
X101869946Y-53578054D01*
X101738733Y-53418172D01*
X101641233Y-53235763D01*
X101621220Y-53169787D01*
X101581193Y-53037836D01*
X101560920Y-52832000D01*
X101581193Y-52626164D01*
X101641233Y-52428238D01*
X101641233Y-52428237D01*
X101738733Y-52245828D01*
X101869946Y-52085946D01*
X102029828Y-51954733D01*
X102212237Y-51857233D01*
X102309487Y-51827733D01*
X102410164Y-51797193D01*
X102487293Y-51789596D01*
X102564420Y-51782000D01*
X102667580Y-51782000D01*
X102744707Y-51789596D01*
X102744707Y-51789596D01*
G37*
G36*
X100204707Y-51789596D02*
X100281836Y-51797193D01*
X100382513Y-51827733D01*
X100479763Y-51857233D01*
X100662172Y-51954733D01*
X100822054Y-52085946D01*
X100953267Y-52245828D01*
X101050767Y-52428237D01*
X101050767Y-52428238D01*
X101110807Y-52626164D01*
X101131080Y-52832000D01*
X101110807Y-53037836D01*
X101070780Y-53169787D01*
X101050767Y-53235763D01*
X100953267Y-53418172D01*
X100822054Y-53578054D01*
X100662172Y-53709267D01*
X100479763Y-53806767D01*
X100413787Y-53826780D01*
X100281836Y-53866807D01*
X100204707Y-53874403D01*
X100127580Y-53882000D01*
X100024420Y-53882000D01*
X99947293Y-53874403D01*
X99870164Y-53866807D01*
X99738213Y-53826780D01*
X99672237Y-53806767D01*
X99489828Y-53709267D01*
X99329946Y-53578054D01*
X99198733Y-53418172D01*
X99101233Y-53235763D01*
X99081220Y-53169787D01*
X99041193Y-53037836D01*
X99020920Y-52832000D01*
X99041193Y-52626164D01*
X99101233Y-52428238D01*
X99101233Y-52428237D01*
X99198733Y-52245828D01*
X99329946Y-52085946D01*
X99489828Y-51954733D01*
X99672237Y-51857233D01*
X99769487Y-51827733D01*
X99870164Y-51797193D01*
X99947293Y-51789596D01*
X100024420Y-51782000D01*
X100127580Y-51782000D01*
X100204707Y-51789596D01*
X100204707Y-51789596D01*
G37*
G36*
X60069888Y-51659470D02*
X60250274Y-51695350D01*
X60441362Y-51774502D01*
X60613336Y-51889411D01*
X60759589Y-52035664D01*
X60874498Y-52207638D01*
X60953650Y-52398726D01*
X60994000Y-52601584D01*
X60994000Y-52808416D01*
X60953650Y-53011274D01*
X60874498Y-53202362D01*
X60759589Y-53374336D01*
X60613336Y-53520589D01*
X60441362Y-53635498D01*
X60250274Y-53714650D01*
X60069888Y-53750530D01*
X60047417Y-53755000D01*
X59840583Y-53755000D01*
X59818112Y-53750530D01*
X59637726Y-53714650D01*
X59446638Y-53635498D01*
X59274664Y-53520589D01*
X59128411Y-53374336D01*
X59013502Y-53202362D01*
X58934350Y-53011274D01*
X58894000Y-52808416D01*
X58894000Y-52601584D01*
X58934350Y-52398726D01*
X59013502Y-52207638D01*
X59128411Y-52035664D01*
X59274664Y-51889411D01*
X59446638Y-51774502D01*
X59637726Y-51695350D01*
X59818112Y-51659470D01*
X59840583Y-51655000D01*
X60047417Y-51655000D01*
X60069888Y-51659470D01*
X60069888Y-51659470D01*
G37*
G36*
X72769888Y-51659470D02*
X72950274Y-51695350D01*
X73141362Y-51774502D01*
X73313336Y-51889411D01*
X73459589Y-52035664D01*
X73574498Y-52207638D01*
X73653650Y-52398726D01*
X73694000Y-52601584D01*
X73694000Y-52808416D01*
X73653650Y-53011274D01*
X73574498Y-53202362D01*
X73459589Y-53374336D01*
X73313336Y-53520589D01*
X73141362Y-53635498D01*
X72950274Y-53714650D01*
X72769888Y-53750530D01*
X72747417Y-53755000D01*
X72540583Y-53755000D01*
X72518112Y-53750530D01*
X72337726Y-53714650D01*
X72146638Y-53635498D01*
X71974664Y-53520589D01*
X71828411Y-53374336D01*
X71713502Y-53202362D01*
X71634350Y-53011274D01*
X71594000Y-52808416D01*
X71594000Y-52601584D01*
X71634350Y-52398726D01*
X71713502Y-52207638D01*
X71828411Y-52035664D01*
X71974664Y-51889411D01*
X72146638Y-51774502D01*
X72337726Y-51695350D01*
X72518112Y-51659470D01*
X72540583Y-51655000D01*
X72747417Y-51655000D01*
X72769888Y-51659470D01*
X72769888Y-51659470D01*
G37*
G36*
X70232707Y-51662597D02*
X70309836Y-51670193D01*
X70441787Y-51710220D01*
X70507763Y-51730233D01*
X70690172Y-51827733D01*
X70850054Y-51958946D01*
X70981267Y-52118828D01*
X71078767Y-52301237D01*
X71078767Y-52301238D01*
X71138807Y-52499164D01*
X71159080Y-52705000D01*
X71138807Y-52910836D01*
X71100283Y-53037834D01*
X71078767Y-53108763D01*
X70981267Y-53291172D01*
X70850054Y-53451054D01*
X70690172Y-53582267D01*
X70507763Y-53679767D01*
X70441787Y-53699780D01*
X70309836Y-53739807D01*
X70232707Y-53747403D01*
X70155580Y-53755000D01*
X70052420Y-53755000D01*
X69975293Y-53747403D01*
X69898164Y-53739807D01*
X69766213Y-53699780D01*
X69700237Y-53679767D01*
X69517828Y-53582267D01*
X69357946Y-53451054D01*
X69226733Y-53291172D01*
X69129233Y-53108763D01*
X69107717Y-53037834D01*
X69069193Y-52910836D01*
X69048920Y-52705000D01*
X69069193Y-52499164D01*
X69129233Y-52301238D01*
X69129233Y-52301237D01*
X69226733Y-52118828D01*
X69357946Y-51958946D01*
X69517828Y-51827733D01*
X69700237Y-51730233D01*
X69766213Y-51710220D01*
X69898164Y-51670193D01*
X69975293Y-51662597D01*
X70052420Y-51655000D01*
X70155580Y-51655000D01*
X70232707Y-51662597D01*
X70232707Y-51662597D01*
G37*
G36*
X67689888Y-51659470D02*
X67870274Y-51695350D01*
X68061362Y-51774502D01*
X68233336Y-51889411D01*
X68379589Y-52035664D01*
X68494498Y-52207638D01*
X68573650Y-52398726D01*
X68614000Y-52601584D01*
X68614000Y-52808416D01*
X68573650Y-53011274D01*
X68494498Y-53202362D01*
X68379589Y-53374336D01*
X68233336Y-53520589D01*
X68061362Y-53635498D01*
X67870274Y-53714650D01*
X67689888Y-53750530D01*
X67667417Y-53755000D01*
X67460583Y-53755000D01*
X67438112Y-53750530D01*
X67257726Y-53714650D01*
X67066638Y-53635498D01*
X66894664Y-53520589D01*
X66748411Y-53374336D01*
X66633502Y-53202362D01*
X66554350Y-53011274D01*
X66514000Y-52808416D01*
X66514000Y-52601584D01*
X66554350Y-52398726D01*
X66633502Y-52207638D01*
X66748411Y-52035664D01*
X66894664Y-51889411D01*
X67066638Y-51774502D01*
X67257726Y-51695350D01*
X67438112Y-51659470D01*
X67460583Y-51655000D01*
X67667417Y-51655000D01*
X67689888Y-51659470D01*
X67689888Y-51659470D01*
G37*
G36*
X65149888Y-51659470D02*
X65330274Y-51695350D01*
X65521362Y-51774502D01*
X65693336Y-51889411D01*
X65839589Y-52035664D01*
X65954498Y-52207638D01*
X66033650Y-52398726D01*
X66074000Y-52601584D01*
X66074000Y-52808416D01*
X66033650Y-53011274D01*
X65954498Y-53202362D01*
X65839589Y-53374336D01*
X65693336Y-53520589D01*
X65521362Y-53635498D01*
X65330274Y-53714650D01*
X65149888Y-53750530D01*
X65127417Y-53755000D01*
X64920583Y-53755000D01*
X64898112Y-53750530D01*
X64717726Y-53714650D01*
X64526638Y-53635498D01*
X64354664Y-53520589D01*
X64208411Y-53374336D01*
X64093502Y-53202362D01*
X64014350Y-53011274D01*
X63974000Y-52808416D01*
X63974000Y-52601584D01*
X64014350Y-52398726D01*
X64093502Y-52207638D01*
X64208411Y-52035664D01*
X64354664Y-51889411D01*
X64526638Y-51774502D01*
X64717726Y-51695350D01*
X64898112Y-51659470D01*
X64920583Y-51655000D01*
X65127417Y-51655000D01*
X65149888Y-51659470D01*
X65149888Y-51659470D01*
G37*
G36*
X62609888Y-51659470D02*
X62790274Y-51695350D01*
X62981362Y-51774502D01*
X63153336Y-51889411D01*
X63299589Y-52035664D01*
X63414498Y-52207638D01*
X63493650Y-52398726D01*
X63534000Y-52601584D01*
X63534000Y-52808416D01*
X63493650Y-53011274D01*
X63414498Y-53202362D01*
X63299589Y-53374336D01*
X63153336Y-53520589D01*
X62981362Y-53635498D01*
X62790274Y-53714650D01*
X62609888Y-53750530D01*
X62587417Y-53755000D01*
X62380583Y-53755000D01*
X62358112Y-53750530D01*
X62177726Y-53714650D01*
X61986638Y-53635498D01*
X61814664Y-53520589D01*
X61668411Y-53374336D01*
X61553502Y-53202362D01*
X61474350Y-53011274D01*
X61434000Y-52808416D01*
X61434000Y-52601584D01*
X61474350Y-52398726D01*
X61553502Y-52207638D01*
X61668411Y-52035664D01*
X61814664Y-51889411D01*
X61986638Y-51774502D01*
X62177726Y-51695350D01*
X62358112Y-51659470D01*
X62380583Y-51655000D01*
X62587417Y-51655000D01*
X62609888Y-51659470D01*
X62609888Y-51659470D01*
G37*
G36*
X57529888Y-51659470D02*
X57710274Y-51695350D01*
X57901362Y-51774502D01*
X58073336Y-51889411D01*
X58219589Y-52035664D01*
X58334498Y-52207638D01*
X58413650Y-52398726D01*
X58454000Y-52601584D01*
X58454000Y-52808416D01*
X58413650Y-53011274D01*
X58334498Y-53202362D01*
X58219589Y-53374336D01*
X58073336Y-53520589D01*
X57901362Y-53635498D01*
X57710274Y-53714650D01*
X57529888Y-53750530D01*
X57507417Y-53755000D01*
X57300583Y-53755000D01*
X57278112Y-53750530D01*
X57097726Y-53714650D01*
X56906638Y-53635498D01*
X56734664Y-53520589D01*
X56588411Y-53374336D01*
X56473502Y-53202362D01*
X56394350Y-53011274D01*
X56354000Y-52808416D01*
X56354000Y-52601584D01*
X56394350Y-52398726D01*
X56473502Y-52207638D01*
X56588411Y-52035664D01*
X56734664Y-51889411D01*
X56906638Y-51774502D01*
X57097726Y-51695350D01*
X57278112Y-51659470D01*
X57300583Y-51655000D01*
X57507417Y-51655000D01*
X57529888Y-51659470D01*
X57529888Y-51659470D01*
G37*
G36*
X88009888Y-51659470D02*
X88190274Y-51695350D01*
X88381362Y-51774502D01*
X88553336Y-51889411D01*
X88699589Y-52035664D01*
X88814498Y-52207638D01*
X88893650Y-52398726D01*
X88934000Y-52601584D01*
X88934000Y-52808416D01*
X88893650Y-53011274D01*
X88814498Y-53202362D01*
X88699589Y-53374336D01*
X88553336Y-53520589D01*
X88381362Y-53635498D01*
X88190274Y-53714650D01*
X88009888Y-53750530D01*
X87987417Y-53755000D01*
X87780583Y-53755000D01*
X87758112Y-53750530D01*
X87577726Y-53714650D01*
X87386638Y-53635498D01*
X87214664Y-53520589D01*
X87068411Y-53374336D01*
X86953502Y-53202362D01*
X86874350Y-53011274D01*
X86834000Y-52808416D01*
X86834000Y-52601584D01*
X86874350Y-52398726D01*
X86953502Y-52207638D01*
X87068411Y-52035664D01*
X87214664Y-51889411D01*
X87386638Y-51774502D01*
X87577726Y-51695350D01*
X87758112Y-51659470D01*
X87780583Y-51655000D01*
X87987417Y-51655000D01*
X88009888Y-51659470D01*
X88009888Y-51659470D01*
G37*
G36*
X82929888Y-51659470D02*
X83110274Y-51695350D01*
X83301362Y-51774502D01*
X83473336Y-51889411D01*
X83619589Y-52035664D01*
X83734498Y-52207638D01*
X83813650Y-52398726D01*
X83854000Y-52601584D01*
X83854000Y-52808416D01*
X83813650Y-53011274D01*
X83734498Y-53202362D01*
X83619589Y-53374336D01*
X83473336Y-53520589D01*
X83301362Y-53635498D01*
X83110274Y-53714650D01*
X82929888Y-53750530D01*
X82907417Y-53755000D01*
X82700583Y-53755000D01*
X82678112Y-53750530D01*
X82497726Y-53714650D01*
X82306638Y-53635498D01*
X82134664Y-53520589D01*
X81988411Y-53374336D01*
X81873502Y-53202362D01*
X81794350Y-53011274D01*
X81754000Y-52808416D01*
X81754000Y-52601584D01*
X81794350Y-52398726D01*
X81873502Y-52207638D01*
X81988411Y-52035664D01*
X82134664Y-51889411D01*
X82306638Y-51774502D01*
X82497726Y-51695350D01*
X82678112Y-51659470D01*
X82700583Y-51655000D01*
X82907417Y-51655000D01*
X82929888Y-51659470D01*
X82929888Y-51659470D01*
G37*
G36*
X90549888Y-51659470D02*
X90730274Y-51695350D01*
X90921362Y-51774502D01*
X91093336Y-51889411D01*
X91239589Y-52035664D01*
X91354498Y-52207638D01*
X91433650Y-52398726D01*
X91474000Y-52601584D01*
X91474000Y-52808416D01*
X91433650Y-53011274D01*
X91354498Y-53202362D01*
X91239589Y-53374336D01*
X91093336Y-53520589D01*
X90921362Y-53635498D01*
X90730274Y-53714650D01*
X90549888Y-53750530D01*
X90527417Y-53755000D01*
X90320583Y-53755000D01*
X90298112Y-53750530D01*
X90117726Y-53714650D01*
X89926638Y-53635498D01*
X89754664Y-53520589D01*
X89608411Y-53374336D01*
X89493502Y-53202362D01*
X89414350Y-53011274D01*
X89374000Y-52808416D01*
X89374000Y-52601584D01*
X89414350Y-52398726D01*
X89493502Y-52207638D01*
X89608411Y-52035664D01*
X89754664Y-51889411D01*
X89926638Y-51774502D01*
X90117726Y-51695350D01*
X90298112Y-51659470D01*
X90320583Y-51655000D01*
X90527417Y-51655000D01*
X90549888Y-51659470D01*
X90549888Y-51659470D01*
G37*
G36*
X94014000Y-53755000D02*
X91914000Y-53755000D01*
X91914000Y-51655000D01*
X94014000Y-51655000D01*
X94014000Y-53755000D01*
X94014000Y-53755000D01*
G37*
G36*
X75309888Y-51659470D02*
X75490274Y-51695350D01*
X75681362Y-51774502D01*
X75853336Y-51889411D01*
X75999589Y-52035664D01*
X76114498Y-52207638D01*
X76193650Y-52398726D01*
X76234000Y-52601584D01*
X76234000Y-52808416D01*
X76193650Y-53011274D01*
X76114498Y-53202362D01*
X75999589Y-53374336D01*
X75853336Y-53520589D01*
X75681362Y-53635498D01*
X75490274Y-53714650D01*
X75309888Y-53750530D01*
X75287417Y-53755000D01*
X75080583Y-53755000D01*
X75058112Y-53750530D01*
X74877726Y-53714650D01*
X74686638Y-53635498D01*
X74514664Y-53520589D01*
X74368411Y-53374336D01*
X74253502Y-53202362D01*
X74174350Y-53011274D01*
X74134000Y-52808416D01*
X74134000Y-52601584D01*
X74174350Y-52398726D01*
X74253502Y-52207638D01*
X74368411Y-52035664D01*
X74514664Y-51889411D01*
X74686638Y-51774502D01*
X74877726Y-51695350D01*
X75058112Y-51659470D01*
X75080583Y-51655000D01*
X75287417Y-51655000D01*
X75309888Y-51659470D01*
X75309888Y-51659470D01*
G37*
G36*
X77849888Y-51659470D02*
X78030274Y-51695350D01*
X78221362Y-51774502D01*
X78393336Y-51889411D01*
X78539589Y-52035664D01*
X78654498Y-52207638D01*
X78733650Y-52398726D01*
X78774000Y-52601584D01*
X78774000Y-52808416D01*
X78733650Y-53011274D01*
X78654498Y-53202362D01*
X78539589Y-53374336D01*
X78393336Y-53520589D01*
X78221362Y-53635498D01*
X78030274Y-53714650D01*
X77849888Y-53750530D01*
X77827417Y-53755000D01*
X77620583Y-53755000D01*
X77598112Y-53750530D01*
X77417726Y-53714650D01*
X77226638Y-53635498D01*
X77054664Y-53520589D01*
X76908411Y-53374336D01*
X76793502Y-53202362D01*
X76714350Y-53011274D01*
X76674000Y-52808416D01*
X76674000Y-52601584D01*
X76714350Y-52398726D01*
X76793502Y-52207638D01*
X76908411Y-52035664D01*
X77054664Y-51889411D01*
X77226638Y-51774502D01*
X77417726Y-51695350D01*
X77598112Y-51659470D01*
X77620583Y-51655000D01*
X77827417Y-51655000D01*
X77849888Y-51659470D01*
X77849888Y-51659470D01*
G37*
G36*
X85469888Y-51659470D02*
X85650274Y-51695350D01*
X85841362Y-51774502D01*
X86013336Y-51889411D01*
X86159589Y-52035664D01*
X86274498Y-52207638D01*
X86353650Y-52398726D01*
X86394000Y-52601584D01*
X86394000Y-52808416D01*
X86353650Y-53011274D01*
X86274498Y-53202362D01*
X86159589Y-53374336D01*
X86013336Y-53520589D01*
X85841362Y-53635498D01*
X85650274Y-53714650D01*
X85469888Y-53750530D01*
X85447417Y-53755000D01*
X85240583Y-53755000D01*
X85218112Y-53750530D01*
X85037726Y-53714650D01*
X84846638Y-53635498D01*
X84674664Y-53520589D01*
X84528411Y-53374336D01*
X84413502Y-53202362D01*
X84334350Y-53011274D01*
X84294000Y-52808416D01*
X84294000Y-52601584D01*
X84334350Y-52398726D01*
X84413502Y-52207638D01*
X84528411Y-52035664D01*
X84674664Y-51889411D01*
X84846638Y-51774502D01*
X85037726Y-51695350D01*
X85218112Y-51659470D01*
X85240583Y-51655000D01*
X85447417Y-51655000D01*
X85469888Y-51659470D01*
X85469888Y-51659470D01*
G37*
G36*
X80389888Y-51659470D02*
X80570274Y-51695350D01*
X80761362Y-51774502D01*
X80933336Y-51889411D01*
X81079589Y-52035664D01*
X81194498Y-52207638D01*
X81273650Y-52398726D01*
X81314000Y-52601584D01*
X81314000Y-52808416D01*
X81273650Y-53011274D01*
X81194498Y-53202362D01*
X81079589Y-53374336D01*
X80933336Y-53520589D01*
X80761362Y-53635498D01*
X80570274Y-53714650D01*
X80389888Y-53750530D01*
X80367417Y-53755000D01*
X80160583Y-53755000D01*
X80138112Y-53750530D01*
X79957726Y-53714650D01*
X79766638Y-53635498D01*
X79594664Y-53520589D01*
X79448411Y-53374336D01*
X79333502Y-53202362D01*
X79254350Y-53011274D01*
X79214000Y-52808416D01*
X79214000Y-52601584D01*
X79254350Y-52398726D01*
X79333502Y-52207638D01*
X79448411Y-52035664D01*
X79594664Y-51889411D01*
X79766638Y-51774502D01*
X79957726Y-51695350D01*
X80138112Y-51659470D01*
X80160583Y-51655000D01*
X80367417Y-51655000D01*
X80389888Y-51659470D01*
X80389888Y-51659470D01*
G37*
M02*
