%TF.GenerationSoftware,KiCad,Pcbnew,(5.0.0)*%
%TF.CreationDate,2019-11-04T22:18:49+01:00*%
%TF.ProjectId,PSAVanCanBridge_v14,50534156616E43616E4272696467655F,rev?*%
%TF.SameCoordinates,Original*%
%TF.FileFunction,Legend,Bot*%
%TF.FilePolarity,Positive*%
%FSLAX46Y46*%
G04 Gerber Fmt 4.6, Leading zero omitted, Abs format (unit mm)*
G04 Created by KiCad (PCBNEW (5.0.0)) date 11/04/19 22:18:49*
%MOMM*%
%LPD*%
G01*
G04 APERTURE LIST*
%ADD10C,0.100000*%
G04 APERTURE END LIST*
D10*
X108534000Y-74275904D02*
X108534000Y-73475904D01*
X108343523Y-73475904D01*
X108229238Y-73514000D01*
X108153047Y-73590190D01*
X108114952Y-73666380D01*
X108076857Y-73818761D01*
X108076857Y-73933047D01*
X108114952Y-74085428D01*
X108153047Y-74161619D01*
X108229238Y-74237809D01*
X108343523Y-74275904D01*
X108534000Y-74275904D01*
X107772095Y-74047333D02*
X107391142Y-74047333D01*
X107848285Y-74275904D02*
X107581619Y-73475904D01*
X107314952Y-74275904D01*
X107162571Y-73475904D02*
X106705428Y-73475904D01*
X106934000Y-74275904D02*
X106934000Y-73475904D01*
X106476857Y-74047333D02*
X106095904Y-74047333D01*
X106553047Y-74275904D02*
X106286380Y-73475904D01*
X106019714Y-74275904D01*
X105486380Y-73856857D02*
X105372095Y-73894952D01*
X105334000Y-73933047D01*
X105295904Y-74009238D01*
X105295904Y-74123523D01*
X105334000Y-74199714D01*
X105372095Y-74237809D01*
X105448285Y-74275904D01*
X105753047Y-74275904D01*
X105753047Y-73475904D01*
X105486380Y-73475904D01*
X105410190Y-73514000D01*
X105372095Y-73552095D01*
X105334000Y-73628285D01*
X105334000Y-73704476D01*
X105372095Y-73780666D01*
X105410190Y-73818761D01*
X105486380Y-73856857D01*
X105753047Y-73856857D01*
X108629239Y-71735904D02*
X108629239Y-70935904D01*
X108438762Y-70935904D01*
X108324477Y-70974000D01*
X108248286Y-71050190D01*
X108210191Y-71126380D01*
X108172096Y-71278761D01*
X108172096Y-71393047D01*
X108210191Y-71545428D01*
X108248286Y-71621619D01*
X108324477Y-71697809D01*
X108438762Y-71735904D01*
X108629239Y-71735904D01*
X107867334Y-71507333D02*
X107486381Y-71507333D01*
X107943524Y-71735904D02*
X107676858Y-70935904D01*
X107410191Y-71735904D01*
X107257810Y-70935904D02*
X106800667Y-70935904D01*
X107029239Y-71735904D02*
X107029239Y-70935904D01*
X106572096Y-71507333D02*
X106191143Y-71507333D01*
X106648286Y-71735904D02*
X106381619Y-70935904D01*
X106114953Y-71735904D01*
X108172096Y-69119714D02*
X108210191Y-69157809D01*
X108324477Y-69195904D01*
X108400667Y-69195904D01*
X108514953Y-69157809D01*
X108591143Y-69081619D01*
X108629239Y-69005428D01*
X108667334Y-68853047D01*
X108667334Y-68738761D01*
X108629239Y-68586380D01*
X108591143Y-68510190D01*
X108514953Y-68434000D01*
X108400667Y-68395904D01*
X108324477Y-68395904D01*
X108210191Y-68434000D01*
X108172096Y-68472095D01*
X107867334Y-68967333D02*
X107486381Y-68967333D01*
X107943524Y-69195904D02*
X107676858Y-68395904D01*
X107410191Y-69195904D01*
X107143524Y-69195904D02*
X107143524Y-68395904D01*
X106686381Y-69195904D01*
X106686381Y-68395904D01*
X105314953Y-69195904D02*
X105695905Y-69195904D01*
X105695905Y-68395904D01*
X108172095Y-66579714D02*
X108210190Y-66617809D01*
X108324476Y-66655904D01*
X108400666Y-66655904D01*
X108514952Y-66617809D01*
X108591142Y-66541619D01*
X108629238Y-66465428D01*
X108667333Y-66313047D01*
X108667333Y-66198761D01*
X108629238Y-66046380D01*
X108591142Y-65970190D01*
X108514952Y-65894000D01*
X108400666Y-65855904D01*
X108324476Y-65855904D01*
X108210190Y-65894000D01*
X108172095Y-65932095D01*
X107867333Y-66427333D02*
X107486380Y-66427333D01*
X107943523Y-66655904D02*
X107676857Y-65855904D01*
X107410190Y-66655904D01*
X107143523Y-66655904D02*
X107143523Y-65855904D01*
X106686380Y-66655904D01*
X106686380Y-65855904D01*
X105695904Y-66655904D02*
X105695904Y-65855904D01*
X105695904Y-66236857D02*
X105238761Y-66236857D01*
X105238761Y-66655904D02*
X105238761Y-65855904D01*
X108210190Y-63354000D02*
X108286381Y-63315904D01*
X108400667Y-63315904D01*
X108514952Y-63354000D01*
X108591143Y-63430190D01*
X108629238Y-63506380D01*
X108667333Y-63658761D01*
X108667333Y-63773047D01*
X108629238Y-63925428D01*
X108591143Y-64001619D01*
X108514952Y-64077809D01*
X108400667Y-64115904D01*
X108324476Y-64115904D01*
X108210190Y-64077809D01*
X108172095Y-64039714D01*
X108172095Y-63773047D01*
X108324476Y-63773047D01*
X107829238Y-64115904D02*
X107829238Y-63315904D01*
X107372095Y-64115904D01*
X107372095Y-63315904D01*
X106991143Y-64115904D02*
X106991143Y-63315904D01*
X106800667Y-63315904D01*
X106686381Y-63354000D01*
X106610190Y-63430190D01*
X106572095Y-63506380D01*
X106534000Y-63658761D01*
X106534000Y-63773047D01*
X106572095Y-63925428D01*
X106610190Y-64001619D01*
X106686381Y-64077809D01*
X106800667Y-64115904D01*
X106991143Y-64115904D01*
X108527619Y-61575904D02*
X108527619Y-60775904D01*
X108222857Y-60775904D01*
X108146666Y-60814000D01*
X108108571Y-60852095D01*
X108070476Y-60928285D01*
X108070476Y-61042571D01*
X108108571Y-61118761D01*
X108146666Y-61156857D01*
X108222857Y-61194952D01*
X108527619Y-61194952D01*
X107575238Y-60775904D02*
X107422857Y-60775904D01*
X107346666Y-60814000D01*
X107270476Y-60890190D01*
X107232380Y-61042571D01*
X107232380Y-61309238D01*
X107270476Y-61461619D01*
X107346666Y-61537809D01*
X107422857Y-61575904D01*
X107575238Y-61575904D01*
X107651428Y-61537809D01*
X107727619Y-61461619D01*
X107765714Y-61309238D01*
X107765714Y-61042571D01*
X107727619Y-60890190D01*
X107651428Y-60814000D01*
X107575238Y-60775904D01*
X106965714Y-60775904D02*
X106775238Y-61575904D01*
X106622857Y-61004476D01*
X106470476Y-61575904D01*
X106280000Y-60775904D01*
X105975238Y-61156857D02*
X105708571Y-61156857D01*
X105594285Y-61575904D02*
X105975238Y-61575904D01*
X105975238Y-60775904D01*
X105594285Y-60775904D01*
X104794285Y-61575904D02*
X105060952Y-61194952D01*
X105251428Y-61575904D02*
X105251428Y-60775904D01*
X104946666Y-60775904D01*
X104870476Y-60814000D01*
X104832380Y-60852095D01*
X104794285Y-60928285D01*
X104794285Y-61042571D01*
X104832380Y-61118761D01*
X104870476Y-61156857D01*
X104946666Y-61194952D01*
X105251428Y-61194952D01*
M02*
