M48
;DRILL file {KiCad (5.0.2)-1} date 05/07/2019 20:59:01
;FORMAT={-:-/ absolute / inch / decimal}
FMAT,2
INCH,TZ
T1C0.0157
T2C0.0236
T3C0.0276
T4C0.0295
T5C0.0374
T6C0.0394
%
G90
G05
T1
X2.03Y-1.52
X2.55Y-2.1
X2.615Y-1.565
X2.615Y-2.1
X2.715Y-2.03
X2.715Y-2.1
X3.04Y-1.97
X3.05Y-1.79
X3.595Y-1.43
X3.605Y-2.03
X3.675Y-2.03
T2
X3.135Y-2.08
X3.135Y-2.1587
X3.13Y-1.605
X3.13Y-1.6837
T3
X2.7836Y-1.7835
X2.7836Y-1.8185
X2.7836Y-1.8535
X2.7836Y-1.9035
X2.7836Y-1.9385
X2.7836Y-1.9735
X2.8186Y-1.7835
X2.8186Y-1.8185
X2.8186Y-1.8535
X2.8186Y-1.9035
X2.8186Y-1.9385
X2.8186Y-1.9735
X2.8536Y-1.7835
X2.8536Y-1.8185
X2.8536Y-1.8535
X2.8536Y-1.9035
X2.8536Y-1.9385
X2.8536Y-1.9735
X2.9136Y-1.7835
X2.9136Y-1.8185
X2.9136Y-1.8535
X2.9136Y-1.9035
X2.9136Y-1.9385
X2.9136Y-1.9735
X2.9486Y-1.7835
X2.9486Y-1.8185
X2.9486Y-1.8535
X2.9486Y-1.9035
X2.9486Y-1.9385
X2.9486Y-1.9735
X2.9836Y-1.7835
X2.9836Y-1.8185
X2.9836Y-1.8535
X2.9836Y-1.9035
X2.9836Y-1.9385
X2.9836Y-1.9735
T4
X2.25Y-1.96
X2.25Y-2.01
X2.25Y-2.06
T5
X3.53Y-1.6379
X3.53Y-1.7363
X3.53Y-1.8347
X3.53Y-1.9331
X3.53Y-2.0316
X3.53Y-2.13
T6
X2.Y-1.595
X2.1Y-1.595
X2.2Y-1.595
X2.3Y-1.595
X3.415Y-1.635
X3.415Y-1.735
X3.415Y-1.835
X3.415Y-1.935
X3.415Y-2.035
X3.415Y-2.135
X2.1Y-2.275
X2.2Y-2.275
X2.3Y-2.275
X2.4Y-2.275
X2.5Y-2.275
X2.6Y-2.275
X2.7Y-2.275
X2.8Y-2.275
X2.9Y-2.275
X3.Y-2.275
X3.1Y-2.275
X3.2Y-2.275
X3.3Y-2.275
X3.4Y-2.275
X3.5Y-2.275
X2.1Y-2.38
X2.2Y-2.38
X2.3Y-2.38
X2.4Y-2.38
X2.5Y-2.38
X2.6Y-2.38
X2.7Y-2.38
X2.8Y-2.38
X2.9Y-2.38
X3.Y-2.38
X3.1Y-2.38
X3.2Y-2.38
X3.3Y-2.38
X3.4Y-2.38
X3.5Y-2.38
X2.1Y-1.485
X2.2Y-1.485
X2.3Y-1.485
X2.4Y-1.485
X2.5Y-1.485
X2.6Y-1.485
X2.7Y-1.485
X2.8Y-1.485
X2.9Y-1.485
X3.Y-1.485
X3.1Y-1.485
X3.2Y-1.485
X3.3Y-1.485
X3.4Y-1.485
X3.5Y-1.485
X2.1Y-1.38
X2.2Y-1.38
X2.3Y-1.38
X2.4Y-1.38
X2.5Y-1.38
X2.6Y-1.38
X2.7Y-1.38
X2.8Y-1.38
X2.9Y-1.38
X3.Y-1.38
X3.1Y-1.38
X3.2Y-1.38
X3.3Y-1.38
X3.4Y-1.38
X3.5Y-1.38
X2.01Y-1.99
X2.01Y-2.116
X2.Y-1.7
X2.1Y-1.7
X2.2Y-1.7
X2.3Y-1.7
T0
M30
