G04 #@! TF.GenerationSoftware,KiCad,Pcbnew,(5.0.0)*
G04 #@! TF.CreationDate,2018-10-11T21:25:17+02:00*
G04 #@! TF.ProjectId,canbus,63616E6275732E6B696361645F706362,rev?*
G04 #@! TF.SameCoordinates,Original*
G04 #@! TF.FileFunction,Copper,L2,Bot,Signal*
G04 #@! TF.FilePolarity,Positive*
%FSLAX46Y46*%
G04 Gerber Fmt 4.6, Leading zero omitted, Abs format (unit mm)*
G04 Created by KiCad (PCBNEW (5.0.0)) date 10/11/18 21:25:17*
%MOMM*%
%LPD*%
G01*
G04 APERTURE LIST*
G04 #@! TA.AperFunction,ComponentPad*
%ADD10O,1.219200X2.438400*%
G04 #@! TD*
G04 #@! TA.AperFunction,ComponentPad*
%ADD11C,2.032000*%
G04 #@! TD*
G04 #@! TA.AperFunction,ComponentPad*
%ADD12C,1.625600*%
G04 #@! TD*
G04 #@! TA.AperFunction,Conductor*
%ADD13C,0.100000*%
G04 #@! TD*
G04 #@! TA.AperFunction,SMDPad,CuDef*
%ADD14C,1.425000*%
G04 #@! TD*
G04 #@! TA.AperFunction,ComponentPad*
%ADD15O,1.950000X1.700000*%
G04 #@! TD*
G04 #@! TA.AperFunction,ComponentPad*
%ADD16R,1.950000X1.700000*%
G04 #@! TD*
G04 #@! TA.AperFunction,ComponentPad*
%ADD17R,1.600000X1.600000*%
G04 #@! TD*
G04 #@! TA.AperFunction,ComponentPad*
%ADD18C,1.600000*%
G04 #@! TD*
G04 #@! TA.AperFunction,ComponentPad*
%ADD19O,2.438400X1.219200*%
G04 #@! TD*
G04 #@! TA.AperFunction,SMDPad,CuDef*
%ADD20R,2.032000X0.660400*%
G04 #@! TD*
G04 #@! TA.AperFunction,ComponentPad*
%ADD21C,1.879600*%
G04 #@! TD*
G04 #@! TA.AperFunction,ComponentPad*
%ADD22C,1.422400*%
G04 #@! TD*
G04 #@! TA.AperFunction,SMDPad,CuDef*
%ADD23R,2.209800X0.609600*%
G04 #@! TD*
G04 #@! TA.AperFunction,ViaPad*
%ADD24C,0.800000*%
G04 #@! TD*
G04 #@! TA.AperFunction,Conductor*
%ADD25C,0.250000*%
G04 #@! TD*
G04 APERTURE END LIST*
D10*
G04 #@! TO.P,VQ2,1*
G04 #@! TO.N,Net-(C12-Pad2)*
X178257200Y-101600000D03*
G04 #@! TO.P,VQ2,2*
G04 #@! TO.N,Net-(C11-Pad2)*
X173177200Y-101600000D03*
G04 #@! TD*
D11*
G04 #@! TO.P,R1,P$2*
G04 #@! TO.N,VCC*
X154236100Y-97743600D03*
G04 #@! TO.P,R1,P$1*
G04 #@! TO.N,Net-(IC1-Pad17)*
X146616100Y-97743600D03*
G04 #@! TD*
G04 #@! TO.P,R3,P$1*
G04 #@! TO.N,VCC*
X146616100Y-93933600D03*
G04 #@! TO.P,R3,P$2*
G04 #@! TO.N,Net-(IC1-Pad12)*
X154236100Y-93933600D03*
G04 #@! TD*
G04 #@! TO.P,C1,2*
G04 #@! TO.N,GND*
X142918100Y-97743600D03*
G04 #@! TO.P,C1,1*
G04 #@! TO.N,VCC*
X140124100Y-97743600D03*
G04 #@! TD*
G04 #@! TO.P,C2,1*
G04 #@! TO.N,Net-(C2-Pad1)*
X133774100Y-93933600D03*
G04 #@! TO.P,C2,2*
G04 #@! TO.N,GND*
X136568100Y-93933600D03*
G04 #@! TD*
G04 #@! TO.P,C3,2*
G04 #@! TO.N,GND*
X136568100Y-97743600D03*
G04 #@! TO.P,C3,1*
G04 #@! TO.N,Net-(C3-Pad1)*
X133774100Y-97743600D03*
G04 #@! TD*
G04 #@! TO.P,C4,1*
G04 #@! TO.N,VCC*
X140124100Y-93933600D03*
G04 #@! TO.P,C4,2*
G04 #@! TO.N,GND*
X142918100Y-93933600D03*
G04 #@! TD*
D12*
G04 #@! TO.P,U$2,D10*
G04 #@! TO.N,Net-(IC1-Pad16)*
X166921100Y-118063600D03*
G04 #@! TO.P,U$2,D11*
G04 #@! TO.N,/MOSI*
X164381100Y-118063600D03*
G04 #@! TO.P,U$2,D12*
G04 #@! TO.N,/MISO*
X161841100Y-118063600D03*
G04 #@! TO.P,U$2,D13*
G04 #@! TO.N,/SCLK*
X159301100Y-118063600D03*
G04 #@! TO.P,U$2,A0*
G04 #@! TO.N,/E*
X156761100Y-118063600D03*
G04 #@! TO.P,U$2,A1*
G04 #@! TO.N,Net-(U$2-PadA1)*
X154221100Y-118063600D03*
G04 #@! TO.P,U$2,A2*
G04 #@! TO.N,Net-(U$2-PadA2)*
X151681100Y-118063600D03*
G04 #@! TO.P,U$2,A4*
G04 #@! TO.N,Net-(U$2-PadA4)*
X150411100Y-115523600D03*
G04 #@! TO.P,U$2,A3*
G04 #@! TO.N,Net-(U$2-PadA3)*
X149141100Y-118063600D03*
G04 #@! TO.P,U$2,A5*
G04 #@! TO.N,Net-(U$2-PadA5)*
X147871100Y-115523600D03*
G04 #@! TO.P,U$2,VCC1*
G04 #@! TO.N,VCC*
X146601100Y-118063600D03*
G04 #@! TO.P,U$2,RST1*
G04 #@! TO.N,Net-(U$2-PadRST1)*
X144061100Y-118063600D03*
G04 #@! TO.P,U$2,GND1*
G04 #@! TO.N,GND*
X141521100Y-118063600D03*
G04 #@! TO.P,U$2,RAW*
G04 #@! TO.N,/+12V*
X138981100Y-118063600D03*
G04 #@! TO.P,U$2,GRN*
G04 #@! TO.N,Net-(U$2-PadGRN)*
X136441100Y-116793600D03*
G04 #@! TO.P,U$2,TXO2*
G04 #@! TO.N,N/C*
X136441100Y-114253600D03*
G04 #@! TO.P,U$2,RXI2*
X136441100Y-111713600D03*
G04 #@! TO.P,U$2,VCC2*
X136441100Y-109173600D03*
G04 #@! TO.P,U$2,GND3*
X136441100Y-106633600D03*
G04 #@! TO.P,U$2,BLK*
X136441100Y-104093600D03*
G04 #@! TO.P,U$2,TXO*
G04 #@! TO.N,Net-(U$2-PadTXO)*
X138981100Y-102823600D03*
G04 #@! TO.P,U$2,RXI*
G04 #@! TO.N,Net-(U$2-PadRXI)*
X141521100Y-102823600D03*
G04 #@! TO.P,U$2,RST2*
G04 #@! TO.N,N/C*
X144061100Y-102823600D03*
G04 #@! TO.P,U$2,GND2*
X146601100Y-102823600D03*
G04 #@! TO.P,U$2,D2*
G04 #@! TO.N,Net-(IC1-Pad12)*
X149141100Y-102823600D03*
G04 #@! TO.P,U$2,D3*
G04 #@! TO.N,/DB4*
X151681100Y-102823600D03*
G04 #@! TO.P,U$2,D4*
G04 #@! TO.N,/DB5*
X154221100Y-102823600D03*
G04 #@! TO.P,U$2,D5*
G04 #@! TO.N,/DB6*
X156761100Y-102823600D03*
G04 #@! TO.P,U$2,D6*
G04 #@! TO.N,/VO*
X159301100Y-102823600D03*
G04 #@! TO.P,U$2,D7*
G04 #@! TO.N,/CS_VAN*
X161841100Y-102823600D03*
G04 #@! TO.P,U$2,D8*
G04 #@! TO.N,/RS*
X164381100Y-102823600D03*
G04 #@! TO.P,U$2,D9*
G04 #@! TO.N,Net-(R2-PadP$1)*
X166921100Y-102823600D03*
G04 #@! TD*
D13*
G04 #@! TO.N,GND*
G04 #@! TO.C,C15*
G36*
X178703504Y-108878604D02*
X178727773Y-108882204D01*
X178751571Y-108888165D01*
X178774671Y-108896430D01*
X178796849Y-108906920D01*
X178817893Y-108919533D01*
X178837598Y-108934147D01*
X178855777Y-108950623D01*
X178872253Y-108968802D01*
X178886867Y-108988507D01*
X178899480Y-109009551D01*
X178909970Y-109031729D01*
X178918235Y-109054829D01*
X178924196Y-109078627D01*
X178927796Y-109102896D01*
X178929000Y-109127400D01*
X178929000Y-110052400D01*
X178927796Y-110076904D01*
X178924196Y-110101173D01*
X178918235Y-110124971D01*
X178909970Y-110148071D01*
X178899480Y-110170249D01*
X178886867Y-110191293D01*
X178872253Y-110210998D01*
X178855777Y-110229177D01*
X178837598Y-110245653D01*
X178817893Y-110260267D01*
X178796849Y-110272880D01*
X178774671Y-110283370D01*
X178751571Y-110291635D01*
X178727773Y-110297596D01*
X178703504Y-110301196D01*
X178679000Y-110302400D01*
X177429000Y-110302400D01*
X177404496Y-110301196D01*
X177380227Y-110297596D01*
X177356429Y-110291635D01*
X177333329Y-110283370D01*
X177311151Y-110272880D01*
X177290107Y-110260267D01*
X177270402Y-110245653D01*
X177252223Y-110229177D01*
X177235747Y-110210998D01*
X177221133Y-110191293D01*
X177208520Y-110170249D01*
X177198030Y-110148071D01*
X177189765Y-110124971D01*
X177183804Y-110101173D01*
X177180204Y-110076904D01*
X177179000Y-110052400D01*
X177179000Y-109127400D01*
X177180204Y-109102896D01*
X177183804Y-109078627D01*
X177189765Y-109054829D01*
X177198030Y-109031729D01*
X177208520Y-109009551D01*
X177221133Y-108988507D01*
X177235747Y-108968802D01*
X177252223Y-108950623D01*
X177270402Y-108934147D01*
X177290107Y-108919533D01*
X177311151Y-108906920D01*
X177333329Y-108896430D01*
X177356429Y-108888165D01*
X177380227Y-108882204D01*
X177404496Y-108878604D01*
X177429000Y-108877400D01*
X178679000Y-108877400D01*
X178703504Y-108878604D01*
X178703504Y-108878604D01*
G37*
D14*
G04 #@! TD*
G04 #@! TO.P,C15,2*
G04 #@! TO.N,GND*
X178054000Y-109589900D03*
D13*
G04 #@! TO.N,Net-(C14-Pad1)*
G04 #@! TO.C,C15*
G36*
X178703504Y-105903604D02*
X178727773Y-105907204D01*
X178751571Y-105913165D01*
X178774671Y-105921430D01*
X178796849Y-105931920D01*
X178817893Y-105944533D01*
X178837598Y-105959147D01*
X178855777Y-105975623D01*
X178872253Y-105993802D01*
X178886867Y-106013507D01*
X178899480Y-106034551D01*
X178909970Y-106056729D01*
X178918235Y-106079829D01*
X178924196Y-106103627D01*
X178927796Y-106127896D01*
X178929000Y-106152400D01*
X178929000Y-107077400D01*
X178927796Y-107101904D01*
X178924196Y-107126173D01*
X178918235Y-107149971D01*
X178909970Y-107173071D01*
X178899480Y-107195249D01*
X178886867Y-107216293D01*
X178872253Y-107235998D01*
X178855777Y-107254177D01*
X178837598Y-107270653D01*
X178817893Y-107285267D01*
X178796849Y-107297880D01*
X178774671Y-107308370D01*
X178751571Y-107316635D01*
X178727773Y-107322596D01*
X178703504Y-107326196D01*
X178679000Y-107327400D01*
X177429000Y-107327400D01*
X177404496Y-107326196D01*
X177380227Y-107322596D01*
X177356429Y-107316635D01*
X177333329Y-107308370D01*
X177311151Y-107297880D01*
X177290107Y-107285267D01*
X177270402Y-107270653D01*
X177252223Y-107254177D01*
X177235747Y-107235998D01*
X177221133Y-107216293D01*
X177208520Y-107195249D01*
X177198030Y-107173071D01*
X177189765Y-107149971D01*
X177183804Y-107126173D01*
X177180204Y-107101904D01*
X177179000Y-107077400D01*
X177179000Y-106152400D01*
X177180204Y-106127896D01*
X177183804Y-106103627D01*
X177189765Y-106079829D01*
X177198030Y-106056729D01*
X177208520Y-106034551D01*
X177221133Y-106013507D01*
X177235747Y-105993802D01*
X177252223Y-105975623D01*
X177270402Y-105959147D01*
X177290107Y-105944533D01*
X177311151Y-105931920D01*
X177333329Y-105921430D01*
X177356429Y-105913165D01*
X177380227Y-105907204D01*
X177404496Y-105903604D01*
X177429000Y-105902400D01*
X178679000Y-105902400D01*
X178703504Y-105903604D01*
X178703504Y-105903604D01*
G37*
D14*
G04 #@! TD*
G04 #@! TO.P,C15,1*
G04 #@! TO.N,Net-(C14-Pad1)*
X178054000Y-106614900D03*
D15*
G04 #@! TO.P,J2,6*
G04 #@! TO.N,/+12V*
X190500000Y-119815000D03*
G04 #@! TO.P,J2,5*
G04 #@! TO.N,GND*
X190500000Y-117315000D03*
G04 #@! TO.P,J2,4*
G04 #@! TO.N,/CANH*
X190500000Y-114815000D03*
G04 #@! TO.P,J2,3*
G04 #@! TO.N,/CANL*
X190500000Y-112315000D03*
G04 #@! TO.P,J2,2*
G04 #@! TO.N,/DATA*
X190500000Y-109815000D03*
D16*
G04 #@! TO.P,J2,1*
G04 #@! TO.N,/DATAB*
X190500000Y-107315000D03*
G04 #@! TD*
D17*
G04 #@! TO.P,C14,1*
G04 #@! TO.N,Net-(C14-Pad1)*
X177495200Y-117449600D03*
D18*
G04 #@! TO.P,C14,2*
G04 #@! TO.N,GND*
X174995200Y-117449600D03*
G04 #@! TD*
D13*
G04 #@! TO.N,Net-(C13-Pad1)*
G04 #@! TO.C,C13*
G36*
X194705504Y-94524404D02*
X194729773Y-94528004D01*
X194753571Y-94533965D01*
X194776671Y-94542230D01*
X194798849Y-94552720D01*
X194819893Y-94565333D01*
X194839598Y-94579947D01*
X194857777Y-94596423D01*
X194874253Y-94614602D01*
X194888867Y-94634307D01*
X194901480Y-94655351D01*
X194911970Y-94677529D01*
X194920235Y-94700629D01*
X194926196Y-94724427D01*
X194929796Y-94748696D01*
X194931000Y-94773200D01*
X194931000Y-95698200D01*
X194929796Y-95722704D01*
X194926196Y-95746973D01*
X194920235Y-95770771D01*
X194911970Y-95793871D01*
X194901480Y-95816049D01*
X194888867Y-95837093D01*
X194874253Y-95856798D01*
X194857777Y-95874977D01*
X194839598Y-95891453D01*
X194819893Y-95906067D01*
X194798849Y-95918680D01*
X194776671Y-95929170D01*
X194753571Y-95937435D01*
X194729773Y-95943396D01*
X194705504Y-95946996D01*
X194681000Y-95948200D01*
X193431000Y-95948200D01*
X193406496Y-95946996D01*
X193382227Y-95943396D01*
X193358429Y-95937435D01*
X193335329Y-95929170D01*
X193313151Y-95918680D01*
X193292107Y-95906067D01*
X193272402Y-95891453D01*
X193254223Y-95874977D01*
X193237747Y-95856798D01*
X193223133Y-95837093D01*
X193210520Y-95816049D01*
X193200030Y-95793871D01*
X193191765Y-95770771D01*
X193185804Y-95746973D01*
X193182204Y-95722704D01*
X193181000Y-95698200D01*
X193181000Y-94773200D01*
X193182204Y-94748696D01*
X193185804Y-94724427D01*
X193191765Y-94700629D01*
X193200030Y-94677529D01*
X193210520Y-94655351D01*
X193223133Y-94634307D01*
X193237747Y-94614602D01*
X193254223Y-94596423D01*
X193272402Y-94579947D01*
X193292107Y-94565333D01*
X193313151Y-94552720D01*
X193335329Y-94542230D01*
X193358429Y-94533965D01*
X193382227Y-94528004D01*
X193406496Y-94524404D01*
X193431000Y-94523200D01*
X194681000Y-94523200D01*
X194705504Y-94524404D01*
X194705504Y-94524404D01*
G37*
D14*
G04 #@! TD*
G04 #@! TO.P,C13,1*
G04 #@! TO.N,Net-(C13-Pad1)*
X194056000Y-95235700D03*
D13*
G04 #@! TO.N,GND*
G04 #@! TO.C,C13*
G36*
X194705504Y-97499404D02*
X194729773Y-97503004D01*
X194753571Y-97508965D01*
X194776671Y-97517230D01*
X194798849Y-97527720D01*
X194819893Y-97540333D01*
X194839598Y-97554947D01*
X194857777Y-97571423D01*
X194874253Y-97589602D01*
X194888867Y-97609307D01*
X194901480Y-97630351D01*
X194911970Y-97652529D01*
X194920235Y-97675629D01*
X194926196Y-97699427D01*
X194929796Y-97723696D01*
X194931000Y-97748200D01*
X194931000Y-98673200D01*
X194929796Y-98697704D01*
X194926196Y-98721973D01*
X194920235Y-98745771D01*
X194911970Y-98768871D01*
X194901480Y-98791049D01*
X194888867Y-98812093D01*
X194874253Y-98831798D01*
X194857777Y-98849977D01*
X194839598Y-98866453D01*
X194819893Y-98881067D01*
X194798849Y-98893680D01*
X194776671Y-98904170D01*
X194753571Y-98912435D01*
X194729773Y-98918396D01*
X194705504Y-98921996D01*
X194681000Y-98923200D01*
X193431000Y-98923200D01*
X193406496Y-98921996D01*
X193382227Y-98918396D01*
X193358429Y-98912435D01*
X193335329Y-98904170D01*
X193313151Y-98893680D01*
X193292107Y-98881067D01*
X193272402Y-98866453D01*
X193254223Y-98849977D01*
X193237747Y-98831798D01*
X193223133Y-98812093D01*
X193210520Y-98791049D01*
X193200030Y-98768871D01*
X193191765Y-98745771D01*
X193185804Y-98721973D01*
X193182204Y-98697704D01*
X193181000Y-98673200D01*
X193181000Y-97748200D01*
X193182204Y-97723696D01*
X193185804Y-97699427D01*
X193191765Y-97675629D01*
X193200030Y-97652529D01*
X193210520Y-97630351D01*
X193223133Y-97609307D01*
X193237747Y-97589602D01*
X193254223Y-97571423D01*
X193272402Y-97554947D01*
X193292107Y-97540333D01*
X193313151Y-97527720D01*
X193335329Y-97517230D01*
X193358429Y-97508965D01*
X193382227Y-97503004D01*
X193406496Y-97499404D01*
X193431000Y-97498200D01*
X194681000Y-97498200D01*
X194705504Y-97499404D01*
X194705504Y-97499404D01*
G37*
D14*
G04 #@! TD*
G04 #@! TO.P,C13,2*
G04 #@! TO.N,GND*
X194056000Y-98210700D03*
D13*
G04 #@! TO.N,Net-(C11-Pad2)*
G04 #@! TO.C,C11*
G36*
X173826704Y-105903604D02*
X173850973Y-105907204D01*
X173874771Y-105913165D01*
X173897871Y-105921430D01*
X173920049Y-105931920D01*
X173941093Y-105944533D01*
X173960798Y-105959147D01*
X173978977Y-105975623D01*
X173995453Y-105993802D01*
X174010067Y-106013507D01*
X174022680Y-106034551D01*
X174033170Y-106056729D01*
X174041435Y-106079829D01*
X174047396Y-106103627D01*
X174050996Y-106127896D01*
X174052200Y-106152400D01*
X174052200Y-107077400D01*
X174050996Y-107101904D01*
X174047396Y-107126173D01*
X174041435Y-107149971D01*
X174033170Y-107173071D01*
X174022680Y-107195249D01*
X174010067Y-107216293D01*
X173995453Y-107235998D01*
X173978977Y-107254177D01*
X173960798Y-107270653D01*
X173941093Y-107285267D01*
X173920049Y-107297880D01*
X173897871Y-107308370D01*
X173874771Y-107316635D01*
X173850973Y-107322596D01*
X173826704Y-107326196D01*
X173802200Y-107327400D01*
X172552200Y-107327400D01*
X172527696Y-107326196D01*
X172503427Y-107322596D01*
X172479629Y-107316635D01*
X172456529Y-107308370D01*
X172434351Y-107297880D01*
X172413307Y-107285267D01*
X172393602Y-107270653D01*
X172375423Y-107254177D01*
X172358947Y-107235998D01*
X172344333Y-107216293D01*
X172331720Y-107195249D01*
X172321230Y-107173071D01*
X172312965Y-107149971D01*
X172307004Y-107126173D01*
X172303404Y-107101904D01*
X172302200Y-107077400D01*
X172302200Y-106152400D01*
X172303404Y-106127896D01*
X172307004Y-106103627D01*
X172312965Y-106079829D01*
X172321230Y-106056729D01*
X172331720Y-106034551D01*
X172344333Y-106013507D01*
X172358947Y-105993802D01*
X172375423Y-105975623D01*
X172393602Y-105959147D01*
X172413307Y-105944533D01*
X172434351Y-105931920D01*
X172456529Y-105921430D01*
X172479629Y-105913165D01*
X172503427Y-105907204D01*
X172527696Y-105903604D01*
X172552200Y-105902400D01*
X173802200Y-105902400D01*
X173826704Y-105903604D01*
X173826704Y-105903604D01*
G37*
D14*
G04 #@! TD*
G04 #@! TO.P,C11,2*
G04 #@! TO.N,Net-(C11-Pad2)*
X173177200Y-106614900D03*
D13*
G04 #@! TO.N,GND*
G04 #@! TO.C,C11*
G36*
X173826704Y-108878604D02*
X173850973Y-108882204D01*
X173874771Y-108888165D01*
X173897871Y-108896430D01*
X173920049Y-108906920D01*
X173941093Y-108919533D01*
X173960798Y-108934147D01*
X173978977Y-108950623D01*
X173995453Y-108968802D01*
X174010067Y-108988507D01*
X174022680Y-109009551D01*
X174033170Y-109031729D01*
X174041435Y-109054829D01*
X174047396Y-109078627D01*
X174050996Y-109102896D01*
X174052200Y-109127400D01*
X174052200Y-110052400D01*
X174050996Y-110076904D01*
X174047396Y-110101173D01*
X174041435Y-110124971D01*
X174033170Y-110148071D01*
X174022680Y-110170249D01*
X174010067Y-110191293D01*
X173995453Y-110210998D01*
X173978977Y-110229177D01*
X173960798Y-110245653D01*
X173941093Y-110260267D01*
X173920049Y-110272880D01*
X173897871Y-110283370D01*
X173874771Y-110291635D01*
X173850973Y-110297596D01*
X173826704Y-110301196D01*
X173802200Y-110302400D01*
X172552200Y-110302400D01*
X172527696Y-110301196D01*
X172503427Y-110297596D01*
X172479629Y-110291635D01*
X172456529Y-110283370D01*
X172434351Y-110272880D01*
X172413307Y-110260267D01*
X172393602Y-110245653D01*
X172375423Y-110229177D01*
X172358947Y-110210998D01*
X172344333Y-110191293D01*
X172331720Y-110170249D01*
X172321230Y-110148071D01*
X172312965Y-110124971D01*
X172307004Y-110101173D01*
X172303404Y-110076904D01*
X172302200Y-110052400D01*
X172302200Y-109127400D01*
X172303404Y-109102896D01*
X172307004Y-109078627D01*
X172312965Y-109054829D01*
X172321230Y-109031729D01*
X172331720Y-109009551D01*
X172344333Y-108988507D01*
X172358947Y-108968802D01*
X172375423Y-108950623D01*
X172393602Y-108934147D01*
X172413307Y-108919533D01*
X172434351Y-108906920D01*
X172456529Y-108896430D01*
X172479629Y-108888165D01*
X172503427Y-108882204D01*
X172527696Y-108878604D01*
X172552200Y-108877400D01*
X173802200Y-108877400D01*
X173826704Y-108878604D01*
X173826704Y-108878604D01*
G37*
D14*
G04 #@! TD*
G04 #@! TO.P,C11,1*
G04 #@! TO.N,GND*
X173177200Y-109589900D03*
D13*
G04 #@! TO.N,GND*
G04 #@! TO.C,C12*
G36*
X186124504Y-100726204D02*
X186148773Y-100729804D01*
X186172571Y-100735765D01*
X186195671Y-100744030D01*
X186217849Y-100754520D01*
X186238893Y-100767133D01*
X186258598Y-100781747D01*
X186276777Y-100798223D01*
X186293253Y-100816402D01*
X186307867Y-100836107D01*
X186320480Y-100857151D01*
X186330970Y-100879329D01*
X186339235Y-100902429D01*
X186345196Y-100926227D01*
X186348796Y-100950496D01*
X186350000Y-100975000D01*
X186350000Y-102225000D01*
X186348796Y-102249504D01*
X186345196Y-102273773D01*
X186339235Y-102297571D01*
X186330970Y-102320671D01*
X186320480Y-102342849D01*
X186307867Y-102363893D01*
X186293253Y-102383598D01*
X186276777Y-102401777D01*
X186258598Y-102418253D01*
X186238893Y-102432867D01*
X186217849Y-102445480D01*
X186195671Y-102455970D01*
X186172571Y-102464235D01*
X186148773Y-102470196D01*
X186124504Y-102473796D01*
X186100000Y-102475000D01*
X185175000Y-102475000D01*
X185150496Y-102473796D01*
X185126227Y-102470196D01*
X185102429Y-102464235D01*
X185079329Y-102455970D01*
X185057151Y-102445480D01*
X185036107Y-102432867D01*
X185016402Y-102418253D01*
X184998223Y-102401777D01*
X184981747Y-102383598D01*
X184967133Y-102363893D01*
X184954520Y-102342849D01*
X184944030Y-102320671D01*
X184935765Y-102297571D01*
X184929804Y-102273773D01*
X184926204Y-102249504D01*
X184925000Y-102225000D01*
X184925000Y-100975000D01*
X184926204Y-100950496D01*
X184929804Y-100926227D01*
X184935765Y-100902429D01*
X184944030Y-100879329D01*
X184954520Y-100857151D01*
X184967133Y-100836107D01*
X184981747Y-100816402D01*
X184998223Y-100798223D01*
X185016402Y-100781747D01*
X185036107Y-100767133D01*
X185057151Y-100754520D01*
X185079329Y-100744030D01*
X185102429Y-100735765D01*
X185126227Y-100729804D01*
X185150496Y-100726204D01*
X185175000Y-100725000D01*
X186100000Y-100725000D01*
X186124504Y-100726204D01*
X186124504Y-100726204D01*
G37*
D14*
G04 #@! TD*
G04 #@! TO.P,C12,1*
G04 #@! TO.N,GND*
X185637500Y-101600000D03*
D13*
G04 #@! TO.N,Net-(C12-Pad2)*
G04 #@! TO.C,C12*
G36*
X183149504Y-100726204D02*
X183173773Y-100729804D01*
X183197571Y-100735765D01*
X183220671Y-100744030D01*
X183242849Y-100754520D01*
X183263893Y-100767133D01*
X183283598Y-100781747D01*
X183301777Y-100798223D01*
X183318253Y-100816402D01*
X183332867Y-100836107D01*
X183345480Y-100857151D01*
X183355970Y-100879329D01*
X183364235Y-100902429D01*
X183370196Y-100926227D01*
X183373796Y-100950496D01*
X183375000Y-100975000D01*
X183375000Y-102225000D01*
X183373796Y-102249504D01*
X183370196Y-102273773D01*
X183364235Y-102297571D01*
X183355970Y-102320671D01*
X183345480Y-102342849D01*
X183332867Y-102363893D01*
X183318253Y-102383598D01*
X183301777Y-102401777D01*
X183283598Y-102418253D01*
X183263893Y-102432867D01*
X183242849Y-102445480D01*
X183220671Y-102455970D01*
X183197571Y-102464235D01*
X183173773Y-102470196D01*
X183149504Y-102473796D01*
X183125000Y-102475000D01*
X182200000Y-102475000D01*
X182175496Y-102473796D01*
X182151227Y-102470196D01*
X182127429Y-102464235D01*
X182104329Y-102455970D01*
X182082151Y-102445480D01*
X182061107Y-102432867D01*
X182041402Y-102418253D01*
X182023223Y-102401777D01*
X182006747Y-102383598D01*
X181992133Y-102363893D01*
X181979520Y-102342849D01*
X181969030Y-102320671D01*
X181960765Y-102297571D01*
X181954804Y-102273773D01*
X181951204Y-102249504D01*
X181950000Y-102225000D01*
X181950000Y-100975000D01*
X181951204Y-100950496D01*
X181954804Y-100926227D01*
X181960765Y-100902429D01*
X181969030Y-100879329D01*
X181979520Y-100857151D01*
X181992133Y-100836107D01*
X182006747Y-100816402D01*
X182023223Y-100798223D01*
X182041402Y-100781747D01*
X182061107Y-100767133D01*
X182082151Y-100754520D01*
X182104329Y-100744030D01*
X182127429Y-100735765D01*
X182151227Y-100729804D01*
X182175496Y-100726204D01*
X182200000Y-100725000D01*
X183125000Y-100725000D01*
X183149504Y-100726204D01*
X183149504Y-100726204D01*
G37*
D14*
G04 #@! TD*
G04 #@! TO.P,C12,2*
G04 #@! TO.N,Net-(C12-Pad2)*
X182662500Y-101600000D03*
D13*
G04 #@! TO.N,Net-(C9-Pad2)*
G04 #@! TO.C,C9*
G36*
X191582304Y-100015004D02*
X191606573Y-100018604D01*
X191630371Y-100024565D01*
X191653471Y-100032830D01*
X191675649Y-100043320D01*
X191696693Y-100055933D01*
X191716398Y-100070547D01*
X191734577Y-100087023D01*
X191751053Y-100105202D01*
X191765667Y-100124907D01*
X191778280Y-100145951D01*
X191788770Y-100168129D01*
X191797035Y-100191229D01*
X191802996Y-100215027D01*
X191806596Y-100239296D01*
X191807800Y-100263800D01*
X191807800Y-101513800D01*
X191806596Y-101538304D01*
X191802996Y-101562573D01*
X191797035Y-101586371D01*
X191788770Y-101609471D01*
X191778280Y-101631649D01*
X191765667Y-101652693D01*
X191751053Y-101672398D01*
X191734577Y-101690577D01*
X191716398Y-101707053D01*
X191696693Y-101721667D01*
X191675649Y-101734280D01*
X191653471Y-101744770D01*
X191630371Y-101753035D01*
X191606573Y-101758996D01*
X191582304Y-101762596D01*
X191557800Y-101763800D01*
X190632800Y-101763800D01*
X190608296Y-101762596D01*
X190584027Y-101758996D01*
X190560229Y-101753035D01*
X190537129Y-101744770D01*
X190514951Y-101734280D01*
X190493907Y-101721667D01*
X190474202Y-101707053D01*
X190456023Y-101690577D01*
X190439547Y-101672398D01*
X190424933Y-101652693D01*
X190412320Y-101631649D01*
X190401830Y-101609471D01*
X190393565Y-101586371D01*
X190387604Y-101562573D01*
X190384004Y-101538304D01*
X190382800Y-101513800D01*
X190382800Y-100263800D01*
X190384004Y-100239296D01*
X190387604Y-100215027D01*
X190393565Y-100191229D01*
X190401830Y-100168129D01*
X190412320Y-100145951D01*
X190424933Y-100124907D01*
X190439547Y-100105202D01*
X190456023Y-100087023D01*
X190474202Y-100070547D01*
X190493907Y-100055933D01*
X190514951Y-100043320D01*
X190537129Y-100032830D01*
X190560229Y-100024565D01*
X190584027Y-100018604D01*
X190608296Y-100015004D01*
X190632800Y-100013800D01*
X191557800Y-100013800D01*
X191582304Y-100015004D01*
X191582304Y-100015004D01*
G37*
D14*
G04 #@! TD*
G04 #@! TO.P,C9,2*
G04 #@! TO.N,Net-(C9-Pad2)*
X191095300Y-100888800D03*
D13*
G04 #@! TO.N,GND*
G04 #@! TO.C,C9*
G36*
X194557304Y-100015004D02*
X194581573Y-100018604D01*
X194605371Y-100024565D01*
X194628471Y-100032830D01*
X194650649Y-100043320D01*
X194671693Y-100055933D01*
X194691398Y-100070547D01*
X194709577Y-100087023D01*
X194726053Y-100105202D01*
X194740667Y-100124907D01*
X194753280Y-100145951D01*
X194763770Y-100168129D01*
X194772035Y-100191229D01*
X194777996Y-100215027D01*
X194781596Y-100239296D01*
X194782800Y-100263800D01*
X194782800Y-101513800D01*
X194781596Y-101538304D01*
X194777996Y-101562573D01*
X194772035Y-101586371D01*
X194763770Y-101609471D01*
X194753280Y-101631649D01*
X194740667Y-101652693D01*
X194726053Y-101672398D01*
X194709577Y-101690577D01*
X194691398Y-101707053D01*
X194671693Y-101721667D01*
X194650649Y-101734280D01*
X194628471Y-101744770D01*
X194605371Y-101753035D01*
X194581573Y-101758996D01*
X194557304Y-101762596D01*
X194532800Y-101763800D01*
X193607800Y-101763800D01*
X193583296Y-101762596D01*
X193559027Y-101758996D01*
X193535229Y-101753035D01*
X193512129Y-101744770D01*
X193489951Y-101734280D01*
X193468907Y-101721667D01*
X193449202Y-101707053D01*
X193431023Y-101690577D01*
X193414547Y-101672398D01*
X193399933Y-101652693D01*
X193387320Y-101631649D01*
X193376830Y-101609471D01*
X193368565Y-101586371D01*
X193362604Y-101562573D01*
X193359004Y-101538304D01*
X193357800Y-101513800D01*
X193357800Y-100263800D01*
X193359004Y-100239296D01*
X193362604Y-100215027D01*
X193368565Y-100191229D01*
X193376830Y-100168129D01*
X193387320Y-100145951D01*
X193399933Y-100124907D01*
X193414547Y-100105202D01*
X193431023Y-100087023D01*
X193449202Y-100070547D01*
X193468907Y-100055933D01*
X193489951Y-100043320D01*
X193512129Y-100032830D01*
X193535229Y-100024565D01*
X193559027Y-100018604D01*
X193583296Y-100015004D01*
X193607800Y-100013800D01*
X194532800Y-100013800D01*
X194557304Y-100015004D01*
X194557304Y-100015004D01*
G37*
D14*
G04 #@! TD*
G04 #@! TO.P,C9,1*
G04 #@! TO.N,GND*
X194070300Y-100888800D03*
D13*
G04 #@! TO.N,Net-(C10-Pad2)*
G04 #@! TO.C,C10*
G36*
X191962304Y-88834804D02*
X191986573Y-88838404D01*
X192010371Y-88844365D01*
X192033471Y-88852630D01*
X192055649Y-88863120D01*
X192076693Y-88875733D01*
X192096398Y-88890347D01*
X192114577Y-88906823D01*
X192131053Y-88925002D01*
X192145667Y-88944707D01*
X192158280Y-88965751D01*
X192168770Y-88987929D01*
X192177035Y-89011029D01*
X192182996Y-89034827D01*
X192186596Y-89059096D01*
X192187800Y-89083600D01*
X192187800Y-90008600D01*
X192186596Y-90033104D01*
X192182996Y-90057373D01*
X192177035Y-90081171D01*
X192168770Y-90104271D01*
X192158280Y-90126449D01*
X192145667Y-90147493D01*
X192131053Y-90167198D01*
X192114577Y-90185377D01*
X192096398Y-90201853D01*
X192076693Y-90216467D01*
X192055649Y-90229080D01*
X192033471Y-90239570D01*
X192010371Y-90247835D01*
X191986573Y-90253796D01*
X191962304Y-90257396D01*
X191937800Y-90258600D01*
X190687800Y-90258600D01*
X190663296Y-90257396D01*
X190639027Y-90253796D01*
X190615229Y-90247835D01*
X190592129Y-90239570D01*
X190569951Y-90229080D01*
X190548907Y-90216467D01*
X190529202Y-90201853D01*
X190511023Y-90185377D01*
X190494547Y-90167198D01*
X190479933Y-90147493D01*
X190467320Y-90126449D01*
X190456830Y-90104271D01*
X190448565Y-90081171D01*
X190442604Y-90057373D01*
X190439004Y-90033104D01*
X190437800Y-90008600D01*
X190437800Y-89083600D01*
X190439004Y-89059096D01*
X190442604Y-89034827D01*
X190448565Y-89011029D01*
X190456830Y-88987929D01*
X190467320Y-88965751D01*
X190479933Y-88944707D01*
X190494547Y-88925002D01*
X190511023Y-88906823D01*
X190529202Y-88890347D01*
X190548907Y-88875733D01*
X190569951Y-88863120D01*
X190592129Y-88852630D01*
X190615229Y-88844365D01*
X190639027Y-88838404D01*
X190663296Y-88834804D01*
X190687800Y-88833600D01*
X191937800Y-88833600D01*
X191962304Y-88834804D01*
X191962304Y-88834804D01*
G37*
D14*
G04 #@! TD*
G04 #@! TO.P,C10,2*
G04 #@! TO.N,Net-(C10-Pad2)*
X191312800Y-89546100D03*
D13*
G04 #@! TO.N,GND*
G04 #@! TO.C,C10*
G36*
X191962304Y-91809804D02*
X191986573Y-91813404D01*
X192010371Y-91819365D01*
X192033471Y-91827630D01*
X192055649Y-91838120D01*
X192076693Y-91850733D01*
X192096398Y-91865347D01*
X192114577Y-91881823D01*
X192131053Y-91900002D01*
X192145667Y-91919707D01*
X192158280Y-91940751D01*
X192168770Y-91962929D01*
X192177035Y-91986029D01*
X192182996Y-92009827D01*
X192186596Y-92034096D01*
X192187800Y-92058600D01*
X192187800Y-92983600D01*
X192186596Y-93008104D01*
X192182996Y-93032373D01*
X192177035Y-93056171D01*
X192168770Y-93079271D01*
X192158280Y-93101449D01*
X192145667Y-93122493D01*
X192131053Y-93142198D01*
X192114577Y-93160377D01*
X192096398Y-93176853D01*
X192076693Y-93191467D01*
X192055649Y-93204080D01*
X192033471Y-93214570D01*
X192010371Y-93222835D01*
X191986573Y-93228796D01*
X191962304Y-93232396D01*
X191937800Y-93233600D01*
X190687800Y-93233600D01*
X190663296Y-93232396D01*
X190639027Y-93228796D01*
X190615229Y-93222835D01*
X190592129Y-93214570D01*
X190569951Y-93204080D01*
X190548907Y-93191467D01*
X190529202Y-93176853D01*
X190511023Y-93160377D01*
X190494547Y-93142198D01*
X190479933Y-93122493D01*
X190467320Y-93101449D01*
X190456830Y-93079271D01*
X190448565Y-93056171D01*
X190442604Y-93032373D01*
X190439004Y-93008104D01*
X190437800Y-92983600D01*
X190437800Y-92058600D01*
X190439004Y-92034096D01*
X190442604Y-92009827D01*
X190448565Y-91986029D01*
X190456830Y-91962929D01*
X190467320Y-91940751D01*
X190479933Y-91919707D01*
X190494547Y-91900002D01*
X190511023Y-91881823D01*
X190529202Y-91865347D01*
X190548907Y-91850733D01*
X190569951Y-91838120D01*
X190592129Y-91827630D01*
X190615229Y-91819365D01*
X190639027Y-91813404D01*
X190663296Y-91809804D01*
X190687800Y-91808600D01*
X191937800Y-91808600D01*
X191962304Y-91809804D01*
X191962304Y-91809804D01*
G37*
D14*
G04 #@! TD*
G04 #@! TO.P,C10,1*
G04 #@! TO.N,GND*
X191312800Y-92521100D03*
D19*
G04 #@! TO.P,Q1,2*
G04 #@! TO.N,Net-(C2-Pad1)*
X128821100Y-97743600D03*
G04 #@! TO.P,Q1,1*
G04 #@! TO.N,Net-(C3-Pad1)*
X128821100Y-102823600D03*
G04 #@! TD*
D20*
G04 #@! TO.P,IC1,9*
G04 #@! TO.N,GND*
X113123900Y-95203600D03*
G04 #@! TO.P,IC1,10*
G04 #@! TO.N,Net-(IC1-Pad10)*
X122928300Y-95203600D03*
G04 #@! TO.P,IC1,18*
G04 #@! TO.N,VCC*
X122928300Y-105363600D03*
G04 #@! TO.P,IC1,17*
G04 #@! TO.N,Net-(IC1-Pad17)*
X122928300Y-104093600D03*
G04 #@! TO.P,IC1,16*
G04 #@! TO.N,Net-(IC1-Pad16)*
X122928300Y-102823600D03*
G04 #@! TO.P,IC1,15*
G04 #@! TO.N,/MISO*
X122928300Y-101553600D03*
G04 #@! TO.P,IC1,14*
G04 #@! TO.N,/MOSI*
X122928300Y-100283600D03*
G04 #@! TO.P,IC1,13*
G04 #@! TO.N,/SCLK*
X122928300Y-99013600D03*
G04 #@! TO.P,IC1,12*
G04 #@! TO.N,Net-(IC1-Pad12)*
X122928300Y-97743600D03*
G04 #@! TO.P,IC1,11*
G04 #@! TO.N,Net-(IC1-Pad11)*
X122928300Y-96473600D03*
G04 #@! TO.P,IC1,8*
G04 #@! TO.N,Net-(C2-Pad1)*
X113123900Y-96473600D03*
G04 #@! TO.P,IC1,7*
G04 #@! TO.N,Net-(C3-Pad1)*
X113123900Y-97743600D03*
G04 #@! TO.P,IC1,6*
G04 #@! TO.N,Net-(IC1-Pad6)*
X113123900Y-99013600D03*
G04 #@! TO.P,IC1,5*
G04 #@! TO.N,Net-(IC1-Pad5)*
X113123900Y-100283600D03*
G04 #@! TO.P,IC1,4*
G04 #@! TO.N,Net-(IC1-Pad4)*
X113123900Y-101553600D03*
G04 #@! TO.P,IC1,3*
G04 #@! TO.N,Net-(IC1-Pad3)*
X113123900Y-102823600D03*
G04 #@! TO.P,IC1,2*
G04 #@! TO.N,Net-(IC1-Pad2)*
X113123900Y-104093600D03*
G04 #@! TO.P,IC1,1*
G04 #@! TO.N,Net-(IC1-Pad1)*
X113123900Y-105363600D03*
G04 #@! TD*
D21*
G04 #@! TO.P,LCD1,1*
G04 #@! TO.N,GND*
X116121100Y-90123600D03*
G04 #@! TO.P,LCD1,2*
G04 #@! TO.N,VCC*
X118661100Y-90123600D03*
G04 #@! TO.P,LCD1,3*
G04 #@! TO.N,/VO*
X121201100Y-90123600D03*
G04 #@! TO.P,LCD1,4*
G04 #@! TO.N,/RS*
X123741100Y-90123600D03*
G04 #@! TO.P,LCD1,5*
G04 #@! TO.N,GND*
X126281100Y-90123600D03*
G04 #@! TO.P,LCD1,6*
G04 #@! TO.N,/E*
X128821100Y-90123600D03*
G04 #@! TO.P,LCD1,7*
G04 #@! TO.N,Net-(LCD1-Pad7)*
X131361100Y-90123600D03*
G04 #@! TO.P,LCD1,8*
G04 #@! TO.N,Net-(LCD1-Pad8)*
X133901100Y-90123600D03*
G04 #@! TO.P,LCD1,9*
G04 #@! TO.N,Net-(LCD1-Pad9)*
X136441100Y-90123600D03*
G04 #@! TO.P,LCD1,10*
G04 #@! TO.N,Net-(LCD1-Pad10)*
X138981100Y-90123600D03*
G04 #@! TO.P,LCD1,11*
G04 #@! TO.N,/DB4*
X141521100Y-90123600D03*
G04 #@! TO.P,LCD1,12*
G04 #@! TO.N,/DB5*
X144061100Y-90123600D03*
G04 #@! TO.P,LCD1,13*
G04 #@! TO.N,/DB6*
X146601100Y-90123600D03*
G04 #@! TO.P,LCD1,14*
G04 #@! TO.N,/CS_VAN*
X149141100Y-90123600D03*
G04 #@! TO.P,LCD1,15*
G04 #@! TO.N,/LED+*
X151681100Y-90123600D03*
G04 #@! TO.P,LCD1,16*
G04 #@! TO.N,GND*
X154221100Y-90123600D03*
G04 #@! TD*
D11*
G04 #@! TO.P,R2,P$2*
G04 #@! TO.N,Net-(Q2-Pad2)*
X130091100Y-116793600D03*
G04 #@! TO.P,R2,P$1*
G04 #@! TO.N,Net-(R2-PadP$1)*
X122471100Y-116793600D03*
G04 #@! TD*
D22*
G04 #@! TO.P,Q2,3*
G04 #@! TO.N,VCC*
X127551100Y-110443600D03*
G04 #@! TO.P,Q2,2*
G04 #@! TO.N,Net-(Q2-Pad2)*
X126281100Y-108538600D03*
G04 #@! TO.P,Q2,1*
G04 #@! TO.N,/LED+*
X125011100Y-110443600D03*
G04 #@! TD*
D23*
G04 #@! TO.P,U1,8*
G04 #@! TO.N,GND*
X120007300Y-112983600D03*
G04 #@! TO.P,U1,7*
G04 #@! TO.N,/CANH*
X120007300Y-111713600D03*
G04 #@! TO.P,U1,6*
G04 #@! TO.N,/CANL*
X120007300Y-110443600D03*
G04 #@! TO.P,U1,5*
G04 #@! TO.N,Net-(U1-Pad5)*
X120007300Y-109173600D03*
G04 #@! TO.P,U1,4*
G04 #@! TO.N,Net-(IC1-Pad2)*
X114774900Y-109173600D03*
G04 #@! TO.P,U1,3*
G04 #@! TO.N,VCC*
X114774900Y-110443600D03*
G04 #@! TO.P,U1,2*
G04 #@! TO.N,GND*
X114774900Y-111713600D03*
G04 #@! TO.P,U1,1*
G04 #@! TO.N,Net-(IC1-Pad1)*
X114774900Y-112983600D03*
G04 #@! TD*
D13*
G04 #@! TO.N,Net-(C9-Pad2)*
G04 #@! TO.C,R6*
G36*
X189066704Y-97166004D02*
X189090973Y-97169604D01*
X189114771Y-97175565D01*
X189137871Y-97183830D01*
X189160049Y-97194320D01*
X189181093Y-97206933D01*
X189200798Y-97221547D01*
X189218977Y-97238023D01*
X189235453Y-97256202D01*
X189250067Y-97275907D01*
X189262680Y-97296951D01*
X189273170Y-97319129D01*
X189281435Y-97342229D01*
X189287396Y-97366027D01*
X189290996Y-97390296D01*
X189292200Y-97414800D01*
X189292200Y-98339800D01*
X189290996Y-98364304D01*
X189287396Y-98388573D01*
X189281435Y-98412371D01*
X189273170Y-98435471D01*
X189262680Y-98457649D01*
X189250067Y-98478693D01*
X189235453Y-98498398D01*
X189218977Y-98516577D01*
X189200798Y-98533053D01*
X189181093Y-98547667D01*
X189160049Y-98560280D01*
X189137871Y-98570770D01*
X189114771Y-98579035D01*
X189090973Y-98584996D01*
X189066704Y-98588596D01*
X189042200Y-98589800D01*
X187792200Y-98589800D01*
X187767696Y-98588596D01*
X187743427Y-98584996D01*
X187719629Y-98579035D01*
X187696529Y-98570770D01*
X187674351Y-98560280D01*
X187653307Y-98547667D01*
X187633602Y-98533053D01*
X187615423Y-98516577D01*
X187598947Y-98498398D01*
X187584333Y-98478693D01*
X187571720Y-98457649D01*
X187561230Y-98435471D01*
X187552965Y-98412371D01*
X187547004Y-98388573D01*
X187543404Y-98364304D01*
X187542200Y-98339800D01*
X187542200Y-97414800D01*
X187543404Y-97390296D01*
X187547004Y-97366027D01*
X187552965Y-97342229D01*
X187561230Y-97319129D01*
X187571720Y-97296951D01*
X187584333Y-97275907D01*
X187598947Y-97256202D01*
X187615423Y-97238023D01*
X187633602Y-97221547D01*
X187653307Y-97206933D01*
X187674351Y-97194320D01*
X187696529Y-97183830D01*
X187719629Y-97175565D01*
X187743427Y-97169604D01*
X187767696Y-97166004D01*
X187792200Y-97164800D01*
X189042200Y-97164800D01*
X189066704Y-97166004D01*
X189066704Y-97166004D01*
G37*
D14*
G04 #@! TD*
G04 #@! TO.P,R6,2*
G04 #@! TO.N,Net-(C9-Pad2)*
X188417200Y-97877300D03*
D13*
G04 #@! TO.N,/DATA*
G04 #@! TO.C,R6*
G36*
X189066704Y-100141004D02*
X189090973Y-100144604D01*
X189114771Y-100150565D01*
X189137871Y-100158830D01*
X189160049Y-100169320D01*
X189181093Y-100181933D01*
X189200798Y-100196547D01*
X189218977Y-100213023D01*
X189235453Y-100231202D01*
X189250067Y-100250907D01*
X189262680Y-100271951D01*
X189273170Y-100294129D01*
X189281435Y-100317229D01*
X189287396Y-100341027D01*
X189290996Y-100365296D01*
X189292200Y-100389800D01*
X189292200Y-101314800D01*
X189290996Y-101339304D01*
X189287396Y-101363573D01*
X189281435Y-101387371D01*
X189273170Y-101410471D01*
X189262680Y-101432649D01*
X189250067Y-101453693D01*
X189235453Y-101473398D01*
X189218977Y-101491577D01*
X189200798Y-101508053D01*
X189181093Y-101522667D01*
X189160049Y-101535280D01*
X189137871Y-101545770D01*
X189114771Y-101554035D01*
X189090973Y-101559996D01*
X189066704Y-101563596D01*
X189042200Y-101564800D01*
X187792200Y-101564800D01*
X187767696Y-101563596D01*
X187743427Y-101559996D01*
X187719629Y-101554035D01*
X187696529Y-101545770D01*
X187674351Y-101535280D01*
X187653307Y-101522667D01*
X187633602Y-101508053D01*
X187615423Y-101491577D01*
X187598947Y-101473398D01*
X187584333Y-101453693D01*
X187571720Y-101432649D01*
X187561230Y-101410471D01*
X187552965Y-101387371D01*
X187547004Y-101363573D01*
X187543404Y-101339304D01*
X187542200Y-101314800D01*
X187542200Y-100389800D01*
X187543404Y-100365296D01*
X187547004Y-100341027D01*
X187552965Y-100317229D01*
X187561230Y-100294129D01*
X187571720Y-100271951D01*
X187584333Y-100250907D01*
X187598947Y-100231202D01*
X187615423Y-100213023D01*
X187633602Y-100196547D01*
X187653307Y-100181933D01*
X187674351Y-100169320D01*
X187696529Y-100158830D01*
X187719629Y-100150565D01*
X187743427Y-100144604D01*
X187767696Y-100141004D01*
X187792200Y-100139800D01*
X189042200Y-100139800D01*
X189066704Y-100141004D01*
X189066704Y-100141004D01*
G37*
D14*
G04 #@! TD*
G04 #@! TO.P,R6,1*
G04 #@! TO.N,/DATA*
X188417200Y-100852300D03*
D13*
G04 #@! TO.N,Net-(C13-Pad1)*
G04 #@! TO.C,R7*
G36*
X194705504Y-91809804D02*
X194729773Y-91813404D01*
X194753571Y-91819365D01*
X194776671Y-91827630D01*
X194798849Y-91838120D01*
X194819893Y-91850733D01*
X194839598Y-91865347D01*
X194857777Y-91881823D01*
X194874253Y-91900002D01*
X194888867Y-91919707D01*
X194901480Y-91940751D01*
X194911970Y-91962929D01*
X194920235Y-91986029D01*
X194926196Y-92009827D01*
X194929796Y-92034096D01*
X194931000Y-92058600D01*
X194931000Y-92983600D01*
X194929796Y-93008104D01*
X194926196Y-93032373D01*
X194920235Y-93056171D01*
X194911970Y-93079271D01*
X194901480Y-93101449D01*
X194888867Y-93122493D01*
X194874253Y-93142198D01*
X194857777Y-93160377D01*
X194839598Y-93176853D01*
X194819893Y-93191467D01*
X194798849Y-93204080D01*
X194776671Y-93214570D01*
X194753571Y-93222835D01*
X194729773Y-93228796D01*
X194705504Y-93232396D01*
X194681000Y-93233600D01*
X193431000Y-93233600D01*
X193406496Y-93232396D01*
X193382227Y-93228796D01*
X193358429Y-93222835D01*
X193335329Y-93214570D01*
X193313151Y-93204080D01*
X193292107Y-93191467D01*
X193272402Y-93176853D01*
X193254223Y-93160377D01*
X193237747Y-93142198D01*
X193223133Y-93122493D01*
X193210520Y-93101449D01*
X193200030Y-93079271D01*
X193191765Y-93056171D01*
X193185804Y-93032373D01*
X193182204Y-93008104D01*
X193181000Y-92983600D01*
X193181000Y-92058600D01*
X193182204Y-92034096D01*
X193185804Y-92009827D01*
X193191765Y-91986029D01*
X193200030Y-91962929D01*
X193210520Y-91940751D01*
X193223133Y-91919707D01*
X193237747Y-91900002D01*
X193254223Y-91881823D01*
X193272402Y-91865347D01*
X193292107Y-91850733D01*
X193313151Y-91838120D01*
X193335329Y-91827630D01*
X193358429Y-91819365D01*
X193382227Y-91813404D01*
X193406496Y-91809804D01*
X193431000Y-91808600D01*
X194681000Y-91808600D01*
X194705504Y-91809804D01*
X194705504Y-91809804D01*
G37*
D14*
G04 #@! TD*
G04 #@! TO.P,R7,2*
G04 #@! TO.N,Net-(C13-Pad1)*
X194056000Y-92521100D03*
D13*
G04 #@! TO.N,/DATAB*
G04 #@! TO.C,R7*
G36*
X194705504Y-88834804D02*
X194729773Y-88838404D01*
X194753571Y-88844365D01*
X194776671Y-88852630D01*
X194798849Y-88863120D01*
X194819893Y-88875733D01*
X194839598Y-88890347D01*
X194857777Y-88906823D01*
X194874253Y-88925002D01*
X194888867Y-88944707D01*
X194901480Y-88965751D01*
X194911970Y-88987929D01*
X194920235Y-89011029D01*
X194926196Y-89034827D01*
X194929796Y-89059096D01*
X194931000Y-89083600D01*
X194931000Y-90008600D01*
X194929796Y-90033104D01*
X194926196Y-90057373D01*
X194920235Y-90081171D01*
X194911970Y-90104271D01*
X194901480Y-90126449D01*
X194888867Y-90147493D01*
X194874253Y-90167198D01*
X194857777Y-90185377D01*
X194839598Y-90201853D01*
X194819893Y-90216467D01*
X194798849Y-90229080D01*
X194776671Y-90239570D01*
X194753571Y-90247835D01*
X194729773Y-90253796D01*
X194705504Y-90257396D01*
X194681000Y-90258600D01*
X193431000Y-90258600D01*
X193406496Y-90257396D01*
X193382227Y-90253796D01*
X193358429Y-90247835D01*
X193335329Y-90239570D01*
X193313151Y-90229080D01*
X193292107Y-90216467D01*
X193272402Y-90201853D01*
X193254223Y-90185377D01*
X193237747Y-90167198D01*
X193223133Y-90147493D01*
X193210520Y-90126449D01*
X193200030Y-90104271D01*
X193191765Y-90081171D01*
X193185804Y-90057373D01*
X193182204Y-90033104D01*
X193181000Y-90008600D01*
X193181000Y-89083600D01*
X193182204Y-89059096D01*
X193185804Y-89034827D01*
X193191765Y-89011029D01*
X193200030Y-88987929D01*
X193210520Y-88965751D01*
X193223133Y-88944707D01*
X193237747Y-88925002D01*
X193254223Y-88906823D01*
X193272402Y-88890347D01*
X193292107Y-88875733D01*
X193313151Y-88863120D01*
X193335329Y-88852630D01*
X193358429Y-88844365D01*
X193382227Y-88838404D01*
X193406496Y-88834804D01*
X193431000Y-88833600D01*
X194681000Y-88833600D01*
X194705504Y-88834804D01*
X194705504Y-88834804D01*
G37*
D14*
G04 #@! TD*
G04 #@! TO.P,R7,1*
G04 #@! TO.N,/DATAB*
X194056000Y-89546100D03*
D13*
G04 #@! TO.N,GND*
G04 #@! TO.C,R10*
G36*
X191776004Y-94439704D02*
X191800273Y-94443304D01*
X191824071Y-94449265D01*
X191847171Y-94457530D01*
X191869349Y-94468020D01*
X191890393Y-94480633D01*
X191910098Y-94495247D01*
X191928277Y-94511723D01*
X191944753Y-94529902D01*
X191959367Y-94549607D01*
X191971980Y-94570651D01*
X191982470Y-94592829D01*
X191990735Y-94615929D01*
X191996696Y-94639727D01*
X192000296Y-94663996D01*
X192001500Y-94688500D01*
X192001500Y-95938500D01*
X192000296Y-95963004D01*
X191996696Y-95987273D01*
X191990735Y-96011071D01*
X191982470Y-96034171D01*
X191971980Y-96056349D01*
X191959367Y-96077393D01*
X191944753Y-96097098D01*
X191928277Y-96115277D01*
X191910098Y-96131753D01*
X191890393Y-96146367D01*
X191869349Y-96158980D01*
X191847171Y-96169470D01*
X191824071Y-96177735D01*
X191800273Y-96183696D01*
X191776004Y-96187296D01*
X191751500Y-96188500D01*
X190826500Y-96188500D01*
X190801996Y-96187296D01*
X190777727Y-96183696D01*
X190753929Y-96177735D01*
X190730829Y-96169470D01*
X190708651Y-96158980D01*
X190687607Y-96146367D01*
X190667902Y-96131753D01*
X190649723Y-96115277D01*
X190633247Y-96097098D01*
X190618633Y-96077393D01*
X190606020Y-96056349D01*
X190595530Y-96034171D01*
X190587265Y-96011071D01*
X190581304Y-95987273D01*
X190577704Y-95963004D01*
X190576500Y-95938500D01*
X190576500Y-94688500D01*
X190577704Y-94663996D01*
X190581304Y-94639727D01*
X190587265Y-94615929D01*
X190595530Y-94592829D01*
X190606020Y-94570651D01*
X190618633Y-94549607D01*
X190633247Y-94529902D01*
X190649723Y-94511723D01*
X190667902Y-94495247D01*
X190687607Y-94480633D01*
X190708651Y-94468020D01*
X190730829Y-94457530D01*
X190753929Y-94449265D01*
X190777727Y-94443304D01*
X190801996Y-94439704D01*
X190826500Y-94438500D01*
X191751500Y-94438500D01*
X191776004Y-94439704D01*
X191776004Y-94439704D01*
G37*
D14*
G04 #@! TD*
G04 #@! TO.P,R10,2*
G04 #@! TO.N,GND*
X191289000Y-95313500D03*
D13*
G04 #@! TO.N,Net-(MTC1-Pad6)*
G04 #@! TO.C,R10*
G36*
X188801004Y-94439704D02*
X188825273Y-94443304D01*
X188849071Y-94449265D01*
X188872171Y-94457530D01*
X188894349Y-94468020D01*
X188915393Y-94480633D01*
X188935098Y-94495247D01*
X188953277Y-94511723D01*
X188969753Y-94529902D01*
X188984367Y-94549607D01*
X188996980Y-94570651D01*
X189007470Y-94592829D01*
X189015735Y-94615929D01*
X189021696Y-94639727D01*
X189025296Y-94663996D01*
X189026500Y-94688500D01*
X189026500Y-95938500D01*
X189025296Y-95963004D01*
X189021696Y-95987273D01*
X189015735Y-96011071D01*
X189007470Y-96034171D01*
X188996980Y-96056349D01*
X188984367Y-96077393D01*
X188969753Y-96097098D01*
X188953277Y-96115277D01*
X188935098Y-96131753D01*
X188915393Y-96146367D01*
X188894349Y-96158980D01*
X188872171Y-96169470D01*
X188849071Y-96177735D01*
X188825273Y-96183696D01*
X188801004Y-96187296D01*
X188776500Y-96188500D01*
X187851500Y-96188500D01*
X187826996Y-96187296D01*
X187802727Y-96183696D01*
X187778929Y-96177735D01*
X187755829Y-96169470D01*
X187733651Y-96158980D01*
X187712607Y-96146367D01*
X187692902Y-96131753D01*
X187674723Y-96115277D01*
X187658247Y-96097098D01*
X187643633Y-96077393D01*
X187631020Y-96056349D01*
X187620530Y-96034171D01*
X187612265Y-96011071D01*
X187606304Y-95987273D01*
X187602704Y-95963004D01*
X187601500Y-95938500D01*
X187601500Y-94688500D01*
X187602704Y-94663996D01*
X187606304Y-94639727D01*
X187612265Y-94615929D01*
X187620530Y-94592829D01*
X187631020Y-94570651D01*
X187643633Y-94549607D01*
X187658247Y-94529902D01*
X187674723Y-94511723D01*
X187692902Y-94495247D01*
X187712607Y-94480633D01*
X187733651Y-94468020D01*
X187755829Y-94457530D01*
X187778929Y-94449265D01*
X187802727Y-94443304D01*
X187826996Y-94439704D01*
X187851500Y-94438500D01*
X188776500Y-94438500D01*
X188801004Y-94439704D01*
X188801004Y-94439704D01*
G37*
D14*
G04 #@! TD*
G04 #@! TO.P,R10,1*
G04 #@! TO.N,Net-(MTC1-Pad6)*
X188314000Y-95313500D03*
D13*
G04 #@! TO.N,/DATAB*
G04 #@! TO.C,R9*
G36*
X189117504Y-91835204D02*
X189141773Y-91838804D01*
X189165571Y-91844765D01*
X189188671Y-91853030D01*
X189210849Y-91863520D01*
X189231893Y-91876133D01*
X189251598Y-91890747D01*
X189269777Y-91907223D01*
X189286253Y-91925402D01*
X189300867Y-91945107D01*
X189313480Y-91966151D01*
X189323970Y-91988329D01*
X189332235Y-92011429D01*
X189338196Y-92035227D01*
X189341796Y-92059496D01*
X189343000Y-92084000D01*
X189343000Y-93009000D01*
X189341796Y-93033504D01*
X189338196Y-93057773D01*
X189332235Y-93081571D01*
X189323970Y-93104671D01*
X189313480Y-93126849D01*
X189300867Y-93147893D01*
X189286253Y-93167598D01*
X189269777Y-93185777D01*
X189251598Y-93202253D01*
X189231893Y-93216867D01*
X189210849Y-93229480D01*
X189188671Y-93239970D01*
X189165571Y-93248235D01*
X189141773Y-93254196D01*
X189117504Y-93257796D01*
X189093000Y-93259000D01*
X187843000Y-93259000D01*
X187818496Y-93257796D01*
X187794227Y-93254196D01*
X187770429Y-93248235D01*
X187747329Y-93239970D01*
X187725151Y-93229480D01*
X187704107Y-93216867D01*
X187684402Y-93202253D01*
X187666223Y-93185777D01*
X187649747Y-93167598D01*
X187635133Y-93147893D01*
X187622520Y-93126849D01*
X187612030Y-93104671D01*
X187603765Y-93081571D01*
X187597804Y-93057773D01*
X187594204Y-93033504D01*
X187593000Y-93009000D01*
X187593000Y-92084000D01*
X187594204Y-92059496D01*
X187597804Y-92035227D01*
X187603765Y-92011429D01*
X187612030Y-91988329D01*
X187622520Y-91966151D01*
X187635133Y-91945107D01*
X187649747Y-91925402D01*
X187666223Y-91907223D01*
X187684402Y-91890747D01*
X187704107Y-91876133D01*
X187725151Y-91863520D01*
X187747329Y-91853030D01*
X187770429Y-91844765D01*
X187794227Y-91838804D01*
X187818496Y-91835204D01*
X187843000Y-91834000D01*
X189093000Y-91834000D01*
X189117504Y-91835204D01*
X189117504Y-91835204D01*
G37*
D14*
G04 #@! TD*
G04 #@! TO.P,R9,1*
G04 #@! TO.N,/DATAB*
X188468000Y-92546500D03*
D13*
G04 #@! TO.N,Net-(C10-Pad2)*
G04 #@! TO.C,R9*
G36*
X189117504Y-88860204D02*
X189141773Y-88863804D01*
X189165571Y-88869765D01*
X189188671Y-88878030D01*
X189210849Y-88888520D01*
X189231893Y-88901133D01*
X189251598Y-88915747D01*
X189269777Y-88932223D01*
X189286253Y-88950402D01*
X189300867Y-88970107D01*
X189313480Y-88991151D01*
X189323970Y-89013329D01*
X189332235Y-89036429D01*
X189338196Y-89060227D01*
X189341796Y-89084496D01*
X189343000Y-89109000D01*
X189343000Y-90034000D01*
X189341796Y-90058504D01*
X189338196Y-90082773D01*
X189332235Y-90106571D01*
X189323970Y-90129671D01*
X189313480Y-90151849D01*
X189300867Y-90172893D01*
X189286253Y-90192598D01*
X189269777Y-90210777D01*
X189251598Y-90227253D01*
X189231893Y-90241867D01*
X189210849Y-90254480D01*
X189188671Y-90264970D01*
X189165571Y-90273235D01*
X189141773Y-90279196D01*
X189117504Y-90282796D01*
X189093000Y-90284000D01*
X187843000Y-90284000D01*
X187818496Y-90282796D01*
X187794227Y-90279196D01*
X187770429Y-90273235D01*
X187747329Y-90264970D01*
X187725151Y-90254480D01*
X187704107Y-90241867D01*
X187684402Y-90227253D01*
X187666223Y-90210777D01*
X187649747Y-90192598D01*
X187635133Y-90172893D01*
X187622520Y-90151849D01*
X187612030Y-90129671D01*
X187603765Y-90106571D01*
X187597804Y-90082773D01*
X187594204Y-90058504D01*
X187593000Y-90034000D01*
X187593000Y-89109000D01*
X187594204Y-89084496D01*
X187597804Y-89060227D01*
X187603765Y-89036429D01*
X187612030Y-89013329D01*
X187622520Y-88991151D01*
X187635133Y-88970107D01*
X187649747Y-88950402D01*
X187666223Y-88932223D01*
X187684402Y-88915747D01*
X187704107Y-88901133D01*
X187725151Y-88888520D01*
X187747329Y-88878030D01*
X187770429Y-88869765D01*
X187794227Y-88863804D01*
X187818496Y-88860204D01*
X187843000Y-88859000D01*
X189093000Y-88859000D01*
X189117504Y-88860204D01*
X189117504Y-88860204D01*
G37*
D14*
G04 #@! TD*
G04 #@! TO.P,R9,2*
G04 #@! TO.N,Net-(C10-Pad2)*
X188468000Y-89571500D03*
D20*
G04 #@! TO.P,MTC1,1*
G04 #@! TO.N,/DATA*
X185110078Y-88325204D03*
G04 #@! TO.P,MTC1,2*
G04 #@! TO.N,Net-(C10-Pad2)*
X185110078Y-89595204D03*
G04 #@! TO.P,MTC1,3*
G04 #@! TO.N,/DATAB*
X185110078Y-90865204D03*
G04 #@! TO.P,MTC1,4*
G04 #@! TO.N,GND*
X185110078Y-92135204D03*
G04 #@! TO.P,MTC1,5*
X185110078Y-93405204D03*
G04 #@! TO.P,MTC1,6*
G04 #@! TO.N,Net-(MTC1-Pad6)*
X185110078Y-94675204D03*
G04 #@! TO.P,MTC1,7*
G04 #@! TO.N,Net-(MTC1-Pad7)*
X185110078Y-95945204D03*
G04 #@! TO.P,MTC1,8*
G04 #@! TO.N,/+12V*
X185110078Y-97215204D03*
G04 #@! TO.P,MTC1,9*
G04 #@! TO.N,Net-(C14-Pad1)*
X175305678Y-97215204D03*
G04 #@! TO.P,MTC1,10*
G04 #@! TO.N,/+12V*
X175305678Y-95945204D03*
G04 #@! TO.P,MTC1,11*
G04 #@! TO.N,/VAN-TX*
X175305678Y-94675204D03*
G04 #@! TO.P,MTC1,12*
G04 #@! TO.N,GND*
X175305678Y-93405204D03*
G04 #@! TO.P,MTC1,13*
X175305678Y-92135204D03*
G04 #@! TO.P,MTC1,14*
G04 #@! TO.N,/VAN-RX0*
X175305678Y-90865204D03*
G04 #@! TO.P,MTC1,15*
G04 #@! TO.N,/VAN-RX2*
X175305678Y-89595204D03*
G04 #@! TO.P,MTC1,16*
G04 #@! TO.N,/VAN-RX1*
X175305678Y-88325204D03*
G04 #@! TD*
G04 #@! TO.P,TSS1,1*
G04 #@! TO.N,/MISO*
X161759090Y-97215204D03*
G04 #@! TO.P,TSS1,2*
G04 #@! TO.N,/CS_VAN*
X161759090Y-95945204D03*
G04 #@! TO.P,TSS1,3*
G04 #@! TO.N,Net-(TSS1-Pad3)*
X161759090Y-94675204D03*
G04 #@! TO.P,TSS1,4*
G04 #@! TO.N,VCC*
X161759090Y-93405204D03*
G04 #@! TO.P,TSS1,5*
G04 #@! TO.N,Net-(C11-Pad2)*
X161759090Y-92135204D03*
G04 #@! TO.P,TSS1,6*
G04 #@! TO.N,Net-(C12-Pad2)*
X161759090Y-90865204D03*
G04 #@! TO.P,TSS1,7*
G04 #@! TO.N,GND*
X161759090Y-89595204D03*
G04 #@! TO.P,TSS1,8*
G04 #@! TO.N,Net-(TSS1-Pad8)*
X161759090Y-88325204D03*
G04 #@! TO.P,TSS1,9*
G04 #@! TO.N,/VAN-RX1*
X171563490Y-88325204D03*
G04 #@! TO.P,TSS1,10*
G04 #@! TO.N,/VAN-RX2*
X171563490Y-89595204D03*
G04 #@! TO.P,TSS1,11*
G04 #@! TO.N,/VAN-RX0*
X171563490Y-90865204D03*
G04 #@! TO.P,TSS1,12*
G04 #@! TO.N,/VAN-TX*
X171563490Y-92135204D03*
G04 #@! TO.P,TSS1,13*
G04 #@! TO.N,GND*
X171563490Y-93405204D03*
G04 #@! TO.P,TSS1,14*
G04 #@! TO.N,Net-(TSS1-Pad14)*
X171563490Y-94675204D03*
G04 #@! TO.P,TSS1,15*
G04 #@! TO.N,/SCLK*
X171563490Y-95945204D03*
G04 #@! TO.P,TSS1,16*
G04 #@! TO.N,/MOSI*
X171563490Y-97215204D03*
G04 #@! TD*
D24*
G04 #@! TO.N,GND*
X169545000Y-117475000D03*
X169545000Y-93345000D03*
X182880000Y-92135204D03*
X177901600Y-93421200D03*
G04 #@! TO.N,VCC*
X159308800Y-93421200D03*
X159308800Y-97739200D03*
X127551100Y-105363600D03*
X118661100Y-107903600D03*
X137711100Y-107903600D03*
G04 #@! TO.N,Net-(C3-Pad1)*
X131361100Y-99013600D03*
G04 #@! TO.N,Net-(IC1-Pad16)*
X121201100Y-102823600D03*
G04 #@! TO.N,Net-(IC1-Pad1)*
X112311100Y-107903600D03*
X112311100Y-112983600D03*
G04 #@! TO.N,/DB6*
X156057600Y-99212400D03*
X156057600Y-96012000D03*
G04 #@! TO.N,/DB4*
X150411100Y-95203600D03*
G04 #@! TO.N,/E*
X135171100Y-118063600D03*
G04 #@! TO.N,/RS*
X164381100Y-111713600D03*
X125011100Y-112983600D03*
G04 #@! TO.N,/VO*
X158031100Y-88853600D03*
G04 #@! TO.N,Net-(R2-PadP$1)*
X165100000Y-113030000D03*
G04 #@! TO.N,/CANH*
X170180000Y-110490000D03*
G04 #@! TO.N,/CANL*
X170180000Y-105363600D03*
G04 #@! TO.N,/MISO*
X117391100Y-101553600D03*
X117391100Y-115523600D03*
G04 #@! TO.N,/MOSI*
X165735000Y-120650000D03*
X121201100Y-100283600D03*
X119931100Y-116793600D03*
G04 #@! TO.N,/SCLK*
X168275000Y-95885000D03*
X126281100Y-101553600D03*
G04 #@! TO.N,Net-(C12-Pad2)*
X164439600Y-90881200D03*
G04 #@! TO.N,Net-(C10-Pad2)*
X182880000Y-89535000D03*
G04 #@! TO.N,/CS_VAN*
X156210000Y-92663600D03*
G04 #@! TO.N,/+12V*
X141521100Y-111760000D03*
X152400000Y-111760000D03*
X167005000Y-114300000D03*
X182880000Y-97155000D03*
G04 #@! TO.N,/DATA*
X182880000Y-88265000D03*
G04 #@! TO.N,/DATAB*
X182880000Y-90805000D03*
G04 #@! TO.N,Net-(MTC1-Pad6)*
X182880000Y-94615000D03*
G04 #@! TD*
D25*
G04 #@! TO.N,GND*
X136568100Y-97743600D02*
X136441100Y-97743600D01*
X142791100Y-97743600D02*
X142918100Y-97743600D01*
X109771100Y-97743600D02*
X112311100Y-95203600D01*
X109771100Y-111713600D02*
X109771100Y-97743600D01*
X109771100Y-111713600D02*
X114774900Y-111713600D01*
X112311100Y-95203600D02*
X113123900Y-95203600D01*
X116121100Y-111713600D02*
X117391100Y-112983600D01*
X114851100Y-111713600D02*
X116121100Y-111713600D01*
X117391100Y-112983600D02*
X120007300Y-112983600D01*
X114774900Y-111713600D02*
X114851100Y-111713600D01*
X117391100Y-88853600D02*
X116121100Y-90123600D01*
X125011100Y-88853600D02*
X117391100Y-88853600D01*
X113581100Y-95203600D02*
X116121100Y-92663600D01*
X116121100Y-92663600D02*
X119931100Y-92663600D01*
X119931100Y-92663600D02*
X121201100Y-91393600D01*
X121201100Y-91393600D02*
X125011100Y-91393600D01*
X113123900Y-95203600D02*
X113581100Y-95203600D01*
X133901100Y-91393600D02*
X136441100Y-93933600D01*
X125011100Y-91393600D02*
X133901100Y-91393600D01*
X136441100Y-93933600D02*
X136568100Y-93933600D01*
X136441100Y-97743600D02*
X138981100Y-100283600D01*
X138981100Y-100283600D02*
X140251100Y-100283600D01*
X140251100Y-100283600D02*
X142791100Y-97743600D01*
X152951100Y-88853600D02*
X154221100Y-90123600D01*
X125011100Y-91393600D02*
X126281100Y-90123600D01*
X126281100Y-90123600D02*
X125011100Y-88853600D01*
X125011100Y-88853600D02*
X152951100Y-88853600D01*
X185110078Y-92135204D02*
X185110078Y-93405204D01*
X162444890Y-89595204D02*
X162505094Y-89535000D01*
X161759090Y-89595204D02*
X162444890Y-89595204D01*
X175305678Y-92135204D02*
X182880000Y-92135204D01*
X154221100Y-90123600D02*
X159431400Y-90123600D01*
X159959796Y-89595204D02*
X161759090Y-89595204D01*
X159431400Y-90123600D02*
X159959796Y-89595204D01*
X171563490Y-93405204D02*
X170877690Y-93405204D01*
X182880000Y-92135204D02*
X185110078Y-92135204D01*
X175305678Y-92135204D02*
X175305678Y-93405204D01*
X171503286Y-93345000D02*
X171563490Y-93405204D01*
X169545000Y-93345000D02*
X171503286Y-93345000D01*
X165795204Y-89595204D02*
X161759090Y-89595204D01*
X169545000Y-93345000D02*
X165795204Y-89595204D01*
X191312800Y-95289700D02*
X191289000Y-95313500D01*
X191289000Y-96288500D02*
X191289000Y-95313500D01*
X191289000Y-96418700D02*
X191289000Y-96288500D01*
X193081000Y-98210700D02*
X191289000Y-96418700D01*
X194056000Y-98210700D02*
X193081000Y-98210700D01*
X194070300Y-98225000D02*
X194056000Y-98210700D01*
X194070300Y-100888800D02*
X194070300Y-98225000D01*
X173177200Y-115631600D02*
X174995200Y-117449600D01*
X173177200Y-109589900D02*
X173177200Y-115631600D01*
X173177200Y-109589900D02*
X178054000Y-109589900D01*
X186849274Y-93878400D02*
X191312800Y-93878400D01*
X186376078Y-93405204D02*
X186849274Y-93878400D01*
X185110078Y-93405204D02*
X186376078Y-93405204D01*
X191312800Y-92521100D02*
X191312800Y-93878400D01*
X191312800Y-93878400D02*
X191312800Y-95289700D01*
X190375000Y-117315000D02*
X190500000Y-117315000D01*
X185637500Y-112577500D02*
X190375000Y-117315000D01*
X185637500Y-101600000D02*
X185637500Y-112577500D01*
X175321674Y-93421200D02*
X175305678Y-93405204D01*
X177901600Y-93421200D02*
X175321674Y-93421200D01*
G04 #@! TO.N,VCC*
X119931100Y-107903600D02*
X122471100Y-105363600D01*
X118661100Y-107903600D02*
X119931100Y-107903600D01*
X116121100Y-110443600D02*
X118661100Y-107903600D01*
X122471100Y-105363600D02*
X122928300Y-105363600D01*
X114774900Y-110443600D02*
X116121100Y-110443600D01*
X122928300Y-105363600D02*
X127551100Y-105363600D01*
X146601100Y-93933600D02*
X146616100Y-93933600D01*
X154236100Y-97743600D02*
X154221100Y-97743600D01*
X127551100Y-110443600D02*
X130091100Y-107903600D01*
X130091100Y-107903600D02*
X137711100Y-107903600D01*
X154221100Y-97743600D02*
X152951100Y-96473600D01*
X152951100Y-96473600D02*
X149141100Y-96473600D01*
X149141100Y-96473600D02*
X146601100Y-93933600D01*
X159324796Y-93405204D02*
X159308800Y-93421200D01*
X161759090Y-93405204D02*
X159324796Y-93405204D01*
X159304400Y-97743600D02*
X159308800Y-97739200D01*
X154236100Y-97743600D02*
X159304400Y-97743600D01*
G04 #@! TO.N,Net-(C2-Pad1)*
X117391100Y-96473600D02*
X121201100Y-92663600D01*
X121201100Y-92663600D02*
X132631100Y-92663600D01*
X132631100Y-92663600D02*
X133901100Y-93933600D01*
X113123900Y-96473600D02*
X117391100Y-96473600D01*
X131361100Y-100283600D02*
X128821100Y-97743600D01*
X133901100Y-100283600D02*
X131361100Y-100283600D01*
X135171100Y-99013600D02*
X133901100Y-100283600D01*
X135171100Y-93933600D02*
X135171100Y-99013600D01*
X133901100Y-93933600D02*
X135171100Y-93933600D01*
X133901100Y-93933600D02*
X133774100Y-93933600D01*
G04 #@! TO.N,Net-(C3-Pad1)*
X117391100Y-97743600D02*
X121201100Y-93933600D01*
X121201100Y-93933600D02*
X130091100Y-93933600D01*
X130091100Y-93933600D02*
X133901100Y-97743600D01*
X113123900Y-97743600D02*
X117391100Y-97743600D01*
X132631100Y-97743600D02*
X131361100Y-99013600D01*
X133774100Y-97743600D02*
X132631100Y-97743600D01*
X133901100Y-97743600D02*
X133774100Y-97743600D01*
G04 #@! TO.N,Net-(IC1-Pad17)*
X122928300Y-104093600D02*
X133901100Y-104093600D01*
X133901100Y-104093600D02*
X135171100Y-102823600D01*
X135171100Y-102823600D02*
X137711100Y-102823600D01*
X137711100Y-102823600D02*
X137711100Y-104093600D01*
X137711100Y-104093600D02*
X150411100Y-104093600D01*
X146616100Y-97743600D02*
X146601100Y-97743600D01*
X150411100Y-104093600D02*
X150411100Y-97743600D01*
X150411100Y-97743600D02*
X146616100Y-97743600D01*
G04 #@! TO.N,Net-(IC1-Pad16)*
X121201100Y-102823600D02*
X122928300Y-102823600D01*
G04 #@! TO.N,Net-(IC1-Pad12)*
X123741100Y-97743600D02*
X127551100Y-101553600D01*
X122928300Y-97743600D02*
X123741100Y-97743600D01*
X127551100Y-101553600D02*
X147871100Y-101553600D01*
X147871100Y-101553600D02*
X149141100Y-102823600D01*
G04 #@! TO.N,Net-(IC1-Pad2)*
X111041100Y-105363600D02*
X112311100Y-104093600D01*
X111041100Y-109173600D02*
X111041100Y-105363600D01*
X111041100Y-109173600D02*
X114774900Y-109173600D01*
X112311100Y-104093600D02*
X113123900Y-104093600D01*
X114774900Y-109173600D02*
X114851100Y-109173600D01*
G04 #@! TO.N,Net-(IC1-Pad1)*
X112311100Y-107903600D02*
X112311100Y-105363600D01*
X112311100Y-112983600D02*
X114774900Y-112983600D01*
X112311100Y-105363600D02*
X113123900Y-105363600D01*
X114774900Y-112983600D02*
X114851100Y-112983600D01*
G04 #@! TO.N,/DB6*
X146601100Y-90123600D02*
X147871100Y-91393600D01*
X147871100Y-91393600D02*
X153866998Y-91393600D01*
X156761100Y-99915900D02*
X156057600Y-99212400D01*
X156761100Y-102823600D02*
X156761100Y-99915900D01*
X156057600Y-95446315D02*
X156057600Y-93584202D01*
X156057600Y-96012000D02*
X156057600Y-95446315D01*
X153866998Y-91393600D02*
X156057600Y-93584202D01*
G04 #@! TO.N,/DB4*
X150411100Y-95203600D02*
X146601100Y-91393600D01*
X146601100Y-91393600D02*
X142791100Y-91393600D01*
X142791100Y-91393600D02*
X141521100Y-90123600D01*
G04 #@! TO.N,/E*
X137711100Y-118063600D02*
X137711100Y-116793600D01*
X135171100Y-118063600D02*
X137711100Y-118063600D01*
X155491100Y-116793600D02*
X156761100Y-118063600D01*
X137711100Y-116793600D02*
X155491100Y-116793600D01*
G04 #@! TO.N,/RS*
X163876400Y-112983600D02*
X125011100Y-112983600D01*
X164381100Y-111713600D02*
X164381100Y-112478900D01*
X164381100Y-112478900D02*
X163876400Y-112983600D01*
G04 #@! TO.N,/VO*
X119931100Y-91393600D02*
X121201100Y-90123600D01*
X156761100Y-87583600D02*
X158031100Y-88853600D01*
X116121100Y-87583600D02*
X156761100Y-87583600D01*
X114851100Y-91393600D02*
X114851100Y-88853600D01*
X114851100Y-88853600D02*
X116121100Y-87583600D01*
X114851100Y-91393600D02*
X119931100Y-91393600D01*
G04 #@! TO.N,Net-(R2-PadP$1)*
X151681100Y-114253600D02*
X152951100Y-115523600D01*
X138981100Y-114253600D02*
X151681100Y-114253600D01*
X131361100Y-115523600D02*
X137711100Y-115523600D01*
X137711100Y-115523600D02*
X138981100Y-114253600D01*
X125011100Y-114253600D02*
X130091100Y-114253600D01*
X130091100Y-114253600D02*
X131361100Y-115523600D01*
X122471100Y-116793600D02*
X125011100Y-114253600D01*
X165100000Y-114888600D02*
X164465000Y-115523600D01*
X165100000Y-113030000D02*
X165100000Y-114888600D01*
X152951100Y-115523600D02*
X164465000Y-115523600D01*
G04 #@! TO.N,/CANH*
X120007300Y-111713600D02*
X119931100Y-111713600D01*
X129586400Y-111713600D02*
X120007300Y-111713600D01*
X130810000Y-110490000D02*
X129586400Y-111713600D01*
X170180000Y-110490000D02*
X170180000Y-110490000D01*
X170180000Y-110490000D02*
X130810000Y-110490000D01*
G04 #@! TO.N,/CANL*
X120007300Y-110443600D02*
X119931100Y-110443600D01*
X121966400Y-110443600D02*
X120007300Y-110443600D01*
X130989678Y-105363600D02*
X128850879Y-107502399D01*
X128850879Y-107502399D02*
X124907601Y-107502399D01*
X124907601Y-107502399D02*
X121966400Y-110443600D01*
X170180000Y-105363600D02*
X130989678Y-105363600D01*
G04 #@! TO.N,/MISO*
X117391100Y-115523600D02*
X122471100Y-120603600D01*
X122471100Y-120603600D02*
X164381100Y-120603600D01*
X164381100Y-120603600D02*
X165651100Y-119333600D01*
X165651100Y-119333600D02*
X165651100Y-116793600D01*
X165651100Y-116793600D02*
X163111100Y-116793600D01*
X163111100Y-116793600D02*
X161841100Y-118063600D01*
X117391100Y-101553600D02*
X122928300Y-101553600D01*
X162978901Y-99015215D02*
X161759090Y-97795404D01*
X162978901Y-103105347D02*
X162978901Y-99015215D01*
X161759090Y-97795404D02*
X161759090Y-97215204D01*
X163834955Y-103961401D02*
X162978901Y-103105347D01*
X169850803Y-103961401D02*
X163834955Y-103961401D01*
X170905001Y-110838001D02*
X170905001Y-105015599D01*
X170528001Y-111215001D02*
X170905001Y-110838001D01*
X170905001Y-105015599D02*
X169850803Y-103961401D01*
X169016997Y-111215001D02*
X170528001Y-111215001D01*
X165651100Y-114580898D02*
X169016997Y-111215001D01*
X165651100Y-116793600D02*
X165651100Y-114580898D01*
G04 #@! TO.N,/MOSI*
X119931100Y-116793600D02*
X122471100Y-119333600D01*
X122471100Y-119333600D02*
X163111100Y-119333600D01*
X163111100Y-119333600D02*
X164381100Y-118063600D01*
X121201100Y-100283600D02*
X122928300Y-100283600D01*
X174599600Y-100831514D02*
X171563490Y-97795404D01*
X174599600Y-107950000D02*
X174599600Y-100831514D01*
X167443002Y-120650000D02*
X171563490Y-116529512D01*
X165735000Y-120650000D02*
X167443002Y-120650000D01*
X171563490Y-116529512D02*
X171563490Y-108622290D01*
X171563490Y-108622290D02*
X172083380Y-108102400D01*
X172083380Y-108102400D02*
X174447200Y-108102400D01*
X171563490Y-97795404D02*
X171563490Y-97215204D01*
X174447200Y-108102400D02*
X174599600Y-107950000D01*
G04 #@! TO.N,/SCLK*
X126281100Y-101553600D02*
X123741100Y-99013600D01*
X123741100Y-99013600D02*
X122928300Y-99013600D01*
X171503286Y-95885000D02*
X171563490Y-95945204D01*
X168275000Y-95885000D02*
X171503286Y-95885000D01*
G04 #@! TO.N,Net-(C12-Pad2)*
X179116800Y-101600000D02*
X182662500Y-101600000D01*
X178257200Y-101600000D02*
X179116800Y-101600000D01*
X164423604Y-90865204D02*
X164439600Y-90881200D01*
X161759090Y-90865204D02*
X164423604Y-90865204D01*
G04 #@! TO.N,Net-(C11-Pad2)*
X173177200Y-103069200D02*
X173177200Y-106614900D01*
X173177200Y-101600000D02*
X173177200Y-103069200D01*
X162444890Y-92135204D02*
X161759090Y-92135204D01*
X163025090Y-92715404D02*
X162444890Y-92135204D01*
X163025090Y-92740002D02*
X163025090Y-92715404D01*
X171885088Y-101600000D02*
X163025090Y-92740002D01*
X173177200Y-101600000D02*
X171885088Y-101600000D01*
G04 #@! TO.N,Net-(C14-Pad1)*
X177495200Y-116399600D02*
X180086000Y-113808800D01*
X177495200Y-117449600D02*
X177495200Y-116399600D01*
X180086000Y-113808800D02*
X180086000Y-108646900D01*
X180086000Y-108646900D02*
X178054000Y-106614900D01*
X175305678Y-97795404D02*
X175305678Y-97215204D01*
X175305678Y-103054078D02*
X175305678Y-97795404D01*
X178054000Y-105802400D02*
X175305678Y-103054078D01*
X178054000Y-106614900D02*
X178054000Y-105802400D01*
G04 #@! TO.N,Net-(C13-Pad1)*
X194056000Y-93333600D02*
X194056000Y-95235700D01*
X194056000Y-92521100D02*
X194056000Y-93333600D01*
G04 #@! TO.N,Net-(C9-Pad2)*
X191095300Y-100555400D02*
X191095300Y-100888800D01*
X188417200Y-97877300D02*
X191095300Y-100555400D01*
G04 #@! TO.N,Net-(C10-Pad2)*
X185049874Y-89535000D02*
X185110078Y-89595204D01*
X182880000Y-89535000D02*
X185049874Y-89535000D01*
X188444296Y-89595204D02*
X188468000Y-89571500D01*
X185110078Y-89595204D02*
X188444296Y-89595204D01*
X191287400Y-89571500D02*
X191312800Y-89546100D01*
X188468000Y-89571500D02*
X191287400Y-89571500D01*
G04 #@! TO.N,/CS_VAN*
X160493090Y-95945204D02*
X160070800Y-96367494D01*
X161759090Y-95945204D02*
X160493090Y-95945204D01*
X160070800Y-101053300D02*
X161841100Y-102823600D01*
X160070800Y-96367494D02*
X160070800Y-101053300D01*
X159491604Y-95945204D02*
X161759090Y-95945204D01*
X156210000Y-92663600D02*
X159491604Y-95945204D01*
G04 #@! TO.N,/+12V*
X141521100Y-111760000D02*
X152400000Y-111760000D01*
X184424278Y-97215204D02*
X184364074Y-97155000D01*
X185110078Y-97215204D02*
X184424278Y-97215204D01*
X185049874Y-97155000D02*
X185110078Y-97215204D01*
X182880000Y-97155000D02*
X185049874Y-97155000D01*
X181670204Y-95945204D02*
X175305678Y-95945204D01*
X182880000Y-97155000D02*
X181670204Y-95945204D01*
G04 #@! TO.N,/DATA*
X185049874Y-88265000D02*
X185110078Y-88325204D01*
X182880000Y-88265000D02*
X185049874Y-88265000D01*
X185795878Y-88325204D02*
X185110078Y-88325204D01*
X185110078Y-88325204D02*
X196275204Y-88325204D01*
X196275204Y-88325204D02*
X196850000Y-88900000D01*
X196850000Y-88900000D02*
X196850000Y-109220000D01*
X196255000Y-109815000D02*
X190500000Y-109815000D01*
X196850000Y-109220000D02*
X196255000Y-109815000D01*
X188417200Y-101664800D02*
X188417200Y-100852300D01*
X188417200Y-108957200D02*
X188417200Y-101664800D01*
X189275000Y-109815000D02*
X188417200Y-108957200D01*
X190500000Y-109815000D02*
X189275000Y-109815000D01*
G04 #@! TO.N,/DATAB*
X185049874Y-90805000D02*
X185110078Y-90865204D01*
X182880000Y-90805000D02*
X185049874Y-90805000D01*
X190500000Y-107315000D02*
X195580000Y-107315000D01*
X195580000Y-107315000D02*
X196215000Y-106680000D01*
X196215000Y-106680000D02*
X196215000Y-91440000D01*
X196215000Y-91440000D02*
X195640204Y-90865204D01*
X194562604Y-90865204D02*
X194564000Y-90865204D01*
X195640204Y-90865204D02*
X194564000Y-90865204D01*
X188468000Y-91734000D02*
X188468000Y-90865204D01*
X188468000Y-92546500D02*
X188468000Y-91734000D01*
X188468000Y-90865204D02*
X185110078Y-90865204D01*
X194056000Y-89546100D02*
X194056000Y-90865204D01*
X194564000Y-90865204D02*
X194056000Y-90865204D01*
X194056000Y-90865204D02*
X188468000Y-90865204D01*
G04 #@! TO.N,Net-(MTC1-Pad6)*
X185049874Y-94615000D02*
X185110078Y-94675204D01*
X182880000Y-94615000D02*
X185049874Y-94615000D01*
X187675704Y-94675204D02*
X188314000Y-95313500D01*
X185110078Y-94675204D02*
X187675704Y-94675204D01*
G04 #@! TO.N,/VAN-RX0*
X171563490Y-90865204D02*
X175305678Y-90865204D01*
G04 #@! TO.N,/VAN-TX*
X174619878Y-94675204D02*
X175305678Y-94675204D01*
X174039678Y-94095004D02*
X174619878Y-94675204D01*
X174039678Y-94070406D02*
X174039678Y-94095004D01*
X172104476Y-92135204D02*
X174039678Y-94070406D01*
X171563490Y-92135204D02*
X172104476Y-92135204D01*
G04 #@! TO.N,/VAN-RX2*
X171563490Y-89595204D02*
X175305678Y-89595204D01*
G04 #@! TO.N,/VAN-RX1*
X172249290Y-88325204D02*
X175305678Y-88325204D01*
X171563490Y-88325204D02*
X172249290Y-88325204D01*
G04 #@! TD*
M02*
