G04 #@! TF.GenerationSoftware,KiCad,Pcbnew,(5.0.0)*
G04 #@! TF.CreationDate,2018-10-11T21:25:17+02:00*
G04 #@! TF.ProjectId,canbus,63616E6275732E6B696361645F706362,rev?*
G04 #@! TF.SameCoordinates,Original*
G04 #@! TF.FileFunction,Paste,Top*
G04 #@! TF.FilePolarity,Positive*
%FSLAX46Y46*%
G04 Gerber Fmt 4.6, Leading zero omitted, Abs format (unit mm)*
G04 Created by KiCad (PCBNEW (5.0.0)) date 10/11/18 21:25:17*
%MOMM*%
%LPD*%
G01*
G04 APERTURE LIST*
%ADD10C,0.100000*%
%ADD11C,1.425000*%
G04 APERTURE END LIST*
D10*
G04 #@! TO.C,R8*
G36*
X181192704Y-90895404D02*
X181216973Y-90899004D01*
X181240771Y-90904965D01*
X181263871Y-90913230D01*
X181286049Y-90923720D01*
X181307093Y-90936333D01*
X181326798Y-90950947D01*
X181344977Y-90967423D01*
X181361453Y-90985602D01*
X181376067Y-91005307D01*
X181388680Y-91026351D01*
X181399170Y-91048529D01*
X181407435Y-91071629D01*
X181413396Y-91095427D01*
X181416996Y-91119696D01*
X181418200Y-91144200D01*
X181418200Y-92069200D01*
X181416996Y-92093704D01*
X181413396Y-92117973D01*
X181407435Y-92141771D01*
X181399170Y-92164871D01*
X181388680Y-92187049D01*
X181376067Y-92208093D01*
X181361453Y-92227798D01*
X181344977Y-92245977D01*
X181326798Y-92262453D01*
X181307093Y-92277067D01*
X181286049Y-92289680D01*
X181263871Y-92300170D01*
X181240771Y-92308435D01*
X181216973Y-92314396D01*
X181192704Y-92317996D01*
X181168200Y-92319200D01*
X179918200Y-92319200D01*
X179893696Y-92317996D01*
X179869427Y-92314396D01*
X179845629Y-92308435D01*
X179822529Y-92300170D01*
X179800351Y-92289680D01*
X179779307Y-92277067D01*
X179759602Y-92262453D01*
X179741423Y-92245977D01*
X179724947Y-92227798D01*
X179710333Y-92208093D01*
X179697720Y-92187049D01*
X179687230Y-92164871D01*
X179678965Y-92141771D01*
X179673004Y-92117973D01*
X179669404Y-92093704D01*
X179668200Y-92069200D01*
X179668200Y-91144200D01*
X179669404Y-91119696D01*
X179673004Y-91095427D01*
X179678965Y-91071629D01*
X179687230Y-91048529D01*
X179697720Y-91026351D01*
X179710333Y-91005307D01*
X179724947Y-90985602D01*
X179741423Y-90967423D01*
X179759602Y-90950947D01*
X179779307Y-90936333D01*
X179800351Y-90923720D01*
X179822529Y-90913230D01*
X179845629Y-90904965D01*
X179869427Y-90899004D01*
X179893696Y-90895404D01*
X179918200Y-90894200D01*
X181168200Y-90894200D01*
X181192704Y-90895404D01*
X181192704Y-90895404D01*
G37*
D11*
X180543200Y-91606700D03*
D10*
G36*
X181192704Y-87920404D02*
X181216973Y-87924004D01*
X181240771Y-87929965D01*
X181263871Y-87938230D01*
X181286049Y-87948720D01*
X181307093Y-87961333D01*
X181326798Y-87975947D01*
X181344977Y-87992423D01*
X181361453Y-88010602D01*
X181376067Y-88030307D01*
X181388680Y-88051351D01*
X181399170Y-88073529D01*
X181407435Y-88096629D01*
X181413396Y-88120427D01*
X181416996Y-88144696D01*
X181418200Y-88169200D01*
X181418200Y-89094200D01*
X181416996Y-89118704D01*
X181413396Y-89142973D01*
X181407435Y-89166771D01*
X181399170Y-89189871D01*
X181388680Y-89212049D01*
X181376067Y-89233093D01*
X181361453Y-89252798D01*
X181344977Y-89270977D01*
X181326798Y-89287453D01*
X181307093Y-89302067D01*
X181286049Y-89314680D01*
X181263871Y-89325170D01*
X181240771Y-89333435D01*
X181216973Y-89339396D01*
X181192704Y-89342996D01*
X181168200Y-89344200D01*
X179918200Y-89344200D01*
X179893696Y-89342996D01*
X179869427Y-89339396D01*
X179845629Y-89333435D01*
X179822529Y-89325170D01*
X179800351Y-89314680D01*
X179779307Y-89302067D01*
X179759602Y-89287453D01*
X179741423Y-89270977D01*
X179724947Y-89252798D01*
X179710333Y-89233093D01*
X179697720Y-89212049D01*
X179687230Y-89189871D01*
X179678965Y-89166771D01*
X179673004Y-89142973D01*
X179669404Y-89118704D01*
X179668200Y-89094200D01*
X179668200Y-88169200D01*
X179669404Y-88144696D01*
X179673004Y-88120427D01*
X179678965Y-88096629D01*
X179687230Y-88073529D01*
X179697720Y-88051351D01*
X179710333Y-88030307D01*
X179724947Y-88010602D01*
X179741423Y-87992423D01*
X179759602Y-87975947D01*
X179779307Y-87961333D01*
X179800351Y-87948720D01*
X179822529Y-87938230D01*
X179845629Y-87929965D01*
X179869427Y-87924004D01*
X179893696Y-87920404D01*
X179918200Y-87919200D01*
X181168200Y-87919200D01*
X181192704Y-87920404D01*
X181192704Y-87920404D01*
G37*
D11*
X180543200Y-88631700D03*
G04 #@! TD*
M02*
