M48
;DRILL file {KiCad (5.0.0)} date 11/04/19 22:18:31
;FORMAT={-:-/ absolute / inch / decimal}
FMAT,2
INCH,TZ
T1C0.0157
T2C0.0236
T3C0.0295
T4C0.0300
T5C0.0315
T6C0.0374
T7C0.0394
%
G90
G05
M72
T1
X2.41Y-3.
X2.495Y-3.155
X2.69Y-2.51
X2.69Y-2.59
X2.69Y-2.885
X2.715Y-3.
X2.845Y-2.39
X2.85Y-2.65
X2.86Y-2.88
X2.92Y-2.85
X2.99Y-2.33
X3.005Y-2.75
X3.08Y-2.75
X3.08Y-2.8
X3.08Y-2.85
X3.18Y-2.33
X3.46Y-2.4
X3.46Y-2.55
X3.46Y-2.9
X3.49Y-2.8
X3.68Y-2.45
X3.68Y-2.5
X3.68Y-2.805
X3.68Y-2.86
X4.05Y-2.67
X4.05Y-2.7733
X4.05Y-2.8767
X4.05Y-2.98
T2
X3.91Y-2.4986
X3.91Y-2.5386
X3.91Y-2.34
X3.91Y-2.38
X3.91Y-2.42
X3.91Y-2.46
X3.9525Y-2.4986
X3.9525Y-2.5386
X3.9525Y-2.34
X3.9525Y-2.38
X3.9525Y-2.42
X3.9525Y-2.46
X3.995Y-2.4986
X3.995Y-2.5386
X3.995Y-2.34
X3.995Y-2.38
X3.995Y-2.42
X3.995Y-2.46
X4.0375Y-2.4986
X4.0375Y-2.5386
X4.0375Y-2.34
X4.0375Y-2.38
X4.0375Y-2.42
X4.0375Y-2.46
X4.08Y-2.4986
X4.08Y-2.5386
X4.08Y-2.34
X4.08Y-2.38
X4.08Y-2.42
X4.08Y-2.46
X4.27Y-2.18
X4.27Y-2.2587
X3.75Y-2.23
X3.75Y-2.3087
T3
X2.44Y-3.4
X2.49Y-3.4
X2.54Y-3.4
X2.45Y-2.785
X2.45Y-2.835
X2.45Y-2.885
T4
X2.96Y-3.075
T5
X2.89Y-2.33
X3.0821Y-2.33
T6
X4.34Y-2.41
X4.34Y-2.5084
X4.34Y-2.6069
X4.34Y-2.7053
X4.34Y-2.8037
X4.34Y-2.9021
T7
X4.34Y-3.1
X4.34Y-3.2
X4.34Y-3.3
X4.34Y-3.4
X2.11Y-2.27
X2.11Y-2.67
X2.21Y-2.27
X2.21Y-2.67
X2.31Y-2.27
X2.31Y-2.67
X2.41Y-2.27
X2.41Y-2.67
X2.51Y-2.27
X2.51Y-2.67
X2.61Y-2.27
X2.61Y-2.67
X3.94Y-2.08
X4.04Y-2.08
X4.14Y-2.08
X2.66Y-3.405
X2.76Y-3.405
X2.26Y-2.075
X2.26Y-3.075
X2.36Y-2.075
X2.36Y-3.075
X2.46Y-2.075
X2.46Y-3.075
X2.56Y-2.075
X2.56Y-3.075
X2.66Y-2.075
X2.66Y-3.075
X2.76Y-2.075
X2.76Y-3.075
X2.86Y-2.075
X2.86Y-3.075
X2.96Y-2.075
X3.06Y-2.075
X3.06Y-3.075
X3.16Y-2.075
X3.16Y-3.075
X3.26Y-2.075
X3.26Y-3.075
X3.36Y-2.075
X3.36Y-3.075
X3.46Y-2.075
X3.46Y-3.075
X3.56Y-2.075
X3.56Y-3.075
X3.66Y-2.075
X3.66Y-3.075
X2.66Y-3.52
X2.76Y-3.52
X2.2Y-3.245
X2.2Y-3.371
T0
M30
