%TF.GenerationSoftware,KiCad,Pcbnew,(5.0.2)-1*%
%TF.CreationDate,2019-07-05T20:57:08+02:00*%
%TF.ProjectId,PSAVanCanBridge_v11,56616e43-616e-4457-9370-33322e6b6963,rev?*%
%TF.SameCoordinates,Original*%
%TF.FileFunction,Paste,Top*%
%TF.FilePolarity,Positive*%
%FSLAX46Y46*%
G04 Gerber Fmt 4.6, Leading zero omitted, Abs format (unit mm)*
G04 Created by KiCad (PCBNEW (5.0.2)-1) date 05/07/2019 20:57:08*
%MOMM*%
%LPD*%
G01*
G04 APERTURE LIST*
%ADD10C,0.100000*%
%ADD11C,1.425000*%
%ADD12R,3.050000X2.750000*%
%ADD13R,2.200000X1.200000*%
%ADD14R,0.600000X1.550000*%
G04 APERTURE END LIST*
D10*
G36*
X59378504Y-44846204D02*
X59402773Y-44849804D01*
X59426571Y-44855765D01*
X59449671Y-44864030D01*
X59471849Y-44874520D01*
X59492893Y-44887133D01*
X59512598Y-44901747D01*
X59530777Y-44918223D01*
X59547253Y-44936402D01*
X59561867Y-44956107D01*
X59574480Y-44977151D01*
X59584970Y-44999329D01*
X59593235Y-45022429D01*
X59599196Y-45046227D01*
X59602796Y-45070496D01*
X59604000Y-45095000D01*
X59604000Y-46345000D01*
X59602796Y-46369504D01*
X59599196Y-46393773D01*
X59593235Y-46417571D01*
X59584970Y-46440671D01*
X59574480Y-46462849D01*
X59561867Y-46483893D01*
X59547253Y-46503598D01*
X59530777Y-46521777D01*
X59512598Y-46538253D01*
X59492893Y-46552867D01*
X59471849Y-46565480D01*
X59449671Y-46575970D01*
X59426571Y-46584235D01*
X59402773Y-46590196D01*
X59378504Y-46593796D01*
X59354000Y-46595000D01*
X58429000Y-46595000D01*
X58404496Y-46593796D01*
X58380227Y-46590196D01*
X58356429Y-46584235D01*
X58333329Y-46575970D01*
X58311151Y-46565480D01*
X58290107Y-46552867D01*
X58270402Y-46538253D01*
X58252223Y-46521777D01*
X58235747Y-46503598D01*
X58221133Y-46483893D01*
X58208520Y-46462849D01*
X58198030Y-46440671D01*
X58189765Y-46417571D01*
X58183804Y-46393773D01*
X58180204Y-46369504D01*
X58179000Y-46345000D01*
X58179000Y-45095000D01*
X58180204Y-45070496D01*
X58183804Y-45046227D01*
X58189765Y-45022429D01*
X58198030Y-44999329D01*
X58208520Y-44977151D01*
X58221133Y-44956107D01*
X58235747Y-44936402D01*
X58252223Y-44918223D01*
X58270402Y-44901747D01*
X58290107Y-44887133D01*
X58311151Y-44874520D01*
X58333329Y-44864030D01*
X58356429Y-44855765D01*
X58380227Y-44849804D01*
X58404496Y-44846204D01*
X58429000Y-44845000D01*
X59354000Y-44845000D01*
X59378504Y-44846204D01*
X59378504Y-44846204D01*
G37*
D11*
X58891500Y-45720000D03*
D10*
G36*
X56403504Y-44846204D02*
X56427773Y-44849804D01*
X56451571Y-44855765D01*
X56474671Y-44864030D01*
X56496849Y-44874520D01*
X56517893Y-44887133D01*
X56537598Y-44901747D01*
X56555777Y-44918223D01*
X56572253Y-44936402D01*
X56586867Y-44956107D01*
X56599480Y-44977151D01*
X56609970Y-44999329D01*
X56618235Y-45022429D01*
X56624196Y-45046227D01*
X56627796Y-45070496D01*
X56629000Y-45095000D01*
X56629000Y-46345000D01*
X56627796Y-46369504D01*
X56624196Y-46393773D01*
X56618235Y-46417571D01*
X56609970Y-46440671D01*
X56599480Y-46462849D01*
X56586867Y-46483893D01*
X56572253Y-46503598D01*
X56555777Y-46521777D01*
X56537598Y-46538253D01*
X56517893Y-46552867D01*
X56496849Y-46565480D01*
X56474671Y-46575970D01*
X56451571Y-46584235D01*
X56427773Y-46590196D01*
X56403504Y-46593796D01*
X56379000Y-46595000D01*
X55454000Y-46595000D01*
X55429496Y-46593796D01*
X55405227Y-46590196D01*
X55381429Y-46584235D01*
X55358329Y-46575970D01*
X55336151Y-46565480D01*
X55315107Y-46552867D01*
X55295402Y-46538253D01*
X55277223Y-46521777D01*
X55260747Y-46503598D01*
X55246133Y-46483893D01*
X55233520Y-46462849D01*
X55223030Y-46440671D01*
X55214765Y-46417571D01*
X55208804Y-46393773D01*
X55205204Y-46369504D01*
X55204000Y-46345000D01*
X55204000Y-45095000D01*
X55205204Y-45070496D01*
X55208804Y-45046227D01*
X55214765Y-45022429D01*
X55223030Y-44999329D01*
X55233520Y-44977151D01*
X55246133Y-44956107D01*
X55260747Y-44936402D01*
X55277223Y-44918223D01*
X55295402Y-44901747D01*
X55315107Y-44887133D01*
X55336151Y-44874520D01*
X55358329Y-44864030D01*
X55381429Y-44855765D01*
X55405227Y-44849804D01*
X55429496Y-44846204D01*
X55454000Y-44845000D01*
X56379000Y-44845000D01*
X56403504Y-44846204D01*
X56403504Y-44846204D01*
G37*
D11*
X55916500Y-45720000D03*
D10*
G36*
X54425504Y-46624204D02*
X54449773Y-46627804D01*
X54473571Y-46633765D01*
X54496671Y-46642030D01*
X54518849Y-46652520D01*
X54539893Y-46665133D01*
X54559598Y-46679747D01*
X54577777Y-46696223D01*
X54594253Y-46714402D01*
X54608867Y-46734107D01*
X54621480Y-46755151D01*
X54631970Y-46777329D01*
X54640235Y-46800429D01*
X54646196Y-46824227D01*
X54649796Y-46848496D01*
X54651000Y-46873000D01*
X54651000Y-48123000D01*
X54649796Y-48147504D01*
X54646196Y-48171773D01*
X54640235Y-48195571D01*
X54631970Y-48218671D01*
X54621480Y-48240849D01*
X54608867Y-48261893D01*
X54594253Y-48281598D01*
X54577777Y-48299777D01*
X54559598Y-48316253D01*
X54539893Y-48330867D01*
X54518849Y-48343480D01*
X54496671Y-48353970D01*
X54473571Y-48362235D01*
X54449773Y-48368196D01*
X54425504Y-48371796D01*
X54401000Y-48373000D01*
X53476000Y-48373000D01*
X53451496Y-48371796D01*
X53427227Y-48368196D01*
X53403429Y-48362235D01*
X53380329Y-48353970D01*
X53358151Y-48343480D01*
X53337107Y-48330867D01*
X53317402Y-48316253D01*
X53299223Y-48299777D01*
X53282747Y-48281598D01*
X53268133Y-48261893D01*
X53255520Y-48240849D01*
X53245030Y-48218671D01*
X53236765Y-48195571D01*
X53230804Y-48171773D01*
X53227204Y-48147504D01*
X53226000Y-48123000D01*
X53226000Y-46873000D01*
X53227204Y-46848496D01*
X53230804Y-46824227D01*
X53236765Y-46800429D01*
X53245030Y-46777329D01*
X53255520Y-46755151D01*
X53268133Y-46734107D01*
X53282747Y-46714402D01*
X53299223Y-46696223D01*
X53317402Y-46679747D01*
X53337107Y-46665133D01*
X53358151Y-46652520D01*
X53380329Y-46642030D01*
X53403429Y-46633765D01*
X53427227Y-46627804D01*
X53451496Y-46624204D01*
X53476000Y-46623000D01*
X54401000Y-46623000D01*
X54425504Y-46624204D01*
X54425504Y-46624204D01*
G37*
D11*
X53938500Y-47498000D03*
D10*
G36*
X51450504Y-46624204D02*
X51474773Y-46627804D01*
X51498571Y-46633765D01*
X51521671Y-46642030D01*
X51543849Y-46652520D01*
X51564893Y-46665133D01*
X51584598Y-46679747D01*
X51602777Y-46696223D01*
X51619253Y-46714402D01*
X51633867Y-46734107D01*
X51646480Y-46755151D01*
X51656970Y-46777329D01*
X51665235Y-46800429D01*
X51671196Y-46824227D01*
X51674796Y-46848496D01*
X51676000Y-46873000D01*
X51676000Y-48123000D01*
X51674796Y-48147504D01*
X51671196Y-48171773D01*
X51665235Y-48195571D01*
X51656970Y-48218671D01*
X51646480Y-48240849D01*
X51633867Y-48261893D01*
X51619253Y-48281598D01*
X51602777Y-48299777D01*
X51584598Y-48316253D01*
X51564893Y-48330867D01*
X51543849Y-48343480D01*
X51521671Y-48353970D01*
X51498571Y-48362235D01*
X51474773Y-48368196D01*
X51450504Y-48371796D01*
X51426000Y-48373000D01*
X50501000Y-48373000D01*
X50476496Y-48371796D01*
X50452227Y-48368196D01*
X50428429Y-48362235D01*
X50405329Y-48353970D01*
X50383151Y-48343480D01*
X50362107Y-48330867D01*
X50342402Y-48316253D01*
X50324223Y-48299777D01*
X50307747Y-48281598D01*
X50293133Y-48261893D01*
X50280520Y-48240849D01*
X50270030Y-48218671D01*
X50261765Y-48195571D01*
X50255804Y-48171773D01*
X50252204Y-48147504D01*
X50251000Y-48123000D01*
X50251000Y-46873000D01*
X50252204Y-46848496D01*
X50255804Y-46824227D01*
X50261765Y-46800429D01*
X50270030Y-46777329D01*
X50280520Y-46755151D01*
X50293133Y-46734107D01*
X50307747Y-46714402D01*
X50324223Y-46696223D01*
X50342402Y-46679747D01*
X50362107Y-46665133D01*
X50383151Y-46652520D01*
X50405329Y-46642030D01*
X50428429Y-46633765D01*
X50452227Y-46627804D01*
X50476496Y-46624204D01*
X50501000Y-46623000D01*
X51426000Y-46623000D01*
X51450504Y-46624204D01*
X51450504Y-46624204D01*
G37*
D11*
X50963500Y-47498000D03*
D10*
G36*
X56403504Y-54244204D02*
X56427773Y-54247804D01*
X56451571Y-54253765D01*
X56474671Y-54262030D01*
X56496849Y-54272520D01*
X56517893Y-54285133D01*
X56537598Y-54299747D01*
X56555777Y-54316223D01*
X56572253Y-54334402D01*
X56586867Y-54354107D01*
X56599480Y-54375151D01*
X56609970Y-54397329D01*
X56618235Y-54420429D01*
X56624196Y-54444227D01*
X56627796Y-54468496D01*
X56629000Y-54493000D01*
X56629000Y-55743000D01*
X56627796Y-55767504D01*
X56624196Y-55791773D01*
X56618235Y-55815571D01*
X56609970Y-55838671D01*
X56599480Y-55860849D01*
X56586867Y-55881893D01*
X56572253Y-55901598D01*
X56555777Y-55919777D01*
X56537598Y-55936253D01*
X56517893Y-55950867D01*
X56496849Y-55963480D01*
X56474671Y-55973970D01*
X56451571Y-55982235D01*
X56427773Y-55988196D01*
X56403504Y-55991796D01*
X56379000Y-55993000D01*
X55454000Y-55993000D01*
X55429496Y-55991796D01*
X55405227Y-55988196D01*
X55381429Y-55982235D01*
X55358329Y-55973970D01*
X55336151Y-55963480D01*
X55315107Y-55950867D01*
X55295402Y-55936253D01*
X55277223Y-55919777D01*
X55260747Y-55901598D01*
X55246133Y-55881893D01*
X55233520Y-55860849D01*
X55223030Y-55838671D01*
X55214765Y-55815571D01*
X55208804Y-55791773D01*
X55205204Y-55767504D01*
X55204000Y-55743000D01*
X55204000Y-54493000D01*
X55205204Y-54468496D01*
X55208804Y-54444227D01*
X55214765Y-54420429D01*
X55223030Y-54397329D01*
X55233520Y-54375151D01*
X55246133Y-54354107D01*
X55260747Y-54334402D01*
X55277223Y-54316223D01*
X55295402Y-54299747D01*
X55315107Y-54285133D01*
X55336151Y-54272520D01*
X55358329Y-54262030D01*
X55381429Y-54253765D01*
X55405227Y-54247804D01*
X55429496Y-54244204D01*
X55454000Y-54243000D01*
X56379000Y-54243000D01*
X56403504Y-54244204D01*
X56403504Y-54244204D01*
G37*
D11*
X55916500Y-55118000D03*
D10*
G36*
X59378504Y-54244204D02*
X59402773Y-54247804D01*
X59426571Y-54253765D01*
X59449671Y-54262030D01*
X59471849Y-54272520D01*
X59492893Y-54285133D01*
X59512598Y-54299747D01*
X59530777Y-54316223D01*
X59547253Y-54334402D01*
X59561867Y-54354107D01*
X59574480Y-54375151D01*
X59584970Y-54397329D01*
X59593235Y-54420429D01*
X59599196Y-54444227D01*
X59602796Y-54468496D01*
X59604000Y-54493000D01*
X59604000Y-55743000D01*
X59602796Y-55767504D01*
X59599196Y-55791773D01*
X59593235Y-55815571D01*
X59584970Y-55838671D01*
X59574480Y-55860849D01*
X59561867Y-55881893D01*
X59547253Y-55901598D01*
X59530777Y-55919777D01*
X59512598Y-55936253D01*
X59492893Y-55950867D01*
X59471849Y-55963480D01*
X59449671Y-55973970D01*
X59426571Y-55982235D01*
X59402773Y-55988196D01*
X59378504Y-55991796D01*
X59354000Y-55993000D01*
X58429000Y-55993000D01*
X58404496Y-55991796D01*
X58380227Y-55988196D01*
X58356429Y-55982235D01*
X58333329Y-55973970D01*
X58311151Y-55963480D01*
X58290107Y-55950867D01*
X58270402Y-55936253D01*
X58252223Y-55919777D01*
X58235747Y-55901598D01*
X58221133Y-55881893D01*
X58208520Y-55860849D01*
X58198030Y-55838671D01*
X58189765Y-55815571D01*
X58183804Y-55791773D01*
X58180204Y-55767504D01*
X58179000Y-55743000D01*
X58179000Y-54493000D01*
X58180204Y-54468496D01*
X58183804Y-54444227D01*
X58189765Y-54420429D01*
X58198030Y-54397329D01*
X58208520Y-54375151D01*
X58221133Y-54354107D01*
X58235747Y-54334402D01*
X58252223Y-54316223D01*
X58270402Y-54299747D01*
X58290107Y-54285133D01*
X58311151Y-54272520D01*
X58333329Y-54262030D01*
X58356429Y-54253765D01*
X58380227Y-54247804D01*
X58404496Y-54244204D01*
X58429000Y-54243000D01*
X59354000Y-54243000D01*
X59378504Y-54244204D01*
X59378504Y-54244204D01*
G37*
D11*
X58891500Y-55118000D03*
D10*
G36*
X61863504Y-42124204D02*
X61887773Y-42127804D01*
X61911571Y-42133765D01*
X61934671Y-42142030D01*
X61956849Y-42152520D01*
X61977893Y-42165133D01*
X61997598Y-42179747D01*
X62015777Y-42196223D01*
X62032253Y-42214402D01*
X62046867Y-42234107D01*
X62059480Y-42255151D01*
X62069970Y-42277329D01*
X62078235Y-42300429D01*
X62084196Y-42324227D01*
X62087796Y-42348496D01*
X62089000Y-42373000D01*
X62089000Y-43298000D01*
X62087796Y-43322504D01*
X62084196Y-43346773D01*
X62078235Y-43370571D01*
X62069970Y-43393671D01*
X62059480Y-43415849D01*
X62046867Y-43436893D01*
X62032253Y-43456598D01*
X62015777Y-43474777D01*
X61997598Y-43491253D01*
X61977893Y-43505867D01*
X61956849Y-43518480D01*
X61934671Y-43528970D01*
X61911571Y-43537235D01*
X61887773Y-43543196D01*
X61863504Y-43546796D01*
X61839000Y-43548000D01*
X60589000Y-43548000D01*
X60564496Y-43546796D01*
X60540227Y-43543196D01*
X60516429Y-43537235D01*
X60493329Y-43528970D01*
X60471151Y-43518480D01*
X60450107Y-43505867D01*
X60430402Y-43491253D01*
X60412223Y-43474777D01*
X60395747Y-43456598D01*
X60381133Y-43436893D01*
X60368520Y-43415849D01*
X60358030Y-43393671D01*
X60349765Y-43370571D01*
X60343804Y-43346773D01*
X60340204Y-43322504D01*
X60339000Y-43298000D01*
X60339000Y-42373000D01*
X60340204Y-42348496D01*
X60343804Y-42324227D01*
X60349765Y-42300429D01*
X60358030Y-42277329D01*
X60368520Y-42255151D01*
X60381133Y-42234107D01*
X60395747Y-42214402D01*
X60412223Y-42196223D01*
X60430402Y-42179747D01*
X60450107Y-42165133D01*
X60471151Y-42152520D01*
X60493329Y-42142030D01*
X60516429Y-42133765D01*
X60540227Y-42127804D01*
X60564496Y-42124204D01*
X60589000Y-42123000D01*
X61839000Y-42123000D01*
X61863504Y-42124204D01*
X61863504Y-42124204D01*
G37*
D11*
X61214000Y-42835500D03*
D10*
G36*
X61863504Y-45099204D02*
X61887773Y-45102804D01*
X61911571Y-45108765D01*
X61934671Y-45117030D01*
X61956849Y-45127520D01*
X61977893Y-45140133D01*
X61997598Y-45154747D01*
X62015777Y-45171223D01*
X62032253Y-45189402D01*
X62046867Y-45209107D01*
X62059480Y-45230151D01*
X62069970Y-45252329D01*
X62078235Y-45275429D01*
X62084196Y-45299227D01*
X62087796Y-45323496D01*
X62089000Y-45348000D01*
X62089000Y-46273000D01*
X62087796Y-46297504D01*
X62084196Y-46321773D01*
X62078235Y-46345571D01*
X62069970Y-46368671D01*
X62059480Y-46390849D01*
X62046867Y-46411893D01*
X62032253Y-46431598D01*
X62015777Y-46449777D01*
X61997598Y-46466253D01*
X61977893Y-46480867D01*
X61956849Y-46493480D01*
X61934671Y-46503970D01*
X61911571Y-46512235D01*
X61887773Y-46518196D01*
X61863504Y-46521796D01*
X61839000Y-46523000D01*
X60589000Y-46523000D01*
X60564496Y-46521796D01*
X60540227Y-46518196D01*
X60516429Y-46512235D01*
X60493329Y-46503970D01*
X60471151Y-46493480D01*
X60450107Y-46480867D01*
X60430402Y-46466253D01*
X60412223Y-46449777D01*
X60395747Y-46431598D01*
X60381133Y-46411893D01*
X60368520Y-46390849D01*
X60358030Y-46368671D01*
X60349765Y-46345571D01*
X60343804Y-46321773D01*
X60340204Y-46297504D01*
X60339000Y-46273000D01*
X60339000Y-45348000D01*
X60340204Y-45323496D01*
X60343804Y-45299227D01*
X60349765Y-45275429D01*
X60358030Y-45252329D01*
X60368520Y-45230151D01*
X60381133Y-45209107D01*
X60395747Y-45189402D01*
X60412223Y-45171223D01*
X60430402Y-45154747D01*
X60450107Y-45140133D01*
X60471151Y-45127520D01*
X60493329Y-45117030D01*
X60516429Y-45108765D01*
X60540227Y-45102804D01*
X60564496Y-45099204D01*
X60589000Y-45098000D01*
X61839000Y-45098000D01*
X61863504Y-45099204D01*
X61863504Y-45099204D01*
G37*
D11*
X61214000Y-45810500D03*
D10*
G36*
X61863504Y-49998204D02*
X61887773Y-50001804D01*
X61911571Y-50007765D01*
X61934671Y-50016030D01*
X61956849Y-50026520D01*
X61977893Y-50039133D01*
X61997598Y-50053747D01*
X62015777Y-50070223D01*
X62032253Y-50088402D01*
X62046867Y-50108107D01*
X62059480Y-50129151D01*
X62069970Y-50151329D01*
X62078235Y-50174429D01*
X62084196Y-50198227D01*
X62087796Y-50222496D01*
X62089000Y-50247000D01*
X62089000Y-51172000D01*
X62087796Y-51196504D01*
X62084196Y-51220773D01*
X62078235Y-51244571D01*
X62069970Y-51267671D01*
X62059480Y-51289849D01*
X62046867Y-51310893D01*
X62032253Y-51330598D01*
X62015777Y-51348777D01*
X61997598Y-51365253D01*
X61977893Y-51379867D01*
X61956849Y-51392480D01*
X61934671Y-51402970D01*
X61911571Y-51411235D01*
X61887773Y-51417196D01*
X61863504Y-51420796D01*
X61839000Y-51422000D01*
X60589000Y-51422000D01*
X60564496Y-51420796D01*
X60540227Y-51417196D01*
X60516429Y-51411235D01*
X60493329Y-51402970D01*
X60471151Y-51392480D01*
X60450107Y-51379867D01*
X60430402Y-51365253D01*
X60412223Y-51348777D01*
X60395747Y-51330598D01*
X60381133Y-51310893D01*
X60368520Y-51289849D01*
X60358030Y-51267671D01*
X60349765Y-51244571D01*
X60343804Y-51220773D01*
X60340204Y-51196504D01*
X60339000Y-51172000D01*
X60339000Y-50247000D01*
X60340204Y-50222496D01*
X60343804Y-50198227D01*
X60349765Y-50174429D01*
X60358030Y-50151329D01*
X60368520Y-50129151D01*
X60381133Y-50108107D01*
X60395747Y-50088402D01*
X60412223Y-50070223D01*
X60430402Y-50053747D01*
X60450107Y-50039133D01*
X60471151Y-50026520D01*
X60493329Y-50016030D01*
X60516429Y-50007765D01*
X60540227Y-50001804D01*
X60564496Y-49998204D01*
X60589000Y-49997000D01*
X61839000Y-49997000D01*
X61863504Y-49998204D01*
X61863504Y-49998204D01*
G37*
D11*
X61214000Y-50709500D03*
D10*
G36*
X61863504Y-52973204D02*
X61887773Y-52976804D01*
X61911571Y-52982765D01*
X61934671Y-52991030D01*
X61956849Y-53001520D01*
X61977893Y-53014133D01*
X61997598Y-53028747D01*
X62015777Y-53045223D01*
X62032253Y-53063402D01*
X62046867Y-53083107D01*
X62059480Y-53104151D01*
X62069970Y-53126329D01*
X62078235Y-53149429D01*
X62084196Y-53173227D01*
X62087796Y-53197496D01*
X62089000Y-53222000D01*
X62089000Y-54147000D01*
X62087796Y-54171504D01*
X62084196Y-54195773D01*
X62078235Y-54219571D01*
X62069970Y-54242671D01*
X62059480Y-54264849D01*
X62046867Y-54285893D01*
X62032253Y-54305598D01*
X62015777Y-54323777D01*
X61997598Y-54340253D01*
X61977893Y-54354867D01*
X61956849Y-54367480D01*
X61934671Y-54377970D01*
X61911571Y-54386235D01*
X61887773Y-54392196D01*
X61863504Y-54395796D01*
X61839000Y-54397000D01*
X60589000Y-54397000D01*
X60564496Y-54395796D01*
X60540227Y-54392196D01*
X60516429Y-54386235D01*
X60493329Y-54377970D01*
X60471151Y-54367480D01*
X60450107Y-54354867D01*
X60430402Y-54340253D01*
X60412223Y-54323777D01*
X60395747Y-54305598D01*
X60381133Y-54285893D01*
X60368520Y-54264849D01*
X60358030Y-54242671D01*
X60349765Y-54219571D01*
X60343804Y-54195773D01*
X60340204Y-54171504D01*
X60339000Y-54147000D01*
X60339000Y-53222000D01*
X60340204Y-53197496D01*
X60343804Y-53173227D01*
X60349765Y-53149429D01*
X60358030Y-53126329D01*
X60368520Y-53104151D01*
X60381133Y-53083107D01*
X60395747Y-53063402D01*
X60412223Y-53045223D01*
X60430402Y-53028747D01*
X60450107Y-53014133D01*
X60471151Y-53001520D01*
X60493329Y-52991030D01*
X60516429Y-52982765D01*
X60540227Y-52976804D01*
X60564496Y-52973204D01*
X60589000Y-52972000D01*
X61839000Y-52972000D01*
X61863504Y-52973204D01*
X61863504Y-52973204D01*
G37*
D11*
X61214000Y-53684500D03*
D10*
G36*
X72023504Y-39457204D02*
X72047773Y-39460804D01*
X72071571Y-39466765D01*
X72094671Y-39475030D01*
X72116849Y-39485520D01*
X72137893Y-39498133D01*
X72157598Y-39512747D01*
X72175777Y-39529223D01*
X72192253Y-39547402D01*
X72206867Y-39567107D01*
X72219480Y-39588151D01*
X72229970Y-39610329D01*
X72238235Y-39633429D01*
X72244196Y-39657227D01*
X72247796Y-39681496D01*
X72249000Y-39706000D01*
X72249000Y-40631000D01*
X72247796Y-40655504D01*
X72244196Y-40679773D01*
X72238235Y-40703571D01*
X72229970Y-40726671D01*
X72219480Y-40748849D01*
X72206867Y-40769893D01*
X72192253Y-40789598D01*
X72175777Y-40807777D01*
X72157598Y-40824253D01*
X72137893Y-40838867D01*
X72116849Y-40851480D01*
X72094671Y-40861970D01*
X72071571Y-40870235D01*
X72047773Y-40876196D01*
X72023504Y-40879796D01*
X71999000Y-40881000D01*
X70749000Y-40881000D01*
X70724496Y-40879796D01*
X70700227Y-40876196D01*
X70676429Y-40870235D01*
X70653329Y-40861970D01*
X70631151Y-40851480D01*
X70610107Y-40838867D01*
X70590402Y-40824253D01*
X70572223Y-40807777D01*
X70555747Y-40789598D01*
X70541133Y-40769893D01*
X70528520Y-40748849D01*
X70518030Y-40726671D01*
X70509765Y-40703571D01*
X70503804Y-40679773D01*
X70500204Y-40655504D01*
X70499000Y-40631000D01*
X70499000Y-39706000D01*
X70500204Y-39681496D01*
X70503804Y-39657227D01*
X70509765Y-39633429D01*
X70518030Y-39610329D01*
X70528520Y-39588151D01*
X70541133Y-39567107D01*
X70555747Y-39547402D01*
X70572223Y-39529223D01*
X70590402Y-39512747D01*
X70610107Y-39498133D01*
X70631151Y-39485520D01*
X70653329Y-39475030D01*
X70676429Y-39466765D01*
X70700227Y-39460804D01*
X70724496Y-39457204D01*
X70749000Y-39456000D01*
X71999000Y-39456000D01*
X72023504Y-39457204D01*
X72023504Y-39457204D01*
G37*
D11*
X71374000Y-40168500D03*
D10*
G36*
X72023504Y-42432204D02*
X72047773Y-42435804D01*
X72071571Y-42441765D01*
X72094671Y-42450030D01*
X72116849Y-42460520D01*
X72137893Y-42473133D01*
X72157598Y-42487747D01*
X72175777Y-42504223D01*
X72192253Y-42522402D01*
X72206867Y-42542107D01*
X72219480Y-42563151D01*
X72229970Y-42585329D01*
X72238235Y-42608429D01*
X72244196Y-42632227D01*
X72247796Y-42656496D01*
X72249000Y-42681000D01*
X72249000Y-43606000D01*
X72247796Y-43630504D01*
X72244196Y-43654773D01*
X72238235Y-43678571D01*
X72229970Y-43701671D01*
X72219480Y-43723849D01*
X72206867Y-43744893D01*
X72192253Y-43764598D01*
X72175777Y-43782777D01*
X72157598Y-43799253D01*
X72137893Y-43813867D01*
X72116849Y-43826480D01*
X72094671Y-43836970D01*
X72071571Y-43845235D01*
X72047773Y-43851196D01*
X72023504Y-43854796D01*
X71999000Y-43856000D01*
X70749000Y-43856000D01*
X70724496Y-43854796D01*
X70700227Y-43851196D01*
X70676429Y-43845235D01*
X70653329Y-43836970D01*
X70631151Y-43826480D01*
X70610107Y-43813867D01*
X70590402Y-43799253D01*
X70572223Y-43782777D01*
X70555747Y-43764598D01*
X70541133Y-43744893D01*
X70528520Y-43723849D01*
X70518030Y-43701671D01*
X70509765Y-43678571D01*
X70503804Y-43654773D01*
X70500204Y-43630504D01*
X70499000Y-43606000D01*
X70499000Y-42681000D01*
X70500204Y-42656496D01*
X70503804Y-42632227D01*
X70509765Y-42608429D01*
X70518030Y-42585329D01*
X70528520Y-42563151D01*
X70541133Y-42542107D01*
X70555747Y-42522402D01*
X70572223Y-42504223D01*
X70590402Y-42487747D01*
X70610107Y-42473133D01*
X70631151Y-42460520D01*
X70653329Y-42450030D01*
X70676429Y-42441765D01*
X70700227Y-42435804D01*
X70724496Y-42432204D01*
X70749000Y-42431000D01*
X71999000Y-42431000D01*
X72023504Y-42432204D01*
X72023504Y-42432204D01*
G37*
D11*
X71374000Y-43143500D03*
D10*
G36*
X72023504Y-54624204D02*
X72047773Y-54627804D01*
X72071571Y-54633765D01*
X72094671Y-54642030D01*
X72116849Y-54652520D01*
X72137893Y-54665133D01*
X72157598Y-54679747D01*
X72175777Y-54696223D01*
X72192253Y-54714402D01*
X72206867Y-54734107D01*
X72219480Y-54755151D01*
X72229970Y-54777329D01*
X72238235Y-54800429D01*
X72244196Y-54824227D01*
X72247796Y-54848496D01*
X72249000Y-54873000D01*
X72249000Y-55798000D01*
X72247796Y-55822504D01*
X72244196Y-55846773D01*
X72238235Y-55870571D01*
X72229970Y-55893671D01*
X72219480Y-55915849D01*
X72206867Y-55936893D01*
X72192253Y-55956598D01*
X72175777Y-55974777D01*
X72157598Y-55991253D01*
X72137893Y-56005867D01*
X72116849Y-56018480D01*
X72094671Y-56028970D01*
X72071571Y-56037235D01*
X72047773Y-56043196D01*
X72023504Y-56046796D01*
X71999000Y-56048000D01*
X70749000Y-56048000D01*
X70724496Y-56046796D01*
X70700227Y-56043196D01*
X70676429Y-56037235D01*
X70653329Y-56028970D01*
X70631151Y-56018480D01*
X70610107Y-56005867D01*
X70590402Y-55991253D01*
X70572223Y-55974777D01*
X70555747Y-55956598D01*
X70541133Y-55936893D01*
X70528520Y-55915849D01*
X70518030Y-55893671D01*
X70509765Y-55870571D01*
X70503804Y-55846773D01*
X70500204Y-55822504D01*
X70499000Y-55798000D01*
X70499000Y-54873000D01*
X70500204Y-54848496D01*
X70503804Y-54824227D01*
X70509765Y-54800429D01*
X70518030Y-54777329D01*
X70528520Y-54755151D01*
X70541133Y-54734107D01*
X70555747Y-54714402D01*
X70572223Y-54696223D01*
X70590402Y-54679747D01*
X70610107Y-54665133D01*
X70631151Y-54652520D01*
X70653329Y-54642030D01*
X70676429Y-54633765D01*
X70700227Y-54627804D01*
X70724496Y-54624204D01*
X70749000Y-54623000D01*
X71999000Y-54623000D01*
X72023504Y-54624204D01*
X72023504Y-54624204D01*
G37*
D11*
X71374000Y-55335500D03*
D10*
G36*
X72023504Y-51649204D02*
X72047773Y-51652804D01*
X72071571Y-51658765D01*
X72094671Y-51667030D01*
X72116849Y-51677520D01*
X72137893Y-51690133D01*
X72157598Y-51704747D01*
X72175777Y-51721223D01*
X72192253Y-51739402D01*
X72206867Y-51759107D01*
X72219480Y-51780151D01*
X72229970Y-51802329D01*
X72238235Y-51825429D01*
X72244196Y-51849227D01*
X72247796Y-51873496D01*
X72249000Y-51898000D01*
X72249000Y-52823000D01*
X72247796Y-52847504D01*
X72244196Y-52871773D01*
X72238235Y-52895571D01*
X72229970Y-52918671D01*
X72219480Y-52940849D01*
X72206867Y-52961893D01*
X72192253Y-52981598D01*
X72175777Y-52999777D01*
X72157598Y-53016253D01*
X72137893Y-53030867D01*
X72116849Y-53043480D01*
X72094671Y-53053970D01*
X72071571Y-53062235D01*
X72047773Y-53068196D01*
X72023504Y-53071796D01*
X71999000Y-53073000D01*
X70749000Y-53073000D01*
X70724496Y-53071796D01*
X70700227Y-53068196D01*
X70676429Y-53062235D01*
X70653329Y-53053970D01*
X70631151Y-53043480D01*
X70610107Y-53030867D01*
X70590402Y-53016253D01*
X70572223Y-52999777D01*
X70555747Y-52981598D01*
X70541133Y-52961893D01*
X70528520Y-52940849D01*
X70518030Y-52918671D01*
X70509765Y-52895571D01*
X70503804Y-52871773D01*
X70500204Y-52847504D01*
X70499000Y-52823000D01*
X70499000Y-51898000D01*
X70500204Y-51873496D01*
X70503804Y-51849227D01*
X70509765Y-51825429D01*
X70518030Y-51802329D01*
X70528520Y-51780151D01*
X70541133Y-51759107D01*
X70555747Y-51739402D01*
X70572223Y-51721223D01*
X70590402Y-51704747D01*
X70610107Y-51690133D01*
X70631151Y-51677520D01*
X70653329Y-51667030D01*
X70676429Y-51658765D01*
X70700227Y-51652804D01*
X70724496Y-51649204D01*
X70749000Y-51648000D01*
X71999000Y-51648000D01*
X72023504Y-51649204D01*
X72023504Y-51649204D01*
G37*
D11*
X71374000Y-52360500D03*
D12*
X74942784Y-46190994D03*
X71592784Y-49240994D03*
X74942784Y-49240994D03*
X71592784Y-46190994D03*
D13*
X79567784Y-45435994D03*
X79567784Y-49995994D03*
D14*
X68199000Y-46642000D03*
X66929000Y-46642000D03*
X65659000Y-46642000D03*
X64389000Y-46642000D03*
X64389000Y-41242000D03*
X65659000Y-41242000D03*
X66929000Y-41242000D03*
X68199000Y-41242000D03*
X64389000Y-55024000D03*
X65659000Y-55024000D03*
X66929000Y-55024000D03*
X68199000Y-55024000D03*
X68199000Y-49624000D03*
X66929000Y-49624000D03*
X65659000Y-49624000D03*
X64389000Y-49624000D03*
M02*
