%TF.GenerationSoftware,KiCad,Pcbnew,(5.0.2)-1*%
%TF.CreationDate,2019-07-05T20:57:08+02:00*%
%TF.ProjectId,PSAVanCanBridge_v11,56616e43-616e-4457-9370-33322e6b6963,rev?*%
%TF.SameCoordinates,Original*%
%TF.FileFunction,Copper,L2,Bot*%
%TF.FilePolarity,Positive*%
%FSLAX46Y46*%
G04 Gerber Fmt 4.6, Leading zero omitted, Abs format (unit mm)*
G04 Created by KiCad (PCBNEW (5.0.2)-1) date 05/07/2019 20:57:08*
%MOMM*%
%LPD*%
G01*
G04 APERTURE LIST*
%ADD10R,1.700000X1.700000*%
%ADD11O,1.700000X1.700000*%
%ADD12C,1.200000*%
%ADD13R,1.200000X1.200000*%
%ADD14C,0.100000*%
%ADD15C,1.700000*%
%ADD16O,1.950000X1.700000*%
%ADD17R,1.600000X1.600000*%
%ADD18C,1.600000*%
%ADD19O,1.500000X1.050000*%
%ADD20R,1.500000X1.050000*%
%ADD21C,0.800000*%
%ADD22C,0.900000*%
%ADD23C,0.250000*%
%ADD24C,0.400000*%
%ADD25C,0.254000*%
G04 APERTURE END LIST*
D10*
X50800000Y-43180000D03*
D11*
X53340000Y-43180000D03*
X55880000Y-43180000D03*
X58420000Y-43180000D03*
D12*
X79502000Y-42767000D03*
D13*
X79502000Y-40767000D03*
D10*
X86741000Y-54229000D03*
D11*
X86741000Y-51689000D03*
X86741000Y-49149000D03*
X86741000Y-46609000D03*
X86741000Y-44069000D03*
X86741000Y-41529000D03*
D14*
G36*
X90411504Y-53253204D02*
X90435773Y-53256804D01*
X90459571Y-53262765D01*
X90482671Y-53271030D01*
X90504849Y-53281520D01*
X90525893Y-53294133D01*
X90545598Y-53308747D01*
X90563777Y-53325223D01*
X90580253Y-53343402D01*
X90594867Y-53363107D01*
X90607480Y-53384151D01*
X90617970Y-53406329D01*
X90626235Y-53429429D01*
X90632196Y-53453227D01*
X90635796Y-53477496D01*
X90637000Y-53502000D01*
X90637000Y-54702000D01*
X90635796Y-54726504D01*
X90632196Y-54750773D01*
X90626235Y-54774571D01*
X90617970Y-54797671D01*
X90607480Y-54819849D01*
X90594867Y-54840893D01*
X90580253Y-54860598D01*
X90563777Y-54878777D01*
X90545598Y-54895253D01*
X90525893Y-54909867D01*
X90504849Y-54922480D01*
X90482671Y-54932970D01*
X90459571Y-54941235D01*
X90435773Y-54947196D01*
X90411504Y-54950796D01*
X90387000Y-54952000D01*
X88937000Y-54952000D01*
X88912496Y-54950796D01*
X88888227Y-54947196D01*
X88864429Y-54941235D01*
X88841329Y-54932970D01*
X88819151Y-54922480D01*
X88798107Y-54909867D01*
X88778402Y-54895253D01*
X88760223Y-54878777D01*
X88743747Y-54860598D01*
X88729133Y-54840893D01*
X88716520Y-54819849D01*
X88706030Y-54797671D01*
X88697765Y-54774571D01*
X88691804Y-54750773D01*
X88688204Y-54726504D01*
X88687000Y-54702000D01*
X88687000Y-53502000D01*
X88688204Y-53477496D01*
X88691804Y-53453227D01*
X88697765Y-53429429D01*
X88706030Y-53406329D01*
X88716520Y-53384151D01*
X88729133Y-53363107D01*
X88743747Y-53343402D01*
X88760223Y-53325223D01*
X88778402Y-53308747D01*
X88798107Y-53294133D01*
X88819151Y-53281520D01*
X88841329Y-53271030D01*
X88864429Y-53262765D01*
X88888227Y-53256804D01*
X88912496Y-53253204D01*
X88937000Y-53252000D01*
X90387000Y-53252000D01*
X90411504Y-53253204D01*
X90411504Y-53253204D01*
G37*
D15*
X89662000Y-54102000D03*
D16*
X89662000Y-51602000D03*
X89662000Y-49102000D03*
X89662000Y-46602000D03*
X89662000Y-44102000D03*
X89662000Y-41602000D03*
D11*
X53340000Y-37719000D03*
X55880000Y-37719000D03*
X58420000Y-37719000D03*
X60960000Y-37719000D03*
X63500000Y-37719000D03*
X66040000Y-37719000D03*
X68580000Y-37719000D03*
X71120000Y-37719000D03*
X73660000Y-37719000D03*
X76200000Y-37719000D03*
X78740000Y-37719000D03*
X81280000Y-37719000D03*
X83820000Y-37719000D03*
X86360000Y-37719000D03*
D10*
X88900000Y-37719000D03*
X88900000Y-57785000D03*
D11*
X86360000Y-57785000D03*
X83820000Y-57785000D03*
X81280000Y-57785000D03*
X78740000Y-57785000D03*
X76200000Y-57785000D03*
X73660000Y-57785000D03*
X71120000Y-57785000D03*
X68580000Y-57785000D03*
X66040000Y-57785000D03*
X63500000Y-57785000D03*
X60960000Y-57785000D03*
X58420000Y-57785000D03*
X55880000Y-57785000D03*
X53340000Y-57785000D03*
D10*
X50800000Y-40513000D03*
D11*
X53340000Y-40513000D03*
X55880000Y-40513000D03*
X58420000Y-40513000D03*
D17*
X51054000Y-50546000D03*
D18*
X51054000Y-53746000D03*
D19*
X57150000Y-51054000D03*
X57150000Y-52324000D03*
D20*
X57150000Y-49784000D03*
D13*
X79629000Y-52832000D03*
D12*
X79629000Y-54832000D03*
D11*
X53340000Y-60452000D03*
X55880000Y-60452000D03*
X58420000Y-60452000D03*
X60960000Y-60452000D03*
X63500000Y-60452000D03*
X66040000Y-60452000D03*
X68580000Y-60452000D03*
X71120000Y-60452000D03*
X73660000Y-60452000D03*
X76200000Y-60452000D03*
X78740000Y-60452000D03*
X81280000Y-60452000D03*
X83820000Y-60452000D03*
X86360000Y-60452000D03*
D10*
X88900000Y-60452000D03*
X88900000Y-35052000D03*
D11*
X86360000Y-35052000D03*
X83820000Y-35052000D03*
X81280000Y-35052000D03*
X78740000Y-35052000D03*
X76200000Y-35052000D03*
X73660000Y-35052000D03*
X71120000Y-35052000D03*
X68580000Y-35052000D03*
X66040000Y-35052000D03*
X63500000Y-35052000D03*
X60960000Y-35052000D03*
X58420000Y-35052000D03*
X55880000Y-35052000D03*
X53340000Y-35052000D03*
D21*
X66421000Y-53340000D03*
X66421000Y-39751000D03*
D22*
X70703784Y-46190994D03*
X72481784Y-45301994D03*
X71592784Y-47079994D03*
X70703784Y-47079994D03*
X72481784Y-46190994D03*
X71592784Y-46190994D03*
X71592784Y-45301994D03*
X70703784Y-45301994D03*
X72481784Y-47079994D03*
X70703784Y-49238994D03*
X72481784Y-48349994D03*
X71592784Y-50127994D03*
X72481784Y-49238994D03*
X71592784Y-49238994D03*
X71592784Y-48349994D03*
X70703784Y-48349994D03*
X70703784Y-50127994D03*
X72481784Y-50127994D03*
X74005784Y-49238994D03*
X75783784Y-48349994D03*
X75783784Y-50127994D03*
X75783784Y-49238994D03*
X74005784Y-48349994D03*
X74894784Y-49238994D03*
X74894784Y-50127994D03*
X74894784Y-48349994D03*
X74005784Y-50127994D03*
X75783784Y-46190994D03*
X74005784Y-46190994D03*
X75783784Y-47079994D03*
X74894784Y-45301994D03*
X74005784Y-47079994D03*
X74005784Y-45301994D03*
X74894784Y-47079994D03*
X75783784Y-45301994D03*
X74894784Y-46190994D03*
D21*
X51562000Y-38608000D03*
X91313000Y-36322000D03*
X64770000Y-53340000D03*
X77216000Y-50038000D03*
X77470000Y-45466000D03*
X68961000Y-51562000D03*
X68961000Y-53340000D03*
X91567000Y-51562000D03*
X93345000Y-51562000D03*
D23*
X83820000Y-36254081D02*
X83820000Y-37719000D01*
X83820000Y-35052000D02*
X83820000Y-36254081D01*
X81280000Y-36516919D02*
X81280000Y-35052000D01*
X81280000Y-37719000D02*
X81280000Y-36516919D01*
X76200000Y-36516919D02*
X76200000Y-35052000D01*
X76200000Y-37719000D02*
X76200000Y-36516919D01*
X73660000Y-36254081D02*
X73660000Y-37719000D01*
X73660000Y-35052000D02*
X73660000Y-36254081D01*
X53340000Y-35052000D02*
X53340000Y-37719000D01*
X53340000Y-38921081D02*
X53340000Y-40513000D01*
X53340000Y-37719000D02*
X53340000Y-38921081D01*
X53340000Y-57785000D02*
X53340000Y-60452000D01*
X55880000Y-58987081D02*
X55880000Y-60452000D01*
X55880000Y-57785000D02*
X55880000Y-58987081D01*
X58420000Y-57785000D02*
X58420000Y-60452000D01*
X73660000Y-57785000D02*
X73660000Y-60452000D01*
X76200000Y-59249919D02*
X76200000Y-57785000D01*
X76200000Y-60452000D02*
X76200000Y-59249919D01*
X78740000Y-57785000D02*
X78740000Y-60452000D01*
D24*
X87968000Y-39751000D02*
X66421000Y-39751000D01*
X88900000Y-37719000D02*
X88900000Y-38819000D01*
X88900000Y-38819000D02*
X87968000Y-39751000D01*
X88900000Y-36152000D02*
X88900000Y-37719000D01*
X88900000Y-35052000D02*
X88900000Y-36152000D01*
X66421000Y-52578000D02*
X66421000Y-53340000D01*
X66421000Y-52901315D02*
X66421000Y-52578000D01*
D23*
X66294000Y-43180000D02*
X66421000Y-43307000D01*
D24*
X58420000Y-43180000D02*
X66294000Y-43180000D01*
X66421000Y-52578000D02*
X66421000Y-43307000D01*
X66421000Y-43307000D02*
X66421000Y-39751000D01*
D23*
X86360000Y-58987081D02*
X86360000Y-60452000D01*
X86360000Y-57785000D02*
X86360000Y-58987081D01*
X86360000Y-36254081D02*
X86360000Y-37719000D01*
X86360000Y-35052000D02*
X86360000Y-36254081D01*
D24*
X77216000Y-50603685D02*
X77216000Y-50038000D01*
X77216000Y-51650000D02*
X77216000Y-50603685D01*
X78398000Y-52832000D02*
X79629000Y-52832000D01*
X77216000Y-51650000D02*
X78398000Y-52832000D01*
X88900000Y-56515000D02*
X88900000Y-57785000D01*
X77470000Y-44900315D02*
X77470000Y-45466000D01*
X77470000Y-41949000D02*
X77470000Y-44900315D01*
X78652000Y-40767000D02*
X77470000Y-41949000D01*
X79502000Y-40767000D02*
X78652000Y-40767000D01*
X77470000Y-46031685D02*
X78682315Y-47244000D01*
X77470000Y-45466000D02*
X77470000Y-46031685D01*
X78682315Y-47244000D02*
X84201000Y-47244000D01*
X84201000Y-47244000D02*
X84836000Y-47879000D01*
X84836000Y-47879000D02*
X84836000Y-55118000D01*
X88900000Y-58885000D02*
X88900000Y-60452000D01*
X88900000Y-57785000D02*
X88900000Y-58885000D01*
X50423001Y-56138001D02*
X84069999Y-56138001D01*
X49276000Y-54991000D02*
X50423001Y-56138001D01*
X88523001Y-56138001D02*
X88900000Y-56515000D01*
X84836000Y-55118000D02*
X84836000Y-56138001D01*
X84069999Y-56138001D02*
X84836000Y-56138001D01*
X84836000Y-56138001D02*
X88523001Y-56138001D01*
X49700000Y-40513000D02*
X50800000Y-40513000D01*
X49276000Y-40937000D02*
X49700000Y-40513000D01*
X49276000Y-54991000D02*
X49276000Y-40937000D01*
D23*
X78740000Y-36254081D02*
X78740000Y-37719000D01*
X78740000Y-35052000D02*
X78740000Y-36254081D01*
X71120000Y-37719000D02*
X71120000Y-35052000D01*
X63500000Y-36254081D02*
X63500000Y-37719000D01*
X63500000Y-35052000D02*
X63500000Y-36254081D01*
X55880000Y-36254081D02*
X55880000Y-37719000D01*
X55880000Y-35052000D02*
X55880000Y-36254081D01*
X55880000Y-38921081D02*
X55880000Y-40513000D01*
X55880000Y-37719000D02*
X55880000Y-38921081D01*
X60960000Y-59249919D02*
X60960000Y-57785000D01*
X60960000Y-60452000D02*
X60960000Y-59249919D01*
X71120000Y-58987081D02*
X71120000Y-60452000D01*
X71120000Y-57785000D02*
X71120000Y-58987081D01*
X68580000Y-36254081D02*
X68580000Y-37719000D01*
X68580000Y-35052000D02*
X68580000Y-36254081D01*
X66040000Y-36516919D02*
X66040000Y-35052000D01*
X66040000Y-37719000D02*
X66040000Y-36516919D01*
X63500000Y-58987081D02*
X63500000Y-60452000D01*
X63500000Y-57785000D02*
X63500000Y-58987081D01*
X66040000Y-59249919D02*
X66040000Y-57785000D01*
X66040000Y-60452000D02*
X66040000Y-59249919D01*
X68580000Y-58987081D02*
X68580000Y-60452000D01*
X68580000Y-57785000D02*
X68580000Y-58987081D01*
X60960000Y-37719000D02*
X60960000Y-35052000D01*
X58420000Y-35052000D02*
X58420000Y-37719000D01*
X81280000Y-60452000D02*
X81280000Y-57785000D01*
X83820000Y-58987081D02*
X83820000Y-60452000D01*
X83820000Y-57785000D02*
X83820000Y-58987081D01*
X68961000Y-51562000D02*
X68961000Y-53340000D01*
X91567000Y-51562000D02*
X93345000Y-51562000D01*
D24*
X50800000Y-50292000D02*
X51054000Y-50546000D01*
D25*
G36*
X51825908Y-35052000D02*
X51941161Y-35631418D01*
X52269375Y-36122625D01*
X52580000Y-36330178D01*
X52580001Y-36440822D01*
X52269375Y-36648375D01*
X51941161Y-37139582D01*
X51825908Y-37719000D01*
X51941161Y-38298418D01*
X52269375Y-38789625D01*
X52580000Y-38997178D01*
X52580000Y-39234822D01*
X52269375Y-39442375D01*
X52257184Y-39460619D01*
X52248157Y-39415235D01*
X52107809Y-39205191D01*
X51897765Y-39064843D01*
X51650000Y-39015560D01*
X49950000Y-39015560D01*
X49702235Y-39064843D01*
X49492191Y-39205191D01*
X49351843Y-39415235D01*
X49302560Y-39663000D01*
X49302560Y-39774316D01*
X49097999Y-39910999D01*
X49051413Y-39980720D01*
X48743718Y-40288415D01*
X48674000Y-40334999D01*
X48627416Y-40404717D01*
X48489448Y-40611200D01*
X48424643Y-40937000D01*
X48441001Y-41019238D01*
X48441000Y-54908767D01*
X48424643Y-54991000D01*
X48441000Y-55073233D01*
X48441000Y-55073236D01*
X48489448Y-55316800D01*
X48673999Y-55593001D01*
X48743720Y-55639587D01*
X49774417Y-56670286D01*
X49821000Y-56740002D01*
X50097200Y-56924553D01*
X50340764Y-56973001D01*
X50340767Y-56973001D01*
X50423000Y-56989358D01*
X50505233Y-56973001D01*
X52096567Y-56973001D01*
X51941161Y-57205582D01*
X51825908Y-57785000D01*
X51941161Y-58364418D01*
X52269375Y-58855625D01*
X52580000Y-59063178D01*
X52580001Y-59173822D01*
X52269375Y-59381375D01*
X51941161Y-59872582D01*
X51825908Y-60452000D01*
X51932326Y-60987000D01*
X51405019Y-60987000D01*
X51645506Y-60541299D01*
X51766062Y-59817000D01*
X51765786Y-59781877D01*
X51633868Y-59059561D01*
X51275091Y-58418919D01*
X50728142Y-57929030D01*
X50051998Y-57642721D01*
X49319568Y-57590862D01*
X48609828Y-57779046D01*
X47999310Y-58186981D01*
X47979000Y-58213593D01*
X47979000Y-37354913D01*
X48068041Y-37467861D01*
X48684892Y-37866156D01*
X49397500Y-38043169D01*
X50129025Y-37979812D01*
X50800588Y-37682917D01*
X51339775Y-37184498D01*
X51688445Y-36538299D01*
X51809001Y-35814000D01*
X51808725Y-35778877D01*
X51676807Y-35056561D01*
X51374638Y-34517000D01*
X51932326Y-34517000D01*
X51825908Y-35052000D01*
X51825908Y-35052000D01*
G37*
X51825908Y-35052000D02*
X51941161Y-35631418D01*
X52269375Y-36122625D01*
X52580000Y-36330178D01*
X52580001Y-36440822D01*
X52269375Y-36648375D01*
X51941161Y-37139582D01*
X51825908Y-37719000D01*
X51941161Y-38298418D01*
X52269375Y-38789625D01*
X52580000Y-38997178D01*
X52580000Y-39234822D01*
X52269375Y-39442375D01*
X52257184Y-39460619D01*
X52248157Y-39415235D01*
X52107809Y-39205191D01*
X51897765Y-39064843D01*
X51650000Y-39015560D01*
X49950000Y-39015560D01*
X49702235Y-39064843D01*
X49492191Y-39205191D01*
X49351843Y-39415235D01*
X49302560Y-39663000D01*
X49302560Y-39774316D01*
X49097999Y-39910999D01*
X49051413Y-39980720D01*
X48743718Y-40288415D01*
X48674000Y-40334999D01*
X48627416Y-40404717D01*
X48489448Y-40611200D01*
X48424643Y-40937000D01*
X48441001Y-41019238D01*
X48441000Y-54908767D01*
X48424643Y-54991000D01*
X48441000Y-55073233D01*
X48441000Y-55073236D01*
X48489448Y-55316800D01*
X48673999Y-55593001D01*
X48743720Y-55639587D01*
X49774417Y-56670286D01*
X49821000Y-56740002D01*
X50097200Y-56924553D01*
X50340764Y-56973001D01*
X50340767Y-56973001D01*
X50423000Y-56989358D01*
X50505233Y-56973001D01*
X52096567Y-56973001D01*
X51941161Y-57205582D01*
X51825908Y-57785000D01*
X51941161Y-58364418D01*
X52269375Y-58855625D01*
X52580000Y-59063178D01*
X52580001Y-59173822D01*
X52269375Y-59381375D01*
X51941161Y-59872582D01*
X51825908Y-60452000D01*
X51932326Y-60987000D01*
X51405019Y-60987000D01*
X51645506Y-60541299D01*
X51766062Y-59817000D01*
X51765786Y-59781877D01*
X51633868Y-59059561D01*
X51275091Y-58418919D01*
X50728142Y-57929030D01*
X50051998Y-57642721D01*
X49319568Y-57590862D01*
X48609828Y-57779046D01*
X47999310Y-58186981D01*
X47979000Y-58213593D01*
X47979000Y-37354913D01*
X48068041Y-37467861D01*
X48684892Y-37866156D01*
X49397500Y-38043169D01*
X50129025Y-37979812D01*
X50800588Y-37682917D01*
X51339775Y-37184498D01*
X51688445Y-36538299D01*
X51809001Y-35814000D01*
X51808725Y-35778877D01*
X51676807Y-35056561D01*
X51374638Y-34517000D01*
X51932326Y-34517000D01*
X51825908Y-35052000D01*
G36*
X94924845Y-34767680D02*
X94692468Y-35464203D01*
X94698234Y-36198444D01*
X94941524Y-36891231D01*
X95396102Y-37467861D01*
X96012953Y-37866156D01*
X96725561Y-38043169D01*
X97457086Y-37979812D01*
X98071000Y-37708403D01*
X98071001Y-57917114D01*
X97422998Y-57642721D01*
X96690568Y-57590862D01*
X95980828Y-57779046D01*
X95370310Y-58186981D01*
X94924845Y-58770680D01*
X94692468Y-59467203D01*
X94698234Y-60201444D01*
X94941524Y-60894231D01*
X95014657Y-60987000D01*
X90397440Y-60987000D01*
X90397440Y-59602000D01*
X90348157Y-59354235D01*
X90207809Y-59144191D01*
X90169360Y-59118500D01*
X90207809Y-59092809D01*
X90348157Y-58882765D01*
X90397440Y-58635000D01*
X90397440Y-56935000D01*
X90348157Y-56687235D01*
X90207809Y-56477191D01*
X89997765Y-56336843D01*
X89750000Y-56287560D01*
X89706117Y-56287560D01*
X89686552Y-56189199D01*
X89502001Y-55912999D01*
X89432280Y-55866413D01*
X89171588Y-55605721D01*
X89167391Y-55599440D01*
X90387000Y-55599440D01*
X90730435Y-55531126D01*
X91021586Y-55336586D01*
X91216126Y-55045435D01*
X91284440Y-54702000D01*
X91284440Y-53502000D01*
X91216126Y-53158565D01*
X91021586Y-52867414D01*
X90793844Y-52715242D01*
X90857625Y-52672625D01*
X91006347Y-52450046D01*
X91361126Y-52597000D01*
X91772874Y-52597000D01*
X92153280Y-52439431D01*
X92270711Y-52322000D01*
X92641289Y-52322000D01*
X92758720Y-52439431D01*
X93139126Y-52597000D01*
X93550874Y-52597000D01*
X93931280Y-52439431D01*
X94222431Y-52148280D01*
X94380000Y-51767874D01*
X94380000Y-51356126D01*
X94222431Y-50975720D01*
X93931280Y-50684569D01*
X93550874Y-50527000D01*
X93139126Y-50527000D01*
X92758720Y-50684569D01*
X92641289Y-50802000D01*
X92270711Y-50802000D01*
X92153280Y-50684569D01*
X91772874Y-50527000D01*
X91361126Y-50527000D01*
X90980720Y-50684569D01*
X90968291Y-50696998D01*
X90857625Y-50531375D01*
X90589171Y-50352000D01*
X90857625Y-50172625D01*
X91185839Y-49681418D01*
X91301092Y-49102000D01*
X91185839Y-48522582D01*
X90857625Y-48031375D01*
X90589171Y-47852000D01*
X90857625Y-47672625D01*
X91185839Y-47181418D01*
X91301092Y-46602000D01*
X91185839Y-46022582D01*
X90857625Y-45531375D01*
X90584313Y-45348754D01*
X90989497Y-44973193D01*
X91228476Y-44458890D01*
X91107155Y-44229000D01*
X89789000Y-44229000D01*
X89789000Y-44249000D01*
X89535000Y-44249000D01*
X89535000Y-44229000D01*
X88216845Y-44229000D01*
X88147708Y-44360008D01*
X88061155Y-44196000D01*
X86868000Y-44196000D01*
X86868000Y-44216000D01*
X86614000Y-44216000D01*
X86614000Y-44196000D01*
X85420845Y-44196000D01*
X85299524Y-44425890D01*
X85469355Y-44835924D01*
X85859642Y-45264183D01*
X85989478Y-45325157D01*
X85670375Y-45538375D01*
X85342161Y-46029582D01*
X85226908Y-46609000D01*
X85342161Y-47188418D01*
X85371787Y-47232756D01*
X85368283Y-47230415D01*
X84849587Y-46711720D01*
X84803001Y-46641999D01*
X84526801Y-46457448D01*
X84283237Y-46409000D01*
X84283233Y-46409000D01*
X84201000Y-46392643D01*
X84118767Y-46409000D01*
X79028184Y-46409000D01*
X78442338Y-45823155D01*
X78505000Y-45671874D01*
X78505000Y-45260126D01*
X78347431Y-44879720D01*
X78305000Y-44837289D01*
X78305000Y-43629735D01*
X78818870Y-43629735D01*
X78868383Y-43855164D01*
X79333036Y-44014807D01*
X79823413Y-43984482D01*
X80135617Y-43855164D01*
X80185130Y-43629735D01*
X79502000Y-42946605D01*
X78818870Y-43629735D01*
X78305000Y-43629735D01*
X78305000Y-43137861D01*
X78413836Y-43400617D01*
X78639265Y-43450130D01*
X79322395Y-42767000D01*
X79308253Y-42752858D01*
X79487858Y-42573253D01*
X79502000Y-42587395D01*
X79516143Y-42573253D01*
X79695748Y-42752858D01*
X79681605Y-42767000D01*
X80364735Y-43450130D01*
X80590164Y-43400617D01*
X80749807Y-42935964D01*
X80719482Y-42445587D01*
X80590164Y-42133383D01*
X80364737Y-42083871D01*
X80480430Y-41968178D01*
X80426282Y-41914030D01*
X80559809Y-41824809D01*
X80700157Y-41614765D01*
X80749440Y-41367000D01*
X80749440Y-40586000D01*
X85585099Y-40586000D01*
X85342161Y-40949582D01*
X85226908Y-41529000D01*
X85342161Y-42108418D01*
X85670375Y-42599625D01*
X85989478Y-42812843D01*
X85859642Y-42873817D01*
X85469355Y-43302076D01*
X85299524Y-43712110D01*
X85420845Y-43942000D01*
X86614000Y-43942000D01*
X86614000Y-43922000D01*
X86868000Y-43922000D01*
X86868000Y-43942000D01*
X88061155Y-43942000D01*
X88130292Y-43810992D01*
X88216845Y-43975000D01*
X89535000Y-43975000D01*
X89535000Y-43955000D01*
X89789000Y-43955000D01*
X89789000Y-43975000D01*
X91107155Y-43975000D01*
X91228476Y-43745110D01*
X90989497Y-43230807D01*
X90584313Y-42855246D01*
X90857625Y-42672625D01*
X91185839Y-42181418D01*
X91301092Y-41602000D01*
X91185839Y-41022582D01*
X90857625Y-40531375D01*
X90366418Y-40203161D01*
X89933256Y-40117000D01*
X89390744Y-40117000D01*
X88957582Y-40203161D01*
X88466375Y-40531375D01*
X88150644Y-41003900D01*
X88139839Y-40949582D01*
X87898608Y-40588554D01*
X87968000Y-40602357D01*
X88050233Y-40586000D01*
X88050237Y-40586000D01*
X88293801Y-40537552D01*
X88570001Y-40353001D01*
X88616587Y-40283280D01*
X89432282Y-39467586D01*
X89502001Y-39421001D01*
X89638684Y-39216440D01*
X89750000Y-39216440D01*
X89997765Y-39167157D01*
X90207809Y-39026809D01*
X90348157Y-38816765D01*
X90397440Y-38569000D01*
X90397440Y-36869000D01*
X90348157Y-36621235D01*
X90207809Y-36411191D01*
X90169360Y-36385500D01*
X90207809Y-36359809D01*
X90348157Y-36149765D01*
X90397440Y-35902000D01*
X90397440Y-34517000D01*
X95116158Y-34517000D01*
X94924845Y-34767680D01*
X94924845Y-34767680D01*
G37*
X94924845Y-34767680D02*
X94692468Y-35464203D01*
X94698234Y-36198444D01*
X94941524Y-36891231D01*
X95396102Y-37467861D01*
X96012953Y-37866156D01*
X96725561Y-38043169D01*
X97457086Y-37979812D01*
X98071000Y-37708403D01*
X98071001Y-57917114D01*
X97422998Y-57642721D01*
X96690568Y-57590862D01*
X95980828Y-57779046D01*
X95370310Y-58186981D01*
X94924845Y-58770680D01*
X94692468Y-59467203D01*
X94698234Y-60201444D01*
X94941524Y-60894231D01*
X95014657Y-60987000D01*
X90397440Y-60987000D01*
X90397440Y-59602000D01*
X90348157Y-59354235D01*
X90207809Y-59144191D01*
X90169360Y-59118500D01*
X90207809Y-59092809D01*
X90348157Y-58882765D01*
X90397440Y-58635000D01*
X90397440Y-56935000D01*
X90348157Y-56687235D01*
X90207809Y-56477191D01*
X89997765Y-56336843D01*
X89750000Y-56287560D01*
X89706117Y-56287560D01*
X89686552Y-56189199D01*
X89502001Y-55912999D01*
X89432280Y-55866413D01*
X89171588Y-55605721D01*
X89167391Y-55599440D01*
X90387000Y-55599440D01*
X90730435Y-55531126D01*
X91021586Y-55336586D01*
X91216126Y-55045435D01*
X91284440Y-54702000D01*
X91284440Y-53502000D01*
X91216126Y-53158565D01*
X91021586Y-52867414D01*
X90793844Y-52715242D01*
X90857625Y-52672625D01*
X91006347Y-52450046D01*
X91361126Y-52597000D01*
X91772874Y-52597000D01*
X92153280Y-52439431D01*
X92270711Y-52322000D01*
X92641289Y-52322000D01*
X92758720Y-52439431D01*
X93139126Y-52597000D01*
X93550874Y-52597000D01*
X93931280Y-52439431D01*
X94222431Y-52148280D01*
X94380000Y-51767874D01*
X94380000Y-51356126D01*
X94222431Y-50975720D01*
X93931280Y-50684569D01*
X93550874Y-50527000D01*
X93139126Y-50527000D01*
X92758720Y-50684569D01*
X92641289Y-50802000D01*
X92270711Y-50802000D01*
X92153280Y-50684569D01*
X91772874Y-50527000D01*
X91361126Y-50527000D01*
X90980720Y-50684569D01*
X90968291Y-50696998D01*
X90857625Y-50531375D01*
X90589171Y-50352000D01*
X90857625Y-50172625D01*
X91185839Y-49681418D01*
X91301092Y-49102000D01*
X91185839Y-48522582D01*
X90857625Y-48031375D01*
X90589171Y-47852000D01*
X90857625Y-47672625D01*
X91185839Y-47181418D01*
X91301092Y-46602000D01*
X91185839Y-46022582D01*
X90857625Y-45531375D01*
X90584313Y-45348754D01*
X90989497Y-44973193D01*
X91228476Y-44458890D01*
X91107155Y-44229000D01*
X89789000Y-44229000D01*
X89789000Y-44249000D01*
X89535000Y-44249000D01*
X89535000Y-44229000D01*
X88216845Y-44229000D01*
X88147708Y-44360008D01*
X88061155Y-44196000D01*
X86868000Y-44196000D01*
X86868000Y-44216000D01*
X86614000Y-44216000D01*
X86614000Y-44196000D01*
X85420845Y-44196000D01*
X85299524Y-44425890D01*
X85469355Y-44835924D01*
X85859642Y-45264183D01*
X85989478Y-45325157D01*
X85670375Y-45538375D01*
X85342161Y-46029582D01*
X85226908Y-46609000D01*
X85342161Y-47188418D01*
X85371787Y-47232756D01*
X85368283Y-47230415D01*
X84849587Y-46711720D01*
X84803001Y-46641999D01*
X84526801Y-46457448D01*
X84283237Y-46409000D01*
X84283233Y-46409000D01*
X84201000Y-46392643D01*
X84118767Y-46409000D01*
X79028184Y-46409000D01*
X78442338Y-45823155D01*
X78505000Y-45671874D01*
X78505000Y-45260126D01*
X78347431Y-44879720D01*
X78305000Y-44837289D01*
X78305000Y-43629735D01*
X78818870Y-43629735D01*
X78868383Y-43855164D01*
X79333036Y-44014807D01*
X79823413Y-43984482D01*
X80135617Y-43855164D01*
X80185130Y-43629735D01*
X79502000Y-42946605D01*
X78818870Y-43629735D01*
X78305000Y-43629735D01*
X78305000Y-43137861D01*
X78413836Y-43400617D01*
X78639265Y-43450130D01*
X79322395Y-42767000D01*
X79308253Y-42752858D01*
X79487858Y-42573253D01*
X79502000Y-42587395D01*
X79516143Y-42573253D01*
X79695748Y-42752858D01*
X79681605Y-42767000D01*
X80364735Y-43450130D01*
X80590164Y-43400617D01*
X80749807Y-42935964D01*
X80719482Y-42445587D01*
X80590164Y-42133383D01*
X80364737Y-42083871D01*
X80480430Y-41968178D01*
X80426282Y-41914030D01*
X80559809Y-41824809D01*
X80700157Y-41614765D01*
X80749440Y-41367000D01*
X80749440Y-40586000D01*
X85585099Y-40586000D01*
X85342161Y-40949582D01*
X85226908Y-41529000D01*
X85342161Y-42108418D01*
X85670375Y-42599625D01*
X85989478Y-42812843D01*
X85859642Y-42873817D01*
X85469355Y-43302076D01*
X85299524Y-43712110D01*
X85420845Y-43942000D01*
X86614000Y-43942000D01*
X86614000Y-43922000D01*
X86868000Y-43922000D01*
X86868000Y-43942000D01*
X88061155Y-43942000D01*
X88130292Y-43810992D01*
X88216845Y-43975000D01*
X89535000Y-43975000D01*
X89535000Y-43955000D01*
X89789000Y-43955000D01*
X89789000Y-43975000D01*
X91107155Y-43975000D01*
X91228476Y-43745110D01*
X90989497Y-43230807D01*
X90584313Y-42855246D01*
X90857625Y-42672625D01*
X91185839Y-42181418D01*
X91301092Y-41602000D01*
X91185839Y-41022582D01*
X90857625Y-40531375D01*
X90366418Y-40203161D01*
X89933256Y-40117000D01*
X89390744Y-40117000D01*
X88957582Y-40203161D01*
X88466375Y-40531375D01*
X88150644Y-41003900D01*
X88139839Y-40949582D01*
X87898608Y-40588554D01*
X87968000Y-40602357D01*
X88050233Y-40586000D01*
X88050237Y-40586000D01*
X88293801Y-40537552D01*
X88570001Y-40353001D01*
X88616587Y-40283280D01*
X89432282Y-39467586D01*
X89502001Y-39421001D01*
X89638684Y-39216440D01*
X89750000Y-39216440D01*
X89997765Y-39167157D01*
X90207809Y-39026809D01*
X90348157Y-38816765D01*
X90397440Y-38569000D01*
X90397440Y-36869000D01*
X90348157Y-36621235D01*
X90207809Y-36411191D01*
X90169360Y-36385500D01*
X90207809Y-36359809D01*
X90348157Y-36149765D01*
X90397440Y-35902000D01*
X90397440Y-34517000D01*
X95116158Y-34517000D01*
X94924845Y-34767680D01*
G36*
X86487000Y-57658000D02*
X86507000Y-57658000D01*
X86507000Y-57912000D01*
X86487000Y-57912000D01*
X86487000Y-59105155D01*
X86512287Y-59118500D01*
X86487000Y-59131845D01*
X86487000Y-60325000D01*
X86507000Y-60325000D01*
X86507000Y-60579000D01*
X86487000Y-60579000D01*
X86487000Y-60599000D01*
X86233000Y-60599000D01*
X86233000Y-60579000D01*
X86213000Y-60579000D01*
X86213000Y-60325000D01*
X86233000Y-60325000D01*
X86233000Y-59131845D01*
X86207713Y-59118500D01*
X86233000Y-59105155D01*
X86233000Y-57912000D01*
X86213000Y-57912000D01*
X86213000Y-57658000D01*
X86233000Y-57658000D01*
X86233000Y-57638000D01*
X86487000Y-57638000D01*
X86487000Y-57658000D01*
X86487000Y-57658000D01*
G37*
X86487000Y-57658000D02*
X86507000Y-57658000D01*
X86507000Y-57912000D01*
X86487000Y-57912000D01*
X86487000Y-59105155D01*
X86512287Y-59118500D01*
X86487000Y-59131845D01*
X86487000Y-60325000D01*
X86507000Y-60325000D01*
X86507000Y-60579000D01*
X86487000Y-60579000D01*
X86487000Y-60599000D01*
X86233000Y-60599000D01*
X86233000Y-60579000D01*
X86213000Y-60579000D01*
X86213000Y-60325000D01*
X86233000Y-60325000D01*
X86233000Y-59131845D01*
X86207713Y-59118500D01*
X86233000Y-59105155D01*
X86233000Y-57912000D01*
X86213000Y-57912000D01*
X86213000Y-57658000D01*
X86233000Y-57658000D01*
X86233000Y-57638000D01*
X86487000Y-57638000D01*
X86487000Y-57658000D01*
G36*
X76937720Y-41300413D02*
X76867999Y-41346999D01*
X76683448Y-41623200D01*
X76635000Y-41866764D01*
X76635000Y-41866767D01*
X76618643Y-41949000D01*
X76635000Y-42031233D01*
X76635001Y-44818074D01*
X76635000Y-44818079D01*
X76635000Y-44837289D01*
X76592569Y-44879720D01*
X76435000Y-45260126D01*
X76435000Y-45671874D01*
X76592569Y-46052280D01*
X76630231Y-46089942D01*
X76635000Y-46113918D01*
X76635000Y-46113922D01*
X76683448Y-46357486D01*
X76868000Y-46633686D01*
X76937718Y-46680270D01*
X78033731Y-47776285D01*
X78080314Y-47846001D01*
X78356514Y-48030552D01*
X78600078Y-48079000D01*
X78600081Y-48079000D01*
X78682314Y-48095357D01*
X78764547Y-48079000D01*
X83855133Y-48079000D01*
X84001000Y-48224868D01*
X84001001Y-55035759D01*
X84001000Y-55035764D01*
X84001000Y-55303001D01*
X80773035Y-55303001D01*
X80876807Y-55000964D01*
X80846482Y-54510587D01*
X80717164Y-54198383D01*
X80491737Y-54148871D01*
X80607430Y-54033178D01*
X80553282Y-53979030D01*
X80686809Y-53889809D01*
X80827157Y-53679765D01*
X80876440Y-53432000D01*
X80876440Y-52232000D01*
X80827157Y-51984235D01*
X80686809Y-51774191D01*
X80476765Y-51633843D01*
X80229000Y-51584560D01*
X79029000Y-51584560D01*
X78781235Y-51633843D01*
X78571191Y-51774191D01*
X78551111Y-51804243D01*
X78051000Y-51304133D01*
X78051000Y-50666711D01*
X78093431Y-50624280D01*
X78251000Y-50243874D01*
X78251000Y-49832126D01*
X78093431Y-49451720D01*
X77802280Y-49160569D01*
X77421874Y-49003000D01*
X77010126Y-49003000D01*
X76629720Y-49160569D01*
X76338569Y-49451720D01*
X76181000Y-49832126D01*
X76181000Y-50243874D01*
X76338569Y-50624280D01*
X76381000Y-50666711D01*
X76381000Y-50685921D01*
X76381001Y-50685925D01*
X76381000Y-51567766D01*
X76364643Y-51650000D01*
X76381000Y-51732233D01*
X76381000Y-51732236D01*
X76429448Y-51975800D01*
X76613999Y-52252001D01*
X76683720Y-52298587D01*
X77749416Y-53364285D01*
X77795999Y-53434001D01*
X77865714Y-53480583D01*
X77865715Y-53480584D01*
X77899736Y-53503316D01*
X78072199Y-53618552D01*
X78315763Y-53667000D01*
X78315766Y-53667000D01*
X78397999Y-53683357D01*
X78430280Y-53676936D01*
X78430843Y-53679765D01*
X78571191Y-53889809D01*
X78704718Y-53979030D01*
X78650570Y-54033178D01*
X78766263Y-54148871D01*
X78540836Y-54198383D01*
X78381193Y-54663036D01*
X78411518Y-55153413D01*
X78473479Y-55303001D01*
X50768870Y-55303001D01*
X50560818Y-55094950D01*
X50768561Y-55181000D01*
X51339439Y-55181000D01*
X51866862Y-54962534D01*
X52270534Y-54558862D01*
X52489000Y-54031439D01*
X52489000Y-53460561D01*
X52270534Y-52933138D01*
X51866862Y-52529466D01*
X51339439Y-52311000D01*
X50768561Y-52311000D01*
X50241138Y-52529466D01*
X50111000Y-52659604D01*
X50111000Y-51964996D01*
X50254000Y-51993440D01*
X51854000Y-51993440D01*
X52101765Y-51944157D01*
X52311809Y-51803809D01*
X52452157Y-51593765D01*
X52501440Y-51346000D01*
X52501440Y-51054000D01*
X55742275Y-51054000D01*
X55832305Y-51506609D01*
X55954174Y-51689000D01*
X55832305Y-51871391D01*
X55742275Y-52324000D01*
X55832305Y-52776609D01*
X56088687Y-53160313D01*
X56472391Y-53416695D01*
X56810754Y-53484000D01*
X57489246Y-53484000D01*
X57827609Y-53416695D01*
X58211313Y-53160313D01*
X58467695Y-52776609D01*
X58557725Y-52324000D01*
X58467695Y-51871391D01*
X58345826Y-51689000D01*
X58467695Y-51506609D01*
X58557725Y-51054000D01*
X58467695Y-50601391D01*
X58466776Y-50600016D01*
X58535000Y-50435309D01*
X58535000Y-50069750D01*
X58376250Y-49911000D01*
X57574710Y-49911000D01*
X57489246Y-49894000D01*
X56810754Y-49894000D01*
X56725290Y-49911000D01*
X55923750Y-49911000D01*
X55765000Y-50069750D01*
X55765000Y-50435309D01*
X55833224Y-50600016D01*
X55832305Y-50601391D01*
X55742275Y-51054000D01*
X52501440Y-51054000D01*
X52501440Y-49746000D01*
X52452157Y-49498235D01*
X52311809Y-49288191D01*
X52101765Y-49147843D01*
X52025590Y-49132691D01*
X55765000Y-49132691D01*
X55765000Y-49498250D01*
X55923750Y-49657000D01*
X57023000Y-49657000D01*
X57023000Y-48782750D01*
X57277000Y-48782750D01*
X57277000Y-49657000D01*
X58376250Y-49657000D01*
X58535000Y-49498250D01*
X58535000Y-49132691D01*
X58438327Y-48899302D01*
X58259699Y-48720673D01*
X58026310Y-48624000D01*
X57435750Y-48624000D01*
X57277000Y-48782750D01*
X57023000Y-48782750D01*
X56864250Y-48624000D01*
X56273690Y-48624000D01*
X56040301Y-48720673D01*
X55861673Y-48899302D01*
X55765000Y-49132691D01*
X52025590Y-49132691D01*
X51854000Y-49098560D01*
X50254000Y-49098560D01*
X50111000Y-49127004D01*
X50111000Y-44665000D01*
X50514250Y-44665000D01*
X50673000Y-44506250D01*
X50673000Y-43307000D01*
X50653000Y-43307000D01*
X50653000Y-43053000D01*
X50673000Y-43053000D01*
X50673000Y-43033000D01*
X50927000Y-43033000D01*
X50927000Y-43053000D01*
X50947000Y-43053000D01*
X50947000Y-43307000D01*
X50927000Y-43307000D01*
X50927000Y-44506250D01*
X51085750Y-44665000D01*
X51776310Y-44665000D01*
X52009699Y-44568327D01*
X52188327Y-44389698D01*
X52254904Y-44228967D01*
X52269375Y-44250625D01*
X52760582Y-44578839D01*
X53193744Y-44665000D01*
X53486256Y-44665000D01*
X53919418Y-44578839D01*
X54410625Y-44250625D01*
X54610000Y-43952239D01*
X54809375Y-44250625D01*
X55300582Y-44578839D01*
X55733744Y-44665000D01*
X56026256Y-44665000D01*
X56459418Y-44578839D01*
X56950625Y-44250625D01*
X57150000Y-43952239D01*
X57349375Y-44250625D01*
X57840582Y-44578839D01*
X58273744Y-44665000D01*
X58566256Y-44665000D01*
X58999418Y-44578839D01*
X59490625Y-44250625D01*
X59648065Y-44015000D01*
X65586001Y-44015000D01*
X65586000Y-52495763D01*
X65586000Y-52711289D01*
X65543569Y-52753720D01*
X65386000Y-53134126D01*
X65386000Y-53545874D01*
X65543569Y-53926280D01*
X65834720Y-54217431D01*
X66215126Y-54375000D01*
X66626874Y-54375000D01*
X67007280Y-54217431D01*
X67298431Y-53926280D01*
X67456000Y-53545874D01*
X67456000Y-53134126D01*
X67298431Y-52753720D01*
X67256000Y-52711289D01*
X67256000Y-51356126D01*
X67926000Y-51356126D01*
X67926000Y-51767874D01*
X68083569Y-52148280D01*
X68201000Y-52265711D01*
X68201001Y-52636288D01*
X68083569Y-52753720D01*
X67926000Y-53134126D01*
X67926000Y-53545874D01*
X68083569Y-53926280D01*
X68374720Y-54217431D01*
X68755126Y-54375000D01*
X69166874Y-54375000D01*
X69547280Y-54217431D01*
X69838431Y-53926280D01*
X69996000Y-53545874D01*
X69996000Y-53134126D01*
X69838431Y-52753720D01*
X69721000Y-52636289D01*
X69721000Y-52265711D01*
X69838431Y-52148280D01*
X69996000Y-51767874D01*
X69996000Y-51356126D01*
X69838431Y-50975720D01*
X69547280Y-50684569D01*
X69166874Y-50527000D01*
X68755126Y-50527000D01*
X68374720Y-50684569D01*
X68083569Y-50975720D01*
X67926000Y-51356126D01*
X67256000Y-51356126D01*
X67256000Y-40586000D01*
X77652132Y-40586000D01*
X76937720Y-41300413D01*
X76937720Y-41300413D01*
G37*
X76937720Y-41300413D02*
X76867999Y-41346999D01*
X76683448Y-41623200D01*
X76635000Y-41866764D01*
X76635000Y-41866767D01*
X76618643Y-41949000D01*
X76635000Y-42031233D01*
X76635001Y-44818074D01*
X76635000Y-44818079D01*
X76635000Y-44837289D01*
X76592569Y-44879720D01*
X76435000Y-45260126D01*
X76435000Y-45671874D01*
X76592569Y-46052280D01*
X76630231Y-46089942D01*
X76635000Y-46113918D01*
X76635000Y-46113922D01*
X76683448Y-46357486D01*
X76868000Y-46633686D01*
X76937718Y-46680270D01*
X78033731Y-47776285D01*
X78080314Y-47846001D01*
X78356514Y-48030552D01*
X78600078Y-48079000D01*
X78600081Y-48079000D01*
X78682314Y-48095357D01*
X78764547Y-48079000D01*
X83855133Y-48079000D01*
X84001000Y-48224868D01*
X84001001Y-55035759D01*
X84001000Y-55035764D01*
X84001000Y-55303001D01*
X80773035Y-55303001D01*
X80876807Y-55000964D01*
X80846482Y-54510587D01*
X80717164Y-54198383D01*
X80491737Y-54148871D01*
X80607430Y-54033178D01*
X80553282Y-53979030D01*
X80686809Y-53889809D01*
X80827157Y-53679765D01*
X80876440Y-53432000D01*
X80876440Y-52232000D01*
X80827157Y-51984235D01*
X80686809Y-51774191D01*
X80476765Y-51633843D01*
X80229000Y-51584560D01*
X79029000Y-51584560D01*
X78781235Y-51633843D01*
X78571191Y-51774191D01*
X78551111Y-51804243D01*
X78051000Y-51304133D01*
X78051000Y-50666711D01*
X78093431Y-50624280D01*
X78251000Y-50243874D01*
X78251000Y-49832126D01*
X78093431Y-49451720D01*
X77802280Y-49160569D01*
X77421874Y-49003000D01*
X77010126Y-49003000D01*
X76629720Y-49160569D01*
X76338569Y-49451720D01*
X76181000Y-49832126D01*
X76181000Y-50243874D01*
X76338569Y-50624280D01*
X76381000Y-50666711D01*
X76381000Y-50685921D01*
X76381001Y-50685925D01*
X76381000Y-51567766D01*
X76364643Y-51650000D01*
X76381000Y-51732233D01*
X76381000Y-51732236D01*
X76429448Y-51975800D01*
X76613999Y-52252001D01*
X76683720Y-52298587D01*
X77749416Y-53364285D01*
X77795999Y-53434001D01*
X77865714Y-53480583D01*
X77865715Y-53480584D01*
X77899736Y-53503316D01*
X78072199Y-53618552D01*
X78315763Y-53667000D01*
X78315766Y-53667000D01*
X78397999Y-53683357D01*
X78430280Y-53676936D01*
X78430843Y-53679765D01*
X78571191Y-53889809D01*
X78704718Y-53979030D01*
X78650570Y-54033178D01*
X78766263Y-54148871D01*
X78540836Y-54198383D01*
X78381193Y-54663036D01*
X78411518Y-55153413D01*
X78473479Y-55303001D01*
X50768870Y-55303001D01*
X50560818Y-55094950D01*
X50768561Y-55181000D01*
X51339439Y-55181000D01*
X51866862Y-54962534D01*
X52270534Y-54558862D01*
X52489000Y-54031439D01*
X52489000Y-53460561D01*
X52270534Y-52933138D01*
X51866862Y-52529466D01*
X51339439Y-52311000D01*
X50768561Y-52311000D01*
X50241138Y-52529466D01*
X50111000Y-52659604D01*
X50111000Y-51964996D01*
X50254000Y-51993440D01*
X51854000Y-51993440D01*
X52101765Y-51944157D01*
X52311809Y-51803809D01*
X52452157Y-51593765D01*
X52501440Y-51346000D01*
X52501440Y-51054000D01*
X55742275Y-51054000D01*
X55832305Y-51506609D01*
X55954174Y-51689000D01*
X55832305Y-51871391D01*
X55742275Y-52324000D01*
X55832305Y-52776609D01*
X56088687Y-53160313D01*
X56472391Y-53416695D01*
X56810754Y-53484000D01*
X57489246Y-53484000D01*
X57827609Y-53416695D01*
X58211313Y-53160313D01*
X58467695Y-52776609D01*
X58557725Y-52324000D01*
X58467695Y-51871391D01*
X58345826Y-51689000D01*
X58467695Y-51506609D01*
X58557725Y-51054000D01*
X58467695Y-50601391D01*
X58466776Y-50600016D01*
X58535000Y-50435309D01*
X58535000Y-50069750D01*
X58376250Y-49911000D01*
X57574710Y-49911000D01*
X57489246Y-49894000D01*
X56810754Y-49894000D01*
X56725290Y-49911000D01*
X55923750Y-49911000D01*
X55765000Y-50069750D01*
X55765000Y-50435309D01*
X55833224Y-50600016D01*
X55832305Y-50601391D01*
X55742275Y-51054000D01*
X52501440Y-51054000D01*
X52501440Y-49746000D01*
X52452157Y-49498235D01*
X52311809Y-49288191D01*
X52101765Y-49147843D01*
X52025590Y-49132691D01*
X55765000Y-49132691D01*
X55765000Y-49498250D01*
X55923750Y-49657000D01*
X57023000Y-49657000D01*
X57023000Y-48782750D01*
X57277000Y-48782750D01*
X57277000Y-49657000D01*
X58376250Y-49657000D01*
X58535000Y-49498250D01*
X58535000Y-49132691D01*
X58438327Y-48899302D01*
X58259699Y-48720673D01*
X58026310Y-48624000D01*
X57435750Y-48624000D01*
X57277000Y-48782750D01*
X57023000Y-48782750D01*
X56864250Y-48624000D01*
X56273690Y-48624000D01*
X56040301Y-48720673D01*
X55861673Y-48899302D01*
X55765000Y-49132691D01*
X52025590Y-49132691D01*
X51854000Y-49098560D01*
X50254000Y-49098560D01*
X50111000Y-49127004D01*
X50111000Y-44665000D01*
X50514250Y-44665000D01*
X50673000Y-44506250D01*
X50673000Y-43307000D01*
X50653000Y-43307000D01*
X50653000Y-43053000D01*
X50673000Y-43053000D01*
X50673000Y-43033000D01*
X50927000Y-43033000D01*
X50927000Y-43053000D01*
X50947000Y-43053000D01*
X50947000Y-43307000D01*
X50927000Y-43307000D01*
X50927000Y-44506250D01*
X51085750Y-44665000D01*
X51776310Y-44665000D01*
X52009699Y-44568327D01*
X52188327Y-44389698D01*
X52254904Y-44228967D01*
X52269375Y-44250625D01*
X52760582Y-44578839D01*
X53193744Y-44665000D01*
X53486256Y-44665000D01*
X53919418Y-44578839D01*
X54410625Y-44250625D01*
X54610000Y-43952239D01*
X54809375Y-44250625D01*
X55300582Y-44578839D01*
X55733744Y-44665000D01*
X56026256Y-44665000D01*
X56459418Y-44578839D01*
X56950625Y-44250625D01*
X57150000Y-43952239D01*
X57349375Y-44250625D01*
X57840582Y-44578839D01*
X58273744Y-44665000D01*
X58566256Y-44665000D01*
X58999418Y-44578839D01*
X59490625Y-44250625D01*
X59648065Y-44015000D01*
X65586001Y-44015000D01*
X65586000Y-52495763D01*
X65586000Y-52711289D01*
X65543569Y-52753720D01*
X65386000Y-53134126D01*
X65386000Y-53545874D01*
X65543569Y-53926280D01*
X65834720Y-54217431D01*
X66215126Y-54375000D01*
X66626874Y-54375000D01*
X67007280Y-54217431D01*
X67298431Y-53926280D01*
X67456000Y-53545874D01*
X67456000Y-53134126D01*
X67298431Y-52753720D01*
X67256000Y-52711289D01*
X67256000Y-51356126D01*
X67926000Y-51356126D01*
X67926000Y-51767874D01*
X68083569Y-52148280D01*
X68201000Y-52265711D01*
X68201001Y-52636288D01*
X68083569Y-52753720D01*
X67926000Y-53134126D01*
X67926000Y-53545874D01*
X68083569Y-53926280D01*
X68374720Y-54217431D01*
X68755126Y-54375000D01*
X69166874Y-54375000D01*
X69547280Y-54217431D01*
X69838431Y-53926280D01*
X69996000Y-53545874D01*
X69996000Y-53134126D01*
X69838431Y-52753720D01*
X69721000Y-52636289D01*
X69721000Y-52265711D01*
X69838431Y-52148280D01*
X69996000Y-51767874D01*
X69996000Y-51356126D01*
X69838431Y-50975720D01*
X69547280Y-50684569D01*
X69166874Y-50527000D01*
X68755126Y-50527000D01*
X68374720Y-50684569D01*
X68083569Y-50975720D01*
X67926000Y-51356126D01*
X67256000Y-51356126D01*
X67256000Y-40586000D01*
X77652132Y-40586000D01*
X76937720Y-41300413D01*
G36*
X79822748Y-54817858D02*
X79808605Y-54832000D01*
X79822748Y-54846143D01*
X79643143Y-55025748D01*
X79629000Y-55011605D01*
X79614858Y-55025748D01*
X79435253Y-54846143D01*
X79449395Y-54832000D01*
X79435253Y-54817858D01*
X79614858Y-54638253D01*
X79629000Y-54652395D01*
X79643143Y-54638253D01*
X79822748Y-54817858D01*
X79822748Y-54817858D01*
G37*
X79822748Y-54817858D02*
X79808605Y-54832000D01*
X79822748Y-54846143D01*
X79643143Y-55025748D01*
X79629000Y-55011605D01*
X79614858Y-55025748D01*
X79435253Y-54846143D01*
X79449395Y-54832000D01*
X79435253Y-54817858D01*
X79614858Y-54638253D01*
X79629000Y-54652395D01*
X79643143Y-54638253D01*
X79822748Y-54817858D01*
G36*
X64969375Y-38789625D02*
X65460582Y-39117839D01*
X65568904Y-39139385D01*
X65543569Y-39164720D01*
X65386000Y-39545126D01*
X65386000Y-39956874D01*
X65543569Y-40337280D01*
X65586001Y-40379712D01*
X65586000Y-42345000D01*
X59648065Y-42345000D01*
X59490625Y-42109375D01*
X59074390Y-41831255D01*
X59186924Y-41784645D01*
X59615183Y-41394358D01*
X59861486Y-40869892D01*
X59740819Y-40640000D01*
X58547000Y-40640000D01*
X58547000Y-40660000D01*
X58293000Y-40660000D01*
X58293000Y-40640000D01*
X58273000Y-40640000D01*
X58273000Y-40386000D01*
X58293000Y-40386000D01*
X58293000Y-40366000D01*
X58547000Y-40366000D01*
X58547000Y-40386000D01*
X59740819Y-40386000D01*
X59861486Y-40156108D01*
X59615183Y-39631642D01*
X59186924Y-39241355D01*
X58924629Y-39132715D01*
X58999418Y-39117839D01*
X59490625Y-38789625D01*
X59690000Y-38491239D01*
X59889375Y-38789625D01*
X60380582Y-39117839D01*
X60813744Y-39204000D01*
X61106256Y-39204000D01*
X61539418Y-39117839D01*
X62030625Y-38789625D01*
X62230000Y-38491239D01*
X62429375Y-38789625D01*
X62920582Y-39117839D01*
X63353744Y-39204000D01*
X63646256Y-39204000D01*
X64079418Y-39117839D01*
X64570625Y-38789625D01*
X64770000Y-38491239D01*
X64969375Y-38789625D01*
X64969375Y-38789625D01*
G37*
X64969375Y-38789625D02*
X65460582Y-39117839D01*
X65568904Y-39139385D01*
X65543569Y-39164720D01*
X65386000Y-39545126D01*
X65386000Y-39956874D01*
X65543569Y-40337280D01*
X65586001Y-40379712D01*
X65586000Y-42345000D01*
X59648065Y-42345000D01*
X59490625Y-42109375D01*
X59074390Y-41831255D01*
X59186924Y-41784645D01*
X59615183Y-41394358D01*
X59861486Y-40869892D01*
X59740819Y-40640000D01*
X58547000Y-40640000D01*
X58547000Y-40660000D01*
X58293000Y-40660000D01*
X58293000Y-40640000D01*
X58273000Y-40640000D01*
X58273000Y-40386000D01*
X58293000Y-40386000D01*
X58293000Y-40366000D01*
X58547000Y-40366000D01*
X58547000Y-40386000D01*
X59740819Y-40386000D01*
X59861486Y-40156108D01*
X59615183Y-39631642D01*
X59186924Y-39241355D01*
X58924629Y-39132715D01*
X58999418Y-39117839D01*
X59490625Y-38789625D01*
X59690000Y-38491239D01*
X59889375Y-38789625D01*
X60380582Y-39117839D01*
X60813744Y-39204000D01*
X61106256Y-39204000D01*
X61539418Y-39117839D01*
X62030625Y-38789625D01*
X62230000Y-38491239D01*
X62429375Y-38789625D01*
X62920582Y-39117839D01*
X63353744Y-39204000D01*
X63646256Y-39204000D01*
X64079418Y-39117839D01*
X64570625Y-38789625D01*
X64770000Y-38491239D01*
X64969375Y-38789625D01*
G36*
X86487000Y-34925000D02*
X86507000Y-34925000D01*
X86507000Y-35179000D01*
X86487000Y-35179000D01*
X86487000Y-36372155D01*
X86512287Y-36385500D01*
X86487000Y-36398845D01*
X86487000Y-37592000D01*
X86507000Y-37592000D01*
X86507000Y-37846000D01*
X86487000Y-37846000D01*
X86487000Y-37866000D01*
X86233000Y-37866000D01*
X86233000Y-37846000D01*
X86213000Y-37846000D01*
X86213000Y-37592000D01*
X86233000Y-37592000D01*
X86233000Y-36398845D01*
X86207713Y-36385500D01*
X86233000Y-36372155D01*
X86233000Y-35179000D01*
X86213000Y-35179000D01*
X86213000Y-34925000D01*
X86233000Y-34925000D01*
X86233000Y-34905000D01*
X86487000Y-34905000D01*
X86487000Y-34925000D01*
X86487000Y-34925000D01*
G37*
X86487000Y-34925000D02*
X86507000Y-34925000D01*
X86507000Y-35179000D01*
X86487000Y-35179000D01*
X86487000Y-36372155D01*
X86512287Y-36385500D01*
X86487000Y-36398845D01*
X86487000Y-37592000D01*
X86507000Y-37592000D01*
X86507000Y-37846000D01*
X86487000Y-37846000D01*
X86487000Y-37866000D01*
X86233000Y-37866000D01*
X86233000Y-37846000D01*
X86213000Y-37846000D01*
X86213000Y-37592000D01*
X86233000Y-37592000D01*
X86233000Y-36398845D01*
X86207713Y-36385500D01*
X86233000Y-36372155D01*
X86233000Y-35179000D01*
X86213000Y-35179000D01*
X86213000Y-34925000D01*
X86233000Y-34925000D01*
X86233000Y-34905000D01*
X86487000Y-34905000D01*
X86487000Y-34925000D01*
M02*
