%TF.GenerationSoftware,KiCad,Pcbnew,(5.0.2)-1*%
%TF.CreationDate,2019-07-05T20:57:08+02:00*%
%TF.ProjectId,PSAVanCanBridge_v11,56616e43-616e-4457-9370-33322e6b6963,rev?*%
%TF.SameCoordinates,Original*%
%TF.FileFunction,Copper,L1,Top*%
%TF.FilePolarity,Positive*%
%FSLAX46Y46*%
G04 Gerber Fmt 4.6, Leading zero omitted, Abs format (unit mm)*
G04 Created by KiCad (PCBNEW (5.0.2)-1) date 05/07/2019 20:57:08*
%MOMM*%
%LPD*%
G01*
G04 APERTURE LIST*
%ADD10C,0.100000*%
%ADD11C,1.425000*%
%ADD12R,1.700000X1.700000*%
%ADD13O,1.700000X1.700000*%
%ADD14C,1.200000*%
%ADD15R,1.200000X1.200000*%
%ADD16C,1.700000*%
%ADD17O,1.950000X1.700000*%
%ADD18R,1.600000X1.600000*%
%ADD19C,1.600000*%
%ADD20O,1.500000X1.050000*%
%ADD21R,1.500000X1.050000*%
%ADD22R,6.400000X5.800000*%
%ADD23R,2.200000X1.200000*%
%ADD24R,0.600000X1.550000*%
%ADD25C,0.800000*%
%ADD26C,0.900000*%
%ADD27C,0.400000*%
%ADD28C,0.250000*%
%ADD29C,0.450000*%
%ADD30C,0.254000*%
G04 APERTURE END LIST*
D10*
G36*
X59378504Y-44846204D02*
X59402773Y-44849804D01*
X59426571Y-44855765D01*
X59449671Y-44864030D01*
X59471849Y-44874520D01*
X59492893Y-44887133D01*
X59512598Y-44901747D01*
X59530777Y-44918223D01*
X59547253Y-44936402D01*
X59561867Y-44956107D01*
X59574480Y-44977151D01*
X59584970Y-44999329D01*
X59593235Y-45022429D01*
X59599196Y-45046227D01*
X59602796Y-45070496D01*
X59604000Y-45095000D01*
X59604000Y-46345000D01*
X59602796Y-46369504D01*
X59599196Y-46393773D01*
X59593235Y-46417571D01*
X59584970Y-46440671D01*
X59574480Y-46462849D01*
X59561867Y-46483893D01*
X59547253Y-46503598D01*
X59530777Y-46521777D01*
X59512598Y-46538253D01*
X59492893Y-46552867D01*
X59471849Y-46565480D01*
X59449671Y-46575970D01*
X59426571Y-46584235D01*
X59402773Y-46590196D01*
X59378504Y-46593796D01*
X59354000Y-46595000D01*
X58429000Y-46595000D01*
X58404496Y-46593796D01*
X58380227Y-46590196D01*
X58356429Y-46584235D01*
X58333329Y-46575970D01*
X58311151Y-46565480D01*
X58290107Y-46552867D01*
X58270402Y-46538253D01*
X58252223Y-46521777D01*
X58235747Y-46503598D01*
X58221133Y-46483893D01*
X58208520Y-46462849D01*
X58198030Y-46440671D01*
X58189765Y-46417571D01*
X58183804Y-46393773D01*
X58180204Y-46369504D01*
X58179000Y-46345000D01*
X58179000Y-45095000D01*
X58180204Y-45070496D01*
X58183804Y-45046227D01*
X58189765Y-45022429D01*
X58198030Y-44999329D01*
X58208520Y-44977151D01*
X58221133Y-44956107D01*
X58235747Y-44936402D01*
X58252223Y-44918223D01*
X58270402Y-44901747D01*
X58290107Y-44887133D01*
X58311151Y-44874520D01*
X58333329Y-44864030D01*
X58356429Y-44855765D01*
X58380227Y-44849804D01*
X58404496Y-44846204D01*
X58429000Y-44845000D01*
X59354000Y-44845000D01*
X59378504Y-44846204D01*
X59378504Y-44846204D01*
G37*
D11*
X58891500Y-45720000D03*
D10*
G36*
X56403504Y-44846204D02*
X56427773Y-44849804D01*
X56451571Y-44855765D01*
X56474671Y-44864030D01*
X56496849Y-44874520D01*
X56517893Y-44887133D01*
X56537598Y-44901747D01*
X56555777Y-44918223D01*
X56572253Y-44936402D01*
X56586867Y-44956107D01*
X56599480Y-44977151D01*
X56609970Y-44999329D01*
X56618235Y-45022429D01*
X56624196Y-45046227D01*
X56627796Y-45070496D01*
X56629000Y-45095000D01*
X56629000Y-46345000D01*
X56627796Y-46369504D01*
X56624196Y-46393773D01*
X56618235Y-46417571D01*
X56609970Y-46440671D01*
X56599480Y-46462849D01*
X56586867Y-46483893D01*
X56572253Y-46503598D01*
X56555777Y-46521777D01*
X56537598Y-46538253D01*
X56517893Y-46552867D01*
X56496849Y-46565480D01*
X56474671Y-46575970D01*
X56451571Y-46584235D01*
X56427773Y-46590196D01*
X56403504Y-46593796D01*
X56379000Y-46595000D01*
X55454000Y-46595000D01*
X55429496Y-46593796D01*
X55405227Y-46590196D01*
X55381429Y-46584235D01*
X55358329Y-46575970D01*
X55336151Y-46565480D01*
X55315107Y-46552867D01*
X55295402Y-46538253D01*
X55277223Y-46521777D01*
X55260747Y-46503598D01*
X55246133Y-46483893D01*
X55233520Y-46462849D01*
X55223030Y-46440671D01*
X55214765Y-46417571D01*
X55208804Y-46393773D01*
X55205204Y-46369504D01*
X55204000Y-46345000D01*
X55204000Y-45095000D01*
X55205204Y-45070496D01*
X55208804Y-45046227D01*
X55214765Y-45022429D01*
X55223030Y-44999329D01*
X55233520Y-44977151D01*
X55246133Y-44956107D01*
X55260747Y-44936402D01*
X55277223Y-44918223D01*
X55295402Y-44901747D01*
X55315107Y-44887133D01*
X55336151Y-44874520D01*
X55358329Y-44864030D01*
X55381429Y-44855765D01*
X55405227Y-44849804D01*
X55429496Y-44846204D01*
X55454000Y-44845000D01*
X56379000Y-44845000D01*
X56403504Y-44846204D01*
X56403504Y-44846204D01*
G37*
D11*
X55916500Y-45720000D03*
D12*
X50800000Y-43180000D03*
D13*
X53340000Y-43180000D03*
X55880000Y-43180000D03*
X58420000Y-43180000D03*
D10*
G36*
X54425504Y-46624204D02*
X54449773Y-46627804D01*
X54473571Y-46633765D01*
X54496671Y-46642030D01*
X54518849Y-46652520D01*
X54539893Y-46665133D01*
X54559598Y-46679747D01*
X54577777Y-46696223D01*
X54594253Y-46714402D01*
X54608867Y-46734107D01*
X54621480Y-46755151D01*
X54631970Y-46777329D01*
X54640235Y-46800429D01*
X54646196Y-46824227D01*
X54649796Y-46848496D01*
X54651000Y-46873000D01*
X54651000Y-48123000D01*
X54649796Y-48147504D01*
X54646196Y-48171773D01*
X54640235Y-48195571D01*
X54631970Y-48218671D01*
X54621480Y-48240849D01*
X54608867Y-48261893D01*
X54594253Y-48281598D01*
X54577777Y-48299777D01*
X54559598Y-48316253D01*
X54539893Y-48330867D01*
X54518849Y-48343480D01*
X54496671Y-48353970D01*
X54473571Y-48362235D01*
X54449773Y-48368196D01*
X54425504Y-48371796D01*
X54401000Y-48373000D01*
X53476000Y-48373000D01*
X53451496Y-48371796D01*
X53427227Y-48368196D01*
X53403429Y-48362235D01*
X53380329Y-48353970D01*
X53358151Y-48343480D01*
X53337107Y-48330867D01*
X53317402Y-48316253D01*
X53299223Y-48299777D01*
X53282747Y-48281598D01*
X53268133Y-48261893D01*
X53255520Y-48240849D01*
X53245030Y-48218671D01*
X53236765Y-48195571D01*
X53230804Y-48171773D01*
X53227204Y-48147504D01*
X53226000Y-48123000D01*
X53226000Y-46873000D01*
X53227204Y-46848496D01*
X53230804Y-46824227D01*
X53236765Y-46800429D01*
X53245030Y-46777329D01*
X53255520Y-46755151D01*
X53268133Y-46734107D01*
X53282747Y-46714402D01*
X53299223Y-46696223D01*
X53317402Y-46679747D01*
X53337107Y-46665133D01*
X53358151Y-46652520D01*
X53380329Y-46642030D01*
X53403429Y-46633765D01*
X53427227Y-46627804D01*
X53451496Y-46624204D01*
X53476000Y-46623000D01*
X54401000Y-46623000D01*
X54425504Y-46624204D01*
X54425504Y-46624204D01*
G37*
D11*
X53938500Y-47498000D03*
D10*
G36*
X51450504Y-46624204D02*
X51474773Y-46627804D01*
X51498571Y-46633765D01*
X51521671Y-46642030D01*
X51543849Y-46652520D01*
X51564893Y-46665133D01*
X51584598Y-46679747D01*
X51602777Y-46696223D01*
X51619253Y-46714402D01*
X51633867Y-46734107D01*
X51646480Y-46755151D01*
X51656970Y-46777329D01*
X51665235Y-46800429D01*
X51671196Y-46824227D01*
X51674796Y-46848496D01*
X51676000Y-46873000D01*
X51676000Y-48123000D01*
X51674796Y-48147504D01*
X51671196Y-48171773D01*
X51665235Y-48195571D01*
X51656970Y-48218671D01*
X51646480Y-48240849D01*
X51633867Y-48261893D01*
X51619253Y-48281598D01*
X51602777Y-48299777D01*
X51584598Y-48316253D01*
X51564893Y-48330867D01*
X51543849Y-48343480D01*
X51521671Y-48353970D01*
X51498571Y-48362235D01*
X51474773Y-48368196D01*
X51450504Y-48371796D01*
X51426000Y-48373000D01*
X50501000Y-48373000D01*
X50476496Y-48371796D01*
X50452227Y-48368196D01*
X50428429Y-48362235D01*
X50405329Y-48353970D01*
X50383151Y-48343480D01*
X50362107Y-48330867D01*
X50342402Y-48316253D01*
X50324223Y-48299777D01*
X50307747Y-48281598D01*
X50293133Y-48261893D01*
X50280520Y-48240849D01*
X50270030Y-48218671D01*
X50261765Y-48195571D01*
X50255804Y-48171773D01*
X50252204Y-48147504D01*
X50251000Y-48123000D01*
X50251000Y-46873000D01*
X50252204Y-46848496D01*
X50255804Y-46824227D01*
X50261765Y-46800429D01*
X50270030Y-46777329D01*
X50280520Y-46755151D01*
X50293133Y-46734107D01*
X50307747Y-46714402D01*
X50324223Y-46696223D01*
X50342402Y-46679747D01*
X50362107Y-46665133D01*
X50383151Y-46652520D01*
X50405329Y-46642030D01*
X50428429Y-46633765D01*
X50452227Y-46627804D01*
X50476496Y-46624204D01*
X50501000Y-46623000D01*
X51426000Y-46623000D01*
X51450504Y-46624204D01*
X51450504Y-46624204D01*
G37*
D11*
X50963500Y-47498000D03*
D14*
X79502000Y-42767000D03*
D15*
X79502000Y-40767000D03*
D12*
X86741000Y-54229000D03*
D13*
X86741000Y-51689000D03*
X86741000Y-49149000D03*
X86741000Y-46609000D03*
X86741000Y-44069000D03*
X86741000Y-41529000D03*
D10*
G36*
X90411504Y-53253204D02*
X90435773Y-53256804D01*
X90459571Y-53262765D01*
X90482671Y-53271030D01*
X90504849Y-53281520D01*
X90525893Y-53294133D01*
X90545598Y-53308747D01*
X90563777Y-53325223D01*
X90580253Y-53343402D01*
X90594867Y-53363107D01*
X90607480Y-53384151D01*
X90617970Y-53406329D01*
X90626235Y-53429429D01*
X90632196Y-53453227D01*
X90635796Y-53477496D01*
X90637000Y-53502000D01*
X90637000Y-54702000D01*
X90635796Y-54726504D01*
X90632196Y-54750773D01*
X90626235Y-54774571D01*
X90617970Y-54797671D01*
X90607480Y-54819849D01*
X90594867Y-54840893D01*
X90580253Y-54860598D01*
X90563777Y-54878777D01*
X90545598Y-54895253D01*
X90525893Y-54909867D01*
X90504849Y-54922480D01*
X90482671Y-54932970D01*
X90459571Y-54941235D01*
X90435773Y-54947196D01*
X90411504Y-54950796D01*
X90387000Y-54952000D01*
X88937000Y-54952000D01*
X88912496Y-54950796D01*
X88888227Y-54947196D01*
X88864429Y-54941235D01*
X88841329Y-54932970D01*
X88819151Y-54922480D01*
X88798107Y-54909867D01*
X88778402Y-54895253D01*
X88760223Y-54878777D01*
X88743747Y-54860598D01*
X88729133Y-54840893D01*
X88716520Y-54819849D01*
X88706030Y-54797671D01*
X88697765Y-54774571D01*
X88691804Y-54750773D01*
X88688204Y-54726504D01*
X88687000Y-54702000D01*
X88687000Y-53502000D01*
X88688204Y-53477496D01*
X88691804Y-53453227D01*
X88697765Y-53429429D01*
X88706030Y-53406329D01*
X88716520Y-53384151D01*
X88729133Y-53363107D01*
X88743747Y-53343402D01*
X88760223Y-53325223D01*
X88778402Y-53308747D01*
X88798107Y-53294133D01*
X88819151Y-53281520D01*
X88841329Y-53271030D01*
X88864429Y-53262765D01*
X88888227Y-53256804D01*
X88912496Y-53253204D01*
X88937000Y-53252000D01*
X90387000Y-53252000D01*
X90411504Y-53253204D01*
X90411504Y-53253204D01*
G37*
D16*
X89662000Y-54102000D03*
D17*
X89662000Y-51602000D03*
X89662000Y-49102000D03*
X89662000Y-46602000D03*
X89662000Y-44102000D03*
X89662000Y-41602000D03*
D13*
X53340000Y-37719000D03*
X55880000Y-37719000D03*
X58420000Y-37719000D03*
X60960000Y-37719000D03*
X63500000Y-37719000D03*
X66040000Y-37719000D03*
X68580000Y-37719000D03*
X71120000Y-37719000D03*
X73660000Y-37719000D03*
X76200000Y-37719000D03*
X78740000Y-37719000D03*
X81280000Y-37719000D03*
X83820000Y-37719000D03*
X86360000Y-37719000D03*
D12*
X88900000Y-37719000D03*
X88900000Y-57785000D03*
D13*
X86360000Y-57785000D03*
X83820000Y-57785000D03*
X81280000Y-57785000D03*
X78740000Y-57785000D03*
X76200000Y-57785000D03*
X73660000Y-57785000D03*
X71120000Y-57785000D03*
X68580000Y-57785000D03*
X66040000Y-57785000D03*
X63500000Y-57785000D03*
X60960000Y-57785000D03*
X58420000Y-57785000D03*
X55880000Y-57785000D03*
X53340000Y-57785000D03*
D12*
X50800000Y-40513000D03*
D13*
X53340000Y-40513000D03*
X55880000Y-40513000D03*
X58420000Y-40513000D03*
D18*
X51054000Y-50546000D03*
D19*
X51054000Y-53746000D03*
D20*
X57150000Y-51054000D03*
X57150000Y-52324000D03*
D21*
X57150000Y-49784000D03*
D10*
G36*
X56403504Y-54244204D02*
X56427773Y-54247804D01*
X56451571Y-54253765D01*
X56474671Y-54262030D01*
X56496849Y-54272520D01*
X56517893Y-54285133D01*
X56537598Y-54299747D01*
X56555777Y-54316223D01*
X56572253Y-54334402D01*
X56586867Y-54354107D01*
X56599480Y-54375151D01*
X56609970Y-54397329D01*
X56618235Y-54420429D01*
X56624196Y-54444227D01*
X56627796Y-54468496D01*
X56629000Y-54493000D01*
X56629000Y-55743000D01*
X56627796Y-55767504D01*
X56624196Y-55791773D01*
X56618235Y-55815571D01*
X56609970Y-55838671D01*
X56599480Y-55860849D01*
X56586867Y-55881893D01*
X56572253Y-55901598D01*
X56555777Y-55919777D01*
X56537598Y-55936253D01*
X56517893Y-55950867D01*
X56496849Y-55963480D01*
X56474671Y-55973970D01*
X56451571Y-55982235D01*
X56427773Y-55988196D01*
X56403504Y-55991796D01*
X56379000Y-55993000D01*
X55454000Y-55993000D01*
X55429496Y-55991796D01*
X55405227Y-55988196D01*
X55381429Y-55982235D01*
X55358329Y-55973970D01*
X55336151Y-55963480D01*
X55315107Y-55950867D01*
X55295402Y-55936253D01*
X55277223Y-55919777D01*
X55260747Y-55901598D01*
X55246133Y-55881893D01*
X55233520Y-55860849D01*
X55223030Y-55838671D01*
X55214765Y-55815571D01*
X55208804Y-55791773D01*
X55205204Y-55767504D01*
X55204000Y-55743000D01*
X55204000Y-54493000D01*
X55205204Y-54468496D01*
X55208804Y-54444227D01*
X55214765Y-54420429D01*
X55223030Y-54397329D01*
X55233520Y-54375151D01*
X55246133Y-54354107D01*
X55260747Y-54334402D01*
X55277223Y-54316223D01*
X55295402Y-54299747D01*
X55315107Y-54285133D01*
X55336151Y-54272520D01*
X55358329Y-54262030D01*
X55381429Y-54253765D01*
X55405227Y-54247804D01*
X55429496Y-54244204D01*
X55454000Y-54243000D01*
X56379000Y-54243000D01*
X56403504Y-54244204D01*
X56403504Y-54244204D01*
G37*
D11*
X55916500Y-55118000D03*
D10*
G36*
X59378504Y-54244204D02*
X59402773Y-54247804D01*
X59426571Y-54253765D01*
X59449671Y-54262030D01*
X59471849Y-54272520D01*
X59492893Y-54285133D01*
X59512598Y-54299747D01*
X59530777Y-54316223D01*
X59547253Y-54334402D01*
X59561867Y-54354107D01*
X59574480Y-54375151D01*
X59584970Y-54397329D01*
X59593235Y-54420429D01*
X59599196Y-54444227D01*
X59602796Y-54468496D01*
X59604000Y-54493000D01*
X59604000Y-55743000D01*
X59602796Y-55767504D01*
X59599196Y-55791773D01*
X59593235Y-55815571D01*
X59584970Y-55838671D01*
X59574480Y-55860849D01*
X59561867Y-55881893D01*
X59547253Y-55901598D01*
X59530777Y-55919777D01*
X59512598Y-55936253D01*
X59492893Y-55950867D01*
X59471849Y-55963480D01*
X59449671Y-55973970D01*
X59426571Y-55982235D01*
X59402773Y-55988196D01*
X59378504Y-55991796D01*
X59354000Y-55993000D01*
X58429000Y-55993000D01*
X58404496Y-55991796D01*
X58380227Y-55988196D01*
X58356429Y-55982235D01*
X58333329Y-55973970D01*
X58311151Y-55963480D01*
X58290107Y-55950867D01*
X58270402Y-55936253D01*
X58252223Y-55919777D01*
X58235747Y-55901598D01*
X58221133Y-55881893D01*
X58208520Y-55860849D01*
X58198030Y-55838671D01*
X58189765Y-55815571D01*
X58183804Y-55791773D01*
X58180204Y-55767504D01*
X58179000Y-55743000D01*
X58179000Y-54493000D01*
X58180204Y-54468496D01*
X58183804Y-54444227D01*
X58189765Y-54420429D01*
X58198030Y-54397329D01*
X58208520Y-54375151D01*
X58221133Y-54354107D01*
X58235747Y-54334402D01*
X58252223Y-54316223D01*
X58270402Y-54299747D01*
X58290107Y-54285133D01*
X58311151Y-54272520D01*
X58333329Y-54262030D01*
X58356429Y-54253765D01*
X58380227Y-54247804D01*
X58404496Y-54244204D01*
X58429000Y-54243000D01*
X59354000Y-54243000D01*
X59378504Y-54244204D01*
X59378504Y-54244204D01*
G37*
D11*
X58891500Y-55118000D03*
D10*
G36*
X61863504Y-42124204D02*
X61887773Y-42127804D01*
X61911571Y-42133765D01*
X61934671Y-42142030D01*
X61956849Y-42152520D01*
X61977893Y-42165133D01*
X61997598Y-42179747D01*
X62015777Y-42196223D01*
X62032253Y-42214402D01*
X62046867Y-42234107D01*
X62059480Y-42255151D01*
X62069970Y-42277329D01*
X62078235Y-42300429D01*
X62084196Y-42324227D01*
X62087796Y-42348496D01*
X62089000Y-42373000D01*
X62089000Y-43298000D01*
X62087796Y-43322504D01*
X62084196Y-43346773D01*
X62078235Y-43370571D01*
X62069970Y-43393671D01*
X62059480Y-43415849D01*
X62046867Y-43436893D01*
X62032253Y-43456598D01*
X62015777Y-43474777D01*
X61997598Y-43491253D01*
X61977893Y-43505867D01*
X61956849Y-43518480D01*
X61934671Y-43528970D01*
X61911571Y-43537235D01*
X61887773Y-43543196D01*
X61863504Y-43546796D01*
X61839000Y-43548000D01*
X60589000Y-43548000D01*
X60564496Y-43546796D01*
X60540227Y-43543196D01*
X60516429Y-43537235D01*
X60493329Y-43528970D01*
X60471151Y-43518480D01*
X60450107Y-43505867D01*
X60430402Y-43491253D01*
X60412223Y-43474777D01*
X60395747Y-43456598D01*
X60381133Y-43436893D01*
X60368520Y-43415849D01*
X60358030Y-43393671D01*
X60349765Y-43370571D01*
X60343804Y-43346773D01*
X60340204Y-43322504D01*
X60339000Y-43298000D01*
X60339000Y-42373000D01*
X60340204Y-42348496D01*
X60343804Y-42324227D01*
X60349765Y-42300429D01*
X60358030Y-42277329D01*
X60368520Y-42255151D01*
X60381133Y-42234107D01*
X60395747Y-42214402D01*
X60412223Y-42196223D01*
X60430402Y-42179747D01*
X60450107Y-42165133D01*
X60471151Y-42152520D01*
X60493329Y-42142030D01*
X60516429Y-42133765D01*
X60540227Y-42127804D01*
X60564496Y-42124204D01*
X60589000Y-42123000D01*
X61839000Y-42123000D01*
X61863504Y-42124204D01*
X61863504Y-42124204D01*
G37*
D11*
X61214000Y-42835500D03*
D10*
G36*
X61863504Y-45099204D02*
X61887773Y-45102804D01*
X61911571Y-45108765D01*
X61934671Y-45117030D01*
X61956849Y-45127520D01*
X61977893Y-45140133D01*
X61997598Y-45154747D01*
X62015777Y-45171223D01*
X62032253Y-45189402D01*
X62046867Y-45209107D01*
X62059480Y-45230151D01*
X62069970Y-45252329D01*
X62078235Y-45275429D01*
X62084196Y-45299227D01*
X62087796Y-45323496D01*
X62089000Y-45348000D01*
X62089000Y-46273000D01*
X62087796Y-46297504D01*
X62084196Y-46321773D01*
X62078235Y-46345571D01*
X62069970Y-46368671D01*
X62059480Y-46390849D01*
X62046867Y-46411893D01*
X62032253Y-46431598D01*
X62015777Y-46449777D01*
X61997598Y-46466253D01*
X61977893Y-46480867D01*
X61956849Y-46493480D01*
X61934671Y-46503970D01*
X61911571Y-46512235D01*
X61887773Y-46518196D01*
X61863504Y-46521796D01*
X61839000Y-46523000D01*
X60589000Y-46523000D01*
X60564496Y-46521796D01*
X60540227Y-46518196D01*
X60516429Y-46512235D01*
X60493329Y-46503970D01*
X60471151Y-46493480D01*
X60450107Y-46480867D01*
X60430402Y-46466253D01*
X60412223Y-46449777D01*
X60395747Y-46431598D01*
X60381133Y-46411893D01*
X60368520Y-46390849D01*
X60358030Y-46368671D01*
X60349765Y-46345571D01*
X60343804Y-46321773D01*
X60340204Y-46297504D01*
X60339000Y-46273000D01*
X60339000Y-45348000D01*
X60340204Y-45323496D01*
X60343804Y-45299227D01*
X60349765Y-45275429D01*
X60358030Y-45252329D01*
X60368520Y-45230151D01*
X60381133Y-45209107D01*
X60395747Y-45189402D01*
X60412223Y-45171223D01*
X60430402Y-45154747D01*
X60450107Y-45140133D01*
X60471151Y-45127520D01*
X60493329Y-45117030D01*
X60516429Y-45108765D01*
X60540227Y-45102804D01*
X60564496Y-45099204D01*
X60589000Y-45098000D01*
X61839000Y-45098000D01*
X61863504Y-45099204D01*
X61863504Y-45099204D01*
G37*
D11*
X61214000Y-45810500D03*
D10*
G36*
X61863504Y-49998204D02*
X61887773Y-50001804D01*
X61911571Y-50007765D01*
X61934671Y-50016030D01*
X61956849Y-50026520D01*
X61977893Y-50039133D01*
X61997598Y-50053747D01*
X62015777Y-50070223D01*
X62032253Y-50088402D01*
X62046867Y-50108107D01*
X62059480Y-50129151D01*
X62069970Y-50151329D01*
X62078235Y-50174429D01*
X62084196Y-50198227D01*
X62087796Y-50222496D01*
X62089000Y-50247000D01*
X62089000Y-51172000D01*
X62087796Y-51196504D01*
X62084196Y-51220773D01*
X62078235Y-51244571D01*
X62069970Y-51267671D01*
X62059480Y-51289849D01*
X62046867Y-51310893D01*
X62032253Y-51330598D01*
X62015777Y-51348777D01*
X61997598Y-51365253D01*
X61977893Y-51379867D01*
X61956849Y-51392480D01*
X61934671Y-51402970D01*
X61911571Y-51411235D01*
X61887773Y-51417196D01*
X61863504Y-51420796D01*
X61839000Y-51422000D01*
X60589000Y-51422000D01*
X60564496Y-51420796D01*
X60540227Y-51417196D01*
X60516429Y-51411235D01*
X60493329Y-51402970D01*
X60471151Y-51392480D01*
X60450107Y-51379867D01*
X60430402Y-51365253D01*
X60412223Y-51348777D01*
X60395747Y-51330598D01*
X60381133Y-51310893D01*
X60368520Y-51289849D01*
X60358030Y-51267671D01*
X60349765Y-51244571D01*
X60343804Y-51220773D01*
X60340204Y-51196504D01*
X60339000Y-51172000D01*
X60339000Y-50247000D01*
X60340204Y-50222496D01*
X60343804Y-50198227D01*
X60349765Y-50174429D01*
X60358030Y-50151329D01*
X60368520Y-50129151D01*
X60381133Y-50108107D01*
X60395747Y-50088402D01*
X60412223Y-50070223D01*
X60430402Y-50053747D01*
X60450107Y-50039133D01*
X60471151Y-50026520D01*
X60493329Y-50016030D01*
X60516429Y-50007765D01*
X60540227Y-50001804D01*
X60564496Y-49998204D01*
X60589000Y-49997000D01*
X61839000Y-49997000D01*
X61863504Y-49998204D01*
X61863504Y-49998204D01*
G37*
D11*
X61214000Y-50709500D03*
D10*
G36*
X61863504Y-52973204D02*
X61887773Y-52976804D01*
X61911571Y-52982765D01*
X61934671Y-52991030D01*
X61956849Y-53001520D01*
X61977893Y-53014133D01*
X61997598Y-53028747D01*
X62015777Y-53045223D01*
X62032253Y-53063402D01*
X62046867Y-53083107D01*
X62059480Y-53104151D01*
X62069970Y-53126329D01*
X62078235Y-53149429D01*
X62084196Y-53173227D01*
X62087796Y-53197496D01*
X62089000Y-53222000D01*
X62089000Y-54147000D01*
X62087796Y-54171504D01*
X62084196Y-54195773D01*
X62078235Y-54219571D01*
X62069970Y-54242671D01*
X62059480Y-54264849D01*
X62046867Y-54285893D01*
X62032253Y-54305598D01*
X62015777Y-54323777D01*
X61997598Y-54340253D01*
X61977893Y-54354867D01*
X61956849Y-54367480D01*
X61934671Y-54377970D01*
X61911571Y-54386235D01*
X61887773Y-54392196D01*
X61863504Y-54395796D01*
X61839000Y-54397000D01*
X60589000Y-54397000D01*
X60564496Y-54395796D01*
X60540227Y-54392196D01*
X60516429Y-54386235D01*
X60493329Y-54377970D01*
X60471151Y-54367480D01*
X60450107Y-54354867D01*
X60430402Y-54340253D01*
X60412223Y-54323777D01*
X60395747Y-54305598D01*
X60381133Y-54285893D01*
X60368520Y-54264849D01*
X60358030Y-54242671D01*
X60349765Y-54219571D01*
X60343804Y-54195773D01*
X60340204Y-54171504D01*
X60339000Y-54147000D01*
X60339000Y-53222000D01*
X60340204Y-53197496D01*
X60343804Y-53173227D01*
X60349765Y-53149429D01*
X60358030Y-53126329D01*
X60368520Y-53104151D01*
X60381133Y-53083107D01*
X60395747Y-53063402D01*
X60412223Y-53045223D01*
X60430402Y-53028747D01*
X60450107Y-53014133D01*
X60471151Y-53001520D01*
X60493329Y-52991030D01*
X60516429Y-52982765D01*
X60540227Y-52976804D01*
X60564496Y-52973204D01*
X60589000Y-52972000D01*
X61839000Y-52972000D01*
X61863504Y-52973204D01*
X61863504Y-52973204D01*
G37*
D11*
X61214000Y-53684500D03*
D10*
G36*
X72023504Y-39457204D02*
X72047773Y-39460804D01*
X72071571Y-39466765D01*
X72094671Y-39475030D01*
X72116849Y-39485520D01*
X72137893Y-39498133D01*
X72157598Y-39512747D01*
X72175777Y-39529223D01*
X72192253Y-39547402D01*
X72206867Y-39567107D01*
X72219480Y-39588151D01*
X72229970Y-39610329D01*
X72238235Y-39633429D01*
X72244196Y-39657227D01*
X72247796Y-39681496D01*
X72249000Y-39706000D01*
X72249000Y-40631000D01*
X72247796Y-40655504D01*
X72244196Y-40679773D01*
X72238235Y-40703571D01*
X72229970Y-40726671D01*
X72219480Y-40748849D01*
X72206867Y-40769893D01*
X72192253Y-40789598D01*
X72175777Y-40807777D01*
X72157598Y-40824253D01*
X72137893Y-40838867D01*
X72116849Y-40851480D01*
X72094671Y-40861970D01*
X72071571Y-40870235D01*
X72047773Y-40876196D01*
X72023504Y-40879796D01*
X71999000Y-40881000D01*
X70749000Y-40881000D01*
X70724496Y-40879796D01*
X70700227Y-40876196D01*
X70676429Y-40870235D01*
X70653329Y-40861970D01*
X70631151Y-40851480D01*
X70610107Y-40838867D01*
X70590402Y-40824253D01*
X70572223Y-40807777D01*
X70555747Y-40789598D01*
X70541133Y-40769893D01*
X70528520Y-40748849D01*
X70518030Y-40726671D01*
X70509765Y-40703571D01*
X70503804Y-40679773D01*
X70500204Y-40655504D01*
X70499000Y-40631000D01*
X70499000Y-39706000D01*
X70500204Y-39681496D01*
X70503804Y-39657227D01*
X70509765Y-39633429D01*
X70518030Y-39610329D01*
X70528520Y-39588151D01*
X70541133Y-39567107D01*
X70555747Y-39547402D01*
X70572223Y-39529223D01*
X70590402Y-39512747D01*
X70610107Y-39498133D01*
X70631151Y-39485520D01*
X70653329Y-39475030D01*
X70676429Y-39466765D01*
X70700227Y-39460804D01*
X70724496Y-39457204D01*
X70749000Y-39456000D01*
X71999000Y-39456000D01*
X72023504Y-39457204D01*
X72023504Y-39457204D01*
G37*
D11*
X71374000Y-40168500D03*
D10*
G36*
X72023504Y-42432204D02*
X72047773Y-42435804D01*
X72071571Y-42441765D01*
X72094671Y-42450030D01*
X72116849Y-42460520D01*
X72137893Y-42473133D01*
X72157598Y-42487747D01*
X72175777Y-42504223D01*
X72192253Y-42522402D01*
X72206867Y-42542107D01*
X72219480Y-42563151D01*
X72229970Y-42585329D01*
X72238235Y-42608429D01*
X72244196Y-42632227D01*
X72247796Y-42656496D01*
X72249000Y-42681000D01*
X72249000Y-43606000D01*
X72247796Y-43630504D01*
X72244196Y-43654773D01*
X72238235Y-43678571D01*
X72229970Y-43701671D01*
X72219480Y-43723849D01*
X72206867Y-43744893D01*
X72192253Y-43764598D01*
X72175777Y-43782777D01*
X72157598Y-43799253D01*
X72137893Y-43813867D01*
X72116849Y-43826480D01*
X72094671Y-43836970D01*
X72071571Y-43845235D01*
X72047773Y-43851196D01*
X72023504Y-43854796D01*
X71999000Y-43856000D01*
X70749000Y-43856000D01*
X70724496Y-43854796D01*
X70700227Y-43851196D01*
X70676429Y-43845235D01*
X70653329Y-43836970D01*
X70631151Y-43826480D01*
X70610107Y-43813867D01*
X70590402Y-43799253D01*
X70572223Y-43782777D01*
X70555747Y-43764598D01*
X70541133Y-43744893D01*
X70528520Y-43723849D01*
X70518030Y-43701671D01*
X70509765Y-43678571D01*
X70503804Y-43654773D01*
X70500204Y-43630504D01*
X70499000Y-43606000D01*
X70499000Y-42681000D01*
X70500204Y-42656496D01*
X70503804Y-42632227D01*
X70509765Y-42608429D01*
X70518030Y-42585329D01*
X70528520Y-42563151D01*
X70541133Y-42542107D01*
X70555747Y-42522402D01*
X70572223Y-42504223D01*
X70590402Y-42487747D01*
X70610107Y-42473133D01*
X70631151Y-42460520D01*
X70653329Y-42450030D01*
X70676429Y-42441765D01*
X70700227Y-42435804D01*
X70724496Y-42432204D01*
X70749000Y-42431000D01*
X71999000Y-42431000D01*
X72023504Y-42432204D01*
X72023504Y-42432204D01*
G37*
D11*
X71374000Y-43143500D03*
D10*
G36*
X72023504Y-54624204D02*
X72047773Y-54627804D01*
X72071571Y-54633765D01*
X72094671Y-54642030D01*
X72116849Y-54652520D01*
X72137893Y-54665133D01*
X72157598Y-54679747D01*
X72175777Y-54696223D01*
X72192253Y-54714402D01*
X72206867Y-54734107D01*
X72219480Y-54755151D01*
X72229970Y-54777329D01*
X72238235Y-54800429D01*
X72244196Y-54824227D01*
X72247796Y-54848496D01*
X72249000Y-54873000D01*
X72249000Y-55798000D01*
X72247796Y-55822504D01*
X72244196Y-55846773D01*
X72238235Y-55870571D01*
X72229970Y-55893671D01*
X72219480Y-55915849D01*
X72206867Y-55936893D01*
X72192253Y-55956598D01*
X72175777Y-55974777D01*
X72157598Y-55991253D01*
X72137893Y-56005867D01*
X72116849Y-56018480D01*
X72094671Y-56028970D01*
X72071571Y-56037235D01*
X72047773Y-56043196D01*
X72023504Y-56046796D01*
X71999000Y-56048000D01*
X70749000Y-56048000D01*
X70724496Y-56046796D01*
X70700227Y-56043196D01*
X70676429Y-56037235D01*
X70653329Y-56028970D01*
X70631151Y-56018480D01*
X70610107Y-56005867D01*
X70590402Y-55991253D01*
X70572223Y-55974777D01*
X70555747Y-55956598D01*
X70541133Y-55936893D01*
X70528520Y-55915849D01*
X70518030Y-55893671D01*
X70509765Y-55870571D01*
X70503804Y-55846773D01*
X70500204Y-55822504D01*
X70499000Y-55798000D01*
X70499000Y-54873000D01*
X70500204Y-54848496D01*
X70503804Y-54824227D01*
X70509765Y-54800429D01*
X70518030Y-54777329D01*
X70528520Y-54755151D01*
X70541133Y-54734107D01*
X70555747Y-54714402D01*
X70572223Y-54696223D01*
X70590402Y-54679747D01*
X70610107Y-54665133D01*
X70631151Y-54652520D01*
X70653329Y-54642030D01*
X70676429Y-54633765D01*
X70700227Y-54627804D01*
X70724496Y-54624204D01*
X70749000Y-54623000D01*
X71999000Y-54623000D01*
X72023504Y-54624204D01*
X72023504Y-54624204D01*
G37*
D11*
X71374000Y-55335500D03*
D10*
G36*
X72023504Y-51649204D02*
X72047773Y-51652804D01*
X72071571Y-51658765D01*
X72094671Y-51667030D01*
X72116849Y-51677520D01*
X72137893Y-51690133D01*
X72157598Y-51704747D01*
X72175777Y-51721223D01*
X72192253Y-51739402D01*
X72206867Y-51759107D01*
X72219480Y-51780151D01*
X72229970Y-51802329D01*
X72238235Y-51825429D01*
X72244196Y-51849227D01*
X72247796Y-51873496D01*
X72249000Y-51898000D01*
X72249000Y-52823000D01*
X72247796Y-52847504D01*
X72244196Y-52871773D01*
X72238235Y-52895571D01*
X72229970Y-52918671D01*
X72219480Y-52940849D01*
X72206867Y-52961893D01*
X72192253Y-52981598D01*
X72175777Y-52999777D01*
X72157598Y-53016253D01*
X72137893Y-53030867D01*
X72116849Y-53043480D01*
X72094671Y-53053970D01*
X72071571Y-53062235D01*
X72047773Y-53068196D01*
X72023504Y-53071796D01*
X71999000Y-53073000D01*
X70749000Y-53073000D01*
X70724496Y-53071796D01*
X70700227Y-53068196D01*
X70676429Y-53062235D01*
X70653329Y-53053970D01*
X70631151Y-53043480D01*
X70610107Y-53030867D01*
X70590402Y-53016253D01*
X70572223Y-52999777D01*
X70555747Y-52981598D01*
X70541133Y-52961893D01*
X70528520Y-52940849D01*
X70518030Y-52918671D01*
X70509765Y-52895571D01*
X70503804Y-52871773D01*
X70500204Y-52847504D01*
X70499000Y-52823000D01*
X70499000Y-51898000D01*
X70500204Y-51873496D01*
X70503804Y-51849227D01*
X70509765Y-51825429D01*
X70518030Y-51802329D01*
X70528520Y-51780151D01*
X70541133Y-51759107D01*
X70555747Y-51739402D01*
X70572223Y-51721223D01*
X70590402Y-51704747D01*
X70610107Y-51690133D01*
X70631151Y-51677520D01*
X70653329Y-51667030D01*
X70676429Y-51658765D01*
X70700227Y-51652804D01*
X70724496Y-51649204D01*
X70749000Y-51648000D01*
X71999000Y-51648000D01*
X72023504Y-51649204D01*
X72023504Y-51649204D01*
G37*
D11*
X71374000Y-52360500D03*
D22*
X73267784Y-47715994D03*
D23*
X79567784Y-45435994D03*
X79567784Y-49995994D03*
D15*
X79629000Y-52832000D03*
D14*
X79629000Y-54832000D03*
D24*
X68199000Y-46642000D03*
X66929000Y-46642000D03*
X65659000Y-46642000D03*
X64389000Y-46642000D03*
X64389000Y-41242000D03*
X65659000Y-41242000D03*
X66929000Y-41242000D03*
X68199000Y-41242000D03*
X64389000Y-55024000D03*
X65659000Y-55024000D03*
X66929000Y-55024000D03*
X68199000Y-55024000D03*
X68199000Y-49624000D03*
X66929000Y-49624000D03*
X65659000Y-49624000D03*
X64389000Y-49624000D03*
D13*
X53340000Y-60452000D03*
X55880000Y-60452000D03*
X58420000Y-60452000D03*
X60960000Y-60452000D03*
X63500000Y-60452000D03*
X66040000Y-60452000D03*
X68580000Y-60452000D03*
X71120000Y-60452000D03*
X73660000Y-60452000D03*
X76200000Y-60452000D03*
X78740000Y-60452000D03*
X81280000Y-60452000D03*
X83820000Y-60452000D03*
X86360000Y-60452000D03*
D12*
X88900000Y-60452000D03*
X88900000Y-35052000D03*
D13*
X86360000Y-35052000D03*
X83820000Y-35052000D03*
X81280000Y-35052000D03*
X78740000Y-35052000D03*
X76200000Y-35052000D03*
X73660000Y-35052000D03*
X71120000Y-35052000D03*
X68580000Y-35052000D03*
X66040000Y-35052000D03*
X63500000Y-35052000D03*
X60960000Y-35052000D03*
X58420000Y-35052000D03*
X55880000Y-35052000D03*
X53340000Y-35052000D03*
D25*
X66421000Y-53340000D03*
X66421000Y-39751000D03*
D26*
X70703784Y-46190994D03*
X72481784Y-45301994D03*
X71592784Y-47079994D03*
X70703784Y-47079994D03*
X72481784Y-46190994D03*
X71592784Y-46190994D03*
X71592784Y-45301994D03*
X70703784Y-45301994D03*
X72481784Y-47079994D03*
X70703784Y-49238994D03*
X72481784Y-48349994D03*
X71592784Y-50127994D03*
X72481784Y-49238994D03*
X71592784Y-49238994D03*
X71592784Y-48349994D03*
X70703784Y-48349994D03*
X70703784Y-50127994D03*
X72481784Y-50127994D03*
X74005784Y-49238994D03*
X75783784Y-48349994D03*
X75783784Y-50127994D03*
X75783784Y-49238994D03*
X74005784Y-48349994D03*
X74894784Y-49238994D03*
X74894784Y-50127994D03*
X74894784Y-48349994D03*
X74005784Y-50127994D03*
X75783784Y-46190994D03*
X74005784Y-46190994D03*
X75783784Y-47079994D03*
X74894784Y-45301994D03*
X74005784Y-47079994D03*
X74005784Y-45301994D03*
X74894784Y-47079994D03*
X75783784Y-45301994D03*
X74894784Y-46190994D03*
D25*
X51562000Y-38608000D03*
X91313000Y-36322000D03*
X64770000Y-53340000D03*
X77216000Y-50038000D03*
X77470000Y-45466000D03*
X68961000Y-51562000D03*
X68961000Y-53340000D03*
X91567000Y-51562000D03*
X93345000Y-51562000D03*
D27*
X66929000Y-54897000D02*
X66929000Y-54356000D01*
D28*
X65659000Y-40513000D02*
X65659000Y-41242000D01*
X66421000Y-39751000D02*
X65659000Y-40513000D01*
D27*
X66929000Y-53848000D02*
X66929000Y-54356000D01*
X66421000Y-53340000D02*
X66929000Y-53848000D01*
D28*
X58420000Y-45248500D02*
X58891500Y-45720000D01*
D27*
X58420000Y-43180000D02*
X58420000Y-45248500D01*
D28*
X89629000Y-44069000D02*
X89662000Y-44102000D01*
X86741000Y-44069000D02*
X89629000Y-44069000D01*
X57023000Y-39116000D02*
X58420000Y-40513000D01*
X51562000Y-38608000D02*
X52070000Y-39116000D01*
X52070000Y-39116000D02*
X57023000Y-39116000D01*
X90747315Y-36322000D02*
X91313000Y-36322000D01*
X86554919Y-36322000D02*
X90747315Y-36322000D01*
X86360000Y-36516919D02*
X86554919Y-36322000D01*
X86360000Y-37719000D02*
X86360000Y-36516919D01*
X65659000Y-53594000D02*
X65659000Y-55024000D01*
X64770000Y-52705000D02*
X65659000Y-53594000D01*
X79525778Y-50038000D02*
X79567784Y-49995994D01*
D27*
X77216000Y-50038000D02*
X79525778Y-50038000D01*
D28*
X89589000Y-41529000D02*
X89662000Y-41602000D01*
D27*
X86741000Y-41529000D02*
X89589000Y-41529000D01*
X85538919Y-41529000D02*
X83947000Y-43120919D01*
X86741000Y-41529000D02*
X85538919Y-41529000D01*
X83947000Y-43120919D02*
X83947000Y-49276000D01*
X83227006Y-49995994D02*
X79567784Y-49995994D01*
X83947000Y-49276000D02*
X83227006Y-49995994D01*
D28*
X79537778Y-45466000D02*
X79567784Y-45435994D01*
D29*
X77470000Y-45466000D02*
X79537778Y-45466000D01*
D28*
X50800000Y-47334500D02*
X50963500Y-47498000D01*
D27*
X49700000Y-40513000D02*
X49403000Y-40810000D01*
X50800000Y-40513000D02*
X49700000Y-40513000D01*
X49403000Y-45937500D02*
X50963500Y-47498000D01*
X49403000Y-40810000D02*
X49403000Y-45937500D01*
D28*
X63839000Y-41242000D02*
X64389000Y-41242000D01*
X63500000Y-40903000D02*
X63839000Y-41242000D01*
X63500000Y-37719000D02*
X63500000Y-40903000D01*
X55916500Y-43216500D02*
X55880000Y-43180000D01*
D27*
X55916500Y-45720000D02*
X55916500Y-43216500D01*
D28*
X55880000Y-40513000D02*
X54610000Y-41783000D01*
X54610000Y-44413500D02*
X55916500Y-45720000D01*
X54610000Y-41783000D02*
X54610000Y-44413500D01*
X63839000Y-49497000D02*
X64389000Y-49497000D01*
X61614000Y-49497000D02*
X63839000Y-49497000D01*
X61214000Y-49897000D02*
X61614000Y-49497000D01*
X61214000Y-50709500D02*
X61214000Y-49897000D01*
X68199000Y-47667000D02*
X68199000Y-46642000D01*
X67733000Y-48133000D02*
X68199000Y-47667000D01*
X62103000Y-48133000D02*
X67733000Y-48133000D01*
X61214000Y-45810500D02*
X61214000Y-47244000D01*
X61214000Y-47244000D02*
X62103000Y-48133000D01*
X58293000Y-51054000D02*
X57150000Y-51054000D01*
X55916500Y-54143000D02*
X56592500Y-53467000D01*
X55916500Y-55118000D02*
X55916500Y-54143000D01*
X56592500Y-53467000D02*
X58039000Y-53467000D01*
X58039000Y-53467000D02*
X58674000Y-52832000D01*
X58674000Y-52832000D02*
X58674000Y-51435000D01*
X58674000Y-51435000D02*
X58293000Y-51054000D01*
X52476000Y-52324000D02*
X51054000Y-53746000D01*
X57150000Y-52324000D02*
X52476000Y-52324000D01*
X71664500Y-59907500D02*
X71120000Y-60452000D01*
X68199000Y-38100000D02*
X68580000Y-37719000D01*
X68199000Y-41242000D02*
X68199000Y-38100000D01*
X60833000Y-55118000D02*
X58891500Y-55118000D01*
X63500000Y-57785000D02*
X60833000Y-55118000D01*
X64389000Y-56134000D02*
X64389000Y-55024000D01*
X66040000Y-57785000D02*
X64389000Y-56134000D01*
X68199000Y-57404000D02*
X68580000Y-57785000D01*
X68580000Y-55405000D02*
X68199000Y-55024000D01*
X68580000Y-57785000D02*
X68580000Y-55405000D01*
X74930000Y-51181000D02*
X73750500Y-52360500D01*
X83820000Y-51181000D02*
X74930000Y-51181000D01*
X84836000Y-50165000D02*
X83820000Y-51181000D01*
X86741000Y-46609000D02*
X84836000Y-48514000D01*
X84836000Y-48514000D02*
X84836000Y-50165000D01*
X86748000Y-46602000D02*
X86741000Y-46609000D01*
X89662000Y-46602000D02*
X86748000Y-46602000D01*
X65659000Y-50099000D02*
X65659000Y-49624000D01*
X67920500Y-52360500D02*
X65659000Y-50099000D01*
X71374000Y-52360500D02*
X67920500Y-52360500D01*
X73750500Y-52360500D02*
X71374000Y-52360500D01*
X84201000Y-51689000D02*
X86741000Y-49149000D01*
X86788000Y-49102000D02*
X86741000Y-49149000D01*
X89662000Y-49102000D02*
X86788000Y-49102000D01*
X66929000Y-50099000D02*
X66929000Y-49624000D01*
X67992001Y-51162001D02*
X66929000Y-50099000D01*
X68561001Y-51162001D02*
X67992001Y-51162001D01*
X68961000Y-51562000D02*
X68561001Y-51162001D01*
X70956500Y-55335500D02*
X71374000Y-55335500D01*
X70399000Y-55335500D02*
X69723000Y-54659500D01*
X71374000Y-55335500D02*
X70399000Y-55335500D01*
X69723000Y-54102000D02*
X68961000Y-53340000D01*
X69723000Y-54659500D02*
X69723000Y-54102000D01*
X75995500Y-51689000D02*
X76454000Y-51689000D01*
X72349000Y-55335500D02*
X75995500Y-51689000D01*
X71374000Y-55335500D02*
X72349000Y-55335500D01*
X76454000Y-51689000D02*
X84201000Y-51689000D01*
X86828000Y-51602000D02*
X86741000Y-51689000D01*
X89662000Y-51602000D02*
X86828000Y-51602000D01*
X70399000Y-40168500D02*
X69469000Y-41098500D01*
X71374000Y-40168500D02*
X70399000Y-40168500D01*
X69469000Y-41098500D02*
X69469000Y-42545000D01*
X69469000Y-42545000D02*
X68326000Y-43688000D01*
X68326000Y-43688000D02*
X66548000Y-43688000D01*
X65659000Y-44577000D02*
X65659000Y-47023000D01*
X66548000Y-43688000D02*
X65659000Y-44577000D01*
X72150511Y-39391989D02*
X92350989Y-39391989D01*
X71374000Y-40168500D02*
X72150511Y-39391989D01*
X92350989Y-39391989D02*
X93345000Y-40386000D01*
X93345000Y-40386000D02*
X93345000Y-51562000D01*
X93345000Y-51562000D02*
X93345000Y-51562000D01*
X91527000Y-51602000D02*
X91567000Y-51562000D01*
X89662000Y-51602000D02*
X91527000Y-51602000D01*
X89662000Y-54102000D02*
X88587000Y-54102000D01*
X86868000Y-54102000D02*
X86741000Y-54229000D01*
X89662000Y-54102000D02*
X86868000Y-54102000D01*
X71374000Y-43143500D02*
X69886500Y-43143500D01*
X69886500Y-43143500D02*
X68707000Y-44323000D01*
X68707000Y-44323000D02*
X67437000Y-44323000D01*
X66929000Y-44831000D02*
X66929000Y-47023000D01*
X67437000Y-44323000D02*
X66929000Y-44831000D01*
X71374000Y-43143500D02*
X73188500Y-43143500D01*
X73188500Y-43143500D02*
X73914000Y-42418000D01*
X73914000Y-42418000D02*
X73914000Y-40386000D01*
X74458001Y-39841999D02*
X91784999Y-39841999D01*
X73914000Y-40386000D02*
X74458001Y-39841999D01*
X91784999Y-39841999D02*
X92456000Y-40513000D01*
X92456000Y-40513000D02*
X92456000Y-53467000D01*
X91821000Y-54102000D02*
X89662000Y-54102000D01*
X92456000Y-53467000D02*
X91821000Y-54102000D01*
D27*
X53938500Y-47498000D02*
X53938500Y-49820500D01*
X53213000Y-50546000D02*
X51054000Y-50546000D01*
X53938500Y-49820500D02*
X53213000Y-50546000D01*
D30*
G36*
X51825908Y-35052000D02*
X51941161Y-35631418D01*
X52269375Y-36122625D01*
X52662795Y-36385500D01*
X52269375Y-36648375D01*
X51941161Y-37139582D01*
X51825908Y-37719000D01*
X51941161Y-38298418D01*
X52269375Y-38789625D01*
X52757830Y-39116000D01*
X52269375Y-39442375D01*
X52257184Y-39460619D01*
X52248157Y-39415235D01*
X52107809Y-39205191D01*
X51897765Y-39064843D01*
X51650000Y-39015560D01*
X49950000Y-39015560D01*
X49702235Y-39064843D01*
X49492191Y-39205191D01*
X49351843Y-39415235D01*
X49302560Y-39663000D01*
X49302560Y-39774316D01*
X49097999Y-39910999D01*
X49051414Y-39980718D01*
X48870719Y-40161413D01*
X48800999Y-40207999D01*
X48616448Y-40484200D01*
X48568000Y-40727764D01*
X48568000Y-40727767D01*
X48551643Y-40810000D01*
X48568000Y-40892233D01*
X48568001Y-45855262D01*
X48551643Y-45937500D01*
X48616448Y-46263300D01*
X48671348Y-46345463D01*
X48801000Y-46539501D01*
X48870718Y-46586085D01*
X49603560Y-47318928D01*
X49603560Y-48123000D01*
X49671874Y-48466435D01*
X49866414Y-48757586D01*
X50157565Y-48952126D01*
X50501000Y-49020440D01*
X51426000Y-49020440D01*
X51769435Y-48952126D01*
X52060586Y-48757586D01*
X52255126Y-48466435D01*
X52323440Y-48123000D01*
X52323440Y-46873000D01*
X52255126Y-46529565D01*
X52060586Y-46238414D01*
X51769435Y-46043874D01*
X51426000Y-45975560D01*
X50621928Y-45975560D01*
X50238000Y-45591633D01*
X50238000Y-44665000D01*
X50514250Y-44665000D01*
X50673000Y-44506250D01*
X50673000Y-43307000D01*
X50653000Y-43307000D01*
X50653000Y-43053000D01*
X50673000Y-43053000D01*
X50673000Y-43033000D01*
X50927000Y-43033000D01*
X50927000Y-43053000D01*
X50947000Y-43053000D01*
X50947000Y-43307000D01*
X50927000Y-43307000D01*
X50927000Y-44506250D01*
X51085750Y-44665000D01*
X51776310Y-44665000D01*
X52009699Y-44568327D01*
X52188327Y-44389698D01*
X52254904Y-44228967D01*
X52269375Y-44250625D01*
X52760582Y-44578839D01*
X53193744Y-44665000D01*
X53486256Y-44665000D01*
X53869957Y-44588677D01*
X53894097Y-44710037D01*
X54013052Y-44888065D01*
X54062072Y-44961429D01*
X54125528Y-45003829D01*
X54556560Y-45434861D01*
X54556560Y-46006503D01*
X54401000Y-45975560D01*
X53476000Y-45975560D01*
X53132565Y-46043874D01*
X52841414Y-46238414D01*
X52646874Y-46529565D01*
X52578560Y-46873000D01*
X52578560Y-48123000D01*
X52646874Y-48466435D01*
X52841414Y-48757586D01*
X53103501Y-48932706D01*
X53103501Y-49474632D01*
X52867133Y-49711000D01*
X52494478Y-49711000D01*
X52452157Y-49498235D01*
X52311809Y-49288191D01*
X52101765Y-49147843D01*
X51854000Y-49098560D01*
X50254000Y-49098560D01*
X50006235Y-49147843D01*
X49796191Y-49288191D01*
X49655843Y-49498235D01*
X49606560Y-49746000D01*
X49606560Y-51346000D01*
X49655843Y-51593765D01*
X49796191Y-51803809D01*
X50006235Y-51944157D01*
X50254000Y-51993440D01*
X51731758Y-51993440D01*
X51392302Y-52332897D01*
X51339439Y-52311000D01*
X50768561Y-52311000D01*
X50241138Y-52529466D01*
X49837466Y-52933138D01*
X49619000Y-53460561D01*
X49619000Y-54031439D01*
X49837466Y-54558862D01*
X50241138Y-54962534D01*
X50768561Y-55181000D01*
X51339439Y-55181000D01*
X51866862Y-54962534D01*
X52270534Y-54558862D01*
X52489000Y-54031439D01*
X52489000Y-53460561D01*
X52467103Y-53407698D01*
X52790802Y-53084000D01*
X55900698Y-53084000D01*
X55432027Y-53552672D01*
X55368572Y-53595071D01*
X55355101Y-53615232D01*
X55110565Y-53663874D01*
X54819414Y-53858414D01*
X54624874Y-54149565D01*
X54556560Y-54493000D01*
X54556560Y-55743000D01*
X54624874Y-56086435D01*
X54819414Y-56377586D01*
X55066415Y-56542626D01*
X54809375Y-56714375D01*
X54610000Y-57012761D01*
X54410625Y-56714375D01*
X53919418Y-56386161D01*
X53486256Y-56300000D01*
X53193744Y-56300000D01*
X52760582Y-56386161D01*
X52269375Y-56714375D01*
X51941161Y-57205582D01*
X51825908Y-57785000D01*
X51941161Y-58364418D01*
X52269375Y-58855625D01*
X52662795Y-59118500D01*
X52269375Y-59381375D01*
X51941161Y-59872582D01*
X51825908Y-60452000D01*
X51932326Y-60987000D01*
X51405019Y-60987000D01*
X51645506Y-60541299D01*
X51766062Y-59817000D01*
X51765786Y-59781877D01*
X51633868Y-59059561D01*
X51275091Y-58418919D01*
X50728142Y-57929030D01*
X50051998Y-57642721D01*
X49319568Y-57590862D01*
X48609828Y-57779046D01*
X47999310Y-58186981D01*
X47979000Y-58213593D01*
X47979000Y-37354913D01*
X48068041Y-37467861D01*
X48684892Y-37866156D01*
X49397500Y-38043169D01*
X50129025Y-37979812D01*
X50800588Y-37682917D01*
X51339775Y-37184498D01*
X51688445Y-36538299D01*
X51809001Y-35814000D01*
X51808725Y-35778877D01*
X51676807Y-35056561D01*
X51374638Y-34517000D01*
X51932326Y-34517000D01*
X51825908Y-35052000D01*
X51825908Y-35052000D01*
G37*
X51825908Y-35052000D02*
X51941161Y-35631418D01*
X52269375Y-36122625D01*
X52662795Y-36385500D01*
X52269375Y-36648375D01*
X51941161Y-37139582D01*
X51825908Y-37719000D01*
X51941161Y-38298418D01*
X52269375Y-38789625D01*
X52757830Y-39116000D01*
X52269375Y-39442375D01*
X52257184Y-39460619D01*
X52248157Y-39415235D01*
X52107809Y-39205191D01*
X51897765Y-39064843D01*
X51650000Y-39015560D01*
X49950000Y-39015560D01*
X49702235Y-39064843D01*
X49492191Y-39205191D01*
X49351843Y-39415235D01*
X49302560Y-39663000D01*
X49302560Y-39774316D01*
X49097999Y-39910999D01*
X49051414Y-39980718D01*
X48870719Y-40161413D01*
X48800999Y-40207999D01*
X48616448Y-40484200D01*
X48568000Y-40727764D01*
X48568000Y-40727767D01*
X48551643Y-40810000D01*
X48568000Y-40892233D01*
X48568001Y-45855262D01*
X48551643Y-45937500D01*
X48616448Y-46263300D01*
X48671348Y-46345463D01*
X48801000Y-46539501D01*
X48870718Y-46586085D01*
X49603560Y-47318928D01*
X49603560Y-48123000D01*
X49671874Y-48466435D01*
X49866414Y-48757586D01*
X50157565Y-48952126D01*
X50501000Y-49020440D01*
X51426000Y-49020440D01*
X51769435Y-48952126D01*
X52060586Y-48757586D01*
X52255126Y-48466435D01*
X52323440Y-48123000D01*
X52323440Y-46873000D01*
X52255126Y-46529565D01*
X52060586Y-46238414D01*
X51769435Y-46043874D01*
X51426000Y-45975560D01*
X50621928Y-45975560D01*
X50238000Y-45591633D01*
X50238000Y-44665000D01*
X50514250Y-44665000D01*
X50673000Y-44506250D01*
X50673000Y-43307000D01*
X50653000Y-43307000D01*
X50653000Y-43053000D01*
X50673000Y-43053000D01*
X50673000Y-43033000D01*
X50927000Y-43033000D01*
X50927000Y-43053000D01*
X50947000Y-43053000D01*
X50947000Y-43307000D01*
X50927000Y-43307000D01*
X50927000Y-44506250D01*
X51085750Y-44665000D01*
X51776310Y-44665000D01*
X52009699Y-44568327D01*
X52188327Y-44389698D01*
X52254904Y-44228967D01*
X52269375Y-44250625D01*
X52760582Y-44578839D01*
X53193744Y-44665000D01*
X53486256Y-44665000D01*
X53869957Y-44588677D01*
X53894097Y-44710037D01*
X54013052Y-44888065D01*
X54062072Y-44961429D01*
X54125528Y-45003829D01*
X54556560Y-45434861D01*
X54556560Y-46006503D01*
X54401000Y-45975560D01*
X53476000Y-45975560D01*
X53132565Y-46043874D01*
X52841414Y-46238414D01*
X52646874Y-46529565D01*
X52578560Y-46873000D01*
X52578560Y-48123000D01*
X52646874Y-48466435D01*
X52841414Y-48757586D01*
X53103501Y-48932706D01*
X53103501Y-49474632D01*
X52867133Y-49711000D01*
X52494478Y-49711000D01*
X52452157Y-49498235D01*
X52311809Y-49288191D01*
X52101765Y-49147843D01*
X51854000Y-49098560D01*
X50254000Y-49098560D01*
X50006235Y-49147843D01*
X49796191Y-49288191D01*
X49655843Y-49498235D01*
X49606560Y-49746000D01*
X49606560Y-51346000D01*
X49655843Y-51593765D01*
X49796191Y-51803809D01*
X50006235Y-51944157D01*
X50254000Y-51993440D01*
X51731758Y-51993440D01*
X51392302Y-52332897D01*
X51339439Y-52311000D01*
X50768561Y-52311000D01*
X50241138Y-52529466D01*
X49837466Y-52933138D01*
X49619000Y-53460561D01*
X49619000Y-54031439D01*
X49837466Y-54558862D01*
X50241138Y-54962534D01*
X50768561Y-55181000D01*
X51339439Y-55181000D01*
X51866862Y-54962534D01*
X52270534Y-54558862D01*
X52489000Y-54031439D01*
X52489000Y-53460561D01*
X52467103Y-53407698D01*
X52790802Y-53084000D01*
X55900698Y-53084000D01*
X55432027Y-53552672D01*
X55368572Y-53595071D01*
X55355101Y-53615232D01*
X55110565Y-53663874D01*
X54819414Y-53858414D01*
X54624874Y-54149565D01*
X54556560Y-54493000D01*
X54556560Y-55743000D01*
X54624874Y-56086435D01*
X54819414Y-56377586D01*
X55066415Y-56542626D01*
X54809375Y-56714375D01*
X54610000Y-57012761D01*
X54410625Y-56714375D01*
X53919418Y-56386161D01*
X53486256Y-56300000D01*
X53193744Y-56300000D01*
X52760582Y-56386161D01*
X52269375Y-56714375D01*
X51941161Y-57205582D01*
X51825908Y-57785000D01*
X51941161Y-58364418D01*
X52269375Y-58855625D01*
X52662795Y-59118500D01*
X52269375Y-59381375D01*
X51941161Y-59872582D01*
X51825908Y-60452000D01*
X51932326Y-60987000D01*
X51405019Y-60987000D01*
X51645506Y-60541299D01*
X51766062Y-59817000D01*
X51765786Y-59781877D01*
X51633868Y-59059561D01*
X51275091Y-58418919D01*
X50728142Y-57929030D01*
X50051998Y-57642721D01*
X49319568Y-57590862D01*
X48609828Y-57779046D01*
X47999310Y-58186981D01*
X47979000Y-58213593D01*
X47979000Y-37354913D01*
X48068041Y-37467861D01*
X48684892Y-37866156D01*
X49397500Y-38043169D01*
X50129025Y-37979812D01*
X50800588Y-37682917D01*
X51339775Y-37184498D01*
X51688445Y-36538299D01*
X51809001Y-35814000D01*
X51808725Y-35778877D01*
X51676807Y-35056561D01*
X51374638Y-34517000D01*
X51932326Y-34517000D01*
X51825908Y-35052000D01*
G36*
X94924845Y-34767680D02*
X94692468Y-35464203D01*
X94698234Y-36198444D01*
X94941524Y-36891231D01*
X95396102Y-37467861D01*
X96012953Y-37866156D01*
X96725561Y-38043169D01*
X97457086Y-37979812D01*
X98071000Y-37708403D01*
X98071001Y-57917114D01*
X97422998Y-57642721D01*
X96690568Y-57590862D01*
X95980828Y-57779046D01*
X95370310Y-58186981D01*
X94924845Y-58770680D01*
X94692468Y-59467203D01*
X94698234Y-60201444D01*
X94941524Y-60894231D01*
X95014657Y-60987000D01*
X90397440Y-60987000D01*
X90397440Y-59602000D01*
X90348157Y-59354235D01*
X90207809Y-59144191D01*
X90169360Y-59118500D01*
X90207809Y-59092809D01*
X90348157Y-58882765D01*
X90397440Y-58635000D01*
X90397440Y-56935000D01*
X90348157Y-56687235D01*
X90207809Y-56477191D01*
X89997765Y-56336843D01*
X89750000Y-56287560D01*
X88050000Y-56287560D01*
X87802235Y-56336843D01*
X87592191Y-56477191D01*
X87451843Y-56687235D01*
X87431261Y-56790708D01*
X87126924Y-56513355D01*
X86716890Y-56343524D01*
X86487000Y-56464845D01*
X86487000Y-57658000D01*
X86507000Y-57658000D01*
X86507000Y-57912000D01*
X86487000Y-57912000D01*
X86487000Y-59105155D01*
X86512287Y-59118500D01*
X86487000Y-59131845D01*
X86487000Y-60325000D01*
X86507000Y-60325000D01*
X86507000Y-60579000D01*
X86487000Y-60579000D01*
X86487000Y-60599000D01*
X86233000Y-60599000D01*
X86233000Y-60579000D01*
X86213000Y-60579000D01*
X86213000Y-60325000D01*
X86233000Y-60325000D01*
X86233000Y-59131845D01*
X86207713Y-59118500D01*
X86233000Y-59105155D01*
X86233000Y-57912000D01*
X86213000Y-57912000D01*
X86213000Y-57658000D01*
X86233000Y-57658000D01*
X86233000Y-56464845D01*
X86003110Y-56343524D01*
X85593076Y-56513355D01*
X85164817Y-56903642D01*
X85103843Y-57033478D01*
X84890625Y-56714375D01*
X84399418Y-56386161D01*
X83966256Y-56300000D01*
X83673744Y-56300000D01*
X83240582Y-56386161D01*
X82749375Y-56714375D01*
X82550000Y-57012761D01*
X82350625Y-56714375D01*
X81859418Y-56386161D01*
X81426256Y-56300000D01*
X81133744Y-56300000D01*
X80700582Y-56386161D01*
X80209375Y-56714375D01*
X80010000Y-57012761D01*
X79810625Y-56714375D01*
X79319418Y-56386161D01*
X78886256Y-56300000D01*
X78593744Y-56300000D01*
X78160582Y-56386161D01*
X77669375Y-56714375D01*
X77470000Y-57012761D01*
X77270625Y-56714375D01*
X76779418Y-56386161D01*
X76346256Y-56300000D01*
X76053744Y-56300000D01*
X75620582Y-56386161D01*
X75129375Y-56714375D01*
X74930000Y-57012761D01*
X74730625Y-56714375D01*
X74239418Y-56386161D01*
X73806256Y-56300000D01*
X73513744Y-56300000D01*
X73080582Y-56386161D01*
X72589375Y-56714375D01*
X72390000Y-57012761D01*
X72190625Y-56714375D01*
X72124828Y-56670411D01*
X72342435Y-56627126D01*
X72633586Y-56432586D01*
X72828126Y-56141435D01*
X72876767Y-55896901D01*
X72896929Y-55883429D01*
X72939331Y-55819970D01*
X73064566Y-55694735D01*
X78945870Y-55694735D01*
X78995383Y-55920164D01*
X79460036Y-56079807D01*
X79950413Y-56049482D01*
X80262617Y-55920164D01*
X80312130Y-55694735D01*
X79629000Y-55011605D01*
X78945870Y-55694735D01*
X73064566Y-55694735D01*
X76310302Y-52449000D01*
X78381560Y-52449000D01*
X78381560Y-53432000D01*
X78430843Y-53679765D01*
X78571191Y-53889809D01*
X78704718Y-53979030D01*
X78650570Y-54033178D01*
X78766263Y-54148871D01*
X78540836Y-54198383D01*
X78381193Y-54663036D01*
X78411518Y-55153413D01*
X78540836Y-55465617D01*
X78766265Y-55515130D01*
X79449395Y-54832000D01*
X79435253Y-54817858D01*
X79614858Y-54638253D01*
X79629000Y-54652395D01*
X79643143Y-54638253D01*
X79822748Y-54817858D01*
X79808605Y-54832000D01*
X80491735Y-55515130D01*
X80717164Y-55465617D01*
X80876807Y-55000964D01*
X80846482Y-54510587D01*
X80717164Y-54198383D01*
X80491737Y-54148871D01*
X80607430Y-54033178D01*
X80553282Y-53979030D01*
X80686809Y-53889809D01*
X80827157Y-53679765D01*
X80876440Y-53432000D01*
X80876440Y-52449000D01*
X84126153Y-52449000D01*
X84201000Y-52463888D01*
X84275847Y-52449000D01*
X84275852Y-52449000D01*
X84497537Y-52404904D01*
X84748929Y-52236929D01*
X84791331Y-52173470D01*
X85235020Y-51729781D01*
X85342161Y-52268418D01*
X85670375Y-52759625D01*
X85688619Y-52771816D01*
X85643235Y-52780843D01*
X85433191Y-52921191D01*
X85292843Y-53131235D01*
X85243560Y-53379000D01*
X85243560Y-55079000D01*
X85292843Y-55326765D01*
X85433191Y-55536809D01*
X85643235Y-55677157D01*
X85891000Y-55726440D01*
X87591000Y-55726440D01*
X87838765Y-55677157D01*
X88048809Y-55536809D01*
X88189157Y-55326765D01*
X88213633Y-55203715D01*
X88302414Y-55336586D01*
X88593565Y-55531126D01*
X88937000Y-55599440D01*
X90387000Y-55599440D01*
X90730435Y-55531126D01*
X91021586Y-55336586D01*
X91216126Y-55045435D01*
X91252614Y-54862000D01*
X91746153Y-54862000D01*
X91821000Y-54876888D01*
X91895847Y-54862000D01*
X91895852Y-54862000D01*
X92117537Y-54817904D01*
X92368929Y-54649929D01*
X92411331Y-54586470D01*
X92940473Y-54057329D01*
X93003929Y-54014929D01*
X93171904Y-53763537D01*
X93216000Y-53541852D01*
X93216000Y-53541848D01*
X93230888Y-53467000D01*
X93216000Y-53392152D01*
X93216000Y-52597000D01*
X93550874Y-52597000D01*
X93931280Y-52439431D01*
X94222431Y-52148280D01*
X94380000Y-51767874D01*
X94380000Y-51356126D01*
X94222431Y-50975720D01*
X94105000Y-50858289D01*
X94105000Y-40460848D01*
X94119888Y-40386000D01*
X94105000Y-40311152D01*
X94105000Y-40311148D01*
X94068592Y-40128112D01*
X94060904Y-40089462D01*
X93935329Y-39901527D01*
X93892929Y-39838071D01*
X93829473Y-39795671D01*
X92941320Y-38907519D01*
X92898918Y-38844060D01*
X92647526Y-38676085D01*
X92425841Y-38631989D01*
X92425836Y-38631989D01*
X92350989Y-38617101D01*
X92276142Y-38631989D01*
X90384911Y-38631989D01*
X90397440Y-38569000D01*
X90397440Y-36869000D01*
X90348157Y-36621235D01*
X90207809Y-36411191D01*
X90169360Y-36385500D01*
X90207809Y-36359809D01*
X90348157Y-36149765D01*
X90397440Y-35902000D01*
X90397440Y-34517000D01*
X95116158Y-34517000D01*
X94924845Y-34767680D01*
X94924845Y-34767680D01*
G37*
X94924845Y-34767680D02*
X94692468Y-35464203D01*
X94698234Y-36198444D01*
X94941524Y-36891231D01*
X95396102Y-37467861D01*
X96012953Y-37866156D01*
X96725561Y-38043169D01*
X97457086Y-37979812D01*
X98071000Y-37708403D01*
X98071001Y-57917114D01*
X97422998Y-57642721D01*
X96690568Y-57590862D01*
X95980828Y-57779046D01*
X95370310Y-58186981D01*
X94924845Y-58770680D01*
X94692468Y-59467203D01*
X94698234Y-60201444D01*
X94941524Y-60894231D01*
X95014657Y-60987000D01*
X90397440Y-60987000D01*
X90397440Y-59602000D01*
X90348157Y-59354235D01*
X90207809Y-59144191D01*
X90169360Y-59118500D01*
X90207809Y-59092809D01*
X90348157Y-58882765D01*
X90397440Y-58635000D01*
X90397440Y-56935000D01*
X90348157Y-56687235D01*
X90207809Y-56477191D01*
X89997765Y-56336843D01*
X89750000Y-56287560D01*
X88050000Y-56287560D01*
X87802235Y-56336843D01*
X87592191Y-56477191D01*
X87451843Y-56687235D01*
X87431261Y-56790708D01*
X87126924Y-56513355D01*
X86716890Y-56343524D01*
X86487000Y-56464845D01*
X86487000Y-57658000D01*
X86507000Y-57658000D01*
X86507000Y-57912000D01*
X86487000Y-57912000D01*
X86487000Y-59105155D01*
X86512287Y-59118500D01*
X86487000Y-59131845D01*
X86487000Y-60325000D01*
X86507000Y-60325000D01*
X86507000Y-60579000D01*
X86487000Y-60579000D01*
X86487000Y-60599000D01*
X86233000Y-60599000D01*
X86233000Y-60579000D01*
X86213000Y-60579000D01*
X86213000Y-60325000D01*
X86233000Y-60325000D01*
X86233000Y-59131845D01*
X86207713Y-59118500D01*
X86233000Y-59105155D01*
X86233000Y-57912000D01*
X86213000Y-57912000D01*
X86213000Y-57658000D01*
X86233000Y-57658000D01*
X86233000Y-56464845D01*
X86003110Y-56343524D01*
X85593076Y-56513355D01*
X85164817Y-56903642D01*
X85103843Y-57033478D01*
X84890625Y-56714375D01*
X84399418Y-56386161D01*
X83966256Y-56300000D01*
X83673744Y-56300000D01*
X83240582Y-56386161D01*
X82749375Y-56714375D01*
X82550000Y-57012761D01*
X82350625Y-56714375D01*
X81859418Y-56386161D01*
X81426256Y-56300000D01*
X81133744Y-56300000D01*
X80700582Y-56386161D01*
X80209375Y-56714375D01*
X80010000Y-57012761D01*
X79810625Y-56714375D01*
X79319418Y-56386161D01*
X78886256Y-56300000D01*
X78593744Y-56300000D01*
X78160582Y-56386161D01*
X77669375Y-56714375D01*
X77470000Y-57012761D01*
X77270625Y-56714375D01*
X76779418Y-56386161D01*
X76346256Y-56300000D01*
X76053744Y-56300000D01*
X75620582Y-56386161D01*
X75129375Y-56714375D01*
X74930000Y-57012761D01*
X74730625Y-56714375D01*
X74239418Y-56386161D01*
X73806256Y-56300000D01*
X73513744Y-56300000D01*
X73080582Y-56386161D01*
X72589375Y-56714375D01*
X72390000Y-57012761D01*
X72190625Y-56714375D01*
X72124828Y-56670411D01*
X72342435Y-56627126D01*
X72633586Y-56432586D01*
X72828126Y-56141435D01*
X72876767Y-55896901D01*
X72896929Y-55883429D01*
X72939331Y-55819970D01*
X73064566Y-55694735D01*
X78945870Y-55694735D01*
X78995383Y-55920164D01*
X79460036Y-56079807D01*
X79950413Y-56049482D01*
X80262617Y-55920164D01*
X80312130Y-55694735D01*
X79629000Y-55011605D01*
X78945870Y-55694735D01*
X73064566Y-55694735D01*
X76310302Y-52449000D01*
X78381560Y-52449000D01*
X78381560Y-53432000D01*
X78430843Y-53679765D01*
X78571191Y-53889809D01*
X78704718Y-53979030D01*
X78650570Y-54033178D01*
X78766263Y-54148871D01*
X78540836Y-54198383D01*
X78381193Y-54663036D01*
X78411518Y-55153413D01*
X78540836Y-55465617D01*
X78766265Y-55515130D01*
X79449395Y-54832000D01*
X79435253Y-54817858D01*
X79614858Y-54638253D01*
X79629000Y-54652395D01*
X79643143Y-54638253D01*
X79822748Y-54817858D01*
X79808605Y-54832000D01*
X80491735Y-55515130D01*
X80717164Y-55465617D01*
X80876807Y-55000964D01*
X80846482Y-54510587D01*
X80717164Y-54198383D01*
X80491737Y-54148871D01*
X80607430Y-54033178D01*
X80553282Y-53979030D01*
X80686809Y-53889809D01*
X80827157Y-53679765D01*
X80876440Y-53432000D01*
X80876440Y-52449000D01*
X84126153Y-52449000D01*
X84201000Y-52463888D01*
X84275847Y-52449000D01*
X84275852Y-52449000D01*
X84497537Y-52404904D01*
X84748929Y-52236929D01*
X84791331Y-52173470D01*
X85235020Y-51729781D01*
X85342161Y-52268418D01*
X85670375Y-52759625D01*
X85688619Y-52771816D01*
X85643235Y-52780843D01*
X85433191Y-52921191D01*
X85292843Y-53131235D01*
X85243560Y-53379000D01*
X85243560Y-55079000D01*
X85292843Y-55326765D01*
X85433191Y-55536809D01*
X85643235Y-55677157D01*
X85891000Y-55726440D01*
X87591000Y-55726440D01*
X87838765Y-55677157D01*
X88048809Y-55536809D01*
X88189157Y-55326765D01*
X88213633Y-55203715D01*
X88302414Y-55336586D01*
X88593565Y-55531126D01*
X88937000Y-55599440D01*
X90387000Y-55599440D01*
X90730435Y-55531126D01*
X91021586Y-55336586D01*
X91216126Y-55045435D01*
X91252614Y-54862000D01*
X91746153Y-54862000D01*
X91821000Y-54876888D01*
X91895847Y-54862000D01*
X91895852Y-54862000D01*
X92117537Y-54817904D01*
X92368929Y-54649929D01*
X92411331Y-54586470D01*
X92940473Y-54057329D01*
X93003929Y-54014929D01*
X93171904Y-53763537D01*
X93216000Y-53541852D01*
X93216000Y-53541848D01*
X93230888Y-53467000D01*
X93216000Y-53392152D01*
X93216000Y-52597000D01*
X93550874Y-52597000D01*
X93931280Y-52439431D01*
X94222431Y-52148280D01*
X94380000Y-51767874D01*
X94380000Y-51356126D01*
X94222431Y-50975720D01*
X94105000Y-50858289D01*
X94105000Y-40460848D01*
X94119888Y-40386000D01*
X94105000Y-40311152D01*
X94105000Y-40311148D01*
X94068592Y-40128112D01*
X94060904Y-40089462D01*
X93935329Y-39901527D01*
X93892929Y-39838071D01*
X93829473Y-39795671D01*
X92941320Y-38907519D01*
X92898918Y-38844060D01*
X92647526Y-38676085D01*
X92425841Y-38631989D01*
X92425836Y-38631989D01*
X92350989Y-38617101D01*
X92276142Y-38631989D01*
X90384911Y-38631989D01*
X90397440Y-38569000D01*
X90397440Y-36869000D01*
X90348157Y-36621235D01*
X90207809Y-36411191D01*
X90169360Y-36385500D01*
X90207809Y-36359809D01*
X90348157Y-36149765D01*
X90397440Y-35902000D01*
X90397440Y-34517000D01*
X95116158Y-34517000D01*
X94924845Y-34767680D01*
G36*
X57349375Y-44250625D02*
X57585001Y-44408065D01*
X57585001Y-44826337D01*
X57531560Y-45095000D01*
X57531560Y-46345000D01*
X57599874Y-46688435D01*
X57794414Y-46979586D01*
X58085565Y-47174126D01*
X58429000Y-47242440D01*
X59354000Y-47242440D01*
X59697435Y-47174126D01*
X59988586Y-46979586D01*
X60011298Y-46945595D01*
X60245565Y-47102126D01*
X60454001Y-47143587D01*
X60454001Y-47169149D01*
X60439112Y-47244000D01*
X60454001Y-47318852D01*
X60473278Y-47415763D01*
X60498097Y-47540537D01*
X60586356Y-47672625D01*
X60666072Y-47791929D01*
X60729528Y-47834329D01*
X61512671Y-48617473D01*
X61555071Y-48680929D01*
X61617853Y-48722879D01*
X61613999Y-48722112D01*
X61539152Y-48737000D01*
X61539148Y-48737000D01*
X61317463Y-48781096D01*
X61066071Y-48949071D01*
X61023671Y-49012528D01*
X60729527Y-49306671D01*
X60666072Y-49349071D01*
X60665745Y-49349560D01*
X60589000Y-49349560D01*
X60245565Y-49417874D01*
X59954414Y-49612414D01*
X59759874Y-49903565D01*
X59691560Y-50247000D01*
X59691560Y-51172000D01*
X59759874Y-51515435D01*
X59954414Y-51806586D01*
X60245565Y-52001126D01*
X60589000Y-52069440D01*
X61839000Y-52069440D01*
X62182435Y-52001126D01*
X62473586Y-51806586D01*
X62668126Y-51515435D01*
X62736440Y-51172000D01*
X62736440Y-50257000D01*
X63441560Y-50257000D01*
X63441560Y-50399000D01*
X63490843Y-50646765D01*
X63631191Y-50856809D01*
X63841235Y-50997157D01*
X64089000Y-51046440D01*
X64689000Y-51046440D01*
X64936765Y-50997157D01*
X65024000Y-50938868D01*
X65111235Y-50997157D01*
X65359000Y-51046440D01*
X65531639Y-51046440D01*
X66905685Y-52420487D01*
X66626874Y-52305000D01*
X66215126Y-52305000D01*
X65834720Y-52462569D01*
X65543569Y-52753720D01*
X65386000Y-53134126D01*
X65386000Y-53545874D01*
X65443188Y-53683938D01*
X65373250Y-53614000D01*
X65232690Y-53614000D01*
X65015972Y-53703768D01*
X64936765Y-53650843D01*
X64689000Y-53601560D01*
X64089000Y-53601560D01*
X63841235Y-53650843D01*
X63631191Y-53791191D01*
X63490843Y-54001235D01*
X63441560Y-54249000D01*
X63441560Y-55799000D01*
X63490843Y-56046765D01*
X63631191Y-56256809D01*
X63639666Y-56262472D01*
X63647167Y-56300181D01*
X63646256Y-56300000D01*
X63353744Y-56300000D01*
X63133592Y-56343791D01*
X61821801Y-55032000D01*
X62215310Y-55032000D01*
X62448699Y-54935327D01*
X62627327Y-54756698D01*
X62724000Y-54523309D01*
X62724000Y-53970250D01*
X62565250Y-53811500D01*
X61341000Y-53811500D01*
X61341000Y-53831500D01*
X61087000Y-53831500D01*
X61087000Y-53811500D01*
X61067000Y-53811500D01*
X61067000Y-53557500D01*
X61087000Y-53557500D01*
X61087000Y-52495750D01*
X61341000Y-52495750D01*
X61341000Y-53557500D01*
X62565250Y-53557500D01*
X62724000Y-53398750D01*
X62724000Y-52845691D01*
X62627327Y-52612302D01*
X62448699Y-52433673D01*
X62215310Y-52337000D01*
X61499750Y-52337000D01*
X61341000Y-52495750D01*
X61087000Y-52495750D01*
X60928250Y-52337000D01*
X60212690Y-52337000D01*
X59979301Y-52433673D01*
X59800673Y-52612302D01*
X59704000Y-52845691D01*
X59704000Y-53398750D01*
X59862748Y-53557498D01*
X59704000Y-53557498D01*
X59704000Y-53668261D01*
X59697435Y-53663874D01*
X59354000Y-53595560D01*
X58985242Y-53595560D01*
X59158473Y-53422329D01*
X59221929Y-53379929D01*
X59389904Y-53128537D01*
X59434000Y-52906852D01*
X59434000Y-52906848D01*
X59448888Y-52832000D01*
X59434000Y-52757152D01*
X59434000Y-51509846D01*
X59448888Y-51434999D01*
X59434000Y-51360152D01*
X59434000Y-51360148D01*
X59389904Y-51138463D01*
X59221929Y-50887071D01*
X59158472Y-50844671D01*
X58883331Y-50569529D01*
X58840929Y-50506071D01*
X58589537Y-50338096D01*
X58535000Y-50327248D01*
X58535000Y-50069750D01*
X58376250Y-49911000D01*
X57574710Y-49911000D01*
X57489246Y-49894000D01*
X56810754Y-49894000D01*
X56725290Y-49911000D01*
X55923750Y-49911000D01*
X55765000Y-50069750D01*
X55765000Y-50435309D01*
X55833224Y-50600016D01*
X55832305Y-50601391D01*
X55742275Y-51054000D01*
X55832305Y-51506609D01*
X55870652Y-51564000D01*
X52550848Y-51564000D01*
X52476000Y-51549112D01*
X52460423Y-51552210D01*
X52494478Y-51381000D01*
X53130767Y-51381000D01*
X53213000Y-51397357D01*
X53295233Y-51381000D01*
X53295237Y-51381000D01*
X53538801Y-51332552D01*
X53815001Y-51148001D01*
X53861587Y-51078280D01*
X54470782Y-50469086D01*
X54540501Y-50422501D01*
X54725052Y-50146301D01*
X54773500Y-49902737D01*
X54789858Y-49820500D01*
X54773500Y-49738263D01*
X54773500Y-49132691D01*
X55765000Y-49132691D01*
X55765000Y-49498250D01*
X55923750Y-49657000D01*
X57023000Y-49657000D01*
X57023000Y-48782750D01*
X57277000Y-48782750D01*
X57277000Y-49657000D01*
X58376250Y-49657000D01*
X58535000Y-49498250D01*
X58535000Y-49132691D01*
X58438327Y-48899302D01*
X58259699Y-48720673D01*
X58026310Y-48624000D01*
X57435750Y-48624000D01*
X57277000Y-48782750D01*
X57023000Y-48782750D01*
X56864250Y-48624000D01*
X56273690Y-48624000D01*
X56040301Y-48720673D01*
X55861673Y-48899302D01*
X55765000Y-49132691D01*
X54773500Y-49132691D01*
X54773500Y-48932705D01*
X55035586Y-48757586D01*
X55230126Y-48466435D01*
X55298440Y-48123000D01*
X55298440Y-47211497D01*
X55454000Y-47242440D01*
X56379000Y-47242440D01*
X56722435Y-47174126D01*
X57013586Y-46979586D01*
X57208126Y-46688435D01*
X57276440Y-46345000D01*
X57276440Y-45095000D01*
X57208126Y-44751565D01*
X57013586Y-44460414D01*
X56825119Y-44334485D01*
X56950625Y-44250625D01*
X57150000Y-43952239D01*
X57349375Y-44250625D01*
X57349375Y-44250625D01*
G37*
X57349375Y-44250625D02*
X57585001Y-44408065D01*
X57585001Y-44826337D01*
X57531560Y-45095000D01*
X57531560Y-46345000D01*
X57599874Y-46688435D01*
X57794414Y-46979586D01*
X58085565Y-47174126D01*
X58429000Y-47242440D01*
X59354000Y-47242440D01*
X59697435Y-47174126D01*
X59988586Y-46979586D01*
X60011298Y-46945595D01*
X60245565Y-47102126D01*
X60454001Y-47143587D01*
X60454001Y-47169149D01*
X60439112Y-47244000D01*
X60454001Y-47318852D01*
X60473278Y-47415763D01*
X60498097Y-47540537D01*
X60586356Y-47672625D01*
X60666072Y-47791929D01*
X60729528Y-47834329D01*
X61512671Y-48617473D01*
X61555071Y-48680929D01*
X61617853Y-48722879D01*
X61613999Y-48722112D01*
X61539152Y-48737000D01*
X61539148Y-48737000D01*
X61317463Y-48781096D01*
X61066071Y-48949071D01*
X61023671Y-49012528D01*
X60729527Y-49306671D01*
X60666072Y-49349071D01*
X60665745Y-49349560D01*
X60589000Y-49349560D01*
X60245565Y-49417874D01*
X59954414Y-49612414D01*
X59759874Y-49903565D01*
X59691560Y-50247000D01*
X59691560Y-51172000D01*
X59759874Y-51515435D01*
X59954414Y-51806586D01*
X60245565Y-52001126D01*
X60589000Y-52069440D01*
X61839000Y-52069440D01*
X62182435Y-52001126D01*
X62473586Y-51806586D01*
X62668126Y-51515435D01*
X62736440Y-51172000D01*
X62736440Y-50257000D01*
X63441560Y-50257000D01*
X63441560Y-50399000D01*
X63490843Y-50646765D01*
X63631191Y-50856809D01*
X63841235Y-50997157D01*
X64089000Y-51046440D01*
X64689000Y-51046440D01*
X64936765Y-50997157D01*
X65024000Y-50938868D01*
X65111235Y-50997157D01*
X65359000Y-51046440D01*
X65531639Y-51046440D01*
X66905685Y-52420487D01*
X66626874Y-52305000D01*
X66215126Y-52305000D01*
X65834720Y-52462569D01*
X65543569Y-52753720D01*
X65386000Y-53134126D01*
X65386000Y-53545874D01*
X65443188Y-53683938D01*
X65373250Y-53614000D01*
X65232690Y-53614000D01*
X65015972Y-53703768D01*
X64936765Y-53650843D01*
X64689000Y-53601560D01*
X64089000Y-53601560D01*
X63841235Y-53650843D01*
X63631191Y-53791191D01*
X63490843Y-54001235D01*
X63441560Y-54249000D01*
X63441560Y-55799000D01*
X63490843Y-56046765D01*
X63631191Y-56256809D01*
X63639666Y-56262472D01*
X63647167Y-56300181D01*
X63646256Y-56300000D01*
X63353744Y-56300000D01*
X63133592Y-56343791D01*
X61821801Y-55032000D01*
X62215310Y-55032000D01*
X62448699Y-54935327D01*
X62627327Y-54756698D01*
X62724000Y-54523309D01*
X62724000Y-53970250D01*
X62565250Y-53811500D01*
X61341000Y-53811500D01*
X61341000Y-53831500D01*
X61087000Y-53831500D01*
X61087000Y-53811500D01*
X61067000Y-53811500D01*
X61067000Y-53557500D01*
X61087000Y-53557500D01*
X61087000Y-52495750D01*
X61341000Y-52495750D01*
X61341000Y-53557500D01*
X62565250Y-53557500D01*
X62724000Y-53398750D01*
X62724000Y-52845691D01*
X62627327Y-52612302D01*
X62448699Y-52433673D01*
X62215310Y-52337000D01*
X61499750Y-52337000D01*
X61341000Y-52495750D01*
X61087000Y-52495750D01*
X60928250Y-52337000D01*
X60212690Y-52337000D01*
X59979301Y-52433673D01*
X59800673Y-52612302D01*
X59704000Y-52845691D01*
X59704000Y-53398750D01*
X59862748Y-53557498D01*
X59704000Y-53557498D01*
X59704000Y-53668261D01*
X59697435Y-53663874D01*
X59354000Y-53595560D01*
X58985242Y-53595560D01*
X59158473Y-53422329D01*
X59221929Y-53379929D01*
X59389904Y-53128537D01*
X59434000Y-52906852D01*
X59434000Y-52906848D01*
X59448888Y-52832000D01*
X59434000Y-52757152D01*
X59434000Y-51509846D01*
X59448888Y-51434999D01*
X59434000Y-51360152D01*
X59434000Y-51360148D01*
X59389904Y-51138463D01*
X59221929Y-50887071D01*
X59158472Y-50844671D01*
X58883331Y-50569529D01*
X58840929Y-50506071D01*
X58589537Y-50338096D01*
X58535000Y-50327248D01*
X58535000Y-50069750D01*
X58376250Y-49911000D01*
X57574710Y-49911000D01*
X57489246Y-49894000D01*
X56810754Y-49894000D01*
X56725290Y-49911000D01*
X55923750Y-49911000D01*
X55765000Y-50069750D01*
X55765000Y-50435309D01*
X55833224Y-50600016D01*
X55832305Y-50601391D01*
X55742275Y-51054000D01*
X55832305Y-51506609D01*
X55870652Y-51564000D01*
X52550848Y-51564000D01*
X52476000Y-51549112D01*
X52460423Y-51552210D01*
X52494478Y-51381000D01*
X53130767Y-51381000D01*
X53213000Y-51397357D01*
X53295233Y-51381000D01*
X53295237Y-51381000D01*
X53538801Y-51332552D01*
X53815001Y-51148001D01*
X53861587Y-51078280D01*
X54470782Y-50469086D01*
X54540501Y-50422501D01*
X54725052Y-50146301D01*
X54773500Y-49902737D01*
X54789858Y-49820500D01*
X54773500Y-49738263D01*
X54773500Y-49132691D01*
X55765000Y-49132691D01*
X55765000Y-49498250D01*
X55923750Y-49657000D01*
X57023000Y-49657000D01*
X57023000Y-48782750D01*
X57277000Y-48782750D01*
X57277000Y-49657000D01*
X58376250Y-49657000D01*
X58535000Y-49498250D01*
X58535000Y-49132691D01*
X58438327Y-48899302D01*
X58259699Y-48720673D01*
X58026310Y-48624000D01*
X57435750Y-48624000D01*
X57277000Y-48782750D01*
X57023000Y-48782750D01*
X56864250Y-48624000D01*
X56273690Y-48624000D01*
X56040301Y-48720673D01*
X55861673Y-48899302D01*
X55765000Y-49132691D01*
X54773500Y-49132691D01*
X54773500Y-48932705D01*
X55035586Y-48757586D01*
X55230126Y-48466435D01*
X55298440Y-48123000D01*
X55298440Y-47211497D01*
X55454000Y-47242440D01*
X56379000Y-47242440D01*
X56722435Y-47174126D01*
X57013586Y-46979586D01*
X57208126Y-46688435D01*
X57276440Y-46345000D01*
X57276440Y-45095000D01*
X57208126Y-44751565D01*
X57013586Y-44460414D01*
X56825119Y-44334485D01*
X56950625Y-44250625D01*
X57150000Y-43952239D01*
X57349375Y-44250625D01*
G36*
X65786000Y-54897000D02*
X65806000Y-54897000D01*
X65806000Y-55151000D01*
X65786000Y-55151000D01*
X65786000Y-55171000D01*
X65532000Y-55171000D01*
X65532000Y-55151000D01*
X65512000Y-55151000D01*
X65512000Y-54897000D01*
X65532000Y-54897000D01*
X65532000Y-54877000D01*
X65786000Y-54877000D01*
X65786000Y-54897000D01*
X65786000Y-54897000D01*
G37*
X65786000Y-54897000D02*
X65806000Y-54897000D01*
X65806000Y-55151000D01*
X65786000Y-55151000D01*
X65786000Y-55171000D01*
X65532000Y-55171000D01*
X65532000Y-55151000D01*
X65512000Y-55151000D01*
X65512000Y-54897000D01*
X65532000Y-54897000D01*
X65532000Y-54877000D01*
X65786000Y-54877000D01*
X65786000Y-54897000D01*
G36*
X78254560Y-41367000D02*
X78303843Y-41614765D01*
X78444191Y-41824809D01*
X78577718Y-41914030D01*
X78523570Y-41968178D01*
X78639263Y-42083871D01*
X78413836Y-42133383D01*
X78254193Y-42598036D01*
X78284518Y-43088413D01*
X78413836Y-43400617D01*
X78639265Y-43450130D01*
X79322395Y-42767000D01*
X79308253Y-42752858D01*
X79487858Y-42573253D01*
X79502000Y-42587395D01*
X79516143Y-42573253D01*
X79695748Y-42752858D01*
X79681605Y-42767000D01*
X80364735Y-43450130D01*
X80590164Y-43400617D01*
X80749807Y-42935964D01*
X80719482Y-42445587D01*
X80590164Y-42133383D01*
X80364737Y-42083871D01*
X80480430Y-41968178D01*
X80426282Y-41914030D01*
X80559809Y-41824809D01*
X80700157Y-41614765D01*
X80749440Y-41367000D01*
X80749440Y-40601999D01*
X85574409Y-40601999D01*
X85521557Y-40681096D01*
X85456685Y-40694000D01*
X85456682Y-40694000D01*
X85213118Y-40742448D01*
X85022385Y-40869892D01*
X84936918Y-40926999D01*
X84890335Y-40996715D01*
X83414720Y-42472332D01*
X83344999Y-42518918D01*
X83160448Y-42795119D01*
X83112000Y-43038683D01*
X83112000Y-43038686D01*
X83095643Y-43120919D01*
X83112000Y-43203152D01*
X83112001Y-48930131D01*
X82881138Y-49160994D01*
X81268480Y-49160994D01*
X81265941Y-49148229D01*
X81125593Y-48938185D01*
X80915549Y-48797837D01*
X80667784Y-48748554D01*
X78467784Y-48748554D01*
X78220019Y-48797837D01*
X78009975Y-48938185D01*
X77869627Y-49148229D01*
X77858732Y-49203000D01*
X77844711Y-49203000D01*
X77802280Y-49160569D01*
X77421874Y-49003000D01*
X77102784Y-49003000D01*
X77102784Y-48001744D01*
X76944034Y-47842994D01*
X73394784Y-47842994D01*
X73394784Y-51092244D01*
X73553534Y-51250994D01*
X73785205Y-51250994D01*
X73435699Y-51600500D01*
X72837263Y-51600500D01*
X72828126Y-51554565D01*
X72633586Y-51263414D01*
X72614998Y-51250994D01*
X72982034Y-51250994D01*
X73140784Y-51092244D01*
X73140784Y-47842994D01*
X69591534Y-47842994D01*
X69432784Y-48001744D01*
X69432784Y-50637143D01*
X69166874Y-50527000D01*
X69120979Y-50527000D01*
X69146440Y-50399000D01*
X69146440Y-48849000D01*
X69097157Y-48601235D01*
X68956809Y-48391191D01*
X68746765Y-48250843D01*
X68705472Y-48242629D01*
X68746929Y-48214929D01*
X68914904Y-47963537D01*
X68928835Y-47893501D01*
X68956809Y-47874809D01*
X69097157Y-47664765D01*
X69146440Y-47417000D01*
X69146440Y-45867000D01*
X69097157Y-45619235D01*
X68956809Y-45409191D01*
X68746765Y-45268843D01*
X68499000Y-45219560D01*
X67899000Y-45219560D01*
X67689000Y-45261331D01*
X67689000Y-45145802D01*
X67751802Y-45083000D01*
X68632153Y-45083000D01*
X68707000Y-45097888D01*
X68781847Y-45083000D01*
X68781852Y-45083000D01*
X69003537Y-45038904D01*
X69254929Y-44870929D01*
X69297331Y-44807470D01*
X69445276Y-44659525D01*
X69432784Y-44689684D01*
X69432784Y-47430244D01*
X69591534Y-47588994D01*
X73140784Y-47588994D01*
X73140784Y-44339744D01*
X73394784Y-44339744D01*
X73394784Y-47588994D01*
X76944034Y-47588994D01*
X77102784Y-47430244D01*
X77102784Y-46434170D01*
X77264126Y-46501000D01*
X77675874Y-46501000D01*
X77941317Y-46391050D01*
X78009975Y-46493803D01*
X78220019Y-46634151D01*
X78467784Y-46683434D01*
X80667784Y-46683434D01*
X80915549Y-46634151D01*
X81125593Y-46493803D01*
X81265941Y-46283759D01*
X81315224Y-46035994D01*
X81315224Y-44835994D01*
X81265941Y-44588229D01*
X81125593Y-44378185D01*
X80915549Y-44237837D01*
X80667784Y-44188554D01*
X78467784Y-44188554D01*
X78220019Y-44237837D01*
X78009975Y-44378185D01*
X77909911Y-44527941D01*
X77675874Y-44431000D01*
X77264126Y-44431000D01*
X77034953Y-44525926D01*
X77006111Y-44456295D01*
X76827482Y-44277667D01*
X76594093Y-44180994D01*
X73553534Y-44180994D01*
X73394784Y-44339744D01*
X73140784Y-44339744D01*
X72982034Y-44180994D01*
X72673404Y-44180994D01*
X72828126Y-43949435D01*
X72837263Y-43903500D01*
X73113653Y-43903500D01*
X73188500Y-43918388D01*
X73263347Y-43903500D01*
X73263352Y-43903500D01*
X73485037Y-43859404D01*
X73736429Y-43691429D01*
X73777651Y-43629735D01*
X78818870Y-43629735D01*
X78868383Y-43855164D01*
X79333036Y-44014807D01*
X79823413Y-43984482D01*
X80135617Y-43855164D01*
X80185130Y-43629735D01*
X79502000Y-42946605D01*
X78818870Y-43629735D01*
X73777651Y-43629735D01*
X73778831Y-43627970D01*
X74398473Y-43008329D01*
X74461929Y-42965929D01*
X74629904Y-42714537D01*
X74674000Y-42492852D01*
X74674000Y-42492847D01*
X74688888Y-42418000D01*
X74674000Y-42343153D01*
X74674000Y-40700801D01*
X74772803Y-40601999D01*
X78254560Y-40601999D01*
X78254560Y-41367000D01*
X78254560Y-41367000D01*
G37*
X78254560Y-41367000D02*
X78303843Y-41614765D01*
X78444191Y-41824809D01*
X78577718Y-41914030D01*
X78523570Y-41968178D01*
X78639263Y-42083871D01*
X78413836Y-42133383D01*
X78254193Y-42598036D01*
X78284518Y-43088413D01*
X78413836Y-43400617D01*
X78639265Y-43450130D01*
X79322395Y-42767000D01*
X79308253Y-42752858D01*
X79487858Y-42573253D01*
X79502000Y-42587395D01*
X79516143Y-42573253D01*
X79695748Y-42752858D01*
X79681605Y-42767000D01*
X80364735Y-43450130D01*
X80590164Y-43400617D01*
X80749807Y-42935964D01*
X80719482Y-42445587D01*
X80590164Y-42133383D01*
X80364737Y-42083871D01*
X80480430Y-41968178D01*
X80426282Y-41914030D01*
X80559809Y-41824809D01*
X80700157Y-41614765D01*
X80749440Y-41367000D01*
X80749440Y-40601999D01*
X85574409Y-40601999D01*
X85521557Y-40681096D01*
X85456685Y-40694000D01*
X85456682Y-40694000D01*
X85213118Y-40742448D01*
X85022385Y-40869892D01*
X84936918Y-40926999D01*
X84890335Y-40996715D01*
X83414720Y-42472332D01*
X83344999Y-42518918D01*
X83160448Y-42795119D01*
X83112000Y-43038683D01*
X83112000Y-43038686D01*
X83095643Y-43120919D01*
X83112000Y-43203152D01*
X83112001Y-48930131D01*
X82881138Y-49160994D01*
X81268480Y-49160994D01*
X81265941Y-49148229D01*
X81125593Y-48938185D01*
X80915549Y-48797837D01*
X80667784Y-48748554D01*
X78467784Y-48748554D01*
X78220019Y-48797837D01*
X78009975Y-48938185D01*
X77869627Y-49148229D01*
X77858732Y-49203000D01*
X77844711Y-49203000D01*
X77802280Y-49160569D01*
X77421874Y-49003000D01*
X77102784Y-49003000D01*
X77102784Y-48001744D01*
X76944034Y-47842994D01*
X73394784Y-47842994D01*
X73394784Y-51092244D01*
X73553534Y-51250994D01*
X73785205Y-51250994D01*
X73435699Y-51600500D01*
X72837263Y-51600500D01*
X72828126Y-51554565D01*
X72633586Y-51263414D01*
X72614998Y-51250994D01*
X72982034Y-51250994D01*
X73140784Y-51092244D01*
X73140784Y-47842994D01*
X69591534Y-47842994D01*
X69432784Y-48001744D01*
X69432784Y-50637143D01*
X69166874Y-50527000D01*
X69120979Y-50527000D01*
X69146440Y-50399000D01*
X69146440Y-48849000D01*
X69097157Y-48601235D01*
X68956809Y-48391191D01*
X68746765Y-48250843D01*
X68705472Y-48242629D01*
X68746929Y-48214929D01*
X68914904Y-47963537D01*
X68928835Y-47893501D01*
X68956809Y-47874809D01*
X69097157Y-47664765D01*
X69146440Y-47417000D01*
X69146440Y-45867000D01*
X69097157Y-45619235D01*
X68956809Y-45409191D01*
X68746765Y-45268843D01*
X68499000Y-45219560D01*
X67899000Y-45219560D01*
X67689000Y-45261331D01*
X67689000Y-45145802D01*
X67751802Y-45083000D01*
X68632153Y-45083000D01*
X68707000Y-45097888D01*
X68781847Y-45083000D01*
X68781852Y-45083000D01*
X69003537Y-45038904D01*
X69254929Y-44870929D01*
X69297331Y-44807470D01*
X69445276Y-44659525D01*
X69432784Y-44689684D01*
X69432784Y-47430244D01*
X69591534Y-47588994D01*
X73140784Y-47588994D01*
X73140784Y-44339744D01*
X73394784Y-44339744D01*
X73394784Y-47588994D01*
X76944034Y-47588994D01*
X77102784Y-47430244D01*
X77102784Y-46434170D01*
X77264126Y-46501000D01*
X77675874Y-46501000D01*
X77941317Y-46391050D01*
X78009975Y-46493803D01*
X78220019Y-46634151D01*
X78467784Y-46683434D01*
X80667784Y-46683434D01*
X80915549Y-46634151D01*
X81125593Y-46493803D01*
X81265941Y-46283759D01*
X81315224Y-46035994D01*
X81315224Y-44835994D01*
X81265941Y-44588229D01*
X81125593Y-44378185D01*
X80915549Y-44237837D01*
X80667784Y-44188554D01*
X78467784Y-44188554D01*
X78220019Y-44237837D01*
X78009975Y-44378185D01*
X77909911Y-44527941D01*
X77675874Y-44431000D01*
X77264126Y-44431000D01*
X77034953Y-44525926D01*
X77006111Y-44456295D01*
X76827482Y-44277667D01*
X76594093Y-44180994D01*
X73553534Y-44180994D01*
X73394784Y-44339744D01*
X73140784Y-44339744D01*
X72982034Y-44180994D01*
X72673404Y-44180994D01*
X72828126Y-43949435D01*
X72837263Y-43903500D01*
X73113653Y-43903500D01*
X73188500Y-43918388D01*
X73263347Y-43903500D01*
X73263352Y-43903500D01*
X73485037Y-43859404D01*
X73736429Y-43691429D01*
X73777651Y-43629735D01*
X78818870Y-43629735D01*
X78868383Y-43855164D01*
X79333036Y-44014807D01*
X79823413Y-43984482D01*
X80135617Y-43855164D01*
X80185130Y-43629735D01*
X79502000Y-42946605D01*
X78818870Y-43629735D01*
X73777651Y-43629735D01*
X73778831Y-43627970D01*
X74398473Y-43008329D01*
X74461929Y-42965929D01*
X74629904Y-42714537D01*
X74674000Y-42492852D01*
X74674000Y-42492847D01*
X74688888Y-42418000D01*
X74674000Y-42343153D01*
X74674000Y-40700801D01*
X74772803Y-40601999D01*
X78254560Y-40601999D01*
X78254560Y-41367000D01*
G36*
X91696000Y-40827802D02*
X91696001Y-50527000D01*
X91361126Y-50527000D01*
X90980720Y-50684569D01*
X90968291Y-50696998D01*
X90857625Y-50531375D01*
X90589171Y-50352000D01*
X90857625Y-50172625D01*
X91185839Y-49681418D01*
X91301092Y-49102000D01*
X91185839Y-48522582D01*
X90857625Y-48031375D01*
X90589171Y-47852000D01*
X90857625Y-47672625D01*
X91185839Y-47181418D01*
X91301092Y-46602000D01*
X91185839Y-46022582D01*
X90857625Y-45531375D01*
X90584313Y-45348754D01*
X90989497Y-44973193D01*
X91228476Y-44458890D01*
X91107155Y-44229000D01*
X89789000Y-44229000D01*
X89789000Y-44249000D01*
X89535000Y-44249000D01*
X89535000Y-44229000D01*
X88216845Y-44229000D01*
X88147708Y-44360008D01*
X88061155Y-44196000D01*
X86868000Y-44196000D01*
X86868000Y-44216000D01*
X86614000Y-44216000D01*
X86614000Y-44196000D01*
X85420845Y-44196000D01*
X85299524Y-44425890D01*
X85469355Y-44835924D01*
X85859642Y-45264183D01*
X85989478Y-45325157D01*
X85670375Y-45538375D01*
X85342161Y-46029582D01*
X85226908Y-46609000D01*
X85299791Y-46975408D01*
X84782000Y-47493199D01*
X84782000Y-43466786D01*
X85661878Y-42586909D01*
X85670375Y-42599625D01*
X85989478Y-42812843D01*
X85859642Y-42873817D01*
X85469355Y-43302076D01*
X85299524Y-43712110D01*
X85420845Y-43942000D01*
X86614000Y-43942000D01*
X86614000Y-43922000D01*
X86868000Y-43922000D01*
X86868000Y-43942000D01*
X88061155Y-43942000D01*
X88130292Y-43810992D01*
X88216845Y-43975000D01*
X89535000Y-43975000D01*
X89535000Y-43955000D01*
X89789000Y-43955000D01*
X89789000Y-43975000D01*
X91107155Y-43975000D01*
X91228476Y-43745110D01*
X90989497Y-43230807D01*
X90584313Y-42855246D01*
X90857625Y-42672625D01*
X91185839Y-42181418D01*
X91301092Y-41602000D01*
X91185839Y-41022582D01*
X90904814Y-40601999D01*
X91470198Y-40601999D01*
X91696000Y-40827802D01*
X91696000Y-40827802D01*
G37*
X91696000Y-40827802D02*
X91696001Y-50527000D01*
X91361126Y-50527000D01*
X90980720Y-50684569D01*
X90968291Y-50696998D01*
X90857625Y-50531375D01*
X90589171Y-50352000D01*
X90857625Y-50172625D01*
X91185839Y-49681418D01*
X91301092Y-49102000D01*
X91185839Y-48522582D01*
X90857625Y-48031375D01*
X90589171Y-47852000D01*
X90857625Y-47672625D01*
X91185839Y-47181418D01*
X91301092Y-46602000D01*
X91185839Y-46022582D01*
X90857625Y-45531375D01*
X90584313Y-45348754D01*
X90989497Y-44973193D01*
X91228476Y-44458890D01*
X91107155Y-44229000D01*
X89789000Y-44229000D01*
X89789000Y-44249000D01*
X89535000Y-44249000D01*
X89535000Y-44229000D01*
X88216845Y-44229000D01*
X88147708Y-44360008D01*
X88061155Y-44196000D01*
X86868000Y-44196000D01*
X86868000Y-44216000D01*
X86614000Y-44216000D01*
X86614000Y-44196000D01*
X85420845Y-44196000D01*
X85299524Y-44425890D01*
X85469355Y-44835924D01*
X85859642Y-45264183D01*
X85989478Y-45325157D01*
X85670375Y-45538375D01*
X85342161Y-46029582D01*
X85226908Y-46609000D01*
X85299791Y-46975408D01*
X84782000Y-47493199D01*
X84782000Y-43466786D01*
X85661878Y-42586909D01*
X85670375Y-42599625D01*
X85989478Y-42812843D01*
X85859642Y-42873817D01*
X85469355Y-43302076D01*
X85299524Y-43712110D01*
X85420845Y-43942000D01*
X86614000Y-43942000D01*
X86614000Y-43922000D01*
X86868000Y-43922000D01*
X86868000Y-43942000D01*
X88061155Y-43942000D01*
X88130292Y-43810992D01*
X88216845Y-43975000D01*
X89535000Y-43975000D01*
X89535000Y-43955000D01*
X89789000Y-43955000D01*
X89789000Y-43975000D01*
X91107155Y-43975000D01*
X91228476Y-43745110D01*
X90989497Y-43230807D01*
X90584313Y-42855246D01*
X90857625Y-42672625D01*
X91185839Y-42181418D01*
X91301092Y-41602000D01*
X91185839Y-41022582D01*
X90904814Y-40601999D01*
X91470198Y-40601999D01*
X91696000Y-40827802D01*
G36*
X62429375Y-38789625D02*
X62740000Y-38997178D01*
X62740001Y-40828148D01*
X62725112Y-40903000D01*
X62784097Y-41199537D01*
X62897329Y-41369000D01*
X62952072Y-41450929D01*
X63015527Y-41493329D01*
X63248671Y-41726472D01*
X63291071Y-41789929D01*
X63441560Y-41890483D01*
X63441560Y-42017000D01*
X63490843Y-42264765D01*
X63631191Y-42474809D01*
X63841235Y-42615157D01*
X64089000Y-42664440D01*
X64689000Y-42664440D01*
X64936765Y-42615157D01*
X65024000Y-42556868D01*
X65111235Y-42615157D01*
X65359000Y-42664440D01*
X65959000Y-42664440D01*
X66206765Y-42615157D01*
X66285972Y-42562232D01*
X66502690Y-42652000D01*
X66643250Y-42652000D01*
X66802000Y-42493250D01*
X66802000Y-41369000D01*
X66782000Y-41369000D01*
X66782000Y-41115000D01*
X66802000Y-41115000D01*
X66802000Y-41095000D01*
X67056000Y-41095000D01*
X67056000Y-41115000D01*
X67076000Y-41115000D01*
X67076000Y-41369000D01*
X67056000Y-41369000D01*
X67056000Y-42493250D01*
X67214750Y-42652000D01*
X67355310Y-42652000D01*
X67572028Y-42562232D01*
X67651235Y-42615157D01*
X67899000Y-42664440D01*
X68274759Y-42664440D01*
X68011199Y-42928000D01*
X66622847Y-42928000D01*
X66548000Y-42913112D01*
X66473153Y-42928000D01*
X66473148Y-42928000D01*
X66251463Y-42972096D01*
X66000071Y-43140071D01*
X65957671Y-43203527D01*
X65174530Y-43986669D01*
X65111071Y-44029071D01*
X64943096Y-44280464D01*
X64899000Y-44502149D01*
X64899000Y-44502153D01*
X64884112Y-44577000D01*
X64899000Y-44651847D01*
X64899000Y-45261331D01*
X64689000Y-45219560D01*
X64089000Y-45219560D01*
X63841235Y-45268843D01*
X63631191Y-45409191D01*
X63490843Y-45619235D01*
X63441560Y-45867000D01*
X63441560Y-47373000D01*
X62417802Y-47373000D01*
X62152819Y-47108017D01*
X62182435Y-47102126D01*
X62473586Y-46907586D01*
X62668126Y-46616435D01*
X62736440Y-46273000D01*
X62736440Y-45348000D01*
X62668126Y-45004565D01*
X62473586Y-44713414D01*
X62182435Y-44518874D01*
X61839000Y-44450560D01*
X60589000Y-44450560D01*
X60245565Y-44518874D01*
X60094909Y-44619539D01*
X59988586Y-44460414D01*
X59697435Y-44265874D01*
X59505894Y-44227774D01*
X59769709Y-43832946D01*
X59800673Y-43907698D01*
X59979301Y-44086327D01*
X60212690Y-44183000D01*
X60928250Y-44183000D01*
X61087000Y-44024250D01*
X61087000Y-42962500D01*
X61341000Y-42962500D01*
X61341000Y-44024250D01*
X61499750Y-44183000D01*
X62215310Y-44183000D01*
X62448699Y-44086327D01*
X62627327Y-43907698D01*
X62724000Y-43674309D01*
X62724000Y-43121250D01*
X62565250Y-42962500D01*
X61341000Y-42962500D01*
X61087000Y-42962500D01*
X61067000Y-42962500D01*
X61067000Y-42708500D01*
X61087000Y-42708500D01*
X61087000Y-41646750D01*
X61341000Y-41646750D01*
X61341000Y-42708500D01*
X62565250Y-42708500D01*
X62724000Y-42549750D01*
X62724000Y-41996691D01*
X62627327Y-41763302D01*
X62448699Y-41584673D01*
X62215310Y-41488000D01*
X61499750Y-41488000D01*
X61341000Y-41646750D01*
X61087000Y-41646750D01*
X60928250Y-41488000D01*
X60212690Y-41488000D01*
X59979301Y-41584673D01*
X59800673Y-41763302D01*
X59704000Y-41996691D01*
X59704000Y-42428713D01*
X59490625Y-42109375D01*
X59074390Y-41831255D01*
X59186924Y-41784645D01*
X59615183Y-41394358D01*
X59861486Y-40869892D01*
X59740819Y-40640000D01*
X58547000Y-40640000D01*
X58547000Y-40660000D01*
X58293000Y-40660000D01*
X58293000Y-40640000D01*
X58273000Y-40640000D01*
X58273000Y-40386000D01*
X58293000Y-40386000D01*
X58293000Y-40366000D01*
X58547000Y-40366000D01*
X58547000Y-40386000D01*
X59740819Y-40386000D01*
X59861486Y-40156108D01*
X59615183Y-39631642D01*
X59186924Y-39241355D01*
X58924629Y-39132715D01*
X58999418Y-39117839D01*
X59490625Y-38789625D01*
X59690000Y-38491239D01*
X59889375Y-38789625D01*
X60380582Y-39117839D01*
X60813744Y-39204000D01*
X61106256Y-39204000D01*
X61539418Y-39117839D01*
X62030625Y-38789625D01*
X62230000Y-38491239D01*
X62429375Y-38789625D01*
X62429375Y-38789625D01*
G37*
X62429375Y-38789625D02*
X62740000Y-38997178D01*
X62740001Y-40828148D01*
X62725112Y-40903000D01*
X62784097Y-41199537D01*
X62897329Y-41369000D01*
X62952072Y-41450929D01*
X63015527Y-41493329D01*
X63248671Y-41726472D01*
X63291071Y-41789929D01*
X63441560Y-41890483D01*
X63441560Y-42017000D01*
X63490843Y-42264765D01*
X63631191Y-42474809D01*
X63841235Y-42615157D01*
X64089000Y-42664440D01*
X64689000Y-42664440D01*
X64936765Y-42615157D01*
X65024000Y-42556868D01*
X65111235Y-42615157D01*
X65359000Y-42664440D01*
X65959000Y-42664440D01*
X66206765Y-42615157D01*
X66285972Y-42562232D01*
X66502690Y-42652000D01*
X66643250Y-42652000D01*
X66802000Y-42493250D01*
X66802000Y-41369000D01*
X66782000Y-41369000D01*
X66782000Y-41115000D01*
X66802000Y-41115000D01*
X66802000Y-41095000D01*
X67056000Y-41095000D01*
X67056000Y-41115000D01*
X67076000Y-41115000D01*
X67076000Y-41369000D01*
X67056000Y-41369000D01*
X67056000Y-42493250D01*
X67214750Y-42652000D01*
X67355310Y-42652000D01*
X67572028Y-42562232D01*
X67651235Y-42615157D01*
X67899000Y-42664440D01*
X68274759Y-42664440D01*
X68011199Y-42928000D01*
X66622847Y-42928000D01*
X66548000Y-42913112D01*
X66473153Y-42928000D01*
X66473148Y-42928000D01*
X66251463Y-42972096D01*
X66000071Y-43140071D01*
X65957671Y-43203527D01*
X65174530Y-43986669D01*
X65111071Y-44029071D01*
X64943096Y-44280464D01*
X64899000Y-44502149D01*
X64899000Y-44502153D01*
X64884112Y-44577000D01*
X64899000Y-44651847D01*
X64899000Y-45261331D01*
X64689000Y-45219560D01*
X64089000Y-45219560D01*
X63841235Y-45268843D01*
X63631191Y-45409191D01*
X63490843Y-45619235D01*
X63441560Y-45867000D01*
X63441560Y-47373000D01*
X62417802Y-47373000D01*
X62152819Y-47108017D01*
X62182435Y-47102126D01*
X62473586Y-46907586D01*
X62668126Y-46616435D01*
X62736440Y-46273000D01*
X62736440Y-45348000D01*
X62668126Y-45004565D01*
X62473586Y-44713414D01*
X62182435Y-44518874D01*
X61839000Y-44450560D01*
X60589000Y-44450560D01*
X60245565Y-44518874D01*
X60094909Y-44619539D01*
X59988586Y-44460414D01*
X59697435Y-44265874D01*
X59505894Y-44227774D01*
X59769709Y-43832946D01*
X59800673Y-43907698D01*
X59979301Y-44086327D01*
X60212690Y-44183000D01*
X60928250Y-44183000D01*
X61087000Y-44024250D01*
X61087000Y-42962500D01*
X61341000Y-42962500D01*
X61341000Y-44024250D01*
X61499750Y-44183000D01*
X62215310Y-44183000D01*
X62448699Y-44086327D01*
X62627327Y-43907698D01*
X62724000Y-43674309D01*
X62724000Y-43121250D01*
X62565250Y-42962500D01*
X61341000Y-42962500D01*
X61087000Y-42962500D01*
X61067000Y-42962500D01*
X61067000Y-42708500D01*
X61087000Y-42708500D01*
X61087000Y-41646750D01*
X61341000Y-41646750D01*
X61341000Y-42708500D01*
X62565250Y-42708500D01*
X62724000Y-42549750D01*
X62724000Y-41996691D01*
X62627327Y-41763302D01*
X62448699Y-41584673D01*
X62215310Y-41488000D01*
X61499750Y-41488000D01*
X61341000Y-41646750D01*
X61087000Y-41646750D01*
X60928250Y-41488000D01*
X60212690Y-41488000D01*
X59979301Y-41584673D01*
X59800673Y-41763302D01*
X59704000Y-41996691D01*
X59704000Y-42428713D01*
X59490625Y-42109375D01*
X59074390Y-41831255D01*
X59186924Y-41784645D01*
X59615183Y-41394358D01*
X59861486Y-40869892D01*
X59740819Y-40640000D01*
X58547000Y-40640000D01*
X58547000Y-40660000D01*
X58293000Y-40660000D01*
X58293000Y-40640000D01*
X58273000Y-40640000D01*
X58273000Y-40386000D01*
X58293000Y-40386000D01*
X58293000Y-40366000D01*
X58547000Y-40366000D01*
X58547000Y-40386000D01*
X59740819Y-40386000D01*
X59861486Y-40156108D01*
X59615183Y-39631642D01*
X59186924Y-39241355D01*
X58924629Y-39132715D01*
X58999418Y-39117839D01*
X59490625Y-38789625D01*
X59690000Y-38491239D01*
X59889375Y-38789625D01*
X60380582Y-39117839D01*
X60813744Y-39204000D01*
X61106256Y-39204000D01*
X61539418Y-39117839D01*
X62030625Y-38789625D01*
X62230000Y-38491239D01*
X62429375Y-38789625D01*
G36*
X57349375Y-38789625D02*
X57840582Y-39117839D01*
X57915371Y-39132715D01*
X57653076Y-39241355D01*
X57224817Y-39631642D01*
X57163843Y-39761478D01*
X56950625Y-39442375D01*
X56462170Y-39116000D01*
X56950625Y-38789625D01*
X57150000Y-38491239D01*
X57349375Y-38789625D01*
X57349375Y-38789625D01*
G37*
X57349375Y-38789625D02*
X57840582Y-39117839D01*
X57915371Y-39132715D01*
X57653076Y-39241355D01*
X57224817Y-39631642D01*
X57163843Y-39761478D01*
X56950625Y-39442375D01*
X56462170Y-39116000D01*
X56950625Y-38789625D01*
X57150000Y-38491239D01*
X57349375Y-38789625D01*
G36*
X86487000Y-34925000D02*
X86507000Y-34925000D01*
X86507000Y-35179000D01*
X86487000Y-35179000D01*
X86487000Y-36372155D01*
X86512287Y-36385500D01*
X86487000Y-36398845D01*
X86487000Y-37592000D01*
X86507000Y-37592000D01*
X86507000Y-37846000D01*
X86487000Y-37846000D01*
X86487000Y-37866000D01*
X86233000Y-37866000D01*
X86233000Y-37846000D01*
X86213000Y-37846000D01*
X86213000Y-37592000D01*
X86233000Y-37592000D01*
X86233000Y-36398845D01*
X86207713Y-36385500D01*
X86233000Y-36372155D01*
X86233000Y-35179000D01*
X86213000Y-35179000D01*
X86213000Y-34925000D01*
X86233000Y-34925000D01*
X86233000Y-34905000D01*
X86487000Y-34905000D01*
X86487000Y-34925000D01*
X86487000Y-34925000D01*
G37*
X86487000Y-34925000D02*
X86507000Y-34925000D01*
X86507000Y-35179000D01*
X86487000Y-35179000D01*
X86487000Y-36372155D01*
X86512287Y-36385500D01*
X86487000Y-36398845D01*
X86487000Y-37592000D01*
X86507000Y-37592000D01*
X86507000Y-37846000D01*
X86487000Y-37846000D01*
X86487000Y-37866000D01*
X86233000Y-37866000D01*
X86233000Y-37846000D01*
X86213000Y-37846000D01*
X86213000Y-37592000D01*
X86233000Y-37592000D01*
X86233000Y-36398845D01*
X86207713Y-36385500D01*
X86233000Y-36372155D01*
X86233000Y-35179000D01*
X86213000Y-35179000D01*
X86213000Y-34925000D01*
X86233000Y-34925000D01*
X86233000Y-34905000D01*
X86487000Y-34905000D01*
X86487000Y-34925000D01*
M02*
