G04 #@! TF.GenerationSoftware,KiCad,Pcbnew,(5.0.0)*
G04 #@! TF.CreationDate,2018-10-11T21:25:17+02:00*
G04 #@! TF.ProjectId,canbus,63616E6275732E6B696361645F706362,rev?*
G04 #@! TF.SameCoordinates,Original*
G04 #@! TF.FileFunction,Legend,Bot*
G04 #@! TF.FilePolarity,Positive*
%FSLAX46Y46*%
G04 Gerber Fmt 4.6, Leading zero omitted, Abs format (unit mm)*
G04 Created by KiCad (PCBNEW (5.0.0)) date 10/11/18 21:25:17*
%MOMM*%
%LPD*%
G01*
G04 APERTURE LIST*
%ADD10C,0.081280*%
%ADD11C,0.101600*%
%ADD12C,0.152400*%
%ADD13C,0.050800*%
%ADD14C,0.254000*%
%ADD15C,0.127000*%
%ADD16C,0.120000*%
%ADD17C,0.100000*%
%ADD18C,0.203200*%
%ADD19C,0.120650*%
%ADD20C,0.190500*%
%ADD21C,0.032512*%
%ADD22C,0.065024*%
%ADD23C,0.150000*%
G04 APERTURE END LIST*
D10*
X180928215Y-90220558D02*
X181249948Y-89760939D01*
X181479758Y-90220558D02*
X181479758Y-89255358D01*
X181112063Y-89255358D01*
X181020139Y-89301320D01*
X180974177Y-89347281D01*
X180928215Y-89439205D01*
X180928215Y-89577091D01*
X180974177Y-89669015D01*
X181020139Y-89714977D01*
X181112063Y-89760939D01*
X181479758Y-89760939D01*
X180146863Y-90174596D02*
X180238787Y-90220558D01*
X180422634Y-90220558D01*
X180514558Y-90174596D01*
X180560520Y-90082672D01*
X180560520Y-89714977D01*
X180514558Y-89623053D01*
X180422634Y-89577091D01*
X180238787Y-89577091D01*
X180146863Y-89623053D01*
X180100901Y-89714977D01*
X180100901Y-89806900D01*
X180560520Y-89898824D01*
X179687244Y-90220558D02*
X179687244Y-89577091D01*
X179687244Y-89669015D02*
X179641282Y-89623053D01*
X179549358Y-89577091D01*
X179411472Y-89577091D01*
X179319548Y-89623053D01*
X179273587Y-89714977D01*
X179273587Y-90220558D01*
X179273587Y-89714977D02*
X179227625Y-89623053D01*
X179135701Y-89577091D01*
X178997815Y-89577091D01*
X178905891Y-89623053D01*
X178859929Y-89714977D01*
X178859929Y-90220558D01*
X177986653Y-89577091D02*
X177986653Y-90542291D01*
X177986653Y-90174596D02*
X178078577Y-90220558D01*
X178262425Y-90220558D01*
X178354348Y-90174596D01*
X178400310Y-90128634D01*
X178446272Y-90036710D01*
X178446272Y-89760939D01*
X178400310Y-89669015D01*
X178354348Y-89623053D01*
X178262425Y-89577091D01*
X178078577Y-89577091D01*
X177986653Y-89623053D01*
X181295910Y-90784438D02*
X181203987Y-90784438D01*
X181112063Y-90830400D01*
X181066101Y-90876361D01*
X181020139Y-90968285D01*
X180974177Y-91152133D01*
X180974177Y-91381942D01*
X181020139Y-91565790D01*
X181066101Y-91657714D01*
X181112063Y-91703676D01*
X181203987Y-91749638D01*
X181295910Y-91749638D01*
X181387834Y-91703676D01*
X181433796Y-91657714D01*
X181479758Y-91565790D01*
X181525720Y-91381942D01*
X181525720Y-91152133D01*
X181479758Y-90968285D01*
X181433796Y-90876361D01*
X181387834Y-90830400D01*
X181295910Y-90784438D01*
X180652444Y-90784438D02*
X180054939Y-90784438D01*
X180376672Y-91152133D01*
X180238787Y-91152133D01*
X180146863Y-91198095D01*
X180100901Y-91244057D01*
X180054939Y-91335980D01*
X180054939Y-91565790D01*
X180100901Y-91657714D01*
X180146863Y-91703676D01*
X180238787Y-91749638D01*
X180514558Y-91749638D01*
X180606482Y-91703676D01*
X180652444Y-91657714D01*
X179733206Y-90784438D02*
X179135701Y-90784438D01*
X179457434Y-91152133D01*
X179319548Y-91152133D01*
X179227625Y-91198095D01*
X179181663Y-91244057D01*
X179135701Y-91335980D01*
X179135701Y-91565790D01*
X179181663Y-91657714D01*
X179227625Y-91703676D01*
X179319548Y-91749638D01*
X179595320Y-91749638D01*
X179687244Y-91703676D01*
X179733206Y-91657714D01*
X178676082Y-91749638D02*
X178492234Y-91749638D01*
X178400310Y-91703676D01*
X178354348Y-91657714D01*
X178262425Y-91519828D01*
X178216463Y-91335980D01*
X178216463Y-90968285D01*
X178262425Y-90876361D01*
X178308387Y-90830400D01*
X178400310Y-90784438D01*
X178584158Y-90784438D01*
X178676082Y-90830400D01*
X178722044Y-90876361D01*
X178768006Y-90968285D01*
X178768006Y-91198095D01*
X178722044Y-91290019D01*
X178676082Y-91335980D01*
X178584158Y-91381942D01*
X178400310Y-91381942D01*
X178308387Y-91335980D01*
X178262425Y-91290019D01*
X178216463Y-91198095D01*
X163568355Y-92552761D02*
X164119898Y-92552761D01*
X163844127Y-91587561D02*
X163844127Y-92552761D01*
X164395670Y-91633523D02*
X164533555Y-91587561D01*
X164763365Y-91587561D01*
X164855289Y-91633523D01*
X164901251Y-91679485D01*
X164947212Y-91771409D01*
X164947212Y-91863333D01*
X164901251Y-91955257D01*
X164855289Y-92001219D01*
X164763365Y-92047180D01*
X164579517Y-92093142D01*
X164487593Y-92139104D01*
X164441632Y-92185066D01*
X164395670Y-92276990D01*
X164395670Y-92368914D01*
X164441632Y-92460838D01*
X164487593Y-92506800D01*
X164579517Y-92552761D01*
X164809327Y-92552761D01*
X164947212Y-92506800D01*
X165314908Y-91633523D02*
X165452793Y-91587561D01*
X165682603Y-91587561D01*
X165774527Y-91633523D01*
X165820489Y-91679485D01*
X165866451Y-91771409D01*
X165866451Y-91863333D01*
X165820489Y-91955257D01*
X165774527Y-92001219D01*
X165682603Y-92047180D01*
X165498755Y-92093142D01*
X165406832Y-92139104D01*
X165360870Y-92185066D01*
X165314908Y-92276990D01*
X165314908Y-92368914D01*
X165360870Y-92460838D01*
X165406832Y-92506800D01*
X165498755Y-92552761D01*
X165728565Y-92552761D01*
X165866451Y-92506800D01*
X166693765Y-92231028D02*
X166693765Y-91587561D01*
X166463955Y-92598723D02*
X166234146Y-91909295D01*
X166831651Y-91909295D01*
X167613003Y-92552761D02*
X167429155Y-92552761D01*
X167337232Y-92506800D01*
X167291270Y-92460838D01*
X167199346Y-92322952D01*
X167153384Y-92139104D01*
X167153384Y-91771409D01*
X167199346Y-91679485D01*
X167245308Y-91633523D01*
X167337232Y-91587561D01*
X167521079Y-91587561D01*
X167613003Y-91633523D01*
X167658965Y-91679485D01*
X167704927Y-91771409D01*
X167704927Y-92001219D01*
X167658965Y-92093142D01*
X167613003Y-92139104D01*
X167521079Y-92185066D01*
X167337232Y-92185066D01*
X167245308Y-92139104D01*
X167199346Y-92093142D01*
X167153384Y-92001219D01*
X168026660Y-92552761D02*
X168624165Y-92552761D01*
X168302432Y-92185066D01*
X168440317Y-92185066D01*
X168532241Y-92139104D01*
X168578203Y-92093142D01*
X168624165Y-92001219D01*
X168624165Y-91771409D01*
X168578203Y-91679485D01*
X168532241Y-91633523D01*
X168440317Y-91587561D01*
X168164546Y-91587561D01*
X168072622Y-91633523D01*
X168026660Y-91679485D01*
X169589365Y-91679485D02*
X169543403Y-91633523D01*
X169405517Y-91587561D01*
X169313593Y-91587561D01*
X169175708Y-91633523D01*
X169083784Y-91725447D01*
X169037822Y-91817371D01*
X168991860Y-92001219D01*
X168991860Y-92139104D01*
X169037822Y-92322952D01*
X169083784Y-92414876D01*
X169175708Y-92506800D01*
X169313593Y-92552761D01*
X169405517Y-92552761D01*
X169543403Y-92506800D01*
X169589365Y-92460838D01*
X114430241Y-113787161D02*
X114430241Y-114752361D01*
X114751974Y-114062933D01*
X115073708Y-114752361D01*
X115073708Y-113787161D01*
X116084870Y-113879085D02*
X116038908Y-113833123D01*
X115901022Y-113787161D01*
X115809098Y-113787161D01*
X115671212Y-113833123D01*
X115579289Y-113925047D01*
X115533327Y-114016971D01*
X115487365Y-114200819D01*
X115487365Y-114338704D01*
X115533327Y-114522552D01*
X115579289Y-114614476D01*
X115671212Y-114706400D01*
X115809098Y-114752361D01*
X115901022Y-114752361D01*
X116038908Y-114706400D01*
X116084870Y-114660438D01*
X116498527Y-113787161D02*
X116498527Y-114752361D01*
X116866222Y-114752361D01*
X116958146Y-114706400D01*
X117004108Y-114660438D01*
X117050070Y-114568514D01*
X117050070Y-114430628D01*
X117004108Y-114338704D01*
X116958146Y-114292742D01*
X116866222Y-114246780D01*
X116498527Y-114246780D01*
X117417765Y-114660438D02*
X117463727Y-114706400D01*
X117555651Y-114752361D01*
X117785460Y-114752361D01*
X117877384Y-114706400D01*
X117923346Y-114660438D01*
X117969308Y-114568514D01*
X117969308Y-114476590D01*
X117923346Y-114338704D01*
X117371803Y-113787161D01*
X117969308Y-113787161D01*
X118842584Y-114752361D02*
X118382965Y-114752361D01*
X118337003Y-114292742D01*
X118382965Y-114338704D01*
X118474889Y-114384666D01*
X118704698Y-114384666D01*
X118796622Y-114338704D01*
X118842584Y-114292742D01*
X118888546Y-114200819D01*
X118888546Y-113971009D01*
X118842584Y-113879085D01*
X118796622Y-113833123D01*
X118704698Y-113787161D01*
X118474889Y-113787161D01*
X118382965Y-113833123D01*
X118337003Y-113879085D01*
X119761822Y-114752361D02*
X119302203Y-114752361D01*
X119256241Y-114292742D01*
X119302203Y-114338704D01*
X119394127Y-114384666D01*
X119623936Y-114384666D01*
X119715860Y-114338704D01*
X119761822Y-114292742D01*
X119807784Y-114200819D01*
X119807784Y-113971009D01*
X119761822Y-113879085D01*
X119715860Y-113833123D01*
X119623936Y-113787161D01*
X119394127Y-113787161D01*
X119302203Y-113833123D01*
X119256241Y-113879085D01*
X120727022Y-113787161D02*
X120175479Y-113787161D01*
X120451251Y-113787161D02*
X120451251Y-114752361D01*
X120359327Y-114614476D01*
X120267403Y-114522552D01*
X120175479Y-114476590D01*
X119232438Y-96904241D02*
X118267238Y-96904241D01*
X118956666Y-97225974D01*
X118267238Y-97547708D01*
X119232438Y-97547708D01*
X119140514Y-98558870D02*
X119186476Y-98512908D01*
X119232438Y-98375022D01*
X119232438Y-98283098D01*
X119186476Y-98145212D01*
X119094552Y-98053289D01*
X119002628Y-98007327D01*
X118818780Y-97961365D01*
X118680895Y-97961365D01*
X118497047Y-98007327D01*
X118405123Y-98053289D01*
X118313200Y-98145212D01*
X118267238Y-98283098D01*
X118267238Y-98375022D01*
X118313200Y-98512908D01*
X118359161Y-98558870D01*
X119232438Y-98972527D02*
X118267238Y-98972527D01*
X118267238Y-99340222D01*
X118313200Y-99432146D01*
X118359161Y-99478108D01*
X118451085Y-99524070D01*
X118588971Y-99524070D01*
X118680895Y-99478108D01*
X118726857Y-99432146D01*
X118772819Y-99340222D01*
X118772819Y-98972527D01*
X118359161Y-99891765D02*
X118313200Y-99937727D01*
X118267238Y-100029651D01*
X118267238Y-100259460D01*
X118313200Y-100351384D01*
X118359161Y-100397346D01*
X118451085Y-100443308D01*
X118543009Y-100443308D01*
X118680895Y-100397346D01*
X119232438Y-99845803D01*
X119232438Y-100443308D01*
X118267238Y-101316584D02*
X118267238Y-100856965D01*
X118726857Y-100811003D01*
X118680895Y-100856965D01*
X118634933Y-100948889D01*
X118634933Y-101178698D01*
X118680895Y-101270622D01*
X118726857Y-101316584D01*
X118818780Y-101362546D01*
X119048590Y-101362546D01*
X119140514Y-101316584D01*
X119186476Y-101270622D01*
X119232438Y-101178698D01*
X119232438Y-100948889D01*
X119186476Y-100856965D01*
X119140514Y-100811003D01*
X119232438Y-102281784D02*
X119232438Y-101730241D01*
X119232438Y-102006012D02*
X118267238Y-102006012D01*
X118405123Y-101914089D01*
X118497047Y-101822165D01*
X118543009Y-101730241D01*
X118267238Y-103155060D02*
X118267238Y-102695441D01*
X118726857Y-102649479D01*
X118680895Y-102695441D01*
X118634933Y-102787365D01*
X118634933Y-103017174D01*
X118680895Y-103109098D01*
X118726857Y-103155060D01*
X118818780Y-103201022D01*
X119048590Y-103201022D01*
X119140514Y-103155060D01*
X119186476Y-103109098D01*
X119232438Y-103017174D01*
X119232438Y-102787365D01*
X119186476Y-102695441D01*
X119140514Y-102649479D01*
D11*
X187149498Y-108095747D02*
X187149498Y-106889247D01*
X186862236Y-106889247D01*
X186689879Y-106946700D01*
X186574974Y-107061604D01*
X186517521Y-107176509D01*
X186460069Y-107406319D01*
X186460069Y-107578676D01*
X186517521Y-107808485D01*
X186574974Y-107923390D01*
X186689879Y-108038295D01*
X186862236Y-108095747D01*
X187149498Y-108095747D01*
X186000450Y-107751033D02*
X185425926Y-107751033D01*
X186115355Y-108095747D02*
X185713188Y-106889247D01*
X185311021Y-108095747D01*
X185081212Y-106889247D02*
X184391783Y-106889247D01*
X184736498Y-108095747D02*
X184736498Y-106889247D01*
X184047069Y-107751033D02*
X183472545Y-107751033D01*
X184161974Y-108095747D02*
X183759807Y-106889247D01*
X183357640Y-108095747D01*
X182553307Y-107463771D02*
X182380950Y-107521223D01*
X182323498Y-107578676D01*
X182266045Y-107693580D01*
X182266045Y-107865938D01*
X182323498Y-107980842D01*
X182380950Y-108038295D01*
X182495855Y-108095747D01*
X182955474Y-108095747D01*
X182955474Y-106889247D01*
X182553307Y-106889247D01*
X182438402Y-106946700D01*
X182380950Y-107004152D01*
X182323498Y-107119057D01*
X182323498Y-107233961D01*
X182380950Y-107348866D01*
X182438402Y-107406319D01*
X182553307Y-107463771D01*
X182955474Y-107463771D01*
X187149498Y-110483347D02*
X187149498Y-109276847D01*
X186862236Y-109276847D01*
X186689879Y-109334300D01*
X186574974Y-109449204D01*
X186517521Y-109564109D01*
X186460069Y-109793919D01*
X186460069Y-109966276D01*
X186517521Y-110196085D01*
X186574974Y-110310990D01*
X186689879Y-110425895D01*
X186862236Y-110483347D01*
X187149498Y-110483347D01*
X186000450Y-110138633D02*
X185425926Y-110138633D01*
X186115355Y-110483347D02*
X185713188Y-109276847D01*
X185311021Y-110483347D01*
X185081212Y-109276847D02*
X184391783Y-109276847D01*
X184736498Y-110483347D02*
X184736498Y-109276847D01*
X184047069Y-110138633D02*
X183472545Y-110138633D01*
X184161974Y-110483347D02*
X183759807Y-109276847D01*
X183357640Y-110483347D01*
D10*
X141558215Y-100395314D02*
X141604177Y-100441276D01*
X141742063Y-100487238D01*
X141833987Y-100487238D01*
X141971872Y-100441276D01*
X142063796Y-100349352D01*
X142109758Y-100257428D01*
X142155720Y-100073580D01*
X142155720Y-99935695D01*
X142109758Y-99751847D01*
X142063796Y-99659923D01*
X141971872Y-99568000D01*
X141833987Y-99522038D01*
X141742063Y-99522038D01*
X141604177Y-99568000D01*
X141558215Y-99613961D01*
X140638977Y-100487238D02*
X141190520Y-100487238D01*
X140914748Y-100487238D02*
X140914748Y-99522038D01*
X141006672Y-99659923D01*
X141098596Y-99751847D01*
X141190520Y-99797809D01*
X135360615Y-92267314D02*
X135406577Y-92313276D01*
X135544463Y-92359238D01*
X135636387Y-92359238D01*
X135774272Y-92313276D01*
X135866196Y-92221352D01*
X135912158Y-92129428D01*
X135958120Y-91945580D01*
X135958120Y-91807695D01*
X135912158Y-91623847D01*
X135866196Y-91531923D01*
X135774272Y-91440000D01*
X135636387Y-91394038D01*
X135544463Y-91394038D01*
X135406577Y-91440000D01*
X135360615Y-91485961D01*
X134992920Y-91485961D02*
X134946958Y-91440000D01*
X134855034Y-91394038D01*
X134625225Y-91394038D01*
X134533301Y-91440000D01*
X134487339Y-91485961D01*
X134441377Y-91577885D01*
X134441377Y-91669809D01*
X134487339Y-91807695D01*
X135038882Y-92359238D01*
X134441377Y-92359238D01*
X135309815Y-100446114D02*
X135355777Y-100492076D01*
X135493663Y-100538038D01*
X135585587Y-100538038D01*
X135723472Y-100492076D01*
X135815396Y-100400152D01*
X135861358Y-100308228D01*
X135907320Y-100124380D01*
X135907320Y-99986495D01*
X135861358Y-99802647D01*
X135815396Y-99710723D01*
X135723472Y-99618800D01*
X135585587Y-99572838D01*
X135493663Y-99572838D01*
X135355777Y-99618800D01*
X135309815Y-99664761D01*
X134988082Y-99572838D02*
X134390577Y-99572838D01*
X134712310Y-99940533D01*
X134574425Y-99940533D01*
X134482501Y-99986495D01*
X134436539Y-100032457D01*
X134390577Y-100124380D01*
X134390577Y-100354190D01*
X134436539Y-100446114D01*
X134482501Y-100492076D01*
X134574425Y-100538038D01*
X134850196Y-100538038D01*
X134942120Y-100492076D01*
X134988082Y-100446114D01*
X141405815Y-92267314D02*
X141451777Y-92313276D01*
X141589663Y-92359238D01*
X141681587Y-92359238D01*
X141819472Y-92313276D01*
X141911396Y-92221352D01*
X141957358Y-92129428D01*
X142003320Y-91945580D01*
X142003320Y-91807695D01*
X141957358Y-91623847D01*
X141911396Y-91531923D01*
X141819472Y-91440000D01*
X141681587Y-91394038D01*
X141589663Y-91394038D01*
X141451777Y-91440000D01*
X141405815Y-91485961D01*
X140578501Y-91715771D02*
X140578501Y-92359238D01*
X140808310Y-91348076D02*
X141038120Y-92037504D01*
X140440615Y-92037504D01*
D11*
X118456102Y-118071571D02*
X118120602Y-119078071D01*
X117785102Y-118071571D01*
X117066174Y-119030142D02*
X117162031Y-119078071D01*
X117353745Y-119078071D01*
X117449602Y-119030142D01*
X117497531Y-118934285D01*
X117497531Y-118550857D01*
X117449602Y-118455000D01*
X117353745Y-118407071D01*
X117162031Y-118407071D01*
X117066174Y-118455000D01*
X117018245Y-118550857D01*
X117018245Y-118646714D01*
X117497531Y-118742571D01*
X116586888Y-119078071D02*
X116586888Y-118407071D01*
X116586888Y-118598785D02*
X116538960Y-118502928D01*
X116491031Y-118455000D01*
X116395174Y-118407071D01*
X116299317Y-118407071D01*
X116011745Y-119030142D02*
X115915888Y-119078071D01*
X115724174Y-119078071D01*
X115628317Y-119030142D01*
X115580388Y-118934285D01*
X115580388Y-118886357D01*
X115628317Y-118790500D01*
X115724174Y-118742571D01*
X115867960Y-118742571D01*
X115963817Y-118694642D01*
X116011745Y-118598785D01*
X116011745Y-118550857D01*
X115963817Y-118455000D01*
X115867960Y-118407071D01*
X115724174Y-118407071D01*
X115628317Y-118455000D01*
X115149031Y-119078071D02*
X115149031Y-118407071D01*
X115149031Y-118071571D02*
X115196960Y-118119500D01*
X115149031Y-118167428D01*
X115101102Y-118119500D01*
X115149031Y-118071571D01*
X115149031Y-118167428D01*
X114525960Y-119078071D02*
X114621817Y-119030142D01*
X114669745Y-118982214D01*
X114717674Y-118886357D01*
X114717674Y-118598785D01*
X114669745Y-118502928D01*
X114621817Y-118455000D01*
X114525960Y-118407071D01*
X114382174Y-118407071D01*
X114286317Y-118455000D01*
X114238388Y-118502928D01*
X114190460Y-118598785D01*
X114190460Y-118886357D01*
X114238388Y-118982214D01*
X114286317Y-119030142D01*
X114382174Y-119078071D01*
X114525960Y-119078071D01*
X113759102Y-118407071D02*
X113759102Y-119078071D01*
X113759102Y-118502928D02*
X113711174Y-118455000D01*
X113615317Y-118407071D01*
X113471531Y-118407071D01*
X113375674Y-118455000D01*
X113327745Y-118550857D01*
X113327745Y-119078071D01*
X111889888Y-118071571D02*
X111794031Y-118071571D01*
X111698174Y-118119500D01*
X111650245Y-118167428D01*
X111602317Y-118263285D01*
X111554388Y-118455000D01*
X111554388Y-118694642D01*
X111602317Y-118886357D01*
X111650245Y-118982214D01*
X111698174Y-119030142D01*
X111794031Y-119078071D01*
X111889888Y-119078071D01*
X111985745Y-119030142D01*
X112033674Y-118982214D01*
X112081602Y-118886357D01*
X112129531Y-118694642D01*
X112129531Y-118455000D01*
X112081602Y-118263285D01*
X112033674Y-118167428D01*
X111985745Y-118119500D01*
X111889888Y-118071571D01*
X111123031Y-118982214D02*
X111075102Y-119030142D01*
X111123031Y-119078071D01*
X111170960Y-119030142D01*
X111123031Y-118982214D01*
X111123031Y-119078071D01*
X110116531Y-119078071D02*
X110691674Y-119078071D01*
X110404102Y-119078071D02*
X110404102Y-118071571D01*
X110499960Y-118215357D01*
X110595817Y-118311214D01*
X110691674Y-118359142D01*
X186517521Y-116751100D02*
X186632426Y-116693647D01*
X186804783Y-116693647D01*
X186977140Y-116751100D01*
X187092045Y-116866004D01*
X187149498Y-116980909D01*
X187206950Y-117210719D01*
X187206950Y-117383076D01*
X187149498Y-117612885D01*
X187092045Y-117727790D01*
X186977140Y-117842695D01*
X186804783Y-117900147D01*
X186689879Y-117900147D01*
X186517521Y-117842695D01*
X186460069Y-117785242D01*
X186460069Y-117383076D01*
X186689879Y-117383076D01*
X185942998Y-117900147D02*
X185942998Y-116693647D01*
X185253569Y-117900147D01*
X185253569Y-116693647D01*
X184679045Y-117900147D02*
X184679045Y-116693647D01*
X184391783Y-116693647D01*
X184219426Y-116751100D01*
X184104521Y-116866004D01*
X184047069Y-116980909D01*
X183989617Y-117210719D01*
X183989617Y-117383076D01*
X184047069Y-117612885D01*
X184104521Y-117727790D01*
X184219426Y-117842695D01*
X184391783Y-117900147D01*
X184679045Y-117900147D01*
X186460069Y-120389347D02*
X186862236Y-119814823D01*
X187149498Y-120389347D02*
X187149498Y-119182847D01*
X186689879Y-119182847D01*
X186574974Y-119240300D01*
X186517521Y-119297752D01*
X186460069Y-119412657D01*
X186460069Y-119585014D01*
X186517521Y-119699919D01*
X186574974Y-119757371D01*
X186689879Y-119814823D01*
X187149498Y-119814823D01*
X186000450Y-120044633D02*
X185425926Y-120044633D01*
X186115355Y-120389347D02*
X185713188Y-119182847D01*
X185311021Y-120389347D01*
X185023760Y-119182847D02*
X184736498Y-120389347D01*
X184506688Y-119527561D01*
X184276879Y-120389347D01*
X183989617Y-119182847D01*
X186460069Y-112705242D02*
X186517521Y-112762695D01*
X186689879Y-112820147D01*
X186804783Y-112820147D01*
X186977140Y-112762695D01*
X187092045Y-112647790D01*
X187149498Y-112532885D01*
X187206950Y-112303076D01*
X187206950Y-112130719D01*
X187149498Y-111900909D01*
X187092045Y-111786004D01*
X186977140Y-111671100D01*
X186804783Y-111613647D01*
X186689879Y-111613647D01*
X186517521Y-111671100D01*
X186460069Y-111728552D01*
X186000450Y-112475433D02*
X185425926Y-112475433D01*
X186115355Y-112820147D02*
X185713188Y-111613647D01*
X185311021Y-112820147D01*
X184908855Y-112820147D02*
X184908855Y-111613647D01*
X184219426Y-112820147D01*
X184219426Y-111613647D01*
X183070379Y-112820147D02*
X183644902Y-112820147D01*
X183644902Y-111613647D01*
X186460069Y-115346842D02*
X186517521Y-115404295D01*
X186689879Y-115461747D01*
X186804783Y-115461747D01*
X186977140Y-115404295D01*
X187092045Y-115289390D01*
X187149498Y-115174485D01*
X187206950Y-114944676D01*
X187206950Y-114772319D01*
X187149498Y-114542509D01*
X187092045Y-114427604D01*
X186977140Y-114312700D01*
X186804783Y-114255247D01*
X186689879Y-114255247D01*
X186517521Y-114312700D01*
X186460069Y-114370152D01*
X186000450Y-115117033D02*
X185425926Y-115117033D01*
X186115355Y-115461747D02*
X185713188Y-114255247D01*
X185311021Y-115461747D01*
X184908855Y-115461747D02*
X184908855Y-114255247D01*
X184219426Y-115461747D01*
X184219426Y-114255247D01*
X183644902Y-115461747D02*
X183644902Y-114255247D01*
X183644902Y-114829771D02*
X182955474Y-114829771D01*
X182955474Y-115461747D02*
X182955474Y-114255247D01*
D12*
G04 #@! TO.C,VQ2*
X179146200Y-103886000D02*
X172288200Y-103886000D01*
X172288200Y-99314000D02*
X179146200Y-99314000D01*
D13*
X179146200Y-103378000D02*
X172288200Y-103378000D01*
X172288200Y-99822000D02*
X179146200Y-99822000D01*
X172288200Y-103378000D02*
G75*
G02X172288200Y-99822000I0J1778000D01*
G01*
D12*
X172288200Y-103886000D02*
G75*
G02X172288200Y-99314000I0J2286000D01*
G01*
X179146200Y-103886000D02*
G75*
G03X179146200Y-99314000I0J2286000D01*
G01*
D13*
X179146200Y-103378000D02*
G75*
G03X179146200Y-99822000I0J1778000D01*
G01*
D14*
G04 #@! TO.C,R1*
X147886100Y-97743600D02*
X147632100Y-97743600D01*
X152966100Y-97743600D02*
X153220100Y-97743600D01*
X147886100Y-97743600D02*
X147886100Y-99013600D01*
X147886100Y-96473600D02*
X147886100Y-97743600D01*
X152966100Y-96473600D02*
X147886100Y-96473600D01*
X152966100Y-97743600D02*
X152966100Y-96473600D01*
X152966100Y-99013600D02*
X152966100Y-97743600D01*
X147886100Y-99013600D02*
X152966100Y-99013600D01*
G04 #@! TO.C,R3*
X147886100Y-95203600D02*
X152966100Y-95203600D01*
X152966100Y-95203600D02*
X152966100Y-93933600D01*
X152966100Y-93933600D02*
X152966100Y-92663600D01*
X152966100Y-92663600D02*
X147886100Y-92663600D01*
X147886100Y-92663600D02*
X147886100Y-93933600D01*
X147886100Y-93933600D02*
X147886100Y-95203600D01*
X152966100Y-93933600D02*
X153220100Y-93933600D01*
X147886100Y-93933600D02*
X147632100Y-93933600D01*
G04 #@! TO.C,C1*
X138854100Y-96473600D02*
X138854100Y-99013600D01*
X144188100Y-96473600D02*
X138854100Y-96473600D01*
X144188100Y-99013600D02*
X144188100Y-96473600D01*
X138854100Y-99013600D02*
X144188100Y-99013600D01*
X141521100Y-98378600D02*
X141521100Y-97108600D01*
G04 #@! TO.C,C2*
X135171100Y-94568600D02*
X135171100Y-93298600D01*
X132504100Y-95203600D02*
X137838100Y-95203600D01*
X137838100Y-95203600D02*
X137838100Y-92663600D01*
X137838100Y-92663600D02*
X132504100Y-92663600D01*
X132504100Y-92663600D02*
X132504100Y-95203600D01*
G04 #@! TO.C,C3*
X132504100Y-96473600D02*
X132504100Y-99013600D01*
X137838100Y-96473600D02*
X132504100Y-96473600D01*
X137838100Y-99013600D02*
X137838100Y-96473600D01*
X132504100Y-99013600D02*
X137838100Y-99013600D01*
X135171100Y-98378600D02*
X135171100Y-97108600D01*
G04 #@! TO.C,C4*
X141521100Y-94568600D02*
X141521100Y-93298600D01*
X138854100Y-95203600D02*
X144188100Y-95203600D01*
X144188100Y-95203600D02*
X144188100Y-92663600D01*
X144188100Y-92663600D02*
X138854100Y-92663600D01*
X138854100Y-92663600D02*
X138854100Y-95203600D01*
D15*
G04 #@! TO.C,U$2*
X168191100Y-119333600D02*
X135171100Y-119333600D01*
X135171100Y-119333600D02*
X135171100Y-101553600D01*
X135171100Y-101553600D02*
X168191100Y-101553600D01*
X168191100Y-101553600D02*
X168191100Y-119333600D01*
X166921100Y-109173600D02*
X166921100Y-111713600D01*
X166921100Y-111713600D02*
X165651100Y-112983600D01*
X165651100Y-112983600D02*
X163111100Y-112983600D01*
X163111100Y-112983600D02*
X161841100Y-111713600D01*
X161841100Y-111713600D02*
X161841100Y-109173600D01*
X161841100Y-109173600D02*
X163111100Y-107903600D01*
X163111100Y-107903600D02*
X165651100Y-107903600D01*
X165651100Y-107903600D02*
X166921100Y-109173600D01*
X159301100Y-110443600D02*
X154221100Y-105363600D01*
X154221100Y-105363600D02*
X149141100Y-110443600D01*
X149141100Y-110443600D02*
X154221100Y-115523600D01*
X154221100Y-115523600D02*
X159301100Y-110443600D01*
D16*
G04 #@! TO.C,C15*
X178964000Y-107500336D02*
X178964000Y-108704464D01*
X177144000Y-107500336D02*
X177144000Y-108704464D01*
G04 #@! TO.C,J2*
X188400000Y-107615000D02*
X189000000Y-107315000D01*
X188400000Y-107015000D02*
X188400000Y-107615000D01*
X189000000Y-107315000D02*
X188400000Y-107015000D01*
X192100000Y-120065000D02*
X192100000Y-119565000D01*
X197600000Y-120065000D02*
X192100000Y-120065000D01*
X197600000Y-119565000D02*
X197600000Y-120065000D01*
X192100000Y-119565000D02*
X197600000Y-119565000D01*
X192100000Y-117565000D02*
X192100000Y-117065000D01*
X197600000Y-117565000D02*
X192100000Y-117565000D01*
X197600000Y-117065000D02*
X197600000Y-117565000D01*
X192100000Y-117065000D02*
X197600000Y-117065000D01*
X192100000Y-115065000D02*
X192100000Y-114565000D01*
X197600000Y-115065000D02*
X192100000Y-115065000D01*
X197600000Y-114565000D02*
X197600000Y-115065000D01*
X192100000Y-114565000D02*
X197600000Y-114565000D01*
X192100000Y-112565000D02*
X192100000Y-112065000D01*
X197600000Y-112565000D02*
X192100000Y-112565000D01*
X197600000Y-112065000D02*
X197600000Y-112565000D01*
X192100000Y-112065000D02*
X197600000Y-112065000D01*
X192100000Y-110065000D02*
X192100000Y-109565000D01*
X197600000Y-110065000D02*
X192100000Y-110065000D01*
X197600000Y-109565000D02*
X197600000Y-110065000D01*
X192100000Y-109565000D02*
X197600000Y-109565000D01*
X192100000Y-107565000D02*
X192100000Y-107065000D01*
X197600000Y-107565000D02*
X192100000Y-107565000D01*
X197600000Y-107065000D02*
X197600000Y-107565000D01*
X192100000Y-107065000D02*
X197600000Y-107065000D01*
X186490000Y-120955000D02*
X190990000Y-120955000D01*
X186490000Y-122375000D02*
X186490000Y-120955000D01*
X198210000Y-122375000D02*
X186490000Y-122375000D01*
X198210000Y-113565000D02*
X198210000Y-122375000D01*
X186490000Y-106175000D02*
X190990000Y-106175000D01*
X186490000Y-104755000D02*
X186490000Y-106175000D01*
X198210000Y-104755000D02*
X186490000Y-104755000D01*
X198210000Y-113565000D02*
X198210000Y-104755000D01*
G04 #@! TO.C,C14*
X180365200Y-117449600D02*
G75*
G03X180365200Y-117449600I-4120000J0D01*
G01*
X176245200Y-113369600D02*
X176245200Y-121529600D01*
X176205200Y-113369600D02*
X176205200Y-121529600D01*
X176165200Y-113369600D02*
X176165200Y-121529600D01*
X176125200Y-113370600D02*
X176125200Y-121528600D01*
X176085200Y-113372600D02*
X176085200Y-121526600D01*
X176045200Y-113373600D02*
X176045200Y-121525600D01*
X176005200Y-113375600D02*
X176005200Y-116409600D01*
X176005200Y-118489600D02*
X176005200Y-121523600D01*
X175965200Y-113378600D02*
X175965200Y-116409600D01*
X175965200Y-118489600D02*
X175965200Y-121520600D01*
X175925200Y-113381600D02*
X175925200Y-116409600D01*
X175925200Y-118489600D02*
X175925200Y-121517600D01*
X175885200Y-113384600D02*
X175885200Y-116409600D01*
X175885200Y-118489600D02*
X175885200Y-121514600D01*
X175845200Y-113388600D02*
X175845200Y-116409600D01*
X175845200Y-118489600D02*
X175845200Y-121510600D01*
X175805200Y-113392600D02*
X175805200Y-116409600D01*
X175805200Y-118489600D02*
X175805200Y-121506600D01*
X175765200Y-113397600D02*
X175765200Y-116409600D01*
X175765200Y-118489600D02*
X175765200Y-121501600D01*
X175725200Y-113401600D02*
X175725200Y-116409600D01*
X175725200Y-118489600D02*
X175725200Y-121497600D01*
X175685200Y-113407600D02*
X175685200Y-116409600D01*
X175685200Y-118489600D02*
X175685200Y-121491600D01*
X175645200Y-113412600D02*
X175645200Y-116409600D01*
X175645200Y-118489600D02*
X175645200Y-121486600D01*
X175605200Y-113419600D02*
X175605200Y-116409600D01*
X175605200Y-118489600D02*
X175605200Y-121479600D01*
X175565200Y-113425600D02*
X175565200Y-116409600D01*
X175565200Y-118489600D02*
X175565200Y-121473600D01*
X175524200Y-113432600D02*
X175524200Y-116409600D01*
X175524200Y-118489600D02*
X175524200Y-121466600D01*
X175484200Y-113439600D02*
X175484200Y-116409600D01*
X175484200Y-118489600D02*
X175484200Y-121459600D01*
X175444200Y-113447600D02*
X175444200Y-116409600D01*
X175444200Y-118489600D02*
X175444200Y-121451600D01*
X175404200Y-113455600D02*
X175404200Y-116409600D01*
X175404200Y-118489600D02*
X175404200Y-121443600D01*
X175364200Y-113464600D02*
X175364200Y-116409600D01*
X175364200Y-118489600D02*
X175364200Y-121434600D01*
X175324200Y-113473600D02*
X175324200Y-116409600D01*
X175324200Y-118489600D02*
X175324200Y-121425600D01*
X175284200Y-113482600D02*
X175284200Y-116409600D01*
X175284200Y-118489600D02*
X175284200Y-121416600D01*
X175244200Y-113492600D02*
X175244200Y-116409600D01*
X175244200Y-118489600D02*
X175244200Y-121406600D01*
X175204200Y-113502600D02*
X175204200Y-116409600D01*
X175204200Y-118489600D02*
X175204200Y-121396600D01*
X175164200Y-113513600D02*
X175164200Y-116409600D01*
X175164200Y-118489600D02*
X175164200Y-121385600D01*
X175124200Y-113524600D02*
X175124200Y-116409600D01*
X175124200Y-118489600D02*
X175124200Y-121374600D01*
X175084200Y-113535600D02*
X175084200Y-116409600D01*
X175084200Y-118489600D02*
X175084200Y-121363600D01*
X175044200Y-113547600D02*
X175044200Y-116409600D01*
X175044200Y-118489600D02*
X175044200Y-121351600D01*
X175004200Y-113560600D02*
X175004200Y-116409600D01*
X175004200Y-118489600D02*
X175004200Y-121338600D01*
X174964200Y-113572600D02*
X174964200Y-116409600D01*
X174964200Y-118489600D02*
X174964200Y-121326600D01*
X174924200Y-113586600D02*
X174924200Y-116409600D01*
X174924200Y-118489600D02*
X174924200Y-121312600D01*
X174884200Y-113599600D02*
X174884200Y-116409600D01*
X174884200Y-118489600D02*
X174884200Y-121299600D01*
X174844200Y-113614600D02*
X174844200Y-116409600D01*
X174844200Y-118489600D02*
X174844200Y-121284600D01*
X174804200Y-113628600D02*
X174804200Y-116409600D01*
X174804200Y-118489600D02*
X174804200Y-121270600D01*
X174764200Y-113644600D02*
X174764200Y-116409600D01*
X174764200Y-118489600D02*
X174764200Y-121254600D01*
X174724200Y-113659600D02*
X174724200Y-116409600D01*
X174724200Y-118489600D02*
X174724200Y-121239600D01*
X174684200Y-113675600D02*
X174684200Y-116409600D01*
X174684200Y-118489600D02*
X174684200Y-121223600D01*
X174644200Y-113692600D02*
X174644200Y-116409600D01*
X174644200Y-118489600D02*
X174644200Y-121206600D01*
X174604200Y-113709600D02*
X174604200Y-116409600D01*
X174604200Y-118489600D02*
X174604200Y-121189600D01*
X174564200Y-113727600D02*
X174564200Y-116409600D01*
X174564200Y-118489600D02*
X174564200Y-121171600D01*
X174524200Y-113745600D02*
X174524200Y-116409600D01*
X174524200Y-118489600D02*
X174524200Y-121153600D01*
X174484200Y-113763600D02*
X174484200Y-116409600D01*
X174484200Y-118489600D02*
X174484200Y-121135600D01*
X174444200Y-113783600D02*
X174444200Y-116409600D01*
X174444200Y-118489600D02*
X174444200Y-121115600D01*
X174404200Y-113802600D02*
X174404200Y-116409600D01*
X174404200Y-118489600D02*
X174404200Y-121096600D01*
X174364200Y-113822600D02*
X174364200Y-116409600D01*
X174364200Y-118489600D02*
X174364200Y-121076600D01*
X174324200Y-113843600D02*
X174324200Y-116409600D01*
X174324200Y-118489600D02*
X174324200Y-121055600D01*
X174284200Y-113865600D02*
X174284200Y-116409600D01*
X174284200Y-118489600D02*
X174284200Y-121033600D01*
X174244200Y-113887600D02*
X174244200Y-116409600D01*
X174244200Y-118489600D02*
X174244200Y-121011600D01*
X174204200Y-113909600D02*
X174204200Y-116409600D01*
X174204200Y-118489600D02*
X174204200Y-120989600D01*
X174164200Y-113932600D02*
X174164200Y-116409600D01*
X174164200Y-118489600D02*
X174164200Y-120966600D01*
X174124200Y-113956600D02*
X174124200Y-116409600D01*
X174124200Y-118489600D02*
X174124200Y-120942600D01*
X174084200Y-113980600D02*
X174084200Y-116409600D01*
X174084200Y-118489600D02*
X174084200Y-120918600D01*
X174044200Y-114005600D02*
X174044200Y-116409600D01*
X174044200Y-118489600D02*
X174044200Y-120893600D01*
X174004200Y-114031600D02*
X174004200Y-116409600D01*
X174004200Y-118489600D02*
X174004200Y-120867600D01*
X173964200Y-114057600D02*
X173964200Y-116409600D01*
X173964200Y-118489600D02*
X173964200Y-120841600D01*
X173924200Y-114084600D02*
X173924200Y-120814600D01*
X173884200Y-114111600D02*
X173884200Y-120787600D01*
X173844200Y-114140600D02*
X173844200Y-120758600D01*
X173804200Y-114169600D02*
X173804200Y-120729600D01*
X173764200Y-114199600D02*
X173764200Y-120699600D01*
X173724200Y-114229600D02*
X173724200Y-120669600D01*
X173684200Y-114260600D02*
X173684200Y-120638600D01*
X173644200Y-114293600D02*
X173644200Y-120605600D01*
X173604200Y-114325600D02*
X173604200Y-120573600D01*
X173564200Y-114359600D02*
X173564200Y-120539600D01*
X173524200Y-114394600D02*
X173524200Y-120504600D01*
X173484200Y-114430600D02*
X173484200Y-120468600D01*
X173444200Y-114466600D02*
X173444200Y-120432600D01*
X173404200Y-114504600D02*
X173404200Y-120394600D01*
X173364200Y-114542600D02*
X173364200Y-120356600D01*
X173324200Y-114582600D02*
X173324200Y-120316600D01*
X173284200Y-114623600D02*
X173284200Y-120275600D01*
X173244200Y-114665600D02*
X173244200Y-120233600D01*
X173204200Y-114708600D02*
X173204200Y-120190600D01*
X173164200Y-114752600D02*
X173164200Y-120146600D01*
X173124200Y-114798600D02*
X173124200Y-120100600D01*
X173084200Y-114845600D02*
X173084200Y-120053600D01*
X173044200Y-114893600D02*
X173044200Y-120005600D01*
X173004200Y-114944600D02*
X173004200Y-119954600D01*
X172964200Y-114995600D02*
X172964200Y-119903600D01*
X172924200Y-115049600D02*
X172924200Y-119849600D01*
X172884200Y-115104600D02*
X172884200Y-119794600D01*
X172844200Y-115162600D02*
X172844200Y-119736600D01*
X172804200Y-115221600D02*
X172804200Y-119677600D01*
X172764200Y-115283600D02*
X172764200Y-119615600D01*
X172724200Y-115347600D02*
X172724200Y-119551600D01*
X172684200Y-115415600D02*
X172684200Y-119483600D01*
X172644200Y-115485600D02*
X172644200Y-119413600D01*
X172604200Y-115559600D02*
X172604200Y-119339600D01*
X172564200Y-115636600D02*
X172564200Y-119262600D01*
X172524200Y-115718600D02*
X172524200Y-119180600D01*
X172484200Y-115804600D02*
X172484200Y-119094600D01*
X172444200Y-115897600D02*
X172444200Y-119001600D01*
X172404200Y-115996600D02*
X172404200Y-118902600D01*
X172364200Y-116103600D02*
X172364200Y-118795600D01*
X172324200Y-116220600D02*
X172324200Y-118678600D01*
X172284200Y-116351600D02*
X172284200Y-118547600D01*
X172244200Y-116501600D02*
X172244200Y-118397600D01*
X172204200Y-116681600D02*
X172204200Y-118217600D01*
X172164200Y-116916600D02*
X172164200Y-117982600D01*
X180654898Y-115134600D02*
X179854898Y-115134600D01*
X180254898Y-114734600D02*
X180254898Y-115534600D01*
G04 #@! TO.C,C13*
X193146000Y-96121136D02*
X193146000Y-97325264D01*
X194966000Y-96121136D02*
X194966000Y-97325264D01*
G04 #@! TO.C,C11*
X172267200Y-108704464D02*
X172267200Y-107500336D01*
X174087200Y-108704464D02*
X174087200Y-107500336D01*
G04 #@! TO.C,C12*
X184752064Y-100690000D02*
X183547936Y-100690000D01*
X184752064Y-102510000D02*
X183547936Y-102510000D01*
G04 #@! TO.C,C9*
X193184864Y-101798800D02*
X191980736Y-101798800D01*
X193184864Y-99978800D02*
X191980736Y-99978800D01*
G04 #@! TO.C,C10*
X190402800Y-91635664D02*
X190402800Y-90431536D01*
X192222800Y-91635664D02*
X192222800Y-90431536D01*
D13*
G04 #@! TO.C,Q1*
X127043100Y-103712600D02*
G75*
G03X130599100Y-103712600I1778000J0D01*
G01*
D12*
X126535100Y-103712600D02*
G75*
G03X131107100Y-103712600I2286000J0D01*
G01*
X126535100Y-96854600D02*
G75*
G02X131107100Y-96854600I2286000J0D01*
G01*
D13*
X127043100Y-96854600D02*
G75*
G02X130599100Y-96854600I1778000J0D01*
G01*
X130599100Y-96854600D02*
X130599100Y-103712600D01*
X127043100Y-103712600D02*
X127043100Y-96854600D01*
D12*
X131107100Y-96854600D02*
X131107100Y-103712600D01*
X126535100Y-103712600D02*
X126535100Y-96854600D01*
D17*
G04 #@! TO.C,IC1*
G36*
X114165300Y-95457600D02*
X114165300Y-94949600D01*
X114292300Y-94949600D01*
X114292300Y-95457600D01*
X114165300Y-95457600D01*
G37*
G36*
X121759900Y-95457600D02*
X121759900Y-94949600D01*
X121886900Y-94949600D01*
X121886900Y-95457600D01*
X121759900Y-95457600D01*
G37*
G36*
X121759900Y-96727600D02*
X121759900Y-96219600D01*
X121886900Y-96219600D01*
X121886900Y-96727600D01*
X121759900Y-96727600D01*
G37*
G36*
X121759900Y-97997600D02*
X121759900Y-97489600D01*
X121886900Y-97489600D01*
X121886900Y-97997600D01*
X121759900Y-97997600D01*
G37*
G36*
X121759900Y-99267600D02*
X121759900Y-98759600D01*
X121886900Y-98759600D01*
X121886900Y-99267600D01*
X121759900Y-99267600D01*
G37*
G36*
X121759900Y-100537600D02*
X121759900Y-100029600D01*
X121886900Y-100029600D01*
X121886900Y-100537600D01*
X121759900Y-100537600D01*
G37*
G36*
X121759900Y-101807600D02*
X121759900Y-101299600D01*
X121886900Y-101299600D01*
X121886900Y-101807600D01*
X121759900Y-101807600D01*
G37*
G36*
X121759900Y-103077600D02*
X121759900Y-102569600D01*
X121886900Y-102569600D01*
X121886900Y-103077600D01*
X121759900Y-103077600D01*
G37*
G36*
X121759900Y-104347600D02*
X121759900Y-103839600D01*
X121886900Y-103839600D01*
X121886900Y-104347600D01*
X121759900Y-104347600D01*
G37*
G36*
X121759900Y-105617600D02*
X121759900Y-105109600D01*
X121886900Y-105109600D01*
X121886900Y-105617600D01*
X121759900Y-105617600D01*
G37*
G36*
X114165300Y-96727600D02*
X114165300Y-96219600D01*
X114292300Y-96219600D01*
X114292300Y-96727600D01*
X114165300Y-96727600D01*
G37*
G36*
X114165300Y-97997600D02*
X114165300Y-97489600D01*
X114292300Y-97489600D01*
X114292300Y-97997600D01*
X114165300Y-97997600D01*
G37*
G36*
X114165300Y-99267600D02*
X114165300Y-98759600D01*
X114292300Y-98759600D01*
X114292300Y-99267600D01*
X114165300Y-99267600D01*
G37*
G36*
X114165300Y-100537600D02*
X114165300Y-100029600D01*
X114292300Y-100029600D01*
X114292300Y-100537600D01*
X114165300Y-100537600D01*
G37*
G36*
X114165300Y-101807600D02*
X114165300Y-101299600D01*
X114292300Y-101299600D01*
X114292300Y-101807600D01*
X114165300Y-101807600D01*
G37*
G36*
X114165300Y-103077600D02*
X114165300Y-102569600D01*
X114292300Y-102569600D01*
X114292300Y-103077600D01*
X114165300Y-103077600D01*
G37*
G36*
X114165300Y-104347600D02*
X114165300Y-103839600D01*
X114292300Y-103839600D01*
X114292300Y-104347600D01*
X114165300Y-104347600D01*
G37*
G36*
X114165300Y-105617600D02*
X114165300Y-105109600D01*
X114292300Y-105109600D01*
X114292300Y-105617600D01*
X114165300Y-105617600D01*
G37*
D12*
X116756100Y-106125600D02*
G75*
G02X119296100Y-106125600I1270000J0D01*
G01*
D13*
X114647900Y-106125600D02*
X114647900Y-94441600D01*
D12*
X121378900Y-106125600D02*
X114673300Y-106125600D01*
X114673300Y-94441600D02*
X121378900Y-94441600D01*
X114292300Y-105744600D02*
X114292300Y-94822600D01*
X114292300Y-105744600D02*
G75*
G03X114673300Y-106125600I381000J0D01*
G01*
X121378900Y-94441600D02*
G75*
G02X121759900Y-94822600I0J-381000D01*
G01*
X121759900Y-105744600D02*
G75*
G02X121378900Y-106125600I-381000J0D01*
G01*
X114673300Y-94441600D02*
G75*
G03X114292300Y-94822600I0J-381000D01*
G01*
X121759900Y-94822600D02*
X121759900Y-105744600D01*
D14*
G04 #@! TO.C,R2*
X123741100Y-116793600D02*
X123487100Y-116793600D01*
X128821100Y-116793600D02*
X129075100Y-116793600D01*
X123741100Y-116793600D02*
X123741100Y-118063600D01*
X123741100Y-115523600D02*
X123741100Y-116793600D01*
X128821100Y-115523600D02*
X123741100Y-115523600D01*
X128821100Y-116793600D02*
X128821100Y-115523600D01*
X128821100Y-118063600D02*
X128821100Y-116793600D01*
X123741100Y-118063600D02*
X128821100Y-118063600D01*
D12*
G04 #@! TO.C,Q2*
X124027100Y-110697600D02*
X123626100Y-110697600D01*
X126567100Y-110697600D02*
X125995100Y-110697600D01*
X128936100Y-110697600D02*
X128535100Y-110697600D01*
X128376100Y-112094600D02*
X124186100Y-112094600D01*
X124186100Y-112094599D02*
G75*
G02X125494300Y-107895200I2094500J1650985D01*
G01*
X127067401Y-107895099D02*
G75*
G02X128375700Y-112094600I-786301J-2548504D01*
G01*
D18*
G04 #@! TO.C,U1*
X116544100Y-112882000D02*
G75*
G03X116544100Y-112882000I-143600J0D01*
G01*
D12*
X119194100Y-113440600D02*
X115588100Y-113440600D01*
X115588100Y-108716600D02*
X119194100Y-108716600D01*
D16*
G04 #@! TO.C,R6*
X187507200Y-99966864D02*
X187507200Y-98762736D01*
X189327200Y-99966864D02*
X189327200Y-98762736D01*
G04 #@! TO.C,R7*
X194966000Y-90431536D02*
X194966000Y-91635664D01*
X193146000Y-90431536D02*
X193146000Y-91635664D01*
G04 #@! TO.C,R10*
X189199436Y-94403500D02*
X190403564Y-94403500D01*
X189199436Y-96223500D02*
X190403564Y-96223500D01*
G04 #@! TO.C,R9*
X189378000Y-91661064D02*
X189378000Y-90456936D01*
X187558000Y-91661064D02*
X187558000Y-90456936D01*
D12*
G04 #@! TO.C,MTC1*
X176474078Y-87944204D02*
X176474078Y-98015517D01*
X183560678Y-98347204D02*
G75*
G03X183941678Y-97966204I0J381000D01*
G01*
X176474078Y-87944204D02*
G75*
G02X176855078Y-87563204I381000J0D01*
G01*
X176855078Y-98347204D02*
G75*
G02X176474078Y-97966204I0J381000D01*
G01*
X183941678Y-87944204D02*
G75*
G03X183560678Y-87563204I-381000J0D01*
G01*
X183941678Y-87944204D02*
X183941678Y-98015517D01*
X183560678Y-98347204D02*
X176855078Y-98347204D01*
X176855078Y-87563204D02*
X183560678Y-87563204D01*
X181477878Y-87563204D02*
G75*
G02X178937878Y-87563204I-1270000J0D01*
G01*
D17*
G36*
X184068678Y-88071204D02*
X184068678Y-88579204D01*
X183941678Y-88579204D01*
X183941678Y-88071204D01*
X184068678Y-88071204D01*
G37*
G36*
X184068678Y-89341204D02*
X184068678Y-89849204D01*
X183941678Y-89849204D01*
X183941678Y-89341204D01*
X184068678Y-89341204D01*
G37*
G36*
X184068678Y-90611204D02*
X184068678Y-91119204D01*
X183941678Y-91119204D01*
X183941678Y-90611204D01*
X184068678Y-90611204D01*
G37*
G36*
X184068678Y-91881204D02*
X184068678Y-92389204D01*
X183941678Y-92389204D01*
X183941678Y-91881204D01*
X184068678Y-91881204D01*
G37*
G36*
X184068678Y-93151204D02*
X184068678Y-93659204D01*
X183941678Y-93659204D01*
X183941678Y-93151204D01*
X184068678Y-93151204D01*
G37*
G36*
X184068678Y-94421204D02*
X184068678Y-94929204D01*
X183941678Y-94929204D01*
X183941678Y-94421204D01*
X184068678Y-94421204D01*
G37*
G36*
X184068678Y-95691204D02*
X184068678Y-96199204D01*
X183941678Y-96199204D01*
X183941678Y-95691204D01*
X184068678Y-95691204D01*
G37*
G36*
X184068678Y-96961204D02*
X184068678Y-97469204D01*
X183941678Y-97469204D01*
X183941678Y-96961204D01*
X184068678Y-96961204D01*
G37*
G36*
X176474078Y-88071204D02*
X176474078Y-88579204D01*
X176347078Y-88579204D01*
X176347078Y-88071204D01*
X176474078Y-88071204D01*
G37*
G36*
X176474078Y-89341204D02*
X176474078Y-89849204D01*
X176347078Y-89849204D01*
X176347078Y-89341204D01*
X176474078Y-89341204D01*
G37*
G36*
X176474078Y-90611204D02*
X176474078Y-91119204D01*
X176347078Y-91119204D01*
X176347078Y-90611204D01*
X176474078Y-90611204D01*
G37*
G36*
X176474078Y-91881204D02*
X176474078Y-92389204D01*
X176347078Y-92389204D01*
X176347078Y-91881204D01*
X176474078Y-91881204D01*
G37*
G36*
X176474078Y-93151204D02*
X176474078Y-93659204D01*
X176347078Y-93659204D01*
X176347078Y-93151204D01*
X176474078Y-93151204D01*
G37*
G36*
X176474078Y-94421204D02*
X176474078Y-94929204D01*
X176347078Y-94929204D01*
X176347078Y-94421204D01*
X176474078Y-94421204D01*
G37*
G36*
X176474078Y-95691204D02*
X176474078Y-96199204D01*
X176347078Y-96199204D01*
X176347078Y-95691204D01*
X176474078Y-95691204D01*
G37*
G36*
X176474078Y-96961204D02*
X176474078Y-97469204D01*
X176347078Y-97469204D01*
X176347078Y-96961204D01*
X176474078Y-96961204D01*
G37*
D12*
G04 #@! TO.C,TSS1*
X170395090Y-97596204D02*
X170395090Y-87524891D01*
X163308490Y-87193204D02*
G75*
G03X162927490Y-87574204I0J-381000D01*
G01*
X170395090Y-97596204D02*
G75*
G02X170014090Y-97977204I-381000J0D01*
G01*
X170014090Y-87193204D02*
G75*
G02X170395090Y-87574204I0J-381000D01*
G01*
X162927490Y-97596204D02*
G75*
G03X163308490Y-97977204I381000J0D01*
G01*
X162927490Y-97596204D02*
X162927490Y-87524891D01*
X163308490Y-87193204D02*
X170014090Y-87193204D01*
X170014090Y-97977204D02*
X163308490Y-97977204D01*
X165391290Y-97977204D02*
G75*
G02X167931290Y-97977204I1270000J0D01*
G01*
D17*
G36*
X162800490Y-97469204D02*
X162800490Y-96961204D01*
X162927490Y-96961204D01*
X162927490Y-97469204D01*
X162800490Y-97469204D01*
G37*
G36*
X162800490Y-96199204D02*
X162800490Y-95691204D01*
X162927490Y-95691204D01*
X162927490Y-96199204D01*
X162800490Y-96199204D01*
G37*
G36*
X162800490Y-94929204D02*
X162800490Y-94421204D01*
X162927490Y-94421204D01*
X162927490Y-94929204D01*
X162800490Y-94929204D01*
G37*
G36*
X162800490Y-93659204D02*
X162800490Y-93151204D01*
X162927490Y-93151204D01*
X162927490Y-93659204D01*
X162800490Y-93659204D01*
G37*
G36*
X162800490Y-92389204D02*
X162800490Y-91881204D01*
X162927490Y-91881204D01*
X162927490Y-92389204D01*
X162800490Y-92389204D01*
G37*
G36*
X162800490Y-91119204D02*
X162800490Y-90611204D01*
X162927490Y-90611204D01*
X162927490Y-91119204D01*
X162800490Y-91119204D01*
G37*
G36*
X162800490Y-89849204D02*
X162800490Y-89341204D01*
X162927490Y-89341204D01*
X162927490Y-89849204D01*
X162800490Y-89849204D01*
G37*
G36*
X162800490Y-88579204D02*
X162800490Y-88071204D01*
X162927490Y-88071204D01*
X162927490Y-88579204D01*
X162800490Y-88579204D01*
G37*
G36*
X170395090Y-97469204D02*
X170395090Y-96961204D01*
X170522090Y-96961204D01*
X170522090Y-97469204D01*
X170395090Y-97469204D01*
G37*
G36*
X170395090Y-96199204D02*
X170395090Y-95691204D01*
X170522090Y-95691204D01*
X170522090Y-96199204D01*
X170395090Y-96199204D01*
G37*
G36*
X170395090Y-94929204D02*
X170395090Y-94421204D01*
X170522090Y-94421204D01*
X170522090Y-94929204D01*
X170395090Y-94929204D01*
G37*
G36*
X170395090Y-93659204D02*
X170395090Y-93151204D01*
X170522090Y-93151204D01*
X170522090Y-93659204D01*
X170395090Y-93659204D01*
G37*
G36*
X170395090Y-92389204D02*
X170395090Y-91881204D01*
X170522090Y-91881204D01*
X170522090Y-92389204D01*
X170395090Y-92389204D01*
G37*
G36*
X170395090Y-91119204D02*
X170395090Y-90611204D01*
X170522090Y-90611204D01*
X170522090Y-91119204D01*
X170395090Y-91119204D01*
G37*
G36*
X170395090Y-89849204D02*
X170395090Y-89341204D01*
X170522090Y-89341204D01*
X170522090Y-89849204D01*
X170395090Y-89849204D01*
G37*
G36*
X170395090Y-88579204D02*
X170395090Y-88071204D01*
X170522090Y-88071204D01*
X170522090Y-88579204D01*
X170395090Y-88579204D01*
G37*
G04 #@! TO.C,VQ2*
D19*
X176863720Y-101053571D02*
X176528220Y-102060071D01*
X176192720Y-101053571D01*
X175186220Y-102155928D02*
X175282077Y-102108000D01*
X175377934Y-102012142D01*
X175521720Y-101868357D01*
X175617577Y-101820428D01*
X175713434Y-101820428D01*
X175665506Y-102060071D02*
X175761363Y-102012142D01*
X175857220Y-101916285D01*
X175905148Y-101724571D01*
X175905148Y-101389071D01*
X175857220Y-101197357D01*
X175761363Y-101101500D01*
X175665506Y-101053571D01*
X175473791Y-101053571D01*
X175377934Y-101101500D01*
X175282077Y-101197357D01*
X175234148Y-101389071D01*
X175234148Y-101724571D01*
X175282077Y-101916285D01*
X175377934Y-102012142D01*
X175473791Y-102060071D01*
X175665506Y-102060071D01*
X174850720Y-101149428D02*
X174802791Y-101101500D01*
X174706934Y-101053571D01*
X174467291Y-101053571D01*
X174371434Y-101101500D01*
X174323506Y-101149428D01*
X174275577Y-101245285D01*
X174275577Y-101341142D01*
X174323506Y-101484928D01*
X174898648Y-102060071D01*
X174275577Y-102060071D01*
G04 #@! TO.C,R1*
D20*
X150486684Y-98291347D02*
X150888851Y-97716823D01*
X151176113Y-98291347D02*
X151176113Y-97084847D01*
X150716494Y-97084847D01*
X150601589Y-97142300D01*
X150544136Y-97199752D01*
X150486684Y-97314657D01*
X150486684Y-97487014D01*
X150544136Y-97601919D01*
X150601589Y-97659371D01*
X150716494Y-97716823D01*
X151176113Y-97716823D01*
X149337636Y-98291347D02*
X150027065Y-98291347D01*
X149682351Y-98291347D02*
X149682351Y-97084847D01*
X149797255Y-97257204D01*
X149912160Y-97372109D01*
X150027065Y-97429561D01*
D21*
G04 #@! TO.C,R3*
D20*
X150435884Y-94379747D02*
X150838051Y-93805223D01*
X151125313Y-94379747D02*
X151125313Y-93173247D01*
X150665694Y-93173247D01*
X150550789Y-93230700D01*
X150493336Y-93288152D01*
X150435884Y-93403057D01*
X150435884Y-93575414D01*
X150493336Y-93690319D01*
X150550789Y-93747771D01*
X150665694Y-93805223D01*
X151125313Y-93805223D01*
X150033717Y-93173247D02*
X149286836Y-93173247D01*
X149689003Y-93632866D01*
X149516646Y-93632866D01*
X149401741Y-93690319D01*
X149344289Y-93747771D01*
X149286836Y-93862676D01*
X149286836Y-94149938D01*
X149344289Y-94264842D01*
X149401741Y-94322295D01*
X149516646Y-94379747D01*
X149861360Y-94379747D01*
X149976265Y-94322295D01*
X150033717Y-94264842D01*
G04 #@! TO.C,U$2*
D21*
X166986811Y-116775215D02*
X167207428Y-116775215D01*
X167097119Y-116775215D02*
X167097119Y-116389135D01*
X167133889Y-116444289D01*
X167170658Y-116481059D01*
X167207428Y-116499443D01*
X166747809Y-116389135D02*
X166711039Y-116389135D01*
X166674270Y-116407520D01*
X166655885Y-116425904D01*
X166637500Y-116462674D01*
X166619115Y-116536213D01*
X166619115Y-116628137D01*
X166637500Y-116701676D01*
X166655885Y-116738445D01*
X166674270Y-116756830D01*
X166711039Y-116775215D01*
X166747809Y-116775215D01*
X166784578Y-116756830D01*
X166802963Y-116738445D01*
X166821348Y-116701676D01*
X166839732Y-116628137D01*
X166839732Y-116536213D01*
X166821348Y-116462674D01*
X166802963Y-116425904D01*
X166784578Y-116407520D01*
X166747809Y-116389135D01*
X164446811Y-116775215D02*
X164667428Y-116775215D01*
X164557119Y-116775215D02*
X164557119Y-116389135D01*
X164593889Y-116444289D01*
X164630658Y-116481059D01*
X164667428Y-116499443D01*
X164079115Y-116775215D02*
X164299732Y-116775215D01*
X164189424Y-116775215D02*
X164189424Y-116389135D01*
X164226193Y-116444289D01*
X164262963Y-116481059D01*
X164299732Y-116499443D01*
X161906811Y-116775215D02*
X162127428Y-116775215D01*
X162017119Y-116775215D02*
X162017119Y-116389135D01*
X162053889Y-116444289D01*
X162090658Y-116481059D01*
X162127428Y-116499443D01*
X161759732Y-116425904D02*
X161741348Y-116407520D01*
X161704578Y-116389135D01*
X161612654Y-116389135D01*
X161575885Y-116407520D01*
X161557500Y-116425904D01*
X161539115Y-116462674D01*
X161539115Y-116499443D01*
X161557500Y-116554598D01*
X161778117Y-116775215D01*
X161539115Y-116775215D01*
X159366811Y-116775215D02*
X159587428Y-116775215D01*
X159477119Y-116775215D02*
X159477119Y-116389135D01*
X159513889Y-116444289D01*
X159550658Y-116481059D01*
X159587428Y-116499443D01*
X159238117Y-116389135D02*
X158999115Y-116389135D01*
X159127809Y-116536213D01*
X159072654Y-116536213D01*
X159035885Y-116554598D01*
X159017500Y-116572982D01*
X158999115Y-116609752D01*
X158999115Y-116701676D01*
X159017500Y-116738445D01*
X159035885Y-116756830D01*
X159072654Y-116775215D01*
X159182963Y-116775215D01*
X159219732Y-116756830D01*
X159238117Y-116738445D01*
X157047428Y-116664906D02*
X156863580Y-116664906D01*
X157084197Y-116775215D02*
X156955504Y-116389135D01*
X156826811Y-116775215D01*
X156624578Y-116389135D02*
X156587809Y-116389135D01*
X156551039Y-116407520D01*
X156532654Y-116425904D01*
X156514270Y-116462674D01*
X156495885Y-116536213D01*
X156495885Y-116628137D01*
X156514270Y-116701676D01*
X156532654Y-116738445D01*
X156551039Y-116756830D01*
X156587809Y-116775215D01*
X156624578Y-116775215D01*
X156661348Y-116756830D01*
X156679732Y-116738445D01*
X156698117Y-116701676D01*
X156716502Y-116628137D01*
X156716502Y-116536213D01*
X156698117Y-116462674D01*
X156679732Y-116425904D01*
X156661348Y-116407520D01*
X156624578Y-116389135D01*
X154507428Y-116664906D02*
X154323580Y-116664906D01*
X154544197Y-116775215D02*
X154415504Y-116389135D01*
X154286811Y-116775215D01*
X153955885Y-116775215D02*
X154176502Y-116775215D01*
X154066193Y-116775215D02*
X154066193Y-116389135D01*
X154102963Y-116444289D01*
X154139732Y-116481059D01*
X154176502Y-116499443D01*
X151967428Y-116664906D02*
X151783580Y-116664906D01*
X152004197Y-116775215D02*
X151875504Y-116389135D01*
X151746811Y-116775215D01*
X151636502Y-116425904D02*
X151618117Y-116407520D01*
X151581348Y-116389135D01*
X151489424Y-116389135D01*
X151452654Y-116407520D01*
X151434270Y-116425904D01*
X151415885Y-116462674D01*
X151415885Y-116499443D01*
X151434270Y-116554598D01*
X151654887Y-116775215D01*
X151415885Y-116775215D01*
X149427428Y-116664906D02*
X149243580Y-116664906D01*
X149464197Y-116775215D02*
X149335504Y-116389135D01*
X149206811Y-116775215D01*
X149114887Y-116389135D02*
X148875885Y-116389135D01*
X149004578Y-116536213D01*
X148949424Y-116536213D01*
X148912654Y-116554598D01*
X148894270Y-116572982D01*
X148875885Y-116609752D01*
X148875885Y-116701676D01*
X148894270Y-116738445D01*
X148912654Y-116756830D01*
X148949424Y-116775215D01*
X149059732Y-116775215D01*
X149096502Y-116756830D01*
X149114887Y-116738445D01*
X147051197Y-116389135D02*
X146922504Y-116775215D01*
X146793811Y-116389135D01*
X146444500Y-116738445D02*
X146462885Y-116756830D01*
X146518039Y-116775215D01*
X146554809Y-116775215D01*
X146609963Y-116756830D01*
X146646732Y-116720060D01*
X146665117Y-116683291D01*
X146683502Y-116609752D01*
X146683502Y-116554598D01*
X146665117Y-116481059D01*
X146646732Y-116444289D01*
X146609963Y-116407520D01*
X146554809Y-116389135D01*
X146518039Y-116389135D01*
X146462885Y-116407520D01*
X146444500Y-116425904D01*
X146058420Y-116738445D02*
X146076805Y-116756830D01*
X146131959Y-116775215D01*
X146168729Y-116775215D01*
X146223883Y-116756830D01*
X146260652Y-116720060D01*
X146279037Y-116683291D01*
X146297422Y-116609752D01*
X146297422Y-116554598D01*
X146279037Y-116481059D01*
X146260652Y-116444289D01*
X146223883Y-116407520D01*
X146168729Y-116389135D01*
X146131959Y-116389135D01*
X146076805Y-116407520D01*
X146058420Y-116425904D01*
X148030428Y-114124906D02*
X147846580Y-114124906D01*
X148067197Y-114235215D02*
X147938504Y-113849135D01*
X147809811Y-114235215D01*
X147497270Y-113849135D02*
X147681117Y-113849135D01*
X147699502Y-114032982D01*
X147681117Y-114014598D01*
X147644348Y-113996213D01*
X147552424Y-113996213D01*
X147515654Y-114014598D01*
X147497270Y-114032982D01*
X147478885Y-114069752D01*
X147478885Y-114161676D01*
X147497270Y-114198445D01*
X147515654Y-114216830D01*
X147552424Y-114235215D01*
X147644348Y-114235215D01*
X147681117Y-114216830D01*
X147699502Y-114198445D01*
X150570428Y-114124906D02*
X150386580Y-114124906D01*
X150607197Y-114235215D02*
X150478504Y-113849135D01*
X150349811Y-114235215D01*
X150055654Y-113977828D02*
X150055654Y-114235215D01*
X150147578Y-113830750D02*
X150239502Y-114106521D01*
X150000500Y-114106521D01*
X144235426Y-116775215D02*
X144364119Y-116591367D01*
X144456043Y-116775215D02*
X144456043Y-116389135D01*
X144308965Y-116389135D01*
X144272195Y-116407520D01*
X144253811Y-116425904D01*
X144235426Y-116462674D01*
X144235426Y-116517828D01*
X144253811Y-116554598D01*
X144272195Y-116572982D01*
X144308965Y-116591367D01*
X144456043Y-116591367D01*
X144088348Y-116756830D02*
X144033193Y-116775215D01*
X143941270Y-116775215D01*
X143904500Y-116756830D01*
X143886115Y-116738445D01*
X143867731Y-116701676D01*
X143867731Y-116664906D01*
X143886115Y-116628137D01*
X143904500Y-116609752D01*
X143941270Y-116591367D01*
X144014809Y-116572982D01*
X144051578Y-116554598D01*
X144069963Y-116536213D01*
X144088348Y-116499443D01*
X144088348Y-116462674D01*
X144069963Y-116425904D01*
X144051578Y-116407520D01*
X144014809Y-116389135D01*
X143922885Y-116389135D01*
X143867731Y-116407520D01*
X143757422Y-116389135D02*
X143536805Y-116389135D01*
X143647113Y-116775215D02*
X143647113Y-116389135D01*
X141713811Y-116407520D02*
X141750580Y-116389135D01*
X141805734Y-116389135D01*
X141860889Y-116407520D01*
X141897658Y-116444289D01*
X141916043Y-116481059D01*
X141934428Y-116554598D01*
X141934428Y-116609752D01*
X141916043Y-116683291D01*
X141897658Y-116720060D01*
X141860889Y-116756830D01*
X141805734Y-116775215D01*
X141768965Y-116775215D01*
X141713811Y-116756830D01*
X141695426Y-116738445D01*
X141695426Y-116609752D01*
X141768965Y-116609752D01*
X141529963Y-116775215D02*
X141529963Y-116389135D01*
X141309346Y-116775215D01*
X141309346Y-116389135D01*
X141125498Y-116775215D02*
X141125498Y-116389135D01*
X141033574Y-116389135D01*
X140978420Y-116407520D01*
X140941651Y-116444289D01*
X140923266Y-116481059D01*
X140904881Y-116554598D01*
X140904881Y-116609752D01*
X140923266Y-116683291D01*
X140941651Y-116720060D01*
X140978420Y-116756830D01*
X141033574Y-116775215D01*
X141125498Y-116775215D01*
X139155426Y-116775215D02*
X139284119Y-116591367D01*
X139376043Y-116775215D02*
X139376043Y-116389135D01*
X139228965Y-116389135D01*
X139192195Y-116407520D01*
X139173811Y-116425904D01*
X139155426Y-116462674D01*
X139155426Y-116517828D01*
X139173811Y-116554598D01*
X139192195Y-116572982D01*
X139228965Y-116591367D01*
X139376043Y-116591367D01*
X139008348Y-116664906D02*
X138824500Y-116664906D01*
X139045117Y-116775215D02*
X138916424Y-116389135D01*
X138787731Y-116775215D01*
X138695807Y-116389135D02*
X138603883Y-116775215D01*
X138530344Y-116499443D01*
X138456805Y-116775215D01*
X138364881Y-116389135D01*
X136633811Y-118185520D02*
X136670580Y-118167135D01*
X136725734Y-118167135D01*
X136780889Y-118185520D01*
X136817658Y-118222289D01*
X136836043Y-118259059D01*
X136854428Y-118332598D01*
X136854428Y-118387752D01*
X136836043Y-118461291D01*
X136817658Y-118498060D01*
X136780889Y-118534830D01*
X136725734Y-118553215D01*
X136688965Y-118553215D01*
X136633811Y-118534830D01*
X136615426Y-118516445D01*
X136615426Y-118387752D01*
X136688965Y-118387752D01*
X136229346Y-118553215D02*
X136358039Y-118369367D01*
X136449963Y-118553215D02*
X136449963Y-118167135D01*
X136302885Y-118167135D01*
X136266115Y-118185520D01*
X136247731Y-118203904D01*
X136229346Y-118240674D01*
X136229346Y-118295828D01*
X136247731Y-118332598D01*
X136266115Y-118350982D01*
X136302885Y-118369367D01*
X136449963Y-118369367D01*
X136063883Y-118553215D02*
X136063883Y-118167135D01*
X135843266Y-118553215D01*
X135843266Y-118167135D01*
X136707350Y-102602982D02*
X136652195Y-102621367D01*
X136633811Y-102639752D01*
X136615426Y-102676521D01*
X136615426Y-102731676D01*
X136633811Y-102768445D01*
X136652195Y-102786830D01*
X136688965Y-102805215D01*
X136836043Y-102805215D01*
X136836043Y-102419135D01*
X136707350Y-102419135D01*
X136670580Y-102437520D01*
X136652195Y-102455904D01*
X136633811Y-102492674D01*
X136633811Y-102529443D01*
X136652195Y-102566213D01*
X136670580Y-102584598D01*
X136707350Y-102602982D01*
X136836043Y-102602982D01*
X136266115Y-102805215D02*
X136449963Y-102805215D01*
X136449963Y-102419135D01*
X136137422Y-102805215D02*
X136137422Y-102419135D01*
X135916805Y-102805215D02*
X136082268Y-102584598D01*
X135916805Y-102419135D02*
X136137422Y-102639752D01*
X146793811Y-103961520D02*
X146830580Y-103943135D01*
X146885734Y-103943135D01*
X146940889Y-103961520D01*
X146977658Y-103998289D01*
X146996043Y-104035059D01*
X147014428Y-104108598D01*
X147014428Y-104163752D01*
X146996043Y-104237291D01*
X146977658Y-104274060D01*
X146940889Y-104310830D01*
X146885734Y-104329215D01*
X146848965Y-104329215D01*
X146793811Y-104310830D01*
X146775426Y-104292445D01*
X146775426Y-104163752D01*
X146848965Y-104163752D01*
X146609963Y-104329215D02*
X146609963Y-103943135D01*
X146389346Y-104329215D01*
X146389346Y-103943135D01*
X146205498Y-104329215D02*
X146205498Y-103943135D01*
X146113574Y-103943135D01*
X146058420Y-103961520D01*
X146021651Y-103998289D01*
X146003266Y-104035059D01*
X145984881Y-104108598D01*
X145984881Y-104163752D01*
X146003266Y-104237291D01*
X146021651Y-104274060D01*
X146058420Y-104310830D01*
X146113574Y-104329215D01*
X146205498Y-104329215D01*
X139431197Y-103943135D02*
X139210580Y-103943135D01*
X139320889Y-104329215D02*
X139320889Y-103943135D01*
X139118656Y-103943135D02*
X138861270Y-104329215D01*
X138861270Y-103943135D02*
X139118656Y-104329215D01*
X138640652Y-103943135D02*
X138567113Y-103943135D01*
X138530344Y-103961520D01*
X138493574Y-103998289D01*
X138475190Y-104071828D01*
X138475190Y-104200521D01*
X138493574Y-104274060D01*
X138530344Y-104310830D01*
X138567113Y-104329215D01*
X138640652Y-104329215D01*
X138677422Y-104310830D01*
X138714191Y-104274060D01*
X138732576Y-104200521D01*
X138732576Y-104071828D01*
X138714191Y-103998289D01*
X138677422Y-103961520D01*
X138640652Y-103943135D01*
X141695426Y-104329215D02*
X141824119Y-104145367D01*
X141916043Y-104329215D02*
X141916043Y-103943135D01*
X141768965Y-103943135D01*
X141732195Y-103961520D01*
X141713811Y-103979904D01*
X141695426Y-104016674D01*
X141695426Y-104071828D01*
X141713811Y-104108598D01*
X141732195Y-104126982D01*
X141768965Y-104145367D01*
X141916043Y-104145367D01*
X141566732Y-103943135D02*
X141309346Y-104329215D01*
X141309346Y-103943135D02*
X141566732Y-104329215D01*
X141162268Y-104329215D02*
X141162268Y-103943135D01*
X144235426Y-104329215D02*
X144364119Y-104145367D01*
X144456043Y-104329215D02*
X144456043Y-103943135D01*
X144308965Y-103943135D01*
X144272195Y-103961520D01*
X144253811Y-103979904D01*
X144235426Y-104016674D01*
X144235426Y-104071828D01*
X144253811Y-104108598D01*
X144272195Y-104126982D01*
X144308965Y-104145367D01*
X144456043Y-104145367D01*
X144088348Y-104310830D02*
X144033193Y-104329215D01*
X143941270Y-104329215D01*
X143904500Y-104310830D01*
X143886115Y-104292445D01*
X143867731Y-104255676D01*
X143867731Y-104218906D01*
X143886115Y-104182137D01*
X143904500Y-104163752D01*
X143941270Y-104145367D01*
X144014809Y-104126982D01*
X144051578Y-104108598D01*
X144069963Y-104090213D01*
X144088348Y-104053443D01*
X144088348Y-104016674D01*
X144069963Y-103979904D01*
X144051578Y-103961520D01*
X144014809Y-103943135D01*
X143922885Y-103943135D01*
X143867731Y-103961520D01*
X143757422Y-103943135D02*
X143536805Y-103943135D01*
X143647113Y-104329215D02*
X143647113Y-103943135D01*
X149300428Y-103979904D02*
X149282043Y-103961520D01*
X149245273Y-103943135D01*
X149153350Y-103943135D01*
X149116580Y-103961520D01*
X149098195Y-103979904D01*
X149079811Y-104016674D01*
X149079811Y-104053443D01*
X149098195Y-104108598D01*
X149318812Y-104329215D01*
X149079811Y-104329215D01*
X151858812Y-103943135D02*
X151619811Y-103943135D01*
X151748504Y-104090213D01*
X151693350Y-104090213D01*
X151656580Y-104108598D01*
X151638195Y-104126982D01*
X151619811Y-104163752D01*
X151619811Y-104255676D01*
X151638195Y-104292445D01*
X151656580Y-104310830D01*
X151693350Y-104329215D01*
X151803658Y-104329215D01*
X151840428Y-104310830D01*
X151858812Y-104292445D01*
X154196580Y-104071828D02*
X154196580Y-104329215D01*
X154288504Y-103924750D02*
X154380428Y-104200521D01*
X154141426Y-104200521D01*
X156718195Y-103943135D02*
X156902043Y-103943135D01*
X156920428Y-104126982D01*
X156902043Y-104108598D01*
X156865273Y-104090213D01*
X156773350Y-104090213D01*
X156736580Y-104108598D01*
X156718195Y-104126982D01*
X156699811Y-104163752D01*
X156699811Y-104255676D01*
X156718195Y-104292445D01*
X156736580Y-104310830D01*
X156773350Y-104329215D01*
X156865273Y-104329215D01*
X156902043Y-104310830D01*
X156920428Y-104292445D01*
X159276580Y-103943135D02*
X159350119Y-103943135D01*
X159386889Y-103961520D01*
X159405273Y-103979904D01*
X159442043Y-104035059D01*
X159460428Y-104108598D01*
X159460428Y-104255676D01*
X159442043Y-104292445D01*
X159423658Y-104310830D01*
X159386889Y-104329215D01*
X159313350Y-104329215D01*
X159276580Y-104310830D01*
X159258195Y-104292445D01*
X159239811Y-104255676D01*
X159239811Y-104163752D01*
X159258195Y-104126982D01*
X159276580Y-104108598D01*
X159313350Y-104090213D01*
X159386889Y-104090213D01*
X159423658Y-104108598D01*
X159442043Y-104126982D01*
X159460428Y-104163752D01*
X162018812Y-103943135D02*
X161761426Y-103943135D01*
X161926889Y-104329215D01*
X164466889Y-104108598D02*
X164503658Y-104090213D01*
X164522043Y-104071828D01*
X164540428Y-104035059D01*
X164540428Y-104016674D01*
X164522043Y-103979904D01*
X164503658Y-103961520D01*
X164466889Y-103943135D01*
X164393350Y-103943135D01*
X164356580Y-103961520D01*
X164338195Y-103979904D01*
X164319811Y-104016674D01*
X164319811Y-104035059D01*
X164338195Y-104071828D01*
X164356580Y-104090213D01*
X164393350Y-104108598D01*
X164466889Y-104108598D01*
X164503658Y-104126982D01*
X164522043Y-104145367D01*
X164540428Y-104182137D01*
X164540428Y-104255676D01*
X164522043Y-104292445D01*
X164503658Y-104310830D01*
X164466889Y-104329215D01*
X164393350Y-104329215D01*
X164356580Y-104310830D01*
X164338195Y-104292445D01*
X164319811Y-104255676D01*
X164319811Y-104182137D01*
X164338195Y-104145367D01*
X164356580Y-104126982D01*
X164393350Y-104108598D01*
X167043658Y-104329215D02*
X166970119Y-104329215D01*
X166933350Y-104310830D01*
X166914965Y-104292445D01*
X166878195Y-104237291D01*
X166859811Y-104163752D01*
X166859811Y-104016674D01*
X166878195Y-103979904D01*
X166896580Y-103961520D01*
X166933350Y-103943135D01*
X167006889Y-103943135D01*
X167043658Y-103961520D01*
X167062043Y-103979904D01*
X167080428Y-104016674D01*
X167080428Y-104108598D01*
X167062043Y-104145367D01*
X167043658Y-104163752D01*
X167006889Y-104182137D01*
X166933350Y-104182137D01*
X166896580Y-104163752D01*
X166878195Y-104145367D01*
X166859811Y-104108598D01*
X137306635Y-114819502D02*
X137306635Y-115040119D01*
X137692715Y-114929810D02*
X137306635Y-114929810D01*
X137306635Y-115132043D02*
X137692715Y-115389429D01*
X137306635Y-115389429D02*
X137692715Y-115132043D01*
X137306635Y-115610047D02*
X137306635Y-115683586D01*
X137325020Y-115720355D01*
X137361789Y-115757125D01*
X137435328Y-115775509D01*
X137564021Y-115775509D01*
X137637560Y-115757125D01*
X137674330Y-115720355D01*
X137692715Y-115683586D01*
X137692715Y-115610047D01*
X137674330Y-115573277D01*
X137637560Y-115536508D01*
X137564021Y-115518123D01*
X137435328Y-115518123D01*
X137361789Y-115536508D01*
X137325020Y-115573277D01*
X137306635Y-115610047D01*
X137692715Y-112555273D02*
X137508867Y-112426580D01*
X137692715Y-112334656D02*
X137306635Y-112334656D01*
X137306635Y-112481734D01*
X137325020Y-112518504D01*
X137343404Y-112536888D01*
X137380174Y-112555273D01*
X137435328Y-112555273D01*
X137472098Y-112536888D01*
X137490482Y-112518504D01*
X137508867Y-112481734D01*
X137508867Y-112334656D01*
X137306635Y-112683967D02*
X137692715Y-112941353D01*
X137306635Y-112941353D02*
X137692715Y-112683967D01*
X137692715Y-113088431D02*
X137306635Y-113088431D01*
X137306635Y-109739502D02*
X137692715Y-109868195D01*
X137306635Y-109996888D01*
X137655945Y-110346199D02*
X137674330Y-110327814D01*
X137692715Y-110272660D01*
X137692715Y-110235890D01*
X137674330Y-110180736D01*
X137637560Y-110143967D01*
X137600791Y-110125582D01*
X137527252Y-110107197D01*
X137472098Y-110107197D01*
X137398559Y-110125582D01*
X137361789Y-110143967D01*
X137325020Y-110180736D01*
X137306635Y-110235890D01*
X137306635Y-110272660D01*
X137325020Y-110327814D01*
X137343404Y-110346199D01*
X137655945Y-110732279D02*
X137674330Y-110713894D01*
X137692715Y-110658740D01*
X137692715Y-110621970D01*
X137674330Y-110566816D01*
X137637560Y-110530047D01*
X137600791Y-110511662D01*
X137527252Y-110493277D01*
X137472098Y-110493277D01*
X137398559Y-110511662D01*
X137361789Y-110530047D01*
X137325020Y-110566816D01*
X137306635Y-110621970D01*
X137306635Y-110658740D01*
X137325020Y-110713894D01*
X137343404Y-110732279D01*
X137325020Y-107456888D02*
X137306635Y-107420119D01*
X137306635Y-107364965D01*
X137325020Y-107309810D01*
X137361789Y-107273041D01*
X137398559Y-107254656D01*
X137472098Y-107236271D01*
X137527252Y-107236271D01*
X137600791Y-107254656D01*
X137637560Y-107273041D01*
X137674330Y-107309810D01*
X137692715Y-107364965D01*
X137692715Y-107401734D01*
X137674330Y-107456888D01*
X137655945Y-107475273D01*
X137527252Y-107475273D01*
X137527252Y-107401734D01*
X137692715Y-107640736D02*
X137306635Y-107640736D01*
X137692715Y-107861353D01*
X137306635Y-107861353D01*
X137692715Y-108045201D02*
X137306635Y-108045201D01*
X137306635Y-108137125D01*
X137325020Y-108192279D01*
X137361789Y-108229048D01*
X137398559Y-108247433D01*
X137472098Y-108265818D01*
X137527252Y-108265818D01*
X137600791Y-108247433D01*
X137637560Y-108229048D01*
X137674330Y-108192279D01*
X137692715Y-108137125D01*
X137692715Y-108045201D01*
D22*
X166731756Y-106376213D02*
X166364061Y-106376213D01*
X166805295Y-106596830D02*
X166547908Y-105824670D01*
X166290522Y-106596830D01*
X166033135Y-106596830D02*
X166033135Y-106082057D01*
X166033135Y-106229135D02*
X165996365Y-106155596D01*
X165959596Y-106118826D01*
X165886057Y-106082057D01*
X165812518Y-106082057D01*
X165224205Y-106596830D02*
X165224205Y-105824670D01*
X165224205Y-106560060D02*
X165297744Y-106596830D01*
X165444822Y-106596830D01*
X165518362Y-106560060D01*
X165555131Y-106523291D01*
X165591901Y-106449752D01*
X165591901Y-106229135D01*
X165555131Y-106155596D01*
X165518362Y-106118826D01*
X165444822Y-106082057D01*
X165297744Y-106082057D01*
X165224205Y-106118826D01*
X164525584Y-106082057D02*
X164525584Y-106596830D01*
X164856510Y-106082057D02*
X164856510Y-106486521D01*
X164819741Y-106560060D01*
X164746202Y-106596830D01*
X164635893Y-106596830D01*
X164562354Y-106560060D01*
X164525584Y-106523291D01*
X164157889Y-106596830D02*
X164157889Y-106082057D01*
X164157889Y-105824670D02*
X164194659Y-105861440D01*
X164157889Y-105898209D01*
X164121120Y-105861440D01*
X164157889Y-105824670D01*
X164157889Y-105898209D01*
X163790194Y-106082057D02*
X163790194Y-106596830D01*
X163790194Y-106155596D02*
X163753424Y-106118826D01*
X163679885Y-106082057D01*
X163569577Y-106082057D01*
X163496038Y-106118826D01*
X163459268Y-106192365D01*
X163459268Y-106596830D01*
X162981264Y-106596830D02*
X163054803Y-106560060D01*
X163091573Y-106523291D01*
X163128342Y-106449752D01*
X163128342Y-106229135D01*
X163091573Y-106155596D01*
X163054803Y-106118826D01*
X162981264Y-106082057D01*
X162870956Y-106082057D01*
X162797417Y-106118826D01*
X162760647Y-106155596D01*
X162723878Y-106229135D01*
X162723878Y-106449752D01*
X162760647Y-106523291D01*
X162797417Y-106560060D01*
X162870956Y-106596830D01*
X162981264Y-106596830D01*
X161804640Y-106596830D02*
X161804640Y-105824670D01*
X161510483Y-105824670D01*
X161436944Y-105861440D01*
X161400175Y-105898209D01*
X161363405Y-105971748D01*
X161363405Y-106082057D01*
X161400175Y-106155596D01*
X161436944Y-106192365D01*
X161510483Y-106229135D01*
X161804640Y-106229135D01*
X161032480Y-106596830D02*
X161032480Y-106082057D01*
X161032480Y-106229135D02*
X160995710Y-106155596D01*
X160958941Y-106118826D01*
X160885402Y-106082057D01*
X160811862Y-106082057D01*
X160444167Y-106596830D02*
X160517706Y-106560060D01*
X160554476Y-106523291D01*
X160591245Y-106449752D01*
X160591245Y-106229135D01*
X160554476Y-106155596D01*
X160517706Y-106118826D01*
X160444167Y-106082057D01*
X160333859Y-106082057D01*
X160260320Y-106118826D01*
X160223550Y-106155596D01*
X160186781Y-106229135D01*
X160186781Y-106449752D01*
X160223550Y-106523291D01*
X160260320Y-106560060D01*
X160333859Y-106596830D01*
X160444167Y-106596830D01*
X159267542Y-106596830D02*
X159267542Y-105824670D01*
X159010156Y-106376213D01*
X158752769Y-105824670D01*
X158752769Y-106596830D01*
X158385074Y-106596830D02*
X158385074Y-106082057D01*
X158385074Y-105824670D02*
X158421843Y-105861440D01*
X158385074Y-105898209D01*
X158348304Y-105861440D01*
X158385074Y-105824670D01*
X158385074Y-105898209D01*
X158017379Y-106082057D02*
X158017379Y-106596830D01*
X158017379Y-106155596D02*
X157980609Y-106118826D01*
X157907070Y-106082057D01*
X157796762Y-106082057D01*
X157723222Y-106118826D01*
X157686453Y-106192365D01*
X157686453Y-106596830D01*
X157318758Y-106596830D02*
X157318758Y-106082057D01*
X157318758Y-105824670D02*
X157355527Y-105861440D01*
X157318758Y-105898209D01*
X157281988Y-105861440D01*
X157318758Y-105824670D01*
X157318758Y-105898209D01*
G04 #@! TO.C,C15*
D23*
X176591142Y-107459542D02*
X176638761Y-107411923D01*
X176686380Y-107269066D01*
X176686380Y-107173828D01*
X176638761Y-107030971D01*
X176543523Y-106935733D01*
X176448285Y-106888114D01*
X176257809Y-106840495D01*
X176114952Y-106840495D01*
X175924476Y-106888114D01*
X175829238Y-106935733D01*
X175734000Y-107030971D01*
X175686380Y-107173828D01*
X175686380Y-107269066D01*
X175734000Y-107411923D01*
X175781619Y-107459542D01*
X176686380Y-108411923D02*
X176686380Y-107840495D01*
X176686380Y-108126209D02*
X175686380Y-108126209D01*
X175829238Y-108030971D01*
X175924476Y-107935733D01*
X175972095Y-107840495D01*
X175686380Y-109316685D02*
X175686380Y-108840495D01*
X176162571Y-108792876D01*
X176114952Y-108840495D01*
X176067333Y-108935733D01*
X176067333Y-109173828D01*
X176114952Y-109269066D01*
X176162571Y-109316685D01*
X176257809Y-109364304D01*
X176495904Y-109364304D01*
X176591142Y-109316685D01*
X176638761Y-109269066D01*
X176686380Y-109173828D01*
X176686380Y-108935733D01*
X176638761Y-108840495D01*
X176591142Y-108792876D01*
G04 #@! TO.C,J2*
X187513980Y-113153866D02*
X188228266Y-113153866D01*
X188371123Y-113106247D01*
X188466361Y-113011009D01*
X188513980Y-112868152D01*
X188513980Y-112772914D01*
X187609219Y-113582438D02*
X187561600Y-113630057D01*
X187513980Y-113725295D01*
X187513980Y-113963390D01*
X187561600Y-114058628D01*
X187609219Y-114106247D01*
X187704457Y-114153866D01*
X187799695Y-114153866D01*
X187942552Y-114106247D01*
X188513980Y-113534819D01*
X188513980Y-114153866D01*
G04 #@! TO.C,C14*
X176888057Y-112556742D02*
X176935676Y-112604361D01*
X177078533Y-112651980D01*
X177173771Y-112651980D01*
X177316628Y-112604361D01*
X177411866Y-112509123D01*
X177459485Y-112413885D01*
X177507104Y-112223409D01*
X177507104Y-112080552D01*
X177459485Y-111890076D01*
X177411866Y-111794838D01*
X177316628Y-111699600D01*
X177173771Y-111651980D01*
X177078533Y-111651980D01*
X176935676Y-111699600D01*
X176888057Y-111747219D01*
X175935676Y-112651980D02*
X176507104Y-112651980D01*
X176221390Y-112651980D02*
X176221390Y-111651980D01*
X176316628Y-111794838D01*
X176411866Y-111890076D01*
X176507104Y-111937695D01*
X175078533Y-111985314D02*
X175078533Y-112651980D01*
X175316628Y-111604361D02*
X175554723Y-112318647D01*
X174935676Y-112318647D01*
G04 #@! TO.C,C13*
X196343542Y-96080342D02*
X196391161Y-96032723D01*
X196438780Y-95889866D01*
X196438780Y-95794628D01*
X196391161Y-95651771D01*
X196295923Y-95556533D01*
X196200685Y-95508914D01*
X196010209Y-95461295D01*
X195867352Y-95461295D01*
X195676876Y-95508914D01*
X195581638Y-95556533D01*
X195486400Y-95651771D01*
X195438780Y-95794628D01*
X195438780Y-95889866D01*
X195486400Y-96032723D01*
X195534019Y-96080342D01*
X196438780Y-97032723D02*
X196438780Y-96461295D01*
X196438780Y-96747009D02*
X195438780Y-96747009D01*
X195581638Y-96651771D01*
X195676876Y-96556533D01*
X195724495Y-96461295D01*
X195438780Y-97366057D02*
X195438780Y-97985104D01*
X195819733Y-97651771D01*
X195819733Y-97794628D01*
X195867352Y-97889866D01*
X195914971Y-97937485D01*
X196010209Y-97985104D01*
X196248304Y-97985104D01*
X196343542Y-97937485D01*
X196391161Y-97889866D01*
X196438780Y-97794628D01*
X196438780Y-97508914D01*
X196391161Y-97413676D01*
X196343542Y-97366057D01*
G04 #@! TO.C,C11*
X171705542Y-107408742D02*
X171753161Y-107361123D01*
X171800780Y-107218266D01*
X171800780Y-107123028D01*
X171753161Y-106980171D01*
X171657923Y-106884933D01*
X171562685Y-106837314D01*
X171372209Y-106789695D01*
X171229352Y-106789695D01*
X171038876Y-106837314D01*
X170943638Y-106884933D01*
X170848400Y-106980171D01*
X170800780Y-107123028D01*
X170800780Y-107218266D01*
X170848400Y-107361123D01*
X170896019Y-107408742D01*
X171800780Y-108361123D02*
X171800780Y-107789695D01*
X171800780Y-108075409D02*
X170800780Y-108075409D01*
X170943638Y-107980171D01*
X171038876Y-107884933D01*
X171086495Y-107789695D01*
X171800780Y-109313504D02*
X171800780Y-108742076D01*
X171800780Y-109027790D02*
X170800780Y-109027790D01*
X170943638Y-108932552D01*
X171038876Y-108837314D01*
X171086495Y-108742076D01*
G04 #@! TO.C,C12*
X184792857Y-100137142D02*
X184840476Y-100184761D01*
X184983333Y-100232380D01*
X185078571Y-100232380D01*
X185221428Y-100184761D01*
X185316666Y-100089523D01*
X185364285Y-99994285D01*
X185411904Y-99803809D01*
X185411904Y-99660952D01*
X185364285Y-99470476D01*
X185316666Y-99375238D01*
X185221428Y-99280000D01*
X185078571Y-99232380D01*
X184983333Y-99232380D01*
X184840476Y-99280000D01*
X184792857Y-99327619D01*
X183840476Y-100232380D02*
X184411904Y-100232380D01*
X184126190Y-100232380D02*
X184126190Y-99232380D01*
X184221428Y-99375238D01*
X184316666Y-99470476D01*
X184411904Y-99518095D01*
X183459523Y-99327619D02*
X183411904Y-99280000D01*
X183316666Y-99232380D01*
X183078571Y-99232380D01*
X182983333Y-99280000D01*
X182935714Y-99327619D01*
X182888095Y-99422857D01*
X182888095Y-99518095D01*
X182935714Y-99660952D01*
X183507142Y-100232380D01*
X182888095Y-100232380D01*
G04 #@! TO.C,C9*
X192749466Y-103227142D02*
X192797085Y-103274761D01*
X192939942Y-103322380D01*
X193035180Y-103322380D01*
X193178038Y-103274761D01*
X193273276Y-103179523D01*
X193320895Y-103084285D01*
X193368514Y-102893809D01*
X193368514Y-102750952D01*
X193320895Y-102560476D01*
X193273276Y-102465238D01*
X193178038Y-102370000D01*
X193035180Y-102322380D01*
X192939942Y-102322380D01*
X192797085Y-102370000D01*
X192749466Y-102417619D01*
X192273276Y-103322380D02*
X192082800Y-103322380D01*
X191987561Y-103274761D01*
X191939942Y-103227142D01*
X191844704Y-103084285D01*
X191797085Y-102893809D01*
X191797085Y-102512857D01*
X191844704Y-102417619D01*
X191892323Y-102370000D01*
X191987561Y-102322380D01*
X192178038Y-102322380D01*
X192273276Y-102370000D01*
X192320895Y-102417619D01*
X192368514Y-102512857D01*
X192368514Y-102750952D01*
X192320895Y-102846190D01*
X192273276Y-102893809D01*
X192178038Y-102941428D01*
X191987561Y-102941428D01*
X191892323Y-102893809D01*
X191844704Y-102846190D01*
X191797085Y-102750952D01*
G04 #@! TO.C,C10*
X191955657Y-88037942D02*
X192003276Y-88085561D01*
X192146133Y-88133180D01*
X192241371Y-88133180D01*
X192384228Y-88085561D01*
X192479466Y-87990323D01*
X192527085Y-87895085D01*
X192574704Y-87704609D01*
X192574704Y-87561752D01*
X192527085Y-87371276D01*
X192479466Y-87276038D01*
X192384228Y-87180800D01*
X192241371Y-87133180D01*
X192146133Y-87133180D01*
X192003276Y-87180800D01*
X191955657Y-87228419D01*
X191003276Y-88133180D02*
X191574704Y-88133180D01*
X191288990Y-88133180D02*
X191288990Y-87133180D01*
X191384228Y-87276038D01*
X191479466Y-87371276D01*
X191574704Y-87418895D01*
X190384228Y-87133180D02*
X190288990Y-87133180D01*
X190193752Y-87180800D01*
X190146133Y-87228419D01*
X190098514Y-87323657D01*
X190050895Y-87514133D01*
X190050895Y-87752228D01*
X190098514Y-87942704D01*
X190146133Y-88037942D01*
X190193752Y-88085561D01*
X190288990Y-88133180D01*
X190384228Y-88133180D01*
X190479466Y-88085561D01*
X190527085Y-88037942D01*
X190574704Y-87942704D01*
X190622323Y-87752228D01*
X190622323Y-87514133D01*
X190574704Y-87323657D01*
X190527085Y-87228419D01*
X190479466Y-87180800D01*
X190384228Y-87133180D01*
G04 #@! TO.C,Q1*
D19*
X129089452Y-100230017D02*
X129032000Y-100115112D01*
X128917095Y-100000208D01*
X128744738Y-99827851D01*
X128687285Y-99712946D01*
X128687285Y-99598041D01*
X128974547Y-99655493D02*
X128917095Y-99540589D01*
X128802190Y-99425684D01*
X128572380Y-99368232D01*
X128170214Y-99368232D01*
X127940404Y-99425684D01*
X127825500Y-99540589D01*
X127768047Y-99655493D01*
X127768047Y-99885303D01*
X127825500Y-100000208D01*
X127940404Y-100115112D01*
X128170214Y-100172565D01*
X128572380Y-100172565D01*
X128802190Y-100115112D01*
X128917095Y-100000208D01*
X128974547Y-99885303D01*
X128974547Y-99655493D01*
X128974547Y-101321612D02*
X128974547Y-100632184D01*
X128974547Y-100976898D02*
X127768047Y-100976898D01*
X127940404Y-100861993D01*
X128055309Y-100747089D01*
X128112761Y-100632184D01*
G04 #@! TO.C,R2*
D20*
X126559884Y-117290547D02*
X126962051Y-116716023D01*
X127249313Y-117290547D02*
X127249313Y-116084047D01*
X126789694Y-116084047D01*
X126674789Y-116141500D01*
X126617336Y-116198952D01*
X126559884Y-116313857D01*
X126559884Y-116486214D01*
X126617336Y-116601119D01*
X126674789Y-116658571D01*
X126789694Y-116716023D01*
X127249313Y-116716023D01*
X126100265Y-116198952D02*
X126042813Y-116141500D01*
X125927908Y-116084047D01*
X125640646Y-116084047D01*
X125525741Y-116141500D01*
X125468289Y-116198952D01*
X125410836Y-116313857D01*
X125410836Y-116428761D01*
X125468289Y-116601119D01*
X126157717Y-117290547D01*
X125410836Y-117290547D01*
D21*
X123628043Y-117787828D02*
X123333887Y-117898137D01*
X123628043Y-118008445D01*
X123150039Y-118045215D02*
X123150039Y-117659135D01*
X122929422Y-118045215D01*
X122929422Y-117659135D01*
X122580111Y-118045215D02*
X122580111Y-117842982D01*
X122598496Y-117806213D01*
X122635266Y-117787828D01*
X122708805Y-117787828D01*
X122745574Y-117806213D01*
X122580111Y-118026830D02*
X122616881Y-118045215D01*
X122708805Y-118045215D01*
X122745574Y-118026830D01*
X122763959Y-117990060D01*
X122763959Y-117953291D01*
X122745574Y-117916521D01*
X122708805Y-117898137D01*
X122616881Y-117898137D01*
X122580111Y-117879752D01*
X122396264Y-118045215D02*
X122396264Y-117787828D01*
X122396264Y-117824598D02*
X122377879Y-117806213D01*
X122341110Y-117787828D01*
X122285955Y-117787828D01*
X122249186Y-117806213D01*
X122230801Y-117842982D01*
X122230801Y-118045215D01*
X122230801Y-117842982D02*
X122212416Y-117806213D01*
X122175647Y-117787828D01*
X122120492Y-117787828D01*
X122083723Y-117806213D01*
X122065338Y-117842982D01*
X122065338Y-118045215D01*
X121734412Y-118026830D02*
X121771182Y-118045215D01*
X121844721Y-118045215D01*
X121881491Y-118026830D01*
X121899875Y-117990060D01*
X121899875Y-117842982D01*
X121881491Y-117806213D01*
X121844721Y-117787828D01*
X121771182Y-117787828D01*
X121734412Y-117806213D01*
X121716028Y-117842982D01*
X121716028Y-117879752D01*
X121899875Y-117916521D01*
G04 #@! TO.C,R6*
D23*
X187193180Y-99248933D02*
X186716990Y-98915600D01*
X187193180Y-98677504D02*
X186193180Y-98677504D01*
X186193180Y-99058457D01*
X186240800Y-99153695D01*
X186288419Y-99201314D01*
X186383657Y-99248933D01*
X186526514Y-99248933D01*
X186621752Y-99201314D01*
X186669371Y-99153695D01*
X186716990Y-99058457D01*
X186716990Y-98677504D01*
X186193180Y-100106076D02*
X186193180Y-99915600D01*
X186240800Y-99820361D01*
X186288419Y-99772742D01*
X186431276Y-99677504D01*
X186621752Y-99629885D01*
X187002704Y-99629885D01*
X187097942Y-99677504D01*
X187145561Y-99725123D01*
X187193180Y-99820361D01*
X187193180Y-100010838D01*
X187145561Y-100106076D01*
X187097942Y-100153695D01*
X187002704Y-100201314D01*
X186764609Y-100201314D01*
X186669371Y-100153695D01*
X186621752Y-100106076D01*
X186574133Y-100010838D01*
X186574133Y-99820361D01*
X186621752Y-99725123D01*
X186669371Y-99677504D01*
X186764609Y-99629885D01*
G04 #@! TO.C,R7*
X196489580Y-90917733D02*
X196013390Y-90584400D01*
X196489580Y-90346304D02*
X195489580Y-90346304D01*
X195489580Y-90727257D01*
X195537200Y-90822495D01*
X195584819Y-90870114D01*
X195680057Y-90917733D01*
X195822914Y-90917733D01*
X195918152Y-90870114D01*
X195965771Y-90822495D01*
X196013390Y-90727257D01*
X196013390Y-90346304D01*
X195489580Y-91251066D02*
X195489580Y-91917733D01*
X196489580Y-91489161D01*
G04 #@! TO.C,R10*
X191701657Y-97835980D02*
X192034990Y-97359790D01*
X192273085Y-97835980D02*
X192273085Y-96835980D01*
X191892133Y-96835980D01*
X191796895Y-96883600D01*
X191749276Y-96931219D01*
X191701657Y-97026457D01*
X191701657Y-97169314D01*
X191749276Y-97264552D01*
X191796895Y-97312171D01*
X191892133Y-97359790D01*
X192273085Y-97359790D01*
X190749276Y-97835980D02*
X191320704Y-97835980D01*
X191034990Y-97835980D02*
X191034990Y-96835980D01*
X191130228Y-96978838D01*
X191225466Y-97074076D01*
X191320704Y-97121695D01*
X190130228Y-96835980D02*
X190034990Y-96835980D01*
X189939752Y-96883600D01*
X189892133Y-96931219D01*
X189844514Y-97026457D01*
X189796895Y-97216933D01*
X189796895Y-97455028D01*
X189844514Y-97645504D01*
X189892133Y-97740742D01*
X189939752Y-97788361D01*
X190034990Y-97835980D01*
X190130228Y-97835980D01*
X190225466Y-97788361D01*
X190273085Y-97740742D01*
X190320704Y-97645504D01*
X190368323Y-97455028D01*
X190368323Y-97216933D01*
X190320704Y-97026457D01*
X190273085Y-96931219D01*
X190225466Y-96883600D01*
X190130228Y-96835980D01*
G04 #@! TO.C,R9*
X188634666Y-88133180D02*
X188968000Y-87656990D01*
X189206095Y-88133180D02*
X189206095Y-87133180D01*
X188825142Y-87133180D01*
X188729904Y-87180800D01*
X188682285Y-87228419D01*
X188634666Y-87323657D01*
X188634666Y-87466514D01*
X188682285Y-87561752D01*
X188729904Y-87609371D01*
X188825142Y-87656990D01*
X189206095Y-87656990D01*
X188158476Y-88133180D02*
X187968000Y-88133180D01*
X187872761Y-88085561D01*
X187825142Y-88037942D01*
X187729904Y-87895085D01*
X187682285Y-87704609D01*
X187682285Y-87323657D01*
X187729904Y-87228419D01*
X187777523Y-87180800D01*
X187872761Y-87133180D01*
X188063238Y-87133180D01*
X188158476Y-87180800D01*
X188206095Y-87228419D01*
X188253714Y-87323657D01*
X188253714Y-87561752D01*
X188206095Y-87656990D01*
X188158476Y-87704609D01*
X188063238Y-87752228D01*
X187872761Y-87752228D01*
X187777523Y-87704609D01*
X187729904Y-87656990D01*
X187682285Y-87561752D01*
G04 #@! TD*
M02*
